# Made in Blockbench 4.12.5
mtllib bunk_bed.mtl

o bed
v 1 0.375 0.5
v 1 0.375 -0.5
v 1 0.125 0.5
v 1 0.125 -0.5
v -1 0.375 0.5
v -1 0.375 -0.5
v -1 0.125 0.5
v -1 0.125 -0.5
vt 0.640625 0.9609375
vt 0.515625 0.9609375
vt 0.515625 0.9296875
vt 0.640625 0.9296875
vt 0.640625 0.890625
vt 0.640625 0.921875
vt 0.515625 0.921875
vt 0.515625 0.890625
vt 0 0.875
vt 0.25 0.875
vt 0.25 1
vt 0 1
vt 0.25 0.7421875
vt 0.25 0.8671875
vt 0 0.8671875
vt 0 0.7421875
vt 0.25 0.5625
vt 0.25 0.59375
vt 0 0.59375
vt 0 0.5625
vt 0.25 0.5546875
vt 0 0.5546875
vt 0 0.5234375
vt 0.25 0.5234375
vn 1 0 0
vn -1 0 0
vn 0 1 0
vn 0 -1 0
vn 0 0 1
vn 0 0 -1
usemtl m_5e84ad2c-82d3-677d-f7b8-3775e22075e0
f 2/1/1 1/2/1 3/3/1 4/4/1
f 7/5/2 5/6/2 6/7/2 8/8/2
f 5/9/3 1/10/3 2/11/3 6/12/3
f 4/13/4 3/14/4 7/15/4 8/16/4
f 3/17/5 1/18/5 5/19/5 7/20/5
f 6/21/6 2/22/6 4/23/6 8/24/6
o pillow
v -0.5625 0.5 0.34375
v -0.5625 0.5 -0.34375
v -0.5625 0.375 0.34375
v -0.5625 0.375 -0.34375
v -0.875 0.5 0.34375
v -0.875 0.5 -0.34375
v -0.875 0.375 0.34375
v -0.875 0.375 -0.34375
vt 0.34375 0.5
vt 0.2578125 0.5
vt 0.2578125 0.484375
vt 0.34375 0.484375
vt 0.3671875 0.4296875
vt 0.3671875 0.4453125
vt 0.28125 0.4453125
vt 0.28125 0.4296875
vt 0.2578125 0.5078125
vt 0.296875 0.5078125
vt 0.296875 0.59375
vt 0.2578125 0.59375
vt 0.34375 0.5078125
vt 0.34375 0.59375
vt 0.3046875 0.59375
vt 0.3046875 0.5078125
vt 0.3203125 0.40625
vt 0.3203125 0.421875
vt 0.28125 0.421875
vt 0.28125 0.40625
vt 0.3671875 0.421875
vt 0.328125 0.421875
vt 0.328125 0.40625
vt 0.3671875 0.40625
vn 1 0 0
vn -1 0 0
vn 0 1 0
vn 0 -1 0
vn 0 0 1
vn 0 0 -1
usemtl m_5e84ad2c-82d3-677d-f7b8-3775e22075e0
f 10/25/7 9/26/7 11/27/7 12/28/7
f 15/29/8 13/30/8 14/31/8 16/32/8
f 13/33/9 9/34/9 10/35/9 14/36/9
f 12/37/10 11/38/10 15/39/10 16/40/10
f 11/41/11 9/42/11 13/43/11 15/44/11
f 14/45/12 10/46/12 12/47/12 16/48/12
o blanket
v 0.90625 0.40625 0.53125
v 0.90625 0.40625 -0.53125
v 0.90625 0.375 0.53125
v 0.90625 0.375 -0.53125
v -0.5 0.40625 0.53125
v -0.5 0.40625 -0.53125
v -0.5 0.375 0.53125
v -0.5 0.375 -0.53125
v -0.5 0.375 0.5
v -0.5 0.40625 0.5
v 0.90625 0.40625 0.5
v 0.90625 0.375 0.5
v -0.5 0.375 -0.5
v -0.5 0.40625 -0.5
v 0.90625 0.40625 -0.5
v 0.90625 0.375 -0.5
v -0.5 0.25 0.53125
v 0.90625 0.25 0.5
v -0.5 0.25 0.5
v 0.90625 0.25 0.53125
v 0.90625 0.25 -0.53125
v 0.90625 0.25 -0.5
v -0.5 0.25 -0.5
v -0.5 0.25 -0.53125
vt 0.5625 0.64453125
vt 0.56640625 0.64453125
vt 0.56640625 0.6484375
vt 0.5625 0.6484375
vt 0.6953125 0.6171875
vt 0.69140625 0.6171875
vt 0.69140625 0.61328125
vt 0.6953125 0.61328125
vt 0.17578125 0.6015625
vt 0.17578125 0.60546875
vt 0 0.60546875
vt 0 0.6015625
vt 0.5625 0.5234375
vt 0.5625 0.515625
vt 0.7421875 0.515625
vt 0.7421875 0.5234375
vt 0.69140625 0.80078125
vt 0.69140625 0.8046875
vt 0.515625 0.8046875
vt 0.515625 0.80078125
vt 0.69140625 0.7734375
vt 0.515625 0.7734375
vt 0.515625 0.76953125
vt 0.69140625 0.76953125
vt 0.69140625 0.6171875
vt 0.56640625 0.6171875
vt 0.56640625 0.61328125
vt 0.69140625 0.61328125
vt 0.17578125 0.60546875
vt 0.17578125 0.73046875
vt 0 0.73046875
vt 0 0.60546875
vt 0.56640625 0.64453125
vt 0.69140625 0.64453125
vt 0.69140625 0.6484375
vt 0.56640625 0.6484375
vt 0.375 0.734375
vt 0.375 0.609375
vt 0.5546875 0.609375
vt 0.5546875 0.734375
vt 0.5625 0.61328125
vt 0.56640625 0.61328125
vt 0.56640625 0.6171875
vt 0.5625 0.6171875
vt 0 0.734375
vt 0 0.73046875
vt 0.17578125 0.73046875
vt 0.17578125 0.734375
vt 0.6953125 0.6484375
vt 0.69140625 0.6484375
vt 0.69140625 0.64453125
vt 0.6953125 0.64453125
vt 0.7421875 0.5
vt 0.7421875 0.5078125
vt 0.5625 0.5078125
vt 0.5625 0.5
vt 0.69140625 0.59765625
vt 0.6953125 0.59765625
vt 0.6953125 0.61328125
vt 0.69140625 0.61328125
vt 0.5625 0.7265625
vt 0.7421875 0.7265625
vt 0.7421875 0.7421875
vt 0.5625 0.7421875
vt 0.5625 0.62890625
vt 0.56640625 0.62890625
vt 0.56640625 0.64453125
vt 0.5625 0.64453125
vt 0.515625 0.78515625
vt 0.69140625 0.78515625
vt 0.69140625 0.80078125
vt 0.515625 0.80078125
vt 0.69140625 0.62890625
vt 0.6953125 0.62890625
vt 0.6953125 0.64453125
vt 0.69140625 0.64453125
vt 0.5625 0.703125
vt 0.7421875 0.703125
vt 0.7421875 0.71875
vt 0.5625 0.71875
vt 0.5625 0.59765625
vt 0.56640625 0.59765625
vt 0.56640625 0.61328125
vt 0.5625 0.61328125
vt 0.515625 0.75390625
vt 0.69140625 0.75390625
vt 0.69140625 0.76953125
vt 0.515625 0.76953125
vn 1 0 0
vn -1 0 0
vn 0 1 0
vn 0 -1 0
vn 0 0 1
vn 0 0 -1
vn -1 0 0
vn 0 1 0
vn 1 0 0
vn 0 -1 0
vn -1 0 0
vn 0 1 0
vn 1 0 0
vn 0 -1 0
vn -1 0 0
vn 0 0 -1
vn 1 0 0
vn 0 0 1
vn 1 0 0
vn 0 0 1
vn -1 0 0
vn 0 0 -1
usemtl m_5e84ad2c-82d3-677d-f7b8-3775e22075e0
f 19/49/13 28/50/13 27/51/13 17/52/13
f 21/53/14 26/54/14 25/55/14 23/56/14
f 17/57/15 27/58/15 26/59/15 21/60/15
f 33/61/16 35/62/16 34/63/16 36/64/16
f 19/65/17 17/66/17 21/67/17 23/68/17
f 22/69/18 18/70/18 20/71/18 24/72/18
f 26/73/19 30/74/19 29/75/19 25/76/19
f 27/77/20 31/78/20 30/79/20 26/80/20
f 28/81/21 32/82/21 31/83/21 27/84/21
f 25/85/22 29/86/22 32/87/22 28/88/22
f 24/89/23 29/90/23 30/91/23 22/92/23
f 22/93/24 30/94/24 31/95/24 18/96/24
f 18/97/25 31/98/25 32/99/25 20/100/25
f 37/101/26 38/102/26 39/103/26 40/104/26
f 35/105/27 33/106/27 23/107/27 25/108/27
f 34/109/28 35/110/28 25/111/28 28/112/28
f 36/113/29 34/114/29 28/115/29 19/116/29
f 33/117/30 36/118/30 19/119/30 23/120/30
f 38/121/31 37/122/31 20/123/31 32/124/31
f 39/125/32 38/126/32 32/127/32 29/128/32
f 40/129/33 39/130/33 29/131/33 24/132/33
f 37/133/34 40/134/34 24/135/34 20/136/34
o bed
v 1 1.375 0.5
v 1 1.375 -0.5
v 1 1.125 0.5
v 1 1.125 -0.5
v -1 1.375 0.5
v -1 1.375 -0.5
v -1 1.125 0.5
v -1 1.125 -0.5
vt 0.640625 0.8828125
vt 0.515625 0.8828125
vt 0.515625 0.8515625
vt 0.640625 0.8515625
vt 0.640625 0.8125
vt 0.640625 0.84375
vt 0.515625 0.84375
vt 0.515625 0.8125
vt 0.2578125 0.875
vt 0.5078125 0.875
vt 0.5078125 1
vt 0.2578125 1
vt 0.5078125 0.7421875
vt 0.5078125 0.8671875
vt 0.2578125 0.8671875
vt 0.2578125 0.7421875
vt 0.25 0.484375
vt 0.25 0.515625
vt 0 0.515625
vt 0 0.484375
vt 0.765625 1
vt 0.515625 1
vt 0.515625 0.96875
vt 0.765625 0.96875
vn 1 0 0
vn -1 0 0
vn 0 1 0
vn 0 -1 0
vn 0 0 1
vn 0 0 -1
usemtl m_5e84ad2c-82d3-677d-f7b8-3775e22075e0
f 42/137/35 41/138/35 43/139/35 44/140/35
f 47/141/36 45/142/36 46/143/36 48/144/36
f 45/145/37 41/146/37 42/147/37 46/148/37
f 44/149/38 43/150/38 47/151/38 48/152/38
f 43/153/39 41/154/39 45/155/39 47/156/39
f 46/157/40 42/158/40 44/159/40 48/160/40
o pillow
v -0.5625 1.5 0.34375
v -0.5625 1.5 -0.34375
v -0.5625 1.375 0.34375
v -0.5625 1.375 -0.34375
v -0.875 1.5 0.34375
v -0.875 1.5 -0.34375
v -0.875 1.375 0.34375
v -0.875 1.375 -0.34375
vt 0.6484375 0.4609375
vt 0.5625 0.4609375
vt 0.5625 0.4453125
vt 0.6484375 0.4453125
vt 0.6484375 0.421875
vt 0.6484375 0.4375
vt 0.5625 0.4375
vt 0.5625 0.421875
vt 0.375 0.3828125
vt 0.4140625 0.3828125
vt 0.4140625 0.46875
vt 0.375 0.46875
vt 0.4609375 0.3828125
vt 0.4609375 0.46875
vt 0.421875 0.46875
vt 0.421875 0.3828125
vt 0.6015625 0.3984375
vt 0.6015625 0.4140625
vt 0.5625 0.4140625
vt 0.5625 0.3984375
vt 0.3203125 0.3984375
vt 0.28125 0.3984375
vt 0.28125 0.3828125
vt 0.3203125 0.3828125
vn 1 0 0
vn -1 0 0
vn 0 1 0
vn 0 -1 0
vn 0 0 1
vn 0 0 -1
usemtl m_5e84ad2c-82d3-677d-f7b8-3775e22075e0
f 50/161/41 49/162/41 51/163/41 52/164/41
f 55/165/42 53/166/42 54/167/42 56/168/42
f 53/169/43 49/170/43 50/171/43 54/172/43
f 52/173/44 51/174/44 55/175/44 56/176/44
f 51/177/45 49/178/45 53/179/45 55/180/45
f 54/181/46 50/182/46 52/183/46 56/184/46
o blanket
v 0.90625 1.40625 0.53125
v 0.90625 1.40625 -0.53125
v 0.90625 1.375 0.53125
v 0.90625 1.375 -0.53125
v -0.5 1.40625 0.53125
v -0.5 1.40625 -0.53125
v -0.5 1.375 0.53125
v -0.5 1.375 -0.53125
v -0.5 1.375 0.5
v -0.5 1.40625 0.5
v 0.90625 1.40625 0.5
v 0.90625 1.375 0.5
v -0.5 1.375 -0.5
v -0.5 1.40625 -0.5
v 0.90625 1.40625 -0.5
v 0.90625 1.375 -0.5
v -0.5 1.25 0.53125
v 0.90625 1.25 0.5
v -0.5 1.25 0.5
v 0.90625 1.25 0.53125
v 0.90625 1.25 -0.53125
v 0.90625 1.25 -0.5
v -0.5 1.25 -0.5
v -0.5 1.25 -0.53125
vt 0.5625 0.58203125
vt 0.56640625 0.58203125
vt 0.56640625 0.5859375
vt 0.5625 0.5859375
vt 0.6953125 0.5546875
vt 0.69140625 0.5546875
vt 0.69140625 0.55078125
vt 0.6953125 0.55078125
vt 0.36328125 0.6015625
vt 0.36328125 0.60546875
vt 0.1875 0.60546875
vt 0.1875 0.6015625
vt 0.5625 0.4921875
vt 0.5625 0.484375
vt 0.7421875 0.484375
vt 0.7421875 0.4921875
vt 0.17578125 0.47265625
vt 0.17578125 0.4765625
vt 0 0.4765625
vt 0 0.47265625
vt 0.36328125 0.4765625
vt 0.1875 0.4765625
vt 0.1875 0.47265625
vt 0.36328125 0.47265625
vt 0.69140625 0.5546875
vt 0.56640625 0.5546875
vt 0.56640625 0.55078125
vt 0.69140625 0.55078125
vt 0.36328125 0.60546875
vt 0.36328125 0.73046875
vt 0.1875 0.73046875
vt 0.1875 0.60546875
vt 0.56640625 0.58203125
vt 0.69140625 0.58203125
vt 0.69140625 0.5859375
vt 0.56640625 0.5859375
vt 0.375 0.6015625
vt 0.375 0.4765625
vt 0.5546875 0.4765625
vt 0.5546875 0.6015625
vt 0.5625 0.55078125
vt 0.56640625 0.55078125
vt 0.56640625 0.5546875
vt 0.5625 0.5546875
vt 0.1875 0.734375
vt 0.1875 0.73046875
vt 0.36328125 0.73046875
vt 0.36328125 0.734375
vt 0.6953125 0.5859375
vt 0.69140625 0.5859375
vt 0.69140625 0.58203125
vt 0.6953125 0.58203125
vt 0.7421875 0.46875
vt 0.7421875 0.4765625
vt 0.5625 0.4765625
vt 0.5625 0.46875
vt 0.69140625 0.53515625
vt 0.6953125 0.53515625
vt 0.6953125 0.55078125
vt 0.69140625 0.55078125
vt 0.5625 0.6796875
vt 0.7421875 0.6796875
vt 0.7421875 0.6953125
vt 0.5625 0.6953125
vt 0.5625 0.56640625
vt 0.56640625 0.56640625
vt 0.56640625 0.58203125
vt 0.5625 0.58203125
vt 0 0.45703125
vt 0.17578125 0.45703125
vt 0.17578125 0.47265625
vt 0 0.47265625
vt 0.69140625 0.56640625
vt 0.6953125 0.56640625
vt 0.6953125 0.58203125
vt 0.69140625 0.58203125
vt 0.5625 0.65625
vt 0.7421875 0.65625
vt 0.7421875 0.671875
vt 0.5625 0.671875
vt 0.5625 0.53515625
vt 0.56640625 0.53515625
vt 0.56640625 0.55078125
vt 0.5625 0.55078125
vt 0.1875 0.45703125
vt 0.36328125 0.45703125
vt 0.36328125 0.47265625
vt 0.1875 0.47265625
vn 1 0 0
vn -1 0 0
vn 0 1 0
vn 0 -1 0
vn 0 0 1
vn 0 0 -1
vn -1 0 0
vn 0 1 0
vn 1 0 0
vn 0 -1 0
vn -1 0 0
vn 0 1 0
vn 1 0 0
vn 0 -1 0
vn -1 0 0
vn 0 0 -1
vn 1 0 0
vn 0 0 1
vn 1 0 0
vn 0 0 1
vn -1 0 0
vn 0 0 -1
usemtl m_5e84ad2c-82d3-677d-f7b8-3775e22075e0
f 59/185/47 68/186/47 67/187/47 57/188/47
f 61/189/48 66/190/48 65/191/48 63/192/48
f 57/193/49 67/194/49 66/195/49 61/196/49
f 73/197/50 75/198/50 74/199/50 76/200/50
f 59/201/51 57/202/51 61/203/51 63/204/51
f 62/205/52 58/206/52 60/207/52 64/208/52
f 66/209/53 70/210/53 69/211/53 65/212/53
f 67/213/54 71/214/54 70/215/54 66/216/54
f 68/217/55 72/218/55 71/219/55 67/220/55
f 65/221/56 69/222/56 72/223/56 68/224/56
f 64/225/57 69/226/57 70/227/57 62/228/57
f 62/229/58 70/230/58 71/231/58 58/232/58
f 58/233/59 71/234/59 72/235/59 60/236/59
f 77/237/60 78/238/60 79/239/60 80/240/60
f 75/241/61 73/242/61 63/243/61 65/244/61
f 74/245/62 75/246/62 65/247/62 68/248/62
f 76/249/63 74/250/63 68/251/63 59/252/63
f 73/253/64 76/254/64 59/255/64 63/256/64
f 78/257/65 77/258/65 60/259/65 72/260/65
f 79/261/66 78/262/66 72/263/66 69/264/66
f 80/265/67 79/266/67 69/267/67 64/268/67
f 77/269/68 80/270/68 64/271/68 60/272/68
o stand
v 1.03125 1.625 -0.40625
v 1.03125 1.625 -0.53125
v 1.03125 0 -0.40625
v 1.03125 0 -0.53125
v 0.90625 1.625 -0.40625
v 0.90625 1.625 -0.53125
v 0.90625 0 -0.40625
v 0.90625 0 -0.53125
vt 0.015625 0.4453125
vt 0 0.4453125
vt 0 0.2421875
vt 0.015625 0.2421875
vt 0.0390625 0.2421875
vt 0.0390625 0.4453125
vt 0.0234375 0.4453125
vt 0.0234375 0.2421875
vt 0.3515625 0.53125
vt 0.3671875 0.53125
vt 0.3671875 0.546875
vt 0.3515625 0.546875
vt 0.3671875 0.5078125
vt 0.3671875 0.5234375
vt 0.3515625 0.5234375
vt 0.3515625 0.5078125
vt 0.0625 0.2421875
vt 0.0625 0.4453125
vt 0.046875 0.4453125
vt 0.046875 0.2421875
vt 0.0859375 0.4453125
vt 0.0703125 0.4453125
vt 0.0703125 0.2421875
vt 0.0859375 0.2421875
vn 1 0 0
vn -1 0 0
vn 0 1 0
vn 0 -1 0
vn 0 0 1
vn 0 0 -1
usemtl m_5e84ad2c-82d3-677d-f7b8-3775e22075e0
f 82/273/69 81/274/69 83/275/69 84/276/69
f 87/277/70 85/278/70 86/279/70 88/280/70
f 85/281/71 81/282/71 82/283/71 86/284/71
f 84/285/72 83/286/72 87/287/72 88/288/72
f 83/289/73 81/290/73 85/291/73 87/292/73
f 86/293/74 82/294/74 84/295/74 88/296/74
o stand
v 1.03125 1.625 0.53125
v 1.03125 1.625 0.40625
v 1.03125 0 0.53125
v 1.03125 0 0.40625
v 0.90625 1.625 0.53125
v 0.90625 1.625 0.40625
v 0.90625 0 0.53125
v 0.90625 0 0.40625
vt 0.203125 0.4453125
vt 0.1875 0.4453125
vt 0.1875 0.2421875
vt 0.203125 0.2421875
vt 0.2265625 0.2421875
vt 0.2265625 0.4453125
vt 0.2109375 0.4453125
vt 0.2109375 0.2421875
vt 0.3515625 0.3828125
vt 0.3671875 0.3828125
vt 0.3671875 0.3984375
vt 0.3515625 0.3984375
vt 0.578125 0.375
vt 0.578125 0.390625
vt 0.5625 0.390625
vt 0.5625 0.375
vt 0.25 0.2421875
vt 0.25 0.4453125
vt 0.234375 0.4453125
vt 0.234375 0.2421875
vt 0.2734375 0.4453125
vt 0.2578125 0.4453125
vt 0.2578125 0.2421875
vt 0.2734375 0.2421875
vn 1 0 0
vn -1 0 0
vn 0 1 0
vn 0 -1 0
vn 0 0 1
vn 0 0 -1
usemtl m_5e84ad2c-82d3-677d-f7b8-3775e22075e0
f 90/297/75 89/298/75 91/299/75 92/300/75
f 95/301/76 93/302/76 94/303/76 96/304/76
f 93/305/77 89/306/77 90/307/77 94/308/77
f 92/309/78 91/310/78 95/311/78 96/312/78
f 91/313/79 89/314/79 93/315/79 95/316/79
f 94/317/80 90/318/80 92/319/80 96/320/80
o stand
v -0.90625 1.625 -0.40625
v -0.90625 1.625 -0.53125
v -0.90625 0 -0.40625
v -0.90625 0 -0.53125
v -1.03125 1.625 -0.40625
v -1.03125 1.625 -0.53125
v -1.03125 0 -0.40625
v -1.03125 0 -0.53125
vt 0.484375 0.46875
vt 0.46875 0.46875
vt 0.46875 0.265625
vt 0.484375 0.265625
vt 0.5078125 0.265625
vt 0.5078125 0.46875
vt 0.4921875 0.46875
vt 0.4921875 0.265625
vt 0.3515625 0.578125
vt 0.3671875 0.578125
vt 0.3671875 0.59375
vt 0.3515625 0.59375
vt 0.3671875 0.5546875
vt 0.3671875 0.5703125
vt 0.3515625 0.5703125
vt 0.3515625 0.5546875
vt 0.53125 0.265625
vt 0.53125 0.46875
vt 0.515625 0.46875
vt 0.515625 0.265625
vt 0.5546875 0.46875
vt 0.5390625 0.46875
vt 0.5390625 0.265625
vt 0.5546875 0.265625
vn 1 0 0
vn -1 0 0
vn 0 1 0
vn 0 -1 0
vn 0 0 1
vn 0 0 -1
usemtl m_5e84ad2c-82d3-677d-f7b8-3775e22075e0
f 98/321/81 97/322/81 99/323/81 100/324/81
f 103/325/82 101/326/82 102/327/82 104/328/82
f 101/329/83 97/330/83 98/331/83 102/332/83
f 100/333/84 99/334/84 103/335/84 104/336/84
f 99/337/85 97/338/85 101/339/85 103/340/85
f 102/341/86 98/342/86 100/343/86 104/344/86
o stand
v -0.90625 1.625 0.53125
v -0.90625 1.625 0.40625
v -0.90625 0 0.53125
v -0.90625 0 0.40625
v -1.03125 1.625 0.53125
v -1.03125 1.625 0.40625
v -1.03125 0 0.53125
v -1.03125 0 0.40625
vt 0.109375 0.4453125
vt 0.09375 0.4453125
vt 0.09375 0.2421875
vt 0.109375 0.2421875
vt 0.1328125 0.2421875
vt 0.1328125 0.4453125
vt 0.1171875 0.4453125
vt 0.1171875 0.2421875
vt 0.3515625 0.484375
vt 0.3671875 0.484375
vt 0.3671875 0.5
vt 0.3515625 0.5
vt 0.34375 0.3828125
vt 0.34375 0.3984375
vt 0.328125 0.3984375
vt 0.328125 0.3828125
vt 0.15625 0.2421875
vt 0.15625 0.4453125
vt 0.140625 0.4453125
vt 0.140625 0.2421875
vt 0.1796875 0.4453125
vt 0.1640625 0.4453125
vt 0.1640625 0.2421875
vt 0.1796875 0.2421875
vn 1 0 0
vn -1 0 0
vn 0 1 0
vn 0 -1 0
vn 0 0 1
vn 0 0 -1
usemtl m_5e84ad2c-82d3-677d-f7b8-3775e22075e0
f 106/345/87 105/346/87 107/347/87 108/348/87
f 111/349/88 109/350/88 110/351/88 112/352/88
f 109/353/89 105/354/89 106/355/89 110/356/89
f 108/357/90 107/358/90 111/359/90 112/360/90
f 107/361/91 105/362/91 109/363/91 111/364/91
f 110/365/92 106/366/92 108/367/92 112/368/92