# Made in Blockbench 4.12.5
mtllib cell_pipe.mtl

o body
v -0.227296875 2 0.40625
v -0.227296875 3.75 0.40625
v -0.1715409338464536 2 0.306596875
v -0.1715409338464536 3.75 0.306596875
v -0.45459375 2 0
v -0.45459375 3.75 0
v -0.3430826550727461 2 0
v -0.3430826550727461 3.75 0
v -0.227296875 2 -0.40625
v -0.227296875 3.75 -0.40625
v -0.1715409338464536 2 -0.306596875
v -0.1715409338464536 3.75 -0.306596875
v 0.227296875 2 -0.40625
v 0.227296875 3.75 -0.40625
v 0.1715409338464536 2 -0.306596875
v 0.1715409338464536 3.75 -0.306596875
v 0.45459375 2 0
v 0.45459375 3.75 0
v 0.3430826550727461 2 0
v 0.3430826550727461 3.75 0
v 0.227296875 2 0.40625
v 0.227296875 3.75 0.40625
v 0.1715409338464536 2 0.306596875
v 0.1715409338464536 3.75 0.306596875
v -0.3430826550727461 1.125 0
v -0.1715409338464536 1.125 0.306596875
v -0.45459375 1.125 0
v -0.227296875 1.125 0.40625
v 0.1715409338464536 1.125 0.306596875
v 0.227296875 1.125 0.40625
v 0.3430826550727461 1.125 0
v 0.45459375 1.125 0
vt 0 1
vt 0 0.78125
vt 0.0581890625 0.78125
vt 0.0581890625 1
vt 0.254853125 0.78125
vt 0.254853125 1
vt 0.2109375 1
vt 0.2109375 0.78125
vt 0.39070859375 0.94921875
vt 0.37676953125 0.94921875
vt 0.40518125 0.8984375
vt 0.41215078125 0.9108937500000001
vt 0.0625 0.6640625
vt 0.0625 0.4453125
vt 0.1171875 0.4453125
vt 0.1171875 0.6640625
vt 0.421875 0.671875
vt 0.421875 0.890625
vt 0.375 0.890625
vt 0.375 0.671875
vt 0.41215078125 0.98754296875
vt 0.40518203125 1
vt 0.37676953125 0.94921875
vt 0.39070859375 0.94921875
vt 0 0.6640625
vt 0 0.4453125
vt 0.0546875 0.4453125
vt 0.0546875 0.6640625
vt 0.46875 0.671875
vt 0.46875 0.890625
vt 0.4296875 0.890625
vt 0.4296875 0.671875
vt 0.45503671875 0.98754296875
vt 0.46200625 1
vt 0.40518203125 1
vt 0.41215078125 0.98754296875
vt 0.125 0.6640625
vt 0.125 0.4453125
vt 0.1796875 0.4453125
vt 0.1796875 0.6640625
vt 0.46875 0.359375
vt 0.46875 0.578125
vt 0.421875 0.578125
vt 0.421875 0.359375
vt 0.47647890625 0.94921875
vt 0.49041796875 0.94921875
vt 0.46200624999999995 1
vt 0.45503671874999996 0.98754296875
vt 0.0707171875 1
vt 0.0707171875 0.78125
vt 0.12890625 0.78125
vt 0.12890625 1
vt 0.3125 0.78125
vt 0.3125 1
vt 0.268584375 1
vt 0.268584375 0.78125
vt 0.45503671875 0.9108937500000001
vt 0.46200546875000004 0.8984375
vt 0.49041796875 0.94921875
vt 0.47647890625 0.94921875
vt 0.141509765625 1
vt 0.141509765625 0.78125
vt 0.198333984375 0.78125
vt 0.198333984375 1
vt 0.36323984375 0.78125
vt 0.36323984375 1
vt 0.32035390625 1
vt 0.32035390625 0.78125
vt 0.41215078125 0.9108937500000001
vt 0.40518125 0.8984375
vt 0.46200546875000004 0.8984375
vt 0.45503671875 0.9108937500000001
vt 0.51455703125 0.94921875
vt 0.52152578125 0.9616750000000001
vt 0.50008359375 1
vt 0.48614453125 1
vt 0.57138125 0.94921875
vt 0.56441171875 0.96167578125
vt 0.52152578125 0.9616750000000001
vt 0.51455703125 0.94921875
vt 0.59979296875 1
vt 0.58585390625 1
vt 0.56441171875 0.96167578125
vt 0.57138125 0.94921875
vt 0.375 0.4453125
vt 0.390625 0.4453125
vt 0.390625 0.5546875
vt 0.375 0.5546875
vt 0.2109375 0.671875
vt 0.254853125 0.671875
vt 0.254853125 0.78125
vt 0.2109375 0.78125
vt 0 0.671875
vt 0.0581890625 0.671875
vt 0.0581890625 0.78125
vt 0 0.78125
vt 0.32035390625 0.671875
vt 0.36323984375 0.671875
vt 0.36323984375 0.78125
vt 0.32035390625 0.78125
vt 0.141509765625 0.671875
vt 0.198333984375 0.671875
vt 0.198333984375 0.78125
vt 0.141509765625 0.78125
vt 0.268584375 0.671875
vt 0.3125 0.671875
vt 0.3125 0.78125
vt 0.268584375 0.78125
vt 0.3984375 0.4453125
vt 0.4140625 0.4453125
vt 0.4140625 0.5546875
vt 0.3984375 0.5546875
vt 0.0707171875 0.671875
vt 0.12890625 0.671875
vt 0.12890625 0.78125
vt 0.0707171875 0.78125
vn -0.8726919711037127 0 0.4882711578325272
vn 0.8726910375987266 0 -0.4882728262916728
vn 0 1 0
vn -0.8726919711037127 0 -0.4882711578325272
vn 0.8726910375987266 0 0.4882728262916728
vn 0 1 0
vn 0 0 -1
vn 0 0 1
vn 0 1 0
vn 0.8726919711037127 0 -0.4882711578325272
vn -0.8726910375987266 0 0.4882728262916728
vn 0 1 0
vn 0.8726919711037127 0 0.4882711578325272
vn -0.8726910375987266 0 -0.4882728262916728
vn 0 1 0
vn 0 0 1
vn 0 0 -1
vn 0 1 0
vn 0 -1 0
vn 0 -1 0
vn 0 -1 0
vn 0 0 -1
vn 0.8726910375987266 0 -0.4882728262916728
vn -0.8726919711037127 0 0.4882711578325272
vn 0 0 -1
vn 0 0 1
vn -0.8726910375987266 0 -0.4882728262916728
vn 0 0 -1
vn 0.8726919711037127 0 0.4882711578325272
usemtl m_9f671b5b-49bd-754e-e95b-9aa4675b55ab
f 6/1/1 5/2/1 1/3/1 2/4/1
f 7/5/2 8/6/2 4/7/2 3/8/2
f 8/9/3 6/10/3 2/11/3 4/12/3
f 10/13/4 9/14/4 5/15/4 6/16/4
f 11/17/5 12/18/5 8/19/5 7/20/5
f 12/21/6 10/22/6 6/23/6 8/24/6
f 14/25/7 13/26/7 9/27/7 10/28/7
f 15/29/8 16/30/8 12/31/8 11/32/8
f 16/33/9 14/34/9 10/35/9 12/36/9
f 18/37/10 17/38/10 13/39/10 14/40/10
f 19/41/11 20/42/11 16/43/11 15/44/11
f 20/45/12 18/46/12 14/47/12 16/48/12
f 22/49/13 21/50/13 17/51/13 18/52/13
f 23/53/14 24/54/14 20/55/14 19/56/14
f 24/57/15 22/58/15 18/59/15 20/60/15
f 2/61/16 1/62/16 21/63/16 22/64/16
f 3/65/17 4/66/17 24/67/17 23/68/17
f 4/69/18 2/70/18 22/71/18 24/72/18
f 9/73/19 11/74/19 7/75/19 5/76/19
f 13/77/20 15/78/20 11/79/20 9/80/20
f 17/81/21 19/82/21 15/83/21 13/84/21
f 25/85/22 27/86/22 5/87/22 7/88/22
f 26/89/23 25/90/23 7/91/23 3/92/23
f 27/93/24 28/94/24 1/95/24 5/96/24
f 29/97/25 26/98/25 3/99/25 23/100/25
f 28/101/26 30/102/26 21/103/26 1/104/26
f 31/105/27 29/106/27 23/107/27 19/108/27
f 32/109/28 31/110/28 19/111/28 17/112/28
f 30/113/29 32/114/29 17/115/29 21/116/29
o base
v 0 0 0
v 0 1.125 0
v 0.22729695912175799 0 0.40625
v 0.22729695912175799 1.125 0.40625
v 0.454593918243516 0 2.8723912715466225e-17
v 0.454593918243516 1.125 2.8723912715466225e-17
v 0.22729695912175799 0 -0.40625
v 0.22729695912175799 1.125 -0.40625
v -0.22729695912175807 0 -0.40624999999999994
v -0.22729695912175807 1.125 -0.40624999999999994
v -0.454593918243516 0 -8.617173814639868e-17
v -0.454593918243516 1.125 -8.617173814639868e-17
v -0.22729695912175824 0 0.4062499999999999
v -0.22729695912175824 1.125 0.4062499999999999
vt 0.30291796875 0.61328125
vt 0.27450625 0.6640625
vt 0.24609375 0.61328125
vt 0.4765625 0.4609375
vt 0.53125 0.4609375
vt 0.53125 0.6015625
vt 0.4765625 0.6015625
vt 0.39950625 0.5625
vt 0.42791796875 0.61328125
vt 0.37109375 0.61328125
vt 0.27450625 0.5625
vt 0.30291796875 0.61328125
vt 0.24609375 0.61328125
vt 0.4765625 0.7578125
vt 0.53125 0.7578125
vt 0.53125 0.8984375
vt 0.4765625 0.8984375
vt 0.42791796875 0.61328125
vt 0.39950625 0.6640625
vt 0.37109375 0.61328125
vt 0.21768125 0.5625
vt 0.27450625 0.5625
vt 0.24609375 0.61328125
vt 0.1875 0.4140625
vt 0.2421875 0.4140625
vt 0.2421875 0.5546875
vt 0.1875 0.5546875
vt 0.39950625 0.6640625
vt 0.34268125 0.6640625
vt 0.37109375 0.61328125
vt 0.18926953125 0.61328125
vt 0.21768125 0.5625
vt 0.24609375 0.61328125
vt 0.4765625 0.609375
vt 0.53125 0.609375
vt 0.53125 0.75
vt 0.4765625 0.75
vt 0.34268125 0.6640625
vt 0.31426953125 0.61328125
vt 0.37109375 0.61328125
vt 0.21768125 0.6640625
vt 0.18926953125 0.61328125
vt 0.24609375 0.61328125
vt 0.3125 0.4140625
vt 0.3671875 0.4140625
vt 0.3671875 0.5546875
vt 0.3125 0.5546875
vt 0.31426953125 0.61328125
vt 0.34268125 0.5625
vt 0.37109375 0.61328125
vt 0.27450625 0.6640625
vt 0.21768125 0.6640625
vt 0.24609375 0.61328125
vt 0.25 0.4140625
vt 0.3046875 0.4140625
vt 0.3046875 0.5546875
vt 0.25 0.5546875
vt 0.34268125 0.5625
vt 0.39950625 0.5625
vt 0.37109375 0.61328125
vn 0 -1 0
vn 0.872691894102419 0 0.4882712954576915
vn 0 1 0
vn 0 -1 0
vn 0.8726918941024192 0 -0.4882712954576915
vn 0 1 0
vn 0 -1 0
vn -1.2211151316265899e-16 0 -1
vn 0 1 0
vn 0 -1 0
vn -0.8726918941024192 0 -0.4882712954576915
vn 0 1 0
vn 0 -1 0
vn -0.8726918941024193 0 0.48827129545769105
vn 0 1 0
vn 0 -1 0
vn -2.4422302632531788e-16 0 1
vn 0 1 0
usemtl m_9f671b5b-49bd-754e-e95b-9aa4675b55ab
f 37/117/30 35/118/30 33/119/30
f 35/120/31 37/121/31 38/122/31 36/123/31
f 36/124/32 38/125/32 34/126/32
f 39/127/33 37/128/33 33/129/33
f 37/130/34 39/131/34 40/132/34 38/133/34
f 38/134/35 40/135/35 34/136/35
f 41/137/36 39/138/36 33/139/36
f 39/140/37 41/141/37 42/142/37 40/143/37
f 40/144/38 42/145/38 34/146/38
f 43/147/39 41/148/39 33/149/39
f 41/150/40 43/151/40 44/152/40 42/153/40
f 42/154/41 44/155/41 34/156/41
f 45/157/42 43/158/42 33/159/42
f 43/160/43 45/161/43 46/162/43 44/163/43
f 44/164/44 46/165/44 34/166/44
f 35/167/45 45/168/45 33/169/45
f 45/170/46 35/171/46 36/172/46 46/173/46
f 46/174/47 36/175/47 34/176/47