# Made in Blockbench 4.12.5
mtllib chair_living.mtl

o leg
v 0 0 0
v -0.108253125 0 -0.1875
v -0.108253125 0.0625 -0.1875
v -0.21650625 0 0
v -0.21650625 0.0625 0
v -0.108253125 0 0.1875
v -0.108253125 0.0625 0.1875
v -0.045753125 0.125 -0.0625
v -0.09150625 0.125 0
v -0.045753125 0.125 0.0625
v 0 0.4375 0
v -0.045753125 0.4375 -0.0625
v -0.09150625 0.4375 0
v -0.045753125 0.4375 0.0625
v 0.108253125 0 -0.1875
v 0.108253125 0.0625 -0.1875
v 0.21650625 0 0
v 0.21650625 0.0625 0
v 0.108253125 0 0.1875
v 0.108253125 0.0625 0.1875
v 0.045753125 0.125 -0.0625
v 0.09150625 0.125 0
v 0.045753125 0.125 0.0625
v 0.045753125 0.4375 -0.0625
v 0.09150625 0.4375 0
v 0.045753125 0.4375 0.0625
vt 0.262 0.671875
vt 0.3161265625 0.671875
vt 0.2890625 0.71875
vt 0.359375 0.59375
vt 0.40625 0.59375
vt 0.40625 0.609375
vt 0.359375 0.609375
vt 0.0348765625 0.8125
vt 0.012 0.8125
vt 0.0234375 0.796875
vt 0.2349359375 0.71875
vt 0.262 0.671875
vt 0.2890625 0.71875
vt 0.0625 0.578125
vt 0.109375 0.578125
vt 0.109375 0.59375
vt 0.0625 0.59375
vt 0.012 0.8125
vt 0.0005609375 0.796875
vt 0.0234375 0.796875
vt 0.2619984375 0.765625
vt 0.2349359375 0.71875
vt 0.2890625 0.71875
vt 0.125 0.5625
vt 0.171875 0.5625
vt 0.171875 0.578125
vt 0.125 0.578125
vt 0.0005609375 0.796875
vt 0.0119984375 0.78125
vt 0.0234375 0.796875
vt 0.316125 0.765625
vt 0.2619984375 0.765625
vt 0.2890625 0.71875
vt 0 0.578125
vt 0.046875 0.578125
vt 0.046875 0.59375
vt 0 0.59375
vt 0.0119984375 0.78125
vt 0.034875 0.78125
vt 0.0234375 0.796875
vt 0.1989309375 0.6377778125
vt 0.176054375 0.6377778125
vt 0.160429375 0.60283875
vt 0.2145559375 0.60283875
vt 0.2116903125 0.65234375
vt 0.1989309375 0.6377778125
vt 0.21455578125 0.6028390625
vt 0.2460790625 0.64676015625
vt 0.30106171875 0.82525859375
vt 0.288324375 0.83984375
vt 0.25383890625 0.83423484375
vt 0.2854878125 0.79043390625
vt 0.32393828125 0.82525859375
vt 0.30106171875 0.82525859375
vt 0.28543671875 0.79031953125
vt 0.33956328125 0.79031953125
vt 0.140625 0.75
vt 0.125 0.75
vt 0.125 0.671875
vt 0.140625 0.671875
vt 0.203125 0.75
vt 0.1875 0.75
vt 0.1875 0.671875
vt 0.203125 0.671875
vt 0.375 0.78125
vt 0.359375 0.78125
vt 0.359375 0.703125
vt 0.375 0.703125
vt 0.171875 0.75
vt 0.15625 0.75
vt 0.15625 0.671875
vt 0.171875 0.671875
vt 0.3161265625 0.671875
vt 0.3431890625 0.71875
vt 0.2890625 0.71875
vt 0.421875 0.859375
vt 0.421875 0.84375
vt 0.46875 0.84375
vt 0.46875 0.859375
vt 0.0463140625 0.796875
vt 0.0348765625 0.8125
vt 0.0234375 0.796875
vt 0.3431890625 0.71875
vt 0.316125 0.765625
vt 0.2890625 0.71875
vt 0.421875 0.828125
vt 0.421875 0.8125
vt 0.46875 0.8125
vt 0.46875 0.828125
vt 0.034875 0.78125
vt 0.0463140625 0.796875
vt 0.0234375 0.796875
vt 0.16042953125 0.6028390625
vt 0.176054375 0.6377778125
vt 0.163295 0.65234375
vt 0.12890625 0.64676015625
vt 0.37116109375 0.83423484375
vt 0.336675625 0.83984375
vt 0.32393828125 0.82525859375
vt 0.3395121875 0.79043390625
vt 0.40625 0.78125
vt 0.40625 0.859375
vt 0.390625 0.859375
vt 0.390625 0.78125
vt 0.40625 0.6875
vt 0.40625 0.765625
vt 0.390625 0.765625
vt 0.390625 0.6875
vn 0 -1 0
vn 0 0 -1
vn 0 1 0
vn 0 -1 0
vn -0.8660255047305424 0 -0.4999998251561787
vn 0 1 0
vn 0 -1 0
vn -0.8660255047305424 0 0.4999998251561787
vn 0 1 0
vn 0 -1 0
vn 0 0 1
vn 0 1 0
vn 0 0.8944271909999161 -0.44721359549995804
vn -0.36255484236606933 0.8933713870742316 -0.26540827235408104
vn -0.42501669664103825 0.8500333932820765 0.311133472776072
vn 0 0.8944271909999161 0.44721359549995804
vn 0 0 -1
vn -0.8068985319376462 0 -0.5906900703049539
vn -0.8068985319376462 0 0.5906900703049539
vn 0 0 1
vn 0 -1 0
vn 0.8660255047305424 0 -0.4999998251561787
vn 0 1 0
vn 0 -1 0
vn 0.8660255047305424 0 0.4999998251561787
vn 0 1 0
vn 0.36255484236606944 0.8933713870742316 -0.26540827235408104
vn 0.42501669664103814 0.8500333932820763 0.311133472776072
vn 0.8068985319376462 0 -0.5906900703049539
vn 0.8068985319376462 0 0.5906900703049539
usemtl m_268bf0dc-fccb-f275-a484-f4276a922aa3
f 2/1/1 15/2/1 1/3/1
f 15/4/2 2/5/2 3/6/2 16/7/2
f 24/8/3 12/9/3 11/10/3
f 4/11/4 2/12/4 1/13/4
f 2/14/5 4/15/5 5/16/5 3/17/5
f 12/18/6 13/19/6 11/20/6
f 6/21/7 4/22/7 1/23/7
f 4/24/8 6/25/8 7/26/8 5/27/8
f 13/28/9 14/29/9 11/30/9
f 19/31/10 6/32/10 1/33/10
f 6/34/11 19/35/11 20/36/11 7/37/11
f 14/38/12 26/39/12 11/40/12
f 8/41/13 21/42/13 16/43/13 3/44/13
f 9/45/14 8/46/14 3/47/14 5/48/14
f 10/49/15 9/50/15 5/51/15 7/52/15
f 23/53/16 10/54/16 7/55/16 20/56/16
f 12/57/17 24/58/17 21/59/17 8/60/17
f 13/61/18 12/62/18 8/63/18 9/64/18
f 14/65/19 13/66/19 9/67/19 10/68/19
f 26/69/20 14/70/20 10/71/20 23/72/20
f 15/73/21 17/74/21 1/75/21
f 18/76/22 17/77/22 15/78/22 16/79/22
f 25/80/23 24/81/23 11/82/23
f 17/83/24 19/84/24 1/85/24
f 20/86/25 19/87/25 17/88/25 18/89/25
f 26/90/26 25/91/26 11/92/26
f 16/93/27 21/94/27 22/95/27 18/96/27
f 18/97/28 22/98/28 23/99/28 20/100/28
f 21/101/29 24/102/29 25/103/29 22/104/29
f 22/105/30 25/106/30 26/107/30 23/108/30
o cuboid
v 0.21875 1.0437312948622868 0.2635865623207996
v 0.21875 1.0274517782060122 0.35591228916569406
v 0.14375 0.47254806174694797 0.23783795558326742
v 0.171875 0.4888275784032227 0.1455122287383729
v -0.21875 1.0437312948622868 0.2635865623207996
v -0.21875 1.0274517782060122 0.35591228916569406
v -0.14375 0.47254806174694797 0.23783795558326742
v -0.171875 0.4888275784032227 0.1455122287383729
vt 0.109375 0.75
vt 0 0.75
vt 0.01171875 0.609375
vt 0.09765625 0.609375
vt 0 0.828125
vt 0.0859375 0.828125
vt 0.07890625 0.859375
vt 0.00703125 0.859375
vt 0.296875 0.5078125
vt 0.296875 0.6501278125000001
vt 0.2656453125 0.650948125
vt 0.265625 0.5080534375
vt 0.325 0.859375
vt 0.34375 1
vt 0.234375 1
vt 0.253125 0.859375
vt 0.46875 0.921875
vt 0.46875 0.953125
vt 0.359375 0.953125
vt 0.359375 0.921875
vt 0.5051615625 0.8750203125
vt 0.50434125 0.8984434375
vt 0.3620259375 0.8984434375
vt 0.362266875 0.875
vn 0 0.20812402370523364 -0.9781024438967237
vn 0 -0.984807753012208 -0.17364817766693033
vn 0.9965998157755723 -0.08114246490649878 -0.014307605844205505
vn 0 -0.20812402370523364 0.9781024438967237
vn 0 0.984807753012208 0.17364817766693033
vn -0.9965998157755723 -0.08114246490649879 -0.014307605844205507
usemtl m_268bf0dc-fccb-f275-a484-f4276a922aa3
f 31/109/31 27/110/31 30/111/31 34/112/31
f 34/113/32 30/114/32 29/115/32 33/116/32
f 30/117/33 27/118/33 28/119/33 29/120/33
f 29/121/34 28/122/34 32/123/34 33/124/34
f 28/125/35 27/126/35 31/127/35 32/128/35
f 32/129/36 31/130/36 34/131/36 33/132/36
o seat
v 0.15625 0.53125 0.25
v 0.15625 0.4375 0.25
v 0.15625 0.53125 -0.25
v 0.15625 0.4375 -0.25
v 0.25 0.53125 -0.15625
v 0.25 0.4375 -0.15625
v 0.15625 0.4375 -0.15625
v 0.15625 0.53125 -0.15625
v -0.15625 0.53125 0.25
v -0.15625 0.4375 0.25
v -0.15625 0.53125 -0.25
v -0.15625 0.4375 -0.25
v -0.25 0.53125 -0.15625
v -0.25 0.4375 -0.15625
v -0.15625 0.4375 -0.15625
v -0.15625 0.53125 -0.15625
vt 0.1015625 0.875
vt 0.1015625 0.9765625
vt 0.0234375 0.9765625
vt 0.0234375 0.875
vt 0.21875 1
vt 0.140625 1
vt 0.140625 0.96875
vt 0.21875 0.96875
vt 0.1328125 0.890625
vt 0.1328125 0.7890625
vt 0.2109375 0.7890625
vt 0.2109375 0.890625
vt 0.140625 0.921875
vt 0.21875 0.921875
vt 0.21875 0.953125
vt 0.140625 0.953125
vt 0.2109375 0.765625
vt 0.2109375 0.7890625
vt 0.1328125 0.7890625
vt 0.1328125 0.765625
vt 0.0234375 1
vt 0.0234375 0.9765625
vt 0.1015625 0.9765625
vt 0.1015625 1
vt 0.3125 0.625
vt 0.421875 0.625
vt 0.421875 0.65625
vt 0.3125 0.65625
vt 0.1015625 0.9765625
vt 0.1015625 0.875
vt 0.125 0.9765625
vt 0.2109375 0.7890625
vt 0.234375 0.7890625
vt 0.2109375 0.890625
vt 0.1015625 0.9765625
vt 0.125 0.9765625
vt 0.1015625 1
vt 0.2109375 0.7890625
vt 0.2109375 0.765625
vt 0.234375 0.7890625
vt 0.09375 0.8125
vt 0.0625 0.8125
vt 0.0625 0.78125
vt 0.09375 0.78125
vt 0.359375 1
vt 0.359375 0.96875
vt 0.46875 0.96875
vt 0.46875 1
vt 0.0234375 0.875
vt 0.0234375 0.9765625
vt 0 0.9765625
vt 0.109375 0.7890625
vt 0.1328125 0.7890625
vt 0.1328125 0.890625
vt 0 0.9765625
vt 0.0234375 0.9765625
vt 0.0234375 1
vt 0.1328125 0.765625
vt 0.1328125 0.7890625
vt 0.109375 0.7890625
vt 0.34375 0.578125
vt 0.34375 0.609375
vt 0.3125 0.609375
vt 0.3125 0.578125
vn 0 1 0
vn 0 0 1
vn 0 -1 0
vn 0 0 -1
vn 0 -1 0
vn 0 1 0
vn 0.9743911956946198 0 0.22485950669875843
vn 0 1 0
vn 0 -1 0
vn 0 1 0
vn 0 -1 0
vn 0.7071067811865476 0 -0.7071067811865476
vn -0.9743911956946198 0 0.22485950669875843
vn 0 1 0
vn 0 -1 0
vn 0 1 0
vn 0 -1 0
vn -0.7071067811865476 0 -0.7071067811865476
usemtl m_268bf0dc-fccb-f275-a484-f4276a922aa3
f 35/133/37 42/134/37 50/135/37 43/136/37
f 35/137/38 43/138/38 44/139/38 36/140/38
f 44/141/39 49/142/39 41/143/39 36/144/39
f 38/145/40 46/146/40 45/147/40 37/148/40
f 38/149/41 41/150/41 49/151/41 46/152/41
f 45/153/42 50/154/42 42/155/42 37/156/42
f 36/157/43 40/158/43 39/159/43 35/160/43
f 42/161/44 35/162/44 39/163/44
f 41/164/45 40/165/45 36/166/45
f 42/167/46 39/168/46 37/169/46
f 41/170/47 38/171/47 40/172/47
f 37/173/48 39/174/48 40/175/48 38/176/48
f 47/177/49 48/178/49 44/179/49 43/180/49
f 43/181/50 50/182/50 47/183/50
f 48/184/51 49/185/51 44/186/51
f 47/187/52 50/188/52 45/189/52
f 46/190/53 49/191/53 48/192/53
f 48/193/54 47/194/54 45/195/54 46/196/54