# Made in Blockbench 4.12.5
mtllib charging_station.mtl

o base
v -1.5 0.625 0.5
v -1.5 0.625 -0.25
v -1.5 0 0.5
v -1.5 0 -0.25
v -2.25 0.625 0.5
v -2.25 0.625 -0.25
v -2.25 0 0.5
v -2.25 0 -0.25
vt 0.5859375 1
vt 0.4921875 1
vt 0.4921875 0.921875
vt 0.5859375 0.921875
vt 0.5859375 0.8359375
vt 0.5859375 0.9140625
vt 0.4921875 0.9140625
vt 0.4921875 0.8359375
vt 0.4453125 0.4609375
vt 0.5390625 0.4609375
vt 0.5390625 0.5546875
vt 0.4453125 0.5546875
vt 0.09375 0.4375
vt 0.09375 0.53125
vt 0 0.53125
vt 0 0.4375
vt 0.4375 0.375
vt 0.4375 0.453125
vt 0.34375 0.453125
vt 0.34375 0.375
vt 0.5390625 0.453125
vt 0.4453125 0.453125
vt 0.4453125 0.375
vt 0.5390625 0.375
vn 1 0 0
vn -1 0 0
vn 0 1 0
vn 0 -1 0
vn 0 0 1
vn 0 0 -1
usemtl m_56a881c2-5a81-e86a-af15-333b7f0f90d9
f 2/1/1 1/2/1 3/3/1 4/4/1
f 7/5/2 5/6/2 6/7/2 8/8/2
f 5/9/3 1/10/3 2/11/3 6/12/3
f 4/13/4 3/14/4 7/15/4 8/16/4
f 3/17/5 1/18/5 5/19/5 7/20/5
f 6/21/6 2/22/6 4/23/6 8/24/6
o slot
v -1.875 0.75 0.125
v -1.694578125 0.625 0.40625
v -1.694578125 0.75 0.40625
v -1.54540625 0.625 0.125
v -1.54540625 0.75 0.125
v -1.694578125 0.625 -0.15625
v -1.694578125 0.75 -0.15625
v -2.055421875 0.625 -0.15625
v -2.055421875 0.75 -0.15625
v -2.20459375 0.625 0.125
v -2.20459375 0.75 0.125
v -2.055421875 0.625 0.40625
v -2.055421875 0.75 0.40625
vt 0.609375 0.40625
vt 0.6484375 0.40625
vt 0.6484375 0.421875
vt 0.609375 0.421875
vt 0.65927109375 0.9296875
vt 0.67791796875 0.96484375
vt 0.63671875 0.96484375
vt 0.4375 0.265625
vt 0.4765625 0.265625
vt 0.4765625 0.28125
vt 0.4375 0.28125
vt 0.67791796875 0.96484375
vt 0.659271875 1
vt 0.63671875 0.96484375
vt 0.265625 0.4296875
vt 0.3125 0.4296875
vt 0.3125 0.4453125
vt 0.265625 0.4453125
vt 0.659271875 1
vt 0.61416640625 1
vt 0.63671875 0.96484375
vt 0.484375 0.265625
vt 0.5234375 0.265625
vt 0.5234375 0.28125
vt 0.484375 0.28125
vt 0.61416640625 1
vt 0.59551953125 0.96484375
vt 0.63671875 0.96484375
vt 0.0546875 0.2578125
vt 0.09375 0.2578125
vt 0.09375 0.2734375
vt 0.0546875 0.2734375
vt 0.59551953125 0.96484375
vt 0.614165625 0.9296875
vt 0.63671875 0.96484375
vt 0.71875 0.90625
vt 0.765625 0.90625
vt 0.765625 0.921875
vt 0.71875 0.921875
vt 0.614165625 0.9296875
vt 0.65927109375 0.9296875
vt 0.63671875 0.96484375
vn 0.8834307053963045 0 0.4685618302454733
vn 0 1 0
vn 0.8834307053963045 0 -0.4685618302454733
vn 0 1 0
vn 0 0 -1
vn 0 1 0
vn -0.8834307053963045 0 -0.4685618302454733
vn 0 1 0
vn -0.8834307053963045 0 0.4685618302454733
vn 0 1 0
vn 0 0 1
vn 0 1 0
usemtl m_56a881c2-5a81-e86a-af15-333b7f0f90d9
f 10/25/7 12/26/7 13/27/7 11/28/7
f 11/29/8 13/30/8 9/31/8
f 12/32/9 14/33/9 15/34/9 13/35/9
f 13/36/10 15/37/10 9/38/10
f 14/39/11 16/40/11 17/41/11 15/42/11
f 15/43/12 17/44/12 9/45/12
f 16/46/13 18/47/13 19/48/13 17/49/13
f 17/50/14 19/51/14 9/52/14
f 18/53/15 20/54/15 21/55/15 19/56/15
f 19/57/16 21/58/16 9/59/16
f 20/60/17 10/61/17 11/62/17 21/63/17
f 21/64/18 11/65/18 9/66/18
o holder
v -2.0625 1.15625 0.46875
v -2.0625 1.25 0.375
v -2.0625 0.625 0.46875
v -2.0625 0.625 0.375
v -2.15625 1.15625 0.46875
v -2.15625 1.25 0.375
v -2.15625 0.625 0.46875
v -2.15625 0.625 0.375
vt 0.5625 0.515625
vt 0.546875 0.50390625
vt 0.546875 0.4375
vt 0.5625 0.4375
vt 0.1953125 0.359375
vt 0.1953125 0.42578125
vt 0.1796875 0.4375
vt 0.1796875 0.359375
vt 0.375 0.5625
vt 0.390625 0.5625
vt 0.390625 0.578125
vt 0.375 0.578125
vt 0.3359375 0.375
vt 0.3359375 0.4453125
vt 0.3203125 0.4453125
vt 0.3203125 0.375
vt 0.5546875 0.3125
vt 0.5390625 0.3125
vt 0.5390625 0.234375
vt 0.5546875 0.234375
vn 1 0 0
vn -1 0 0
vn 0 0.7071067811865476 0.7071067811865476
vn 0 0 1
vn 0 0 -1
usemtl m_56a881c2-5a81-e86a-af15-333b7f0f90d9
f 23/67/19 22/68/19 24/69/19 25/70/19
f 28/71/20 26/72/20 27/73/20 29/74/20
f 26/75/21 22/76/21 23/77/21 27/78/21
f 24/79/22 22/80/22 26/81/22 28/82/22
f 27/83/23 23/84/23 25/85/23 29/86/23
o holder
v -1.59375 1.15625 0.46875
v -1.59375 1.25 0.375
v -1.59375 0.625 0.46875
v -1.59375 0.625 0.375
v -1.6875 1.15625 0.46875
v -1.6875 1.25 0.375
v -1.6875 0.625 0.46875
v -1.6875 0.625 0.375
vt 0.578125 0.3125
vt 0.5625 0.30078125
vt 0.5625 0.234375
vt 0.578125 0.234375
vt 0.6015625 0.234375
vt 0.6015625 0.30078125
vt 0.5859375 0.3125
vt 0.5859375 0.234375
vt 0.6796875 0.46875
vt 0.6953125 0.46875
vt 0.6953125 0.484375
vt 0.6796875 0.484375
vt 0.7265625 0.796875
vt 0.7265625 0.8671875
vt 0.7109375 0.8671875
vt 0.7109375 0.796875
vt 0.625 0.3125
vt 0.609375 0.3125
vt 0.609375 0.234375
vt 0.625 0.234375
vn 1 0 0
vn -1 0 0
vn 0 0.7071067811865476 0.7071067811865476
vn 0 0 1
vn 0 0 -1
usemtl m_56a881c2-5a81-e86a-af15-333b7f0f90d9
f 31/87/24 30/88/24 32/89/24 33/90/24
f 36/91/25 34/92/25 35/93/25 37/94/25
f 34/95/26 30/96/26 31/97/26 35/98/26
f 32/99/27 30/100/27 34/101/27 36/102/27
f 35/103/28 31/104/28 33/105/28 37/106/28
o holder
v -1.5 1.15625 0.0625
v -1.5 1.15625 -0.03125
v -1.5 0.625 0.0625
v -1.5 0.625 -0.03125
v -1.59375 1.25 0.0625
v -1.59375 1.25 -0.03125
v -1.59375 0.625 0.0625
v -1.59375 0.625 -0.03125
vt 0.3359375 0.28125
vt 0.3203125 0.28125
vt 0.3203125 0.2109375
vt 0.3359375 0.2109375
vt 0.71875 0.40625
vt 0.71875 0.484375
vt 0.703125 0.484375
vt 0.703125 0.40625
vt 0.6875 0.8671875
vt 0.6875 0.8515625
vt 0.703125 0.8515625
vt 0.703125 0.8671875
vt 0.71875 0.3203125
vt 0.71875 0.38671875
vt 0.703125 0.3984375
vt 0.703125 0.3203125
vt 0.71875 0.3125
vt 0.703125 0.30078125
vt 0.703125 0.234375
vt 0.71875 0.234375
vn 1 0 0
vn -1 0 0
vn 0.7071067811865476 0.7071067811865476 0
vn 0 0 1
vn 0 0 -1
usemtl m_56a881c2-5a81-e86a-af15-333b7f0f90d9
f 39/107/29 38/108/29 40/109/29 41/110/29
f 44/111/30 42/112/30 43/113/30 45/114/30
f 42/115/31 38/116/31 39/117/31 43/118/31
f 40/119/32 38/120/32 42/121/32 44/122/32
f 43/123/33 39/124/33 41/125/33 45/126/33
o holder
v -2.15625 1.25 0.0625
v -2.15625 1.25 -0.03125
v -2.15625 0.625 0.0625
v -2.15625 0.625 -0.03125
v -2.25 1.15625 0.0625
v -2.25 1.15625 -0.03125
v -2.25 0.625 0.0625
v -2.25 0.625 -0.03125
vt 0.6484375 0.3125
vt 0.6328125 0.3125
vt 0.6328125 0.234375
vt 0.6484375 0.234375
vt 0.734375 0.9296875
vt 0.734375 1
vt 0.71875 1
vt 0.71875 0.9296875
vt 0.6953125 0.4453125
vt 0.6953125 0.4609375
vt 0.6796875 0.4609375
vt 0.6796875 0.4453125
vt 0.7109375 0.921875
vt 0.7109375 1
vt 0.6953125 0.98828125
vt 0.6953125 0.921875
vt 0.2109375 0.29296875
vt 0.1953125 0.3046875
vt 0.1953125 0.2265625
vt 0.2109375 0.2265625
vn 1 0 0
vn -1 0 0
vn -0.7071067811865476 0.7071067811865476 0
vn 0 0 1
vn 0 0 -1
usemtl m_56a881c2-5a81-e86a-af15-333b7f0f90d9
f 47/127/34 46/128/34 48/129/34 49/130/34
f 52/131/35 50/132/35 51/133/35 53/134/35
f 50/135/36 46/136/36 47/137/36 51/138/36
f 48/139/37 46/140/37 50/141/37 52/142/37
f 51/143/38 47/144/38 49/145/38 53/146/38
o monitor
v -0.46875 0.875 0.5
v -0.46875 0.875 -0.25
v -1.25 0.875 0.5
v -1.25 0.875 -0.25
v -1.203125 1.625 -0.125
v -1.203125 1.625 0.5
v -1.203125 0.875 0.5
v -1.203125 0.875 -0.25
v -0.5234375 1.625 -0.125
v -0.5234375 1.625 0.5
v -0.5234375 0.875 0.5
v -0.5234375 0.875 -0.25
v -1.25 1.5625 -0.125
v -1.25 1.5625 0.5
v -1.203125 1.5625 0.5
v -0.5234375 1.5625 0.5
v -0.46875 1.5625 0.5
v -0.46875 1.5625 -0.125
v -0.5234375 1.5625 -0.125
v -1.203125 1.5625 -0.125
v -1.25 1.03125 -0.25
v -1.25 1.03125 0.5
v -1.203125 1.03125 0.5
v -0.5234375 1.03125 0.5
v -0.46875 1.03125 0.5
v -0.46875 1.03125 -0.25
v -0.5234375 1.03125 -0.25
v -1.203125 1.03125 -0.25
v -0.5234375 1.5625 -0.03125
v -0.5234375 1.03125 -0.15625
v -1.203125 1.03125 -0.15625
v -1.203125 1.5625 -0.03125
vt 0.546875 0.5625
vt 0.546875 0.58203125
vt 0.453125 0.58203125
vt 0.453125 0.5625
vt 0.1953125 0.4453125
vt 0.1953125 0.46484375
vt 0.1015625 0.46484375
vt 0.1015625 0.4453125
vt 0.388671875 0.796875
vt 0.388671875 0.81640625
vt 0.3828125 0.81640625
vt 0.3828125 0.796875
vt 0.48046875 0.90443671875
vt 0.48046875 0.92396796875
vt 0.474609375 0.92396796875
vt 0.474609375 0.90443671875
vt 0.5546875 0.5703125
vt 0.640625 0.5703125
vt 0.640625 0.6484375
vt 0.5546875 0.6484375
vt 0.4736328125 0.796875
vt 0.4736328125 0.81640625
vt 0.388671875 0.81640625
vt 0.388671875 0.796875
vt 0.474609375 0.90443671875
vt 0.474609375 0.92396796875
vt 0.3896484375 0.92396796875
vt 0.3896484375 0.90443671875
vt 0.48046875 0.796875
vt 0.48046875 0.81640625
vt 0.4736328125 0.81640625
vt 0.4736328125 0.796875
vt 0.3896484375 0.90443671875
vt 0.3896484375 0.92396796875
vt 0.3828125 0.92396796875
vt 0.3828125 0.90443671875
vt 0.388671875 0.890625
vt 0.388671875 0.8828125
vt 0.4736328125 0.8828125
vt 0.4736328125 0.890625
vt 0.3896484375 1
vt 0.3896484375 0.9921875
vt 0.474609375 0.9921875
vt 0.474609375 1
vt 0.1171875 0.53125
vt 0.1015625 0.46484375
vt 0.1953125 0.46484375
vt 0.1953125 0.53125
vt 0.3828125 0.8828125
vt 0.3828125 0.81640625
vt 0.388671875 0.81640625
vt 0.388671875 0.8828125
vt 0.388671875 0.8828125
vt 0.388671875 0.81640625
vt 0.4736328125 0.81640625
vt 0.4736328125 0.8828125
vt 0.4736328125 0.8828125
vt 0.4736328125 0.81640625
vt 0.48046875 0.81640625
vt 0.48046875 0.8828125
vt 0.453125 0.6484375
vt 0.453125 0.58203125
vt 0.546875 0.58203125
vt 0.53125 0.6484375
vt 0.3828125 0.9921875
vt 0.3828125 0.92396796875
vt 0.3896484375 0.92396796875
vt 0.3896484375 0.9921875
vt 0 0.4296875
vt 0 0.359375
vt 0.0859375 0.359375
vt 0.0859375 0.4296875
vt 0.474609375 0.9921875
vt 0.474609375 0.92396796875
vt 0.48046875 0.92396796875
vt 0.48046875 0.9921875
vt 0.7309040625 0.875
vt 0.79912375 0.875
vt 0.7964396875 0.8828125
vt 0.72822 0.8828125
vt 0.59375 0.8515625
vt 0.6796875 0.8515625
vt 0.6796875 0.8671875
vt 0.59375 0.8671875
vt 0.4296875 0.5390625
vt 0.4296875 0.47084281250000004
vt 0.4375 0.46815874999999996
vt 0.4375 0.5363784375
vt 0.75 0.5078125
vt 0.6640625 0.5078125
vt 0.6640625 0.4921875
vt 0.75 0.4921875
vt 0.3896484375 0.9921875
vt 0.3896484375 1
vt 0.3828125 0.9921875
vt 0.4736328125 0.890625
vt 0.4736328125 0.8828125
vt 0.48046875 0.8828125
vt 0.8046875 0.890625
vt 0.8046875 0.8984375
vt 0.7265625 0.8984375
vt 0.7265625 0.890625
vt 0.474609375 1
vt 0.474609375 0.9921875
vt 0.48046875 0.9921875
vt 0.388671875 0.8828125
vt 0.388671875 0.890625
vt 0.3828125 0.8828125
vt 0.1015625 0.265625
vt 0.1796875 0.265625
vt 0.1796875 0.2734375
vt 0.1015625 0.2734375
vn 1 0 0
vn -1 0 0
vn 0 0 1
vn 0 0 -1
vn 0 1 0
vn 0 0 1
vn 0 0 -1
vn 0 0 1
vn 0 0 -1
vn 0 0 1
vn 0 0 -1
vn -1 0 0
vn 0 0 1
vn 0 0 1
vn 0 0 1
vn 1 0 0
vn 0 0.22903933372554727 -0.9734171683335759
vn 0 0.2290393337255473 -0.9734171683335759
vn 0 0.22903933372554727 -0.9734171683335759
vn -1 0 0
vn 0 1 0
vn 1 0 0
vn 0 -1 0
vn 0 0 -1
vn 0 0 1
vn 0.7525766947068778 0.6585046078685182 0
vn 0 0 -1
vn 0 0 1
vn -0.8 0.6 0
usemtl m_56a881c2-5a81-e86a-af15-333b7f0f90d9
f 55/147/39 79/148/39 78/149/39 54/150/39
f 56/151/40 75/152/40 74/153/40 57/154/40
f 60/155/41 76/156/41 75/157/41 56/158/41
f 57/159/42 74/160/42 81/161/42 61/162/42
f 59/163/43 63/164/43 62/165/43 58/166/43
f 64/167/44 77/168/44 76/169/44 60/170/44
f 61/171/45 81/172/45 80/173/45 65/174/45
f 54/175/46 78/176/46 77/177/46 64/178/46
f 65/179/47 80/180/47 79/181/47 55/182/47
f 59/183/48 68/184/48 69/185/48 63/186/48
f 62/187/49 72/188/49 73/189/49 58/190/49
f 66/191/50 74/192/50 75/193/50 67/194/50
f 67/195/51 75/196/51 76/197/51 68/198/51
f 68/199/52 76/200/52 77/201/52 69/202/52
f 69/203/53 77/204/53 78/205/53 70/206/53
f 70/207/54 78/208/54 79/209/54 71/210/54
f 71/211/55 79/212/55 80/213/55 72/214/55
f 82/215/56 83/216/56 84/217/56 85/218/56
f 73/219/57 81/220/57 74/221/57 66/222/57
f 83/223/58 82/224/58 72/225/58 80/226/58
f 84/227/59 83/228/59 80/229/59 81/230/59
f 85/231/60 84/232/60 81/233/60 73/234/60
f 82/235/61 85/236/61 73/237/61 72/238/61
f 72/239/62 62/240/62 71/241/62
f 63/242/63 69/243/63 70/244/63
f 71/245/64 62/246/64 63/247/64 70/248/64
f 58/249/65 73/250/65 66/251/65
f 68/252/66 59/253/66 67/254/66
f 66/255/67 67/256/67 59/257/67 58/258/67
o cuboid
v 0.8125 1.03125 -0.0625
v 0.8125 1.03125 -0.1875
v 0.875 0.875 -0.0625
v 0.875 0.875 -0.1875
v 0.6875 1.03125 -0.0625
v 0.6875 1.03125 -0.1875
v 0.625 0.875 -0.0625
v 0.625 0.875 -0.1875
v 0.8125 1.09375 -0.0625
v 0.8125 1.09375 -0.1875
v 0.6875 1.09375 -0.0625
v 0.6875 1.09375 -0.1875
v 0.8125 1.09375 -0.125
v 0.6875 1.09375 -0.125
v 0.6875 1.03125 -0.125
v 0.625 0.875 -0.125
v 0.875 0.875 -0.125
v 0.8125 1.03125 -0.125
v 0.6875 1.15625 -0.21875
v 0.8125 1.1875 -0.1875
v 0.6875 1.1875 -0.1875
v 0.8125 1.15625 -0.21875
v 0.8125 1.15625 -0.03125
v 0.8125 1.1875 -0.0625
v 0.6875 1.1875 -0.0625
v 0.6875 1.15625 -0.03125
vt 0.39453125 0.26171875
vt 0.38671875 0.26171875
vt 0.38671875 0.2406828125
vt 0.39453125 0.2406828125
vt 0.41015625 0.2406828125
vt 0.41796875 0.2406828125
vt 0.41796875 0.26171875
vt 0.41015625 0.26171875
vt 0.390625 0.6171875
vt 0.390625 0.625
vt 0.375 0.625
vt 0.375 0.6171875
vt 0.4296875 0.940484375
vt 0.421875 0.960015625
vt 0.40625 0.960015625
vt 0.3984375 0.940484375
vt 0.71875 0.631890625
vt 0.703125 0.631890625
vt 0.6953125 0.612359375
vt 0.7265625 0.612359375
vt 0.421875 0.967828125
vt 0.40625 0.967828125
vt 0.40625 0.960015625
vt 0.421875 0.960015625
vt 0.39453125 0.26953125
vt 0.38671875 0.26953125
vt 0.38671875 0.26171875
vt 0.39453125 0.26171875
vt 0.71875 0.639703125
vt 0.703125 0.639703125
vt 0.703125 0.631890625
vt 0.71875 0.631890625
vt 0.41015625 0.26171875
vt 0.41796875 0.26171875
vt 0.41796875 0.26953125
vt 0.41015625 0.26953125
vt 0.4140625 0.5703125
vt 0.4140625 0.578125
vt 0.3984375 0.578125
vt 0.3984375 0.5703125
vt 0.42578125 0.26953125
vt 0.41796875 0.26953125
vt 0.41796875 0.26171875
vt 0.42578125 0.26171875
vt 0.42578125 0.26171875
vt 0.41796875 0.26171875
vt 0.41796875 0.2406828125
vt 0.42578125 0.2406828125
vt 0.37890625 0.2406828125
vt 0.38671875 0.2406828125
vt 0.38671875 0.26171875
vt 0.37890625 0.26171875
vt 0.37890625 0.26171875
vt 0.38671875 0.26171875
vt 0.38671875 0.26953125
vt 0.37890625 0.26953125
vt 0.41015625 0.28125
vt 0.40625 0.27734375
vt 0.41015625 0.26953125
vt 0.41796875 0.26953125
vt 0.7421875 0.390625
vt 0.7265625 0.390625
vt 0.7265625 0.375
vt 0.7421875 0.375
vt 0.3984375 0.27734375
vt 0.39453125 0.28125
vt 0.38671875 0.26953125
vt 0.39453125 0.26953125
vt 0.71875 0.6484375
vt 0.703125 0.6484375
vt 0.703125 0.639703125
vt 0.71875 0.639703125
vt 0.37890625 0.28125
vt 0.375 0.27734375
vt 0.37890625 0.26953125
vt 0.38671875 0.26953125
vt 0.7421875 0.3671875
vt 0.7265625 0.3671875
vt 0.7265625 0.3515625
vt 0.7421875 0.3515625
vt 0.4296875 0.27734375
vt 0.42578125 0.28125
vt 0.41796875 0.26953125
vt 0.42578125 0.26953125
vt 0.421875 0.9765625
vt 0.40625 0.9765625
vt 0.40625 0.967828125
vt 0.421875 0.967828125
vn 0.9284766908852594 0.3713906763541037 0
vn -0.9284766908852594 0.3713906763541037 0
vn 0 0.7071067811865476 -0.7071067811865476
vn 0 0 1
vn 0 0 -1
vn 0 0 1
vn 1 0 0
vn 0 0 -1
vn -1 0 0
vn 0 0.7071067811865476 0.7071067811865476
vn -1 0 0
vn -0.9284766908852594 0.3713906763541037 0
vn 0.9284766908852594 0.3713906763541037 0
vn 1 0 0
vn -1 0 0
vn 0 0.5547001962252291 0.8320502943378437
vn 1 0 0
vn 0 -0.44721359549995804 -0.8944271909999161
vn 1 0 0
vn 0 0.5547001962252291 -0.8320502943378437
vn -1 0 0
vn 0 -0.44721359549995804 0.8944271909999161
usemtl m_56a881c2-5a81-e86a-af15-333b7f0f90d9
f 87/259/68 103/260/68 102/261/68 89/262/68
f 93/263/69 101/264/69 100/265/69 91/266/69
f 104/267/70 106/268/70 105/269/70 107/270/70
f 88/271/71 86/272/71 90/273/71 92/274/71
f 91/275/72 87/276/72 89/277/72 93/278/72
f 94/279/73 96/280/73 90/281/73 86/282/73
f 95/283/74 98/284/74 103/285/74 87/286/74
f 97/287/75 95/288/75 87/289/75 91/290/75
f 91/291/76 100/292/76 99/293/76 97/294/76
f 108/295/77 109/296/77 110/297/77 111/298/77
f 96/299/78 99/300/78 100/301/78 90/302/78
f 90/303/79 100/304/79 101/305/79 92/306/79
f 88/307/80 102/308/80 103/309/80 86/310/80
f 86/311/81 103/312/81 98/313/81 94/314/81
f 106/315/82 104/316/82 97/317/82 99/318/82
f 105/319/83 106/320/83 99/321/83 98/322/83
f 107/323/84 105/324/84 98/325/84 95/326/84
f 104/327/85 107/328/85 95/329/85 97/330/85
f 109/331/86 108/332/86 94/333/86 98/334/86
f 110/335/87 109/336/87 98/337/87 99/338/87
f 111/339/88 110/340/88 99/341/88 96/342/88
f 108/343/89 111/344/89 96/345/89 94/346/89
o arrow
v 0.765625 2 0.5
v 0.765625 2 0.4375
v 0.78125 0.875 0.5
v 0.78125 0.875 0.4375
v 0.734375 2 0.5
v 0.734375 2 0.4375
v 0.71875 0.875 0.5
v 0.71875 0.875 0.4375
v 0.71875 1.9375 0.4375
v 0.71875 1.9375 0.5
v 0.78125 1.9375 0.5
v 0.78125 1.9375 0.4375
v 0.765625 2 0.09375
v 0.78125 1.9375 0.09375
v 0.71875 1.9375 0.09375
v 0.734375 2 0.09375
v 0.78125 1.9375 0.15625
v 0.765625 2 0.15625
v 0.734375 2 0.15625
v 0.71875 1.9375 0.15625
v 0.75 1.78125 0.15625
v 0.75 1.78125 0.09375
vt 0.2109375 0.32007265625000003
vt 0.2109375 0.45288515625000003
vt 0.203125 0.45288515625000003
vt 0.203125 0.32007265625000003
vt 0.59765625 0.41382265625000003
vt 0.59765625 0.54663515625
vt 0.58984375 0.54663515625
vt 0.58984375 0.41382265625000003
vt 0.7265625 0.29296875
vt 0.73046875 0.29296875
vt 0.73046875 0.30078125
vt 0.7265625 0.30078125
vt 0.3515625 0.140625
vt 0.3515625 0.2734375
vt 0.34375 0.2734375
vt 0.34375 0.140625
vt 0.3671875 0.1484375
vt 0.3671875 0.28125
vt 0.359375 0.28125
vt 0.359375 0.1484375
vt 0.58984375 0.5546875
vt 0.58984375 0.54663515625
vt 0.59765625 0.54663515625
vt 0.59765625 0.5546875
vt 0.345703125 0.28125
vt 0.34375 0.2734375
vt 0.3515625 0.2734375
vt 0.349609375 0.28125
vt 0.203125 0.4609375
vt 0.203125 0.45288515625000003
vt 0.2109375 0.45288515625000003
vt 0.2109375 0.4609375
vt 0.572265625 0.484375
vt 0.5703125 0.4765625
vt 0.578125 0.4765625
vt 0.576171875 0.484375
vt 0.25390625 0.4609375
vt 0.24609375 0.4609375
vt 0.24609375 0.45288515625000003
vt 0.25390625 0.45288515625000003
vt 0.546875 0.54663515625
vt 0.5546875 0.54663515625
vt 0.5546875 0.5546875
vt 0.546875 0.5546875
vt 0.7265625 0.34375
vt 0.7265625 0.3359375
vt 0.73046875 0.3359375
vt 0.73046875 0.34375
vt 0.2109375 0.45288515625000003
vt 0.24609375 0.45288515625000003
vt 0.24609375 0.4609375
vt 0.2109375 0.4609375
vt 0.73046875 0.30078125
vt 0.73046875 0.3359375
vt 0.7265625 0.3359375
vt 0.7265625 0.30078125
vt 0.58984375 0.5546875
vt 0.5546875 0.5546875
vt 0.5546875 0.54663515625
vt 0.58984375 0.54663515625
vt 0.5703125 0.53125
vt 0.5703125 0.4921875
vt 0.578125 0.4921875
vt 0.578125 0.53125
vt 0.546875 0.5267171875000001
vt 0.5546875 0.5267171875000001
vt 0.5546875 0.54663515625
vt 0.546875 0.54663515625
vt 0.726638359375 0.261331953125
vt 0.734299140625 0.27971781250000005
vt 0.726638359375 0.28125
vt 0.24609375 0.43296718749999996
vt 0.25390625 0.43296718749999996
vt 0.25390625 0.45288515625000003
vt 0.24609375 0.45288515625000003
vt 0.57421875 0.45703125
vt 0.578125 0.4765625
vt 0.5703125 0.4765625
vn 1 0 0
vn -1 0 0
vn 0 1 0
vn 0 0 1
vn 0 0 -1
vn -0.9701425001453319 0.24253562503633297 0
vn 0 0 1
vn 0.9701425001453319 0.24253562503633297 0
vn 0 0 -1
vn 0.9701425001453319 0.24253562503633297 0
vn -0.9701425001453319 0.24253562503633297 0
vn 0 1 0
vn 0.9701425001453319 0.24253562503633297 0
vn 0 1 0
vn -0.9701425001453319 0.24253562503633297 0
vn 0 -1 0
vn -0.9805806756909202 -0.19611613513818404 0
vn 0 0 1
vn 0.9805806756909202 -0.19611613513818404 0
vn 0 0 -1
usemtl m_56a881c2-5a81-e86a-af15-333b7f0f90d9
f 115/347/90 123/348/90 122/349/90 114/350/90
f 118/351/91 121/352/91 120/353/91 119/354/91
f 116/355/92 112/356/92 113/357/92 117/358/92
f 114/359/93 122/360/93 121/361/93 118/362/93
f 119/363/94 120/364/94 123/365/94 115/366/94
f 117/367/95 120/368/95 121/369/95 116/370/95
f 116/371/96 121/372/96 122/373/96 112/374/96
f 112/375/97 122/376/97 123/377/97 113/378/97
f 124/379/98 125/380/98 126/381/98 127/382/98
f 124/383/99 129/384/99 128/385/99 125/386/99
f 126/387/100 131/388/100 130/389/100 127/390/100
f 127/391/101 130/392/101 129/393/101 124/394/101
f 123/395/102 128/396/102 129/397/102 113/398/102
f 113/399/103 129/400/103 130/401/103 117/402/103
f 117/403/104 130/404/104 131/405/104 120/406/104
f 120/407/105 131/408/105 128/409/105 123/410/105
f 133/411/106 132/412/106 131/413/106 126/414/106
f 132/415/107 128/416/107 131/417/107
f 132/418/108 133/419/108 125/420/108 128/421/108
f 133/422/109 126/423/109 125/424/109
o basket
v 2.0625 0 0
v 2.191941875 0 0.3125
v 2.243718125 0.75 0.4375
v 2.375 0 0.129441875
v 2.5 0.75 0.181218125
v 2.375 0 -0.129441875
v 2.5 0.75 -0.181218125
v 2.191941875 0 -0.3125
v 2.243718125 0.75 -0.4375
v 1.933058125 0 -0.3125
v 1.881281875 0.75 -0.4375
v 1.75 0 -0.129441875
v 1.625 0.75 -0.181218125
v 1.75 0 0.129441875
v 1.625 0.75 0.181218125
v 1.933058125 0 0.3125
v 1.881281875 0.75 0.4375
v 1.6875 0.75 -0.15533
v 1.6875 0.75 0.15533
v 1.90717 0.75 0.375
v 2.21783 0.75 0.375
v 2.4375 0.75 0.15533
v 2.4375 0.75 -0.15533
v 2.21783 0.75 -0.375
v 1.90717 0.75 -0.375
v 1.6875 0.1875 -0.15533
v 1.6875 0.1875 0.15533
v 2.0625 0.1875 0
v 1.90717 0.1875 0.375
v 2.21783 0.1875 0.375
v 2.4375 0.1875 0.15533
v 2.4375 0.1875 -0.15533
v 2.21783 0.1875 -0.375
v 1.90717 0.1875 -0.375
v 2.243718125 0.125 -0.4375
v 2.5 0.125 -0.181218125
v 2.5 0.125 0.181218125
v 2.243718125 0.125 0.4375
v 1.881281875 0.125 0.4375
v 1.625 0.125 0.181218125
v 1.625 0.125 -0.181218125
v 1.881281875 0.125 -0.4375
vt 0.171875 0.41461796875
vt 0.14899296875 0.4375
vt 0.1328125 0.3984375
vt 0.484375 0.3671875
vt 0.484375 0.2890625
vt 0.53125 0.2890625
vt 0.53125 0.3671875
vt 0.32410390625 0.453125
vt 0.3515625 0.48058359375000004
vt 0.3046875 0.5
vt 0.171875 0.38225703125
vt 0.171875 0.41461796875
vt 0.1328125 0.3984375
vt 0.546875 0.3984375
vt 0.546875 0.3203125
vt 0.59375 0.3203125
vt 0.59375 0.3984375
vt 0.3515625 0.48058359375000004
vt 0.3515625 0.51941640625
vt 0.3046875 0.5
vt 0.14899296875 0.359375
vt 0.171875 0.38225703125
vt 0.1328125 0.3984375
vt 0.375 0.3671875
vt 0.375 0.2890625
vt 0.421875 0.2890625
vt 0.421875 0.3671875
vt 0.3515625 0.51941640625
vt 0.32410390625 0.546875
vt 0.3046875 0.5
vt 0.11663203125 0.359375
vt 0.14899296875 0.359375
vt 0.1328125 0.3984375
vt 0.3203125 0.3671875
vt 0.3203125 0.2890625
vt 0.3671875 0.2890625
vt 0.3671875 0.3671875
vt 0.32410390625 0.546875
vt 0.28527109375 0.546875
vt 0.3046875 0.5
vt 0.09375 0.38225703125
vt 0.11663203125 0.359375
vt 0.1328125 0.3984375
vt 0 0.3515625
vt 0 0.2734375
vt 0.046875 0.2734375
vt 0.046875 0.3515625
vt 0.28527109375 0.546875
vt 0.2578125 0.51941640625
vt 0.3046875 0.5
vt 0.09375 0.41461796875
vt 0.09375 0.38225703125
vt 0.1328125 0.3984375
vt 0.6015625 0.3984375
vt 0.6015625 0.3203125
vt 0.6484375 0.3203125
vt 0.6484375 0.3984375
vt 0.2578125 0.51941640625
vt 0.2578125 0.48058359375000004
vt 0.3046875 0.5
vt 0.11663203125 0.4375
vt 0.09375 0.41461796875
vt 0.1328125 0.3984375
vt 0.4296875 0.3671875
vt 0.4296875 0.2890625
vt 0.4765625 0.2890625
vt 0.4765625 0.3671875
vt 0.2578125 0.48058359375000004
vt 0.28527109375 0.453125
vt 0.3046875 0.5
vt 0.14899296875 0.4375
vt 0.11663203125 0.4375
vt 0.1328125 0.3984375
vt 0.609375 0.5625
vt 0.609375 0.484375
vt 0.65625 0.484375
vt 0.65625 0.5625
vt 0.28527109375 0.453125
vt 0.32410390625 0.453125
vt 0.3046875 0.5
vt 0.34375 0.57433359375
vt 0.34375 0.61316640625
vt 0.3359375 0.61640234375
vt 0.3359375 0.57109765625
vt 0.37120859375 0.546875
vt 0.34375 0.57433359375
vt 0.3359375 0.57109765625
vt 0.36797265625 0.5390625
vt 0.41004140625 0.546875
vt 0.37120859375 0.546875
vt 0.36797265625 0.5390625
vt 0.41327734375 0.5390625
vt 0.4375 0.61316640625
vt 0.4375 0.57433359375
vt 0.4453125 0.57109765625
vt 0.4453125 0.61640234375
vt 0.41004140625 0.640625
vt 0.4375 0.61316640625
vt 0.4453125 0.61640234375
vt 0.41327734375 0.6484375
vt 0.37120859375 0.640625
vt 0.41004140625 0.640625
vt 0.41327734375 0.6484375
vt 0.36797265625 0.6484375
vt 0.34375 0.61316640625
vt 0.37120859375 0.640625
vt 0.36797265625 0.6484375
vt 0.3359375 0.61640234375
vt 0.4375 0.57433359375
vt 0.41004140625 0.546875
vt 0.41327734375 0.5390625
vt 0.4453125 0.57109765625
vt 0.0546875 0.28125
vt 0.09375 0.28125
vt 0.09375 0.3515625
vt 0.0546875 0.3515625
vt 0.2265625 0.2734375
vt 0.265625 0.2734375
vt 0.265625 0.34375
vt 0.2265625 0.34375
vt 0.1015625 0.28125
vt 0.140625 0.28125
vt 0.140625 0.3515625
vt 0.1015625 0.3515625
vt 0.1484375 0.28125
vt 0.1875 0.28125
vt 0.1875 0.3515625
vt 0.1484375 0.3515625
vt 0.2734375 0.2734375
vt 0.3125 0.2734375
vt 0.3125 0.34375
vt 0.2734375 0.34375
vt 0.6484375 0.578125
vt 0.6875 0.578125
vt 0.6875 0.6484375
vt 0.6484375 0.6484375
vt 0.65625 0.2734375
vt 0.6953125 0.2734375
vt 0.6953125 0.34375
vt 0.65625 0.34375
vt 0.65625 0.3515625
vt 0.6953125 0.3515625
vt 0.6953125 0.421875
vt 0.65625 0.421875
vt 0.64006953125 0.89636421875
vt 0.63359765625 0.918461875
vt 0.59545109375 0.894021015625
vt 0.612821640625 0.87890625
vt 0.73493046875 0.578125
vt 0.74140234375 0.6015625
vt 0.69609765625 0.6015625
vt 0.70256953125 0.578125
vt 0.684053359375 0.80078125
vt 0.70142390625 0.815896015625
vt 0.66327734375 0.840336875
vt 0.65680546875 0.81823921875
vt 0.65680546875 0.81823921875
vt 0.66327734375 0.840336875
vt 0.61797265625 0.840336875
vt 0.62444453125 0.81823921875
vt 0.62444453125 0.81823921875
vt 0.61797265625 0.840336875
vt 0.57982609375 0.815896015625
vt 0.597196640625 0.80078125
vt 0.53180546875 0.8046875
vt 0.53827734375 0.828125
vt 0.49297265625 0.828125
vt 0.49944453125 0.8046875
vt 0.699678359375 0.87890625
vt 0.71704890625 0.894021015625
vt 0.67890234375 0.918461875
vt 0.67243046875 0.89636421875
vt 0.67243046875 0.89636421875
vt 0.67890234375 0.918461875
vt 0.63359765625 0.918461875
vt 0.64006953125 0.89636421875
vn 0 -1 0
vn 0.7071067811865476 0 0.7071067811865476
vn 0 1 0
vn 0 -1 0
vn 1 0 0
vn 0 1 0
vn 0 -1 0
vn 0.7071067811865476 0 -0.7071067811865476
vn 0 1 0
vn 0 -1 0
vn 0 0 -1
vn 0 1 0
vn 0 -1 0
vn -0.7071067811865476 0 -0.7071067811865476
vn 0 1 0
vn 0 -1 0
vn -1 0 0
vn 0 1 0
vn 0 -1 0
vn -0.7071067811865476 0 0.7071067811865476
vn 0 1 0
vn 0 -1 0
vn 0 0 1
vn 0 1 0
vn 0 1 0
vn 0 1 0
vn 0 1 0
vn 0 1 0
vn 0 1 0
vn 0 1 0
vn 0 1 0
vn 0 1 0
vn 1 0 0
vn 0.7071067811865476 0 -0.7071067811865476
vn 0 0 -1
vn -1 0 0
vn -0.7071067811865476 0 0.7071067811865476
vn 0 0 1
vn 0.7071067811865476 0 0.7071067811865476
vn -0.7071067811865476 0 -0.7071067811865476
vn 0.5000006297449398 -0.7071058905915912 -0.5000006297449398
vn 0.7071067811865476 -0.7071067811865476 0
vn 0.5000006297449398 -0.7071058905915912 0.5000006297449398
vn 0 -0.7071067811865476 0.7071067811865476
vn -0.5000006297449398 -0.7071058905915912 0.5000006297449398
vn -0.7071067811865476 -0.7071067811865476 0
vn -0.5000006297449398 -0.7071058905915912 -0.5000006297449398
vn 0 -0.7071067811865476 -0.7071067811865476
usemtl m_56a881c2-5a81-e86a-af15-333b7f0f90d9
f 137/425/110 135/426/110 134/427/110
f 136/428/111 171/429/111 170/430/111 138/431/111
f 163/432/112 164/433/112 161/434/112
f 139/435/113 137/436/113 134/437/113
f 138/438/114 170/439/114 169/440/114 140/441/114
f 164/442/115 165/443/115 161/444/115
f 141/445/116 139/446/116 134/447/116
f 140/448/117 169/449/117 168/450/117 142/451/117
f 165/452/118 166/453/118 161/454/118
f 143/455/119 141/456/119 134/457/119
f 142/458/120 168/459/120 175/460/120 144/461/120
f 166/462/121 167/463/121 161/464/121
f 145/465/122 143/466/122 134/467/122
f 144/468/123 175/469/123 174/470/123 146/471/123
f 167/472/124 159/473/124 161/474/124
f 147/475/125 145/476/125 134/477/125
f 146/478/126 174/479/126 173/480/126 148/481/126
f 159/482/127 160/483/127 161/484/127
f 149/485/128 147/486/128 134/487/128
f 148/488/129 173/489/129 172/490/129 150/491/129
f 160/492/130 162/493/130 161/494/130
f 135/495/131 149/496/131 134/497/131
f 150/498/132 172/499/132 171/500/132 136/501/132
f 162/502/133 163/503/133 161/504/133
f 152/505/134 151/506/134 146/507/134 148/508/134
f 153/509/135 152/510/135 148/511/135 150/512/135
f 154/513/136 153/514/136 150/515/136 136/516/136
f 156/517/137 155/518/137 138/519/137 140/520/137
f 157/521/138 156/522/138 140/523/138 142/524/138
f 158/525/139 157/526/139 142/527/139 144/528/139
f 151/529/140 158/530/140 144/531/140 146/532/140
f 155/533/141 154/534/141 136/535/141 138/536/141
f 160/537/142 159/538/142 151/539/142 152/540/142
f 162/541/143 160/542/143 152/543/143 153/544/143
f 163/545/144 162/546/144 153/547/144 154/548/144
f 165/549/145 164/550/145 155/551/145 156/552/145
f 166/553/146 165/554/146 156/555/146 157/556/146
f 167/557/147 166/558/147 157/559/147 158/560/147
f 159/561/148 167/562/148 158/563/148 151/564/148
f 164/565/149 163/566/149 154/567/149 155/568/149
f 141/569/150 168/570/150 169/571/150 139/572/150
f 139/573/151 169/574/151 170/575/151 137/576/151
f 137/577/152 170/578/152 171/579/152 135/580/152
f 135/581/153 171/582/153 172/583/153 149/584/153
f 149/585/154 172/586/154 173/587/154 147/588/154
f 147/589/155 173/590/155 174/591/155 145/592/155
f 145/593/156 174/594/156 175/595/156 143/596/156
f 143/597/157 175/598/157 168/599/157 141/600/157
o pipe
v 1.65625 0.48325312499999995 0.1875
v 1.5 0.483253125 0.1875
v 1.65625 0.59150625 0
v 1.5 0.59150625 0
v 1.65625 0.48325312499999995 -0.1875
v 1.5 0.483253125 -0.1875
v 1.65625 0.26674687499999994 -0.1875
v 1.5 0.266746875 -0.1875
v 1.65625 0.15849374999999996 0
v 1.5 0.15849375 0
v 1.65625 0.26674687499999994 0.1875
v 1.5 0.266746875 0.1875
vt 0.7265625 0.4296875
vt 0.75 0.4296875
vt 0.75 0.453125
vt 0.7265625 0.453125
vt 0.7265625 0.3984375
vt 0.75 0.3984375
vt 0.75 0.421875
vt 0.7265625 0.421875
vt 0.4375 0.953125
vt 0.4609375 0.953125
vt 0.4609375 0.9765625
vt 0.4375 0.9765625
vt 0.7265625 0.4609375
vt 0.75 0.4609375
vt 0.75 0.484375
vt 0.7265625 0.484375
vt 0.546875 0.40625
vt 0.5703125 0.40625
vt 0.5703125 0.4296875
vt 0.546875 0.4296875
vt 0.546875 0.8046875
vt 0.5703125 0.8046875
vt 0.5703125 0.828125
vt 0.546875 0.828125
vn 1.9229629105289415e-16 0.8660255047305425 0.4999998251561788
vn 1.9229629105289415e-16 0.8660255047305425 -0.4999998251561788
vn 0 0 -1
vn -1.9229629105289415e-16 -0.8660255047305425 -0.4999998251561788
vn -1.9229629105289415e-16 -0.8660255047305425 0.4999998251561788
vn 0 0 1
usemtl m_56a881c2-5a81-e86a-af15-333b7f0f90d9
f 176/601/158 178/602/158 179/603/158 177/604/158
f 178/605/159 180/606/159 181/607/159 179/608/159
f 180/609/160 182/610/160 183/611/160 181/612/160
f 182/613/161 184/614/161 185/615/161 183/616/161
f 184/617/162 186/618/162 187/619/162 185/620/162
f 186/621/163 176/622/163 177/623/163 187/624/163
o console_base
v 1.5 0 0.5
v 1.46875 0 -0.46875
v 1.5 0 -0.375
v 1.46875 0.75 -0.46875
v 1.5 0.75 -0.375
v 1.5 0.75 0.5
v 1.375 0.875 0.5
v 1.375 0.875 -0.375
v 1.375 0.75 -0.5
v 1.375 0 -0.5
v 1.375 0 -0.375
v 1.375 0 0.5
v 1.375 0.75 0.5
v -1.5 0 0.5
v -1.46875 0 -0.46875
v -1.5 0 -0.375
v -1.46875 0.75 -0.46875
v -1.5 0.75 -0.375
v -1.5 0.75 0.5
v -1.375 0.875 0.5
v -1.375 0.875 -0.375
v -1.375 0.75 -0.5
v -1.375 0 -0.5
v -1.375 0 -0.375
v -1.375 0 0.5
v -1.375 0.75 0.5
vt 0.375 1
vt 0.359375 1
vt 0.359375 0.890625
vt 0.375 0.890625
vt 0.375 0.890625
vt 0.359375 0.890625
vt 0.359375 0.875
vt 0.37109375 0.87890625
vt 0.35288203125 0.65625
vt 0.365234375 0.65625
vt 0.365234375 0.75
vt 0.35288203125 0.75
vt 0.375 0.8515625
vt 0.359375 0.8515625
vt 0.359375 0.7578125
vt 0.375 0.7578125
vt 0.1233640625 0.5390625
vt 0.1233640625 0.6328125
vt 0.1110109375 0.6328125
vt 0.1110109375 0.5390625
vt 0.1110109375 0.5390625
vt 0.1110109375 0.6328125
vt 0.0016359375 0.6328125
vt 0.0016359375 0.5390625
vt 0 0.640625
vt 0.34375 0.640625
vt 0.34375 0.75
vt 0 0.75
vt 0.740234375 0.7890625
vt 0.396484375 0.7890625
vt 0.396484375 0.7669648437500001
vt 0.740234375 0.7669648437500001
vt 0.708984375 0.75
vt 0.365234375 0.75
vt 0.365234375 0.65625
vt 0.708984375 0.65625
vt 0.015625 0.875
vt 0.359375 0.875
vt 0.359375 0.890625
vt 0.015625 0.890625
vt 0.015625 0.890625
vt 0.359375 0.890625
vt 0.359375 1
vt 0.015625 1
vt 0.015625 0.7578125
vt 0.359375 0.7578125
vt 0.359375 0.8515625
vt 0.015625 0.8515625
vt 0.015625 0.8515625
vt 0.359375 0.8515625
vt 0.359375 0.8671875
vt 0.015625 0.8671875
vt 0.359375 0.8671875
vt 0.359375 0.8515625
vt 0.375 0.8515625
vt 0.77522984375 0.5703125
vt 0.66585484375 0.5703125
vt 0.66585484375 0.548215625
vt 0.77522984375 0.548215625
vt 0.38444484375 0.769726796875
vt 0.396484375 0.766964609375
vt 0.396484375 0.7890625
vt 0.77522984375 0.5703125
vt 0.77522984375 0.548215390625
vt 0.78727015625 0.5509778125
vt 0.015625 0.890625
vt 0.015625 1
vt 0 1
vt 0 0.890625
vt 0.015625 0.875
vt 0.015625 0.890625
vt 0 0.890625
vt 0.00390625 0.87890625
vt 0.708984375 0.75
vt 0.708984375 0.65625
vt 0.72133671875 0.65625
vt 0.72133671875 0.75
vt 0.015625 0.7578125
vt 0.015625 0.8515625
vt 0 0.8515625
vt 0 0.7578125
vt 0.1468015625 0.6328125
vt 0.1344484375 0.6328125
vt 0.1344484375 0.5390625
vt 0.1468015625 0.5390625
vt 0.2561765625 0.6328125
vt 0.1468015625 0.6328125
vt 0.1468015625 0.5390625
vt 0.2561765625 0.5390625
vt 0.015625 0.8515625
vt 0.015625 0.8671875
vt 0 0.8515625
vt 0.78727015625 0.516965625
vt 0.78727015625 0.5390625
vt 0.67789515625 0.5390625
vt 0.67789515625 0.516965625
vt 0.740234375 0.766964609375
vt 0.75227390625 0.769726796875
vt 0.740234375 0.7890625
vt 0.67789515625 0.516965390625
vt 0.67789515625 0.5390625
vt 0.66585484375 0.5197278125
vn 0 -1 0
vn 0 -1 0
vn 0.316227766016838 0 -0.948683298050514
vn 0 0 1
vn 0.948683298050514 0 -0.316227766016838
vn 1 0 0
vn 0 1 0
vn 0 0.7071067811865476 -0.7071067811865476
vn 0 0 -1
vn 0 -1 0
vn 0 -1 0
vn 0 0 1
vn 0 0 1
vn 0 0 1
vn 0.7071067811865476 0.7071067811865476 0
vn 0.2294157338705618 0.6882472016116853 -0.6882472016116853
vn 0.6882472016116853 0.6882472016116853 -0.2294157338705618
vn 0 -1 0
vn 0 -1 0
vn -0.316227766016838 0 -0.948683298050514
vn 0 0 1
vn -0.948683298050514 0 -0.316227766016838
vn -1 0 0
vn 0 0 1
vn -0.7071067811865476 0.7071067811865476 0
vn -0.2294157338705618 0.6882472016116853 -0.6882472016116853
vn -0.6882472016116853 0.6882472016116853 -0.2294157338705618
usemtl m_56a881c2-5a81-e86a-af15-333b7f0f90d9
f 188/625/164 199/626/164 198/627/164 190/628/164
f 190/629/165 198/630/165 197/631/165 189/632/165
f 189/633/166 197/634/166 196/635/166 191/636/166
f 193/637/167 200/638/167 199/639/167 188/640/167
f 189/641/168 191/642/168 192/643/168 190/644/168
f 190/645/169 192/646/169 193/647/169 188/648/169
f 207/649/170 194/650/170 195/651/170 208/652/170
f 208/653/171 195/654/171 196/655/171 209/656/171
f 209/657/172 196/658/172 197/659/172 210/660/172
f 210/661/173 197/662/173 198/663/173 211/664/173
f 211/665/174 198/666/174 199/667/174 212/668/174
f 212/669/175 199/670/175 200/671/175 213/672/175
f 213/673/176 200/674/176 194/675/176 207/676/176
f 194/677/177 200/678/177 193/679/177
f 195/680/178 194/681/178 193/682/178 192/683/178
f 191/684/179 196/685/179 195/686/179
f 195/687/180 192/688/180 191/689/180
f 211/690/181 212/691/181 201/692/181 203/693/181
f 210/694/182 211/695/182 203/696/182 202/697/182
f 209/698/183 210/699/183 202/700/183 204/701/183
f 212/702/184 213/703/184 206/704/184 201/705/184
f 205/706/185 204/707/185 202/708/185 203/709/185
f 206/710/186 205/711/186 203/712/186 201/713/186
f 213/714/187 207/715/187 206/716/187
f 206/717/188 207/718/188 208/719/188 205/720/188
f 209/721/189 204/722/189 208/723/189
f 205/724/190 208/725/190 204/726/190
o pc
v 0.03125 0.875 0.5
v 0.03125 0.875 0
v -0.46875 1.375 0.5
v -0.46875 1.375 0
v -0.46875 0.875 0.5
v -0.46875 0.875 0
v -0.09375 1.375 0
v -0.09375 1.375 0.5
v -0.09375 0.875 0.5
v -0.09375 0.875 0
v 0.03125 1.25 0
v 0.03125 1.25 0.5
v -0.09375 1.25 0.5
v -0.46875 1.25 0.5
v -0.46875 1.25 0
v -0.09375 1.25 0
vt 0.203125 0.46875
vt 0.25 0.46875
vt 0.25 0.53125
vt 0.203125 0.53125
vt 0.265625 0.6328125
vt 0.265625 0.6171875
vt 0.3125 0.6171875
vt 0.3125 0.6328125
vt 0.375 0.53125
vt 0.375 0.515625
vt 0.421875 0.515625
vt 0.421875 0.53125
vt 0.671875 0.4296875
vt 0.671875 0.4765625
vt 0.609375 0.4765625
vt 0.609375 0.4296875
vt 0.328125 0.5703125
vt 0.328125 0.6171875
vt 0.3125 0.6171875
vt 0.3125 0.5703125
vt 0.3125 0.5703125
vt 0.3125 0.6171875
vt 0.265625 0.6171875
vt 0.265625 0.5703125
vt 0.421875 0.46875
vt 0.421875 0.515625
vt 0.375 0.515625
vt 0.375 0.46875
vt 0.375 0.46875
vt 0.375 0.515625
vt 0.359375 0.515625
vt 0.359375 0.46875
vt 0.359375 0.515625
vt 0.375 0.515625
vt 0.375 0.53125
vt 0.3125 0.6328125
vt 0.3125 0.6171875
vt 0.328125 0.6171875
vt 0.359375 0.609375
vt 0.359375 0.5859375
vt 0.421875 0.5859375
vt 0.421875 0.609375
vn 0 1 0
vn 0 0 1
vn 0 0 -1
vn 1 0 0
vn 0 0 1
vn 0 0 1
vn 0 0 -1
vn 0 0 -1
vn 0 0 -1
vn 0 0 1
vn 0.7071067811865476 0.7071067811865476 0
usemtl m_56a881c2-5a81-e86a-af15-333b7f0f90d9
f 216/727/191 221/728/191 220/729/191 217/730/191
f 216/731/192 227/732/192 226/733/192 221/734/192
f 220/735/193 229/736/193 228/737/193 217/738/193
f 215/739/194 224/740/194 225/741/194 214/742/194
f 214/743/195 225/744/195 226/745/195 222/746/195
f 222/747/196 226/748/196 227/749/196 218/750/196
f 219/751/197 228/752/197 229/753/197 223/754/197
f 223/755/198 229/756/198 224/757/198 215/758/198
f 224/759/199 229/760/199 220/761/199
f 221/762/200 226/763/200 225/764/200
f 221/765/201 225/766/201 224/767/201 220/768/201