# Made in Blockbench 4.12.5
mtllib cockpit_console.mtl

o holder
v 0.07216875 0.71875 -1.6875
v 0.07216875 0.78125 -1.6875
v 0.04724875 0.71875 -1.7306625
v 0.04724875 0.78125 -1.7306625
v 0.1443375 0.71875 -1.8125
v 0.1443375 0.78125 -1.8125
v 0.094498125 0.71875 -1.8125
v 0.094498125 0.78125 -1.8125
v 0.07216875 0.71875 -1.9375
v 0.07216875 0.78125 -1.9375
v 0.04724875 0.71875 -1.8943375
v 0.04724875 0.78125 -1.8943375
v -0.07216875 0.71875 -1.9375
v -0.07216875 0.78125 -1.9375
v -0.04724875 0.71875 -1.8943375
v -0.04724875 0.78125 -1.8943375
v -0.1443375 0.71875 -1.8125
v -0.1443375 0.78125 -1.8125
v -0.094498125 0.71875 -1.8125
v -0.094498125 0.78125 -1.8125
v -0.07216875 0.71875 -1.6875
v -0.07216875 0.78125 -1.6875
v -0.04724875 0.71875 -1.7306625
v -0.04724875 0.78125 -1.7306625
vt 0.4375 0.8671875
vt 0.453125 0.8671875
vt 0.453125 0.875
vt 0.4375 0.875
vt 0.2890625 0.5625
vt 0.2734375 0.5625
vt 0.2734375 0.5546875
vt 0.2890625 0.5546875
vt 0.02855234375 0.6328125
vt 0.0375734375 0.6484375
vt 0.03134375 0.6484375
vt 0.0254375 0.6382078125
vt 0.4453125 0.8359375
vt 0.4609375 0.8359375
vt 0.4609375 0.84375
vt 0.4453125 0.84375
vt 0.1484375 0.5546875
vt 0.1328125 0.5546875
vt 0.1328125 0.546875
vt 0.1484375 0.546875
vt 0.0375734375 0.6484375
vt 0.02855234375 0.6640625
vt 0.0254375 0.6586671875
vt 0.03134375 0.6484375
vt 0.0546875 0.96875
vt 0.0703125 0.96875
vt 0.0703125 0.9765625
vt 0.0546875 0.9765625
vt 0.09375 0.953125
vt 0.078125 0.953125
vt 0.078125 0.9453125
vt 0.09375 0.9453125
vt 0.02855234375 0.6640625
vt 0.01051015625 0.6640625
vt 0.013625 0.6586671875
vt 0.0254375 0.6586671875
vt 0.4453125 0.8515625
vt 0.4609375 0.8515625
vt 0.4609375 0.859375
vt 0.4453125 0.859375
vt 0.109375 0.59375
vt 0.09375 0.59375
vt 0.09375 0.5859375
vt 0.109375 0.5859375
vt 0.01051015625 0.6640625
vt 0.0014890625 0.6484375
vt 0.00771875 0.6484375
vt 0.013625 0.6586671875
vt 0.171875 0.6171875
vt 0.1875 0.6171875
vt 0.1875 0.625
vt 0.171875 0.625
vt 0.3984375 0.703125
vt 0.3828125 0.703125
vt 0.3828125 0.6953125
vt 0.3984375 0.6953125
vt 0.0014890625 0.6484375
vt 0.01051015625 0.6328125
vt 0.013625 0.6382078125
vt 0.00771875 0.6484375
vt 0.25 0.96875
vt 0.265625 0.96875
vt 0.265625 0.9765625
vt 0.25 0.9765625
vt 0.09375 0.6640625
vt 0.078125 0.6640625
vt 0.078125 0.65625
vt 0.09375 0.65625
vt 0.01051015625 0.6328125
vt 0.02855234375 0.6328125
vt 0.0254375 0.6382078125
vt 0.013625 0.6382078125
vn 0.8660255047305424 0 0.4999998251561787
vn -0.8660232393773015 0 -0.5000037488443915
vn 0 1 0
vn 0.8660255047305424 0 -0.4999998251561787
vn -0.8660232393773015 0 0.5000037488443915
vn 0 1 0
vn 0 0 -1
vn 0 0 1
vn 0 1 0
vn -0.8660255047305424 0 -0.4999998251561787
vn 0.8660232393773015 0 0.5000037488443915
vn 0 1 0
vn -0.8660255047305424 0 0.4999998251561787
vn 0.8660232393773015 0 -0.5000037488443915
vn 0 1 0
vn 0 0 1
vn 0 0 -1
vn 0 1 0
usemtl m_b0fff82f-6ee1-7065-3a28-ea866d0860a1
f 1/1/1 5/2/1 6/3/1 2/4/1
f 4/5/2 8/6/2 7/7/2 3/8/2
f 2/9/3 6/10/3 8/11/3 4/12/3
f 5/13/4 9/14/4 10/15/4 6/16/4
f 8/17/5 12/18/5 11/19/5 7/20/5
f 6/21/6 10/22/6 12/23/6 8/24/6
f 9/25/7 13/26/7 14/27/7 10/28/7
f 12/29/8 16/30/8 15/31/8 11/32/8
f 10/33/9 14/34/9 16/35/9 12/36/9
f 13/37/10 17/38/10 18/39/10 14/40/10
f 16/41/11 20/42/11 19/43/11 15/44/11
f 14/45/12 18/46/12 20/47/12 16/48/12
f 17/49/13 21/50/13 22/51/13 18/52/13
f 20/53/14 24/54/14 23/55/14 19/56/14
f 18/57/15 22/58/15 24/59/15 20/60/15
f 21/61/16 1/62/16 2/63/16 22/64/16
f 24/65/17 4/66/17 3/67/17 23/68/17
f 22/69/18 2/70/18 4/71/18 24/72/18
o map
v 0 0.8125 -1.8125
v 0 1.1875 -1.8125
v 0.0549175 1.1325825 -1.6799175
v 0.077665 1 -1.625
v 0.0549175 0.8674175 -1.6799175
v 0.1325825 1.1325825 -1.7575825
v 0.1875 1 -1.734835
v 0.1325825 0.8674175 -1.7575825
v 0.1325825 1.1325825 -1.8674175
v 0.1875 1 -1.890165
v 0.1325825 0.8674175 -1.8674175
v 0.0549175 1.1325825 -1.9450825
v 0.077665 1 -2
v 0.0549175 0.8674175 -1.9450825
v -0.0549175 1.1325825 -1.9450825
v -0.077665 1 -2
v -0.0549175 0.8674175 -1.9450825
v -0.1325825 1.1325825 -1.8674175
v -0.1875 1 -1.890165
v -0.1325825 0.8674175 -1.8674175
v -0.1325825 1.1325825 -1.7575825
v -0.1875 1 -1.734835
v -0.1325825 0.8674175 -1.7575825
v -0.0549175 1.1325825 -1.6799175
v -0.077665 1 -1.625
v -0.0549175 0.8674175 -1.6799175
vt 0.0402034375 0.95015921875
vt 0.0322025 0.93900171875
vt 0.05078125 0.9341265625
vt 0.14358359375 0.578125
vt 0.140740625 0.5625
vt 0.16015625 0.5625
vt 0.15731328125 0.578125
vt 0.046990625 0.6640625
vt 0.04983359375 0.6484375
vt 0.06356328125 0.6484375
vt 0.06640625 0.6640625
vt 0.30564 0.5609982812500001
vt 0.3136409375 0.54984078125
vt 0.32421875 0.5658734375000001
vt 0.0322025 0.93900171875
vt 0.03369421875 0.92535328125
vt 0.05078125 0.9341265625
vt 0.10446328125 0.6953125
vt 0.1016203125 0.6796875
vt 0.1210359375 0.6796875
vt 0.11819296875 0.6953125
vt 0.1016203125 0.765625
vt 0.10446328125 0.75
vt 0.11819296875 0.75
vt 0.1210359375 0.765625
vt 0.30713171875 0.57464671875
vt 0.30564 0.5609982812500001
vt 0.32421875 0.5658734375000001
vt 0.03369421875 0.92535328125
vt 0.04391640625 0.9161875
vt 0.05078125 0.9341265625
vt 0.37003046875 0.6796875
vt 0.3671875 0.6640625
vt 0.386603125 0.6640625
vt 0.38376015625 0.6796875
vt 0.078125 0.6484375
vt 0.08096796875 0.6328125
vt 0.09469765625 0.6328125
vt 0.097540625 0.6484375
vt 0.31735390625 0.5838125000000001
vt 0.30713171875 0.57464671875
vt 0.32421875 0.5658734375000001
vt 0.04391640625 0.9161875
vt 0.05764609375 0.9161875
vt 0.05078125 0.9341265625
vt 0.03415078125 0.90625
vt 0.0313078125 0.890625
vt 0.0507234375 0.890625
vt 0.04788046875 0.90625
vt 0.0000578125 0.8515625
vt 0.00290078125 0.8359375
vt 0.01663046875 0.8359375
vt 0.0194734375 0.8515625
vt 0.33108359375 0.5838125000000001
vt 0.31735390625 0.5838125000000001
vt 0.32421875 0.5658734375000001
vt 0.05764609375 0.9161875
vt 0.06786828125 0.92535328125
vt 0.05078125 0.9341265625
vt 0.38577109375 0.7890625
vt 0.382928125 0.7734375
vt 0.40234375 0.7734375
vt 0.39950078125 0.7890625
vt 0.101678125 0.671875
vt 0.10452109375 0.65625
vt 0.11825078125 0.65625
vt 0.12109375 0.671875
vt 0.34130578125 0.57464671875
vt 0.33108359375 0.5838125000000001
vt 0.32421875 0.5658734375000001
vt 0.06786828125 0.92535328125
vt 0.06936 0.93900171875
vt 0.05078125 0.9341265625
vt 0.10446328125 0.71875
vt 0.1016203125 0.703125
vt 0.1210359375 0.703125
vt 0.11819296875 0.71875
vt 0.1016203125 0.7421875
vt 0.10446328125 0.7265625
vt 0.11819296875 0.7265625
vt 0.1210359375 0.7421875
vt 0.3427975 0.5609982812500001
vt 0.34130578125 0.57464671875
vt 0.32421875 0.5658734375000001
vt 0.06936 0.93900171875
vt 0.0613590625 0.95015921875
vt 0.05078125 0.9341265625
vt 0.41690546875 0.765625
vt 0.4140625 0.75
vt 0.433478125 0.75
vt 0.43063515625 0.765625
vt 0.109375 0.6484375
vt 0.11221796875 0.6328125
vt 0.12594765625 0.6328125
vt 0.128790625 0.6484375
vt 0.3347965625 0.54984078125
vt 0.3427975 0.5609982812500001
vt 0.32421875 0.5658734375000001
vt 0.053608984375 0.953125
vt 0.0402034375 0.95015921875
vt 0.05078125 0.9341265625
vt 0.23727578125 1
vt 0.2344328125 0.984375
vt 0.2538484375 0.984375
vt 0.25100546875 1
vt 0.1016203125 1
vt 0.10446328125 0.984375
vt 0.11819296875 0.984375
vt 0.1210359375 1
vt 0.321391015625 0.546875
vt 0.3347965625 0.54984078125
vt 0.32421875 0.5658734375000001
vn 0.27059814038123653 0.923879479609994 0.27059814038123653
vn 0.653281519845049 0.3826833046500536 0.6532815198450489
vn 0.6532815198450489 -0.3826833046500537 0.653281519845049
vn 0.27059814038123653 -0.923879479609994 0.27059814038123653
vn 0.38268361298138875 0.9238794576975455 0
vn 0.9238794576975456 0.3826836129813888 0
vn 0.9238794576975456 -0.3826836129813888 0
vn 0.38268361298138875 -0.9238794576975455 0
vn 0.27059814038123653 0.923879479609994 -0.27059814038123653
vn 0.653281519845049 0.38268330465005373 -0.6532815198450491
vn 0.653281519845049 -0.3826833046500537 -0.6532815198450489
vn 0.27059814038123653 -0.923879479609994 -0.27059814038123653
vn 0 0.9238794576975455 -0.38268361298138875
vn 0 0.3826836129813888 -0.9238794576975456
vn 0 -0.3826836129813888 -0.9238794576975456
vn 0 -0.9238794576975455 -0.38268361298138875
vn -0.27059814038123653 0.923879479609994 -0.27059814038123653
vn -0.653281519845049 0.3826833046500536 -0.6532815198450489
vn -0.6532815198450489 -0.3826833046500537 -0.653281519845049
vn -0.27059814038123653 -0.923879479609994 -0.27059814038123653
vn -0.38268361298138875 0.9238794576975455 0
vn -0.9238794576975456 0.3826836129813888 0
vn -0.9238794576975456 -0.3826836129813888 0
vn -0.38268361298138875 -0.9238794576975455 0
vn -0.27059814038123653 0.923879479609994 0.27059814038123653
vn -0.653281519845049 0.38268330465005373 0.6532815198450491
vn -0.653281519845049 -0.3826833046500537 0.6532815198450489
vn -0.27059814038123653 -0.923879479609994 0.27059814038123653
vn 0 0.9238794576975455 0.38268361298138875
vn 0 0.3826836129813888 0.9238794576975456
vn 0 -0.3826836129813888 0.9238794576975456
vn 0 -0.9238794576975455 0.38268361298138875
usemtl m_b0fff82f-6ee1-7065-3a28-ea866d0860a1
f 27/73/19 30/74/19 26/75/19
f 27/76/20 28/77/20 31/78/20 30/79/20
f 28/80/21 29/81/21 32/82/21 31/83/21
f 32/84/22 29/85/22 25/86/22
f 30/87/23 33/88/23 26/89/23
f 30/90/24 31/91/24 34/92/24 33/93/24
f 31/94/25 32/95/25 35/96/25 34/97/25
f 35/98/26 32/99/26 25/100/26
f 33/101/27 36/102/27 26/103/27
f 33/104/28 34/105/28 37/106/28 36/107/28
f 34/108/29 35/109/29 38/110/29 37/111/29
f 38/112/30 35/113/30 25/114/30
f 36/115/31 39/116/31 26/117/31
f 36/118/32 37/119/32 40/120/32 39/121/32
f 37/122/33 38/123/33 41/124/33 40/125/33
f 41/126/34 38/127/34 25/128/34
f 39/129/35 42/130/35 26/131/35
f 39/132/36 40/133/36 43/134/36 42/135/36
f 40/136/37 41/137/37 44/138/37 43/139/37
f 44/140/38 41/141/38 25/142/38
f 42/143/39 45/144/39 26/145/39
f 42/146/40 43/147/40 46/148/40 45/149/40
f 43/150/41 44/151/41 47/152/41 46/153/41
f 47/154/42 44/155/42 25/156/42
f 45/157/43 48/158/43 26/159/43
f 45/160/44 46/161/44 49/162/44 48/163/44
f 46/164/45 47/165/45 50/166/45 49/167/45
f 50/168/46 47/169/46 25/170/46
f 48/171/47 27/172/47 26/173/47
f 48/174/48 49/175/48 28/176/48 27/177/48
f 49/178/49 50/179/49 29/180/49 28/181/49
f 29/182/50 50/183/50 25/184/50
o cuboid
v 0.875 0.818357331434636 -1.59437554713901
v 0.875 0.8585315570400447 -1.6422533248339461
v 0.875 0.6747239983498275 -1.7148982239552362
v 0.875 0.7148982239552362 -1.7627760016501723
v 0.9375 0.818357331434636 -1.59437554713901
v 0.9375 0.8585315570400447 -1.6422533248339461
v 0.9375 0.6747239983498275 -1.7148982239552362
v 0.9375 0.7148982239552362 -1.7627760016501723
v 0.9375 0.7704795537396998 -1.6345497727444187
v 0.9375 0.8106537793451085 -1.6824275504393549
v 0.875 0.8106537793451085 -1.6824275504393549
v 0.875 0.7704795537396998 -1.6345497727444187
v 0.9375 0.7982702186319316 -1.570436658291542
v 0.875 0.7503924409369954 -1.6106108838969506
v 0.9375 0.7503924409369954 -1.6106108838969506
v 0.875 0.7982702186319316 -1.570436658291542
vt 0.328125 0.609375
vt 0.3359375 0.609375
vt 0.3359375 0.6171875
vt 0.328125 0.6171875
vt 0.17578125 0.5703125
vt 0.18359375 0.5703125
vt 0.18359375 0.578125
vt 0.17578125 0.578125
vt 0.1171875 0.546875
vt 0.1171875 0.5390625
vt 0.125 0.5390625
vt 0.125 0.546875
vt 0.21875 0.9921875
vt 0.2265625 0.9921875
vt 0.2265625 1
vt 0.21875 1
vt 0.03125 0.875
vt 0.0390625 0.875
vt 0.0390625 0.8828125
vt 0.03125 0.8828125
vt 0.18359375 0.5703125
vt 0.17578125 0.5703125
vt 0.17578125 0.5546875
vt 0.18359375 0.5546875
vt 0.0390625 0.875
vt 0.03125 0.875
vt 0.03125 0.859375
vt 0.0390625 0.859375
vt 0.3359375 0.609375
vt 0.328125 0.609375
vt 0.328125 0.59375
vt 0.3359375 0.59375
vt 0.0078125 0.828125
vt 0 0.828125
vt 0 0.8125
vt 0.0078125 0.8125
vt 0.17578125 0.578125
vt 0.171875 0.578125
vt 0.171875 0.5703125
vt 0.17578125 0.5703125
vt 0.3984375 0.7109375
vt 0.3984375 0.71875
vt 0.390625 0.71875
vt 0.390625 0.7109375
vt 0.3359375 0.609375
vt 0.33984375 0.609375
vt 0.33984375 0.6171875
vt 0.3359375 0.6171875
vt 0.1171875 0.5390625
vt 0.1171875 0.53515625
vt 0.125 0.53515625
vt 0.125 0.5390625
vn -1 0 0
vn 1 0 0
vn 0 0.7660444431189781 0.6427876096865394
vn 0 -0.6427876096865394 0.7660444431189781
vn 0 0.6427876096865394 -0.7660444431189781
vn 1 0 0
vn 0 0.6427876096865394 -0.7660444431189781
vn -1 0 0
vn 0 -0.6427876096865394 0.7660444431189781
vn 1 0 0
vn 0 -0.7660444431189781 -0.6427876096865394
vn -1 0 0
vn 0 0.7660444431189781 0.6427876096865394
usemtl m_b0fff82f-6ee1-7065-3a28-ea866d0860a1
f 61/185/51 62/186/51 51/187/51 52/188/51
f 59/189/52 60/190/52 56/191/52 55/192/52
f 52/193/53 51/194/53 55/195/53 56/196/53
f 64/197/54 65/198/54 63/199/54 66/200/54
f 60/201/55 61/202/55 52/203/55 56/204/55
f 60/205/56 59/206/56 57/207/56 58/208/56
f 61/209/57 60/210/57 58/211/57 54/212/57
f 62/213/58 61/214/58 54/215/58 53/216/58
f 59/217/59 62/218/59 53/219/59 57/220/59
f 55/221/60 63/222/60 65/223/60 59/224/60
f 59/225/61 65/226/61 64/227/61 62/228/61
f 62/229/62 64/230/62 66/231/62 51/232/62
f 51/233/63 66/234/63 63/235/63 55/236/63
o tube
v 0.7979968749999999 0.7102182153315868 -1.5627331062020144
v 0.7979968749999999 0.7580959930265229 -1.522558880596606
v 0.835376875 0.7518346956362296 -1.6123296961161988
v 0.835376875 0.7997124733311658 -1.5721554705107903
v 0.65849375 0.8106537793451085 -1.6824275504393549
v 0.65849375 0.8585315570400447 -1.6422533248339461
v 0.7332531250000001 0.8106537793451085 -1.6824275504393549
v 0.7332531250000001 0.8585315570400447 -1.6422533248339461
v 0.7042468749999999 0.891002230555926 -1.7781831058292272
v 0.7042468749999999 0.938880008250862 -1.7380088802238185
v 0.741626875 0.8895599758566918 -1.776464293609979
v 0.741626875 0.937437753551628 -1.7362900680045703
v 1.108253125 0.891002230555926 -1.7781831058292272
v 1.108253125 0.938880008250862 -1.7380088802238185
v 1.070873125 0.8895599758566918 -1.776464293609979
v 1.070873125 0.937437753551628 -1.7362900680045703
v 1.1540062500000001 0.8106537793451085 -1.6824275504393549
v 1.1540062500000001 0.8585315570400447 -1.6422533248339461
v 1.079246875 0.8106537793451085 -1.6824275504393549
v 1.079246875 0.8585315570400447 -1.6422533248339461
v 1.014503125 0.7102182153315868 -1.5627331062020144
v 1.014503125 0.7580959930265229 -1.522558880596606
v 0.977123125 0.7518346956362296 -1.6123296961161988
v 0.977123125 0.7997124733311658 -1.5721554705107903
vt 0.1328125 1
vt 0.1328125 0.9921875
vt 0.15625 0.9921875
vt 0.15625 1
vt 0.015625 0.5390625
vt 0.015625 0.546875
vt 0 0.546875
vt 0 0.5390625
vt 0.03153046875 0.98046875
vt 0.04087578125 0.98046875
vt 0.053640625 0.99190703125
vt 0.04896796875 1
vt 0.15806328125 0.609375
vt 0.14871796875 0.609375
vt 0.16615546875 0.58984375
vt 0.170828125 0.59793671875
vt 0.421875 0.5546875
vt 0.421875 0.546875
vt 0.4375 0.546875
vt 0.4375 0.5546875
vt 0.390625 0.546875
vt 0.390625 0.5546875
vt 0.375 0.5546875
vt 0.375 0.546875
vt 0.03724921875 0.96484375
vt 0.041921875 0.96512421875
vt 0.04087578125 0.98046875
vt 0.03153046875 0.98046875
vt 0.159109375 0.62471953125
vt 0.15443671875 0.625
vt 0.14871796875 0.609375
vt 0.15806328125 0.609375
vt 0.3984375 0.5546875
vt 0.3984375 0.546875
vt 0.4140625 0.546875
vt 0.4140625 0.5546875
vt 0.3671875 0.546875
vt 0.3671875 0.5546875
vt 0.3515625 0.5546875
vt 0.3515625 0.546875
vt 0.09346953125 0.98046875
vt 0.08412421875 0.98046875
vt 0.083078125 0.96512421875
vt 0.08775078125 0.96484375
vt 0.20131171875 0.609375
vt 0.21065703125 0.609375
vt 0.20493828125 0.625
vt 0.200265625 0.62471953125
vt 0.046875 0.640625
vt 0.046875 0.6328125
vt 0.0703125 0.6328125
vt 0.0703125 0.640625
vt 0.4609375 0.546875
vt 0.4609375 0.5546875
vt 0.4453125 0.5546875
vt 0.4453125 0.546875
vt 0.07603203125 1
vt 0.071359375 0.99190703125
vt 0.08412421875 0.98046875
vt 0.09346953125 0.98046875
vt 0.188546875 0.59793671875
vt 0.19321953125 0.58984375
vt 0.21065703125 0.609375
vt 0.20131171875 0.609375
vt 0.1015625 0.9765625
vt 0.1015625 0.96875
vt 0.125 0.96875
vt 0.125 0.9765625
vt 0.4609375 0.7578125
vt 0.4609375 0.765625
vt 0.4453125 0.765625
vt 0.4453125 0.7578125
vt 0.04896796875 1
vt 0.053640625 0.99190703125
vt 0.071359375 0.99190703125
vt 0.07603203125 1
vt 0.170828125 0.59793671875
vt 0.16615546875 0.58984375
vt 0.19321953125 0.58984375
vt 0.188546875 0.59793671875
vt 0.21875 0.6015625
vt 0.21875 0.59375
vt 0.2265625 0.59375
vt 0.2265625 0.6015625
vt 0.4140625 0.78125
vt 0.4140625 0.7734375
vt 0.421875 0.7734375
vt 0.421875 0.78125
vn -0.7459514263616239 -0.428096774623702 0.5101858691357907
vn 0.667330815128272 0.4787234174623759 -0.5705203526197642
vn 0 -0.7660444431189781 -0.6427876096865394
vn 0 0.7660444431189781 0.6427876096865394
vn -0.939070923980786 0.2209411651448004 -0.2633074273132665
vn 0.9976814827312516 -0.04374574189342581 0.052134145062189254
vn 0 -0.7660444431189781 -0.6427876096865394
vn 0 0.7660444431189781 0.6427876096865394
vn 0.939070923980786 0.2209411651448004 -0.2633074273132665
vn -0.9976814827312516 -0.04374574189342581 0.052134145062189254
vn 0 -0.7660444431189781 -0.6427876096865394
vn 0 0.7660444431189781 0.6427876096865394
vn 0.7459514263616239 -0.428096774623702 0.5101858691357907
vn -0.667330815128272 0.4787234174623759 -0.5705203526197642
vn 0 -0.7660444431189781 -0.6427876096865394
vn 0 0.7660444431189781 0.6427876096865394
vn 0 -0.6427876096865394 0.7660444431189781
vn 0 0.6427876096865394 -0.7660444431189781
vn 0 -0.7660444431189781 -0.6427876096865394
vn 0 0.7660444431189781 0.6427876096865394
vn -0.05991756870640095 0.6416327314857151 -0.764668112874137
vn 0.05991756870640095 0.6416327314857151 -0.764668112874137
usemtl m_b0fff82f-6ee1-7065-3a28-ea866d0860a1
f 72/237/64 71/238/64 67/239/64 68/240/64
f 73/241/65 74/242/65 70/243/65 69/244/65
f 71/245/66 73/246/66 69/247/66 67/248/66
f 74/249/67 72/250/67 68/251/67 70/252/67
f 76/253/68 75/254/68 71/255/68 72/256/68
f 77/257/69 78/258/69 74/259/69 73/260/69
f 75/261/70 77/262/70 73/263/70 71/264/70
f 78/265/71 76/266/71 72/267/71 74/268/71
f 84/269/72 83/270/72 79/271/72 80/272/72
f 85/273/73 86/274/73 82/275/73 81/276/73
f 83/277/74 85/278/74 81/279/74 79/280/74
f 86/281/75 84/282/75 80/283/75 82/284/75
f 88/285/76 87/286/76 83/287/76 84/288/76
f 89/289/77 90/290/77 86/291/77 85/292/77
f 87/293/78 89/294/78 85/295/78 83/296/78
f 90/297/79 88/298/79 84/299/79 86/300/79
f 68/301/80 67/302/80 87/303/80 88/304/80
f 69/305/81 70/306/81 90/307/81 89/308/81
f 67/309/82 69/310/82 89/311/82 87/312/82
f 70/313/83 68/314/83 88/315/83 90/316/83
f 80/317/84 79/318/84 81/319/84 82/320/84
f 78/321/85 77/322/85 75/323/85 76/324/85
o cuboid
v -0.875 0.818357331434636 -1.59437554713901
v -0.875 0.8585315570400447 -1.6422533248339461
v -0.875 0.6747239983498275 -1.7148982239552362
v -0.875 0.7148982239552362 -1.7627760016501723
v -0.9375 0.818357331434636 -1.59437554713901
v -0.9375 0.8585315570400447 -1.6422533248339461
v -0.9375 0.6747239983498275 -1.7148982239552362
v -0.9375 0.7148982239552362 -1.7627760016501723
v -0.9375 0.7704795537396998 -1.6345497727444187
v -0.9375 0.8106537793451085 -1.6824275504393549
v -0.875 0.8106537793451085 -1.6824275504393549
v -0.875 0.7704795537396998 -1.6345497727444187
v -0.9375 0.7982702186319316 -1.570436658291542
v -0.875 0.7503924409369954 -1.6106108838969506
v -0.9375 0.7503924409369954 -1.6106108838969506
v -0.875 0.7982702186319316 -1.570436658291542
vt 0.19921875 0.578125
vt 0.19921875 0.5703125
vt 0.20703125 0.5703125
vt 0.20703125 0.578125
vt 0.0234375 0.5703125
vt 0.0234375 0.5625
vt 0.03125 0.5625
vt 0.03125 0.5703125
vt 0.203125 0.5390625
vt 0.2109375 0.5390625
vt 0.2109375 0.546875
vt 0.203125 0.546875
vt 0.25 0.546875
vt 0.25 0.5390625
vt 0.2578125 0.5390625
vt 0.2578125 0.546875
vt 0.25 0.765625
vt 0.25 0.7578125
vt 0.2578125 0.7578125
vt 0.2578125 0.765625
vt 0.03125 0.546875
vt 0.03125 0.5625
vt 0.0234375 0.5625
vt 0.0234375 0.546875
vt 0.2578125 0.7421875
vt 0.2578125 0.7578125
vt 0.25 0.7578125
vt 0.25 0.7421875
vt 0.20703125 0.5546875
vt 0.20703125 0.5703125
vt 0.19921875 0.5703125
vt 0.19921875 0.5546875
vt 0.2265625 0.609375
vt 0.2265625 0.625
vt 0.21875 0.625
vt 0.21875 0.609375
vt 0.03515625 0.5625
vt 0.03515625 0.5703125
vt 0.03125 0.5703125
vt 0.03125 0.5625
vt 0.2734375 0.546875
vt 0.265625 0.546875
vt 0.265625 0.5390625
vt 0.2734375 0.5390625
vt 0.1953125 0.578125
vt 0.1953125 0.5703125
vt 0.19921875 0.5703125
vt 0.19921875 0.578125
vt 0.203125 0.53515625
vt 0.2109375 0.53515625
vt 0.2109375 0.5390625
vt 0.203125 0.5390625
vn 1 0 0
vn -1 0 0
vn 0 0.7660444431189781 0.6427876096865394
vn 0 -0.6427876096865394 0.7660444431189781
vn 0 0.6427876096865394 -0.7660444431189781
vn -1 0 0
vn 0 0.6427876096865394 -0.7660444431189781
vn 1 0 0
vn 0 -0.6427876096865394 0.7660444431189781
vn -1 0 0
vn 0 -0.7660444431189781 -0.6427876096865394
vn 1 0 0
vn 0 0.7660444431189781 0.6427876096865394
usemtl m_b0fff82f-6ee1-7065-3a28-ea866d0860a1
f 91/325/86 102/326/86 101/327/86 92/328/86
f 96/329/87 100/330/87 99/331/87 95/332/87
f 95/333/88 91/334/88 92/335/88 96/336/88
f 103/337/89 105/338/89 104/339/89 106/340/89
f 92/341/90 101/342/90 100/343/90 96/344/90
f 97/345/91 99/346/91 100/347/91 98/348/91
f 98/349/92 100/350/92 101/351/92 94/352/92
f 94/353/93 101/354/93 102/355/93 93/356/93
f 93/357/94 102/358/94 99/359/94 97/360/94
f 105/361/95 103/362/95 95/363/95 99/364/95
f 104/365/96 105/366/96 99/367/96 102/368/96
f 106/369/97 104/370/97 102/371/97 91/372/97
f 103/373/98 106/374/98 91/375/98 95/376/98
o tube
v -0.7979968749999999 0.7102182153315868 -1.5627331062020144
v -0.7979968749999999 0.7580959930265229 -1.522558880596606
v -0.835376875 0.7518346956362296 -1.6123296961161988
v -0.835376875 0.7997124733311658 -1.5721554705107903
v -0.65849375 0.8106537793451085 -1.6824275504393549
v -0.65849375 0.8585315570400447 -1.6422533248339461
v -0.7332531250000001 0.8106537793451085 -1.6824275504393549
v -0.7332531250000001 0.8585315570400447 -1.6422533248339461
v -0.7042468749999999 0.891002230555926 -1.7781831058292272
v -0.7042468749999999 0.938880008250862 -1.7380088802238185
v -0.741626875 0.8895599758566918 -1.776464293609979
v -0.741626875 0.937437753551628 -1.7362900680045703
v -1.108253125 0.891002230555926 -1.7781831058292272
v -1.108253125 0.938880008250862 -1.7380088802238185
v -1.070873125 0.8895599758566918 -1.776464293609979
v -1.070873125 0.937437753551628 -1.7362900680045703
v -1.1540062500000001 0.8106537793451085 -1.6824275504393549
v -1.1540062500000001 0.8585315570400447 -1.6422533248339461
v -1.079246875 0.8106537793451085 -1.6824275504393549
v -1.079246875 0.8585315570400447 -1.6422533248339461
v -1.014503125 0.7102182153315868 -1.5627331062020144
v -1.014503125 0.7580959930265229 -1.522558880596606
v -0.977123125 0.7518346956362296 -1.6123296961161988
v -0.977123125 0.7997124733311658 -1.5721554705107903
vt 0.4296875 0.8984375
vt 0.453125 0.8984375
vt 0.453125 0.90625
vt 0.4296875 0.90625
vt 0.46875 0.8125
vt 0.453125 0.8125
vt 0.453125 0.8046875
vt 0.46875 0.8046875
vt 0.040109375 0.58565703125
vt 0.05287421875 0.57421875
vt 0.06221953125 0.57421875
vt 0.04478203125 0.59375
vt 0.11509453125 0.55859375
vt 0.13253203125 0.578125
vt 0.12318671875 0.578125
vt 0.110421875 0.56668671875
vt 0.453125 0.8203125
vt 0.46875 0.8203125
vt 0.46875 0.828125
vt 0.453125 0.828125
vt 0.109375 0.546875
vt 0.09375 0.546875
vt 0.09375 0.5390625
vt 0.109375 0.5390625
vt 0.05287421875 0.57421875
vt 0.051828125 0.55887421875
vt 0.05650078125 0.55859375
vt 0.06221953125 0.57421875
vt 0.13253203125 0.578125
vt 0.12681328125 0.59375
vt 0.122140625 0.59346953125
vt 0.12318671875 0.578125
vt 0.15625 0.5390625
vt 0.171875 0.5390625
vt 0.171875 0.546875
vt 0.15625 0.546875
vt 0.0859375 0.546875
vt 0.0703125 0.546875
vt 0.0703125 0.5390625
vt 0.0859375 0.5390625
vt 0.010671875 0.55887421875
vt 0.00962578125 0.57421875
vt 0.00028046875 0.57421875
vt 0.00599921875 0.55859375
vt 0.07631171875 0.59375
vt 0.07059296875 0.578125
vt 0.07993828125 0.578125
vt 0.080984375 0.59346953125
vt 0.4375 0.8828125
vt 0.4609375 0.8828125
vt 0.4609375 0.890625
vt 0.4375 0.890625
vt 0.1953125 0.546875
vt 0.1796875 0.546875
vt 0.1796875 0.5390625
vt 0.1953125 0.5390625
vt 0.00962578125 0.57421875
vt 0.022390625 0.58565703125
vt 0.01771796875 0.59375
vt 0.00028046875 0.57421875
vt 0.07059296875 0.578125
vt 0.08803046875 0.55859375
vt 0.092703125 0.56668671875
vt 0.07993828125 0.578125
vt 0.4296875 0.9140625
vt 0.453125 0.9140625
vt 0.453125 0.921875
vt 0.4296875 0.921875
vt 0.0625 0.546875
vt 0.046875 0.546875
vt 0.046875 0.5390625
vt 0.0625 0.5390625
vt 0.022390625 0.58565703125
vt 0.040109375 0.58565703125
vt 0.04478203125 0.59375
vt 0.01771796875 0.59375
vt 0.08803046875 0.55859375
vt 0.11509453125 0.55859375
vt 0.110421875 0.56668671875
vt 0.092703125 0.56668671875
vt 0.28125 0.5390625
vt 0.2890625 0.5390625
vt 0.2890625 0.546875
vt 0.28125 0.546875
vt 0.0234375 0.53125
vt 0.03125 0.53125
vt 0.03125 0.5390625
vt 0.0234375 0.5390625
vn 0.7459514263616239 -0.428096774623702 0.5101858691357907
vn -0.667330815128272 0.4787234174623759 -0.5705203526197642
vn 0 -0.7660444431189781 -0.6427876096865394
vn 0 0.7660444431189781 0.6427876096865394
vn 0.939070923980786 0.2209411651448004 -0.2633074273132665
vn -0.9976814827312516 -0.04374574189342581 0.052134145062189254
vn 0 -0.7660444431189781 -0.6427876096865394
vn 0 0.7660444431189781 0.6427876096865394
vn -0.939070923980786 0.2209411651448004 -0.2633074273132665
vn 0.9976814827312516 -0.04374574189342581 0.052134145062189254
vn 0 -0.7660444431189781 -0.6427876096865394
vn 0 0.7660444431189781 0.6427876096865394
vn -0.7459514263616239 -0.428096774623702 0.5101858691357907
vn 0.667330815128272 0.4787234174623759 -0.5705203526197642
vn 0 -0.7660444431189781 -0.6427876096865394
vn 0 0.7660444431189781 0.6427876096865394
vn 0 -0.6427876096865394 0.7660444431189781
vn 0 0.6427876096865394 -0.7660444431189781
vn 0 -0.7660444431189781 -0.6427876096865394
vn 0 0.7660444431189781 0.6427876096865394
vn 0.05991756870640095 0.6416327314857151 -0.764668112874137
vn -0.05991756870640095 0.6416327314857151 -0.764668112874137
usemtl m_b0fff82f-6ee1-7065-3a28-ea866d0860a1
f 107/377/99 111/378/99 112/379/99 108/380/99
f 110/381/100 114/382/100 113/383/100 109/384/100
f 109/385/101 113/386/101 111/387/101 107/388/101
f 108/389/102 112/390/102 114/391/102 110/392/102
f 111/393/103 115/394/103 116/395/103 112/396/103
f 114/397/104 118/398/104 117/399/104 113/400/104
f 113/401/105 117/402/105 115/403/105 111/404/105
f 112/405/106 116/406/106 118/407/106 114/408/106
f 119/409/107 123/410/107 124/411/107 120/412/107
f 122/413/108 126/414/108 125/415/108 121/416/108
f 121/417/109 125/418/109 123/419/109 119/420/109
f 120/421/110 124/422/110 126/423/110 122/424/110
f 123/425/111 127/426/111 128/427/111 124/428/111
f 126/429/112 130/430/112 129/431/112 125/432/112
f 125/433/113 129/434/113 127/435/113 123/436/113
f 124/437/114 128/438/114 130/439/114 126/440/114
f 127/441/115 107/442/115 108/443/115 128/444/115
f 130/445/116 110/446/116 109/447/116 129/448/116
f 129/449/117 109/450/117 107/451/117 127/452/117
f 128/453/118 108/454/118 110/455/118 130/456/118
f 121/457/119 119/458/119 120/459/119 122/460/119
f 115/461/120 117/462/120 118/463/120 116/464/120
o console
v 0 0.71875 -3.46875
v 0 0.71875 -1.6875
v 0 0.71875 -2.96875
v 0 0.5390625 -3.453125
v -0.6875 0.71875 -2.96875
v -0.15625 0.71875 -2.96875
v -0.6640625 0.5390625 -2.96875
v -0.14453125 0.5390625 -2.96875
v -1.5 0.71875 -1.6875
v -0.4375 0.71875 -1.6875
v -1.46875 0.5390625 -1.6640625
v -0.421875 0.544921875 -1.6640625
v -0.421875 0 -1.6637818749999997
v -0.14453125 0 -2.9686093749999998
v 0 0 -3.40625
v 0 0.00003187500000001453 -0.5075318749999997
v 0 0.5547625 -0.5079393750000003
v 0 0.71875 -0.5317531249999998
v -0.331539375 0.548903125 -0.5079393750000003
v -0.34386 0.71875 -0.5317531249999998
v -0.331495625 0.00003187500000001453 -0.5075318749999997
v 0.6875 0.71875 -2.96875
v 0.15625 0.71875 -2.96875
v 0.6640625 0.5390625 -2.96875
v 0.14453125 0.5390625 -2.96875
v 1.5 0.71875 -1.6875
v 0.4375 0.71875 -1.6875
v 1.46875 0.5390625 -1.6640625
v 0.421875 0.544921875 -1.6640625
v 0.421875 0 -1.6637818749999997
v 0.14453125 0 -2.9686093749999998
v 0.331539375 0.548903125 -0.5079393750000003
v 0.34386 0.71875 -0.5317531249999998
v 0.331495625 0.00003187500000001453 -0.5075318749999997
vt 0.1875 1
vt 0.16796875 0.9375
vt 0.1875 0.9375
vt 0.1015625 0.9375
vt 0.16796875 0.9375
vt 0.1875 1
vt 0.606286171875 0.97713984375
vt 0.708960546875 0.9733665625
vt 0.7109375 0.995825546875
vt 0.604747890625 0.99973890625
vt 0.433106640625 0.833984375
vt 0.368165234375 0.833984375
vt 0.451173046875 0.7734375
vt 0.1875 0.9375
vt 0.16796875 0.9375
vt 0.1328125 0.77734375
vt 0.1875 0.77734375
vt 0 0.77734375
vt 0.1328125 0.77734375
vt 0.16796875 0.9375
vt 0.1015625 0.9375
vt 0.414675234375 0.97713984375
vt 0.606286171875 0.97713984375
vt 0.604747890625 0.9997390625
vt 0.415118203125 1
vt 0.433106640625 0.833984375
vt 0.3984384375 0.997071953125
vt 0.267576953125 0.99706796875
vt 0.368166484375 0.833984375
vt 0.00347953125 0.7441789062499999
vt 0.044921875 0.7449117187500001
vt 0.044917578125 0.765625
vt 0.001935546875 0.765616640625
vt 0.004818984375 0.6015625
vt 0.135680390625 0.6015625
vt 0.133848828125 0.6242632031249999
vt 0.001038359375 0.625
vt 0.4694265625 0.671876328125
vt 0.6361734375 0.671878203125
vt 0.63613828125 0.739993046875
vt 0.46940859375 0.739259140625
vt 0.00348515625 0.6755703125
vt 0.044921875 0.6755703125
vt 0.044921875 0.7449117187500001
vt 0.0034796875 0.7441789062499999
vt 0.411815625 0.671875
vt 0.4694265625 0.671876328125
vt 0.46940859375 0.739259140625
vt 0.40625 0.7392584375
vt 0.1445171875 0.63287578125
vt 0.1875 0.63287578125
vt 0.1875 0.77734375
vt 0.1328125 0.77734375
vt 0.78109453125 0.740490703125
vt 0.778006640625 0.7617615625
vt 0.633065234375 0.76178578125
vt 0.636138984375 0.739993046875
vt 0.7811453125 0.671881328125
vt 0.78109453125 0.740490703125
vt 0.63613828125 0.739993046875
vt 0.6361734375 0.671877421875
vt 0.20703125 0.9375
vt 0.1875 1
vt 0.1875 0.9375
vt 0.20703125 0.9375
vt 0.2734375 0.9375
vt 0.1875 1
vt 0.4296875 0.956763125
vt 0.431664453125 0.93430421875
vt 0.534338828125 0.9380775
vt 0.535877109375 0.9606765625
vt 0.303709140625 0.599609375
vt 0.238767734375 0.599609375
vt 0.220701328125 0.5390625
vt 0.2421875 0.77734375
vt 0.20703125 0.9375
vt 0.1875 0.9375
vt 0.1875 0.77734375
vt 0.20703125 0.9375
vt 0.2421875 0.77734375
vt 0.375 0.77734375
vt 0.2734375 0.9375
vt 0.535877109375 0.9606765625
vt 0.534338828125 0.93807734375
vt 0.725949765625 0.93807734375
vt 0.725506796875 0.9609375
vt 0.404298671875 0.76269296875
vt 0.2734371875 0.762696953125
vt 0.238768984375 0.599609375
vt 0.303709140625 0.599609375
vt 0.044926171875 0.765625
vt 0.044921875 0.7449117187500001
vt 0.08636421875 0.7441789062499999
vt 0.087908203125 0.765616640625
vt 0.022318203125 0.998168359375
vt 0.0003825 1
vt 0.0003825 0.869138515625
vt 0.023055 0.86535796875
vt 0.49667421875 0.630618046875
vt 0.4966390625 0.562503203125
vt 0.6633859375 0.562501328125
vt 0.66340390625 0.629884140625
vt 0.044921875 0.7449117187500001
vt 0.044921875 0.6755703125
vt 0.08635859375 0.6755703125
vt 0.0863640625 0.7441789062499999
vt 0.66340390625 0.629884140625
vt 0.6633859375 0.562501328125
vt 0.720996875 0.5625
vt 0.7265625 0.6298834375
vt 0.1875 0.77734375
vt 0.1875 0.63287578125
vt 0.2304828125 0.63287578125
vt 0.2421875 0.77734375
vt 0.499747265625 0.65241078125
vt 0.354805859375 0.6523865625
vt 0.35171796875 0.631115703125
vt 0.496673515625 0.630618046875
vt 0.49667421875 0.630618046875
vt 0.35171796875 0.631115703125
vt 0.3516671875 0.562506328125
vt 0.4966390625 0.562502421875
vn 0 1 0
vn 0 1 0
vn 0.5878525348106137 0.07008059671655283 0.8059268622403575
vn 0 -1 0
vn 0 1 0
vn 0 1 0
vn 0.8459358655618608 0.11033946072546011 0.5217448751668962
vn 0.0055968369541215075 -0.9999682024697093 0.005680621938464643
vn -0.002539804280675201 0.14370903446824634 0.9896167252054808
vn -0.0007475166362668113 0.13355630567967028 0.9910409448817324
vn -0.9781484941271879 -0.00010706861602109468 -0.20790746011874156
vn 0 0.0007345905772775653 0.9999997301883055
vn -0.9495576963927295 -0.00008180670522034326 -0.3135923700108088
vn 0 1 0
vn -0.9948857972979737 -0.06086696405918457 0.08060684227156767
vn -0.9969612308985065 -0.000021631816387118593 0.07789931718185715
vn 0 1 0
vn 0 1 0
vn -0.5878525348106137 0.07008059671655283 0.8059268622403575
vn 0 -1 0
vn 0 1 0
vn 0 1 0
vn -0.8459358655618608 0.11033946072546011 0.5217448751668962
vn -0.0055968369541215075 -0.9999682024697093 0.005680621938464643
vn 0.0025398042806751933 0.14370903446824634 0.9896167252054808
vn 0.0007475166362668113 0.13355630567967028 0.9910409448817324
vn 0.9781484941271879 -0.00010706861602110423 -0.20790746011874156
vn 0 0.0007345905772775653 0.9999997301883055
vn 0.9495576963927295 -0.00008180670522034326 -0.3135923700108088
vn 0 1 0
vn 0.9948857972979737 -0.060866964059184535 0.08060684227156767
vn 0.9969612308985065 -0.000021631816387127175 0.07789931718185715
usemtl m_b0fff82f-6ee1-7065-3a28-ea866d0860a1
f 131/465/121 136/466/121 133/467/121
f 135/468/122 136/469/122 131/470/122
f 137/471/123 134/472/123 131/473/123 135/474/123
f 138/475/124 137/476/124 134/477/124
f 133/478/125 136/479/125 140/480/125 132/481/125
f 139/482/126 140/483/126 136/484/126 135/485/126
f 141/486/127 137/487/127 135/488/127 139/489/127
f 138/490/128 142/491/128 141/492/128 137/493/128
f 149/494/129 147/495/129 148/496/129 150/497/129
f 141/498/130 142/499/130 140/500/130 139/501/130
f 144/502/131 143/503/131 142/504/131 138/505/131
f 151/506/132 146/507/132 147/508/132 149/509/132
f 145/510/133 144/511/133 138/512/133 134/513/133
f 150/514/134 148/515/134 132/516/134 140/517/134
f 149/518/135 150/519/135 140/520/135 142/521/135
f 151/522/136 149/523/136 142/524/136 143/525/136
f 153/526/137 131/527/137 133/528/137
f 153/529/138 152/530/138 131/531/138
f 131/532/139 134/533/139 154/534/139 152/535/139
f 154/536/140 155/537/140 134/538/140
f 157/539/141 153/540/141 133/541/141 132/542/141
f 153/543/142 157/544/142 156/545/142 152/546/142
f 152/547/143 154/548/143 158/549/143 156/550/143
f 158/551/144 159/552/144 155/553/144 154/554/144
f 148/555/145 147/556/145 162/557/145 163/558/145
f 157/559/146 159/560/146 158/561/146 156/562/146
f 159/563/147 160/564/147 161/565/147 155/566/147
f 147/567/148 146/568/148 164/569/148 162/570/148
f 155/571/149 161/572/149 145/573/149 134/574/149
f 132/575/150 148/576/150 163/577/150 157/578/150
f 157/579/151 163/580/151 162/581/151 159/582/151
f 159/583/152 162/584/152 164/585/152 160/586/152