# Made in Blockbench 4.12.5
mtllib cockpit_chair.mtl

o leg
v 0 0 0
v 0 0.4375 0
v -0.108253125 0 -0.1875
v -0.108253125 0.03125 -0.1875
v -0.18525625 0.03125 0
v -0.108253125 0 0.1875
v -0.108253125 0.03125 0.1875
v -0.045753125 0.0625 -0.0625
v -0.06025625 0.0625 0
v -0.045753125 0.0625 0.0625
v -0.045753125 0.4375 -0.0625
v -0.06025625 0.4375 0
v -0.045753125 0.4375 0.0625
v -0.18525625 0 0
v 0.108253125 0 -0.1875
v 0.108253125 0.03125 -0.1875
v 0.18525625 0.03125 0
v 0.108253125 0 0.1875
v 0.108253125 0.03125 0.1875
v 0.045753125 0.0625 -0.0625
v 0.06025625 0.0625 0
v 0.045753125 0.0625 0.0625
v 0.045753125 0.4375 -0.0625
v 0.06025625 0.4375 0
v 0.045753125 0.4375 0.0625
v 0.18525625 0 0
vt 0.320875 0.15625
vt 0.429128125 0.15625
vt 0.375 0.25
vt 0.84375 0.71875
vt 0.9375 0.71875
vt 0.9375 0.75
vt 0.84375 0.75
vt 0.366628125 0.4375
vt 0.320875 0.4375
vt 0.34375 0.40625
vt 0.429125 0.34375
vt 0.320871875 0.34375
vt 0.375 0.25
vt 0.84375 0.65625
vt 0.9375 0.65625
vt 0.9375 0.6875
vt 0.84375 0.6875
vt 0.320871875 0.375
vt 0.366625 0.375
vt 0.34375 0.40625
vt 0.5541265625 0.921875
vt 0.5998796875 0.921875
vt 0.6311296875 0.984375
vt 0.5228765625 0.984375
vt 0.5998796875 0.859375
vt 0.5541265625 0.859375
vt 0.5228765625 0.796875
vt 0.6311296875 0.796875
vt 0.65625 0.25
vt 0.625 0.25
vt 0.625 0.0625
vt 0.65625 0.0625
vt 0.8125 0.71875
vt 0.78125 0.71875
vt 0.78125 0.53125
vt 0.8125 0.53125
vt 0.282371875 0.25
vt 0.320875 0.15625
vt 0.375 0.25
vt 0.84375 0.59375
vt 0.9375 0.59375
vt 0.9375 0.625
vt 0.84375 0.625
vt 0.320875 0.4375
vt 0.313621875 0.40625
vt 0.34375 0.40625
vt 0.320871875 0.34375
vt 0.282371875 0.25
vt 0.375 0.25
vt 0.84375 0.53125
vt 0.9375 0.53125
vt 0.9375 0.5625
vt 0.84375 0.5625
vt 0.313621875 0.40625
vt 0.320871875 0.375
vt 0.34375 0.40625
vt 0.546875 0.890625
vt 0.5541265625 0.921875
vt 0.5228765625 0.984375
vt 0.484375 0.890625
vt 0.5541265625 0.859375
vt 0.546875 0.890625
vt 0.484375 0.890625
vt 0.5228765625 0.796875
vt 0.046046875 0.3125
vt 0.01396875 0.3125
vt 0.01396875 0.125
vt 0.046046875 0.125
vt 0.078125 0.3125
vt 0.046046875 0.3125
vt 0.046046875 0.125
vt 0.078125 0.125
vt 0.429128125 0.15625
vt 0.467628125 0.25
vt 0.375 0.25
vt 0.84375 0.5
vt 0.84375 0.46875
vt 0.9375 0.46875
vt 0.9375 0.5
vt 0.373878125 0.40625
vt 0.366628125 0.4375
vt 0.34375 0.40625
vt 0.467628125 0.25
vt 0.429125 0.34375
vt 0.375 0.25
vt 0.84375 0.4375
vt 0.84375 0.40625
vt 0.9375 0.40625
vt 0.9375 0.4375
vt 0.366625 0.375
vt 0.373878125 0.40625
vt 0.34375 0.40625
vt 0.6311296875 0.984375
vt 0.5998796875 0.921875
vt 0.60713125 0.890625
vt 0.66963125 0.890625
vt 0.66963125 0.890625
vt 0.60713125 0.890625
vt 0.5998796875 0.859375
vt 0.6311296875 0.796875
vt 0.18915625 0.125
vt 0.18915625 0.3125
vt 0.157078125 0.3125
vt 0.157078125 0.125
vt 0.157078125 0.125
vt 0.157078125 0.3125
vt 0.125 0.3125
vt 0.125 0.125
vn 0 -1 0
vn 0 0 -1
vn 0 1 0
vn 0 -1 0
vn 0 0 1
vn 0 1 0
vn 0 0.970142500145332 -0.242535625036333
vn 0 0.970142500145332 0.242535625036333
vn 0 0 -1
vn 0 0 1
vn 0 -1 0
vn -0.9250298802253426 0 -0.37989435464387783
vn 0 1 0
vn 0 -1 0
vn -0.9250298802253426 0 0.37989435464387783
vn 0 1 0
vn -0.3222755760949291 0.9436873419211715 -0.0747840474328283
vn -0.24215242146541058 0.9686096858616423 0.05619146940104852
vn -0.974117120915213 0 -0.22604387790837513
vn -0.974117120915213 0 0.22604387790837513
vn 0 -1 0
vn 0.9250298802253426 0 -0.37989435464387783
vn 0 1 0
vn 0 -1 0
vn 0.9250298802253426 0 0.37989435464387783
vn 0 1 0
vn 0.32227557609492924 0.9436873419211717 -0.0747840474328283
vn 0.24215242146541058 0.9686096858616423 0.05619146940104855
vn 0.974117120915213 0 -0.22604387790837513
vn 0.974117120915213 0 0.22604387790837513
usemtl m_32ae9f57-cb3f-c02c-f24a-3603334a7fad
f 3/1/1 15/2/1 1/3/1
f 15/4/2 3/5/2 4/6/2 16/7/2
f 23/8/3 11/9/3 2/10/3
f 18/11/4 6/12/4 1/13/4
f 6/14/5 18/15/5 19/16/5 7/17/5
f 13/18/6 25/19/6 2/20/6
f 8/21/7 20/22/7 16/23/7 4/24/7
f 22/25/8 10/26/8 7/27/8 19/28/8
f 11/29/9 23/30/9 20/31/9 8/32/9
f 25/33/10 13/34/10 10/35/10 22/36/10
f 14/37/11 3/38/11 1/39/11
f 3/40/12 14/41/12 5/42/12 4/43/12
f 11/44/13 12/45/13 2/46/13
f 6/47/14 14/48/14 1/49/14
f 14/50/15 6/51/15 7/52/15 5/53/15
f 12/54/16 13/55/16 2/56/16
f 9/57/17 8/58/17 4/59/17 5/60/17
f 10/61/18 9/62/18 5/63/18 7/64/18
f 12/65/19 11/66/19 8/67/19 9/68/19
f 13/69/20 12/70/20 9/71/20 10/72/20
f 15/73/21 26/74/21 1/75/21
f 17/76/22 26/77/22 15/78/22 16/79/22
f 24/80/23 23/81/23 2/82/23
f 26/83/24 18/84/24 1/85/24
f 19/86/25 18/87/25 26/88/25 17/89/25
f 25/90/26 24/91/26 2/92/26
f 16/93/27 20/94/27 21/95/27 17/96/27
f 17/97/28 21/98/28 22/99/28 19/100/28
f 20/101/29 23/102/29 24/103/29 21/104/29
f 21/105/30 24/106/30 25/107/30 22/108/30
o back
v 0.233915 0.88046044947671 0.3604111764412824
v 0.233915 0.9006806873753445 0.2849482212624489
v -0.233915 0.8804602877148069 0.3604117801449238
v -0.233915 0.9006805256134413 0.28494882496609036
v 0.06629125 1.0806458359321194 0.3816983084407064
v -0.19887375 0.840692142761183 0.25269879590667116
v -0.19887375 0.8164278572828216 0.3432543421212713
v 0.06629125 1.0725577407726656 0.4118834905122398
v 0.19887375 0.9606690702276028 0.31719825032186805
v -0.09754125 0.4630577301654917 0.1838643406552694
v -0.09754125 0.44688153984658413 0.24423470479833617
v 0.19887375 0.9444928799086952 0.37756861446493484
v -0.06629125 1.0806458359321194 0.3816983084407064
v -0.06629125 1.0725577407726656 0.4118834905122398
v 0 0.9783401282691471 0.38663795732913353
v 0.0700825 0.88046044947671 0.3604111764412824
v 0.19887375 0.8164280190447248 0.3432537384176299
v 0.19887375 0.8406923045230862 0.25269819220302975
v 0.0700825 0.8885485446361638 0.330225994369749
v 0 0.9864282234286008 0.35645277525760016
v -0.19887375 0.9606689084656996 0.3171988540255095
v -0.19887375 0.944492718146792 0.37756921816857625
v -0.0700825 0.8804602877148069 0.3604117801449238
v 0 0.5109139702785693 0.26139214282198864
v 0.09754125 0.44688153984658413 0.24423470479833617
v 0.09754125 0.4630577301654917 0.1838643406552694
v 0 0.5190020654380232 0.23120696075045527
v -0.0700825 0.8885483828742606 0.3302265980733904
vt 0.408145625 0.4896803125
vt 0.359375 0.5216965625000001
vt 0.310604375 0.4896803125
vt 0.072916875 0.676644375
vt 0.1702671875 0.6705028125
vt 0.1238990625 0.7101446874999999
vt 0.85546875 0.15000625
vt 0.84765625 0.1875
vt 0.81640625 0.1875
vt 0.81640625 0.15000625
vt 0.85546875 0.86875625
vt 0.85546875 0.90625
vt 0.82421875 0.90625
vt 0.81640625 0.86875625
vt 0.2454071875 0.9007059374999999
vt 0.22625125 0.9338690625
vt 0.160205 0.9002896875
vt 0.230876875 0.8666
vt 0.7265625 0.985378125
vt 0.71875 0.9478875
vt 0.765625 0.9478875
vt 0.765625 0.985378125
vt 0.259938125 0.6744534375
vt 0.32433375 0.7064696875
vt 0.259938125 0.7384859375
vt 0.2424175 0.7064696875
vt 0.2314075 0.866346875
vt 0.160205 0.9002896875
vt 0.1262771875 0.708796875
vt 0.176870625 0.6756453124999999
vt 0.71875 0.9478875
vt 0.734375 0.75
vt 0.765625 0.75
vt 0.765625 0.9478875
vt 0.310604375 0.4896803125
vt 0.359375 0.5216965625000001
vt 0.32433375 0.7064696875
vt 0.259938125 0.6744534375
vt 0.81640625 0.28125
vt 0.81640625 0.1875
vt 0.84765625 0.1875
vt 0.83203125 0.28125
vt 0.326229375 0.8025184375
vt 0.359375 0.7554096875
vt 0.392520625 0.8025184375
vt 0.392520625 0.8025184375
vt 0.359375 0.7554096875
vt 0.39441625 0.7064696875
vt 0.458811875 0.7384859375
vt 0.458811875 0.7384859375
vt 0.39441625 0.7064696875
vt 0.458811875 0.6744534375
vt 0.4763325 0.7064696875
vt 0.71875 0.266628125
vt 0.71875 0.2291375
vt 0.765625 0.2291375
vt 0.7578125 0.266628125
vt 0.0045928125 0.9032203125
vt 0.018576875 0.867566875
vt 0.08977875 0.90151
vt 0.024225 0.9348390625
vt 0.024225 0.9348390625
vt 0.0902728125 0.90125875
vt 0.1249096875 0.9522003125
vt 0.0924215625 1
vt 0.0924215625 1
vt 0.1255684375 0.95123125
vt 0.1587153125 1
vt 0.83984375 1
vt 0.82421875 0.90625
vt 0.85546875 0.90625
vt 0.85546875 1
vt 0.326229375 0.8025184375
vt 0.259938125 0.7384859375
vt 0.32433375 0.7064696875
vt 0.359375 0.7554096875
vt 0.39441625 0.7064696875
vt 0.359375 0.5216965625000001
vt 0.408145625 0.4896803125
vt 0.458811875 0.6744534375
vt 0.71875 0.2291375
vt 0.71875 0.03125
vt 0.75 0.03125
vt 0.765625 0.2291375
vt 0.018576875 0.867566875
vt 0.072916875 0.676644375
vt 0.1238990625 0.710144375
vt 0.08918625 0.9012278125
vt 0.1255684375 0.95123125
vt 0.160205 0.9002896875
vt 0.2262528125 0.9338696875
vt 0.1580565625 0.9990309375
vt 0.4375 1
vt 0.40625 1
vt 0.40625 0.9375
vt 0.4375 0.9375
vt 0.40625 0.84375
vt 0.4375 0.84375
vt 0.4375 0.90625
vt 0.40625 0.90625
vt 0.53125 0.25
vt 0.5 0.25
vt 0.5 0.0625
vt 0.53125 0.0625
vt 0.5625 0.0625
vt 0.59375 0.0625
vt 0.59375 0.25
vt 0.5625 0.25
vt 0.75 0.59375
vt 0.75 0.625
vt 0.6875 0.625
vt 0.6875 0.59375
vn 0 -0.25881904510252074 0.9659258262890683
vn 0 0.6459828387790935 -0.7633519319441746
vn 0.8840861834115261 0.4514002168004661 0.12095232355491858
vn -0.8840861834115261 0.4514002168004661 0.12095232355491858
vn 0.2741751414843666 0.32619821408223637 -0.9046671857216814
vn -0.8840861834115262 -0.45140021680046616 -0.1209523235549186
vn 0 -0.25881904510252074 0.9659258262890683
vn 0.4042796835604041 0.3074814233107313 -0.8614018294495935
vn -0.9666673015832759 -0.24731158633268088 -0.06626693983670172
vn 0 -0.25881904510252074 0.9659258262890683
vn 0.7071067811865476 0.6830127018922193 0.1830127018922193
vn 0 -0.25881904510252074 0.9659258262890683
vn 0 -0.25881904510252074 0.9659258262890683
vn 0 -0.25881904510252074 0.9659258262890683
vn 0.8840861834115262 -0.4514002168004662 -0.12095232355491861
vn -0.2578154177225356 0.5700071611813102 -0.7801429654791349
vn -0.1748501947980772 0.136095106937033 -0.9751438515659484
vn 0 0.25881904510252074 -0.9659258262890683
vn -0.7071067811865476 0.6830127018922193 0.1830127018922193
vn 0.0000016018863813856366 -0.25881603898561184 0.9659266317693246
vn 9.873365801215695e-7 -0.25881764183252987 0.9659262022925321
vn 0.9666673015832759 -0.24731158633268088 -0.06626693983670172
vn -0.3035209352335283 0.24908325200669926 -0.919691565387403
vn 0.17484788303604706 0.1360907950629029 -0.9751448678514182
vn 0.8224609170241578 -0.5494394972053709 -0.14722186956594122
vn -0.8224609170241578 -0.5494394972053709 -0.14722186956594122
vn 0.9836328255869202 0.17404488988980663 0.046635187692737355
vn -0.9836328255869202 0.17404488988980663 0.046635187692737355
vn 0 0.9659258262890683 0.25881904510252074
usemtl m_32ae9f57-cb3f-c02c-f24a-3603334a7fad
f 51/109/31 50/110/31 37/111/31
f 52/112/32 36/113/32 53/114/32
f 28/115/33 35/116/33 38/117/33 27/118/33
f 29/119/34 48/120/34 47/121/34 30/122/34
f 30/123/35 47/124/35 54/125/35 32/126/35
f 30/127/36 32/128/36 33/129/36 29/130/36
f 33/131/37 49/132/37 48/133/37 29/134/37
f 32/135/38 54/136/38 53/137/38 36/138/38
f 32/139/39 36/140/39 37/141/39 33/142/39
f 37/143/40 50/144/40 49/145/40 33/146/40
f 34/147/41 38/148/41 35/149/41 31/150/41
f 40/151/42 41/152/42 34/153/42
f 34/154/43 41/155/43 42/156/43 38/157/43
f 38/158/44 42/159/44 43/160/44 27/161/44
f 27/162/45 43/163/45 44/164/45 28/165/45
f 28/166/46 44/167/46 45/168/46 35/169/46
f 35/170/47 45/171/47 46/172/47 31/173/47
f 31/174/48 46/175/48 39/176/48
f 39/177/49 47/178/49 48/179/49 40/180/49
f 40/181/50 48/182/50 49/183/50 41/184/50
f 42/185/51 50/186/51 51/187/51 43/188/51
f 43/189/52 51/190/52 52/191/52 44/192/52
f 44/193/53 52/194/53 53/195/53 45/196/53
f 46/197/54 54/198/54 47/199/54 39/200/54
f 46/201/55 41/202/55 49/203/55 54/204/55
f 45/205/56 42/206/56 41/207/56 46/208/56
f 54/209/57 49/210/57 50/211/57 53/212/57
f 53/213/58 50/214/58 42/215/58 45/216/58
f 34/217/59 31/218/59 39/219/59 40/220/59
o seat
v 0.15625 0.46875 0.25
v 0.15625 0.40625 0.25
v 0.15625 0.515625 -0.25
v 0.15625 0.4375 -0.25
v 0.25 0.53125 -0.09375
v 0.25 0.4375 -0.09375
v 0.15625 0.4375 -0.15625
v 0.15625 0.5 -0.15625
v -0.15625 0.46875 0.25
v -0.15625 0.40625 0.25
v -0.15625 0.515625 -0.25
v -0.15625 0.4375 -0.25
v -0.25 0.53125 -0.09375
v -0.25 0.4375 -0.09375
v -0.15625 0.4375 -0.15625
v -0.15625 0.5 -0.15625
vt 0.6796875 0.311253125
vt 0.6796875 0.5149781250000001
vt 0.5234375 0.5149781250000001
vt 0.5234375 0.311253125
vt 0.65625 0.625
vt 0.5 0.625
vt 0.5 0.59375
vt 0.65625 0.59375
vt 0.0546875 0.6099749999999999
vt 0.0546875 0.40625
vt 0.2109375 0.40625
vt 0.2109375 0.6099749999999999
vt 0.8125 0.78125
vt 0.96875 0.78125
vt 0.96875 0.8125
vt 0.8125 0.8125
vt 0.2109375 0.359375
vt 0.2109375 0.40625
vt 0.0546875 0.40625
vt 0.0546875 0.359375
vt 0.5234375 0.5625
vt 0.5234375 0.5149781250000001
vt 0.6796875 0.5149781250000001
vt 0.6796875 0.5625
vt 0.5324778125 0.68797
vt 0.71065125 0.67258
vt 0.71875 0.71875
vt 0.537876875 0.71875
vt 0.6796875 0.5149790624999999
vt 0.6796875 0.311253125
vt 0.7298909375 0.4850178125
vt 0.2109375 0.40625
vt 0.257813125 0.4375003125
vt 0.21053625 0.6099740625000001
vt 0.6796875 0.5149790624999999
vt 0.7298896875 0.48501875000000005
vt 0.6812846875 0.56247375
vt 0.2109375 0.40625
vt 0.2109375 0.359375
vt 0.2578125 0.4375
vt 0.375 0.9921875
vt 0.28125 1
vt 0.28125 0.9375
vt 0.375 0.9375
vt 0.8125 0.5
vt 0.78125 0.49190124999999996
vt 0.79664 0.31372781250000004
vt 0.8125 0.31912687500000003
vt 0.5234375 0.31125218750000005
vt 0.5234375 0.5149781250000001
vt 0.4732340625 0.4850171875
vt 0.007811875 0.4375003125
vt 0.0546875 0.40625
vt 0.05508875 0.6099740625000001
vt 0.4732353125 0.4850178125
vt 0.5234375 0.5149781250000001
vt 0.5218403125 0.5624728125
vt 0.0546875 0.359375
vt 0.0546875 0.40625
vt 0.0078125 0.4375
vt 0.375 0.84375
vt 0.375 0.90625
vt 0.28125 0.8984375
vt 0.28125 0.84375
vn 0 0.9970544855015816 0.07669649888473705
vn 0 0 1
vn 0 -0.9970544855015816 -0.07669649888473705
vn 0 0 -1
vn 0 -1 0
vn 0 0.9863939238321437 0.1643989873053573
vn 0.9647638212377323 0 0.2631174057921088
vn -0.35805743701971643 0.9309493362512627 0.07161148740394328
vn 0.05106429211881654 -0.9957536963169225 -0.0765964381782248
vn -0.4015084905827965 0.903394103811292 0.15056568396854866
vn 0 -1 0
vn 0.8574929257125442 0 -0.5144957554275266
vn -0.9647638212377323 0 0.2631174057921088
vn 0.35805743701971643 0.9309493362512627 0.07161148740394328
vn -0.05106429211881654 -0.9957536963169225 -0.0765964381782248
vn 0.4015084905827965 0.903394103811292 0.15056568396854866
vn 0 -1 0
vn -0.8574929257125442 0 -0.5144957554275266
usemtl m_32ae9f57-cb3f-c02c-f24a-3603334a7fad
f 55/221/60 62/222/60 70/223/60 63/224/60
f 55/225/61 63/226/61 64/227/61 56/228/61
f 64/229/62 69/230/62 61/231/62 56/232/62
f 58/233/63 66/234/63 65/235/63 57/236/63
f 58/237/64 61/238/64 69/239/64 66/240/64
f 65/241/65 70/242/65 62/243/65 57/244/65
f 56/245/66 60/246/66 59/247/66 55/248/66
f 62/249/67 55/250/67 59/251/67
f 61/252/68 60/253/68 56/254/68
f 62/255/69 59/256/69 57/257/69
f 61/258/70 58/259/70 60/260/70
f 57/261/71 59/262/71 60/263/71 58/264/71
f 67/265/72 68/266/72 64/267/72 63/268/72
f 63/269/73 70/270/73 67/271/73
f 68/272/74 69/273/74 64/274/74
f 67/275/75 70/276/75 65/277/75
f 66/278/76 69/279/76 68/280/76
f 68/281/77 67/282/77 65/283/77 66/284/77