# Made in Blockbench 4.12.5
mtllib console.mtl

o console_base
v 1.5 0 0.5
v 1.46875 0 -0.46875
v 1.5 0 -0.375
v 1.46875 0.75 -0.46875
v 1.5 0.75 -0.375
v 1.5 0.75 0.5
v 1.375 0.875 0.5
v 1.375 0.875 -0.375
v 1.375 0.75 -0.5
v 1.375 0 -0.5
v 1.375 0 -0.375
v 1.375 0 0.5
v 1.375 0.75 0.5
v -1.5 0 0.5
v -1.46875 0 -0.46875
v -1.5 0 -0.375
v -1.46875 0.75 -0.46875
v -1.5 0.75 -0.375
v -1.5 0.75 0.5
v -1.375 0.875 0.5
v -1.375 0.875 -0.375
v -1.375 0.75 -0.5
v -1.375 0 -0.5
v -1.375 0 -0.375
v -1.375 0 0.5
v -1.375 0.75 0.5
vt 0.375 1
vt 0.359375 1
vt 0.359375 0.890625
vt 0.375 0.890625
vt 0.375 0.890625
vt 0.359375 0.890625
vt 0.359375 0.875
vt 0.37109375 0.87890625
vt 0.35288203125 0.65625
vt 0.365234375 0.65625
vt 0.365234375 0.75
vt 0.35288203125 0.75
vt 0.375 0.8515625
vt 0.359375 0.8515625
vt 0.359375 0.7578125
vt 0.375 0.7578125
vt 0.2639890625 0.5390625
vt 0.2639890625 0.6328125
vt 0.2516359375 0.6328125
vt 0.2516359375 0.5390625
vt 0.2516359375 0.5390625
vt 0.2516359375 0.6328125
vt 0.1422609375 0.6328125
vt 0.1422609375 0.5390625
vt 0 0.640625
vt 0.34375 0.640625
vt 0.34375 0.75
vt 0 0.75
vt 0.740234375 0.8984375
vt 0.396484375 0.8984375
vt 0.396484375 0.87633984375
vt 0.740234375 0.87633984375
vt 0.708984375 0.75
vt 0.365234375 0.75
vt 0.365234375 0.65625
vt 0.708984375 0.65625
vt 0.015625 0.875
vt 0.359375 0.875
vt 0.359375 0.890625
vt 0.015625 0.890625
vt 0.015625 0.890625
vt 0.359375 0.890625
vt 0.359375 1
vt 0.015625 1
vt 0.015625 0.7578125
vt 0.359375 0.7578125
vt 0.359375 0.8515625
vt 0.015625 0.8515625
vt 0.015625 0.8515625
vt 0.359375 0.8515625
vt 0.359375 0.8671875
vt 0.015625 0.8671875
vt 0.359375 0.8671875
vt 0.359375 0.8515625
vt 0.375 0.8515625
vt 0.49397984375 0.828125
vt 0.38460484375 0.828125
vt 0.38460484375 0.806028125
vt 0.49397984375 0.806028125
vt 0.38444484375 0.879101796875
vt 0.396484375 0.876339609375
vt 0.396484375 0.8984375
vt 0.49397984375 0.828125
vt 0.49397984375 0.806027890625
vt 0.50602015625 0.8087903125
vt 0.015625 0.890625
vt 0.015625 1
vt 0 1
vt 0 0.890625
vt 0.015625 0.875
vt 0.015625 0.890625
vt 0 0.890625
vt 0.00390625 0.87890625
vt 0.708984375 0.75
vt 0.708984375 0.65625
vt 0.72133671875 0.65625
vt 0.72133671875 0.75
vt 0.015625 0.7578125
vt 0.015625 0.8515625
vt 0 0.8515625
vt 0 0.7578125
vt 0.3968015625 1
vt 0.3844484375 1
vt 0.3844484375 0.90625
vt 0.3968015625 0.90625
vt 0.5061765625 1
vt 0.3968015625 1
vt 0.3968015625 0.90625
vt 0.5061765625 0.90625
vt 0.015625 0.8515625
vt 0.015625 0.8671875
vt 0 0.8515625
vt 0.50602015625 0.774778125
vt 0.50602015625 0.796875
vt 0.39664515625 0.796875
vt 0.39664515625 0.774778125
vt 0.740234375 0.876339609375
vt 0.75227390625 0.879101796875
vt 0.740234375 0.8984375
vt 0.39664515625 0.774777890625
vt 0.39664515625 0.796875
vt 0.38460484375 0.7775403125
vn 0 -1 0
vn 0 -1 0
vn 0.316227766016838 0 -0.948683298050514
vn 0 0 1
vn 0.948683298050514 0 -0.316227766016838
vn 1 0 0
vn 0 1 0
vn 0 0.7071067811865476 -0.7071067811865476
vn 0 0 -1
vn 0 -1 0
vn 0 -1 0
vn 0 0 1
vn 0 0 1
vn 0 0 1
vn 0.7071067811865476 0.7071067811865476 0
vn 0.2294157338705618 0.6882472016116853 -0.6882472016116853
vn 0.6882472016116853 0.6882472016116853 -0.2294157338705618
vn 0 -1 0
vn 0 -1 0
vn -0.316227766016838 0 -0.948683298050514
vn 0 0 1
vn -0.948683298050514 0 -0.316227766016838
vn -1 0 0
vn 0 0 1
vn -0.7071067811865476 0.7071067811865476 0
vn -0.2294157338705618 0.6882472016116853 -0.6882472016116853
vn -0.6882472016116853 0.6882472016116853 -0.2294157338705618
usemtl m_5ec02995-269d-b967-b309-39520e30413b
f 1/1/1 12/2/1 11/3/1 3/4/1
f 3/5/2 11/6/2 10/7/2 2/8/2
f 2/9/3 10/10/3 9/11/3 4/12/3
f 6/13/4 13/14/4 12/15/4 1/16/4
f 2/17/5 4/18/5 5/19/5 3/20/5
f 3/21/6 5/22/6 6/23/6 1/24/6
f 20/25/7 7/26/7 8/27/7 21/28/7
f 21/29/8 8/30/8 9/31/8 22/32/8
f 22/33/9 9/34/9 10/35/9 23/36/9
f 23/37/10 10/38/10 11/39/10 24/40/10
f 24/41/11 11/42/11 12/43/11 25/44/11
f 25/45/12 12/46/12 13/47/12 26/48/12
f 26/49/13 13/50/13 7/51/13 20/52/13
f 7/53/14 13/54/14 6/55/14
f 8/56/15 7/57/15 6/58/15 5/59/15
f 4/60/16 9/61/16 8/62/16
f 8/63/17 5/64/17 4/65/17
f 24/66/18 25/67/18 14/68/18 16/69/18
f 23/70/19 24/71/19 16/72/19 15/73/19
f 22/74/20 23/75/20 15/76/20 17/77/20
f 25/78/21 26/79/21 19/80/21 14/81/21
f 18/82/22 17/83/22 15/84/22 16/85/22
f 19/86/23 18/87/23 16/88/23 14/89/23
f 26/90/24 20/91/24 19/92/24
f 19/93/25 20/94/25 21/95/25 18/96/25
f 22/97/26 17/98/26 21/99/26
f 18/100/27 21/101/27 17/102/27
o console_top
v -1.25 1.5000000000000002 0.5
v -1.25 1.5000000000000002 0.15625
v 1.25 1.4999999999999998 0.5
v 1.25 1.4999999999999998 0.15625
v -1.375 0.8750000000000003 0.5
v -1.375 0.8750000000000003 0.03125
v 1.375 0.8749999999999997 0.5
v 1.375 0.8749999999999997 0.03125
v -1.25 0.8750000000000002 0.5
v -1.25 0.8750000000000002 0.03125
v 1.25 0.8749999999999998 0.5
v 1.25 0.8749999999999998 0.03125
vt 0.2734375 0.6328125
vt 0.2734375 0.5546875
vt 0.31640625 0.5546875
vt 0.33203125 0.6328125
vt 0.48828125 0.6484375
vt 0.4453125 0.6484375
vt 0.4453125 0.5703125
vt 0.50390625 0.5703125
vt 0 0.6328125
vt 0 0.6171875
vt 0.078125 0.6171875
vt 0.3515625 0.6328125
vt 0.431234375 0.6328125
vt 0.431234375 0.6484375
vt 0.0859375 0.6328125
vt 0.0859375 0.3203125
vt 0.1328125 0.3203125
vt 0.1328125 0.6328125
vt 0 0.6171875
vt 0 0.3046875
vt 0.078125 0.3046875
vt 0.078125 0.6171875
vt 0.3515625 0.6328125
vt 0.3515625 0.3203125
vt 0.431234375 0.3203125
vt 0.431234375 0.6328125
vt 0.078125 0.3046875
vt 0 0.3046875
vt 0 0.2890625
vt 0.431234375 0.3046875
vt 0.431234375 0.3203125
vt 0.3515625 0.3203125
vn -0.9805806756909201 0.19611613513818424 0
vn 0.9805806756909203 0.19611613513818385 0
vn 0 0 1
vn 4.3546529746182126e-17 0.19611613513818404 -0.9805806756909202
vn 2.220446049250313e-16 1 0
vn 0 0 1
vn 4.354652974618214e-17 0.1961161351381841 -0.9805806756909203
vn 0 0 1
vn 4.3546529746182126e-17 0.19611613513818404 -0.9805806756909202
usemtl m_5ec02995-269d-b967-b309-39520e30413b
f 31/103/28 27/104/28 28/105/28 32/106/28
f 30/107/29 29/108/29 33/109/29 34/110/29
f 31/111/30 35/112/30 27/113/30
f 28/114/31 36/115/31 32/116/31
f 27/117/32 29/118/32 30/119/32 28/120/32
f 35/121/33 37/122/33 29/123/33 27/124/33
f 28/125/34 30/126/34 38/127/34 36/128/34
f 29/129/35 37/130/35 33/131/35
f 34/132/36 38/133/36 30/134/36
o panel
v 0.625 0.9375 -0.0625
v 0.625 0.9375 -0.3125
v 0.625 0.875 -0.0625
v 0.625 0.875 -0.3125
v -0.625 0.9375 -0.0625
v -0.625 0.9375 -0.3125
v -0.625 0.875 -0.0625
v -0.625 0.875 -0.3125
vt 0.2578125 0.515625
vt 0.2265625 0.515625
vt 0.2265625 0.5078125
vt 0.2578125 0.5078125
vt 0.296875 0.5078125
vt 0.296875 0.515625
vt 0.265625 0.515625
vt 0.265625 0.5078125
vt 0.3828125 0.8359375
vt 0.5390625 0.8359375
vt 0.5390625 0.8671875
vt 0.3828125 0.8671875
vt 0.5390625 0.7578125
vt 0.5390625 0.765625
vt 0.3828125 0.765625
vt 0.3828125 0.7578125
vt 0.296875 0.53125
vt 0.140625 0.53125
vt 0.140625 0.5234375
vt 0.296875 0.5234375
vn 1 0 0
vn -1 0 0
vn 0 1 0
vn 0 0 1
vn 0 0 -1
usemtl m_5ec02995-269d-b967-b309-39520e30413b
f 40/135/37 39/136/37 41/137/37 42/138/37
f 45/139/38 43/140/38 44/141/38 46/142/38
f 43/143/39 39/144/39 40/145/39 44/146/39
f 41/147/40 39/148/40 43/149/40 45/150/40
f 44/151/41 40/152/41 42/153/41 46/154/41
o panel
v -0.6875 0.9375 -0.0625
v -0.6875 0.9375 -0.3125
v -0.6875 0.875 -0.0625
v -0.6875 0.875 -0.3125
v -1.3125 0.9375 -0.0625
v -1.3125 0.9375 -0.3125
v -1.3125 0.875 -0.0625
v -1.3125 0.875 -0.3125
vt 0.34375 0.4921875
vt 0.3125 0.4921875
vt 0.3125 0.484375
vt 0.34375 0.484375
vt 0.5390625 0.625
vt 0.5390625 0.6328125
vt 0.5078125 0.6328125
vt 0.5078125 0.625
vt 0.4453125 0.53125
vt 0.5234375 0.53125
vt 0.5234375 0.5625
vt 0.4453125 0.5625
vt 0.5234375 0.515625
vt 0.5234375 0.5234375
vt 0.4453125 0.5234375
vt 0.4453125 0.515625
vt 0.21875 0.515625
vt 0.140625 0.515625
vt 0.140625 0.5078125
vt 0.21875 0.5078125
vn 1 0 0
vn -1 0 0
vn 0 1 0
vn 0 0 1
vn 0 0 -1
usemtl m_5ec02995-269d-b967-b309-39520e30413b
f 48/155/42 47/156/42 49/157/42 50/158/42
f 53/159/43 51/160/43 52/161/43 54/162/43
f 51/163/44 47/164/44 48/165/44 52/166/44
f 49/167/45 47/168/45 51/169/45 53/170/45
f 52/171/46 48/172/46 50/173/46 54/174/46
o panel
v 0.8125 0.9375 -0.0625
v 0.8125 0.9375 -0.3125
v 0.8125 0.875 -0.0625
v 0.8125 0.875 -0.3125
v 0.6875 0.9375 -0.0625
v 0.6875 0.9375 -0.3125
v 0.6875 0.875 -0.0625
v 0.6875 0.875 -0.3125
vt 0.3359375 0.5078125
vt 0.3046875 0.5078125
vt 0.3046875 0.5
vt 0.3359375 0.5
vt 0.4765625 0.5
vt 0.4765625 0.5078125
vt 0.4453125 0.5078125
vt 0.4453125 0.5
vt 0.328125 0.53125
vt 0.34375 0.53125
vt 0.34375 0.5625
vt 0.328125 0.5625
vt 0.2890625 0.5390625
vt 0.2890625 0.546875
vt 0.2734375 0.546875
vt 0.2734375 0.5390625
vt 0.34375 0.5234375
vt 0.328125 0.5234375
vt 0.328125 0.515625
vt 0.34375 0.515625
vn 1 0 0
vn -1 0 0
vn 0 1 0
vn 0 0 1
vn 0 0 -1
usemtl m_5ec02995-269d-b967-b309-39520e30413b
f 56/175/47 55/176/47 57/177/47 58/178/47
f 61/179/48 59/180/48 60/181/48 62/182/48
f 59/183/49 55/184/49 56/185/49 60/186/49
f 57/187/50 55/188/50 59/189/50 61/190/50
f 60/191/51 56/192/51 58/193/51 62/194/51
o panel
v 1 0.9375 -0.0625
v 1 0.9375 -0.3125
v 1 0.875 -0.0625
v 1 0.875 -0.3125
v 0.875 0.9375 -0.0625
v 0.875 0.9375 -0.3125
v 0.875 0.875 -0.0625
v 0.875 0.875 -0.3125
vt 0.515625 0.5078125
vt 0.484375 0.5078125
vt 0.484375 0.5
vt 0.515625 0.5
vt 0.171875 0.4921875
vt 0.171875 0.5
vt 0.140625 0.5
vt 0.140625 0.4921875
vt 0.3046875 0.515625
vt 0.3203125 0.515625
vt 0.3203125 0.546875
vt 0.3046875 0.546875
vt 0.5234375 0.609375
vt 0.5234375 0.6171875
vt 0.5078125 0.6171875
vt 0.5078125 0.609375
vt 0.4609375 0.4921875
vt 0.4453125 0.4921875
vt 0.4453125 0.484375
vt 0.4609375 0.484375
vn 1 0 0
vn -1 0 0
vn 0 1 0
vn 0 0 1
vn 0 0 -1
usemtl m_5ec02995-269d-b967-b309-39520e30413b
f 64/195/52 63/196/52 65/197/52 66/198/52
f 69/199/53 67/200/53 68/201/53 70/202/53
f 67/203/54 63/204/54 64/205/54 68/206/54
f 65/207/55 63/208/55 67/209/55 69/210/55
f 68/211/56 64/212/56 66/213/56 70/214/56
o panel
v 1.1875 0.9375 -0.0625
v 1.1875 0.9375 -0.3125
v 1.1875 0.875 -0.0625
v 1.1875 0.875 -0.3125
v 1.125 0.9375 -0.0625
v 1.125 0.9375 -0.3125
v 1.125 0.875 -0.0625
v 1.125 0.875 -0.3125
vt 0.2109375 0.5
vt 0.1796875 0.5
vt 0.1796875 0.4921875
vt 0.2109375 0.4921875
vt 0.25 0.4921875
vt 0.25 0.5
vt 0.21875 0.5
vt 0.21875 0.4921875
vt 0.3359375 0.5703125
vt 0.34375 0.5703125
vt 0.34375 0.6015625
vt 0.3359375 0.6015625
vt 0.4765625 0.484375
vt 0.4765625 0.4921875
vt 0.46875 0.4921875
vt 0.46875 0.484375
vt 0.4921875 0.4921875
vt 0.484375 0.4921875
vt 0.484375 0.484375
vt 0.4921875 0.484375
vn 1 0 0
vn -1 0 0
vn 0 1 0
vn 0 0 1
vn 0 0 -1
usemtl m_5ec02995-269d-b967-b309-39520e30413b
f 72/215/57 71/216/57 73/217/57 74/218/57
f 77/219/58 75/220/58 76/221/58 78/222/58
f 75/223/59 71/224/59 72/225/59 76/226/59
f 73/227/60 71/228/60 75/229/60 77/230/60
f 76/231/61 72/232/61 74/233/61 78/234/61
o panel
v 1.3125 0.9375 -0.0625
v 1.3125 0.9375 -0.3125
v 1.3125 0.875 -0.0625
v 1.3125 0.875 -0.3125
v 1.25 0.9375 -0.0625
v 1.25 0.9375 -0.3125
v 1.25 0.875 -0.0625
v 1.25 0.875 -0.3125
vt 0.2890625 0.5
vt 0.2578125 0.5
vt 0.2578125 0.4921875
vt 0.2890625 0.4921875
vt 0.53125 0.640625
vt 0.53125 0.6484375
vt 0.5 0.6484375
vt 0.5 0.640625
vt 0.296875 0.4609375
vt 0.3046875 0.4609375
vt 0.3046875 0.4921875
vt 0.296875 0.4921875
vt 0.5078125 0.484375
vt 0.5078125 0.4921875
vt 0.5 0.4921875
vt 0.5 0.484375
vt 0.5234375 1
vt 0.515625 1
vt 0.515625 0.9921875
vt 0.5234375 0.9921875
vn 1 0 0
vn -1 0 0
vn 0 1 0
vn 0 0 1
vn 0 0 -1
usemtl m_5ec02995-269d-b967-b309-39520e30413b
f 80/235/62 79/236/62 81/237/62 82/238/62
f 85/239/63 83/240/63 84/241/63 86/242/63
f 83/243/64 79/244/64 80/245/64 84/246/64
f 81/247/65 79/248/65 83/249/65 85/250/65
f 84/251/66 80/252/66 82/253/66 86/254/66