# Made in Blockbench 4.12.5
mtllib counter.mtl

o cuboid
v 0.34375 0.8125 -0.4375
v 0.34375 0.8125 -0.46875
v 0.34375 0.125 -0.4375
v 0.34375 0.125 -0.46875
v -0.34375 0.8125 -0.4375
v -0.34375 0.8125 -0.46875
v -0.34375 0.125 -0.4375
v -0.34375 0.125 -0.46875
vt 0.2890625 0.6171875
vt 0.28125 0.6171875
vt 0.28125 0.53125
vt 0.2890625 0.53125
vt 0.4296875 0.5546875
vt 0.4296875 0.640625
vt 0.421875 0.640625
vt 0.421875 0.5546875
vt 0.4375 0.6328125
vt 0.5234375 0.6328125
vt 0.5234375 0.640625
vt 0.4375 0.640625
vt 0.5234375 0.6171875
vt 0.5234375 0.625
vt 0.4375 0.625
vt 0.4375 0.6171875
vt 0.0859375 0.6171875
vt 0 0.6171875
vt 0 0.53125
vt 0.0859375 0.53125
vn 1 0 0
vn -1 0 0
vn 0 1 0
vn 0 -1 0
vn 0 0 -1
usemtl m_929ee330-d222-b1d1-5491-23a8afbed47e
f 2/1/1 1/2/1 3/3/1 4/4/1
f 7/5/2 5/6/2 6/7/2 8/8/2
f 5/9/3 1/10/3 2/11/3 6/12/3
f 4/13/4 3/14/4 7/15/4 8/16/4
f 6/17/5 2/18/5 4/19/5 8/20/5
o cuboid
v -0.4375 0.8125 -0.4375
v -0.4375 0.8125 -0.46875
v -0.4375 0.625 -0.4375
v -0.4375 0.625 -0.46875
v -1.125 0.8125 -0.4375
v -1.125 0.8125 -0.46875
v -1.125 0.625 -0.4375
v -1.125 0.625 -0.46875
vt 0.2265625 0.5390625
vt 0.21875 0.5390625
vt 0.21875 0.515625
vt 0.2265625 0.515625
vt 0.2421875 0.515625
vt 0.2421875 0.5390625
vt 0.234375 0.5390625
vt 0.234375 0.515625
vt 0.4375 0.6015625
vt 0.5234375 0.6015625
vt 0.5234375 0.609375
vt 0.4375 0.609375
vt 0.5234375 0.5859375
vt 0.5234375 0.59375
vt 0.4375 0.59375
vt 0.4375 0.5859375
vt 0.2734375 0.6171875
vt 0.1875 0.6171875
vt 0.1875 0.59375
vt 0.2734375 0.59375
vn 1 0 0
vn -1 0 0
vn 0 1 0
vn 0 -1 0
vn 0 0 -1
usemtl m_929ee330-d222-b1d1-5491-23a8afbed47e
f 10/21/6 9/22/6 11/23/6 12/24/6
f 15/25/7 13/26/7 14/27/7 16/28/7
f 13/29/8 9/30/8 10/31/8 14/32/8
f 12/33/9 11/34/9 15/35/9 16/36/9
f 14/37/10 10/38/10 12/39/10 16/40/10
o cuboid
v 1.125 0.8125 -0.4375
v 1.125 0.8125 -0.46875
v 1.125 0.125 -0.4375
v 1.125 0.125 -0.46875
v 0.4375 0.8125 -0.4375
v 0.4375 0.8125 -0.46875
v 0.4375 0.125 -0.4375
v 0.4375 0.125 -0.46875
vt 0.1953125 0.5390625
vt 0.1875 0.5390625
vt 0.1875 0.453125
vt 0.1953125 0.453125
vt 0.2109375 0.453125
vt 0.2109375 0.5390625
vt 0.203125 0.5390625
vt 0.203125 0.453125
vt 0.296875 0.5234375
vt 0.3828125 0.5234375
vt 0.3828125 0.53125
vt 0.296875 0.53125
vt 0.4765625 0.5234375
vt 0.4765625 0.53125
vt 0.390625 0.53125
vt 0.390625 0.5234375
vt 0.1796875 0.6171875
vt 0.09375 0.6171875
vt 0.09375 0.53125
vt 0.1796875 0.53125
vn 1 0 0
vn -1 0 0
vn 0 1 0
vn 0 -1 0
vn 0 0 -1
usemtl m_929ee330-d222-b1d1-5491-23a8afbed47e
f 18/41/11 17/42/11 19/43/11 20/44/11
f 23/45/12 21/46/12 22/47/12 24/48/12
f 21/49/13 17/50/13 18/51/13 22/52/13
f 20/53/14 19/54/14 23/55/14 24/56/14
f 22/57/15 18/58/15 20/59/15 24/60/15
o cuboid
v -0.4375 0.3125 -0.4375
v -0.4375 0.3125 -0.46875
v -0.4375 0.125 -0.4375
v -0.4375 0.125 -0.46875
v -1.125 0.3125 -0.4375
v -1.125 0.3125 -0.46875
v -1.125 0.125 -0.4375
v -1.125 0.125 -0.46875
vt 0.2578125 0.5390625
vt 0.25 0.5390625
vt 0.25 0.515625
vt 0.2578125 0.515625
vt 0.2734375 0.515625
vt 0.2734375 0.5390625
vt 0.265625 0.5390625
vt 0.265625 0.515625
vt 0.4375 0.5703125
vt 0.5234375 0.5703125
vt 0.5234375 0.578125
vt 0.4375 0.578125
vt 0.5234375 0.5546875
vt 0.5234375 0.5625
vt 0.4375 0.5625
vt 0.4375 0.5546875
vt 0.2734375 0.5859375
vt 0.1875 0.5859375
vt 0.1875 0.5625
vt 0.2734375 0.5625
vn 1 0 0
vn -1 0 0
vn 0 1 0
vn 0 -1 0
vn 0 0 -1
usemtl m_929ee330-d222-b1d1-5491-23a8afbed47e
f 26/61/16 25/62/16 27/63/16 28/64/16
f 31/65/17 29/66/17 30/67/17 32/68/17
f 29/69/18 25/70/18 26/71/18 30/72/18
f 28/73/19 27/74/19 31/75/19 32/76/19
f 30/77/20 26/78/20 28/79/20 32/80/20
o cuboid
v -0.4375 0.5625 -0.4375
v -0.4375 0.5625 -0.46875
v -0.4375 0.375 -0.4375
v -0.4375 0.375 -0.46875
v -1.125 0.5625 -0.4375
v -1.125 0.5625 -0.46875
v -1.125 0.375 -0.4375
v -1.125 0.375 -0.46875
vt 0.0078125 0.5234375
vt 0 0.5234375
vt 0 0.5
vt 0.0078125 0.5
vt 0.0234375 0.5
vt 0.0234375 0.5234375
vt 0.015625 0.5234375
vt 0.015625 0.5
vt 0.1875 0.546875
vt 0.2734375 0.546875
vt 0.2734375 0.5546875
vt 0.1875 0.5546875
vt 0.5078125 0.5390625
vt 0.5078125 0.546875
vt 0.421875 0.546875
vt 0.421875 0.5390625
vt 0.5078125 0.71875
vt 0.421875 0.71875
vt 0.421875 0.6953125
vt 0.5078125 0.6953125
vn 1 0 0
vn -1 0 0
vn 0 1 0
vn 0 -1 0
vn 0 0 -1
usemtl m_929ee330-d222-b1d1-5491-23a8afbed47e
f 34/81/21 33/82/21 35/83/21 36/84/21
f 39/85/22 37/86/22 38/87/22 40/88/22
f 37/89/23 33/90/23 34/91/23 38/92/23
f 36/93/24 35/94/24 39/95/24 40/96/24
f 38/97/25 34/98/25 36/99/25 40/100/25
o base
v 1.1875 0.875 0.4375
v 1.1875 0.875 -0.4375
v 1.1875 0 0.4375
v 1.1875 0 -0.4375
v -1.1875 0.875 0.4375
v -1.1875 0.875 -0.4375
v -1.1875 0 0.4375
v -1.1875 0 -0.4375
vt 0.4140625 0.765625
vt 0.3046875 0.765625
vt 0.3046875 0.65625
vt 0.4140625 0.65625
vt 0.4140625 0.5390625
vt 0.4140625 0.6484375
vt 0.3046875 0.6484375
vt 0.3046875 0.5390625
vt 0.296875 0.625
vt 0.296875 0.734375
vt 0 0.734375
vt 0 0.625
vt 0.6015625 1
vt 0.3046875 1
vt 0.3046875 0.890625
vt 0.6015625 0.890625
vt 0.6015625 0.7734375
vt 0.6015625 0.8828125
vt 0.3046875 0.8828125
vt 0.3046875 0.7734375
vn 1 0 0
vn -1 0 0
vn 0 0 1
vn 0 0 -1
vn 0 -1 0
usemtl m_929ee330-d222-b1d1-5491-23a8afbed47e
f 42/101/26 41/102/26 43/103/26 44/104/26
f 47/105/27 45/106/27 46/107/27 48/108/27
f 43/109/28 41/110/28 45/111/28 47/112/28
f 46/113/29 42/114/29 44/115/29 48/116/29
f 44/117/30 43/118/30 47/119/30 48/120/30
o board
v 1.1875 1 0.5
v 1.1875 1 -0.5
v 1.1875 0.875 0.5
v 1.1875 0.875 -0.5
v -1.1875 1 0.5
v -1.1875 1 -0.5
v -1.1875 0.875 0.5
v -1.1875 0.875 -0.5
vt 0.546875 0.6875
vt 0.421875 0.6875
vt 0.421875 0.671875
vt 0.546875 0.671875
vt 0.546875 0.6484375
vt 0.546875 0.6640625
vt 0.421875 0.6640625
vt 0.421875 0.6484375
vt 0 0.875
vt 0.296875 0.875
vt 0.296875 1
vt 0 1
vt 0.296875 0.7421875
vt 0.296875 0.8671875
vt 0 0.8671875
vt 0 0.7421875
vt 0.71875 0.75
vt 0.71875 0.765625
vt 0.421875 0.765625
vt 0.421875 0.75
vt 0.71875 0.7421875
vt 0.421875 0.7421875
vt 0.421875 0.7265625
vt 0.71875 0.7265625
vn 1 0 0
vn -1 0 0
vn 0 1 0
vn 0 -1 0
vn 0 0 1
vn 0 0 -1
usemtl m_929ee330-d222-b1d1-5491-23a8afbed47e
f 50/121/31 49/122/31 51/123/31 52/124/31
f 55/125/32 53/126/32 54/127/32 56/128/32
f 53/129/33 49/130/33 50/131/33 54/132/33
f 52/133/34 51/134/34 55/135/34 56/136/34
f 51/137/35 49/138/35 53/139/35 55/140/35
f 54/141/36 50/142/36 52/143/36 56/144/36