# Made in Blockbench 4.12.5
mtllib crate_s.mtl

o cuboid
v 0.4375 0.875 0.4375
v 0.4375 0.875 -0.4375
v 0.4375 0 0.4375
v 0.4375 0 -0.4375
v -0.4375 0.875 0.4375
v -0.4375 0.875 -0.4375
v -0.4375 0 0.4375
v -0.4375 0 -0.4375
v -0.4375 0.875 -0.34375
v -0.4375 0 -0.34375
v 0.4375 0 -0.34375
v 0.4375 0.875 -0.34375
v -0.4375 0.875 0.34375
v -0.4375 0 0.34375
v 0.4375 0 0.34375
v 0.4375 0.875 0.34375
v -0.34375 0.875 -0.4375
v -0.34375 0.875 -0.34375
v -0.34375 0.875 0.34375
v -0.34375 0.875 0.4375
v -0.34375 0 0.4375
v -0.34375 0 0.34375
v -0.34375 0 -0.34375
v -0.34375 0 -0.4375
v 0.34375 0.875 -0.4375
v 0.34375 0.875 -0.34375
v 0.34375 0.875 0.34375
v 0.34375 0.875 0.4375
v 0.34375 0 0.4375
v 0.34375 0 0.34375
v 0.34375 0 -0.34375
v 0.34375 0 -0.4375
v -0.4375 0.78125 -0.4375
v -0.4375 0.78125 -0.34375
v -0.4375 0.78125 0.34375
v -0.4375 0.78125 0.4375
v -0.34375 0.78125 0.4375
v 0.34375 0.78125 0.4375
v 0.4375 0.78125 0.4375
v 0.4375 0.78125 0.34375
v 0.4375 0.78125 -0.34375
v 0.4375 0.78125 -0.4375
v 0.34375 0.78125 -0.4375
v -0.34375 0.78125 -0.4375
v -0.4375 0.09375 -0.4375
v -0.4375 0.09375 -0.34375
v -0.4375 0.09375 0.34375
v -0.4375 0.09375 0.4375
v -0.34375 0.09375 0.4375
v 0.34375 0.09375 0.4375
v 0.4375 0.09375 0.4375
v 0.4375 0.09375 0.34375
v 0.4375 0.09375 -0.34375
v 0.4375 0.09375 -0.4375
v 0.34375 0.09375 -0.4375
v -0.34375 0.09375 -0.4375
v -0.375 0.78125 -0.34375
v -0.375 0.09375 -0.34375
v -0.375 0.09375 0.34375
v -0.375 0.78125 0.34375
v 0.34375 0.78125 -0.375
v 0.34375 0.09375 -0.375
v -0.34375 0.09375 -0.375
v -0.34375 0.78125 -0.375
v 0.375 0.78125 0.34375
v 0.375 0.09375 0.34375
v 0.375 0.09375 -0.34375
v 0.375 0.78125 -0.34375
v -0.34375 0.78125 0.375
v -0.34375 0.09375 0.375
v 0.34375 0.09375 0.375
v 0.34375 0.78125 0.375
v -0.34375 0.8125 0.34375
v 0.34375 0.8125 -0.34375
v 0.34375 0.8125 0.34375
v -0.34375 0.8125 -0.34375
v -0.34375 0.0625 -0.34375
v 0.34375 0.0625 0.34375
v 0.34375 0.0625 -0.34375
v -0.34375 0.0625 0.34375
vt 0.21875 0.78125
vt 0.21875 0.8046875
vt 0.1953125 0.8046875
vt 0.1953125 0.78125
vt 0.0234375 0.546875
vt 0.0234375 0.5703125
vt 0 0.5703125
vt 0 0.546875
vt 0.234375 0.9765625
vt 0.2578125 0.9765625
vt 0.2578125 1
vt 0.234375 1
vt 0.234375 0.546875
vt 0.2578125 0.546875
vt 0.2578125 0.5703125
vt 0.234375 0.5703125
vt 0.0234375 0.3125
vt 0.0234375 0.3359375
vt 0 0.3359375
vt 0 0.3125
vt 0.6875 0.78125
vt 0.6875 0.8046875
vt 0.6640625 0.8046875
vt 0.6640625 0.78125
vt 0.1953125 0.546875
vt 0.1953125 0.5703125
vt 0.0234375 0.5703125
vt 0.0234375 0.546875
vt 0.234375 0.5703125
vt 0.2578125 0.5703125
vt 0.2578125 0.7421875
vt 0.234375 0.7421875
vt 0.1953125 0.78125
vt 0.1953125 0.8046875
vt 0.0234375 0.8046875
vt 0.0234375 0.78125
vt 0.234375 0.8046875
vt 0.2578125 0.8046875
vt 0.2578125 0.9765625
vt 0.234375 0.9765625
vt 0.21875 0.546875
vt 0.21875 0.5703125
vt 0.1953125 0.5703125
vt 0.1953125 0.546875
vt 0.234375 0.7421875
vt 0.2578125 0.7421875
vt 0.2578125 0.765625
vt 0.234375 0.765625
vt 0.0234375 0.78125
vt 0.0234375 0.8046875
vt 0 0.8046875
vt 0 0.78125
vt 0.234375 0.78125
vt 0.2578125 0.78125
vt 0.2578125 0.8046875
vt 0.234375 0.8046875
vt 0.2578125 0.9765625
vt 0.4296875 0.9765625
vt 0.4296875 1
vt 0.2578125 1
vt 0.234375 0.359375
vt 0.40625 0.359375
vt 0.40625 0.53125
vt 0.234375 0.53125
vt 0.2578125 0.78125
vt 0.4296875 0.78125
vt 0.4296875 0.8046875
vt 0.2578125 0.8046875
vt 0.1953125 0.3125
vt 0.1953125 0.3359375
vt 0.0234375 0.3359375
vt 0.0234375 0.3125
vt 0.2578125 0.7421875
vt 0.4296875 0.7421875
vt 0.4296875 0.765625
vt 0.2578125 0.765625
vt 0.46875 0.59375
vt 0.640625 0.59375
vt 0.640625 0.765625
vt 0.46875 0.765625
vt 0.2578125 0.546875
vt 0.4296875 0.546875
vt 0.4296875 0.5703125
vt 0.2578125 0.5703125
vt 0.6640625 0.78125
vt 0.6640625 0.8046875
vt 0.4921875 0.8046875
vt 0.4921875 0.78125
vt 0.453125 1
vt 0.4296875 1
vt 0.4296875 0.9765625
vt 0.453125 0.9765625
vt 0.453125 0.9765625
vt 0.4296875 0.9765625
vt 0.4296875 0.8046875
vt 0.453125 0.8046875
vt 0.453125 0.8046875
vt 0.4296875 0.8046875
vt 0.4296875 0.78125
vt 0.453125 0.78125
vt 0.21875 0.3125
vt 0.21875 0.3359375
vt 0.1953125 0.3359375
vt 0.1953125 0.3125
vt 0.453125 0.765625
vt 0.4296875 0.765625
vt 0.4296875 0.7421875
vt 0.453125 0.7421875
vt 0.453125 0.7421875
vt 0.4296875 0.7421875
vt 0.4296875 0.5703125
vt 0.453125 0.5703125
vt 0.453125 0.5703125
vt 0.4296875 0.5703125
vt 0.4296875 0.546875
vt 0.453125 0.546875
vt 0.4921875 0.78125
vt 0.4921875 0.8046875
vt 0.46875 0.8046875
vt 0.46875 0.78125
vt 0 0.765625
vt 0 0.7421875
vt 0.0234375 0.7421875
vt 0.0234375 0.765625
vt 0.0234375 0.765625
vt 0.0234375 0.7421875
vt 0.1953125 0.7421875
vt 0.1953125 0.765625
vt 0.1953125 0.765625
vt 0.1953125 0.7421875
vt 0.21875 0.7421875
vt 0.21875 0.765625
vt 0 0.53125
vt 0 0.5078125
vt 0.0234375 0.5078125
vt 0.0234375 0.53125
vt 0.0234375 0.53125
vt 0.0234375 0.5078125
vt 0.1953125 0.5078125
vt 0.1953125 0.53125
vt 0.1953125 0.53125
vt 0.1953125 0.5078125
vt 0.21875 0.5078125
vt 0.21875 0.53125
vt 0 1
vt 0 0.9765625
vt 0.0234375 0.9765625
vt 0.0234375 1
vt 0.0234375 1
vt 0.0234375 0.9765625
vt 0.1953125 0.9765625
vt 0.1953125 1
vt 0.1953125 1
vt 0.1953125 0.9765625
vt 0.21875 0.9765625
vt 0.21875 1
vt 0.46875 1
vt 0.46875 0.9765625
vt 0.4921875 0.9765625
vt 0.4921875 1
vt 0.4921875 1
vt 0.4921875 0.9765625
vt 0.6640625 0.9765625
vt 0.6640625 1
vt 0.6640625 1
vt 0.6640625 0.9765625
vt 0.6875 0.9765625
vt 0.6875 1
vt 0 0.7421875
vt 0 0.5703125
vt 0.0234375 0.5703125
vt 0.0234375 0.7421875
vt 0.421875 0.53125
vt 0.421875 0.359375
vt 0.59375 0.359375
vt 0.59375 0.53125
vt 0.1953125 0.7421875
vt 0.1953125 0.5703125
vt 0.21875 0.5703125
vt 0.21875 0.7421875
vt 0 0.5078125
vt 0 0.3359375
vt 0.0234375 0.3359375
vt 0.0234375 0.5078125
vt 0.609375 0.578125
vt 0.609375 0.40625
vt 0.78125 0.40625
vt 0.78125 0.578125
vt 0.1953125 0.5078125
vt 0.1953125 0.3359375
vt 0.21875 0.3359375
vt 0.21875 0.5078125
vt 0 0.9765625
vt 0 0.8046875
vt 0.0234375 0.8046875
vt 0.0234375 0.9765625
vt 0.609375 0.390625
vt 0.609375 0.21875
vt 0.78125 0.21875
vt 0.78125 0.390625
vt 0.1953125 0.9765625
vt 0.1953125 0.8046875
vt 0.21875 0.8046875
vt 0.21875 0.9765625
vt 0.46875 0.9765625
vt 0.46875 0.8046875
vt 0.4921875 0.8046875
vt 0.4921875 0.9765625
vt 0.234375 0.34375
vt 0.234375 0.171875
vt 0.40625 0.171875
vt 0.40625 0.34375
vt 0.6640625 0.9765625
vt 0.6640625 0.8046875
vt 0.6875 0.8046875
vt 0.6875 0.9765625
vt 0.671875 0.59375
vt 0.671875 0.765625
vt 0.65625 0.765625
vt 0.65625 0.59375
vt 0.4375 0.171875
vt 0.4375 0.34375
vt 0.421875 0.34375
vt 0.421875 0.171875
vt 0.453125 0.34375
vt 0.453125 0.171875
vt 0.46875 0.171875
vt 0.46875 0.34375
vt 0.5 0.171875
vt 0.5 0.34375
vt 0.484375 0.34375
vt 0.484375 0.171875
vt 0.53125 0.171875
vt 0.53125 0.34375
vt 0.515625 0.34375
vt 0.515625 0.171875
vt 0.6875 0.75
vt 0.859375 0.75
vt 0.859375 0.765625
vt 0.6875 0.765625
vt 0.546875 0.34375
vt 0.546875 0.171875
vt 0.5625 0.171875
vt 0.5625 0.34375
vt 0.859375 0.734375
vt 0.6875 0.734375
vt 0.6875 0.71875
vt 0.859375 0.71875
vt 0.59375 0.171875
vt 0.59375 0.34375
vt 0.578125 0.34375
vt 0.578125 0.171875
vt 0 0.296875
vt 0 0.125
vt 0.015625 0.125
vt 0.015625 0.296875
vt 0.703125 1
vt 0.703125 0.828125
vt 0.71875 0.828125
vt 0.71875 1
vt 0.03125 0.296875
vt 0.03125 0.125
vt 0.046875 0.125
vt 0.046875 0.296875
vt 0.078125 0.125
vt 0.078125 0.296875
vt 0.0625 0.296875
vt 0.0625 0.125
vt 0.859375 0.703125
vt 0.6875 0.703125
vt 0.6875 0.6875
vt 0.859375 0.6875
vt 0.09375 0.296875
vt 0.09375 0.125
vt 0.109375 0.125
vt 0.109375 0.296875
vt 0.6875 0.65625
vt 0.859375 0.65625
vt 0.859375 0.671875
vt 0.6875 0.671875
vt 0.6875 0.625
vt 0.859375 0.625
vt 0.859375 0.640625
vt 0.6875 0.640625
vt 0.6875 0.59375
vt 0.859375 0.59375
vt 0.859375 0.609375
vt 0.6875 0.609375
vt 0.703125 0.796875
vt 0.875 0.796875
vt 0.875 0.8125
vt 0.703125 0.8125
vt 0.734375 0.984375
vt 0.90625 0.984375
vt 0.90625 1
vt 0.734375 1
vt 0.90625 0.96875
vt 0.734375 0.96875
vt 0.734375 0.953125
vt 0.90625 0.953125
vt 0.90625 0.9375
vt 0.734375 0.9375
vt 0.734375 0.921875
vt 0.90625 0.921875
vt 0.90625 0.90625
vt 0.734375 0.90625
vt 0.734375 0.890625
vt 0.90625 0.890625
vt 0.90625 0.875
vt 0.734375 0.875
vt 0.734375 0.859375
vt 0.90625 0.859375
vn 1 0 0
vn -1 0 0
vn 0 1 0
vn 0 -1 0
vn 0 0 1
vn 0 0 -1
vn -1 0 0
vn 0 -1 0
vn 1 0 0
vn 0 1 0
vn -1 0 0
vn 0 -1 0
vn 1 0 0
vn 0 1 0
vn 0 1 0
vn 0 1 0
vn 0 1 0
vn 0 0 1
vn 0 -1 0
vn 0 -1 0
vn 0 -1 0
vn 0 0 -1
vn 0 1 0
vn 0 1 0
vn 0 1 0
vn 0 0 1
vn 0 -1 0
vn 0 -1 0
vn 0 -1 0
vn 0 0 -1
vn -1 0 0
vn -1 0 0
vn -1 0 0
vn 0 0 1
vn 0 0 1
vn 0 0 1
vn 1 0 0
vn 1 0 0
vn 1 0 0
vn 0 0 -1
vn 0 0 -1
vn 0 0 -1
vn -1 0 0
vn -1 0 0
vn -1 0 0
vn 0 0 1
vn 0 0 1
vn 0 0 1
vn 1 0 0
vn 1 0 0
vn 1 0 0
vn 0 0 -1
vn 0 0 -1
vn 0 0 -1
vn 0 0 1
vn 0 1 0
vn 0 0 -1
vn 0 -1 0
vn -1 0 0
vn 0 1 0
vn 1 0 0
vn 0 -1 0
vn 0 0 -1
vn 0 1 0
vn 0 0 1
vn 0 -1 0
vn 1 0 0
vn 0 1 0
vn -1 0 0
vn 0 -1 0
vn 0 0 -1
vn -1 0 0
vn 0 0 1
vn 1 0 0
vn 0 0 1
vn -1 0 0
vn 0 0 -1
vn 1 0 0
usemtl m_b6958372-c213-90c0-f43e-7f08aed68749
f 4/1/1 54/2/1 53/3/1 11/4/1
f 10/5/2 46/6/2 45/7/2 8/8/2
f 9/9/3 18/10/3 17/11/3 6/12/3
f 8/13/4 24/14/4 23/15/4 10/16/4
f 21/17/5 49/18/5 48/19/5 7/20/5
f 8/21/6 45/22/6 56/23/6 24/24/6
f 14/25/7 47/26/7 46/27/7 10/28/7
f 10/29/8 23/30/8 22/31/8 14/32/8
f 11/33/9 53/34/9 52/35/9 15/36/9
f 13/37/10 19/38/10 18/39/10 9/40/10
f 7/41/11 48/42/11 47/43/11 14/44/11
f 14/45/12 22/46/12 21/47/12 7/48/12
f 15/49/13 52/50/13 51/51/13 3/52/13
f 5/53/14 20/54/14 19/55/14 13/56/14
f 18/57/15 26/58/15 25/59/15 17/60/15
f 73/61/16 75/62/16 74/63/16 76/64/16
f 20/65/17 28/66/17 27/67/17 19/68/17
f 29/69/18 50/70/18 49/71/18 21/72/18
f 22/73/19 30/74/19 29/75/19 21/76/19
f 77/77/20 79/78/20 78/79/20 80/80/20
f 24/81/21 32/82/21 31/83/21 23/84/21
f 24/85/22 56/86/22 55/87/22 32/88/22
f 2/89/23 25/90/23 26/91/23 12/92/23
f 12/93/24 26/94/24 27/95/24 16/96/24
f 16/97/25 27/98/25 28/99/25 1/100/25
f 3/101/26 51/102/26 50/103/26 29/104/26
f 3/105/27 29/106/27 30/107/27 15/108/27
f 15/109/28 30/110/28 31/111/28 11/112/28
f 11/113/29 31/114/29 32/115/29 4/116/29
f 32/117/30 55/118/30 54/119/30 4/120/30
f 6/121/31 33/122/31 34/123/31 9/124/31
f 9/125/32 34/126/32 35/127/32 13/128/32
f 13/129/33 35/130/33 36/131/33 5/132/33
f 5/133/34 36/134/34 37/135/34 20/136/34
f 20/137/35 37/138/35 38/139/35 28/140/35
f 28/141/36 38/142/36 39/143/36 1/144/36
f 1/145/37 39/146/37 40/147/37 16/148/37
f 16/149/38 40/150/38 41/151/38 12/152/38
f 12/153/39 41/154/39 42/155/39 2/156/39
f 2/157/40 42/158/40 43/159/40 25/160/40
f 25/161/41 43/162/41 44/163/41 17/164/41
f 17/165/42 44/166/42 33/167/42 6/168/42
f 33/169/43 45/170/43 46/171/43 34/172/43
f 57/173/44 58/174/44 59/175/44 60/176/44
f 35/177/45 47/178/45 48/179/45 36/180/45
f 36/181/46 48/182/46 49/183/46 37/184/46
f 69/185/47 70/186/47 71/187/47 72/188/47
f 38/189/48 50/190/48 51/191/48 39/192/48
f 39/193/49 51/194/49 52/195/49 40/196/49
f 65/197/50 66/198/50 67/199/50 68/200/50
f 41/201/51 53/202/51 54/203/51 42/204/51
f 42/205/52 54/206/52 55/207/52 43/208/52
f 61/209/53 62/210/53 63/211/53 64/212/53
f 44/213/54 56/214/54 45/215/54 33/216/54
f 58/217/55 57/218/55 34/219/55 46/220/55
f 59/221/56 58/222/56 46/223/56 47/224/56
f 60/225/57 59/226/57 47/227/57 35/228/57
f 57/229/58 60/230/58 35/231/58 34/232/58
f 62/233/59 61/234/59 43/235/59 55/236/59
f 63/237/60 62/238/60 55/239/60 56/240/60
f 64/241/61 63/242/61 56/243/61 44/244/61
f 61/245/62 64/246/62 44/247/62 43/248/62
f 66/249/63 65/250/63 40/251/63 52/252/63
f 67/253/64 66/254/64 52/255/64 53/256/64
f 68/257/65 67/258/65 53/259/65 41/260/65
f 65/261/66 68/262/66 41/263/66 40/264/66
f 70/265/67 69/266/67 37/267/67 49/268/67
f 71/269/68 70/270/68 49/271/68 50/272/68
f 72/273/69 71/274/69 50/275/69 38/276/69
f 69/277/70 72/278/70 38/279/70 37/280/70
f 75/281/71 73/282/71 19/283/71 27/284/71
f 74/285/72 75/286/72 27/287/72 26/288/72
f 76/289/73 74/290/73 26/291/73 18/292/73
f 73/293/74 76/294/74 18/295/74 19/296/74
f 79/297/75 77/298/75 23/299/75 31/300/75
f 78/301/76 79/302/76 31/303/76 30/304/76
f 80/305/77 78/306/77 30/307/77 22/308/77
f 77/309/78 80/310/78 22/311/78 23/312/78