# Made in Blockbench 4.12.5
mtllib crate_b.mtl

o cuboid
v 0.875 1.5 0.4375
v 0.875 1.5 -0.4375
v 0.875 0 0.4375
v 0.875 0 -0.4375
v 0.875 1.5 -0.34375
v 0.875 0 -0.34375
v 0.875 1.5 0.34375
v 0.875 0 0.34375
v 0.78125 1.5 -0.4375
v 0.78125 1.5 -0.34375
v 0.78125 1.5 0.34375
v 0.78125 1.5 0.4375
v 0.78125 0 0.4375
v 0.78125 0 0.34375
v 0.78125 0 -0.34375
v 0.78125 0 -0.4375
v 0.875 1.40625 -0.4375
v 0.875 1.40625 -0.34375
v 0.875 1.40625 0.34375
v 0.875 1.40625 0.4375
v 0.78125 1.40625 0.4375
v 0.78125 1.40625 -0.4375
v 0.875 0.09375 -0.4375
v 0.875 0.09375 -0.34375
v 0.875 0.09375 0.34375
v 0.875 0.09375 0.4375
v 0.78125 0.09375 0.4375
v 0.78125 0.09375 -0.4375
v 0.8125 1.40625 -0.34375
v 0.8125 0.09375 -0.34375
v 0.8125 0.09375 0.34375
v 0.8125 1.40625 0.34375
v 0.78125 0.09375 -0.375
v 0.78125 1.40625 -0.375
v 0.78125 1.40625 0.375
v 0.78125 0.09375 0.375
v 0.78125 1.4375 0.34375
v 0.78125 1.4375 -0.34375
v 0.78125 0.0625 -0.34375
v 0.78125 0.0625 0.34375
v -0.875 1.5 0.4375
v -0.875 1.5 -0.4375
v -0.875 0 0.4375
v -0.875 0 -0.4375
v -0.875 1.5 -0.34375
v -0.875 0 -0.34375
v -0.875 1.5 0.34375
v -0.875 0 0.34375
v -0.78125 1.5 -0.4375
v -0.78125 1.5 -0.34375
v -0.78125 1.5 0.34375
v -0.78125 1.5 0.4375
v -0.78125 0 0.4375
v -0.78125 0 0.34375
v -0.78125 0 -0.34375
v -0.78125 0 -0.4375
v -0.875 1.40625 -0.4375
v -0.875 1.40625 -0.34375
v -0.875 1.40625 0.34375
v -0.875 1.40625 0.4375
v -0.78125 1.40625 0.4375
v -0.78125 1.40625 -0.4375
v -0.875 0.09375 -0.4375
v -0.875 0.09375 -0.34375
v -0.875 0.09375 0.34375
v -0.875 0.09375 0.4375
v -0.78125 0.09375 0.4375
v -0.78125 0.09375 -0.4375
v -0.8125 1.40625 -0.34375
v -0.8125 0.09375 -0.34375
v -0.8125 0.09375 0.34375
v -0.8125 1.40625 0.34375
v -0.78125 0.09375 -0.375
v -0.78125 1.40625 -0.375
v -0.78125 1.40625 0.375
v -0.78125 0.09375 0.375
v -0.78125 1.4375 0.34375
v -0.78125 1.4375 -0.34375
v -0.78125 0.0625 -0.34375
v -0.78125 0.0625 0.34375
vt 0.23828125 0.64453125
vt 0.43359375 0.64453125
vt 0.43359375 0.65625
vt 0.23828125 0.65625
vt 0.453125 0.5234375
vt 0.6484375 0.5234375
vt 0.6484375 0.609375
vt 0.453125 0.609375
vt 0.23828125 0.546875
vt 0.43359375 0.546875
vt 0.43359375 0.55859375
vt 0.23828125 0.55859375
vt 0.20703125 0.8125
vt 0.20703125 0.82421875
vt 0.01171875 0.82421875
vt 0.01171875 0.8125
vt 0.01171875 0.59765625
vt 0.20703125 0.59765625
vt 0.20703125 0.609375
vt 0.01171875 0.609375
vt 0.2265625 0.453125
vt 0.421875 0.453125
vt 0.421875 0.5390625
vt 0.2265625 0.5390625
vt 0.01171875 0.5
vt 0.20703125 0.5
vt 0.20703125 0.51171875
vt 0.01171875 0.51171875
vt 0.20703125 0.6171875
vt 0.20703125 0.62890625
vt 0.01171875 0.62890625
vt 0.01171875 0.6171875
vt 0.01171875 1
vt 0.01171875 0.98828125
vt 0.20703125 0.98828125
vt 0.20703125 1
vt 0.01171875 0.8046875
vt 0.01171875 0.79296875
vt 0.20703125 0.79296875
vt 0.20703125 0.8046875
vt 0.2265625 1
vt 0.2265625 0.8359375
vt 0.421875 0.8359375
vt 0.421875 1
vt 0.2265625 0.828125
vt 0.2265625 0.6640625
vt 0.421875 0.6640625
vt 0.421875 0.828125
vt 0.5234375 0.5078125
vt 0.71875 0.5078125
vt 0.71875 0.515625
vt 0.5234375 0.515625
vt 0.71875 0.5
vt 0.5234375 0.5
vt 0.5234375 0.4921875
vt 0.71875 0.4921875
vt 0.71875 0.484375
vt 0.5234375 0.484375
vt 0.5234375 0.4765625
vt 0.71875 0.4765625
vt 0.5234375 0.4609375
vt 0.71875 0.4609375
vt 0.71875 0.46875
vt 0.5234375 0.46875
vt 0.546875 0.9921875
vt 0.7421875 0.9921875
vt 0.7421875 1
vt 0.546875 1
vt 0.546875 0.9765625
vt 0.7421875 0.9765625
vt 0.7421875 0.984375
vt 0.546875 0.984375
vt 0.7421875 0.96875
vt 0.546875 0.96875
vt 0.546875 0.9609375
vt 0.7421875 0.9609375
vt 0.7421875 0.953125
vt 0.546875 0.953125
vt 0.546875 0.9453125
vt 0.7421875 0.9453125
vt 0.5390625 0.82421875
vt 0.52734375 0.82421875
vt 0.52734375 0.8125
vt 0.5390625 0.8125
vt 0.43359375 0.65625
vt 0.43359375 0.64453125
vt 0.4453125 0.64453125
vt 0.4453125 0.65625
vt 0.20703125 0.51171875
vt 0.20703125 0.5
vt 0.21875 0.5
vt 0.21875 0.51171875
vt 0.21875 0.82421875
vt 0.20703125 0.82421875
vt 0.20703125 0.8125
vt 0.21875 0.8125
vt 0.01171875 0.62890625
vt 0 0.62890625
vt 0 0.6171875
vt 0.01171875 0.6171875
vt 0.52734375 0.82421875
vt 0.44140625 0.82421875
vt 0.44140625 0.8125
vt 0.52734375 0.8125
vt 0.20703125 0.59765625
vt 0.20703125 0.51171875
vt 0.21875 0.51171875
vt 0.21875 0.59765625
vt 0.43359375 0.64453125
vt 0.43359375 0.55859375
vt 0.4453125 0.55859375
vt 0.4453125 0.64453125
vt 0.44140625 0.82421875
vt 0.4296875 0.82421875
vt 0.4296875 0.8125
vt 0.44140625 0.8125
vt 0.20703125 0.609375
vt 0.20703125 0.59765625
vt 0.21875 0.59765625
vt 0.21875 0.609375
vt 0.43359375 0.55859375
vt 0.43359375 0.546875
vt 0.4453125 0.546875
vt 0.4453125 0.55859375
vt 0.52734375 0.98828125
vt 0.5390625 0.98828125
vt 0.5390625 1
vt 0.52734375 1
vt 0.44140625 0.98828125
vt 0.52734375 0.98828125
vt 0.52734375 1
vt 0.44140625 1
vt 0.4296875 0.98828125
vt 0.44140625 0.98828125
vt 0.44140625 1
vt 0.4296875 1
vt 0.20703125 0.98828125
vt 0.21875 0.98828125
vt 0.21875 1
vt 0.20703125 1
vt 0 0.79296875
vt 0.01171875 0.79296875
vt 0.01171875 0.8046875
vt 0 0.8046875
vt 0.52734375 0.82421875
vt 0.5390625 0.82421875
vt 0.5390625 0.98828125
vt 0.52734375 0.98828125
vt 0.4296875 0.3515625
vt 0.515625 0.3515625
vt 0.515625 0.515625
vt 0.4296875 0.515625
vt 0.4296875 0.82421875
vt 0.44140625 0.82421875
vt 0.44140625 0.98828125
vt 0.4296875 0.98828125
vt 0.20703125 0.82421875
vt 0.21875 0.82421875
vt 0.21875 0.98828125
vt 0.20703125 0.98828125
vt 0 0.62890625
vt 0.01171875 0.62890625
vt 0.01171875 0.79296875
vt 0 0.79296875
vt 0.1015625 0.4921875
vt 0.09375 0.4921875
vt 0.09375 0.328125
vt 0.1015625 0.328125
vt 0.03125 0.9765625
vt 0.0234375 0.9765625
vt 0.0234375 0.890625
vt 0.03125 0.890625
vt 0.109375 0.328125
vt 0.1171875 0.328125
vt 0.1171875 0.4921875
vt 0.109375 0.4921875
vt 0.046875 0.9765625
vt 0.0390625 0.9765625
vt 0.0390625 0.890625
vt 0.046875 0.890625
vt 0.125 0.328125
vt 0.1328125 0.328125
vt 0.1328125 0.4921875
vt 0.125 0.4921875
vt 0.1484375 0.4921875
vt 0.140625 0.4921875
vt 0.140625 0.328125
vt 0.1484375 0.328125
vt 0.0546875 0.9765625
vt 0.0546875 0.96875
vt 0.140625 0.96875
vt 0.140625 0.9765625
vt 0.140625 0.953125
vt 0.140625 0.9609375
vt 0.0546875 0.9609375
vt 0.0546875 0.953125
vt 0.46484375 0.6171875
vt 0.46484375 0.62890625
vt 0.453125 0.62890625
vt 0.453125 0.6171875
vt 0.2265625 0.64453125
vt 0.23828125 0.64453125
vt 0.23828125 0.65625
vt 0.2265625 0.65625
vt 0 0.5
vt 0.01171875 0.5
vt 0.01171875 0.51171875
vt 0 0.51171875
vt 0.01171875 0.8125
vt 0.01171875 0.82421875
vt 0 0.82421875
vt 0 0.8125
vt 0.21875 0.6171875
vt 0.21875 0.62890625
vt 0.20703125 0.62890625
vt 0.20703125 0.6171875
vt 0.55078125 0.6171875
vt 0.55078125 0.62890625
vt 0.46484375 0.62890625
vt 0.46484375 0.6171875
vt 0 0.51171875
vt 0.01171875 0.51171875
vt 0.01171875 0.59765625
vt 0 0.59765625
vt 0.2265625 0.55859375
vt 0.23828125 0.55859375
vt 0.23828125 0.64453125
vt 0.2265625 0.64453125
vt 0.5625 0.6171875
vt 0.5625 0.62890625
vt 0.55078125 0.62890625
vt 0.55078125 0.6171875
vt 0 0.59765625
vt 0.01171875 0.59765625
vt 0.01171875 0.609375
vt 0 0.609375
vt 0.2265625 0.546875
vt 0.23828125 0.546875
vt 0.23828125 0.55859375
vt 0.2265625 0.55859375
vt 0.453125 0.8046875
vt 0.453125 0.79296875
vt 0.46484375 0.79296875
vt 0.46484375 0.8046875
vt 0.46484375 0.8046875
vt 0.46484375 0.79296875
vt 0.55078125 0.79296875
vt 0.55078125 0.8046875
vt 0.55078125 0.8046875
vt 0.55078125 0.79296875
vt 0.5625 0.79296875
vt 0.5625 0.8046875
vt 0 1
vt 0 0.98828125
vt 0.01171875 0.98828125
vt 0.01171875 1
vt 0.20703125 0.8046875
vt 0.20703125 0.79296875
vt 0.21875 0.79296875
vt 0.21875 0.8046875
vt 0.453125 0.79296875
vt 0.453125 0.62890625
vt 0.46484375 0.62890625
vt 0.46484375 0.79296875
vt 0 0.4921875
vt 0 0.328125
vt 0.0859375 0.328125
vt 0.0859375 0.4921875
vt 0.55078125 0.79296875
vt 0.55078125 0.62890625
vt 0.5625 0.62890625
vt 0.5625 0.79296875
vt 0 0.98828125
vt 0 0.82421875
vt 0.01171875 0.82421875
vt 0.01171875 0.98828125
vt 0.20703125 0.79296875
vt 0.20703125 0.62890625
vt 0.21875 0.62890625
vt 0.21875 0.79296875
vt 0.1640625 0.328125
vt 0.1640625 0.4921875
vt 0.15625 0.4921875
vt 0.15625 0.328125
vt 0.0625 0.859375
vt 0.0625 0.9453125
vt 0.0546875 0.9453125
vt 0.0546875 0.859375
vt 0.171875 0.4921875
vt 0.171875 0.328125
vt 0.1796875 0.328125
vt 0.1796875 0.4921875
vt 0.078125 0.859375
vt 0.078125 0.9453125
vt 0.0703125 0.9453125
vt 0.0703125 0.859375
vt 0.1875 0.4921875
vt 0.1875 0.328125
vt 0.1953125 0.328125
vt 0.1953125 0.4921875
vt 0.2109375 0.328125
vt 0.2109375 0.4921875
vt 0.203125 0.4921875
vt 0.203125 0.328125
vt 0.0859375 0.9375
vt 0.171875 0.9375
vt 0.171875 0.9453125
vt 0.0859375 0.9453125
vt 0.171875 0.9296875
vt 0.0859375 0.9296875
vt 0.0859375 0.921875
vt 0.171875 0.921875
vn 0 1 0
vn 0 1 0
vn 0 1 0
vn 0 0 1
vn 0 -1 0
vn 0 -1 0
vn 0 -1 0
vn 0 0 -1
vn 0 0 1
vn 0 0 -1
vn 0 0 1
vn 0 0 -1
vn 0 1 0
vn 0 -1 0
vn 0 1 0
vn 0 -1 0
vn 0 0 -1
vn 0 0 1
vn 0 0 1
vn 0 0 -1
vn 1 0 0
vn 0 1 0
vn 0 -1 0
vn 0 0 1
vn 0 0 -1
vn 1 0 0
vn 0 -1 0
vn 0 1 0
vn 1 0 0
vn 0 -1 0
vn 0 1 0
vn 1 0 0
vn 1 0 0
vn 1 0 0
vn 0 0 1
vn 0 0 -1
vn 1 0 0
vn 1 0 0
vn 1 0 0
vn 0 0 1
vn 0 0 -1
vn 0 0 1
vn 0 1 0
vn 0 0 -1
vn 0 -1 0
vn -1 0 0
vn -1 0 0
vn -1 0 0
vn -1 0 0
vn -1 0 0
vn 0 1 0
vn 0 -1 0
vn 0 0 1
vn 0 0 -1
vn -1 0 0
vn 0 -1 0
vn 0 1 0
vn -1 0 0
vn 0 -1 0
vn 0 1 0
vn -1 0 0
vn -1 0 0
vn -1 0 0
vn 0 0 1
vn 0 0 -1
vn -1 0 0
vn -1 0 0
vn -1 0 0
vn 0 0 1
vn 0 0 -1
vn 0 0 1
vn 0 1 0
vn 0 0 -1
vn 0 -1 0
vn 1 0 0
vn 1 0 0
vn 1 0 0
vn 1 0 0
usemtl m_a780ba55-1b6e-d92b-bb74-f5b235fee227
f 50/1/1 10/2/1 9/3/1 49/4/1
f 77/5/2 37/6/2 38/7/2 78/8/2
f 52/9/3 12/10/3 11/11/3 51/12/3
f 13/13/4 27/14/4 67/15/4 53/16/4
f 54/17/5 14/18/5 13/19/5 53/20/5
f 79/21/6 39/22/6 40/23/6 80/24/6
f 56/25/7 16/26/7 15/27/7 55/28/7
f 56/29/8 68/30/8 28/31/8 16/32/8
f 52/33/9 61/34/9 21/35/9 12/36/9
f 9/37/10 22/38/10 62/39/10 49/40/10
f 75/41/11 76/42/11 36/43/11 35/44/11
f 34/45/12 33/46/12 73/47/12 74/48/12
f 73/49/13 33/50/13 28/51/13 68/52/13
f 34/53/14 74/54/14 62/55/14 22/56/14
f 36/57/15 76/58/15 67/59/15 27/60/15
f 75/61/16 35/62/16 21/63/16 61/64/16
f 37/65/17 77/66/17 51/67/17 11/68/17
f 78/69/18 38/70/18 10/71/18 50/72/18
f 39/73/19 79/74/19 55/75/19 15/76/19
f 80/77/20 40/78/20 14/79/20 54/80/20
f 23/81/21 24/82/21 6/83/21 4/84/21
f 9/85/22 10/86/22 5/87/22 2/88/22
f 15/89/23 16/90/23 4/91/23 6/92/23
f 26/93/24 27/94/24 13/95/24 3/96/24
f 28/97/25 23/98/25 4/99/25 16/100/25
f 24/101/26 25/102/26 8/103/26 6/104/26
f 14/105/27 15/106/27 6/107/27 8/108/27
f 10/109/28 11/110/28 7/111/28 5/112/28
f 25/113/29 26/114/29 3/115/29 8/116/29
f 13/117/30 14/118/30 8/119/30 3/120/30
f 11/121/31 12/122/31 1/123/31 7/124/31
f 18/125/32 17/126/32 2/127/32 5/128/32
f 19/129/33 18/130/33 5/131/33 7/132/33
f 20/133/34 19/134/34 7/135/34 1/136/34
f 21/137/35 20/138/35 1/139/35 12/140/35
f 17/141/36 22/142/36 9/143/36 2/144/36
f 24/145/37 23/146/37 17/147/37 18/148/37
f 31/149/38 30/150/38 29/151/38 32/152/38
f 26/153/39 25/154/39 19/155/39 20/156/39
f 27/157/40 26/158/40 20/159/40 21/160/40
f 23/161/41 28/162/41 22/163/41 17/164/41
f 18/165/42 29/166/42 30/167/42 24/168/42
f 24/169/43 30/170/43 31/171/43 25/172/43
f 25/173/44 31/174/44 32/175/44 19/176/44
f 19/177/45 32/178/45 29/179/45 18/180/45
f 28/181/46 33/182/46 34/183/46 22/184/46
f 21/185/47 35/186/47 36/187/47 27/188/47
f 10/189/48 38/190/48 37/191/48 11/192/48
f 14/193/49 40/194/49 39/195/49 15/196/49
f 46/197/50 64/198/50 63/199/50 44/200/50
f 45/201/51 50/202/51 49/203/51 42/204/51
f 44/205/52 56/206/52 55/207/52 46/208/52
f 53/209/53 67/210/53 66/211/53 43/212/53
f 44/213/54 63/214/54 68/215/54 56/216/54
f 48/217/55 65/218/55 64/219/55 46/220/55
f 46/221/56 55/222/56 54/223/56 48/224/56
f 47/225/57 51/226/57 50/227/57 45/228/57
f 43/229/58 66/230/58 65/231/58 48/232/58
f 48/233/59 54/234/59 53/235/59 43/236/59
f 41/237/60 52/238/60 51/239/60 47/240/60
f 42/241/61 57/242/61 58/243/61 45/244/61
f 45/245/62 58/246/62 59/247/62 47/248/62
f 47/249/63 59/250/63 60/251/63 41/252/63
f 41/253/64 60/254/64 61/255/64 52/256/64
f 49/257/65 62/258/65 57/259/65 42/260/65
f 57/261/66 63/262/66 64/263/66 58/264/66
f 69/265/67 70/266/67 71/267/67 72/268/67
f 59/269/68 65/270/68 66/271/68 60/272/68
f 60/273/69 66/274/69 67/275/69 61/276/69
f 62/277/70 68/278/70 63/279/70 57/280/70
f 70/281/71 69/282/71 58/283/71 64/284/71
f 71/285/72 70/286/72 64/287/72 65/288/72
f 72/289/73 71/290/73 65/291/73 59/292/73
f 69/293/74 72/294/74 59/295/74 58/296/74
f 74/297/75 73/298/75 68/299/75 62/300/75
f 76/301/76 75/302/76 61/303/76 67/304/76
f 77/305/77 78/306/77 50/307/77 51/308/77
f 79/309/78 80/310/78 54/311/78 55/312/78