# Made in Blockbench 4.12.5
mtllib cryo_liquid_tank.mtl

o cap_b
v 0 0 0
v 0 0.5 0
v 0.31066 0 0.75
v 0.31066 0.5 0.75
v 0.75 0 0.31066
v 0.75 0.5 0.31066
v 0.75 0 -0.31066
v 0.75 0.5 -0.31066
v 0.31066 0 -0.75
v 0.31066 0.5 -0.75
v -0.31066 0 -0.75
v -0.31066 0.5 -0.75
v -0.75 0 -0.31066
v -0.75 0.5 -0.31066
v -0.75 0 0.31066
v -0.75 0.5 0.31066
v -0.31066 0 0.75
v -0.31066 0.5 0.75
vt 0.1875 0.9450828125
vt 0.1325828125 1
vt 0.09375 0.90625
vt 0.4765625 0.8671875
vt 0.5546875 0.8671875
vt 0.5546875 0.9296875
vt 0.4765625 0.9296875
vt 0.2732078125 0.6640625
vt 0.328125 0.7189796875000001
vt 0.234375 0.7578125
vt 0.1875 0.8674171875
vt 0.1875 0.9450828125
vt 0.09375 0.90625
vt 0 0.7421875
vt 0.078125 0.7421875
vt 0.078125 0.8046875
vt 0 0.8046875
vt 0.328125 0.7189796875000001
vt 0.328125 0.7966453125
vt 0.234375 0.7578125
vt 0.1325828125 0.8125
vt 0.1875 0.8674171875
vt 0.09375 0.90625
vt 0.484375 0.5625
vt 0.5625 0.5625
vt 0.5625 0.625
vt 0.484375 0.625
vt 0.328125 0.7966453125
vt 0.2732078125 0.8515625
vt 0.234375 0.7578125
vt 0.0549171875 0.8125
vt 0.1325828125 0.8125
vt 0.09375 0.90625
vt 0.4765625 0.9375
vt 0.5546875 0.9375
vt 0.5546875 1
vt 0.4765625 1
vt 0.2732078125 0.8515625
vt 0.1955421875 0.8515625
vt 0.234375 0.7578125
vt 0 0.8674171875
vt 0.0549171875 0.8125
vt 0.09375 0.90625
vt 0.484375 0.4921875
vt 0.5625 0.4921875
vt 0.5625 0.5546875
vt 0.484375 0.5546875
vt 0.1955421875 0.8515625
vt 0.140625 0.7966453125
vt 0.234375 0.7578125
vt 0 0.9450828125
vt 0 0.8674171875
vt 0.09375 0.90625
vt 0.1328125 0.484375
vt 0.2109375 0.484375
vt 0.2109375 0.546875
vt 0.1328125 0.546875
vt 0.140625 0.7966453125
vt 0.140625 0.7189796875000001
vt 0.234375 0.7578125
vt 0.0549171875 1
vt 0 0.9450828125
vt 0.09375 0.90625
vt 0.484375 0.6328125
vt 0.5625 0.6328125
vt 0.5625 0.6953125
vt 0.484375 0.6953125
vt 0.140625 0.7189796875000001
vt 0.1955421875 0.6640625
vt 0.234375 0.7578125
vt 0.1325828125 1
vt 0.0549171875 1
vt 0.09375 0.90625
vt 0 0.4765625
vt 0.078125 0.4765625
vt 0.078125 0.5390625
vt 0 0.5390625
vt 0.1955421875 0.6640625
vt 0.2732078125 0.6640625
vt 0.234375 0.7578125
vn 0 -1 0
vn 0.7071067811865476 0 0.7071067811865476
vn 0 1 0
vn 0 -1 0
vn 1 0 0
vn 0 1 0
vn 0 -1 0
vn 0.7071067811865476 0 -0.7071067811865476
vn 0 1 0
vn 0 -1 0
vn 0 0 -1
vn 0 1 0
vn 0 -1 0
vn -0.7071067811865476 0 -0.7071067811865476
vn 0 1 0
vn 0 -1 0
vn -1 0 0
vn 0 1 0
vn 0 -1 0
vn -0.7071067811865476 0 0.7071067811865476
vn 0 1 0
vn 0 -1 0
vn 0 0 1
vn 0 1 0
usemtl m_40eb375a-2907-3e87-dfdd-2f70cf5d69f0
f 5/1/1 3/2/1 1/3/1
f 3/4/2 5/5/2 6/6/2 4/7/2
f 4/8/3 6/9/3 2/10/3
f 7/11/4 5/12/4 1/13/4
f 5/14/5 7/15/5 8/16/5 6/17/5
f 6/18/6 8/19/6 2/20/6
f 9/21/7 7/22/7 1/23/7
f 7/24/8 9/25/8 10/26/8 8/27/8
f 8/28/9 10/29/9 2/30/9
f 11/31/10 9/32/10 1/33/10
f 9/34/11 11/35/11 12/36/11 10/37/11
f 10/38/12 12/39/12 2/40/12
f 13/41/13 11/42/13 1/43/13
f 11/44/14 13/45/14 14/46/14 12/47/14
f 12/48/15 14/49/15 2/50/15
f 15/51/16 13/52/16 1/53/16
f 13/54/17 15/55/17 16/56/17 14/57/17
f 14/58/18 16/59/18 2/60/18
f 17/61/19 15/62/19 1/63/19
f 15/64/20 17/65/20 18/66/20 16/67/20
f 16/68/21 18/69/21 2/70/21
f 3/71/22 17/72/22 1/73/22
f 17/74/23 3/75/23 4/76/23 18/77/23
f 18/78/24 4/79/24 2/80/24
o body
v 0.284771875 0.5 0.6875
v 0.284771875 1 0.6875
v 0.6875 0.5 0.284771875
v 0.6875 1 0.284771875
v 0.6875 0.5 -0.284771875
v 0.6875 1 -0.284771875
v 0.284771875 0.5 -0.6875
v 0.284771875 1 -0.6875
v -0.284771875 0.5 -0.6875
v -0.284771875 1 -0.6875
v -0.6875 0.5 -0.284771875
v -0.6875 1 -0.284771875
v -0.6875 0.5 0.284771875
v -0.6875 1 0.284771875
v -0.284771875 0.5 0.6875
v -0.284771875 1 0.6875
vt 0.1640625 0.4140625
vt 0.234375 0.4140625
vt 0.234375 0.4765625
vt 0.1640625 0.4765625
vt 0.5078125 0.796875
vt 0.578125 0.796875
vt 0.578125 0.859375
vt 0.5078125 0.859375
vt 0.3515625 0.4140625
vt 0.421875 0.4140625
vt 0.421875 0.4765625
vt 0.3515625 0.4765625
vt 0.5078125 0.7265625
vt 0.578125 0.7265625
vt 0.578125 0.7890625
vt 0.5078125 0.7890625
vt 0.2421875 0.40625
vt 0.3125 0.40625
vt 0.3125 0.46875
vt 0.2421875 0.46875
vt 0.0859375 0.4140625
vt 0.15625 0.4140625
vt 0.15625 0.4765625
vt 0.0859375 0.4765625
vt 0 0.40625
vt 0.0703125 0.40625
vt 0.0703125 0.46875
vt 0 0.46875
vt 0.484375 0.421875
vt 0.5546875 0.421875
vt 0.5546875 0.484375
vt 0.484375 0.484375
vn 0.7071067811865476 0 0.7071067811865476
vn 1 0 0
vn 0.7071067811865476 0 -0.7071067811865476
vn 0 0 -1
vn -0.7071067811865476 0 -0.7071067811865476
vn -1 0 0
vn -0.7071067811865476 0 0.7071067811865476
vn 0 0 1
usemtl m_40eb375a-2907-3e87-dfdd-2f70cf5d69f0
f 19/81/25 21/82/25 22/83/25 20/84/25
f 21/85/26 23/86/26 24/87/26 22/88/26
f 23/89/27 25/90/27 26/91/27 24/92/27
f 25/93/28 27/94/28 28/95/28 26/96/28
f 27/97/29 29/98/29 30/99/29 28/100/29
f 29/101/30 31/102/30 32/103/30 30/104/30
f 31/105/31 33/106/31 34/107/31 32/108/31
f 33/109/32 19/110/32 20/111/32 34/112/32
o cap_t
v 0 1 0
v 0.31066 1 0.75
v 0.31066 1.5 0.75
v 0.75 1 0.31066
v 0.75 1.5 0.31066
v 0.75 1 -0.31066
v 0.75 1.5 -0.31066
v 0.31066 1 -0.75
v 0.31066 1.5 -0.75
v -0.31066 1 -0.75
v -0.31066 1.5 -0.75
v -0.75 1 -0.31066
v -0.75 1.5 -0.31066
v -0.75 1 0.31066
v -0.75 1.5 0.31066
v -0.31066 1 0.75
v -0.31066 1.5 0.75
v -0.25888375 1.75 0.625
v 0.25888375 1.75 0.625
v -0.625 1.75 0.25888375
v -0.625 1.75 -0.25888375
v -0.25888375 1.75 -0.625
v 0.25888375 1.75 -0.625
v 0.625 1.75 -0.25888375
v 0.625 1.75 0.25888375
v 0 1.9375 0
vt 0.46875 0.9450828125
vt 0.4138328125 1
vt 0.375 0.90625
vt 0.398896875 0.59787421875
vt 0.4765625 0.59787421875
vt 0.4765625 0.66037421875
vt 0.398896875 0.66037421875
vt 0.46875 0.8674171875
vt 0.46875 0.9450828125
vt 0.375 0.90625
vt 0.1955421875 0.90256171875
vt 0.2732078125 0.90256171875
vt 0.2732078125 0.96506171875
vt 0.1955421875 0.96506171875
vt 0.4138328125 0.8125
vt 0.46875 0.8674171875
vt 0.375 0.90625
vt 0.421875 0.70724921875
vt 0.499540625 0.70724921875
vt 0.499540625 0.76974921875
vt 0.421875 0.76974921875
vt 0.3361671875 0.8125
vt 0.4138328125 0.8125
vt 0.375 0.90625
vt 0.1799171875 0.55881171875
vt 0.2575828125 0.55881171875
vt 0.2575828125 0.62131171875
vt 0.1799171875 0.62131171875
vt 0.28125 0.8674171875
vt 0.3361671875 0.8125
vt 0.375 0.90625
vt 0.266084375 0.48068671875
vt 0.34375 0.48068671875
vt 0.34375 0.54318671875
vt 0.266084375 0.54318671875
vt 0.28125 0.9450828125
vt 0.28125 0.8674171875
vt 0.375 0.90625
vt 0.3127296875 0.59006171875
vt 0.3903953125 0.59006171875
vt 0.3903953125 0.65256171875
vt 0.3127296875 0.65256171875
vt 0.3361671875 1
vt 0.28125 0.9450828125
vt 0.375 0.90625
vt 0.3984375 0.48849921875
vt 0.476103125 0.48849921875
vt 0.476103125 0.55099921875
vt 0.3984375 0.55099921875
vt 0.4138328125 1
vt 0.3361671875 1
vt 0.375 0.90625
vt 0.3361671875 0.70724921875
vt 0.4138328125 0.70724921875
vt 0.4138328125 0.76974921875
vt 0.3361671875 0.76974921875
vt 0.40736015625 0.8046875
vt 0.34263984375 0.8046875
vt 0.3361671875 0.76974921875
vt 0.4138328125 0.76974921875
vt 0.46963046875 0.5859375
vt 0.40491015625 0.5859375
vt 0.3984375 0.55099921875
vt 0.476103125 0.55099921875
vt 0.38392265625 0.6875
vt 0.31920234375 0.6875
vt 0.3127296875 0.65256171875
vt 0.3903953125 0.65256171875
vt 0.33727734375 0.578125
vt 0.27255703125 0.578125
vt 0.266084375 0.54318671875
vt 0.34375 0.54318671875
vt 0.25111015625 0.65625
vt 0.18638984375 0.65625
vt 0.1799171875 0.62131171875
vt 0.2575828125 0.62131171875
vt 0.49306796875 0.8046875
vt 0.42834765625 0.8046875
vt 0.421875 0.76974921875
vt 0.499540625 0.76974921875
vt 0.26673515625 1
vt 0.20201484375 1
vt 0.1955421875 0.96506171875
vt 0.2732078125 0.96506171875
vt 0.47008984375 0.6953125
vt 0.40536953125 0.6953125
vt 0.398896875 0.66037421875
vt 0.4765625 0.66037421875
vt 0.078125 0.632620546875
vt 0.04576453125 0.55449546875
vt 0.11048546875 0.55449546875
vt 0.078125 0.632620546875
vt 0 0.600260078125
vt 0.04576453125 0.55449546875
vt 0.078125 0.632620546875
vt 0 0.6649809375
vt 0 0.600260078125
vt 0.078125 0.632620546875
vt 0.04576453125 0.71074546875
vt 0 0.6649809375
vt 0.078125 0.632620546875
vt 0.11048546875 0.71074546875
vt 0.04576453125 0.71074546875
vt 0.078125 0.632620546875
vt 0.15625 0.6649809375
vt 0.11048546875 0.71074546875
vt 0.078125 0.632620546875
vt 0.15625 0.600260078125
vt 0.15625 0.6649809375
vt 0.078125 0.632620546875
vt 0.11048546875 0.55449546875
vt 0.15625 0.600260078125
vn 0 -1 0
vn 0.7071067811865476 0 0.7071067811865476
vn 0 -1 0
vn 1 0 0
vn 0 -1 0
vn 0.7071067811865476 0 -0.7071067811865476
vn 0 -1 0
vn 0 0 -1
vn 0 -1 0
vn -0.7071067811865476 0 -0.7071067811865476
vn 0 -1 0
vn -1 0 0
vn 0 -1 0
vn -0.7071067811865476 0 0.7071067811865476
vn 0 -1 0
vn 0 0 1
vn 0 0.447213595499958 0.894427190999916
vn -0.6324558506618515 0.4472126942822484 0.6324558506618515
vn -0.894427190999916 0.447213595499958 0
vn -0.6324558506618515 0.4472126942822484 -0.6324558506618515
vn 0 0.447213595499958 -0.894427190999916
vn 0.6324558506618515 0.4472126942822484 -0.6324558506618515
vn 0.894427190999916 0.447213595499958 0
vn 0.6324558506618515 0.4472126942822484 0.6324558506618515
vn 0 0.9578262852211514 0.2873478855663454
vn -0.2031855807595736 0.9578263096943986 0.2031855807595736
vn -0.2873478855663454 0.9578262852211514 0
vn -0.2031855807595736 0.9578263096943986 -0.2031855807595736
vn 0 0.9578262852211514 -0.2873478855663454
vn 0.2031855807595736 0.9578263096943986 -0.2031855807595736
vn 0.2873478855663454 0.9578262852211514 0
vn 0.2031855807595736 0.9578263096943986 0.2031855807595736
usemtl m_40eb375a-2907-3e87-dfdd-2f70cf5d69f0
f 38/113/33 36/114/33 35/115/33
f 36/116/34 38/117/34 39/118/34 37/119/34
f 40/120/35 38/121/35 35/122/35
f 38/123/36 40/124/36 41/125/36 39/126/36
f 42/127/37 40/128/37 35/129/37
f 40/130/38 42/131/38 43/132/38 41/133/38
f 44/134/39 42/135/39 35/136/39
f 42/137/40 44/138/40 45/139/40 43/140/40
f 46/141/41 44/142/41 35/143/41
f 44/144/42 46/145/42 47/146/42 45/147/42
f 48/148/43 46/149/43 35/150/43
f 46/151/44 48/152/44 49/153/44 47/154/44
f 50/155/45 48/156/45 35/157/45
f 48/158/46 50/159/46 51/160/46 49/161/46
f 36/162/47 50/163/47 35/164/47
f 50/165/48 36/166/48 37/167/48 51/168/48
f 53/169/49 52/170/49 51/171/49 37/172/49
f 52/173/50 54/174/50 49/175/50 51/176/50
f 54/177/51 55/178/51 47/179/51 49/180/51
f 55/181/52 56/182/52 45/183/52 47/184/52
f 56/185/53 57/186/53 43/187/53 45/188/53
f 57/189/54 58/190/54 41/191/54 43/192/54
f 58/193/55 59/194/55 39/195/55 41/196/55
f 59/197/56 53/198/56 37/199/56 39/200/56
f 60/201/57 52/202/57 53/203/57
f 60/204/58 54/205/58 52/206/58
f 60/207/59 55/208/59 54/209/59
f 60/210/60 56/211/60 55/212/60
f 60/213/61 57/214/61 56/215/61
f 60/216/62 58/217/62 57/218/62
f 60/219/63 59/220/63 58/221/63
f 60/222/64 53/223/64 59/224/64
o side_frame
v -0.6875 0.5 -0.159771875
v -0.6875 0.5 0.159771875
v -0.6875 1 0.159771875
v -0.6875 1 -0.159771875
v -0.75 0.5 -0.159771875
v -0.75 0.5 0.159771875
v -0.75 1 0.159771875
v -0.75 1 -0.159771875
vt 0.265625 0.59375
vt 0.3046875 0.59375
vt 0.3046875 0.65625
vt 0.265625 0.65625
vt 0 0.734375
vt 0 0.6953125
vt 0.0078125 0.6953125
vt 0.0078125 0.734375
vt 0.4609375 0.4765625
vt 0.4609375 0.4140625
vt 0.46875 0.4140625
vt 0.46875 0.4765625
vt 0.0859375 0.5390625
vt 0.0859375 0.5
vt 0.09375 0.5
vt 0.09375 0.5390625
vt 0.328125 0.40625
vt 0.328125 0.46875
vt 0.3203125 0.46875
vt 0.3203125 0.40625
vn -1 0 0
vn 0 -1 0
vn 0 0 1
vn 0 1 0
vn 0 0 -1
usemtl m_40eb375a-2907-3e87-dfdd-2f70cf5d69f0
f 65/225/65 66/226/65 67/227/65 68/228/65
f 66/229/66 65/230/66 61/231/66 62/232/66
f 67/233/67 66/234/67 62/235/67 63/236/67
f 68/237/68 67/238/68 63/239/68 64/240/68
f 65/241/69 68/242/69 64/243/69 61/244/69
o side_frame
v -0.159771875 0.5 0.6875
v 0.159771875 0.5 0.6875
v 0.159771875 1 0.6875
v -0.159771875 1 0.6875
v -0.159771875 0.5 0.75
v 0.159771875 0.5 0.75
v 0.159771875 1 0.75
v -0.159771875 1 0.75
vt 0.0859375 0.7421875
vt 0.125 0.7421875
vt 0.125 0.8046875
vt 0.0859375 0.8046875
vt 0.234375 0.890625
vt 0.1953125 0.890625
vt 0.1953125 0.8828125
vt 0.234375 0.8828125
vt 0.4296875 0.4765625
vt 0.4296875 0.4140625
vt 0.4375 0.4140625
vt 0.4375 0.4765625
vt 0.1953125 0.8671875
vt 0.234375 0.8671875
vt 0.234375 0.875
vt 0.1953125 0.875
vt 0.453125 0.4140625
vt 0.453125 0.4765625
vt 0.4453125 0.4765625
vt 0.4453125 0.4140625
vn 0 0 1
vn 0 -1 0
vn 1 0 0
vn 0 1 0
vn -1 0 0
usemtl m_40eb375a-2907-3e87-dfdd-2f70cf5d69f0
f 73/245/70 74/246/70 75/247/70 76/248/70
f 74/249/71 73/250/71 69/251/71 70/252/71
f 75/253/72 74/254/72 70/255/72 71/256/72
f 76/257/73 75/258/73 71/259/73 72/260/73
f 73/261/74 76/262/74 72/263/74 69/264/74
o side_frame
v 0.159771875 0.5 -0.6875
v -0.159771875 0.5 -0.6875
v -0.159771875 1 -0.6875
v 0.159771875 1 -0.6875
v 0.159771875 0.5 -0.75
v -0.159771875 0.5 -0.75
v -0.159771875 1 -0.75
v 0.159771875 1 -0.75
vt 0.21875 0.484375
vt 0.2578125 0.484375
vt 0.2578125 0.546875
vt 0.21875 0.546875
vt 0.015625 0.7265625
vt 0.0546875 0.7265625
vt 0.0546875 0.734375
vt 0.015625 0.734375
vt 0.5625 0.9296875
vt 0.5625 0.8671875
vt 0.5703125 0.8671875
vt 0.5703125 0.9296875
vt 0.1015625 0.734375
vt 0.0625 0.734375
vt 0.0625 0.7265625
vt 0.1015625 0.7265625
vt 0.5703125 0.421875
vt 0.5703125 0.484375
vt 0.5625 0.484375
vt 0.5625 0.421875
vn 0 0 -1
vn 0 -1 0
vn -1 0 0
vn 0 1 0
vn 1 0 0
usemtl m_40eb375a-2907-3e87-dfdd-2f70cf5d69f0
f 81/265/75 82/266/75 83/267/75 84/268/75
f 82/269/76 81/270/76 77/271/76 78/272/76
f 83/273/77 82/274/77 78/275/77 79/276/77
f 84/277/78 83/278/78 79/279/78 80/280/78
f 81/281/79 84/282/79 80/283/79 77/284/79
o side_frame
v 0.6875 0.5 0.159771875
v 0.6875 0.5 -0.159771875
v 0.6875 1 -0.159771875
v 0.6875 1 0.159771875
v 0.75 0.5 0.159771875
v 0.75 0.5 -0.159771875
v 0.75 1 -0.159771875
v 0.75 1 0.159771875
vt 0.3515625 0.515625
vt 0.390625 0.515625
vt 0.390625 0.578125
vt 0.3515625 0.578125
vt 0.109375 0.5
vt 0.109375 0.5390625
vt 0.1015625 0.5390625
vt 0.1015625 0.5
vt 0.3359375 0.46875
vt 0.3359375 0.40625
vt 0.34375 0.40625
vt 0.34375 0.46875
vt 0.125 0.5
vt 0.125 0.5390625
vt 0.1171875 0.5390625
vt 0.1171875 0.5
vt 0.5703125 0.9375
vt 0.5703125 1
vt 0.5625 1
vt 0.5625 0.9375
vn 1 0 0
vn 0 -1 0
vn 0 0 -1
vn 0 1 0
vn 0 0 1
usemtl m_40eb375a-2907-3e87-dfdd-2f70cf5d69f0
f 89/285/80 90/286/80 91/287/80 92/288/80
f 90/289/81 89/290/81 85/291/81 86/292/81
f 91/293/82 90/294/82 86/295/82 87/296/82
f 92/297/83 91/298/83 87/299/83 88/300/83
f 89/301/84 92/302/84 88/303/84 85/304/84