# Made in Blockbench 4.12.5
mtllib cryo_tank.mtl

o door
v -0.207106875 2.25 -0.5
v -0.207106875 0.375 -0.5
v -0.231024375 2.25 -0.5577425
v -0.231024375 0.375 -0.5577425
v -0.544194375 2 -0.25130125
v -0.5 2 -0.20710687500000002
v -0.231024375 2 -0.5577425
v -0.544194375 0.5 -0.25130125
v -0.5 0.5 -0.20710687500000002
v -0.231024375 0.5 -0.5577425
v 0.207106875 2.25 -0.5
v 0.207106875 0.375 -0.5
v 0.231024375 2.25 -0.5577425
v 0.231024375 0.375 -0.5577425
v 0.544194375 2 -0.25130125
v 0.5 2 -0.20710687500000002
v 0.231024375 2 -0.5577425
v 0.544194375 0.5 -0.25130125
v 0.5 0.5 -0.20710687500000002
v 0.231024375 0.5 -0.5577425
v -0.231024375 1.875 -0.5577425
v 0.231024375 1.875 -0.5577425
v 0.544194375 1.875 -0.25130125
v 0.5 1.875 -0.20710687500000002
v 0.207106875 1.875 -0.5
v -0.207106875 1.875 -0.5
v -0.5 1.875 -0.20710687500000002
v -0.544194375 1.875 -0.25130125
v -0.231024375 1.3125 -0.5577425
v 0.231024375 1.3125 -0.5577425
v 0.544194375 1.3125 -0.25130125
v 0.5 1.3125 -0.20710687500000002
v 0.207106875 1.3125 -0.5
v -0.207106875 1.3125 -0.5
v -0.5 1.3125 -0.20710687500000002
v -0.544194375 1.3125 -0.25130125
vt 0.558175 0.3671875
vt 0.558175 0.3828125
vt 0.50041875 0.3828125
vt 0.50041875 0.3671875
vt 0.564871875 0.7109375
vt 0.622628125 0.7109375
vt 0.61963828125 0.71815546875
vt 0.56786171875 0.71815546875
vt 0.57628734375 0.5229930468749999
vt 0.51355640625 0.5229930468749999
vt 0.51680359375 0.51545359375
vt 0.57304015625 0.51545359375
vt 0.53166875 1
vt 0.53166875 0.96875
vt 0.589425 0.96875
vt 0.589425 1
vt 0.46476171875 0.7265625
vt 0.51953125 0.7265625
vt 0.46476171875 0.7578125
vt 0.471038203125 0.48298093750000004
vt 0.477038359375 0.47721046874999995
vt 0.51680359375 0.51545359375
vt 0.51355640625 0.5229930468749999
vt 0.2578125 0.7109375
vt 0.2578125 0.6953125
vt 0.265625 0.6953125
vt 0.265625 0.7109375
vt 0.53166875 0.96875
vt 0.53166875 0.953125
vt 0.589425 0.953125
vt 0.589425 0.96875
vt 0.46476171875 0.7265625
vt 0.46476171875 0.7109375
vt 0.51953125 0.7109375
vt 0.51953125 0.7265625
vt 0.51953125 0.5390625
vt 0.46476171875 0.5390625
vt 0.46476171875 0.5234375
vt 0.5678434375 0.71811125
vt 0.529026640625 0.7557703125
vt 0.5235865625 0.750163125
vt 0.564871875 0.7109375
vt 0.4609375 0.96875
vt 0.51570703125 0.96875
vt 0.51570703125 1
vt 0.57304015625 0.51545359375
vt 0.612805390625 0.47721046874999995
vt 0.618805546875 0.48298093750000004
vt 0.57628734375 0.5229930468749999
vt 0.203125 0.4140625
vt 0.203125 0.3984375
vt 0.2109375 0.3984375
vt 0.2109375 0.4140625
vt 0.4609375 0.96875
vt 0.4609375 0.953125
vt 0.51570703125 0.953125
vt 0.51570703125 0.96875
vt 0.51570703125 0.78125
vt 0.4609375 0.78125
vt 0.51570703125 0.765625
vt 0.6639134375 0.750163125
vt 0.658473359375 0.7557703125
vt 0.6196565625 0.71811125
vt 0.622628125 0.7109375
vt 0.4609375 0.953125
vt 0.4609375 0.8828125
vt 0.51570703125 0.8828125
vt 0.51570703125 0.953125
vt 0.203125 0.3984375
vt 0.203125 0.328125
vt 0.2109375 0.328125
vt 0.2109375 0.3984375
vt 0.2578125 0.6953125
vt 0.2578125 0.625
vt 0.265625 0.625
vt 0.265625 0.6953125
vt 0.46476171875 0.7109375
vt 0.46476171875 0.640625
vt 0.51953125 0.640625
vt 0.51953125 0.7109375
vt 0.558175 0.3828125
vt 0.558175 0.484375
vt 0.50041875 0.484375
vt 0.50041875 0.3828125
vt 0.51570703125 0.78125
vt 0.51570703125 0.8828125
vt 0.4609375 0.8828125
vt 0.4609375 0.78125
vt 0.2109375 0.2265625
vt 0.2109375 0.328125
vt 0.203125 0.328125
vt 0.203125 0.2265625
vt 0.265625 0.5234375
vt 0.265625 0.625
vt 0.2578125 0.625
vt 0.2578125 0.5234375
vt 0.51953125 0.5390625
vt 0.51953125 0.640625
vt 0.46476171875 0.640625
vt 0.46476171875 0.5390625
vt 0.21924765625 0.8828125
vt 0.2222375 0.890625
vt 0.16448125 0.890625
vt 0.16747109375 0.8828125
vt 0.589425 0.5390625
vt 0.58643515625 0.546875
vt 0.53465859375 0.546875
vt 0.53166875 0.5390625
vt 0.09375 0.765625
vt 0.1015625 0.765625
vt 0.1015625 0.8359375
vt 0.09375 0.8359375
vt 0.109375 0.765625
vt 0.1171875 0.765625
vt 0.1171875 0.8359375
vt 0.109375 0.8359375
vn 0 0 -1
vn 0 -1 0
vn 0 1 0
vn 0 0 -1
vn -0.6993866232620152 0 -0.7147435562508808
vn -0.36538403533386404 0.8561477754723673 0.3653840353338645
vn -0.7071067811865471 0 0.707106781186548
vn 0 0 -1
vn -0.6993866232620152 0 -0.7147435562508808
vn -0.6993866232620152 0 -0.7147435562508808
vn -0.20428886009741593 -0.9573568421859201 0.2042888600974162
vn 0.6993866232620152 0 -0.7147435562508808
vn 0.365384035333864 0.8561477754723673 0.36538403533386443
vn 0.7071067811865471 0 0.707106781186548
vn 0.6993866232620152 0 -0.7147435562508808
vn 0.6993866232620152 0 -0.7147435562508808
vn 0.204288860097416 -0.9573568421859202 0.20428886009741626
vn 0.6993866232620152 0 -0.7147435562508808
vn 0.7071067811865471 0 0.707106781186548
vn -0.7071067811865471 0 0.707106781186548
vn -0.6993866232620152 0 -0.7147435562508808
vn 0 0 -1
vn 0.6993866232620152 0 -0.7147435562508809
vn 0.7071067811865471 0 0.7071067811865479
vn -0.7071067811865471 0 0.7071067811865479
vn -0.6993866232620152 0 -0.7147435562508809
vn 0 1 0
vn 0 -1 0
vn 0.9238808144936851 0 -0.3826803373711341
vn -0.9238808144936851 0 -0.3826803373711341
usemtl m_63be7e02-7367-7990-4022-8d9519ba0414
f 4/1/1 10/2/1 20/3/1 14/4/1
f 4/5/2 14/6/2 12/7/2 2/8/2
f 13/9/3 3/10/3 1/11/3 11/12/3
f 13/13/4 17/14/4 7/15/4 3/16/4
f 7/17/5 5/18/5 3/19/5
f 5/20/6 6/21/6 1/22/6 3/23/6
f 5/24/7 28/25/7 27/26/7 6/27/7
f 17/28/8 22/29/8 21/30/8 7/31/8
f 7/32/9 21/33/9 28/34/9 5/35/9
f 8/36/10 10/37/10 4/38/10
f 2/39/11 9/40/11 8/41/11 4/42/11
f 15/43/12 17/44/12 13/45/12
f 11/46/13 16/47/13 15/48/13 13/49/13
f 16/50/14 24/51/14 23/52/14 15/53/14
f 15/54/15 23/55/15 22/56/15 17/57/15
f 20/58/16 18/59/16 14/60/16
f 18/61/17 19/62/17 12/63/17 14/64/17
f 23/65/18 31/66/18 30/67/18 22/68/18
f 24/69/19 32/70/19 31/71/19 23/72/19
f 28/73/20 36/74/20 35/75/20 27/76/20
f 21/77/21 29/78/21 36/79/21 28/80/21
f 10/81/22 29/82/22 30/83/22 20/84/22
f 20/85/23 30/86/23 31/87/23 18/88/23
f 18/89/24 31/90/24 32/91/24 19/92/24
f 9/93/25 35/94/25 36/95/25 8/96/25
f 8/97/26 36/98/26 29/99/26 10/100/26
f 33/101/27 30/102/27 29/103/27 34/104/27
f 22/105/28 25/106/28 26/107/28 21/108/28
f 34/109/29 29/110/29 21/111/29 26/112/29
f 30/113/30 33/114/30 25/115/30 22/116/30
o window
v 0.231024375 1.875 -0.509375
v -0.231024375 1.3125 -0.509375
v 0.231024375 1.3125 -0.509375
v -0.231024375 1.875 -0.509375
v 0.231024375 1.875 -0.540625
v -0.231024375 1.3125 -0.540625
v 0.231024375 1.3125 -0.540625
v -0.231024375 1.875 -0.540625
vt 0 0.8359375
vt 0 0.765625
vt 0.0546875 0.765625
vt 0.0546875 0.8359375
vt 0.0703125 0.765625
vt 0.0703125 0.8359375
vt 0.0625 0.8359375
vt 0.0625 0.765625
vt 0.1640625 0.9140625
vt 0.21875 0.9140625
vt 0.21875 0.921875
vt 0.1640625 0.921875
vt 0.078125 0.8359375
vt 0.078125 0.765625
vt 0.0859375 0.765625
vt 0.0859375 0.8359375
vt 0.21875 0.90625
vt 0.1640625 0.90625
vt 0.1640625 0.8984375
vt 0.21875 0.8984375
vt 0.1640625 0.9296875
vt 0.21875 0.9296875
vt 0.21875 1
vt 0.1640625 1
vn 0 0 -1
vn 1 0 0
vn 0 -1 0
vn -1 0 0
vn 0 1 0
vn 0 0 1
usemtl m_63be7e02-7367-7990-4022-8d9519ba0414
f 41/117/31 43/118/31 42/119/31 44/120/31
f 43/121/32 41/122/32 37/123/32 39/124/32
f 42/125/33 43/126/33 39/127/33 38/128/33
f 44/129/34 42/130/34 38/131/34 40/132/34
f 41/133/35 44/134/35 40/135/35 37/136/35
f 38/137/36 39/138/36 37/139/36 40/140/36
o cap_bottom
v 0 0 0
v 0 0.25 0
v 0.207106875 0 0.5
v 0.25888375 0.25 0.625
v 0.5 0 0.207106875
v 0.625 0.25 0.25888375
v 0.5 0 -0.207106875
v 0.625 0.25 -0.25888375
v 0.207106875 0 -0.5
v 0.25888375 0.25 -0.625
v -0.207106875 0 -0.5
v -0.25888375 0.25 -0.625
v -0.5 0 -0.207106875
v -0.625 0.25 -0.25888375
v -0.5 0 0.207106875
v -0.625 0.25 0.25888375
v -0.207106875 0 0.5
v -0.25888375 0.25 0.625
vt 0.125 0.72120078125
vt 0.08838828125 0.7578125
vt 0.0625 0.6953125
vt 0.5394078125 0.671875
vt 0.591184375 0.671875
vt 0.59765625 0.703125
vt 0.5329359375 0.703125
vt 0.11048515625 0.84375
vt 0.15625 0.88951484375
vt 0.078125 0.921875
vt 0.125 0.66942421875
vt 0.125 0.72120078125
vt 0.0625 0.6953125
vt 0.53856484375 0.8359375
vt 0.59034140625 0.8359375
vt 0.59681328125 0.8671875
vt 0.53209296875 0.8671875
vt 0.15625 0.88951484375
vt 0.15625 0.95423515625
vt 0.078125 0.921875
vt 0.08838828125 0.6328125
vt 0.125 0.66942421875
vt 0.0625 0.6953125
vt 0.537721875 0.6328125
vt 0.5894984375 0.6328125
vt 0.5959703125 0.6640625
vt 0.53125 0.6640625
vt 0.15625 0.95423515625
vt 0.11048515625 1
vt 0.078125 0.921875
vt 0.03661171875 0.6328125
vt 0.08838828125 0.6328125
vt 0.0625 0.6953125
vt 0.53856484375 0.9140625
vt 0.59034140625 0.9140625
vt 0.59681328125 0.9453125
vt 0.53209296875 0.9453125
vt 0.11048515625 1
vt 0.04576484375 1
vt 0.078125 0.921875
vt 0 0.66942421875
vt 0.03661171875 0.6328125
vt 0.0625 0.6953125
vt 0.5394078125 0.59375
vt 0.591184375 0.59375
vt 0.59765625 0.625
vt 0.5329359375 0.625
vt 0.04576484375 1
vt 0 0.95423515625
vt 0.078125 0.921875
vt 0 0.72120078125
vt 0 0.66942421875
vt 0.0625 0.6953125
vt 0.53856484375 0.796875
vt 0.59034140625 0.796875
vt 0.59681328125 0.828125
vt 0.53209296875 0.828125
vt 0 0.95423515625
vt 0 0.88951484375
vt 0.078125 0.921875
vt 0.03661171875 0.7578125
vt 0 0.72120078125
vt 0.0625 0.6953125
vt 0.537721875 0.5546875
vt 0.5894984375 0.5546875
vt 0.5959703125 0.5859375
vt 0.53125 0.5859375
vt 0 0.88951484375
vt 0.04576484375 0.84375
vt 0.078125 0.921875
vt 0.08838828125 0.7578125
vt 0.03661171875 0.7578125
vt 0.0625 0.6953125
vt 0.53856484375 0.875
vt 0.59034140625 0.875
vt 0.59681328125 0.90625
vt 0.53209296875 0.90625
vt 0.04576484375 0.84375
vt 0.11048515625 0.84375
vt 0.078125 0.921875
vn 0 -1 0
vn 0.6324554034483904 -0.44721395919388274 0.6324554034483904
vn 0 1 0
vn 0 -1 0
vn 0.8944271909999161 -0.44721359549995804 0
vn 0 1 0
vn 0 -1 0
vn 0.6324554034483904 -0.44721395919388274 -0.6324554034483904
vn 0 1 0
vn 0 -1 0
vn 0 -0.44721359549995804 -0.8944271909999161
vn 0 1 0
vn 0 -1 0
vn -0.6324554034483904 -0.44721395919388274 -0.6324554034483904
vn 0 1 0
vn 0 -1 0
vn -0.8944271909999161 -0.44721359549995804 0
vn 0 1 0
vn 0 -1 0
vn -0.6324554034483904 -0.44721395919388274 0.6324554034483904
vn 0 1 0
vn 0 -1 0
vn 0 -0.44721359549995804 0.8944271909999161
vn 0 1 0
usemtl m_63be7e02-7367-7990-4022-8d9519ba0414
f 49/141/37 47/142/37 45/143/37
f 47/144/38 49/145/38 50/146/38 48/147/38
f 48/148/39 50/149/39 46/150/39
f 51/151/40 49/152/40 45/153/40
f 49/154/41 51/155/41 52/156/41 50/157/41
f 50/158/42 52/159/42 46/160/42
f 53/161/43 51/162/43 45/163/43
f 51/164/44 53/165/44 54/166/44 52/167/44
f 52/168/45 54/169/45 46/170/45
f 55/171/46 53/172/46 45/173/46
f 53/174/47 55/175/47 56/176/47 54/177/47
f 54/178/48 56/179/48 46/180/48
f 57/181/49 55/182/49 45/183/49
f 55/184/50 57/185/50 58/186/50 56/187/50
f 56/188/51 58/189/51 46/190/51
f 59/191/52 57/192/52 45/193/52
f 57/194/53 59/195/53 60/196/53 58/197/53
f 58/198/54 60/199/54 46/200/54
f 61/201/55 59/202/55 45/203/55
f 59/204/56 61/205/56 62/206/56 60/207/56
f 60/208/57 62/209/57 46/210/57
f 47/211/58 61/212/58 45/213/58
f 61/214/59 47/215/59 48/216/59 62/217/59
f 62/218/60 48/219/60 46/220/60
o body
v 0.207106875 0.25 0.5
v 0.207106875 2.5 0.5
v 0.5 0.25 0.207106875
v 0.5 2.5 0.207106875
v 0.5 0.25 -0.207106875
v 0.5 2.5 -0.207106875
v 0.207106875 0.25 -0.5
v 0.207106875 2.5 -0.5
v -0.207106875 0.25 -0.5
v -0.207106875 2.5 -0.5
v -0.5 0.25 -0.207106875
v -0.5 2.5 -0.207106875
v -0.5 0.25 0.207106875
v -0.5 2.5 0.207106875
v -0.207106875 0.25 0.5
v -0.207106875 2.5 0.5
v -0.207106875 2.25 -0.5
v 0.207106875 2.25 -0.5
v 0.5 2.25 -0.207106875
v 0.5 2.25 0.207106875
v 0.207106875 2.25 0.5
v -0.207106875 2.25 0.5
v -0.5 2.25 0.207106875
v -0.5 2.25 -0.207106875
v -0.207106875 0.375 -0.5
v 0.207106875 0.375 -0.5
v 0.5 0.375 -0.207106875
v 0.5 0.375 0.207106875
v 0.207106875 0.375 0.5
v -0.207106875 0.375 0.5
v -0.5 0.375 0.207106875
v -0.5 0.375 -0.207106875
vt 0.0029109375 0.625
vt 0.0029109375 0.59375
vt 0.0546875 0.59375
vt 0.0546875 0.625
vt 0.27489296875 0.7265625
vt 0.27489296875 0.6953125
vt 0.32666953125 0.6953125
vt 0.32666953125 0.7265625
vt 0.0625 0.625
vt 0.0625 0.59375
vt 0.1142765625 0.59375
vt 0.1142765625 0.625
vt 0.13426796875 0.703125
vt 0.13426796875 0.671875
vt 0.18604453125 0.671875
vt 0.18604453125 0.703125
vt 0.4013484375 1
vt 0.4013484375 0.96875
vt 0.453125 0.96875
vt 0.453125 1
vt 0.19676796875 0.703125
vt 0.19676796875 0.671875
vt 0.24854453125 0.671875
vt 0.24854453125 0.703125
vt 0.3984375 0.7109375
vt 0.3984375 0.6796875
vt 0.4502140625 0.6796875
vt 0.4502140625 0.7109375
vt 0.33739296875 0.875
vt 0.33739296875 0.84375
vt 0.38916953125 0.84375
vt 0.38916953125 0.875
vt 0.13426796875 0.671875
vt 0.13426796875 0.4375
vt 0.18604453125 0.4375
vt 0.18604453125 0.671875
vt 0.0625 0.59375
vt 0.0625 0.359375
vt 0.1142765625 0.359375
vt 0.1142765625 0.59375
vt 0.27489296875 0.6953125
vt 0.27489296875 0.4609375
vt 0.32666953125 0.4609375
vt 0.32666953125 0.6953125
vt 0.0029109375 0.59375
vt 0.0029109375 0.359375
vt 0.0546875 0.359375
vt 0.0546875 0.59375
vt 0.33739296875 0.84375
vt 0.33739296875 0.609375
vt 0.38916953125 0.609375
vt 0.38916953125 0.84375
vt 0.3984375 0.6796875
vt 0.3984375 0.4453125
vt 0.4502140625 0.4453125
vt 0.4502140625 0.6796875
vt 0.19676796875 0.671875
vt 0.19676796875 0.4375
vt 0.24854453125 0.4375
vt 0.24854453125 0.671875
vt 0.4013484375 0.96875
vt 0.4013484375 0.734375
vt 0.453125 0.734375
vt 0.453125 0.96875
vt 0.18604453125 0.421875
vt 0.18604453125 0.4375
vt 0.13426796875 0.4375
vt 0.13426796875 0.421875
vt 0.1142765625 0.34375
vt 0.1142765625 0.359375
vt 0.0625 0.359375
vt 0.0625 0.34375
vt 0.32666953125 0.4453125
vt 0.32666953125 0.4609375
vt 0.27489296875 0.4609375
vt 0.27489296875 0.4453125
vt 0.0546875 0.34375
vt 0.0546875 0.359375
vt 0.0029109375 0.359375
vt 0.0029109375 0.34375
vt 0.38916953125 0.59375
vt 0.38916953125 0.609375
vt 0.33739296875 0.609375
vt 0.33739296875 0.59375
vt 0.4502140625 0.4296875
vt 0.4502140625 0.4453125
vt 0.3984375 0.4453125
vt 0.3984375 0.4296875
vt 0.24854453125 0.421875
vt 0.24854453125 0.4375
vt 0.19676796875 0.4375
vt 0.19676796875 0.421875
vt 0.453125 0.71875
vt 0.453125 0.734375
vt 0.4013484375 0.734375
vt 0.4013484375 0.71875
vn 0.7071067811865476 0 0.7071067811865476
vn 1 0 0
vn 0.7071067811865476 0 -0.7071067811865476
vn 0 0 -1
vn -0.7071067811865476 0 -0.7071067811865476
vn -1 0 0
vn -0.7071067811865476 0 0.7071067811865476
vn 0 0 1
vn 0 0 -1
vn 0.7071067811865476 0 -0.7071067811865476
vn 1 0 0
vn 0.7071067811865476 0 0.7071067811865476
vn 0 0 1
vn -0.7071067811865476 0 0.7071067811865476
vn -1 0 0
vn -0.7071067811865476 0 -0.7071067811865476
vn 0 0 -1
vn 0.7071067811865476 0 -0.7071067811865476
vn 1 0 0
vn 0.7071067811865476 0 0.7071067811865476
vn 0 0 1
vn -0.7071067811865476 0 0.7071067811865476
vn -1 0 0
vn -0.7071067811865476 0 -0.7071067811865476
usemtl m_63be7e02-7367-7990-4022-8d9519ba0414
f 64/221/61 83/222/61 82/223/61 66/224/61
f 66/225/62 82/226/62 81/227/62 68/228/62
f 68/229/63 81/230/63 80/231/63 70/232/63
f 70/233/64 80/234/64 79/235/64 72/236/64
f 72/237/65 79/238/65 86/239/65 74/240/65
f 74/241/66 86/242/66 85/243/66 76/244/66
f 76/245/67 85/246/67 84/247/67 78/248/67
f 78/249/68 84/250/68 83/251/68 64/252/68
f 80/253/69 88/254/69 87/255/69 79/256/69
f 81/257/70 89/258/70 88/259/70 80/260/70
f 82/261/71 90/262/71 89/263/71 81/264/71
f 83/265/72 91/266/72 90/267/72 82/268/72
f 84/269/73 92/270/73 91/271/73 83/272/73
f 85/273/74 93/274/74 92/275/74 84/276/74
f 86/277/75 94/278/75 93/279/75 85/280/75
f 79/281/76 87/282/76 94/283/76 86/284/76
f 71/285/77 87/286/77 88/287/77 69/288/77
f 69/289/78 88/290/78 89/291/78 67/292/78
f 67/293/79 89/294/79 90/295/79 65/296/79
f 65/297/80 90/298/80 91/299/80 63/300/80
f 63/301/81 91/302/81 92/303/81 77/304/81
f 77/305/82 92/306/82 93/307/82 75/308/82
f 75/309/83 93/310/83 94/311/83 73/312/83
f 73/313/84 94/314/84 87/315/84 71/316/84
o cap_top
v 0 2.8125 0
v 0 2.5 0
v 0.207106875 2.75 0.5
v 0.25888375 2.5 0.625
v 0.5 2.75 0.207106875
v 0.625 2.5 0.25888375
v 0.5 2.75 -0.207106875
v 0.625 2.5 -0.25888375
v 0.207106875 2.75 -0.5
v 0.25888375 2.5 -0.625
v -0.207106875 2.75 -0.5
v -0.25888375 2.5 -0.625
v -0.5 2.75 -0.207106875
v -0.625 2.5 -0.25888375
v -0.5 2.75 0.207106875
v -0.625 2.5 0.25888375
v -0.207106875 2.75 0.5
v -0.25888375 2.5 0.625
vt 0.2637571875 0.99886859375
vt 0.227750546875 0.961661953125
vt 0.291015625 0.9364634375
vt 0.48046875 0.390625
vt 0.473996875 0.421875
vt 0.4222203125 0.421875
vt 0.4157484375 0.390625
vt 0.28125 0.82142265625
vt 0.23548515625 0.8671875
vt 0.203125 0.7890625
vt 0.227750546875 0.961661953125
vt 0.228316328125 0.9098884375
vt 0.291015625 0.9364634375
vt 0.63587578125 0.4296875
vt 0.62940390625 0.4609375
vt 0.57762734375 0.4609375
vt 0.57115546875 0.4296875
vt 0.28125 0.75670234375
vt 0.28125 0.82142265625
vt 0.203125 0.7890625
vt 0.228316328125 0.9098884375
vt 0.26512734375 0.8734775
vt 0.291015625 0.9364634375
vt 0.6350328125 0.390625
vt 0.6285609375 0.421875
vt 0.576784375 0.421875
vt 0.5703125 0.390625
vt 0.23548515625 0.7109375
vt 0.28125 0.75670234375
vt 0.203125 0.7890625
vt 0.26512734375 0.8734775
vt 0.31690390625 0.8734775
vt 0.291015625 0.9364634375
vt 0.61243828125 0.7578125
vt 0.60596640625 0.7890625
vt 0.55418984375 0.7890625
vt 0.54771796875 0.7578125
vt 0.17076484375 0.7109375
vt 0.23548515625 0.7109375
vt 0.203125 0.7890625
vt 0.31690390625 0.8734775
vt 0.353714921875 0.9098884375
vt 0.291015625 0.9364634375
vt 0.19140625 0.3828125
vt 0.184934375 0.4140625
vt 0.1331578125 0.4140625
vt 0.1266859375 0.3828125
vt 0.125 0.75670234375
vt 0.17076484375 0.7109375
vt 0.203125 0.7890625
vt 0.353714921875 0.9098884375
vt 0.354280703125 0.961661953125
vt 0.291015625 0.9364634375
vt 0.40150078125 0.390625
vt 0.39502890625 0.421875
vt 0.34325234375 0.421875
vt 0.33678046875 0.390625
vt 0.125 0.82142265625
vt 0.125 0.75670234375
vt 0.203125 0.7890625
vt 0.354280703125 0.961661953125
vt 0.3182740625 0.99886859375
vt 0.291015625 0.9364634375
vt 0.6662828125 0.96875
vt 0.6598109375 1
vt 0.608034375 1
vt 0.6015625 0.96875
vt 0.17076484375 0.8671875
vt 0.125 0.82142265625
vt 0.203125 0.7890625
vt 0.31552140625 1
vt 0.2637571875 0.99886859375
vt 0.291015625 0.9364634375
vt 0.32337578125 0.40625
vt 0.31690390625 0.4375
vt 0.26512734375 0.4375
vt 0.25865546875 0.40625
vt 0.23548515625 0.8671875
vt 0.17076484375 0.8671875
vt 0.203125 0.7890625
vn 0.08770579047359506 0.9922778787390172 0.08770579047359506
vn 0.6324554034483902 0.4472139591938827 0.6324554034483902
vn 0 -1 0
vn 0.12403473458920847 0.9922778767136677 0
vn 0.8944271909999161 0.44721359549995804 0
vn 0 -1 0
vn 0.08770579047359506 0.9922778787390172 -0.08770579047359506
vn 0.6324554034483902 0.4472139591938827 -0.6324554034483902
vn 0 -1 0
vn 0 0.9922778767136677 -0.12403473458920847
vn 0 0.44721359549995804 -0.8944271909999161
vn 0 -1 0
vn -0.08770579047359506 0.9922778787390172 -0.08770579047359506
vn -0.6324554034483902 0.4472139591938827 -0.6324554034483902
vn 0 -1 0
vn -0.12403473458920847 0.9922778767136677 0
vn -0.8944271909999161 0.44721359549995804 0
vn 0 -1 0
vn -0.08770579047359506 0.9922778787390172 0.08770579047359506
vn -0.6324554034483902 0.4472139591938827 0.6324554034483902
vn 0 -1 0
vn 0 0.9922778767136677 0.12403473458920847
vn 0 0.44721359549995804 0.8944271909999161
vn 0 -1 0
usemtl m_63be7e02-7367-7990-4022-8d9519ba0414
f 97/317/85 99/318/85 95/319/85
f 100/320/86 99/321/86 97/322/86 98/323/86
f 100/324/87 98/325/87 96/326/87
f 99/327/88 101/328/88 95/329/88
f 102/330/89 101/331/89 99/332/89 100/333/89
f 102/334/90 100/335/90 96/336/90
f 101/337/91 103/338/91 95/339/91
f 104/340/92 103/341/92 101/342/92 102/343/92
f 104/344/93 102/345/93 96/346/93
f 103/347/94 105/348/94 95/349/94
f 106/350/95 105/351/95 103/352/95 104/353/95
f 106/354/96 104/355/96 96/356/96
f 105/357/97 107/358/97 95/359/97
f 108/360/98 107/361/98 105/362/98 106/363/98
f 108/364/99 106/365/99 96/366/99
f 107/367/100 109/368/100 95/369/100
f 110/370/101 109/371/101 107/372/101 108/373/101
f 110/374/102 108/375/102 96/376/102
f 109/377/103 111/378/103 95/379/103
f 112/380/104 111/381/104 109/382/104 110/383/104
f 112/384/105 110/385/105 96/386/105
f 111/387/106 97/388/106 95/389/106
f 98/390/107 97/391/107 111/392/107 112/393/107
f 98/394/108 112/395/108 96/396/108