# Made in Blockbench 4.12.5
mtllib door.mtl

o body
v 0.78125 2.53125 0.0625
v 0.78125 2.53125 -0.0625
v 0.78125 0 0.0625
v 0.78125 0 -0.0625
v -0.78125 2.53125 0.0625
v -0.78125 2.53125 -0.0625
v -0.78125 0 0.0625
v -0.78125 0 -0.0625
v 0.4375 2.53125 -0.0625
v 0.4375 2.53125 0.0625
v 0.59375 0 0.0625
v 0.59375 0 -0.0625
v -0.4375 2.53125 -0.0625
v -0.4375 2.53125 0.0625
v -0.59375 0 0.0625
v -0.59375 0 -0.0625
v -0.78125 2.3125 -0.0625
v -0.78125 2.3125 0.0625
v -0.4375 2.3125 0.0625
v 0.4375 2.3125 0.0625
v 0.78125 2.3125 0.0625
v 0.78125 2.3125 -0.0625
v 0.4375 2.3125 -0.0625
v -0.4375 2.3125 -0.0625
v -0.59375 2.15625 -0.0625
v -0.78125 2.15625 -0.0625
v -0.78125 2.15625 0.0625
v -0.59375 2.15625 0.0625
v 0.59375 2.15625 0.0625
v 0.78125 2.15625 0.0625
v 0.78125 2.15625 -0.0625
v 0.59375 2.15625 -0.0625
v -0.59375 0 -0.03125
v 0.59375 2.15625 -0.03125
v -0.59375 2.15625 -0.03125
v 0.59375 0 -0.03125
v 0.4375 2.3125 -0.03125
v -0.4375 2.3125 -0.03125
v -0.4375 2.3125 0.03125
v -0.59375 2.15625 0.03125
v 0.59375 2.15625 0.03125
v 0.4375 2.3125 0.03125
v 0.59375 0 0.03125
v -0.59375 0 0.03125
vt 0.328125 0.64453125
vt 0.328125 0.9140625
vt 0.3125 0.9140625
vt 0.3125 0.64453125
vt 0.359375 0.65625
vt 0.40234375 0.65625
vt 0.40234375 0.671875
vt 0.359375 0.671875
vt 0.359375 0.6328125
vt 0.3828125 0.6328125
vt 0.3828125 0.6484375
vt 0.359375 0.6484375
vt 0.0234375 0.68359375
vt 0.0234375 0.953125
vt 0 0.953125
vt 0 0.68359375
vt 0.3984375 0.68359375
vt 0.3984375 0.953125
vt 0.375 0.953125
vt 0.375 0.68359375
vt 0.5546875 0.671875
vt 0.51171875 0.671875
vt 0.51171875 0.65625
vt 0.5546875 0.65625
vt 0.1953125 0.68359375
vt 0.1953125 0.953125
vt 0.171875 0.953125
vt 0.171875 0.68359375
vt 0.5546875 0.6484375
vt 0.53125 0.6484375
vt 0.53125 0.6328125
vt 0.5546875 0.6328125
vt 0.2265625 0.68359375
vt 0.2265625 0.953125
vt 0.203125 0.953125
vt 0.203125 0.68359375
vt 0.51171875 0.671875
vt 0.40234375 0.671875
vt 0.40234375 0.65625
vt 0.51171875 0.65625
vt 0.1484375 0.3828125
vt 0.1484375 0.65234375
vt 0 0.65234375
vt 0 0.3828125
vt 0.53125 0.6484375
vt 0.3828125 0.6484375
vt 0.3828125 0.6328125
vt 0.53125 0.6328125
vt 0.3046875 0.3828125
vt 0.3046875 0.65234375
vt 0.15625 0.65234375
vt 0.15625 0.3828125
vt 0.3359375 0.9609375
vt 0.3359375 0.93359375
vt 0.3515625 0.93359375
vt 0.3515625 0.9609375
vt 0 1
vt 0 0.97265625
vt 0.04296875 0.97265625
vt 0.04296875 1
vt 0.04296875 1
vt 0.04296875 0.97265625
vt 0.15234375 0.97265625
vt 0.15234375 1
vt 0.15234375 1
vt 0.15234375 0.97265625
vt 0.1953125 0.97265625
vt 0.1953125 1
vt 0.3125 0.9609375
vt 0.3125 0.93359375
vt 0.328125 0.93359375
vt 0.328125 0.9609375
vt 0.203125 1
vt 0.203125 0.97265625
vt 0.24609375 0.97265625
vt 0.24609375 1
vt 0.24609375 1
vt 0.24609375 0.97265625
vt 0.35546875 0.97265625
vt 0.35546875 1
vt 0.35546875 1
vt 0.35546875 0.97265625
vt 0.3984375 0.97265625
vt 0.3984375 1
vt 0.35546875 0.97265625
vt 0.375 0.953125
vt 0.3984375 0.953125
vt 0.3984375 0.97265625
vt 0.3359375 0.93359375
vt 0.3359375 0.9140625
vt 0.3515625 0.9140625
vt 0.3515625 0.93359375
vt 0 0.97265625
vt 0 0.953125
vt 0.0234375 0.953125
vt 0.04296875 0.97265625
vt 0.01953125 0.671875
vt 0 0.65234375
vt 0.1484375 0.65234375
vt 0.12890625 0.671875
vt 0.15234375 0.97265625
vt 0.171875 0.953125
vt 0.1953125 0.953125
vt 0.1953125 0.97265625
vt 0.3125 0.93359375
vt 0.3125 0.9140625
vt 0.328125 0.9140625
vt 0.328125 0.93359375
vt 0.203125 0.97265625
vt 0.203125 0.953125
vt 0.2265625 0.953125
vt 0.24609375 0.97265625
vt 0.17578125 0.671875
vt 0.15625 0.65234375
vt 0.3046875 0.65234375
vt 0.28515625 0.671875
vt 0.046875 0.953125
vt 0.046875 0.6796875
vt 0.0546875 0.6796875
vt 0.0546875 0.953125
vt 0.0703125 0.6875
vt 0.0703125 0.9609375
vt 0.0625 0.9609375
vt 0.0625 0.6875
vt 0.3125 0.6171875
vt 0.4609375 0.6171875
vt 0.4609375 0.625
vt 0.3125 0.625
vt 0.1171875 0.9296875
vt 0.1171875 0.9609375
vt 0.109375 0.9609375
vt 0.109375 0.9296875
vt 0.109375 0.921875
vt 0.109375 0.890625
vt 0.1171875 0.890625
vt 0.1171875 0.921875
vt 0.515625 1
vt 0.40625 1
vt 0.40625 0.9921875
vt 0.515625 0.9921875
vt 0.1171875 0.8515625
vt 0.1171875 0.8828125
vt 0.109375 0.8828125
vt 0.109375 0.8515625
vt 0.125 0.9609375
vt 0.125 0.9296875
vt 0.1328125 0.9296875
vt 0.1328125 0.9609375
vt 0.40625 0.9765625
vt 0.515625 0.9765625
vt 0.515625 0.984375
vt 0.40625 0.984375
vt 0.078125 0.9609375
vt 0.078125 0.6875
vt 0.0859375 0.6875
vt 0.0859375 0.9609375
vt 0.1015625 0.6875
vt 0.1015625 0.9609375
vt 0.09375 0.9609375
vt 0.09375 0.6875
vt 0.4609375 0.609375
vt 0.3125 0.609375
vt 0.3125 0.6015625
vt 0.4609375 0.6015625
vt 0.3515625 0.64453125
vt 0.3515625 0.9140625
vt 0.3359375 0.9140625
vt 0.3359375 0.64453125
vn 1 0 0
vn 0 1 0
vn 0 -1 0
vn 0 0 1
vn 0 0 -1
vn 0 1 0
vn 0 0 1
vn 0 -1 0
vn 0 0 -1
vn 0 1 0
vn 0 0 1
vn 0 -1 0
vn 0 0 -1
vn -1 0 0
vn 0 0 1
vn 0 0 1
vn 0 0 1
vn 1 0 0
vn 0 0 -1
vn 0 0 -1
vn 0 0 -1
vn 0 0 -1
vn -1 0 0
vn 0 0 1
vn 0 0 1
vn 0 0 1
vn 1 0 0
vn 0 0 -1
vn 0 0 -1
vn 1 0 0
vn -1 0 0
vn 0 1 0
vn -0.7071067811865476 -0.7071067811865476 0
vn 0.7071067811865476 -0.7071067811865476 0
vn 0 -1 0
vn 0.7071067811865476 -0.7071067811865476 0
vn -0.7071067811865476 -0.7071067811865476 0
vn 0 -1 0
vn -1 0 0
vn 1 0 0
vn 0 1 0
vn -1 0 0
usemtl m_e4f0d654-ec0f-2bc6-a6ae-d8f9bc2dcd0b
f 4/1/1 31/2/1 30/3/1 3/4/1
f 5/5/2 14/6/2 13/7/2 6/8/2
f 8/9/3 16/10/3 15/11/3 7/12/3
f 15/13/4 28/14/4 27/15/4 7/16/4
f 8/17/5 26/18/5 25/19/5 16/20/5
f 2/21/6 9/22/6 10/23/6 1/24/6
f 3/25/7 30/26/7 29/27/7 11/28/7
f 3/29/8 11/30/8 12/31/8 4/32/8
f 12/33/9 32/34/9 31/35/9 4/36/9
f 9/37/10 13/38/10 14/39/10 10/40/10
f 43/41/11 41/42/11 40/43/11 44/44/11
f 11/45/12 15/46/12 16/47/12 12/48/12
f 33/49/13 35/50/13 34/51/13 36/52/13
f 6/53/14 17/54/14 18/55/14 5/56/14
f 5/57/15 18/58/15 19/59/15 14/60/15
f 14/61/16 19/62/16 20/63/16 10/64/16
f 10/65/17 20/66/17 21/67/17 1/68/17
f 1/69/18 21/70/18 22/71/18 2/72/18
f 2/73/19 22/74/19 23/75/19 9/76/19
f 9/77/20 23/78/20 24/79/20 13/80/20
f 13/81/21 24/82/21 17/83/21 6/84/21
f 24/85/22 25/86/22 26/87/22 17/88/22
f 17/89/23 26/90/23 27/91/23 18/92/23
f 18/93/24 27/94/24 28/95/24 19/96/24
f 39/97/25 40/98/25 41/99/25 42/100/25
f 20/101/26 29/102/26 30/103/26 21/104/26
f 21/105/27 30/106/27 31/107/27 22/108/27
f 22/109/28 31/110/28 32/111/28 23/112/28
f 37/113/29 34/114/29 35/115/29 38/116/29
f 35/117/30 33/118/30 16/119/30 25/120/30
f 36/121/31 34/122/31 32/123/31 12/124/31
f 33/125/32 36/126/32 12/127/32 16/128/32
f 34/129/33 37/130/33 23/131/33 32/132/33
f 38/133/34 35/134/34 25/135/34 24/136/34
f 37/137/35 38/138/35 24/139/35 23/140/35
f 40/141/36 39/142/36 19/143/36 28/144/36
f 42/145/37 41/146/37 29/147/37 20/148/37
f 39/149/38 42/150/38 20/151/38 19/152/38
f 41/153/39 43/154/39 11/155/39 29/156/39
f 44/157/40 40/158/40 28/159/40 15/160/40
f 43/161/41 44/162/41 15/163/41 11/164/41
f 7/165/42 27/166/42 26/167/42 8/168/42