# Made in Blockbench 4.12.5
mtllib fire_extinguisher.mtl

o body
v 0.073781875 0.0625 0.178125
v 0.073781875 0.65625 0.178125
v 0.178125 0.0625 0.073781875
v 0.178125 0.65625 0.073781875
v 0.178125 0.0625 -0.073781875
v 0.178125 0.65625 -0.073781875
v 0.073781875 0.0625 -0.178125
v 0.073781875 0.65625 -0.178125
v -0.073781875 0.0625 -0.178125
v -0.073781875 0.65625 -0.178125
v -0.178125 0.0625 -0.073781875
v -0.178125 0.65625 -0.073781875
v -0.178125 0.0625 0.073781875
v -0.178125 0.65625 0.073781875
v -0.073781875 0.0625 0.178125
v -0.073781875 0.65625 0.178125
v 0.04789375 0 0.115625
v -0.04789375 0 0.115625
v 0 0 0
v 0.115625 0 0.04789375
v 0.115625 0 -0.04789375
v 0.04789375 0 -0.115625
v -0.04789375 0 -0.115625
v -0.115625 0 -0.04789375
v -0.115625 0 0.04789375
v 0.115625 0.703125 -0.04789375
v 0.04789375 0.703125 -0.115625
v -0.04789375 0.703125 -0.115625
v -0.115625 0.703125 -0.04789375
v -0.115625 0.703125 0.04789375
v -0.04789375 0.703125 0.115625
v 0.04789375 0.703125 0.115625
v 0.115625 0.703125 0.04789375
v 0 0.703125 0
vt 0.4953125 0.7067593750000001
vt 0.461446875 0.740625
vt 0.4375 0.6828125
vt 0.28125 0.34375
vt 0.34375 0.34375
vt 0.34375 0.65625
vt 0.28125 0.65625
vt 0.461446875 0.478125
vt 0.4953125 0.5119906249999999
vt 0.4375 0.5359375
vt 0.4953125 0.658865625
vt 0.4953125 0.7067593750000001
vt 0.4375 0.6828125
vt 0 0.6875
vt 0.0625 0.6875
vt 0.0625 1
vt 0 1
vt 0.4953125 0.5119906249999999
vt 0.4953125 0.559884375
vt 0.4375 0.5359375
vt 0.461446875 0.625
vt 0.4953125 0.658865625
vt 0.4375 0.6828125
vt 0 0.34375
vt 0.0625 0.34375
vt 0.0625 0.65625
vt 0 0.65625
vt 0.4953125 0.559884375
vt 0.461446875 0.59375
vt 0.4375 0.5359375
vt 0.413553125 0.625
vt 0.461446875 0.625
vt 0.4375 0.6828125
vt 0.09375 0.6875
vt 0.15625 0.6875
vt 0.15625 1
vt 0.09375 1
vt 0.461446875 0.59375
vt 0.413553125 0.59375
vt 0.4375 0.5359375
vt 0.3796875 0.658865625
vt 0.413553125 0.625
vt 0.4375 0.6828125
vt 0.09375 0.34375
vt 0.15625 0.34375
vt 0.15625 0.65625
vt 0.09375 0.65625
vt 0.413553125 0.59375
vt 0.3796875 0.559884375
vt 0.4375 0.5359375
vt 0.3796875 0.7067593750000001
vt 0.3796875 0.658865625
vt 0.4375 0.6828125
vt 0.1875 0.6875
vt 0.25 0.6875
vt 0.25 1
vt 0.1875 1
vt 0.3796875 0.559884375
vt 0.3796875 0.5119906249999999
vt 0.4375 0.5359375
vt 0.413553125 0.740625
vt 0.3796875 0.7067593750000001
vt 0.4375 0.6828125
vt 0.1875 0.34375
vt 0.25 0.34375
vt 0.25 0.65625
vt 0.1875 0.65625
vt 0.3796875 0.5119906249999999
vt 0.413553125 0.478125
vt 0.4375 0.5359375
vt 0.461446875 0.740625
vt 0.413553125 0.740625
vt 0.4375 0.6828125
vt 0.28125 0.6875
vt 0.34375 0.6875
vt 0.34375 1
vt 0.28125 1
vt 0.413553125 0.478125
vt 0.461446875 0.478125
vt 0.4375 0.5359375
vt 0.452615625 0.822711875
vt 0.500509375 0.822711875
vt 0.513453125 0.86690875
vt 0.439671875 0.86690875
vt 0.500509375 0.822711875
vt 0.54083625 0.796875
vt 0.5755778125 0.8271065625
vt 0.513453125 0.86690875
vt 0.765115625 0.5
vt 0.813009375 0.5
vt 0.825953125 0.53125
vt 0.752171875 0.53125
vt 0.41228875 0.921875
vt 0.452615625 0.947711875
vt 0.439671875 0.99190875
vt 0.3775471875 0.9521065625
vt 0.452615625 0.947711875
vt 0.500509375 0.947711875
vt 0.513453125 0.99190875
vt 0.439671875 0.99190875
vt 0.500509375 0.947711875
vt 0.54083625 0.921875
vt 0.5755778125 0.9521065625
vt 0.513453125 0.99190875
vt 0.765115625 0.28125
vt 0.813009375 0.28125
vt 0.825953125 0.3125
vt 0.752171875 0.3125
vt 0.41228875 0.796875
vt 0.452615625 0.822711875
vt 0.439671875 0.86690875
vt 0.3775471875 0.8271065625
vt 0.608865625 0.56515
vt 0.57044875 0.59375
vt 0.53674 0.5701462500000001
vt 0.595921875 0.5260875
vt 0.656759375 0.56515
vt 0.608865625 0.56515
vt 0.595921875 0.5260875
vt 0.669703125 0.5260875
vt 0.813009375 0.25
vt 0.765115625 0.25
vt 0.752171875 0.21875
vt 0.825953125 0.21875
vt 0.608865625 0.44015000000000004
vt 0.57044875 0.46875
vt 0.53674 0.44514624999999997
vt 0.595921875 0.40108750000000004
vt 0.69517625 0.59375
vt 0.656759375 0.56515
vt 0.669703125 0.5260875
vt 0.728885 0.5701462500000001
vt 0.656759375 0.44015000000000004
vt 0.608865625 0.44015000000000004
vt 0.595921875 0.40108750000000004
vt 0.669703125 0.40108750000000004
vt 0.69517625 0.46875
vt 0.656759375 0.44015000000000004
vt 0.669703125 0.40108750000000004
vt 0.728885 0.44514624999999997
vt 0.844259375 1
vt 0.796365625 1
vt 0.783421875 0.96875
vt 0.857203125 0.96875
vn 0 -1 0
vn 0.7071067811865476 0 0.7071067811865476
vn 0 1 0
vn 0 -1 0
vn 1 0 0
vn 0 1 0
vn 0 -1 0
vn 0.7071067811865476 0 -0.7071067811865476
vn 0 1 0
vn 0 -1 0
vn 0 0 -1
vn 0 1 0
vn 0 -1 0
vn -0.7071067811865476 0 -0.7071067811865476
vn 0 1 0
vn 0 -1 0
vn -1 0 0
vn 0 1 0
vn 0 -1 0
vn -0.7071067811865476 0 0.7071067811865476
vn 0 1 0
vn 0 -1 0
vn 0 0 1
vn 0 1 0
vn 0 -0.7071067811865476 0.7071067811865476
vn 0.5000006297449398 -0.7071058905915913 0.5000006297449398
vn 0.7071067811865476 -0.7071067811865476 0
vn 0.5000006297449398 -0.7071058905915913 -0.5000006297449398
vn 0 -0.7071067811865476 -0.7071067811865476
vn -0.5000006297449398 -0.7071058905915913 -0.5000006297449398
vn -0.7071067811865476 -0.7071067811865476 0
vn -0.5000006297449398 -0.7071058905915913 0.5000006297449398
vn 0.42426475268835523 0.7999992745325321 -0.42426475268835523
vn 0 0.8 -0.6
vn -0.6 0.8 0
vn -0.42426475268835523 0.7999992745325321 0.42426475268835523
vn -0.42426475268835523 0.7999992745325321 -0.42426475268835523
vn 0 0.8 0.6
vn 0.42426475268835523 0.7999992745325321 0.42426475268835523
vn 0.6 0.8 0
usemtl m_880b3ebe-ff0b-d465-5bb4-c6eda94a4483
f 20/1/1 17/2/1 19/3/1
f 1/4/2 3/5/2 4/6/2 2/7/2
f 32/8/3 33/9/3 34/10/3
f 21/11/4 20/12/4 19/13/4
f 3/14/5 5/15/5 6/16/5 4/17/5
f 33/18/6 26/19/6 34/20/6
f 22/21/7 21/22/7 19/23/7
f 5/24/8 7/25/8 8/26/8 6/27/8
f 26/28/9 27/29/9 34/30/9
f 23/31/10 22/32/10 19/33/10
f 7/34/11 9/35/11 10/36/11 8/37/11
f 27/38/12 28/39/12 34/40/12
f 24/41/13 23/42/13 19/43/13
f 9/44/14 11/45/14 12/46/14 10/47/14
f 28/48/15 29/49/15 34/50/15
f 25/51/16 24/52/16 19/53/16
f 11/54/17 13/55/17 14/56/17 12/57/17
f 29/58/18 30/59/18 34/60/18
f 18/61/19 25/62/19 19/63/19
f 13/64/20 15/65/20 16/66/20 14/67/20
f 30/68/21 31/69/21 34/70/21
f 17/71/22 18/72/22 19/73/22
f 15/74/23 1/75/23 2/76/23 16/77/23
f 31/78/24 32/79/24 34/80/24
f 18/81/25 17/82/25 1/83/25 15/84/25
f 17/85/26 20/86/26 3/87/26 1/88/26
f 20/89/27 21/90/27 5/91/27 3/92/27
f 21/93/28 22/94/28 7/95/28 5/96/28
f 22/97/29 23/98/29 9/99/29 7/100/29
f 23/101/30 24/102/30 11/103/30 9/104/30
f 24/105/31 25/106/31 13/107/31 11/108/31
f 25/109/32 18/110/32 15/111/32 13/112/32
f 27/113/33 26/114/33 6/115/33 8/116/33
f 28/117/34 27/118/34 8/119/34 10/120/34
f 30/121/35 29/122/35 12/123/35 14/124/35
f 31/125/36 30/126/36 14/127/36 16/128/36
f 29/129/37 28/130/37 10/131/37 12/132/37
f 32/133/38 31/134/38 16/135/38 2/136/38
f 33/137/39 32/138/39 2/139/39 4/140/39
f 26/141/40 33/142/40 4/143/40 6/144/40
o top
v 0.015625 0.8125 0.025
v 0.015625 0.8125 -0.025
v 0.046875 0.703125 0.0375
v 0.046875 0.703125 -0.0375
v -0.015625 0.8125 0.025
v -0.015625 0.8125 -0.025
v -0.046875 0.703125 0.0375
v -0.046875 0.703125 -0.0375
vt 0.7546875 0.875
vt 0.7296875 0.875
vt 0.7234375 0.8125
vt 0.7609375 0.8125
vt 0.7921875 0.34375
vt 0.7859375 0.40625
vt 0.7609375 0.40625
vt 0.7546875 0.34375
vt 0.46875 0.40625
vt 0.5 0.40625
vt 0.5 0.4375
vt 0.46875 0.4375
vt 0.84375 0.90625
vt 0.84375 0.9375
vt 0.78125 0.9375
vt 0.78125 0.90625
vt 0.734375 0.71875
vt 0.71875 0.78125
vt 0.703125 0.78125
vt 0.6875 0.71875
vt 0.28125 0.3125
vt 0.265625 0.3125
vt 0.25 0.25
vt 0.296875 0.25
vn 0.9615239476408232 0.274721127897378 0
vn -0.9615239476408232 0.274721127897378 0
vn 0 1 0
vn 0 -1 0
vn 0 0.1135465911607319 0.9935326726564043
vn 0 0.1135465911607319 -0.9935326726564043
usemtl m_880b3ebe-ff0b-d465-5bb4-c6eda94a4483
f 36/145/41 35/146/41 37/147/41 38/148/41
f 41/149/42 39/150/42 40/151/42 42/152/42
f 39/153/43 35/154/43 36/155/43 40/156/43
f 38/157/44 37/158/44 41/159/44 42/160/44
f 37/161/45 35/162/45 39/163/45 41/164/45
f 40/165/46 36/166/46 38/167/46 42/168/46
o handle_t
v 0.15625 0.8125 0.015625
v 0.15625 0.8125 -0.015625
v -0.0375 0.775 0.015625
v -0.0375 0.775 -0.015625
v 0.1625 0.84375 0.015625
v 0.1625 0.84375 -0.015625
v -0.03125 0.825 0.015625
v -0.03125 0.825 -0.015625
vt 0.125 0.25
vt 0.09375 0.25
vt 0.09375 0.15625
vt 0.125 0.15625
vt 0.75 0.90625
vt 0.75 1
vt 0.71875 1
vt 0.71875 0.90625
vt 0.78125 0.625
vt 0.78125 0.59375
vt 0.8125 0.59375
vt 0.8125 0.625
vt 0.34375 0.1875
vt 0.375 0.1875
vt 0.375 0.21875
vt 0.34375 0.21875
vt 0.0960825 0.28125
vt 0.1947553125 0.28125
vt 0.2007925 0.30329593749999995
vt 0.10390125 0.3125
vt 0.17464625 0.25
vt 0.1598996875 0.24396281249999996
vt 0.1598996875 0.14529000000000003
vt 0.1838503125 0.15310875000000002
vn 0.1900219065658609 -0.9817798505902814 0
vn -0.09632419486019035 0.9953500135553003 0
vn 0.9805806756909201 -0.19611613513818418 0
vn -0.9922778767136679 0.12403473458920845 0
vn 0 0 1
vn 0 0 -1
usemtl m_880b3ebe-ff0b-d465-5bb4-c6eda94a4483
f 44/169/47 43/170/47 45/171/47 46/172/47
f 49/173/48 47/174/48 48/175/48 50/176/48
f 47/177/49 43/178/49 44/179/49 48/180/49
f 46/181/50 45/182/50 49/183/50 50/184/50
f 45/185/51 43/186/51 47/187/51 49/188/51
f 48/189/52 44/190/52 46/191/52 50/192/52
o handle_b
v 0.15 0.73125 0.015625
v 0.15 0.73125 -0.015625
v 0 0.75 0.015625
v 0 0.75 -0.015625
v 0.1375 0.75625 0.015625
v 0.1375 0.75625 -0.015625
v 0 0.78125 0.015625
v 0 0.78125 -0.015625
vt 0.21875 0.15625
vt 0.25 0.15625
vt 0.25 0.21875
vt 0.21875 0.21875
vt 0.78125 0.78125
vt 0.78125 0.71875
vt 0.8125 0.71875
vt 0.8125 0.78125
vt 0.78125 0.46875
vt 0.78125 0.4375
vt 0.8125 0.4375
vt 0.8125 0.46875
vt 0.40625 0.1875
vt 0.4375 0.1875
vt 0.4375 0.21875
vt 0.40625 0.21875
vt 0.2813103125 0.216811875
vt 0.2813103125 0.14122843750000003
vt 0.2929384375 0.1489803125
vt 0.2968146875 0.21875
vt 0.69555375 0.6836240625000001
vt 0.6878015625 0.65625
vt 0.7633853125 0.65625
vt 0.7653234375 0.6875
vn -0.12403473458920848 -0.9922778767136676 0
vn 0.17888543819998318 0.9838699100999075 0
vn 0.8944271909999163 0.44721359549995754 0
vn -1 0 0
vn 0 0 1
vn 0 0 -1
usemtl m_880b3ebe-ff0b-d465-5bb4-c6eda94a4483
f 52/193/53 51/194/53 53/195/53 54/196/53
f 57/197/54 55/198/54 56/199/54 58/200/54
f 55/201/55 51/202/55 52/203/55 56/204/55
f 54/205/56 53/206/56 57/207/56 58/208/56
f 53/209/57 51/210/57 55/211/57 57/212/57
f 56/213/58 52/214/58 54/215/58 58/216/58
o cylinder
v -0.33125 0.7500000000000001 0
v -0.05 0.762646875 0.015625
v -0.33125 0.8095218750000001 0.109375
v -0.049999999999999996 0.77529375 0
v -0.33125 0.8690437500000001 0
v -0.05 0.762646875 -0.015625
v -0.33125 0.8095218750000001 -0.109375
v -0.05 0.737353125 -0.015625
v -0.33125 0.690478125 -0.109375
v -0.05000000000000001 0.72470625 0
v -0.33125 0.6309562500000001 0
v -0.05 0.737353125 0.015625
v -0.33125 0.690478125 0.109375
v -0.018750000000000003 0.762646875 -0.015625
v -0.018749999999999996 0.77529375 0
v -0.018750000000000003 0.75 0
v -0.018750000000000003 0.762646875 0.015625
v -0.018750000000000006 0.7373531249999999 0.015625
v -0.01875000000000001 0.72470625 0
v -0.018750000000000006 0.7373531249999999 -0.015625
vt 0.840771875 0.8671875
vt 0.83445 0.875
vt 0.828125 0.8671875
vt 0.491709375 0.21875
vt 0.501759375 0.21875
vt 0.53125 0.36401874999999995
vt 0.47001875 0.366846875
vt 0.6235125 0.640625
vt 0.653271875 0.6953125
vt 0.59375 0.6953125
vt 0.83445 0.859375
vt 0.840771875 0.8671875
vt 0.828125 0.8671875
vt 0.654490625 0.84375
vt 0.664540625 0.84375
vt 0.68623125 0.992246875
vt 0.625 0.988625
vt 0.653271875 0.6953125
vt 0.6235125 0.75
vt 0.59375 0.6953125
vt 0.8218 0.859375
vt 0.83445 0.859375
vt 0.828125 0.8671875
vt 0.681175 0.19551874999999996
vt 0.693825 0.19551874999999996
vt 0.7172625 0.34375
vt 0.6577375 0.34375
vt 0.6235125 0.75
vt 0.5639875 0.75
vt 0.59375 0.6953125
vt 0.815478125 0.8671875
vt 0.8218 0.859375
vt 0.828125 0.8671875
vt 0.585459375 0.19565312499999998
vt 0.595509375 0.19565312499999998
vt 0.625 0.34092187500000004
vt 0.56376875 0.34375
vt 0.5639875 0.75
vt 0.534228125 0.6953125
vt 0.59375 0.6953125
vt 0.8218 0.875
vt 0.815478125 0.8671875
vt 0.828125 0.8671875
vt 0.404490625 0.289003125
vt 0.414540625 0.289003125
vt 0.43623125 0.4375
vt 0.375 0.433878125
vt 0.534228125 0.6953125
vt 0.5639875 0.640625
vt 0.59375 0.6953125
vt 0.83445 0.875
vt 0.8218 0.875
vt 0.828125 0.8671875
vt 0.024925 0.16426874999999996
vt 0.037575 0.16426874999999996
vt 0.0610125 0.3125
vt 0.0014875 0.3125
vt 0.5639875 0.640625
vt 0.6235125 0.640625
vt 0.59375 0.6953125
vt 0.654490625 0.828125
vt 0.664540625 0.828125
vt 0.664540625 0.84375
vt 0.654490625 0.84375
vt 0.024925 0.14864374999999996
vt 0.037575 0.14864374999999996
vt 0.037575 0.16426874999999996
vt 0.024925 0.16426874999999996
vt 0.491709375 0.203125
vt 0.501759375 0.203125
vt 0.501759375 0.21875
vt 0.491709375 0.21875
vt 0.404490625 0.273378125
vt 0.414540625 0.273378125
vt 0.414540625 0.289003125
vt 0.404490625 0.289003125
vt 0.585459375 0.18002812499999998
vt 0.595509375 0.18002812499999998
vt 0.595509375 0.19565312499999998
vt 0.585459375 0.19565312499999998
vt 0.681175 0.17989374999999996
vt 0.693825 0.17989374999999996
vt 0.693825 0.19551874999999996
vt 0.681175 0.19551874999999996
vn 1 -2.220446049250313e-16 0
vn 0.25081525779005936 0.7524457733701776 0.6090296089658217
vn -1 2.220446049250313e-16 0
vn 1 -2.220446049250313e-16 0
vn 0.32127622163751285 0.7360842102585443 -0.5957865597832659
vn -1 2.220446049250313e-16 0
vn 1 -2.220446049250313e-16 0
vn 0.31622776601683794 -7.021666937153402e-17 -0.948683298050514
vn -1 2.220446049250313e-16 0
vn 1 -2.220446049250313e-16 0
vn 0.25081525779005903 -0.7524457733701778 -0.6090296089658217
vn -1 2.220446049250313e-16 0
vn 1 -2.220446049250313e-16 0
vn 0.3212762216375125 -0.7360842102585445 0.5957865597832659
vn -1 2.220446049250313e-16 0
vn 1 -2.220446049250313e-16 0
vn 0.31622776601683794 -7.021666937153402e-17 0.948683298050514
vn -1 2.220446049250313e-16 0
vn 1.7259347994402497e-16 0.777291931962488 -0.6291400897304378
vn 0 0 1
vn 1.7259347994402497e-16 0.777291931962488 0.6291400897304378
vn -1.7259347994402497e-16 -0.777291931962488 0.6291400897304378
vn -1.7259347994402497e-16 -0.777291931962488 -0.6291400897304378
vn 0 0 -1
usemtl m_880b3ebe-ff0b-d465-5bb4-c6eda94a4483
f 73/217/59 75/218/59 74/219/59
f 60/220/60 62/221/60 63/222/60 61/223/60
f 61/224/61 63/225/61 59/226/61
f 72/227/62 73/228/62 74/229/62
f 62/230/63 64/231/63 65/232/63 63/233/63
f 63/234/64 65/235/64 59/236/64
f 78/237/65 72/238/65 74/239/65
f 64/240/66 66/241/66 67/242/66 65/243/66
f 65/244/67 67/245/67 59/246/67
f 77/247/68 78/248/68 74/249/68
f 66/250/69 68/251/69 69/252/69 67/253/69
f 67/254/70 69/255/70 59/256/70
f 76/257/71 77/258/71 74/259/71
f 68/260/72 70/261/72 71/262/72 69/263/72
f 69/264/73 71/265/73 59/266/73
f 75/267/74 76/268/74 74/269/74
f 70/270/75 60/271/75 61/272/75 71/273/75
f 71/274/76 61/275/76 59/276/76
f 73/277/77 72/278/77 64/279/77 62/280/77
f 76/281/78 75/282/78 60/283/78 70/284/78
f 75/285/79 73/286/79 62/287/79 60/288/79
f 77/289/80 76/290/80 70/291/80 68/292/80
f 78/293/81 77/294/81 68/295/81 66/296/81
f 72/297/82 78/298/82 66/299/82 64/300/82