# Made in Blockbench 4.12.5
mtllib fridge.mtl

o door
v 0.5625 2.0625 -0.21875
v 0.5625 2.0625 -0.40625
v 0.5625 0.0625 -0.21875
v 0.5625 0.0625 -0.40625
v 0.125 2.0625 -0.21875
v 0.125 2.0625 -0.40625
v 0.125 0.0625 -0.21875
v 0.125 0.0625 -0.40625
vt 0.578125 0.4140625
vt 0.5546875 0.4140625
vt 0.5546875 0.1640625
vt 0.578125 0.1640625
vt 0.609375 0.1640625
vt 0.609375 0.4140625
vt 0.5859375 0.4140625
vt 0.5859375 0.1640625
vt 0.703125 0.6796875
vt 0.7578125 0.6796875
vt 0.7578125 0.703125
vt 0.703125 0.703125
vt 0.7578125 0.6484375
vt 0.7578125 0.671875
vt 0.703125 0.671875
vt 0.703125 0.6484375
vt 0.0546875 0.203125
vt 0.0546875 0.453125
vt 0 0.453125
vt 0 0.203125
vt 0.1171875 0.453125
vt 0.0625 0.453125
vt 0.0625 0.203125
vt 0.1171875 0.203125
vn 1 0 0
vn -1 0 0
vn 0 1 0
vn 0 -1 0
vn 0 0 1
vn 0 0 -1
usemtl m_39279a4b-80be-e801-a05e-59edae04ff66
f 2/1/1 1/2/1 3/3/1 4/4/1
f 7/5/2 5/6/2 6/7/2 8/8/2
f 5/9/3 1/10/3 2/11/3 6/12/3
f 4/13/4 3/14/4 7/15/4 8/16/4
f 3/17/5 1/18/5 5/19/5 7/20/5
f 6/21/6 2/22/6 4/23/6 8/24/6
o handle
v 0.25 1.375 -0.46875
v 0.25 1.375 -0.53125
v 0.25 1.125 -0.46875
v 0.25 1.125 -0.53125
v 0.1875 1.375 -0.46875
v 0.1875 1.375 -0.53125
v 0.1875 1.125 -0.46875
v 0.1875 1.125 -0.53125
v 0.25 1.40625 -0.40625
v 0.25 1.46875 -0.40625
v 0.1875 1.40625 -0.40625
v 0.1875 1.46875 -0.40625
v 0.25 1.09375 -0.40625
v 0.1875 1.09375 -0.40625
v 0.25 1.03125 -0.40625
v 0.1875 1.03125 -0.40625
vt 0.203125 0.96484375
vt 0.1953125 0.96484375
vt 0.1953125 0.93359375
vt 0.203125 0.93359375
vt 0.1953125 0.87109375
vt 0.1953125 0.90234375
vt 0.1875 0.90234375
vt 0.1875 0.87109375
vt 0.1953125 0.7578125
vt 0.1953125 0.7890625
vt 0.1875 0.7890625
vt 0.1875 0.7578125
vt 0.2109375 0.7890625
vt 0.203125 0.7890625
vt 0.203125 0.7578125
vt 0.2109375 0.7578125
vt 0.5390625 0.3515625
vt 0.53125 0.3515625
vt 0.53125 0.34375
vt 0.5390625 0.34375
vt 0.1875 0.9765625
vt 0.1875 0.96875
vt 0.1953125 0.96484375
vt 0.203125 0.96484375
vt 0.5390625 0.3984375
vt 0.53125 0.3984375
vt 0.53125 0.375
vt 0.5390625 0.375
vt 0.203125 0.90625
vt 0.203125 0.9140625
vt 0.1875 0.90234375
vt 0.1953125 0.90234375
vt 0.1875 0.9296875
vt 0.1875 0.921875
vt 0.203125 0.93359375
vt 0.1953125 0.93359375
vt 0.53125 0.359375
vt 0.5390625 0.359375
vt 0.5390625 0.3671875
vt 0.53125 0.3671875
vt 0.203125 0.859375
vt 0.203125 0.8671875
vt 0.1953125 0.87109375
vt 0.1875 0.87109375
vt 0.515625 0.375
vt 0.5234375 0.375
vt 0.5234375 0.3984375
vt 0.515625 0.3984375
vn 1 0 0
vn -1 0 0
vn 0 0 1
vn 0 0 -1
vn 0 -0.8944271909999161 0.44721359549995804
vn 1 0 0
vn 0 0.8 -0.6
vn -1 0 0
vn 1 0 0
vn 0 0.8944271909999161 0.44721359549995804
vn -1 0 0
vn 0 -0.8 -0.6
usemtl m_39279a4b-80be-e801-a05e-59edae04ff66
f 10/25/7 9/26/7 11/27/7 12/28/7
f 15/29/8 13/30/8 14/31/8 16/32/8
f 11/33/9 9/34/9 13/35/9 15/36/9
f 14/37/10 10/38/10 12/39/10 16/40/10
f 17/41/11 19/42/11 13/43/11 9/44/11
f 18/45/12 17/46/12 9/47/12 10/48/12
f 20/49/13 18/50/13 10/51/13 14/52/13
f 19/53/14 20/54/14 14/55/14 13/56/14
f 21/57/15 23/58/15 12/59/15 11/60/15
f 22/61/16 21/62/16 11/63/16 15/64/16
f 24/65/17 22/66/17 15/67/17 16/68/17
f 23/69/18 24/70/18 16/71/18 12/72/18
o door
v 0.09375 2.0625 -0.21875
v 0.09375 2.0625 -0.40625
v 0.09375 0.0625 -0.21875
v 0.09375 0.0625 -0.40625
v -0.5625 2.0625 -0.21875
v -0.5625 2.0625 -0.40625
v -0.5625 0.0625 -0.21875
v -0.5625 0.0625 -0.40625
vt 0.390625 0.3984375
vt 0.3671875 0.3984375
vt 0.3671875 0.1484375
vt 0.390625 0.1484375
vt 0.421875 0.1484375
vt 0.421875 0.3984375
vt 0.3984375 0.3984375
vt 0.3984375 0.1484375
vt 0.703125 0.7421875
vt 0.7890625 0.7421875
vt 0.7890625 0.765625
vt 0.703125 0.765625
vt 0.7890625 0.7109375
vt 0.7890625 0.734375
vt 0.703125 0.734375
vt 0.703125 0.7109375
vt 0.2890625 0.4765625
vt 0.2890625 0.7265625
vt 0.203125 0.7265625
vt 0.203125 0.4765625
vt 0.3828125 0.7265625
vt 0.296875 0.7265625
vt 0.296875 0.4765625
vt 0.3828125 0.4765625
vn 1 0 0
vn -1 0 0
vn 0 1 0
vn 0 -1 0
vn 0 0 1
vn 0 0 -1
usemtl m_39279a4b-80be-e801-a05e-59edae04ff66
f 26/73/19 25/74/19 27/75/19 28/76/19
f 31/77/20 29/78/20 30/79/20 32/80/20
f 29/81/21 25/82/21 26/83/21 30/84/21
f 28/85/22 27/86/22 31/87/22 32/88/22
f 27/89/23 25/90/23 29/91/23 31/92/23
f 30/93/24 26/94/24 28/95/24 32/96/24
o handle
v 0.03125 1.375 -0.46875
v 0.03125 1.375 -0.53125
v 0.03125 1.125 -0.46875
v 0.03125 1.125 -0.53125
v -0.03125 1.375 -0.46875
v -0.03125 1.375 -0.53125
v -0.03125 1.125 -0.46875
v -0.03125 1.125 -0.53125
v 0.03125 1.40625 -0.40625
v 0.03125 1.46875 -0.40625
v -0.03125 1.40625 -0.40625
v -0.03125 1.46875 -0.40625
v 0.03125 1.09375 -0.40625
v -0.03125 1.09375 -0.40625
v 0.03125 1.03125 -0.40625
v -0.03125 1.03125 -0.40625
vt 0.203125 0.83984375
vt 0.1953125 0.83984375
vt 0.1953125 0.80859375
vt 0.203125 0.80859375
vt 0.375 0.42578125
vt 0.375 0.45703125
vt 0.3671875 0.45703125
vt 0.3671875 0.42578125
vt 0.1875 0.421875
vt 0.1875 0.453125
vt 0.1796875 0.453125
vt 0.1796875 0.421875
vt 0.1875 0.4140625
vt 0.1796875 0.4140625
vt 0.1796875 0.3828125
vt 0.1875 0.3828125
vt 0.5234375 0.3359375
vt 0.515625 0.3359375
vt 0.515625 0.328125
vt 0.5234375 0.328125
vt 0.1875 0.8515625
vt 0.1875 0.84375
vt 0.1953125 0.83984375
vt 0.203125 0.83984375
vt 0.5234375 0.3671875
vt 0.515625 0.3671875
vt 0.515625 0.34375
vt 0.5234375 0.34375
vt 0.3828125 0.4609375
vt 0.3828125 0.46875
vt 0.3671875 0.45703125
vt 0.375 0.45703125
vt 0.1875 0.8046875
vt 0.1875 0.796875
vt 0.203125 0.80859375
vt 0.1953125 0.80859375
vt 0.3515625 0.328125
vt 0.359375 0.328125
vt 0.359375 0.3359375
vt 0.3515625 0.3359375
vt 0.3828125 0.4140625
vt 0.3828125 0.421875
vt 0.375 0.42578125
vt 0.3671875 0.42578125
vt 0.3515625 0.34375
vt 0.359375 0.34375
vt 0.359375 0.3671875
vt 0.3515625 0.3671875
vn 1 0 0
vn -1 0 0
vn 0 0 1
vn 0 0 -1
vn 0 -0.8944271909999161 0.44721359549995804
vn 1 0 0
vn 0 0.8 -0.6
vn -1 0 0
vn 1 0 0
vn 0 0.8944271909999161 0.44721359549995804
vn -1 0 0
vn 0 -0.8 -0.6
usemtl m_39279a4b-80be-e801-a05e-59edae04ff66
f 34/97/25 33/98/25 35/99/25 36/100/25
f 39/101/26 37/102/26 38/103/26 40/104/26
f 35/105/27 33/106/27 37/107/27 39/108/27
f 38/109/28 34/110/28 36/111/28 40/112/28
f 41/113/29 43/114/29 37/115/29 33/116/29
f 42/117/30 41/118/30 33/119/30 34/120/30
f 44/121/31 42/122/31 34/123/31 38/124/31
f 43/125/32 44/126/32 38/127/32 37/128/32
f 45/129/33 47/130/33 36/131/33 35/132/33
f 46/133/34 45/134/34 35/135/34 39/136/34
f 48/137/35 46/138/35 39/139/35 40/140/35
f 47/141/36 48/142/36 40/143/36 36/144/36
o cuboid
v 0.0625 0.5625 0.375
v 0.0625 0.5625 -0.15625
v 0.0625 0.5 0.375
v 0.0625 0.5 -0.15625
v -0.53125 0.5625 0.375
v -0.53125 0.5625 -0.15625
v -0.53125 0.5 0.375
v -0.53125 0.5 -0.15625
vt 0.5625 0.59375
vt 0.640625 0.59375
vt 0.640625 0.6640625
vt 0.5625 0.6640625
vt 0.640625 0.515625
vt 0.640625 0.5859375
vt 0.5625 0.5859375
vt 0.5625 0.515625
vt 0.71875 0.4296875
vt 0.640625 0.4296875
vt 0.640625 0.421875
vt 0.71875 0.421875
vn 0 1 0
vn 0 -1 0
vn 0 0 -1
usemtl m_39279a4b-80be-e801-a05e-59edae04ff66
f 53/145/37 49/146/37 50/147/37 54/148/37
f 52/149/38 51/150/38 55/151/38 56/152/38
f 54/153/39 50/154/39 52/155/39 56/156/39
o cuboid
v 0.0625 1.09375 0.375
v 0.0625 1.09375 -0.15625
v 0.0625 1.03125 0.375
v 0.0625 1.03125 -0.15625
v -0.53125 1.09375 0.375
v -0.53125 1.09375 -0.15625
v -0.53125 1.03125 0.375
v -0.53125 1.03125 -0.15625
vt 0.5859375 0.9296875
vt 0.6640625 0.9296875
vt 0.6640625 1
vt 0.5859375 1
vt 0.6640625 0.8515625
vt 0.6640625 0.921875
vt 0.5859375 0.921875
vt 0.5859375 0.8515625
vt 0.7265625 0.53125
vt 0.6484375 0.53125
vt 0.6484375 0.5234375
vt 0.7265625 0.5234375
vn 0 1 0
vn 0 -1 0
vn 0 0 -1
usemtl m_39279a4b-80be-e801-a05e-59edae04ff66
f 61/157/40 57/158/40 58/159/40 62/160/40
f 60/161/41 59/162/41 63/163/41 64/164/41
f 62/165/42 58/166/42 60/167/42 64/168/42
o cuboid
v 0.0625 1.34375 0.375
v 0.0625 1.34375 -0.15625
v 0.0625 1.28125 0.375
v 0.0625 1.28125 -0.15625
v -0.53125 1.34375 0.375
v -0.53125 1.34375 -0.15625
v -0.53125 1.28125 0.375
v -0.53125 1.28125 -0.15625
vt 0.5859375 0.7734375
vt 0.6640625 0.7734375
vt 0.6640625 0.84375
vt 0.5859375 0.84375
vt 0.5078125 0.328125
vt 0.5078125 0.3984375
vt 0.4296875 0.3984375
vt 0.4296875 0.328125
vt 0.78125 0.640625
vt 0.703125 0.640625
vt 0.703125 0.6328125
vt 0.78125 0.6328125
vn 0 1 0
vn 0 -1 0
vn 0 0 -1
usemtl m_39279a4b-80be-e801-a05e-59edae04ff66
f 69/169/43 65/170/43 66/171/43 70/172/43
f 68/173/44 67/174/44 71/175/44 72/176/44
f 70/177/45 66/178/45 68/179/45 72/180/45
o cuboid
v 0.0625 1.59375 0.375
v 0.0625 1.59375 -0.15625
v 0.0625 1.53125 0.375
v 0.0625 1.53125 -0.15625
v -0.53125 1.59375 0.375
v -0.53125 1.59375 -0.15625
v -0.53125 1.53125 0.375
v -0.53125 1.53125 -0.15625
vt 0.6171875 0.34375
vt 0.6953125 0.34375
vt 0.6953125 0.4140625
vt 0.6171875 0.4140625
vt 0.2578125 0.296875
vt 0.2578125 0.3671875
vt 0.1796875 0.3671875
vt 0.1796875 0.296875
vt 0.78125 0.625
vt 0.703125 0.625
vt 0.703125 0.6171875
vt 0.78125 0.6171875
vn 0 1 0
vn 0 -1 0
vn 0 0 -1
usemtl m_39279a4b-80be-e801-a05e-59edae04ff66
f 77/181/46 73/182/46 74/183/46 78/184/46
f 76/185/47 75/186/47 79/187/47 80/188/47
f 78/189/48 74/190/48 76/191/48 80/192/48
o cuboid
v 0.0625 1.84375 0.375
v 0.0625 1.84375 -0.15625
v 0.0625 1.78125 0.375
v 0.0625 1.78125 -0.15625
v -0.53125 1.84375 0.375
v -0.53125 1.84375 -0.15625
v -0.53125 1.78125 0.375
v -0.53125 1.78125 -0.15625
vt 0.265625 0.296875
vt 0.34375 0.296875
vt 0.34375 0.3671875
vt 0.265625 0.3671875
vt 0.71875 0.4375
vt 0.71875 0.5078125
vt 0.640625 0.5078125
vt 0.640625 0.4375
vt 0.78125 0.609375
vt 0.703125 0.609375
vt 0.703125 0.6015625
vt 0.78125 0.6015625
vn 0 1 0
vn 0 -1 0
vn 0 0 -1
usemtl m_39279a4b-80be-e801-a05e-59edae04ff66
f 85/193/49 81/194/49 82/195/49 86/196/49
f 84/197/50 83/198/50 87/199/50 88/200/50
f 86/201/51 82/202/51 84/203/51 88/204/51
o cuboid
v 0.53125 1.84375 0.375
v 0.53125 1.84375 -0.15625
v 0.53125 1.78125 0.375
v 0.53125 1.78125 -0.15625
v 0.15625 1.84375 0.375
v 0.15625 1.84375 -0.15625
v 0.15625 1.78125 0.375
v 0.15625 1.78125 -0.15625
vt 0.4296875 0.25
vt 0.4765625 0.25
vt 0.4765625 0.3203125
vt 0.4296875 0.3203125
vt 0.53125 0.25
vt 0.53125 0.3203125
vt 0.484375 0.3203125
vt 0.484375 0.25
vt 0.6328125 0.765625
vt 0.5859375 0.765625
vt 0.5859375 0.7578125
vt 0.6328125 0.7578125
vn 0 1 0
vn 0 -1 0
vn 0 0 -1
usemtl m_39279a4b-80be-e801-a05e-59edae04ff66
f 93/205/52 89/206/52 90/207/52 94/208/52
f 92/209/53 91/210/53 95/211/53 96/212/53
f 94/213/54 90/214/54 92/215/54 96/216/54
o cuboid
v 0.53125 1.59375 0.375
v 0.53125 1.59375 -0.15625
v 0.53125 1.53125 0.375
v 0.53125 1.53125 -0.15625
v 0.15625 1.59375 0.375
v 0.15625 1.59375 -0.15625
v 0.15625 1.53125 0.375
v 0.15625 1.53125 -0.15625
vt 0.671875 0.7734375
vt 0.71875 0.7734375
vt 0.71875 0.84375
vt 0.671875 0.84375
vt 0.71875 0.265625
vt 0.71875 0.3359375
vt 0.671875 0.3359375
vt 0.671875 0.265625
vt 0.375 0.75
vt 0.328125 0.75
vt 0.328125 0.7421875
vt 0.375 0.7421875
vn 0 1 0
vn 0 -1 0
vn 0 0 -1
usemtl m_39279a4b-80be-e801-a05e-59edae04ff66
f 101/217/55 97/218/55 98/219/55 102/220/55
f 100/221/56 99/222/56 103/223/56 104/224/56
f 102/225/57 98/226/57 100/227/57 104/228/57
o cuboid
v 0.53125 1.34375 0.375
v 0.53125 1.34375 -0.15625
v 0.53125 1.28125 0.375
v 0.53125 1.28125 -0.15625
v 0.15625 1.34375 0.375
v 0.15625 1.34375 -0.15625
v 0.15625 1.28125 0.375
v 0.15625 1.28125 -0.15625
vt 0.671875 0.9296875
vt 0.71875 0.9296875
vt 0.71875 1
vt 0.671875 1
vt 0.71875 0.8515625
vt 0.71875 0.921875
vt 0.671875 0.921875
vt 0.671875 0.8515625
vt 0.296875 0.7734375
vt 0.25 0.7734375
vt 0.25 0.765625
vt 0.296875 0.765625
vn 0 1 0
vn 0 -1 0
vn 0 0 -1
usemtl m_39279a4b-80be-e801-a05e-59edae04ff66
f 109/229/58 105/230/58 106/231/58 110/232/58
f 108/233/59 107/234/59 111/235/59 112/236/59
f 110/237/60 106/238/60 108/239/60 112/240/60
o cuboid
v 0.53125 1.09375 0.375
v 0.53125 1.09375 -0.15625
v 0.53125 1.03125 0.375
v 0.53125 1.03125 -0.15625
v 0.15625 1.09375 0.375
v 0.15625 1.09375 -0.15625
v 0.15625 1.03125 0.375
v 0.15625 1.03125 -0.15625
vt 0.6484375 0.5390625
vt 0.6953125 0.5390625
vt 0.6953125 0.609375
vt 0.6484375 0.609375
vt 0.6640625 0.265625
vt 0.6640625 0.3359375
vt 0.6171875 0.3359375
vt 0.6171875 0.265625
vt 0.296875 0.7890625
vt 0.25 0.7890625
vt 0.25 0.78125
vt 0.296875 0.78125
vn 0 1 0
vn 0 -1 0
vn 0 0 -1
usemtl m_39279a4b-80be-e801-a05e-59edae04ff66
f 117/241/61 113/242/61 114/243/61 118/244/61
f 116/245/62 115/246/62 119/247/62 120/248/62
f 118/249/63 114/250/63 116/251/63 120/252/63
o cuboid
v 0.53125 0.5625 0.375
v 0.53125 0.5625 -0.15625
v 0.53125 0.5 0.375
v 0.53125 0.5 -0.15625
v 0.15625 0.5625 0.375
v 0.15625 0.5625 -0.15625
v 0.15625 0.5 0.375
v 0.15625 0.5 -0.15625
vt 0.6484375 0.6953125
vt 0.6953125 0.6953125
vt 0.6953125 0.765625
vt 0.6484375 0.765625
vt 0.6953125 0.6171875
vt 0.6953125 0.6875
vt 0.6484375 0.6875
vt 0.6484375 0.6171875
vt 0.296875 0.8046875
vt 0.25 0.8046875
vt 0.25 0.796875
vt 0.296875 0.796875
vn 0 1 0
vn 0 -1 0
vn 0 0 -1
usemtl m_39279a4b-80be-e801-a05e-59edae04ff66
f 125/253/64 121/254/64 122/255/64 126/256/64
f 124/257/65 123/258/65 127/259/65 128/260/65
f 126/261/66 122/262/66 124/263/66 128/264/66
o base
v 0.625 2.125 0.5
v 0.625 2.125 -0.21875
v 0.625 0 0.5
v 0.625 0 -0.21875
v -0.625 2.125 0.5
v -0.625 2.125 -0.21875
v -0.625 0 0.5
v -0.625 0 -0.21875
v 0.15625 2.125 -0.21875
v 0.15625 2.125 0.5
v 0.15625 0 0.5
v 0.15625 0 -0.21875
v 0.515625 2.125 -0.21875
v 0.515625 2.125 0.5
v 0.515625 0 0.5
v 0.515625 0 -0.21875
v 0.625 2.03125 -0.21875
v 0.625 2.03125 0.5
v 0.515625 2.03125 0.5
v 0.15625 2.03125 0.5
v -0.625 2.03125 0.5
v -0.625 2.03125 -0.21875
v 0.15625 2.03125 -0.21875
v 0.515625 2.03125 -0.21875
v -0.625 0.09375 -0.21875
v -0.625 0.09375 0.5
v 0.15625 0.09375 0.5
v 0.515625 0.09375 0.5
v 0.625 0.09375 0.5
v 0.625 0.09375 -0.21875
v 0.515625 0.09375 -0.21875
v 0.15625 0.09375 -0.21875
v 0.515625 2.03125 0.375
v 0.515625 0.09375 0.375
v 0.15625 0.09375 0.375
v 0.15625 2.03125 0.375
v 0.0625 2.125 -0.21875
v 0.0625 2.125 0.5
v 0.0625 2.03125 0.5
v 0.0625 0.09375 0.5
v 0.0625 0 0.5
v 0.0625 0 -0.21875
v 0.0625 0.09375 -0.21875
v 0.0625 2.03125 -0.21875
v -0.53125 2.125 -0.21875
v -0.53125 2.125 0.5
v -0.53125 2.03125 0.5
v -0.53125 0.09375 0.5
v -0.53125 0 0.5
v -0.53125 0 -0.21875
v -0.53125 0.09375 -0.21875
v -0.53125 2.03125 -0.21875
v 0.0625 0.09375 0.375
v -0.53125 0.09375 0.375
v -0.53125 2.03125 0.375
v 0.0625 2.03125 0.375
vt 0 0.7265625
vt 0 0.71484375
vt 0.08984375 0.71484375
vt 0.08984375 0.7265625
vt 0.1015625 0.7265625
vt 0.1015625 0.71484375
vt 0.19140625 0.71484375
vt 0.19140625 0.7265625
vt 0.390625 0.41015625
vt 0.40234375 0.41015625
vt 0.40234375 0.5
vt 0.390625 0.5
vt 0.203125 0.37890625
vt 0.21484375 0.37890625
vt 0.21484375 0.46875
vt 0.203125 0.46875
vt 0 0.98828125
vt 0.01171875 0.98828125
vt 0.01171875 1
vt 0 1
vt 0.3203125 1
vt 0.30859375 1
vt 0.30859375 0.98828125
vt 0.3203125 0.98828125
vt 0.09765625 1
vt 0.09765625 0.98828125
vt 0.142578125 0.98828125
vt 0.142578125 1
vt 0.30078125 0.37890625
vt 0.345703125 0.37890625
vt 0.345703125 0.46875
vt 0.30078125 0.46875
vt 0.177734375 1
vt 0.177734375 0.98828125
vt 0.22265625 0.98828125
vt 0.22265625 1
vt 0.546875 0.5
vt 0.533203125 0.5
vt 0.533203125 0.41015625
vt 0.546875 0.41015625
vt 0.142578125 1
vt 0.142578125 0.98828125
vt 0.15625 0.98828125
vt 0.15625 1
vt 0.359375 0.46875
vt 0.345703125 0.46875
vt 0.345703125 0.37890625
vt 0.359375 0.37890625
vt 0.1640625 1
vt 0.1640625 0.98828125
vt 0.177734375 0.98828125
vt 0.177734375 1
vt 0.08984375 0.4609375
vt 0.08984375 0.47265625
vt 0 0.47265625
vt 0 0.4609375
vt 0.15625 0.734375
vt 0.15625 0.74609375
vt 0.142578125 0.74609375
vt 0.142578125 0.734375
vt 0.142578125 0.734375
vt 0.142578125 0.74609375
vt 0.09765625 0.74609375
vt 0.09765625 0.734375
vt 0 0.734375
vt 0.01171875 0.734375
vt 0.01171875 0.74609375
vt 0 0.74609375
vt 0.19140625 0.4609375
vt 0.19140625 0.47265625
vt 0.1015625 0.47265625
vt 0.1015625 0.4609375
vt 0.3203125 0.74609375
vt 0.30859375 0.74609375
vt 0.30859375 0.734375
vt 0.3203125 0.734375
vt 0.22265625 0.734375
vt 0.22265625 0.74609375
vt 0.177734375 0.74609375
vt 0.177734375 0.734375
vt 0.177734375 0.734375
vt 0.177734375 0.74609375
vt 0.1640625 0.74609375
vt 0.1640625 0.734375
vt 0.1015625 0.71484375
vt 0.1015625 0.47265625
vt 0.19140625 0.47265625
vt 0.19140625 0.71484375
vt 0 0.74609375
vt 0.01171875 0.74609375
vt 0.01171875 0.98828125
vt 0 0.98828125
vt 0.09765625 0.98828125
vt 0.09765625 0.74609375
vt 0.142578125 0.74609375
vt 0.142578125 0.98828125
vt 0.142578125 0.98828125
vt 0.142578125 0.74609375
vt 0.15625 0.74609375
vt 0.15625 0.98828125
vt 0 0.71484375
vt 0 0.47265625
vt 0.08984375 0.47265625
vt 0.08984375 0.71484375
vt 0.1640625 0.98828125
vt 0.1640625 0.74609375
vt 0.177734375 0.74609375
vt 0.177734375 0.98828125
vt 0.125 0.453125
vt 0.125 0.2109375
vt 0.171875 0.2109375
vt 0.171875 0.453125
vt 0.3203125 0.98828125
vt 0.30859375 0.98828125
vt 0.30859375 0.74609375
vt 0.3203125 0.74609375
vt 0.40625 0.7578125
vt 0.40625 1
vt 0.328125 1
vt 0.328125 0.7578125
vt 0.25 0.8984375
vt 0.296875 0.8984375
vt 0.296875 0.9765625
vt 0.25 0.9765625
vt 0.390625 0.75
vt 0.390625 0.5078125
vt 0.46875 0.5078125
vt 0.46875 0.75
vt 0.296875 0.890625
vt 0.25 0.890625
vt 0.25 0.8125
vt 0.296875 0.8125
vt 0.48828125 0.5
vt 0.4765625 0.5
vt 0.4765625 0.41015625
vt 0.48828125 0.41015625
vt 0.09765625 1
vt 0.0859375 1
vt 0.0859375 0.98828125
vt 0.09765625 0.98828125
vt 0.09765625 0.98828125
vt 0.0859375 0.98828125
vt 0.0859375 0.74609375
vt 0.09765625 0.74609375
vt 0.09765625 0.74609375
vt 0.0859375 0.74609375
vt 0.0859375 0.734375
vt 0.09765625 0.734375
vt 0.30078125 0.46875
vt 0.2890625 0.46875
vt 0.2890625 0.37890625
vt 0.30078125 0.37890625
vt 0.22265625 0.734375
vt 0.234375 0.734375
vt 0.234375 0.74609375
vt 0.22265625 0.74609375
vt 0.22265625 0.74609375
vt 0.234375 0.74609375
vt 0.234375 0.98828125
vt 0.22265625 0.98828125
vt 0.22265625 0.98828125
vt 0.234375 0.98828125
vt 0.234375 1
vt 0.22265625 1
vt 0.0859375 1
vt 0.01171875 1
vt 0.01171875 0.98828125
vt 0.0859375 0.98828125
vt 0.0859375 0.98828125
vt 0.01171875 0.98828125
vt 0.01171875 0.74609375
vt 0.0859375 0.74609375
vt 0.0859375 0.74609375
vt 0.01171875 0.74609375
vt 0.01171875 0.734375
vt 0.0859375 0.734375
vt 0.2890625 0.46875
vt 0.21484375 0.46875
vt 0.21484375 0.37890625
vt 0.2890625 0.37890625
vt 0.234375 0.734375
vt 0.30859375 0.734375
vt 0.30859375 0.74609375
vt 0.234375 0.74609375
vt 0.4140625 0.7578125
vt 0.4921875 0.7578125
vt 0.4921875 1
vt 0.4140625 1
vt 0.234375 0.98828125
vt 0.30859375 0.98828125
vt 0.30859375 1
vt 0.234375 1
vt 0.5546875 0.421875
vt 0.6328125 0.421875
vt 0.6328125 0.5
vt 0.5546875 0.5
vt 0.4765625 0.75
vt 0.4765625 0.5078125
vt 0.5546875 0.5078125
vt 0.5546875 0.75
vt 0.640625 0.75
vt 0.5625 0.75
vt 0.5625 0.671875
vt 0.640625 0.671875
vt 0.578125 0.7578125
vt 0.578125 1
vt 0.5 1
vt 0.5 0.7578125
vt 0.48828125 0.41015625
vt 0.533203125 0.41015625
vt 0.533203125 0.5
vt 0.48828125 0.5
vt 0.4765625 0.5
vt 0.40234375 0.5
vt 0.40234375 0.41015625
vt 0.4765625 0.41015625
vn 1 0 0
vn -1 0 0
vn 0 1 0
vn 0 -1 0
vn 0 0 1
vn 0 0 -1
vn 0 0 1
vn 0 -1 0
vn 0 0 -1
vn 0 1 0
vn 0 0 1
vn 0 -1 0
vn 0 0 -1
vn 1 0 0
vn 0 0 1
vn 0 0 1
vn 0 0 1
vn -1 0 0
vn 0 0 -1
vn 0 0 -1
vn 0 0 -1
vn -1 0 0
vn 0 0 1
vn 0 0 1
vn 0 0 1
vn 1 0 0
vn 0 0 -1
vn 0 0 -1
vn 0 0 -1
vn -1 0 0
vn 0 1 0
vn 1 0 0
vn 0 -1 0
vn 0 1 0
vn 0 0 1
vn 0 0 1
vn 0 0 1
vn 0 -1 0
vn 0 0 -1
vn 0 0 -1
vn 0 0 -1
vn 0 0 1
vn 0 0 1
vn 0 0 1
vn 0 -1 0
vn 0 0 -1
vn 0 0 -1
vn 0 0 -1
vn 0 1 0
vn 1 0 0
vn 0 -1 0
vn -1 0 0
vn 0 1 0
vn 0 1 0
usemtl m_39279a4b-80be-e801-a05e-59edae04ff66
f 129/265/67 146/266/67 145/267/67 130/268/67
f 134/269/68 150/270/68 149/271/68 133/272/68
f 133/273/69 174/274/69 173/275/69 134/276/69
f 136/277/70 178/278/70 177/279/70 135/280/70
f 149/281/71 175/282/71 174/283/71 133/284/71
f 134/285/72 173/286/72 180/287/72 150/288/72
f 138/289/73 148/290/73 147/291/73 142/292/73
f 140/293/74 144/294/74 143/295/74 139/296/74
f 141/297/75 152/298/75 151/299/75 137/300/75
f 130/301/76 141/302/76 142/303/76 129/304/76
f 142/305/77 147/306/77 146/307/77 129/308/77
f 131/309/78 143/310/78 144/311/78 132/312/78
f 130/313/79 145/314/79 152/315/79 141/316/79
f 132/317/80 158/318/80 157/319/80 131/320/80
f 131/321/81 157/322/81 156/323/81 143/324/81
f 143/325/82 156/326/82 155/327/82 139/328/82
f 135/329/83 177/330/83 176/331/83 154/332/83
f 135/333/84 154/334/84 153/335/84 136/336/84
f 153/337/85 179/338/85 178/339/85 136/340/85
f 140/341/86 160/342/86 159/343/86 144/344/86
f 144/345/87 159/346/87 158/347/87 132/348/87
f 150/349/88 153/350/88 154/351/88 149/352/88
f 154/353/89 176/354/89 175/355/89 149/356/89
f 148/357/90 155/358/90 156/359/90 147/360/90
f 147/361/91 156/362/91 157/363/91 146/364/91
f 146/365/92 157/366/92 158/367/92 145/368/92
f 145/369/93 158/370/93 159/371/93 152/372/93
f 161/373/94 162/374/94 163/375/94 164/376/94
f 150/377/95 180/378/95 179/379/95 153/380/95
f 162/381/96 161/382/96 152/383/96 159/384/96
f 163/385/97 162/386/97 159/387/97 160/388/97
f 164/389/98 163/390/98 160/391/98 151/392/98
f 161/393/99 164/394/99 151/395/99 152/396/99
f 137/397/100 165/398/100 166/399/100 138/400/100
f 138/401/101 166/402/101 167/403/101 148/404/101
f 148/405/102 167/406/102 168/407/102 155/408/102
f 155/409/103 168/410/103 169/411/103 139/412/103
f 139/413/104 169/414/104 170/415/104 140/416/104
f 140/417/105 170/418/105 171/419/105 160/420/105
f 160/421/106 171/422/106 172/423/106 151/424/106
f 151/425/107 172/426/107 165/427/107 137/428/107
f 166/429/108 174/430/108 175/431/108 167/432/108
f 167/433/109 175/434/109 176/435/109 168/436/109
f 168/437/110 176/438/110 177/439/110 169/440/110
f 169/441/111 177/442/111 178/443/111 170/444/111
f 170/445/112 178/446/112 179/447/112 171/448/112
f 181/449/113 182/450/113 183/451/113 184/452/113
f 172/453/114 180/454/114 173/455/114 165/456/114
f 182/457/115 181/458/115 171/459/115 179/460/115
f 183/461/116 182/462/116 179/463/116 180/464/116
f 184/465/117 183/466/117 180/467/117 172/468/117
f 181/469/118 184/470/118 172/471/118 171/472/118
f 138/473/119 142/474/119 141/475/119 137/476/119
f 165/477/120 173/478/120 174/479/120 166/480/120