# Made in Blockbench 4.12.5
mtllib guide_line_1.mtl

o cuboid
v 0.0625 0.03125 0.5
v 0.0625 0.03125 -0.5
v 0.0625 0 0.5
v 0.0625 0 -0.5
v -0.0625 0.03125 0.5
v -0.0625 0.03125 -0.5
v -0.0625 0 0.5
v -0.0625 0 -0.5
vt 0.6875 1
vt 0.1875 1
vt 0.1875 0.96875
vt 0.6875 0.96875
vt 0.6875 0.90625
vt 0.6875 0.9375
vt 0.1875 0.9375
vt 0.1875 0.90625
vt 0 0.5
vt 0.0625 0.5
vt 0.0625 1
vt 0 1
vt 0.15625 0.5
vt 0.15625 1
vt 0.09375 1
vt 0.09375 0.5
vt 0.25 0.84375
vt 0.25 0.875
vt 0.1875 0.875
vt 0.1875 0.84375
vt 0.25 0.8125
vt 0.1875 0.8125
vt 0.1875 0.78125
vt 0.25 0.78125
vn 1 0 0
vn -1 0 0
vn 0 1 0
vn 0 -1 0
vn 0 0 1
vn 0 0 -1
usemtl m_c60e4d9f-0c4d-9ce1-d63f-bf2a28ba57ba
f 2/1/1 1/2/1 3/3/1 4/4/1
f 7/5/2 5/6/2 6/7/2 8/8/2
f 5/9/3 1/10/3 2/11/3 6/12/3
f 4/13/4 3/14/4 7/15/4 8/16/4
f 3/17/5 1/18/5 5/19/5 7/20/5
f 6/21/6 2/22/6 4/23/6 8/24/6