# Made in Blockbench 4.12.5
mtllib guide_line_3.mtl

o cuboid
v 0.0625 0.03125 1.5
v 0.0625 0.03125 -1.5
v 0.0625 0 1.5
v 0.0625 0 -1.5
v -0.0625 0.03125 1.5
v -0.0625 0.03125 -1.5
v -0.0625 0 1.5
v -0.0625 0 -1.5
vt 0.84375 1
vt 0.09375 1
vt 0.09375 0.984375
vt 0.84375 0.984375
vt 0.84375 0.953125
vt 0.84375 0.96875
vt 0.09375 0.96875
vt 0.09375 0.953125
vt 0 0.25
vt 0.03125 0.25
vt 0.03125 1
vt 0 1
vt 0.078125 0.25
vt 0.078125 1
vt 0.046875 1
vt 0.046875 0.25
vt 0.125 0.921875
vt 0.125 0.9375
vt 0.09375 0.9375
vt 0.09375 0.921875
vt 0.125 0.90625
vt 0.09375 0.90625
vt 0.09375 0.890625
vt 0.125 0.890625
vn 1 0 0
vn -1 0 0
vn 0 1 0
vn 0 -1 0
vn 0 0 1
vn 0 0 -1
usemtl m_b8172620-3185-7f64-b017-1b6678ab28f7
f 2/1/1 1/2/1 3/3/1 4/4/1
f 7/5/2 5/6/2 6/7/2 8/8/2
f 5/9/3 1/10/3 2/11/3 6/12/3
f 4/13/4 3/14/4 7/15/4 8/16/4
f 3/17/5 1/18/5 5/19/5 7/20/5
f 6/21/6 2/22/6 4/23/6 8/24/6