# Made in Blockbench 4.12.5
mtllib hood.mtl

o body
v 0.5 0.28125 0.5
v 0.4375 0.1875 -0.25
v 0.5 0 0.5
v 0.4375 0 -0.25
v 0.46875 0.28125 0.125
v 0.46875 0 0.125
v -0.5 0.28125 0.5
v -0.4375 0.1875 -0.25
v -0.5 0 0.5
v -0.4375 0 -0.25
v -0.46875 0.28125 0.125
v -0.46875 0 0.125
vt 0.265625 0.8359375
vt 0.3597 0.8359375
vt 0.3597 0.90625
vt 0.265625 0.90625
vt 0.25 0.809615625
vt 0.2421875 0.903365625
vt 0.0078125 0.903365625
vt 0 0.809615625
vt 0 0.78125
vt 0.0078125 0.6875
vt 0.2421875 0.6875
vt 0.25 0.78125
vt 0.515625 0.921875
vt 0.515625 1
vt 0.265625 1
vt 0.265625 0.921875
vt 0.484375 0.71875
vt 0.265625 0.71875
vt 0.265625 0.671875
vt 0.484375 0.671875
vt 0.453775 0.8828125
vt 0.3597 0.90625
vt 0.3597 0.8359375
vt 0.453775 0.8359375
vt 0.234375 0.59375
vt 0.2421875 0.6875
vt 0.0078125 0.6875
vt 0.015625 0.59375
vt 0.015625 1
vt 0.0078125 0.903365625
vt 0.2421875 0.903365625
vt 0.234375 1
vt 0.3668625 0.8125
vt 0.3668625 0.7421875
vt 0.4609375 0.7421875
vt 0.4609375 0.8125
vt 0.3668625 0.7421875
vt 0.3668625 0.8125
vt 0.2727875 0.7890625
vt 0.2727875 0.7421875
vn 0.9965457582448798 0 -0.08304547985373997
vn 0 1 0
vn 0 -1 0
vn 0 0 1
vn 0 0 -1
vn 0.9965457582448798 0 -0.08304547985373997
vn 0 -1 0
vn 0 0.9701425001453319 -0.24253562503633297
vn -0.9965457582448798 0 -0.08304547985373997
vn -0.9965457582448798 0 -0.08304547985373997
usemtl m_2b83c2a4-d35b-58f5-fe44-a8d47df14f32
f 3/1/1 6/2/1 5/3/1 1/4/1
f 1/5/2 5/6/2 11/7/2 7/8/2
f 9/9/3 12/10/3 6/11/3 3/12/3
f 3/13/4 1/14/4 7/15/4 9/16/4
f 8/17/5 2/18/5 4/19/5 10/20/5
f 2/21/6 5/22/6 6/23/6 4/24/6
f 4/25/7 6/26/7 12/27/7 10/28/7
f 8/29/8 11/30/8 5/31/8 2/32/8
f 11/33/9 12/34/9 9/35/9 7/36/9
f 12/37/10 11/38/10 8/39/10 10/40/10