# Made in Blockbench 4.12.5
mtllib keycard_reader.mtl

o cuboid
v 0.09375 0.25 0.09375
v 0.09375 0 0.09375
v 0.078125 0 0.03125
v -0.09375 0.25 0.09375
v -0.09375 0 0.09375
v -0.078125 0 0.03125
v -0.0625 0.1875 0
v -0.09375 0.1875 0.09375
v 0.09375 0.1875 0.09375
v 0.0625 0.1875 0
vt 0.503475 0.12486249999999999
vt 0.57265 0.5
vt 0.375 0.5
vt 0.375 0.12512499999999993
vt 0.25 0
vt 0.25 0.375
vt 0.05235000000000001 0.375
vt 0.12152500000000002 0
vt 0.96875 0.25
vt 1 0.375
vt 0.625 0.375
vt 0.65625 0.25
vt 0.375 0.5
vt 0.375 0.875
vt 0 0.875
vt 0 0.5
vt 0.6875 0.625
vt 0.65625 1
vt 0.40625 1
vt 0.375 0.625
vt 0 1
vt 0 0.875
vt 0.375 0.875
vt 0.375 1
vt 0.375 0.625
vt 0.375 0.5
vt 0.57265 0.5
vt 0.05235000000000001 0.375
vt 0.25 0.375
vt 0.25 0.5
vt 0.9375 0.375
vt 1 0.625
vt 0.625 0.625
vt 0.6875 0.375
vn 0.9483540655928983 0.02634316848869162 -0.3161180218642994
vn -0.948683298050514 0 -0.316227766016838
vn 0 -1 0
vn 0 0 1
vn 0 -0.1643989873053573 -0.9863939238321437
vn 0 0 1
vn 0.948683298050514 0 -0.316227766016838
vn -0.948683298050514 0 -0.316227766016838
vn 0 0.8320502943378438 -0.5547001962252291
usemtl m_f0a2ae04-8fde-fbd4-a7e4-3cf58f557fa7
f 3/1/1 10/2/1 9/3/1 2/4/1
f 5/5/2 8/6/2 7/7/2 6/8/2
f 3/9/3 2/10/3 5/11/3 6/12/3
f 2/13/4 9/14/4 8/15/4 5/16/4
f 6/17/5 7/18/5 10/19/5 3/20/5
f 4/21/6 8/22/6 9/23/6 1/24/6
f 1/25/7 9/26/7 10/27/7
f 7/28/8 8/29/8 4/30/8
f 7/31/9 4/32/9 1/33/9 10/34/9