# Made in Blockbench 4.12.5
mtllib keycard.mtl

o cuboid
v 0.078125 0.015625 0.125
v 0.078125 0 0.125
v -0.078125 0.015625 0.125
v -0.078125 0.015625 -0.125
v -0.078125 0 0.125
v -0.078125 0 -0.125
v 0.03125 0.015625 -0.125
v 0.03125 0.015625 0.125
v 0.03125 0 0.125
v 0.03125 0 -0.125
v 0.078125 0.015625 -0.078125
v 0.078125 0 -0.078125
v 0.03125 0 -0.078125
v -0.078125 0 -0.078125
v -0.078125 0.015625 -0.078125
v 0.03125 0.015625 -0.078125
vt 0 0.625
vt 0.1875 0.625
vt 0.1875 0.6875
vt 0 0.6875
vt 0.25 0.5625
vt 0.046875 0.5625
vt 0.046875 0.546875
vt 0.25 0.546875
vt 0.109375 0.75
vt 0.109375 0.953125
vt 0 0.953125
vt 0 0.75
vt 0.25 1
vt 0.25 0.796875
vt 0.359375 0.796875
vt 0.359375 1
vt 0.4375 0.671875
vt 0.546875 0.671875
vt 0.546875 0.6875
vt 0.4375 0.6875
vt 0.375 0.6875
vt 0.25 0.6875
vt 0.25 0.625
vt 0.375 0.625
vt 0.15625 0.75
vt 0.15625 0.953125
vt 0.109375 0.953125
vt 0.109375 0.75
vt 0.59375 0.6875
vt 0.546875 0.6875
vt 0.546875 0.671875
vt 0.59375 0.671875
vt 0.359375 1
vt 0.359375 0.796875
vt 0.40625 0.796875
vt 0.40625 1
vt 0.359375 0.75
vt 0.359375 0.796875
vt 0.25 0.796875
vt 0.25 0.75
vt 0 0.546875
vt 0.046875 0.546875
vt 0.046875 0.5625
vt 0 0.5625
vt 0 1
vt 0 0.953125
vt 0.109375 0.953125
vt 0.109375 1
vt 0.109375 1
vt 0.109375 0.953125
vt 0.15625 0.953125
vt 0.40625 0.796875
vt 0.359375 0.796875
vt 0.359375 0.75
vt 0.375 0.5
vt 0.375 0.5625
vt 0.3125 0.5625
vt 0.3125 0.5
vn 1 0 0
vn -1 0 0
vn 0 1 0
vn 0 -1 0
vn 0 0 1
vn 0 0 -1
vn 0 1 0
vn 0 0 1
vn 0 -1 0
vn 0 -1 0
vn -1 0 0
vn 0 1 0
vn 0 1 0
vn 0 -1 0
vn 0.7071067811865476 0 -0.7071067811865476
usemtl m_de067909-df02-e1a2-162b-e428104d5d20
f 2/1/1 12/2/1 11/3/1 1/4/1
f 3/5/2 15/6/2 14/7/2 5/8/2
f 8/9/3 16/10/3 15/11/3 3/12/3
f 5/13/4 14/14/4 13/15/4 9/16/4
f 5/17/5 9/18/5 8/19/5 3/20/5
f 4/21/6 7/22/6 10/23/6 6/24/6
f 1/25/7 11/26/7 16/27/7 8/28/7
f 1/29/8 8/30/8 9/31/8 2/32/8
f 9/33/9 13/34/9 12/35/9 2/36/9
f 10/37/10 13/38/10 14/39/10 6/40/10
f 6/41/11 14/42/11 15/43/11 4/44/11
f 4/45/12 15/46/12 16/47/12 7/48/12
f 7/49/13 16/50/13 11/51/13
f 12/52/14 13/53/14 10/54/14
f 10/55/15 7/56/15 11/57/15 12/58/15