# Made in Blockbench 4.12.5
mtllib lamp.mtl

o body
v 0.09375 0.125 0.1875
v 0.09375 0.125 -0.1875
v 0.09375 0 0.1875
v 0.09375 0 -0.1875
v -0.09375 0.125 0.1875
v -0.09375 0.125 -0.1875
v -0.09375 0 0.1875
v -0.09375 0 -0.1875
v 0.0625 0 0.1875
v 0.0625 0 -0.1875
v 0.0625 0.125 -0.1875
v 0.0625 0.125 0.1875
v -0.0625 0 0.1875
v -0.0625 0 -0.1875
v -0.0625 0.125 -0.1875
v -0.0625 0.125 0.1875
v 0.09375 0 0.15625
v 0.09375 0.125 0.15625
v 0.0625 0.125 0.15625
v -0.0625 0.125 0.15625
v -0.09375 0.125 0.15625
v -0.09375 0 0.15625
v -0.0625 0 0.15625
v 0.0625 0 0.15625
v 0.09375 0 -0.15625
v 0.09375 0.125 -0.15625
v 0.0625 0.125 -0.15625
v -0.0625 0.125 -0.15625
v -0.09375 0.125 -0.15625
v -0.09375 0 -0.15625
v -0.0625 0 -0.15625
v 0.0625 0 -0.15625
v -0.0625 0.09375 0.15625
v -0.0625 0.09375 -0.15625
v 0.0625 0.09375 -0.15625
v 0.0625 0.09375 0.15625
vt 0.1875 0.78125
vt 0.171875 0.78125
vt 0.171875 0.71875
vt 0.1875 0.71875
vt 0.21875 0.71875
vt 0.234375 0.71875
vt 0.234375 0.78125
vt 0.21875 0.78125
vt 0 1
vt 0 0.984375
vt 0.015625 0.984375
vt 0.015625 1
vt 0.140625 0.8125
vt 0.140625 0.828125
vt 0.125 0.828125
vt 0.125 0.8125
vt 0.34375 0.9375
vt 0.359375 0.9375
vt 0.359375 1
vt 0.34375 1
vt 0.4375 0.90625
vt 0.421875 0.90625
vt 0.421875 0.84375
vt 0.4375 0.84375
vt 0.21875 0.8125
vt 0.21875 0.828125
vt 0.203125 0.828125
vt 0.203125 0.8125
vt 0.34375 0.84375
vt 0.359375 0.84375
vt 0.359375 0.90625
vt 0.34375 0.90625
vt 0.078125 1
vt 0.078125 0.984375
vt 0.09375 0.984375
vt 0.09375 1
vt 0.4375 1
vt 0.421875 1
vt 0.421875 0.9375
vt 0.4375 0.9375
vt 0.203125 0.8125
vt 0.203125 0.828125
vt 0.140625 0.828125
vt 0.140625 0.8125
vt 0.359375 0.84375
vt 0.421875 0.84375
vt 0.421875 0.90625
vt 0.359375 0.90625
vt 0.015625 1
vt 0.015625 0.984375
vt 0.078125 0.984375
vt 0.078125 1
vt 0.421875 1
vt 0.359375 1
vt 0.359375 0.9375
vt 0.421875 0.9375
vt 0 0.71875
vt 0.015625 0.71875
vt 0.015625 0.78125
vt 0 0.78125
vt 0.09375 0.8125
vt 0.09375 0.828125
vt 0.078125 0.828125
vt 0.078125 0.8125
vt 0.078125 0.8125
vt 0.078125 0.828125
vt 0.015625 0.828125
vt 0.015625 0.8125
vt 0.015625 0.8125
vt 0.015625 0.828125
vt 0 0.828125
vt 0 0.8125
vt 0.40625 0.78125
vt 0.390625 0.78125
vt 0.390625 0.71875
vt 0.40625 0.71875
vt 0.125 1
vt 0.125 0.984375
vt 0.140625 0.984375
vt 0.140625 1
vt 0.140625 1
vt 0.140625 0.984375
vt 0.203125 0.984375
vt 0.203125 1
vt 0.203125 1
vt 0.203125 0.984375
vt 0.21875 0.984375
vt 0.21875 1
vt 0.015625 0.71875
vt 0.171875 0.71875
vt 0.171875 0.78125
vt 0.015625 0.78125
vt 0.09375 0.828125
vt 0.09375 0.984375
vt 0.078125 0.984375
vt 0.078125 0.828125
vt 0.078125 0.828125
vt 0.078125 0.984375
vt 0.015625 0.984375
vt 0.015625 0.828125
vt 0.015625 0.828125
vt 0.015625 0.984375
vt 0 0.984375
vt 0 0.828125
vt 0.390625 0.78125
vt 0.234375 0.78125
vt 0.234375 0.71875
vt 0.390625 0.71875
vt 0.125 0.984375
vt 0.125 0.828125
vt 0.140625 0.828125
vt 0.140625 0.984375
vt 0.25 1
vt 0.25 0.84375
vt 0.3125 0.84375
vt 0.3125 1
vt 0.203125 0.984375
vt 0.203125 0.828125
vt 0.21875 0.828125
vt 0.21875 0.984375
vt 0.15625 0.6875
vt 0 0.6875
vt 0 0.625
vt 0.15625 0.625
vt 0.1875 0.59375
vt 0.125 0.59375
vt 0.125 0.53125
vt 0.1875 0.53125
vt 0.34375 0.6875
vt 0.1875 0.6875
vt 0.1875 0.625
vt 0.34375 0.625
vt 0.28125 0.59375
vt 0.21875 0.59375
vt 0.21875 0.53125
vt 0.28125 0.53125
vn 1 0 0
vn -1 0 0
vn 0 1 0
vn 0 -1 0
vn 0 0 1
vn 0 0 -1
vn 0 -1 0
vn 0 0 -1
vn 0 1 0
vn 0 0 1
vn 0 -1 0
vn 0 0 -1
vn 0 1 0
vn 0 0 1
vn 1 0 0
vn 0 1 0
vn 0 1 0
vn 0 1 0
vn -1 0 0
vn 0 -1 0
vn 0 -1 0
vn 0 -1 0
vn 1 0 0
vn 0 1 0
vn 0 1 0
vn 0 1 0
vn -1 0 0
vn 0 -1 0
vn 0 -1 0
vn 0 -1 0
vn 1 0 0
vn 0 0 1
vn -1 0 0
vn 0 0 -1
usemtl m_1f0e8d41-f7a5-369d-74d5-b8e085e7bb74
f 2/1/1 26/2/1 25/3/1 4/4/1
f 8/5/2 30/6/2 29/7/2 6/8/2
f 6/9/3 29/10/3 28/11/3 15/12/3
f 14/13/4 31/14/4 30/15/4 8/16/4
f 7/17/5 13/18/5 16/19/5 5/20/5
f 6/21/6 15/22/6 14/23/6 8/24/6
f 4/25/7 25/26/7 32/27/7 10/28/7
f 4/29/8 10/30/8 11/31/8 2/32/8
f 11/33/9 27/34/9 26/35/9 2/36/9
f 1/37/10 12/38/10 9/39/10 3/40/10
f 10/41/11 32/42/11 31/43/11 14/44/11
f 10/45/12 14/46/12 15/47/12 11/48/12
f 15/49/13 28/50/13 27/51/13 11/52/13
f 12/53/14 16/54/14 13/55/14 9/56/14
f 3/57/15 17/58/15 18/59/15 1/60/15
f 1/61/16 18/62/16 19/63/16 12/64/16
f 12/65/17 19/66/17 20/67/17 16/68/17
f 16/69/18 20/70/18 21/71/18 5/72/18
f 5/73/19 21/74/19 22/75/19 7/76/19
f 7/77/20 22/78/20 23/79/20 13/80/20
f 13/81/21 23/82/21 24/83/21 9/84/21
f 9/85/22 24/86/22 17/87/22 3/88/22
f 17/89/23 25/90/23 26/91/23 18/92/23
f 18/93/24 26/94/24 27/95/24 19/96/24
f 19/97/25 27/98/25 28/99/25 20/100/25
f 20/101/26 28/102/26 29/103/26 21/104/26
f 21/105/27 29/106/27 30/107/27 22/108/27
f 22/109/28 30/110/28 31/111/28 23/112/28
f 33/113/29 34/114/29 35/115/29 36/116/29
f 24/117/30 32/118/30 25/119/30 17/120/30
f 34/121/31 33/122/31 23/123/31 31/124/31
f 35/125/32 34/126/32 31/127/32 32/128/32
f 36/129/33 35/130/33 32/131/33 24/132/33
f 33/133/34 36/134/34 24/135/34 23/136/34
o bulb
v 0 0.031249999999999965 -0.15625
v 0 0.031250000000000035 0.15625
v 0.036084375 -0.03125000000000003 -0.15625
v 0.036084375 -0.031249999999999965 0.15625
v 0.07216875 0.031249999999999965 -0.15625
v 0.07216875 0.031250000000000035 0.15625
v -0.07216875 0.031249999999999965 -0.15625
v -0.07216875 0.031250000000000035 0.15625
v -0.036084375 -0.03125000000000003 -0.15625
v -0.036084375 -0.031249999999999965 0.15625
vt 0.512646875 0.78125
vt 0.49460625 0.8125
vt 0.4765625 0.78125
vt 0.0625 0.4375
vt 0.09375 0.4375
vt 0.09375 0.59375
vt 0.0625 0.59375
vt 0.49460625 0.71875
vt 0.512646875 0.75
vt 0.4765625 0.75
vt 0.45851875 0.8125
vt 0.440478125 0.78125
vt 0.4765625 0.78125
vt 0 0.4375
vt 0.03125 0.4375
vt 0.03125 0.59375
vt 0 0.59375
vt 0.440478125 0.75
vt 0.45851875 0.71875
vt 0.4765625 0.75
vt 0.49460625 0.8125
vt 0.45851875 0.8125
vt 0.4765625 0.78125
vt 0.375 0.53125
vt 0.40625 0.53125
vt 0.40625 0.6875
vt 0.375 0.6875
vt 0.45851875 0.71875
vt 0.49460625 0.71875
vt 0.4765625 0.75
vn 0 -2.220446049250313e-16 -1
vn 0.8660255047305425 -0.49999982515617875 1.1102226363938844e-16
vn 0 2.220446049250313e-16 1
vn 0 -2.220446049250313e-16 -1
vn -0.8660255047305425 -0.49999982515617875 1.1102226363938844e-16
vn 0 2.220446049250313e-16 1
vn 0 -2.220446049250313e-16 -1
vn 0 -1 2.220446049250313e-16
vn 0 2.220446049250313e-16 1
usemtl m_1f0e8d41-f7a5-369d-74d5-b8e085e7bb74
f 41/137/35 39/138/35 37/139/35
f 39/140/36 41/141/36 42/142/36 40/143/36
f 40/144/37 42/145/37 38/146/37
f 45/147/38 43/148/38 37/149/38
f 43/150/39 45/151/39 46/152/39 44/153/39
f 44/154/40 46/155/40 38/156/40
f 39/157/41 45/158/41 37/159/41
f 45/160/42 39/161/42 40/162/42 46/163/42
f 46/164/43 40/165/43 38/166/43