# Made in Blockbench 4.12.5
mtllib lever_handle.mtl

o handle
v 0.04375 0 0
v -0.04375 0 0
v 0.04375 0.01875 -0.0117925
v -0.04375 0.01875 -0.0117925
v 0.04375 0 -0.023584375
v -0.04375 0 -0.023584375
v 0.04375 -0.01875 -0.0117925
v -0.04375 -0.01875 -0.0117925
v 0.04375 -0.01875 0.0117925
v -0.04375 -0.01875 0.0117925
v 0.04375 0 0.023584375
v -0.04375 0 0.023584375
v 0.04375 0.01875 0.0117925
v -0.04375 0.01875 0.0117925
vt 0.609675 0.6875
vt 0.5860875 0.725
vt 0.5625 0.6875
vt 0.5 1
vt 0.5 0.875
vt 0.625 0.875
vt 0.625 1
vt 0.2889125 0.475
vt 0.265325 0.4375
vt 0.3125 0.4375
vt 0.5860875 0.65
vt 0.609675 0.6875
vt 0.5625 0.6875
vt 0.25 1
vt 0.25 0.875
vt 0.375 0.875
vt 0.375 1
vt 0.265325 0.4375
vt 0.2889125 0.4
vt 0.3125 0.4375
vt 0.5389125 0.65
vt 0.5860875 0.65
vt 0.5625 0.6875
vt 0.125 0.625
vt 0.125 0.75
vt 0 0.75
vt 0 0.625
vt 0.2889125 0.4
vt 0.3360875 0.4
vt 0.3125 0.4375
vt 0.515325 0.6875
vt 0.5389125 0.65
vt 0.5625 0.6875
vt 0.125 0.375
vt 0.125 0.5
vt 0 0.5
vt 0 0.375
vt 0.3360875 0.4
vt 0.359675 0.4375
vt 0.3125 0.4375
vt 0.5389125 0.725
vt 0.515325 0.6875
vt 0.5625 0.6875
vt 0.375 0.625
vt 0.375 0.75
vt 0.25 0.75
vt 0.25 0.625
vt 0.359675 0.4375
vt 0.3360875 0.475
vt 0.3125 0.4375
vt 0.5860875 0.725
vt 0.5389125 0.725
vt 0.5625 0.6875
vt 0.125 1
vt 0 1
vt 0 0.875
vt 0.125 0.875
vt 0.3360875 0.475
vt 0.2889125 0.475
vt 0.3125 0.4375
vn 1 0 0
vn 0 0.5323708989602991 -0.8465112083960867
vn -1 0 0
vn 1 0 0
vn 0 -0.5323708989602991 -0.8465112083960867
vn -1 0 0
vn 1 0 0
vn 0 -1 0
vn -1 0 0
vn 1 0 0
vn 0 -0.5323708989602991 0.8465112083960867
vn -1 0 0
vn 1 0 0
vn 0 0.5323708989602991 0.8465112083960867
vn -1 0 0
vn 1 0 0
vn 0 1 0
vn -1 0 0
usemtl m_16c4aedc-e26e-99c9-e32b-c71991e513ed
f 5/1/1 3/2/1 1/3/1
f 3/4/2 5/5/2 6/6/2 4/7/2
f 4/8/3 6/9/3 2/10/3
f 7/11/4 5/12/4 1/13/4
f 5/14/5 7/15/5 8/16/5 6/17/5
f 6/18/6 8/19/6 2/20/6
f 9/21/7 7/22/7 1/23/7
f 7/24/8 9/25/8 10/26/8 8/27/8
f 8/28/9 10/29/9 2/30/9
f 11/31/10 9/32/10 1/33/10
f 9/34/11 11/35/11 12/36/11 10/37/11
f 10/38/12 12/39/12 2/40/12
f 13/41/13 11/42/13 1/43/13
f 11/44/14 13/45/14 14/46/14 12/47/14
f 12/48/15 14/49/15 2/50/15
f 3/51/16 13/52/16 1/53/16
f 13/54/17 3/55/17 4/56/17 14/57/17
f 14/58/18 4/59/18 2/60/18