# Made in Blockbench 4.12.5
mtllib lever_base.mtl

o body
v -0.12499999999999993 0.046875 0.328125
v 0.12500000000000008 0.046875 0.328125
v -0.12499999999999993 0 0.328125
v 0.12500000000000008 0 0.328125
v -0.12500000000000008 0.046875 -0.328125
v 0.12499999999999993 0.046875 -0.328125
v -0.12500000000000008 0 -0.328125
v 0.12499999999999993 0 -0.328125
v 0.09375000000000007 0.046875 0.328125
v 0.09375000000000007 0 0.328125
v 0.09374999999999993 0 -0.328125
v 0.09374999999999993 0.046875 -0.328125
v -0.09374999999999993 0.046875 0.328125
v -0.09374999999999993 0 0.328125
v -0.09375000000000007 0 -0.328125
v -0.09375000000000007 0.046875 -0.328125
v 0.12500000000000006 0.046875 0.296875
v 0.12500000000000006 0 0.296875
v 0.09375000000000007 0 0.296875
v -0.09374999999999993 0 0.296875
v -0.12499999999999993 0 0.296875
v -0.12499999999999993 0.046875 0.296875
v -0.09374999999999993 0.046875 0.296875
v 0.09375000000000007 0.046875 0.296875
v 0.12499999999999993 0.046875 -0.296875
v 0.12499999999999993 0 -0.296875
v 0.09374999999999993 0 -0.296875
v -0.09375000000000007 0 -0.296875
v -0.12500000000000006 0 -0.296875
v -0.12500000000000006 0.046875 -0.296875
v -0.09375000000000007 0.046875 -0.296875
v 0.09374999999999993 0.046875 -0.296875
v -0.031249999999999927 0.046875 0.328125
v -0.031249999999999927 0 0.328125
v -0.031249999999999934 0 0.296875
v -0.03125000000000007 0 -0.296875
v -0.03125000000000007 0 -0.328125
v -0.03125000000000007 0.046875 -0.328125
v -0.03125000000000007 0.046875 -0.296875
v -0.031249999999999934 0.046875 0.296875
v 0.03125000000000007 0.046875 0.328125
v 0.03125000000000007 0 0.328125
v 0.03125000000000007 0 0.296875
v 0.031249999999999934 0 -0.296875
v 0.031249999999999927 0 -0.328125
v 0.031249999999999927 0.046875 -0.328125
v 0.031249999999999934 0.046875 -0.296875
v 0.03125000000000007 0.046875 0.296875
v -0.12499999999999996 0.046875 0.18750000000000003
v -0.12499999999999996 0 0.18750000000000003
v -0.09374999999999996 0 0.18750000000000003
v -0.03124999999999996 0 0.1875
v 0.03125000000000004 0 0.1875
v 0.09375000000000004 0 0.18749999999999997
v 0.12500000000000006 0 0.18749999999999997
v 0.12500000000000006 0.046875 0.18749999999999997
v 0.09375000000000004 0.046875 0.18749999999999997
v 0.03125000000000004 0.046875 0.1875
v -0.03124999999999996 0.046875 0.1875
v -0.09374999999999996 0.046875 0.18750000000000003
v -0.12500000000000006 0.046875 -0.18749999999999997
v -0.12500000000000006 0 -0.18749999999999997
v -0.09375000000000004 0 -0.18749999999999997
v -0.03125000000000004 0 -0.1875
v 0.03124999999999996 0 -0.1875
v 0.09374999999999996 0 -0.18750000000000003
v 0.12499999999999996 0 -0.18750000000000003
v 0.12499999999999996 0.046875 -0.18750000000000003
v 0.09374999999999996 0.046875 -0.18750000000000003
v 0.03124999999999996 0.046875 -0.1875
v -0.03125000000000004 0.046875 -0.1875
v -0.09375000000000004 0.046875 -0.18749999999999997
v 0.031249999999999934 0.03125 -0.296875
v 0.09374999999999996 0.03125 -0.18750000000000003
v 0.03124999999999996 0.03125 -0.1875
v 0.09374999999999993 0.03125 -0.296875
v 0.09375000000000007 0.03125 0.296875
v 0.09375000000000004 0.03125 0.18749999999999997
v 0.03125000000000004 0.03125 0.1875
v 0.03125000000000007 0.03125 0.296875
v -0.03124999999999996 0.03125 0.1875
v -0.031249999999999934 0.03125 0.296875
v -0.09374999999999996 0.03125 0.18750000000000003
v -0.09374999999999993 0.03125 0.296875
v -0.03125000000000004 0.03125 -0.1875
v -0.09375000000000004 0.03125 -0.18749999999999997
v -0.09375000000000007 0.03125 -0.296875
v -0.03125000000000007 0.03125 -0.296875
v 0.031249999999999993 0.046875 -0.03125000000000001
v -0.03125000000000001 0.046875 -0.031249999999999993
v -0.03125000000000001 0.03125 -0.031249999999999993
v -0.09375 0.03125 -0.03124999999999998
v -0.09375 0.046875 -0.03124999999999998
v -0.125 0.046875 -0.031249999999999972
v -0.125 0 -0.031249999999999972
v -0.09375 0 -0.03124999999999998
v -0.03125000000000001 0 -0.031249999999999993
v 0.031249999999999993 0 -0.03125000000000001
v 0.09375 0 -0.03125000000000002
v 0.125 0 -0.03125000000000003
v 0.125 0.046875 -0.03125000000000003
v 0.09375 0.046875 -0.03125000000000002
v 0.09375 0.03125 -0.03125000000000002
v 0.031249999999999993 0.03125 -0.03125000000000001
v 0.03125000000000001 0.046875 0.031249999999999993
v -0.031249999999999993 0.046875 0.03125000000000001
v -0.031249999999999993 0.03125 0.03125000000000001
v -0.09375 0.03125 0.03125000000000002
v -0.09375 0.046875 0.03125000000000002
v -0.125 0.046875 0.03125000000000003
v -0.125 0 0.03125000000000003
v -0.09375 0 0.03125000000000002
v -0.031249999999999993 0 0.03125000000000001
v 0.03125000000000001 0 0.031249999999999993
v 0.09375 0 0.03124999999999998
v 0.125 0 0.031249999999999972
v 0.125 0.046875 0.031249999999999972
v 0.09375 0.046875 0.03124999999999998
v 0.09375 0.03125 0.03124999999999998
v 0.03125000000000001 0.03125 0.031249999999999993
v -0.03125000000000001 0.06875 -0.031249999999999993
v 0.03125000000000001 0.06875 0.031249999999999993
v -0.031249999999999993 0.06875 0.03125000000000001
v 0.031249999999999993 0.06875 -0.03125000000000001
vt 0.375 0.7890625
vt 0.390625 0.7890625
vt 0.390625 0.8125
vt 0.375 0.8125
vt 0.5 0.75
vt 0.484375 0.75
vt 0.484375 0.7265625
vt 0.5 0.7265625
vt 0.328125 0.890625
vt 0.3125 0.890625
vt 0.3125 0.875
vt 0.328125 0.875
vt 0.328125 0.84375
vt 0.3125 0.84375
vt 0.3125 0.828125
vt 0.328125 0.828125
vt 0.671875 0.6875
vt 0.65625 0.6875
vt 0.65625 0.6640625
vt 0.671875 0.6640625
vt 0.375 0.9765625
vt 0.390625 0.9765625
vt 0.390625 1
vt 0.375 1
vt 0.5 0.8125
vt 0.484375 0.8125
vt 0.484375 0.7890625
vt 0.5 0.7890625
vt 0.328125 0.734375
vt 0.3125 0.734375
vt 0.3125 0.71875
vt 0.328125 0.71875
vt 0.375 0.7265625
vt 0.390625 0.7265625
vt 0.390625 0.75
vt 0.375 0.75
vt 0.328125 1
vt 0.3125 1
vt 0.3125 0.984375
vt 0.328125 0.984375
vt 0.390625 0.7890625
vt 0.421875 0.7890625
vt 0.421875 0.8125
vt 0.390625 0.8125
vt 0.3125 0.828125
vt 0.3125 0.796875
vt 0.328125 0.796875
vt 0.328125 0.828125
vt 0.484375 0.75
vt 0.453125 0.75
vt 0.453125 0.7265625
vt 0.484375 0.7265625
vt 0.328125 0.890625
vt 0.328125 0.921875
vt 0.3125 0.921875
vt 0.3125 0.890625
vt 0.6875 1
vt 0.6328125 1
vt 0.6328125 0.9765625
vt 0.6875 0.9765625
vt 0.015625 0.71875
vt 0.0703125 0.71875
vt 0.0703125 0.734375
vt 0.015625 0.734375
vt 0.015625 0.796875
vt 0.0703125 0.796875
vt 0.0703125 0.828125
vt 0.015625 0.828125
vt 0.015625 0.828125
vt 0.0703125 0.828125
vt 0.0703125 0.84375
vt 0.015625 0.84375
vt 0.359375 0.6640625
vt 0.4140625 0.6640625
vt 0.4140625 0.6875
vt 0.359375 0.6875
vt 0.015625 0.875
vt 0.0703125 0.875
vt 0.0703125 0.890625
vt 0.015625 0.890625
vt 0 0.59375
vt 0.0546875 0.59375
vt 0.0546875 0.625
vt 0 0.625
vt 0.015625 0.984375
vt 0.0703125 0.984375
vt 0.0703125 1
vt 0.015625 1
vt 0.703125 1
vt 0.6875 1
vt 0.6875 0.9765625
vt 0.703125 0.9765625
vt 0 0.71875
vt 0.015625 0.71875
vt 0.015625 0.734375
vt 0 0.734375
vt 0 0.828125
vt 0 0.796875
vt 0.015625 0.796875
vt 0.015625 0.828125
vt 0 0.828125
vt 0.015625 0.828125
vt 0.015625 0.84375
vt 0 0.84375
vt 0.34375 0.6640625
vt 0.359375 0.6640625
vt 0.359375 0.6875
vt 0.34375 0.6875
vt 0 0.875
vt 0.015625 0.875
vt 0.015625 0.890625
vt 0 0.890625
vt 0.015625 0.890625
vt 0.015625 0.921875
vt 0 0.921875
vt 0 0.890625
vt 0 0.984375
vt 0.015625 0.984375
vt 0.015625 1
vt 0 1
vt 0.421875 0.7890625
vt 0.453125 0.7890625
vt 0.453125 0.8125
vt 0.421875 0.8125
vt 0.3125 0.796875
vt 0.3125 0.765625
vt 0.328125 0.765625
vt 0.328125 0.796875
vt 0.015625 0.765625
vt 0.0703125 0.765625
vt 0.0703125 0.796875
vt 0.015625 0.796875
vt 0 0.796875
vt 0 0.765625
vt 0.015625 0.765625
vt 0.015625 0.796875
vt 0.453125 0.75
vt 0.421875 0.75
vt 0.421875 0.7265625
vt 0.453125 0.7265625
vt 0.015625 0.921875
vt 0.015625 0.953125
vt 0 0.953125
vt 0 0.921875
vt 0 0.625
vt 0.0546875 0.625
vt 0.0546875 0.65625
vt 0 0.65625
vt 0.328125 0.921875
vt 0.328125 0.953125
vt 0.3125 0.953125
vt 0.3125 0.921875
vt 0.484375 0.8125
vt 0.453125 0.8125
vt 0.453125 0.7890625
vt 0.484375 0.7890625
vt 0.328125 0.734375
vt 0.328125 0.765625
vt 0.3125 0.765625
vt 0.3125 0.734375
vt 0.015625 0.734375
vt 0.0703125 0.734375
vt 0.0703125 0.765625
vt 0.015625 0.765625
vt 0.015625 0.734375
vt 0.015625 0.765625
vt 0 0.765625
vt 0 0.734375
vt 0.390625 0.7265625
vt 0.421875 0.7265625
vt 0.421875 0.75
vt 0.390625 0.75
vt 0 0.984375
vt 0 0.953125
vt 0.015625 0.953125
vt 0.015625 0.984375
vt 0 0.65625
vt 0.0546875 0.65625
vt 0.0546875 0.6875
vt 0 0.6875
vt 0.3125 0.984375
vt 0.3125 0.953125
vt 0.328125 0.953125
vt 0.328125 0.984375
vt 0.65625 0.6875
vt 0.6015625 0.6875
vt 0.6015625 0.6640625
vt 0.65625 0.6640625
vt 0.3125 0.84375
vt 0.2578125 0.84375
vt 0.2578125 0.828125
vt 0.3125 0.828125
vt 0.3125 0.828125
vt 0.2578125 0.828125
vt 0.2578125 0.796875
vt 0.3125 0.796875
vt 0.3125 0.796875
vt 0.2578125 0.796875
vt 0.2578125 0.765625
vt 0.3125 0.765625
vt 0.3125 0.765625
vt 0.2578125 0.765625
vt 0.2578125 0.734375
vt 0.3125 0.734375
vt 0.3125 0.734375
vt 0.2578125 0.734375
vt 0.2578125 0.71875
vt 0.3125 0.71875
vt 0.390625 0.9765625
vt 0.4453125 0.9765625
vt 0.4453125 1
vt 0.390625 1
vt 0.3125 1
vt 0.2578125 1
vt 0.2578125 0.984375
vt 0.3125 0.984375
vt 0.296875 0.6875
vt 0.2421875 0.6875
vt 0.2421875 0.65625
vt 0.296875 0.65625
vt 0.296875 0.65625
vt 0.2421875 0.65625
vt 0.2421875 0.625
vt 0.296875 0.625
vt 0.296875 0.625
vt 0.2421875 0.625
vt 0.2421875 0.59375
vt 0.296875 0.59375
vt 0.3125 0.890625
vt 0.2578125 0.890625
vt 0.2578125 0.875
vt 0.3125 0.875
vt 0.4140625 0.6640625
vt 0.4921875 0.6640625
vt 0.4921875 0.6875
vt 0.4140625 0.6875
vt 0.0703125 0.828125
vt 0.1484375 0.828125
vt 0.1484375 0.84375
vt 0.0703125 0.84375
vt 0.0703125 0.796875
vt 0.1484375 0.796875
vt 0.1484375 0.828125
vt 0.0703125 0.828125
vt 0.0703125 0.765625
vt 0.1484375 0.765625
vt 0.1484375 0.796875
vt 0.0703125 0.796875
vt 0.0703125 0.734375
vt 0.1484375 0.734375
vt 0.1484375 0.765625
vt 0.0703125 0.765625
vt 0.0703125 0.71875
vt 0.1484375 0.71875
vt 0.1484375 0.734375
vt 0.0703125 0.734375
vt 0.6328125 1
vt 0.5546875 1
vt 0.5546875 0.9765625
vt 0.6328125 0.9765625
vt 0.0703125 0.984375
vt 0.1484375 0.984375
vt 0.1484375 1
vt 0.0703125 1
vt 0.0546875 0.65625
vt 0.1328125 0.65625
vt 0.1328125 0.6875
vt 0.0546875 0.6875
vt 0.34375 0.59375
vt 0.4375 0.59375
vt 0.4375 0.625
vt 0.34375 0.625
vt 0.0546875 0.59375
vt 0.1328125 0.59375
vt 0.1328125 0.625
vt 0.0546875 0.625
vt 0.0703125 0.875
vt 0.1484375 0.875
vt 0.1484375 0.890625
vt 0.0703125 0.890625
vt 0.125 0.5546875
vt 0.1796875 0.5546875
vt 0.1796875 0.5625
vt 0.125 0.5625
vt 0.3125 0.4921875
vt 0.34375 0.4921875
vt 0.34375 0.5
vt 0.3125 0.5
vt 0.3671875 0.5546875
vt 0.421875 0.5546875
vt 0.421875 0.5625
vt 0.3671875 0.5625
vt 0.375 0.4921875
vt 0.40625 0.4921875
vt 0.40625 0.5
vt 0.375 0.5
vt 0.1796875 0.5546875
vt 0.2578125 0.5546875
vt 0.2578125 0.5625
vt 0.1796875 0.5625
vt 0.5625 0.9265625
vt 0.484375 0.9265625
vt 0.484375 0.91875
vt 0.5625 0.91875
vt 0.46875 0.53125
vt 0.5 0.53125
vt 0.5 0.5625
vt 0.46875 0.5625
vt 0.40625 0.4921875
vt 0.4375 0.4921875
vt 0.4375 0.5
vt 0.40625 0.5
vt 0.46875 0.6171875
vt 0.5234375 0.6171875
vt 0.5234375 0.625
vt 0.46875 0.625
vt 0.4375 0.4921875
vt 0.46875 0.4921875
vt 0.46875 0.5
vt 0.4375 0.5
vt 0.375 0.85625
vt 0.453125 0.85625
vt 0.453125 0.8640625
vt 0.375 0.8640625
vt 0.7109375 0.625
vt 0.6328125 0.625
vt 0.6328125 0.6171875
vt 0.7109375 0.6171875
vt 0.7109375 0.6171875
vt 0.765625 0.6171875
vt 0.765625 0.625
vt 0.7109375 0.625
vt 0.25 0.4921875
vt 0.28125 0.4921875
vt 0.28125 0.5
vt 0.25 0.5
vt 0 0.46875
vt 0.03125 0.46875
vt 0.03125 0.5
vt 0 0.5
vt 0.28125 0.4921875
vt 0.3125 0.4921875
vt 0.3125 0.5
vt 0.28125 0.5
vt 0.0625 0.46875
vt 0.09375 0.46875
vt 0.09375 0.5
vt 0.0625 0.5
vt 0.453125 0.85625
vt 0.484375 0.85625
vt 0.484375 0.8640625
vt 0.453125 0.8640625
vt 0.1328125 0.59375
vt 0.1640625 0.59375
vt 0.1640625 0.625
vt 0.1328125 0.625
vt 0.6328125 0.625
vt 0.6015625 0.625
vt 0.6015625 0.6171875
vt 0.6328125 0.6171875
vt 0.1484375 0.875
vt 0.1796875 0.875
vt 0.1796875 0.890625
vt 0.1484375 0.890625
vt 0.4921875 0.6640625
vt 0.5234375 0.6640625
vt 0.5234375 0.6875
vt 0.4921875 0.6875
vt 0.1484375 0.828125
vt 0.1796875 0.828125
vt 0.1796875 0.84375
vt 0.1484375 0.84375
vt 0.1484375 0.796875
vt 0.1796875 0.796875
vt 0.1796875 0.828125
vt 0.1484375 0.828125
vt 0.1484375 0.765625
vt 0.1796875 0.765625
vt 0.1796875 0.796875
vt 0.1484375 0.796875
vt 0.1484375 0.734375
vt 0.1796875 0.734375
vt 0.1796875 0.765625
vt 0.1484375 0.765625
vt 0.1484375 0.71875
vt 0.1796875 0.71875
vt 0.1796875 0.734375
vt 0.1484375 0.734375
vt 0.5546875 1
vt 0.5234375 1
vt 0.5234375 0.9765625
vt 0.5546875 0.9765625
vt 0.1484375 0.984375
vt 0.1796875 0.984375
vt 0.1796875 1
vt 0.1484375 1
vt 0.2578125 0.5546875
vt 0.2890625 0.5546875
vt 0.2890625 0.5625
vt 0.2578125 0.5625
vt 0.1328125 0.65625
vt 0.1640625 0.65625
vt 0.1640625 0.6875
vt 0.1328125 0.6875
vt 0.484375 0.9265625
vt 0.453125 0.9265625
vt 0.453125 0.91875
vt 0.484375 0.91875
vt 0.09375 0.5625
vt 0 0.5625
vt 0 0.53125
vt 0.09375 0.53125
vt 0.5625 0.8640625
vt 0.484375 0.8640625
vt 0.484375 0.85625
vt 0.5625 0.85625
vt 0.2421875 0.625
vt 0.1640625 0.625
vt 0.1640625 0.59375
vt 0.2421875 0.59375
vt 0.5234375 0.6171875
vt 0.6015625 0.6171875
vt 0.6015625 0.625
vt 0.5234375 0.625
vt 0.2578125 0.890625
vt 0.1796875 0.890625
vt 0.1796875 0.875
vt 0.2578125 0.875
vt 0.6015625 0.6875
vt 0.5234375 0.6875
vt 0.5234375 0.6640625
vt 0.6015625 0.6640625
vt 0.2578125 0.84375
vt 0.1796875 0.84375
vt 0.1796875 0.828125
vt 0.2578125 0.828125
vt 0.2578125 0.828125
vt 0.1796875 0.828125
vt 0.1796875 0.796875
vt 0.2578125 0.796875
vt 0.2578125 0.796875
vt 0.1796875 0.796875
vt 0.1796875 0.765625
vt 0.2578125 0.765625
vt 0.2578125 0.765625
vt 0.1796875 0.765625
vt 0.1796875 0.734375
vt 0.2578125 0.734375
vt 0.2578125 0.734375
vt 0.1796875 0.734375
vt 0.1796875 0.71875
vt 0.2578125 0.71875
vt 0.4453125 0.9765625
vt 0.5234375 0.9765625
vt 0.5234375 1
vt 0.4453125 1
vt 0.2578125 1
vt 0.1796875 1
vt 0.1796875 0.984375
vt 0.2578125 0.984375
vt 0.3671875 0.5625
vt 0.2890625 0.5625
vt 0.2890625 0.5546875
vt 0.3671875 0.5546875
vt 0.2421875 0.6875
vt 0.1640625 0.6875
vt 0.1640625 0.65625
vt 0.2421875 0.65625
vt 0.375 0.91875
vt 0.453125 0.91875
vt 0.453125 0.9265625
vt 0.375 0.9265625
vt 0.484375 0.875
vt 0.453125 0.875
vt 0.453125 0.8640625
vt 0.484375 0.8640625
vt 0.15625 0.5
vt 0.125 0.5
vt 0.125 0.46875
vt 0.15625 0.46875
vt 0.484375 0.9375
vt 0.453125 0.9375
vt 0.453125 0.9265625
vt 0.484375 0.9265625
vt 0.21875 0.5
vt 0.1875 0.5
vt 0.1875 0.46875
vt 0.21875 0.46875
vn 2.220446049250313e-16 0 1
vn -2.220446049250313e-16 0 -1
vn 0 1 0
vn 0 -1 0
vn -1 0 2.220446049250313e-16
vn 1 0 -2.220446049250313e-16
vn 2.220446049250313e-16 0 1
vn 0 -1 0
vn -2.220446049250313e-16 0 -1
vn 0 1 0
vn 2.220446049250313e-16 0 1
vn 0 -1 0
vn -2.220446049250313e-16 0 -1
vn 0 1 0
vn 1 0 -2.220446049250313e-16
vn 0 -1 0
vn 0 -1 0
vn 0 -1 0
vn -1 0 2.220446049250313e-16
vn 0 1 0
vn 0 1 0
vn 0 1 0
vn 1 0 -2.220446049250313e-16
vn 0 -1 0
vn 0 -1 0
vn 0 -1 0
vn -1 0 2.220446049250313e-16
vn 0 1 0
vn 0 1 0
vn 0 1 0
vn 2.220446049250313e-16 0 1
vn 0 -1 0
vn 0 -1 0
vn 0 -1 0
vn -2.220446049250313e-16 0 -1
vn 0 1 0
vn 0 1 0
vn 0 1 0
vn 2.220446049250313e-16 0 1
vn 0 -1 0
vn 0 -1 0
vn 0 -1 0
vn -2.220446049250313e-16 0 -1
vn 0 1 0
vn 0 1 0
vn 0 1 0
vn -1 0 2.220446049250313e-16
vn 0 -1 0
vn 0 -1 0
vn 0 -1 0
vn 0 -1 0
vn 0 -1 0
vn 1 0 -2.220446049250313e-16
vn 0 1 0
vn 0 1 0
vn 0 1 0
vn 0 1 0
vn 0 1 0
vn -1 0 2.220446049250313e-16
vn 0 -1 0
vn 0 -1 0
vn 0 -1 0
vn 0 -1 0
vn 0 -1 0
vn 1 0 -2.220446049250313e-16
vn 0 1 0
vn 0 1 0
vn 0 1 0
vn 0 1 0
vn 0 1 0
vn -1 0 2.220446049250313e-16
vn 2.220446049250313e-16 0 1
vn -1 0 2.220446049250313e-16
vn -2.220446049250313e-16 0 -1
vn -1 0 2.220446049250313e-16
vn 1 0 -2.220446049250313e-16
vn 2.220446049250313e-16 0 1
vn -2.220446049250313e-16 0 -1
vn 1 0 -2.220446049250313e-16
vn -2.220446049250313e-16 0 -1
vn -1 0 2.220446049250313e-16
vn 1 0 -2.220446049250313e-16
vn 1 0 -2.220446049250313e-16
vn 2.220446049250313e-16 0 1
vn -2.220446049250313e-16 0 -1
vn 2.220446049250313e-16 0 1
vn 0 1 0
vn -1 0 2.220446049250313e-16
vn 0 1 0
vn 1 0 -2.220446049250313e-16
vn 0 1 0
vn -1 0 2.220446049250313e-16
vn 0 -1 0
vn 0 -1 0
vn 0 -1 0
vn 0 -1 0
vn 0 -1 0
vn 1 0 -2.220446049250313e-16
vn 0 1 0
vn -1 0 2.220446049250313e-16
vn 0 1 0
vn 1 0 -2.220446049250313e-16
vn 0 1 0
vn -1 0 2.220446049250313e-16
vn 0 1 0
vn 1 0 -2.220446049250313e-16
vn 0 1 0
vn -1 0 2.220446049250313e-16
vn 0 -1 0
vn 0 -1 0
vn 0 -1 0
vn 0 -1 0
vn 0 -1 0
vn 1 0 -2.220446049250313e-16
vn 0 1 0
vn -1 0 2.220446049250313e-16
vn 0 1 0
vn 1 0 -2.220446049250313e-16
vn -1 0 2.220446049250313e-16
vn 2.220446049250313e-16 0 1
vn 1 0 -2.220446049250313e-16
vn -2.220446049250313e-16 0 -1
usemtl m_541338fc-ee35-5265-84ec-5b5f2a3c18d2
f 3/1/1 14/2/1 13/3/1 1/4/1
f 5/5/2 16/6/2 15/7/2 7/8/2
f 13/9/3 23/10/3 22/11/3 1/12/3
f 3/13/4 21/14/4 20/15/4 14/16/4
f 1/17/5 22/18/5 21/19/5 3/20/5
f 4/21/6 18/22/6 17/23/6 2/24/6
f 2/25/7 9/26/7 10/27/7 4/28/7
f 10/29/8 19/30/8 18/31/8 4/32/8
f 8/33/9 11/34/9 12/35/9 6/36/9
f 2/37/10 17/38/10 24/39/10 9/40/10
f 14/41/11 34/42/11 33/43/11 13/44/11
f 20/45/12 35/46/12 34/47/12 14/48/12
f 16/49/13 38/50/13 37/51/13 15/52/13
f 13/53/14 33/54/14 40/55/14 23/56/14
f 25/57/15 68/58/15 67/59/15 26/60/15
f 26/61/16 67/62/16 66/63/16 27/64/16
f 36/65/17 64/66/17 63/67/17 28/68/17
f 28/69/18 63/70/18 62/71/18 29/72/18
f 29/73/19 62/74/19 61/75/19 30/76/19
f 30/77/20 61/78/20 72/79/20 31/80/20
f 87/81/21 86/82/21 85/83/21 88/84/21
f 32/85/22 69/86/22 68/87/22 25/88/22
f 6/89/23 25/90/23 26/91/23 8/92/23
f 8/93/24 26/94/24 27/95/24 11/96/24
f 15/97/25 37/98/25 36/99/25 28/100/25
f 15/101/26 28/102/26 29/103/26 7/104/26
f 7/105/27 29/106/27 30/107/27 5/108/27
f 5/109/28 30/110/28 31/111/28 16/112/28
f 31/113/29 39/114/29 38/115/29 16/116/29
f 12/117/30 32/118/30 25/119/30 6/120/30
f 34/121/31 42/122/31 41/123/31 33/124/31
f 35/125/32 43/126/32 42/127/32 34/128/32
f 44/129/33 65/130/33 64/131/33 36/132/33
f 37/133/34 45/134/34 44/135/34 36/136/34
f 38/137/35 46/138/35 45/139/35 37/140/35
f 39/141/36 47/142/36 46/143/36 38/144/36
f 88/145/37 85/146/37 75/147/37 73/148/37
f 33/149/38 41/150/38 48/151/38 40/152/38
f 9/153/39 41/154/39 42/155/39 10/156/39
f 10/157/40 42/158/40 43/159/40 19/160/40
f 27/161/41 66/162/41 65/163/41 44/164/41
f 27/165/42 44/166/42 45/167/42 11/168/42
f 11/169/43 45/170/43 46/171/43 12/172/43
f 12/173/44 46/174/44 47/175/44 32/176/44
f 73/177/45 75/178/45 74/179/45 76/180/45
f 24/181/46 48/182/46 41/183/46 9/184/46
f 22/185/47 49/186/47 50/187/47 21/188/47
f 21/189/48 50/190/48 51/191/48 20/192/48
f 20/193/49 51/194/49 52/195/49 35/196/49
f 35/197/50 52/198/50 53/199/50 43/200/50
f 43/201/51 53/202/51 54/203/51 19/204/51
f 19/205/52 54/206/52 55/207/52 18/208/52
f 18/209/53 55/210/53 56/211/53 17/212/53
f 17/213/54 56/214/54 57/215/54 24/216/54
f 77/217/55 78/218/55 79/219/55 80/220/55
f 80/221/56 79/222/56 81/223/56 82/224/56
f 82/225/57 81/226/57 83/227/57 84/228/57
f 23/229/58 60/230/58 49/231/58 22/232/58
f 62/233/59 95/234/59 94/235/59 61/236/59
f 63/237/60 96/238/60 95/239/60 62/240/60
f 64/241/61 97/242/61 96/243/61 63/244/61
f 65/245/62 98/246/62 97/247/62 64/248/62
f 66/249/63 99/250/63 98/251/63 65/252/63
f 67/253/64 100/254/64 99/255/64 66/256/64
f 68/257/65 101/258/65 100/259/65 67/260/65
f 69/261/66 102/262/66 101/263/66 68/264/66
f 75/265/67 104/266/67 103/267/67 74/268/67
f 71/269/68 90/270/68 89/271/68 70/272/68
f 86/273/69 92/274/69 91/275/69 85/276/69
f 61/277/70 94/278/70 93/279/70 72/280/70
f 76/281/71 74/282/71 69/283/71 32/284/71
f 73/285/72 76/286/72 32/287/72 47/288/72
f 78/289/73 77/290/73 24/291/73 57/292/73
f 77/293/74 80/294/74 48/295/74 24/296/74
f 74/297/75 103/298/75 102/299/75 69/300/75
f 70/301/76 89/302/76 104/303/76 75/304/76
f 81/305/77 79/306/77 58/307/77 59/308/77
f 80/309/78 82/310/78 40/311/78 48/312/78
f 84/313/79 83/314/79 60/315/79 23/316/79
f 82/317/80 84/318/80 23/319/80 40/320/80
f 85/321/81 91/322/81 90/323/81 71/324/81
f 72/325/82 93/326/82 92/327/82 86/328/82
f 86/329/83 87/330/83 31/331/83 72/332/83
f 87/333/84 88/334/84 39/335/84 31/336/84
f 75/337/85 85/338/85 71/339/85 70/340/85
f 88/341/86 73/342/86 47/343/86 39/344/86
f 121/345/87 123/346/87 122/347/87 124/348/87
f 91/349/88 107/350/88 106/351/88 90/352/88
f 92/353/89 108/354/89 107/355/89 91/356/89
f 93/357/90 109/358/90 108/359/90 92/360/90
f 94/361/91 110/362/91 109/363/91 93/364/91
f 95/365/92 111/366/92 110/367/92 94/368/92
f 96/369/93 112/370/93 111/371/93 95/372/93
f 97/373/94 113/374/94 112/375/94 96/376/94
f 98/377/95 114/378/95 113/379/95 97/380/95
f 99/381/96 115/382/96 114/383/96 98/384/96
f 100/385/97 116/386/97 115/387/97 99/388/97
f 101/389/98 117/390/98 116/391/98 100/392/98
f 102/393/99 118/394/99 117/395/99 101/396/99
f 103/397/100 119/398/100 118/399/100 102/400/100
f 104/401/101 120/402/101 119/403/101 103/404/101
f 89/405/102 105/406/102 120/407/102 104/408/102
f 58/409/103 105/410/103 106/411/103 59/412/103
f 59/413/104 106/414/104 107/415/104 81/416/104
f 81/417/105 107/418/105 108/419/105 83/420/105
f 83/421/106 108/422/106 109/423/106 60/424/106
f 60/425/107 109/426/107 110/427/107 49/428/107
f 49/429/108 110/430/108 111/431/108 50/432/108
f 50/433/109 111/434/109 112/435/109 51/436/109
f 51/437/110 112/438/110 113/439/110 52/440/110
f 52/441/111 113/442/111 114/443/111 53/444/111
f 53/445/112 114/446/112 115/447/112 54/448/112
f 54/449/113 115/450/113 116/451/113 55/452/113
f 55/453/114 116/454/114 117/455/114 56/456/114
f 56/457/115 117/458/115 118/459/115 57/460/115
f 57/461/116 118/462/116 119/463/116 78/464/116
f 78/465/117 119/466/117 120/467/117 79/468/117
f 79/469/118 120/470/118 105/471/118 58/472/118
f 123/473/119 121/474/119 90/475/119 106/476/119
f 122/477/120 123/478/120 106/479/120 105/480/120
f 124/481/121 122/482/121 105/483/121 89/484/121
f 121/485/122 124/486/122 89/487/122 90/488/122