# Made in Blockbench 4.12.5
mtllib lever_bar.mtl

o bar
v -0.08125 -0.015625 0.018750000000000017
v 0.08125 -0.015625 0.018749999999999982
v -0.08125 -0.015625 -0.018749999999999982
v 0.08125 -0.015625 -0.018750000000000017
v -0.08125 0.25 0.018750000000000017
v 0.08125 0.25 0.018749999999999982
v -0.08125 0.25 -0.018749999999999982
v 0.08125 0.25 -0.018750000000000017
v 0.049999999999999996 0.25 -0.01875000000000001
v 0.05000000000000001 0.25 0.01874999999999999
v 0.05000000000000001 -0.015625 0.01874999999999999
v 0.049999999999999996 -0.015625 -0.01875000000000001
v -0.05000000000000001 -0.015625 -0.01874999999999999
v -0.049999999999999996 -0.015625 0.01875000000000001
v -0.049999999999999996 0.25 0.01875000000000001
v -0.05000000000000001 0.25 -0.01874999999999999
v 0.08125 0.21875 0.018749999999999982
v 0.08125 0.21875 -0.018750000000000017
v 0.049999999999999996 0.21875 -0.01875000000000001
v -0.05000000000000001 0.21875 -0.01874999999999999
v -0.08125 0.21875 -0.018749999999999982
v -0.08125 0.21875 0.018750000000000017
v -0.049999999999999996 0.21875 0.01875000000000001
v 0.05000000000000001 0.21875 0.01874999999999999
v 0.08125 0.015625 0.018749999999999982
v 0.08125 0.015625 -0.018750000000000017
v 0.049999999999999996 0.015625 -0.01875000000000001
v -0.05000000000000001 0.015625 -0.01874999999999999
v -0.08125 0.015625 -0.018749999999999982
v -0.08125 0.015625 0.018750000000000017
v -0.049999999999999996 0.015625 0.01875000000000001
v 0.05000000000000001 0.015625 0.01874999999999999
v 0.05 0.2421875 -0.00937500000000001
v 0.05 0.2265625 -0.00937500000000001
v 0.05 0.2421875 0.00937499999999999
v 0.05 0.2265625 0.00937499999999999
v -0.05 0.2265625 -0.00937499999999999
v -0.05 0.2421875 -0.00937499999999999
v -0.05 0.2421875 0.00937500000000001
v -0.05 0.2265625 0.00937500000000001
v 0.034375 0.2421875 -0.009375000000000007
v 0.034375 0.2265625 -0.009375000000000007
v 0.034375 0.2421875 0.009374999999999993
v 0.034375 0.2265625 0.009374999999999993
v -0.034375 0.2265625 -0.009374999999999993
v -0.034375 0.2421875 -0.009374999999999993
v -0.034375 0.2421875 0.009375000000000007
v -0.034375 0.2265625 0.009375000000000007
vt 0.05 0.359375
vt 0.05 0.390625
vt 0.0125 0.390625
vt 0.0125 0.359375
vt 0.175 0.359375
vt 0.175 0.390625
vt 0.1375 0.390625
vt 0.1375 0.359375
vt 0.5 0.75
vt 0.5 0.6875
vt 0.5625 0.6875
vt 0.5625 0.75
vt 0.425 0.734375
vt 0.425 0.765625
vt 0.39375 0.765625
vt 0.39375 0.734375
vt 0.675 0.85
vt 0.64375 0.85
vt 0.64375 0.8125
vt 0.675 0.8125
vt 0.04375 0.71875
vt 0.04375 0.75
vt 0.0125 0.75
vt 0.0125 0.71875
vt 0.5125 0.8125
vt 0.54375 0.8125
vt 0.54375 0.85
vt 0.5125 0.85
vt 0.29375 0.734375
vt 0.29375 0.765625
vt 0.2625 0.765625
vt 0.2625 0.734375
vt 0.5625 0.5625
vt 0.5625 0.625
vt 0.5 0.625
vt 0.5 0.5625
vt 0.175 0.71875
vt 0.175 0.75
vt 0.14375 0.75
vt 0.14375 0.71875
vt 0.1375 0.625
vt 0.1375 0.59375
vt 0.175 0.59375
vt 0.175 0.625
vt 0.0125 0.984375
vt 0.0125 0.953125
vt 0.04375 0.953125
vt 0.04375 0.984375
vt 0.14375 0.984375
vt 0.14375 0.953125
vt 0.175 0.953125
vt 0.175 0.984375
vt 0.0125 0.625
vt 0.0125 0.59375
vt 0.05 0.59375
vt 0.05 0.625
vt 0.2625 1
vt 0.2625 0.96875
vt 0.29375 0.96875
vt 0.29375 1
vt 0.39375 1
vt 0.39375 0.96875
vt 0.425 0.96875
vt 0.425 1
vt 0.64375 0.85
vt 0.54375 0.85
vt 0.54375 0.8125
vt 0.64375 0.8125
vt 0.14375 0.71875
vt 0.14375 0.75
vt 0.04375 0.75
vt 0.04375 0.71875
vt 0.39375 0.734375
vt 0.39375 0.765625
vt 0.29375 0.765625
vt 0.29375 0.734375
vt 0.1375 0.59375
vt 0.1375 0.390625
vt 0.175 0.390625
vt 0.175 0.59375
vt 0.0125 0.953125
vt 0.0125 0.75
vt 0.04375 0.75
vt 0.04375 0.953125
vt 0.14375 0.953125
vt 0.14375 0.75
vt 0.175 0.75
vt 0.175 0.953125
vt 0.0125 0.59375
vt 0.0125 0.390625
vt 0.05 0.390625
vt 0.05 0.59375
vt 0.2625 0.96875
vt 0.2625 0.765625
vt 0.29375 0.765625
vt 0.29375 0.96875
vt 0.39375 0.96875
vt 0.39375 0.765625
vt 0.425 0.765625
vt 0.425 0.96875
vt 0.5 1
vt 0.5 0.9375
vt 0.625 0.9375
vt 0.625 1
vt 0.2625 0.390625
vt 0.3 0.390625
vt 0.3 0.59375
vt 0.2625 0.59375
vt 0.3875 0.390625
vt 0.425 0.390625
vt 0.425 0.59375
vt 0.3875 0.59375
vt 0.271875 0.6171875
vt 0.290625 0.6171875
vt 0.3 0.625
vt 0.2625 0.625
vt 0.271875 0.6015625
vt 0.271875 0.6171875
vt 0.2625 0.625
vt 0.2625 0.59375
vt 0.290625 0.6015625
vt 0.271875 0.6015625
vt 0.2625 0.59375
vt 0.3 0.59375
vt 0.290625 0.6171875
vt 0.290625 0.6015625
vt 0.3 0.59375
vt 0.3 0.625
vt 0.415625 0.6171875
vt 0.415625 0.6015625
vt 0.425 0.59375
vt 0.425 0.625
vt 0.396875 0.6171875
vt 0.415625 0.6171875
vt 0.425 0.625
vt 0.3875 0.625
vt 0.396875 0.6015625
vt 0.396875 0.6171875
vt 0.3875 0.625
vt 0.3875 0.59375
vt 0.415625 0.6015625
vt 0.396875 0.6015625
vt 0.3875 0.59375
vt 0.425 0.59375
vt 0.5 0.4375
vt 0.5625 0.4375
vt 0.5625 0.5
vt 0.5 0.5
vt 0.6875 0.6875
vt 0.6875 0.75
vt 0.625 0.75
vt 0.625 0.6875
vt 0.6875 0.625
vt 0.625 0.625
vt 0.625 0.5625
vt 0.6875 0.5625
vt 0.6875 1
vt 0.6875 0.9375
vt 0.75 0.9375
vt 0.75 1
vt 0.5 0.375
vt 0.5 0.3125
vt 0.5625 0.3125
vt 0.5625 0.375
vt 0.6875 0.5
vt 0.625 0.5
vt 0.625 0.4375
vt 0.6875 0.4375
vt 0.3125 0.25
vt 0.3125 0.3125
vt 0.25 0.3125
vt 0.25 0.25
vt 0.625 0.3125
vt 0.6875 0.3125
vt 0.6875 0.375
vt 0.625 0.375
vn -1 0 2.220446049250313e-16
vn 1 0 -2.220446049250313e-16
vn 0 1 0
vn 2.220446049250313e-16 0 1
vn 0 -1 0
vn -2.220446049250313e-16 0 -1
vn 0 -1 0
vn 2.220446049250313e-16 0 1
vn 0 1 0
vn -2.220446049250313e-16 0 -1
vn 1 0 -2.220446049250313e-16
vn -2.220446049250313e-16 0 -1
vn -2.220446049250313e-16 0 -1
vn -1 0 2.220446049250313e-16
vn 2.220446049250313e-16 0 1
vn 2.220446049250313e-16 0 1
vn 0 -1 0
vn -2.220446049250313e-16 0 -1
vn 2.220446049250313e-16 0 1
vn 1 0 -2.220446049250313e-16
vn -2.220446049250313e-16 0 -1
vn -2.220446049250313e-16 0 -1
vn -1 0 2.220446049250313e-16
vn 2.220446049250313e-16 0 1
vn 2.220446049250313e-16 0 1
vn 0 1 0
vn -1 0 2.220446049250313e-16
vn 1 0 -2.220446049250313e-16
vn -1 0 2.220446049250313e-16
vn -1 0 2.220446049250313e-16
vn -1 0 2.220446049250313e-16
vn -1 0 2.220446049250313e-16
vn 1 0 -2.220446049250313e-16
vn 1 0 -2.220446049250313e-16
vn 1 0 -2.220446049250313e-16
vn 1 0 -2.220446049250313e-16
vn 0 1 0
vn -2.220446049250313e-16 0 -1
vn 0 -1 0
vn 2.220446049250313e-16 0 1
vn -2.220446049250313e-16 0 -1
vn 0 1 0
vn 2.220446049250313e-16 0 1
vn 0 -1 0
usemtl m_dc9dd8d8-408c-6e79-7f1d-581fb8a59302
f 1/1/1 30/2/1 29/3/1 3/4/1
f 4/5/2 26/6/2 25/7/2 2/8/2
f 8/9/3 9/10/3 10/11/3 6/12/3
f 2/13/4 25/14/4 32/15/4 11/16/4
f 2/17/5 11/18/5 12/19/5 4/20/5
f 12/21/6 27/22/6 26/23/6 4/24/6
f 3/25/7 13/26/7 14/27/7 1/28/7
f 14/29/8 31/30/8 30/31/8 1/32/8
f 5/33/9 15/34/9 16/35/9 7/36/9
f 3/37/10 29/38/10 28/39/10 13/40/10
f 6/41/11 17/42/11 18/43/11 8/44/11
f 8/45/12 18/46/12 19/47/12 9/48/12
f 16/49/13 20/50/13 21/51/13 7/52/13
f 7/53/14 21/54/14 22/55/14 5/56/14
f 5/57/15 22/58/15 23/59/15 15/60/15
f 10/61/16 24/62/16 17/63/16 6/64/16
f 11/65/17 14/66/17 13/67/17 12/68/17
f 13/69/18 28/70/18 27/71/18 12/72/18
f 11/73/19 32/74/19 31/75/19 14/76/19
f 17/77/20 25/78/20 26/79/20 18/80/20
f 18/81/21 26/82/21 27/83/21 19/84/21
f 20/85/22 28/86/22 29/87/22 21/88/22
f 21/89/23 29/90/23 30/91/23 22/92/23
f 22/93/24 30/94/24 31/95/24 23/96/24
f 24/97/25 32/98/25 25/99/25 17/100/25
f 32/101/26 27/102/26 28/103/26 31/104/26
f 27/105/27 32/106/27 24/107/27 19/108/27
f 31/109/28 28/110/28 20/111/28 23/112/28
f 33/113/29 35/114/29 10/115/29 9/116/29
f 34/117/30 33/118/30 9/119/30 19/120/30
f 36/121/31 34/122/31 19/123/31 24/124/31
f 35/125/32 36/126/32 24/127/32 10/128/32
f 38/129/33 37/130/33 20/131/33 16/132/33
f 39/133/34 38/134/34 16/135/34 15/136/34
f 40/137/35 39/138/35 15/139/35 23/140/35
f 37/141/36 40/142/36 23/143/36 20/144/36
f 41/145/37 43/146/37 35/147/37 33/148/37
f 42/149/38 41/150/38 33/151/38 34/152/38
f 44/153/39 42/154/39 34/155/39 36/156/39
f 43/157/40 44/158/40 36/159/40 35/160/40
f 46/161/41 45/162/41 37/163/41 38/164/41
f 47/165/42 46/166/42 38/167/42 39/168/42
f 48/169/43 47/170/43 39/171/43 40/172/43
f 45/173/44 48/174/44 40/175/44 37/176/44