# Made in Blockbench 4.12.5
mtllib locker.mtl

o body
v 0.375 2 0.25
v 0.375 2 -0.25
v 0.375 0 0.25
v 0.375 0 -0.25
v -0.375 2 0.25
v -0.375 2 -0.25
v -0.375 0 0.25
v -0.375 0 -0.25
vt 0.140625 0.359375
vt 0.328125 0.359375
vt 0.328125 0.484375
vt 0.140625 0.484375
vt 0.734375 0.40625
vt 0.734375 0.53125
vt 0.546875 0.53125
vt 0.546875 0.40625
vt 0.1875 0.5
vt 0.1875 1
vt 0 1
vt 0 0.5
vt 0.390625 1
vt 0.203125 1
vt 0.203125 0.5
vt 0.390625 0.5
vt 0.53125 0.53125
vt 0.40625 0.53125
vt 0.40625 0.03125
vt 0.53125 0.03125
vt 0.875 0.5
vt 0.875 1
vt 0.75 1
vt 0.75 0.5
vn 0 1 0
vn 0 -1 0
vn 0 0 1
vn 0 0 -1
vn 1 0 0
vn -1 0 0
usemtl m_6dbc8ab7-a68c-dcc6-c7cc-c7daed49d264
f 5/1/1 1/2/1 2/3/1 6/4/1
f 4/5/2 3/6/2 7/7/2 8/8/2
f 3/9/3 1/10/3 5/11/3 7/12/3
f 6/13/4 2/14/4 4/15/4 8/16/4
f 2/17/5 1/18/5 3/19/5 4/20/5
f 7/21/6 5/22/6 6/23/6 8/24/6
o door
v 0.3125 1.9375 -0.25
v 0.3125 1.9375 -0.28125
v 0.3125 0.125 -0.25
v 0.3125 0.125 -0.28125
v -0.3125 1.9375 -0.25
v -0.3125 1.9375 -0.28125
v -0.3125 0.125 -0.25
v -0.3125 0.125 -0.28125
vt 0.578125 0.984375
vt 0.734375 0.984375
vt 0.734375 1
vt 0.578125 1
vt 0.734375 0.953125
vt 0.734375 0.96875
vt 0.578125 0.96875
vt 0.578125 0.953125
vt 0.5625 1
vt 0.40625 1
vt 0.40625 0.546875
vt 0.5625 0.546875
vt 0.359375 0.484375
vt 0.34375 0.484375
vt 0.34375 0.03125
vt 0.359375 0.03125
vt 0.390625 0.03125
vt 0.390625 0.484375
vt 0.375 0.484375
vt 0.375 0.03125
vn 0 1 0
vn 0 -1 0
vn 0 0 -1
vn 1 0 0
vn -1 0 0
usemtl m_6dbc8ab7-a68c-dcc6-c7cc-c7daed49d264
f 13/25/7 9/26/7 10/27/7 14/28/7
f 12/29/8 11/30/8 15/31/8 16/32/8
f 14/33/9 10/34/9 12/35/9 16/36/9
f 10/37/10 9/38/10 11/39/10 12/40/10
f 15/41/11 13/42/11 14/43/11 16/44/11