# Made in Blockbench 4.12.5
mtllib monitor.mtl

o body
v -0.875 1 0.031250000000000194
v 0.875 1 0.031249999999999806
v -0.875 0 0.031250000000000194
v 0.875 0 0.031249999999999806
v -0.875 1 -0.062499999999999806
v 0.875 1 -0.0625000000000002
v -0.875 0 -0.062499999999999806
v 0.875 0 -0.0625000000000002
v -0.8125 0.9375 -0.06249999999999982
v 0.8125 0.9375 -0.06250000000000018
v -0.8125 0.0625 -0.06249999999999982
v 0.8125 0.0625 -0.06250000000000018
v -0.8125 0.9375 1.8041124150158794e-16
v 0.8125 0.9375 -1.8041124150158794e-16
v -0.8125 0.0625 1.8041124150158794e-16
v 0.8125 0.0625 -1.8041124150158794e-16
vt 0.4375 1
vt 0 1
vt 0 0.75
vt 0.4375 0.75
vt 0.859375 0.78125
vt 0.859375 1
vt 0.453125 1
vt 0.453125 0.78125
vt 0.453125 0.328125
vt 0.484375 0.328125
vt 0.484375 0.765625
vt 0.453125 0.765625
vt 0.53125 0.328125
vt 0.53125 0.765625
vt 0.5 0.765625
vt 0.5 0.328125
vt 0.03125 0.21875
vt 0.03125 0.46875
vt 0 0.46875
vt 0 0.21875
vt 0.078125 0.46875
vt 0.046875 0.46875
vt 0.046875 0.21875
vt 0.078125 0.21875
vt 0.421875 0.71875
vt 0.421875 0.5
vt 0.4375 0.484375
vt 0.4375 0.734375
vt 0.015625 0.71875
vt 0.421875 0.71875
vt 0.4375 0.734375
vt 0 0.734375
vt 0.015625 0.5
vt 0.015625 0.71875
vt 0 0.734375
vt 0 0.484375
vt 0.421875 0.5
vt 0.015625 0.5
vt 0 0.484375
vt 0.4375 0.484375
vt 0.15625 0.46875
vt 0.15625 0.25
vt 0.171875 0.25
vt 0.171875 0.46875
vt 0.109375 0.0625
vt 0.109375 0.46875
vt 0.09375 0.46875
vt 0.09375 0.0625
vt 0.203125 0.25
vt 0.203125 0.46875
vt 0.1875 0.46875
vt 0.1875 0.25
vt 0.140625 0.0625
vt 0.140625 0.46875
vt 0.125 0.46875
vt 0.125 0.0625
vn 2.220446049250313e-16 0 1
vn -2.220446049250313e-16 0 -1
vn 0 1 0
vn 0 -1 0
vn -1 0 2.220446049250313e-16
vn 1 0 -2.220446049250313e-16
vn -2.220446049250313e-16 0 -1
vn -2.220446049250313e-16 0 -1
vn -2.220446049250313e-16 0 -1
vn -2.220446049250313e-16 0 -1
vn 1 0 -2.220446049250313e-16
vn 0 -1 0
vn -1 0 2.220446049250313e-16
vn 0 1 0
usemtl m_75eb9fa0-c340-9f97-21b3-9a8c8231bbe9
f 2/1/1 1/2/1 3/3/1 4/4/1
f 15/5/2 13/6/2 14/7/2 16/8/2
f 5/9/3 1/10/3 2/11/3 6/12/3
f 4/13/4 3/14/4 7/15/4 8/16/4
f 3/17/5 1/18/5 5/19/5 7/20/5
f 6/21/6 2/22/6 4/23/6 8/24/6
f 9/25/7 11/26/7 7/27/7 5/28/7
f 10/29/8 9/30/8 5/31/8 6/32/8
f 12/33/9 10/34/9 6/35/9 8/36/9
f 11/37/10 12/38/10 8/39/10 7/40/10
f 13/41/11 15/42/11 11/43/11 9/44/11
f 14/45/12 13/46/12 9/47/12 10/48/12
f 16/49/13 14/50/13 10/51/13 12/52/13
f 15/53/14 16/54/14 12/55/14 11/56/14