# Made in Blockbench 4.12.5
mtllib monitor_big.mtl

o body
v -1.4375000000000002 1.75 0.03125000000000011
v 1.4375000000000002 1.75 0.031249999999999778
v -1.4375000000000002 0 0.03125000000000011
v 1.4375000000000002 0 0.031249999999999778
v -1.4374999999999996 1.75 -0.06249999999999989
v 1.4375000000000002 1.75 -0.06250000000000017
v -1.4374999999999996 0 -0.06249999999999989
v 1.4375000000000002 0 -0.06250000000000017
v -1.3348214285714284 1.640625 -0.06249999999999989
v 1.3348214285714284 1.640625 -0.06250000000000017
v -1.3348214285714284 0.109375 -0.06249999999999989
v 1.3348214285714284 0.109375 -0.06250000000000017
v -1.3348214285714284 1.640625 1.6653345369377348e-16
v 1.3348214285714284 1.640625 -1.6653345369377348e-16
v -1.3348214285714284 0.109375 1.6653345369377348e-16
v 1.3348214285714284 0.109375 -1.6653345369377348e-16
vt 0.359375 0.7734375
vt 0 0.7734375
vt 0 0.5546875
vt 0.359375 0.5546875
vt 0.703125 0.8046875
vt 0.703125 1
vt 0.3671875 1
vt 0.3671875 0.8046875
vt 0.3671875 0.796875
vt 0.3671875 0.78125
vt 0.7265625 0.78125
vt 0.7265625 0.796875
vt 0.7265625 0.7734375
vt 0.3671875 0.7734375
vt 0.3671875 0.7578125
vt 0.7265625 0.7578125
vt 0.40625 0.53125
vt 0.40625 0.75
vt 0.390625 0.75
vt 0.390625 0.53125
vt 0.3828125 0.75
vt 0.3671875 0.75
vt 0.3671875 0.53125
vt 0.3828125 0.53125
vt 0.34653984375 0.986328125
vt 0.34653984375 0.794921875
vt 0.359375 0.78125
vt 0.359375 1
vt 0.012835156250000035 0.986328125
vt 0.34653984375 0.986328125
vt 0.359375 1
vt 0 1
vt 0.01283515625000023 0.794921875
vt 0.012835156250000035 0.986328125
vt 2.7755575615628914e-17 1
vt 2.220446049250313e-16 0.78125
vt 0.34653984375 0.794921875
vt 0.012835156250000035 0.794921875
vt 0 0.78125
vt 0.359375 0.78125
vt 0.4140625 0.71875
vt 0.4140625 0.5234375
vt 0.421875 0.5234375
vt 0.421875 0.71875
vt 0.75 0.75
vt 0.4140625 0.75
vt 0.4140625 0.7421875
vt 0.75 0.7421875
vt 0.4375 0.5234375
vt 0.4375 0.71875
vt 0.4296875 0.71875
vt 0.4296875 0.5234375
vt 0.4140625 0.7265625
vt 0.75 0.7265625
vt 0.75 0.734375
vt 0.4140625 0.734375
vn 1.1584935909132065e-16 0 1
vn -1.2476084825219152e-16 0 -1
vn 0 1 0
vn 0 -1 0
vn -1 0 -7.105427357601002e-15
vn 1 0 0
vn 0 0 -1
vn -1.0396737354349294e-16 -9.760202414287035e-17 -1
vn 0 0 -1
vn -1.0396737354349294e-16 -9.760202414287136e-17 -1
vn 1 0 0
vn 0 -1 0
vn -1 0 0
vn 0 1 0
usemtl m_a6e3e526-77a3-b89c-a055-f1989d76677a
f 2/1/1 1/2/1 3/3/1 4/4/1
f 15/5/2 13/6/2 14/7/2 16/8/2
f 5/9/3 1/10/3 2/11/3 6/12/3
f 4/13/4 3/14/4 7/15/4 8/16/4
f 3/17/5 1/18/5 5/19/5 7/20/5
f 6/21/6 2/22/6 4/23/6 8/24/6
f 9/25/7 11/26/7 7/27/7 5/28/7
f 10/29/8 9/30/8 5/31/8 6/32/8
f 12/33/9 10/34/9 6/35/9 8/36/9
f 11/37/10 12/38/10 8/39/10 7/40/10
f 13/41/11 15/42/11 11/43/11 9/44/11
f 14/45/12 13/46/12 9/47/12 10/48/12
f 16/49/13 14/50/13 10/51/13 12/52/13
f 15/53/14 16/54/14 12/55/14 11/56/14