# Made in Blockbench 4.12.5
mtllib mug.mtl

o base
v 0 0 0
v 0.025888125 0 0.0625
v 0.0388325 0.21875 0.09375
v 0.0625 0 0.025888125
v 0.09375 0.21875 0.0388325
v 0.0625 0 -0.025888125
v 0.09375 0.21875 -0.0388325
v 0.025888125 0 -0.0625
v 0.0388325 0.21875 -0.09375
v -0.025888125 0 -0.0625
v -0.0388325 0.21875 -0.09375
v -0.0625 0 -0.025888125
v -0.09375 0.21875 -0.0388325
v -0.0625 0 0.025888125
v -0.09375 0.21875 0.0388325
v -0.025888125 0 0.0625
v -0.0388325 0.21875 0.09375
v -0.0388325 0.03125 -0.09375
v 0.0388325 0.03125 -0.09375
v 0.09375 0.03125 -0.0388325
v 0.09375 0.03125 0.0388325
v 0.0388325 0.03125 0.09375
v -0.0388325 0.03125 0.09375
v -0.09375 0.03125 0.0388325
v -0.09375 0.03125 -0.0388325
v -0.031713125 0.21875 0.0765625
v 0.031713125 0.21875 0.0765625
v 0.0765625 0.21875 0.031713125
v 0.0765625 0.21875 -0.031713125
v 0.031713125 0.21875 -0.0765625
v -0.031713125 0.21875 -0.0765625
v -0.0765625 0.21875 -0.031713125
v -0.0765625 0.21875 0.031713125
v -0.031713125 0.0375 0.0765625
v 0.031713125 0.0375 0.0765625
v 0 0.0375 0
v 0.0765625 0.0375 0.031713125
v 0.0765625 0.0375 -0.031713125
v 0.031713125 0.0375 -0.0765625
v -0.031713125 0.0375 -0.0765625
v -0.0765625 0.0375 -0.031713125
v -0.0765625 0.0375 0.031713125
vt 0.1875 0.85669375
vt 0.16919375 0.875
vt 0.15625 0.84375
vt 0.3125 0.65625
vt 0.3125 0.5625
vt 0.34375 0.5625
vt 0.34375 0.65625
vt 0.17991875 0.9234375
vt 0.20234375 0.9458625
vt 0.1640625 0.96171875
vt 0.1875 0.83080625
vt 0.1875 0.85669375
vt 0.15625 0.84375
vt 0.25 0.78125
vt 0.25 0.6875
vt 0.28125 0.6875
vt 0.28125 0.78125
vt 0.20234375 0.9458625
vt 0.20234375 0.977575
vt 0.1640625 0.96171875
vt 0.16919375 0.8125
vt 0.1875 0.83080625
vt 0.15625 0.84375
vt 0.375 0.875
vt 0.375 0.78125
vt 0.40625 0.78125
vt 0.40625 0.875
vt 0.20234375 0.977575
vt 0.17991875 1
vt 0.1640625 0.96171875
vt 0.14330625 0.8125
vt 0.16919375 0.8125
vt 0.15625 0.84375
vt 0 0.6875
vt 0 0.59375
vt 0.03125 0.59375
vt 0.03125 0.6875
vt 0.17991875 1
vt 0.14820625 1
vt 0.1640625 0.96171875
vt 0.125 0.83080625
vt 0.14330625 0.8125
vt 0.15625 0.84375
vt 0.375 0.75
vt 0.375 0.65625
vt 0.40625 0.65625
vt 0.40625 0.75
vt 0.14820625 1
vt 0.12578125 0.977575
vt 0.1640625 0.96171875
vt 0.125 0.85669375
vt 0.125 0.83080625
vt 0.15625 0.84375
vt 0.0625 0.6875
vt 0.0625 0.59375
vt 0.09375 0.59375
vt 0.09375 0.6875
vt 0.12578125 0.977575
vt 0.12578125 0.9458625
vt 0.1640625 0.96171875
vt 0.14330625 0.875
vt 0.125 0.85669375
vt 0.15625 0.84375
vt 0.375 0.625
vt 0.375 0.53125
vt 0.40625 0.53125
vt 0.40625 0.625
vt 0.12578125 0.9458625
vt 0.14820625 0.9234375
vt 0.1640625 0.96171875
vt 0.16919375 0.875
vt 0.14330625 0.875
vt 0.15625 0.84375
vt 0.3125 0.78125
vt 0.3125 0.6875
vt 0.34375 0.6875
vt 0.34375 0.78125
vt 0.14820625 0.9234375
vt 0.17991875 0.9234375
vt 0.1640625 0.96171875
vt 0.06763125 0.74834125
vt 0.074103125 0.770438125
vt 0.035271875 0.770438125
vt 0.04174375 0.74834125
vt 0.04174375 0.74834125
vt 0.035271875 0.770438125
vt 0.00257625 0.74948875
vt 0.019946875 0.734375
vt 0.03638125 0.8125
vt 0.042853125 0.84375
vt 0.004021875 0.84375
vt 0.01049375 0.8125
vt 0.308178125 0.828125
vt 0.32554875 0.84323875
vt 0.292853125 0.864188125
vt 0.28638125 0.84209125
vt 0.28638125 0.84209125
vt 0.292853125 0.864188125
vt 0.254021875 0.864188125
vt 0.26049375 0.84209125
vt 0.26049375 0.84209125
vt 0.254021875 0.864188125
vt 0.22132625 0.84323875
vt 0.238696875 0.828125
vt 0.47388125 0.625
vt 0.480353125 0.65625
vt 0.441521875 0.65625
vt 0.44799375 0.625
vt 0.089428125 0.734375
vt 0.10679875 0.74948875
vt 0.074103125 0.770438125
vt 0.06763125 0.74834125
vt 0.06273125 0.91484375
vt 0.03101875 0.91484375
vt 0.027459375 0.90625
vt 0.066290625 0.90625
vt 0.08515625 0.93726875
vt 0.06273125 0.91484375
vt 0.066290625 0.90625
vt 0.09375 0.933709375
vt 0.08515625 0.96898125
vt 0.08515625 0.93726875
vt 0.09375 0.933709375
vt 0.09375 0.972540625
vt 0.06273125 0.99140625
vt 0.08515625 0.96898125
vt 0.09375 0.972540625
vt 0.066290625 1
vt 0.03101875 0.99140625
vt 0.06273125 0.99140625
vt 0.066290625 1
vt 0.027459375 1
vt 0.00859375 0.96898125
vt 0.03101875 0.99140625
vt 0.027459375 1
vt 0 0.972540625
vt 0.00859375 0.93726875
vt 0.00859375 0.96898125
vt 0 0.972540625
vt 0 0.933709375
vt 0.03101875 0.91484375
vt 0.00859375 0.93726875
vt 0 0.933709375
vt 0.027459375 0.90625
vt 0.34375 0.90625
vt 0.375 0.90625
vt 0.375 1
vt 0.34375 1
vt 0.40625 0.90625
vt 0.4375 0.90625
vt 0.4375 1
vt 0.40625 1
vt 0.125 0.5625
vt 0.15625 0.5625
vt 0.15625 0.65625
vt 0.125 0.65625
vt 0 0.46875
vt 0.03125 0.46875
vt 0.03125 0.5625
vt 0 0.5625
vt 0.1875 0.5625
vt 0.21875 0.5625
vt 0.21875 0.65625
vt 0.1875 0.65625
vt 0.0625 0.46875
vt 0.09375 0.46875
vt 0.09375 0.5625
vt 0.0625 0.5625
vt 0.25 0.5625
vt 0.28125 0.5625
vt 0.28125 0.65625
vt 0.25 0.65625
vt 0.4375 0.78125
vt 0.46875 0.78125
vt 0.46875 0.875
vt 0.4375 0.875
vn 0 -1 0
vn 0.7071067811865476 0 0.7071067811865476
vn 0 1 0
vn 0 -1 0
vn 1 0 0
vn 0 1 0
vn 0 -1 0
vn 0.7071067811865476 0 -0.7071067811865476
vn 0 1 0
vn 0 -1 0
vn 0 0 -1
vn 0 1 0
vn 0 -1 0
vn -0.7071067811865476 0 -0.7071067811865476
vn 0 1 0
vn 0 -1 0
vn -1 0 0
vn 0 1 0
vn 0 -1 0
vn -0.7071067811865476 0 0.7071067811865476
vn 0 1 0
vn 0 -1 0
vn 0 0 1
vn 0 1 0
vn 0 -0.7071067811865476 -0.7071067811865476
vn 0.4999988619788853 -0.7071083905877792 -0.4999988619788854
vn 0.7071067811865476 -0.7071067811865476 0
vn 0.49999886197888543 -0.7071083905877792 0.4999988619788854
vn 0 -0.7071067811865476 0.7071067811865476
vn -0.4999988619788853 -0.7071083905877792 0.4999988619788854
vn -0.7071067811865476 -0.7071067811865476 0
vn -0.49999886197888543 -0.7071083905877792 -0.4999988619788854
vn 0 1 0
vn 0 1 0
vn 0 1 0
vn 0 1 0
vn 0 1 0
vn 0 1 0
vn 0 1 0
vn 0 1 0
vn 0 0 -1
vn -0.7071067811865476 0 -0.7071067811865476
vn -1 0 0
vn -0.7071067811865476 0 0.7071067811865476
vn 0 0 1
vn 0.7071067811865476 0 0.7071067811865476
vn 1 0 0
vn 0.7071067811865476 0 -0.7071067811865476
usemtl m_a569d1d1-7fa4-f9f4-8938-642a0d63bcea
f 4/1/1 2/2/1 1/3/1
f 3/4/2 22/5/2 21/6/2 5/7/2
f 35/8/3 37/9/3 36/10/3
f 6/11/4 4/12/4 1/13/4
f 5/14/5 21/15/5 20/16/5 7/17/5
f 37/18/6 38/19/6 36/20/6
f 8/21/7 6/22/7 1/23/7
f 7/24/8 20/25/8 19/26/8 9/27/8
f 38/28/9 39/29/9 36/30/9
f 10/31/10 8/32/10 1/33/10
f 9/34/11 19/35/11 18/36/11 11/37/11
f 39/38/12 40/39/12 36/40/12
f 12/41/13 10/42/13 1/43/13
f 11/44/14 18/45/14 25/46/14 13/47/14
f 40/48/15 41/49/15 36/50/15
f 14/51/16 12/52/16 1/53/16
f 13/54/17 25/55/17 24/56/17 15/57/17
f 41/58/18 42/59/18 36/60/18
f 16/61/19 14/62/19 1/63/19
f 15/64/20 24/65/20 23/66/20 17/67/20
f 42/68/21 34/69/21 36/70/21
f 2/71/22 16/72/22 1/73/22
f 17/74/23 23/75/23 22/76/23 3/77/23
f 34/78/24 35/79/24 36/80/24
f 10/81/25 18/82/25 19/83/25 8/84/25
f 8/85/26 19/86/26 20/87/26 6/88/26
f 6/89/27 20/90/27 21/91/27 4/92/27
f 4/93/28 21/94/28 22/95/28 2/96/28
f 2/97/29 22/98/29 23/99/29 16/100/29
f 16/101/30 23/102/30 24/103/30 14/104/30
f 14/105/31 24/106/31 25/107/31 12/108/31
f 12/109/32 25/110/32 18/111/32 10/112/32
f 27/113/33 26/114/33 17/115/33 3/116/33
f 28/117/34 27/118/34 3/119/34 5/120/34
f 29/121/35 28/122/35 5/123/35 7/124/35
f 30/125/36 29/126/36 7/127/36 9/128/36
f 31/129/37 30/130/37 9/131/37 11/132/37
f 32/133/38 31/134/38 11/135/38 13/136/38
f 33/137/39 32/138/39 13/139/39 15/140/39
f 26/141/40 33/142/40 15/143/40 17/144/40
f 35/145/41 34/146/41 26/147/41 27/148/41
f 37/149/42 35/150/42 27/151/42 28/152/42
f 38/153/43 37/154/43 28/155/43 29/156/43
f 39/157/44 38/158/44 29/159/44 30/160/44
f 40/161/45 39/162/45 30/163/45 31/164/45
f 41/165/46 40/166/46 31/167/46 32/168/46
f 42/169/47 41/170/47 32/171/47 33/172/47
f 34/173/48 42/174/48 33/175/48 26/176/48
o handle
v -0.134375 0.15 0.01875
v -0.134375 0.15 -0.01875
v -0.134375 0.084375 0.01875
v -0.134375 0.084375 -0.01875
v -0.165625 0.16875 0.01875
v -0.165625 0.16875 -0.01875
v -0.165625 0.065625 0.01875
v -0.165625 0.065625 -0.01875
v -0.09375 0.171875 0.01875
v -0.09375 0.171875 -0.01875
v -0.09375 0.203125 0.01875
v -0.09375 0.203125 -0.01875
v -0.09375 0.0625 0.01875
v -0.09375 0.03125 0.01875
v -0.09375 0.0625 -0.01875
v -0.09375 0.03125 -0.01875
vt 0.46875 0.59375
vt 0.4375 0.59375
vt 0.4375 0.5625
vt 0.46875 0.5625
vt 0.46875 0.6875
vt 0.46875 0.75
vt 0.4375 0.75
vt 0.4375 0.6875
vt 0.17734375 0.721875
vt 0.17734375 0.7546875
vt 0.16171875 0.7640625
vt 0.16171875 0.7125
vt 0.29140625 0.9828125
vt 0.27578125 0.9734375
vt 0.27578125 0.940625
vt 0.29140625 0.93125
vt 0.19765625 0.765625
vt 0.19765625 0.78125
vt 0.16171875 0.7640625
vt 0.17734375 0.7546875
vt 0.21875 0.53125
vt 0.1875 0.53125
vt 0.1875 0.5
vt 0.21875 0.5
vt 0.25546875 1
vt 0.25546875 0.984375
vt 0.27578125 0.9734375
vt 0.29140625 0.9828125
vt 0.5 1
vt 0.46875 1
vt 0.46875 0.96875
vt 0.5 0.96875
vt 0.125 0.5
vt 0.15625 0.5
vt 0.15625 0.53125
vt 0.125 0.53125
vt 0.19765625 0.6953125
vt 0.19765625 0.7109375
vt 0.17734375 0.721875
vt 0.16171875 0.7125
vt 0.46875 0.90625
vt 0.5 0.90625
vt 0.5 0.9375
vt 0.46875 0.9375
vt 0.25546875 0.9296875
vt 0.25546875 0.9140625
vt 0.29140625 0.93125
vt 0.27578125 0.940625
vn 1 0 0
vn -1 0 0
vn 0 0 1
vn 0 0 -1
vn 0 0 1
vn 0.4740998230350175 -0.8804710999221752 0
vn 0 0 -1
vn -0.4314554973040049 0.9021342216356465 0
vn 0.4740998230350174 0.8804710999221753 0
vn 0 0 1
vn -0.4314554973040049 -0.9021342216356465 0
vn 0 0 -1
usemtl m_a569d1d1-7fa4-f9f4-8938-642a0d63bcea
f 44/177/49 43/178/49 45/179/49 46/180/49
f 49/181/50 47/182/50 48/183/50 50/184/50
f 45/185/51 43/186/51 47/187/51 49/188/51
f 48/189/52 44/190/52 46/191/52 50/192/52
f 51/193/53 53/194/53 47/195/53 43/196/53
f 52/197/54 51/198/54 43/199/54 44/200/54
f 54/201/55 52/202/55 44/203/55 48/204/55
f 53/205/56 54/206/56 48/207/56 47/208/56
f 55/209/57 57/210/57 46/211/57 45/212/57
f 56/213/58 55/214/58 45/215/58 49/216/58
f 58/217/59 56/218/59 49/219/59 50/220/59
f 57/221/60 58/222/60 50/223/60 46/224/60