# Made in Blockbench 4.12.5
mtllib nightstand.mtl

o leg
v 0.34375 0.1875 -0.125
v 0.34375 0.1875 -0.21875
v 0.34375 0 -0.125
v 0.34375 0 -0.21875
v 0.25 0.1875 -0.125
v 0.25 0.1875 -0.21875
v 0.25 0 -0.125
v 0.25 0 -0.21875
vt 0.4375 0.875
vt 0.40625 0.875
vt 0.40625 0.828125
vt 0.4375 0.828125
vt 0.4375 0.765625
vt 0.4375 0.8125
vt 0.40625 0.8125
vt 0.40625 0.765625
vt 0.28125 0.5
vt 0.3125 0.5
vt 0.3125 0.53125
vt 0.28125 0.53125
vt 0.359375 0.5
vt 0.359375 0.53125
vt 0.328125 0.53125
vt 0.328125 0.5
vt 0.3125 0.546875
vt 0.3125 0.59375
vt 0.28125 0.59375
vt 0.28125 0.546875
vt 0.359375 0.59375
vt 0.328125 0.59375
vt 0.328125 0.546875
vt 0.359375 0.546875
vn 1 0 0
vn -1 0 0
vn 0 1 0
vn 0 -1 0
vn 0 0 1
vn 0 0 -1
usemtl m_58821076-0800-e591-fcdc-e76237d1f577
f 2/1/1 1/2/1 3/3/1 4/4/1
f 7/5/2 5/6/2 6/7/2 8/8/2
f 5/9/3 1/10/3 2/11/3 6/12/3
f 4/13/4 3/14/4 7/15/4 8/16/4
f 3/17/5 1/18/5 5/19/5 7/20/5
f 6/21/6 2/22/6 4/23/6 8/24/6
o leg
v 0.34375 0.1875 0.21875
v 0.34375 0.1875 0.125
v 0.34375 0 0.21875
v 0.34375 0 0.125
v 0.25 0.1875 0.21875
v 0.25 0.1875 0.125
v 0.25 0 0.21875
v 0.25 0 0.125
vt 0.40625 0.59375
vt 0.375 0.59375
vt 0.375 0.546875
vt 0.40625 0.546875
vt 0.03125 0.53125
vt 0.03125 0.578125
vt 0 0.578125
vt 0 0.53125
vt 0.375 0.5
vt 0.40625 0.5
vt 0.40625 0.53125
vt 0.375 0.53125
vt 0.5 0.59375
vt 0.5 0.625
vt 0.46875 0.625
vt 0.46875 0.59375
vt 0.078125 0.53125
vt 0.078125 0.578125
vt 0.046875 0.578125
vt 0.046875 0.53125
vt 0.125 0.578125
vt 0.09375 0.578125
vt 0.09375 0.53125
vt 0.125 0.53125
vn 1 0 0
vn -1 0 0
vn 0 1 0
vn 0 -1 0
vn 0 0 1
vn 0 0 -1
usemtl m_58821076-0800-e591-fcdc-e76237d1f577
f 10/25/7 9/26/7 11/27/7 12/28/7
f 15/29/8 13/30/8 14/31/8 16/32/8
f 13/33/9 9/34/9 10/35/9 14/36/9
f 12/37/10 11/38/10 15/39/10 16/40/10
f 11/41/11 9/42/11 13/43/11 15/44/11
f 14/45/12 10/46/12 12/47/12 16/48/12
o leg
v -0.25 0.1875 -0.125
v -0.25 0.1875 -0.21875
v -0.25 0 -0.125
v -0.25 0 -0.21875
v -0.34375 0.1875 -0.125
v -0.34375 0.1875 -0.21875
v -0.34375 0 -0.125
v -0.34375 0 -0.21875
vt 0.171875 0.578125
vt 0.140625 0.578125
vt 0.140625 0.53125
vt 0.171875 0.53125
vt 0.21875 0.53125
vt 0.21875 0.578125
vt 0.1875 0.578125
vt 0.1875 0.53125
vt 0.421875 0.5
vt 0.453125 0.5
vt 0.453125 0.53125
vt 0.421875 0.53125
vt 0.5 0.546875
vt 0.5 0.578125
vt 0.46875 0.578125
vt 0.46875 0.546875
vt 0.265625 0.53125
vt 0.265625 0.578125
vt 0.234375 0.578125
vt 0.234375 0.53125
vt 0.453125 0.59375
vt 0.421875 0.59375
vt 0.421875 0.546875
vt 0.453125 0.546875
vn 1 0 0
vn -1 0 0
vn 0 1 0
vn 0 -1 0
vn 0 0 1
vn 0 0 -1
usemtl m_58821076-0800-e591-fcdc-e76237d1f577
f 18/49/13 17/50/13 19/51/13 20/52/13
f 23/53/14 21/54/14 22/55/14 24/56/14
f 21/57/15 17/58/15 18/59/15 22/60/15
f 20/61/16 19/62/16 23/63/16 24/64/16
f 19/65/17 17/66/17 21/67/17 23/68/17
f 22/69/18 18/70/18 20/71/18 24/72/18
o leg
v -0.25 0.1875 0.21875
v -0.25 0.1875 0.125
v -0.25 0 0.21875
v -0.25 0 0.125
v -0.34375 0.1875 0.21875
v -0.34375 0.1875 0.125
v -0.34375 0 0.21875
v -0.34375 0 0.125
vt 0.484375 0.875
vt 0.453125 0.875
vt 0.453125 0.828125
vt 0.484375 0.828125
vt 0.484375 0.765625
vt 0.484375 0.8125
vt 0.453125 0.8125
vt 0.453125 0.765625
vt 0.46875 0.5
vt 0.5 0.5
vt 0.5 0.53125
vt 0.46875 0.53125
vt 0.03125 0.484375
vt 0.03125 0.515625
vt 0 0.515625
vt 0 0.484375
vt 0.484375 0.703125
vt 0.484375 0.75
vt 0.453125 0.75
vt 0.453125 0.703125
vt 0.484375 0.6875
vt 0.453125 0.6875
vt 0.453125 0.640625
vt 0.484375 0.640625
vn 1 0 0
vn -1 0 0
vn 0 1 0
vn 0 -1 0
vn 0 0 1
vn 0 0 -1
usemtl m_58821076-0800-e591-fcdc-e76237d1f577
f 26/73/19 25/74/19 27/75/19 28/76/19
f 31/77/20 29/78/20 30/79/20 32/80/20
f 29/81/21 25/82/21 26/83/21 30/84/21
f 28/85/22 27/86/22 31/87/22 32/88/22
f 27/89/23 25/90/23 29/91/23 31/92/23
f 30/93/24 26/94/24 28/95/24 32/96/24
o body
v 0.375 0.6875 0.25
v 0.375 0.6875 -0.25
v 0.375 0.1875 0.25
v 0.375 0.1875 -0.25
v -0.375 0.6875 0.25
v -0.375 0.6875 -0.25
v -0.375 0.1875 0.25
v -0.375 0.1875 -0.25
vt 0 0.875
vt 0.1875 0.875
vt 0.1875 1
vt 0 1
vt 0.1875 0.734375
vt 0.1875 0.859375
vt 0 0.859375
vt 0 0.734375
vt 0.390625 0.875
vt 0.390625 1
vt 0.203125 1
vt 0.203125 0.875
vt 0.390625 0.859375
vt 0.203125 0.859375
vt 0.203125 0.734375
vt 0.390625 0.734375
vt 0.125 0.71875
vt 0 0.71875
vt 0 0.59375
vt 0.125 0.59375
vt 0.265625 0.59375
vt 0.265625 0.71875
vt 0.140625 0.71875
vt 0.140625 0.59375
vn 0 1 0
vn 0 -1 0
vn 0 0 1
vn 0 0 -1
vn 1 0 0
vn -1 0 0
usemtl m_58821076-0800-e591-fcdc-e76237d1f577
f 37/97/25 33/98/25 34/99/25 38/100/25
f 36/101/26 35/102/26 39/103/26 40/104/26
f 35/105/27 33/106/27 37/107/27 39/108/27
f 38/109/28 34/110/28 36/111/28 40/112/28
f 34/113/29 33/114/29 35/115/29 36/116/29
f 39/117/30 37/118/30 38/119/30 40/120/30
o drawer
v 0.3125 0.65625 -0.25
v 0.3125 0.65625 -0.28125
v 0.3125 0.46875 -0.25
v 0.3125 0.46875 -0.28125
v -0.3125 0.65625 -0.25
v -0.3125 0.65625 -0.28125
v -0.3125 0.46875 -0.25
v -0.3125 0.46875 -0.28125
vt 0.40625 0.984375
vt 0.5625 0.984375
vt 0.5625 1
vt 0.40625 1
vt 0.5625 0.953125
vt 0.5625 0.96875
vt 0.40625 0.96875
vt 0.40625 0.953125
vt 0.4375 0.71875
vt 0.28125 0.71875
vt 0.28125 0.671875
vt 0.4375 0.671875
vt 0.0625 0.515625
vt 0.046875 0.515625
vt 0.046875 0.46875
vt 0.0625 0.46875
vt 0.09375 0.46875
vt 0.09375 0.515625
vt 0.078125 0.515625
vt 0.078125 0.46875
vn 0 1 0
vn 0 -1 0
vn 0 0 -1
vn 1 0 0
vn -1 0 0
usemtl m_58821076-0800-e591-fcdc-e76237d1f577
f 45/121/31 41/122/31 42/123/31 46/124/31
f 44/125/32 43/126/32 47/127/32 48/128/32
f 46/129/33 42/130/33 44/131/33 48/132/33
f 42/133/34 41/134/34 43/135/34 44/136/34
f 47/137/35 45/138/35 46/139/35 48/140/35
o drawer
v 0.3125 0.40625 -0.25
v 0.3125 0.40625 -0.28125
v 0.3125 0.21875 -0.25
v 0.3125 0.21875 -0.28125
v -0.3125 0.40625 -0.25
v -0.3125 0.40625 -0.28125
v -0.3125 0.21875 -0.25
v -0.3125 0.21875 -0.28125
vt 0.40625 0.921875
vt 0.5625 0.921875
vt 0.5625 0.9375
vt 0.40625 0.9375
vt 0.5625 0.890625
vt 0.5625 0.90625
vt 0.40625 0.90625
vt 0.40625 0.890625
vt 0.4375 0.65625
vt 0.28125 0.65625
vt 0.28125 0.609375
vt 0.4375 0.609375
vt 0.125 0.515625
vt 0.109375 0.515625
vt 0.109375 0.46875
vt 0.125 0.46875
vt 0.15625 0.46875
vt 0.15625 0.515625
vt 0.140625 0.515625
vt 0.140625 0.46875
vn 0 1 0
vn 0 -1 0
vn 0 0 -1
vn 1 0 0
vn -1 0 0
usemtl m_58821076-0800-e591-fcdc-e76237d1f577
f 53/141/36 49/142/36 50/143/36 54/144/36
f 52/145/37 51/146/37 55/147/37 56/148/37
f 54/149/38 50/150/38 52/151/38 56/152/38
f 50/153/39 49/154/39 51/155/39 52/156/39
f 55/157/40 53/158/40 54/159/40 56/160/40