# Made in Blockbench 4.12.5
mtllib nightstand_drawer.mtl

o drawer
v 0.3125 0.1875 0.1875
v 0.3125 0.1875 -0.265625
v 0.3125 0 0.1875
v 0.3125 0 -0.265625
v -0.3125 0.1875 0.1875
v -0.3125 0.1875 -0.265625
v -0.3125 0 0.1875
v -0.3125 0 -0.265625
v 0.28125 0.1875 0.1640625
v 0.28125 0.1875 -0.2421875
v -0.28125 0.1875 0.1640625
v -0.28125 0.1875 -0.2421875
v 0.28125 0.03125 0.1640625
v 0.28125 0.03125 -0.2421875
v -0.28125 0.03125 0.1640625
v -0.28125 0.03125 -0.2421875
vt 0.34375 0.78125
vt 0.625 0.78125
vt 0.625 1
vt 0.34375 1
vt 0.3125 0.5
vt 0.3125 0.71875
vt 0 0.71875
vt 0 0.5
vt 0.65625 0.75
vt 0.34375 0.75
vt 0.34375 0.65625
vt 0.65625 0.65625
vt 0.53125 0.375
vt 0.3125 0.375
vt 0.3125 0.28125
vt 0.53125 0.28125
vt 0.78125 0.28125
vt 0.78125 0.375
vt 0.5625 0.375
vt 0.5625 0.28125
vt 0.65625 0.53125
vt 0.65625 0.625
vt 0.34375 0.625
vt 0.34375 0.53125
vt 0.296875 0.78515625
vt 0.015625 0.78515625
vt 0 0.7734375
vt 0.3125 0.7734375
vt 0.296875 0.98828125
vt 0.296875 0.78515625
vt 0.3125 0.7734375
vt 0.3125 1
vt 0.015625 0.98828125
vt 0.296875 0.98828125
vt 0.3125 1
vt 0 1
vt 0.015625 0.78515625
vt 0.015625 0.98828125
vt 0 1
vt 0 0.7734375
vt 0.34375 0.40625
vt 0.625 0.40625
vt 0.625 0.5
vt 0.34375 0.5
vt 0 0.25
vt 0.21875 0.25
vt 0.21875 0.34375
vt 0 0.34375
vt 0 0.375
vt 0.28125 0.375
vt 0.28125 0.46875
vt 0 0.46875
vt 0.65625 0.90625
vt 0.875 0.90625
vt 0.875 1
vt 0.65625 1
vn 0 1 0
vn 0 -1 0
vn 0 0 -1
vn 1 0 0
vn -1 0 0
vn 0 0 1
vn 0 1 0
vn 0 1 0
vn 0 1 0
vn 0 1 0
vn 0 0 -1
vn -1 0 0
vn 0 0 1
vn 1 0 0
usemtl m_02093ba0-7607-fc35-1152-e1646c50f489
f 15/1/1 13/2/1 14/3/1 16/4/1
f 4/5/2 3/6/2 7/7/2 8/8/2
f 6/9/3 2/10/3 4/11/3 8/12/3
f 2/13/4 1/14/4 3/15/4 4/16/4
f 7/17/5 5/18/5 6/19/5 8/20/5
f 3/21/6 1/22/6 5/23/6 7/24/6
f 9/25/7 11/26/7 5/27/7 1/28/7
f 10/29/8 9/30/8 1/31/8 2/32/8
f 12/33/9 10/34/9 2/35/9 6/36/9
f 11/37/10 12/38/10 6/39/10 5/40/10
f 13/41/11 15/42/11 11/43/11 9/44/11
f 14/45/12 13/46/12 9/47/12 10/48/12
f 16/49/13 14/50/13 10/51/13 12/52/13
f 15/53/14 16/54/14 12/55/14 11/56/14
o cuboid
v -0.0625 0.10937500000000001 -0.28125
v -0.0625 0.10937500000000001 -0.296875
v 0.0625 0.10937499999999999 -0.28125
v 0.0625 0.10937499999999999 -0.296875
v -0.0625 0.07812500000000001 -0.28125
v -0.0625 0.07812500000000001 -0.296875
v 0.0625 0.07812499999999999 -0.28125
v 0.0625 0.07812499999999999 -0.296875
v -0.125 0.10937500000000003 -0.25
v -0.125 0.10937500000000003 -0.265625
v -0.125 0.07812500000000003 -0.25
v -0.125 0.07812500000000003 -0.265625
v 0.125 0.10937499999999997 -0.25
v 0.125 0.07812499999999997 -0.25
v 0.125 0.10937499999999997 -0.265625
v 0.125 0.07812499999999997 -0.265625
vt 0.27734375 0.3125
vt 0.26953125 0.3125
vt 0.26953125 0.25
vt 0.27734375 0.25
vt 0.69921875 0.78125
vt 0.69921875 0.84375
vt 0.69140625 0.84375
vt 0.69140625 0.78125
vt 0.703125 0.621309375
vt 0.703125 0.683809375
vt 0.6875 0.683809375
vt 0.6875 0.621309375
vt 0.765625 0.840059375
vt 0.75 0.840059375
vt 0.75 0.777559375
vt 0.765625 0.777559375
vt 0.703125 0.71875
vt 0.6875 0.71875
vt 0.6875 0.683809375
vt 0.703125 0.683809375
vt 0.26171875 0.34375
vt 0.25390625 0.34375
vt 0.26953125 0.3125
vt 0.27734375 0.3125
vt 0.765625 0.875
vt 0.75 0.875
vt 0.75 0.840059375
vt 0.765625 0.840059375
vt 0.71484375 0.875
vt 0.70703125 0.875
vt 0.69140625 0.84375
vt 0.69921875 0.84375
vt 0.25390625 0.21875
vt 0.26171875 0.21875
vt 0.27734375 0.25
vt 0.26953125 0.25
vt 0.6875 0.58636875
vt 0.703125 0.58636875
vt 0.703125 0.621309375
vt 0.6875 0.621309375
vt 0.70703125 0.75
vt 0.71484375 0.75
vt 0.69921875 0.78125
vt 0.69140625 0.78125
vt 0.75 0.74261875
vt 0.765625 0.74261875
vt 0.765625 0.777559375
vt 0.75 0.777559375
vn 2.220446049250313e-16 1 0
vn -2.220446049250313e-16 -1 0
vn 0 0 1
vn 0 0 -1
vn 0.44721359549995804 -9.930136612989094e-17 0.8944271909999161
vn 2.220446049250313e-16 1 0
vn -0.44721359549995804 9.930136612989094e-17 -0.8944271909999161
vn -2.220446049250313e-16 -1 0
vn 2.220446049250313e-16 1 0
vn -0.44721359549995804 9.930136612989094e-17 0.8944271909999161
vn -2.220446049250313e-16 -1 0
vn 0.44721359549995804 -9.930136612989094e-17 -0.8944271909999161
usemtl m_02093ba0-7607-fc35-1152-e1646c50f489
f 18/57/15 17/58/15 19/59/15 20/60/15
f 23/61/16 21/62/16 22/63/16 24/64/16
f 19/65/17 17/66/17 21/67/17 23/68/17
f 22/69/18 18/70/18 20/71/18 24/72/18
f 25/73/19 27/74/19 21/75/19 17/76/19
f 26/77/20 25/78/20 17/79/20 18/80/20
f 28/81/21 26/82/21 18/83/21 22/84/21
f 27/85/22 28/86/22 22/87/22 21/88/22
f 29/89/23 31/90/23 20/91/23 19/92/23
f 30/93/24 29/94/24 19/95/24 23/96/24
f 32/97/25 30/98/25 23/99/25 24/100/25
f 31/101/26 32/102/26 24/103/26 20/104/26