# Made in Blockbench 4.12.5
mtllib note.mtl

o plane
v 0.115625 0.046875 -0.178125
v -0.125 0.03125 -0.1875
v 0.11875 0.03125 0.06875
v -0.125 0.03125 0.0625
v -0.11875 0.03125 0.046875
v 0.125 0.03125 0.046875
v -0.125 0.03125 0.0078125
v 0.125 0.03125 0.0078125
v 0.125 0.03125 0.161196875
v 0.10033 0.03125 0.1875
v 0.098400625 0.03125 -0.1875
v 0.125 0.03125 -0.152939375
v 0.11875 0.03125 -0.04131375
v 0.125 0.03125 -0.06587625
v 0.125 0.03125 0.1875
v -0.125 0.03125 0.1632075
v -0.100965 0.03125 0.1875
vt 0.4875 0.48750000000000004
vt 0.5 0.53125
vt 0.0125 0.53125
vt 0 0.5
vt 0.5 0.53125
vt 0.5 0.609375
vt 0 0.609375
vt 0.0125 0.53125
vt 0.4506625 0.25
vt 0.5 0.3026
vt 0.4875 0.48750000000000004
vt 0 0.5
vt 0.4468 1
vt 0 1
vt 0 0.609375
vt 0.5 0.930875
vt 0 0.609375
vt 0.5 0.75675
vt 0.5 0.930875
vt 0.7122125 0.9375
vt 0.67305 0.9701
vt 0.625 0.9375
vt 0.5 0.609375
vt 0.4875 0.707625
vt 0 0.609375
vt 0.4875 0.707625
vt 0.5 0.75675
vt 0 0.609375
vt 0.5 0.25
vt 0.5 0.3026
vt 0.4506625 0.25
vt 0 0.5
vt 0 0.2985875
vt 0.048075 0.25
vt 0.4506625 0.25
vn 0 1 0
vn 0 1 0
vn 0 1 0
vn 0 1 0
vn 0 1 0
vn -0.706632372447093 0.4526500754190687 0.5438553111195148
vn 0 1 0
vn 0 1 0
vn 0 1 0
vn 0 1 0
usemtl m_1abb1feb-0003-b076-27c4-159ee27f3fa2
f 3/1/1 6/2/1 5/3/1 4/4/1
f 6/5/2 8/6/2 7/7/2 5/8/2
f 10/9/3 9/10/3 3/11/3 4/12/3
f 11/13/4 2/14/4 7/15/4 12/16/4
f 7/17/5 14/18/5 12/19/5
f 12/20/6 1/21/6 11/22/6
f 8/23/7 13/24/7 7/25/7
f 13/26/8 14/27/8 7/28/8
f 15/29/9 9/30/9 10/31/9
f 4/32/10 16/33/10 17/34/10 10/35/10
o plane
v 0.115625 0.0465625 -0.178125
v -0.125 0.0309375 -0.1875
v 0.11875 0.0309375 0.06875
v -0.125 0.0309375 0.0625
v -0.11875 0.0309375 0.046875
v 0.125 0.0309375 0.046875
v -0.125 0.0309375 0.0078125
v 0.125 0.0309375 0.0078125
v 0.125 0.0309375 0.161196875
v 0.10033 0.0309375 0.1875
v 0.098400625 0.0309375 -0.1875
v 0.125 0.0309375 -0.152939375
v 0.11875 0.0309375 -0.04131375
v 0.125 0.0309375 -0.06587625
v 0.125 0.0309375 0.1875
v -0.125 0.0309375 0.1632075
v -0.100965 0.0309375 0.1875
vt 0.0125 0.53125
vt 0.5 0.53125
vt 0.4875 0.48750000000000004
vt 0 0.5
vt 0 0.609375
vt 0.5 0.609375
vt 0.5 0.53125
vt 0.0125 0.53125
vt 0.4875 0.48750000000000004
vt 0.5 0.3026
vt 0.4506625 0.25
vt 0 0.5
vt 0 0.609375
vt 0 1
vt 0.4468 1
vt 0.5 0.930875
vt 0.5 0.75675
vt 0 0.609375
vt 0.5 0.930875
vt 0.67305 0.9701
vt 0.7122125 0.9375
vt 0.625 0.9375
vt 0.4875 0.707625
vt 0.5 0.609375
vt 0 0.609375
vt 0.5 0.75675
vt 0.4875 0.707625
vt 0 0.609375
vt 0.5 0.3026
vt 0.5 0.25
vt 0.4506625 0.25
vt 0.048075 0.25
vt 0 0.2985875
vt 0 0.5
vt 0.4506625 0.25
vn 0 -1 0
vn 0 -1 0
vn 0 -1 0
vn 0 -1 0
vn 0 -1 0
vn 0.706632372447093 -0.4526500754190687 -0.5438553111195149
vn 0 -1 0
vn 0 -1 0
vn 0 -1 0
vn 0 -1 0
usemtl m_1abb1feb-0003-b076-27c4-159ee27f3fa2
f 22/36/11 23/37/11 20/38/11 21/39/11
f 24/40/12 25/41/12 23/42/12 22/43/12
f 20/44/13 26/45/13 27/46/13 21/47/13
f 24/48/14 19/49/14 28/50/14 29/51/14
f 31/52/15 24/53/15 29/54/15
f 18/55/16 29/56/16 28/57/16
f 30/58/17 25/59/17 24/60/17
f 31/61/18 30/62/18 24/63/18
f 26/64/19 32/65/19 27/66/19
f 34/67/20 33/68/20 21/69/20 27/70/20