# Made in Blockbench 4.12.5
mtllib oven.mtl

o door
v 0.4375 0.8125 -0.4375
v 0.4375 0.8125 -0.46875
v 0.4375 0.1875 -0.4375
v 0.4375 0.1875 -0.46875
v -0.4375 0.8125 -0.4375
v -0.4375 0.8125 -0.46875
v -0.4375 0.1875 -0.4375
v -0.4375 0.1875 -0.46875
vt 0.125 0.734375
vt 0.1171875 0.734375
vt 0.1171875 0.65625
vt 0.125 0.65625
vt 0.0625 0.5390625
vt 0.0625 0.6171875
vt 0.0546875 0.6171875
vt 0.0546875 0.5390625
vt 0.3828125 0.90625
vt 0.4921875 0.90625
vt 0.4921875 0.9140625
vt 0.3828125 0.9140625
vt 0.4921875 0.890625
vt 0.4921875 0.8984375
vt 0.3828125 0.8984375
vt 0.3828125 0.890625
vt 0.375 0.6796875
vt 0.265625 0.6796875
vt 0.265625 0.6015625
vt 0.375 0.6015625
vn 1 0 0
vn -1 0 0
vn 0 1 0
vn 0 -1 0
vn 0 0 -1
usemtl m_3969df35-eb31-ee46-c05f-de469239a34d
f 2/1/1 1/2/1 3/3/1 4/4/1
f 7/5/2 5/6/2 6/7/2 8/8/2
f 5/9/3 1/10/3 2/11/3 6/12/3
f 4/13/4 3/14/4 7/15/4 8/16/4
f 6/17/5 2/18/5 4/19/5 8/20/5
o handle
v -0.234375 0.75 -0.46875
v -0.265625 0.75 -0.46875
v 0.234375 0.75 -0.46875
v 0.265625 0.7499999999999999 -0.46875
v -0.234375 0.6875 -0.46875
v -0.265625 0.6875000000000001 -0.46875
v 0.234375 0.6875 -0.46875
v 0.265625 0.6875 -0.46875
v 0.1875 0.75 -0.53125
v 0.1875 0.75 -0.5
v 0.1875 0.6875 -0.5
v 0.1875 0.6875 -0.53125
v -0.1875 0.75 -0.53125
v -0.1875 0.75 -0.5
v -0.1875 0.6875 -0.5
v -0.1875 0.6875 -0.53125
vt 0.0703125 0.61328125
vt 0.07421875 0.607421875
vt 0.078125 0.607421875
vt 0.0703125 0.6171875
vt 0.09375 0.6171875
vt 0.0859375 0.607421875
vt 0.08984375 0.607421875
vt 0.09375 0.61328125
vt 0.25 0.6015625
vt 0.2578125 0.6015625
vt 0.2578125 0.609375
vt 0.25 0.609375
vt 0.2265625 0.7421875
vt 0.2265625 0.7265625
vt 0.234375 0.7265625
vt 0.234375 0.7421875
vt 0.0703125 0.55078125
vt 0.078125 0.560546875
vt 0.07421875 0.560546875
vt 0.0703125 0.5546875
vt 0.109375 0.5632703125
vt 0.109375 0.5703125
vt 0.1015625 0.5703125
vt 0.1015625 0.5632703125
vt 0.09375 0.5546875
vt 0.08984375 0.560546875
vt 0.0859375 0.560546875
vt 0.09375 0.55078125
vt 0.234375 0.703125
vt 0.234375 0.71875
vt 0.2265625 0.71875
vt 0.2265625 0.703125
vt 0.078125 0.560546875
vt 0.078125 0.607421875
vt 0.07421875 0.607421875
vt 0.07421875 0.560546875
vt 0.109375 0.5703125
vt 0.109375 0.6171875
vt 0.1015625 0.6171875
vt 0.1015625 0.5703125
vt 0.08984375 0.560546875
vt 0.08984375 0.607421875
vt 0.0859375 0.607421875
vt 0.0859375 0.560546875
vt 0.21875 0.6953125
vt 0.21875 0.7421875
vt 0.2109375 0.7421875
vt 0.2109375 0.6953125
vn 2.220446049250313e-16 1 0
vn -2.220446049250313e-16 -1 0
vn 0 0 1
vn -0.6246950475544243 1.3871016503284579e-16 -0.7808688094430304
vn 2.220446049250313e-16 1 0
vn -0.5547001962252291 1.2316818592266835e-16 0.8320502943378437
vn -2.220446049250313e-16 -1 0
vn 0.6246950475544243 -1.3871016503284579e-16 -0.7808688094430304
vn 2.220446049250313e-16 1 0
vn 0 0 1
vn -2.220446049250313e-16 -1 0
vn 0 0 -1
usemtl m_3969df35-eb31-ee46-c05f-de469239a34d
f 9/21/6 22/22/6 21/23/6 10/24/6
f 14/25/7 24/26/7 23/27/7 13/28/7
f 13/29/8 9/30/8 10/31/8 14/32/8
f 10/33/9 21/34/9 24/35/9 14/36/9
f 12/37/10 17/38/10 18/39/10 11/40/10
f 11/41/11 18/42/11 19/43/11 15/44/11
f 15/45/12 19/46/12 20/47/12 16/48/12
f 16/49/13 20/50/13 17/51/13 12/52/13
f 17/53/14 21/54/14 22/55/14 18/56/14
f 18/57/15 22/58/15 23/59/15 19/60/15
f 19/61/16 23/62/16 24/63/16 20/64/16
f 20/65/17 24/66/17 21/67/17 17/68/17
o cylinder
v -0.25 1.03125 -0.25
v -0.198223125 1 -0.125
v -0.198223125 1.03125 -0.125
v -0.125 1 -0.198223125
v -0.125 1.03125 -0.198223125
v -0.125 1 -0.301776875
v -0.125 1.03125 -0.301776875
v -0.198223125 1 -0.375
v -0.198223125 1.03125 -0.375
v -0.301776875 1 -0.375
v -0.301776875 1.03125 -0.375
v -0.375 1 -0.301776875
v -0.375 1.03125 -0.301776875
v -0.375 1 -0.198223125
v -0.375 1.03125 -0.198223125
v -0.301776875 1 -0.125
v -0.301776875 1.03125 -0.125
vt 0.3828125 0.609375
vt 0.3984375 0.609375
vt 0.3984375 0.6171875
vt 0.3828125 0.6171875
vt 0.248659375 0.6171875
vt 0.2578125 0.626340625
vt 0.2421875 0.6328125
vt 0.3828125 0.671875
vt 0.3984375 0.671875
vt 0.3984375 0.6796875
vt 0.3828125 0.6796875
vt 0.2578125 0.626340625
vt 0.2578125 0.639284375
vt 0.2421875 0.6328125
vt 0.2265625 0.6015625
vt 0.2421875 0.6015625
vt 0.2421875 0.609375
vt 0.2265625 0.609375
vt 0.2578125 0.639284375
vt 0.248659375 0.6484375
vt 0.2421875 0.6328125
vt 0.3828125 0.625
vt 0.3984375 0.625
vt 0.3984375 0.6328125
vt 0.3828125 0.6328125
vt 0.248659375 0.6484375
vt 0.235715625 0.6484375
vt 0.2421875 0.6328125
vt 0.2265625 0.5859375
vt 0.2421875 0.5859375
vt 0.2421875 0.59375
vt 0.2265625 0.59375
vt 0.235715625 0.6484375
vt 0.2265625 0.639284375
vt 0.2421875 0.6328125
vt 0.3828125 0.65625
vt 0.3984375 0.65625
vt 0.3984375 0.6640625
vt 0.3828125 0.6640625
vt 0.2265625 0.639284375
vt 0.2265625 0.626340625
vt 0.2421875 0.6328125
vt 0.3828125 0.59375
vt 0.3984375 0.59375
vt 0.3984375 0.6015625
vt 0.3828125 0.6015625
vt 0.2265625 0.626340625
vt 0.235715625 0.6171875
vt 0.2421875 0.6328125
vt 0.3828125 0.640625
vt 0.3984375 0.640625
vt 0.3984375 0.6484375
vt 0.3828125 0.6484375
vt 0.235715625 0.6171875
vt 0.248659375 0.6171875
vt 0.2421875 0.6328125
vn 0.7071067811865476 0 0.7071067811865476
vn 0 1 0
vn 1 0 0
vn 0 1 0
vn 0.7071067811865476 0 -0.7071067811865476
vn 0 1 0
vn 0 0 -1
vn 0 1 0
vn -0.7071067811865476 0 -0.7071067811865476
vn 0 1 0
vn -1 0 0
vn 0 1 0
vn -0.7071067811865476 0 0.7071067811865476
vn 0 1 0
vn 0 0 1
vn 0 1 0
usemtl m_3969df35-eb31-ee46-c05f-de469239a34d
f 26/69/18 28/70/18 29/71/18 27/72/18
f 27/73/19 29/74/19 25/75/19
f 28/76/20 30/77/20 31/78/20 29/79/20
f 29/80/21 31/81/21 25/82/21
f 30/83/22 32/84/22 33/85/22 31/86/22
f 31/87/23 33/88/23 25/89/23
f 32/90/24 34/91/24 35/92/24 33/93/24
f 33/94/25 35/95/25 25/96/25
f 34/97/26 36/98/26 37/99/26 35/100/26
f 35/101/27 37/102/27 25/103/27
f 36/104/28 38/105/28 39/106/28 37/107/28
f 37/108/29 39/109/29 25/110/29
f 38/111/30 40/112/30 41/113/30 39/114/30
f 39/115/31 41/116/31 25/117/31
f 40/118/32 26/119/32 27/120/32 41/121/32
f 41/122/33 27/123/33 25/124/33
o cylinder
v 0.25 1.03125 -0.1875
v 0.327665 1 0
v 0.327665 1.03125 0
v 0.4375 1 -0.109835
v 0.4375 1.03125 -0.109835
v 0.4375 1 -0.265165
v 0.4375 1.03125 -0.265165
v 0.327665 1 -0.375
v 0.327665 1.03125 -0.375
v 0.17233500000000002 1 -0.375
v 0.17233500000000002 1.03125 -0.375
v 0.0625 1 -0.265165
v 0.0625 1.03125 -0.265165
v 0.0625 1 -0.109835
v 0.0625 1.03125 -0.109835
v 0.17233500000000002 1 0
v 0.17233500000000002 1.03125 0
vt 0.390625 0.578125
vt 0.40625 0.578125
vt 0.40625 0.5859375
vt 0.390625 0.5859375
vt 0.1893953125 0.6953125
vt 0.203125 0.7090421874999999
vt 0.1796875 0.71875
vt 0.40625 0.625
vt 0.421875 0.625
vt 0.421875 0.6328125
vt 0.40625 0.6328125
vt 0.203125 0.7090421874999999
vt 0.203125 0.7284578125000001
vt 0.1796875 0.71875
vt 0.421875 0.9453125
vt 0.4375 0.9453125
vt 0.4375 0.953125
vt 0.421875 0.953125
vt 0.203125 0.7284578125000001
vt 0.1893953125 0.7421875
vt 0.1796875 0.71875
vt 0.3671875 0.578125
vt 0.3828125 0.578125
vt 0.3828125 0.5859375
vt 0.3671875 0.5859375
vt 0.1893953125 0.7421875
vt 0.1699796875 0.7421875
vt 0.1796875 0.71875
vt 0.421875 0.9296875
vt 0.4375 0.9296875
vt 0.4375 0.9375
vt 0.421875 0.9375
vt 0.1699796875 0.7421875
vt 0.15625 0.7284578125000001
vt 0.1796875 0.71875
vt 0.40625 0.609375
vt 0.421875 0.609375
vt 0.421875 0.6171875
vt 0.40625 0.6171875
vt 0.15625 0.7284578125000001
vt 0.15625 0.7090421874999999
vt 0.1796875 0.71875
vt 0.4140625 0.578125
vt 0.4296875 0.578125
vt 0.4296875 0.5859375
vt 0.4140625 0.5859375
vt 0.15625 0.7090421874999999
vt 0.1699796875 0.6953125
vt 0.1796875 0.71875
vt 0.40625 0.59375
vt 0.421875 0.59375
vt 0.421875 0.6015625
vt 0.40625 0.6015625
vt 0.1699796875 0.6953125
vt 0.1893953125 0.6953125
vt 0.1796875 0.71875
vn 0.7071067811865476 0 0.7071067811865476
vn 0 1 0
vn 1 0 0
vn 0 1 0
vn 0.7071067811865476 0 -0.7071067811865476
vn 0 1 0
vn 0 0 -1
vn 0 1 0
vn -0.7071067811865476 0 -0.7071067811865476
vn 0 1 0
vn -1 0 0
vn 0 1 0
vn -0.7071067811865476 0 0.7071067811865476
vn 0 1 0
vn 0 0 1
vn 0 1 0
usemtl m_3969df35-eb31-ee46-c05f-de469239a34d
f 43/125/34 45/126/34 46/127/34 44/128/34
f 44/129/35 46/130/35 42/131/35
f 45/132/36 47/133/36 48/134/36 46/135/36
f 46/136/37 48/137/37 42/138/37
f 47/139/38 49/140/38 50/141/38 48/142/38
f 48/143/39 50/144/39 42/145/39
f 49/146/40 51/147/40 52/148/40 50/149/40
f 50/150/41 52/151/41 42/152/41
f 51/153/42 53/154/42 54/155/42 52/156/42
f 52/157/43 54/158/43 42/159/43
f 53/160/44 55/161/44 56/162/44 54/163/44
f 54/164/45 56/165/45 42/166/45
f 55/167/46 57/168/46 58/169/46 56/170/46
f 56/171/47 58/172/47 42/173/47
f 57/174/48 43/175/48 44/176/48 58/177/48
f 58/178/49 44/179/49 42/180/49
o cylinder
v 0.3125 1.03125 0.25
v 0.364276875 1 0.375
v 0.364276875 1.03125 0.375
v 0.4375 1 0.301776875
v 0.4375 1.03125 0.301776875
v 0.4375 1 0.198223125
v 0.4375 1.03125 0.198223125
v 0.364276875 1 0.125
v 0.364276875 1.03125 0.125
v 0.260723125 1 0.125
v 0.260723125 1.03125 0.125
v 0.1875 1 0.198223125
v 0.1875 1.03125 0.198223125
v 0.1875 1 0.301776875
v 0.1875 1.03125 0.301776875
v 0.260723125 1 0.375
v 0.260723125 1.03125 0.375
vt 0.40625 0.671875
vt 0.421875 0.671875
vt 0.421875 0.6796875
vt 0.40625 0.6796875
vt 0.404909375 0.921875
vt 0.4140625 0.931028125
vt 0.3984375 0.9375
vt 0.25 0.5859375
vt 0.265625 0.5859375
vt 0.265625 0.59375
vt 0.25 0.59375
vt 0.4140625 0.931028125
vt 0.4140625 0.943971875
vt 0.3984375 0.9375
vt 0.40625 0.65625
vt 0.421875 0.65625
vt 0.421875 0.6640625
vt 0.40625 0.6640625
vt 0.4140625 0.943971875
vt 0.404909375 0.953125
vt 0.3984375 0.9375
vt 0.3203125 0.5859375
vt 0.3359375 0.5859375
vt 0.3359375 0.59375
vt 0.3203125 0.59375
vt 0.404909375 0.953125
vt 0.391965625 0.953125
vt 0.3984375 0.9375
vt 0.40625 0.640625
vt 0.421875 0.640625
vt 0.421875 0.6484375
vt 0.40625 0.6484375
vt 0.391965625 0.953125
vt 0.3828125 0.943971875
vt 0.3984375 0.9375
vt 0.2734375 0.5859375
vt 0.2890625 0.5859375
vt 0.2890625 0.59375
vt 0.2734375 0.59375
vt 0.3828125 0.943971875
vt 0.3828125 0.931028125
vt 0.3984375 0.9375
vt 0.34375 0.5859375
vt 0.359375 0.5859375
vt 0.359375 0.59375
vt 0.34375 0.59375
vt 0.3828125 0.931028125
vt 0.391965625 0.921875
vt 0.3984375 0.9375
vt 0.296875 0.5859375
vt 0.3125 0.5859375
vt 0.3125 0.59375
vt 0.296875 0.59375
vt 0.391965625 0.921875
vt 0.404909375 0.921875
vt 0.3984375 0.9375
vn 0.7071067811865476 0 0.7071067811865476
vn 0 1 0
vn 1 0 0
vn 0 1 0
vn 0.7071067811865476 0 -0.7071067811865476
vn 0 1 0
vn 0 0 -1
vn 0 1 0
vn -0.7071067811865476 0 -0.7071067811865476
vn 0 1 0
vn -1 0 0
vn 0 1 0
vn -0.7071067811865476 0 0.7071067811865476
vn 0 1 0
vn 0 0 1
vn 0 1 0
usemtl m_3969df35-eb31-ee46-c05f-de469239a34d
f 60/181/50 62/182/50 63/183/50 61/184/50
f 61/185/51 63/186/51 59/187/51
f 62/188/52 64/189/52 65/190/52 63/191/52
f 63/192/53 65/193/53 59/194/53
f 64/195/54 66/196/54 67/197/54 65/198/54
f 65/199/55 67/200/55 59/201/55
f 66/202/56 68/203/56 69/204/56 67/205/56
f 67/206/57 69/207/57 59/208/57
f 68/209/58 70/210/58 71/211/58 69/212/58
f 69/213/59 71/214/59 59/215/59
f 70/216/60 72/217/60 73/218/60 71/219/60
f 71/220/61 73/221/61 59/222/61
f 72/223/62 74/224/62 75/225/62 73/226/62
f 73/227/63 75/228/63 59/229/63
f 74/230/64 60/231/64 61/232/64 75/233/64
f 75/234/65 61/235/65 59/236/65
o cylinder
v -0.1875 1.03125 0.1875
v -0.109835 1 0.375
v -0.109835 1.03125 0.375
v 0 1 0.265165
v 0 1.03125 0.265165
v 0 1 0.109835
v 0 1.03125 0.109835
v -0.109835 1 0
v -0.109835 1.03125 0
v -0.265165 1 0
v -0.265165 1.03125 0
v -0.375 1 0.109835
v -0.375 1.03125 0.109835
v -0.375 1 0.265165
v -0.375 1.03125 0.265165
v -0.265165 1 0.375
v -0.265165 1.03125 0.375
vt 0.3203125 0.5703125
vt 0.3359375 0.5703125
vt 0.3359375 0.578125
vt 0.3203125 0.578125
vt 0.0331453125 0.5703125
vt 0.046875 0.5840421874999999
vt 0.0234375 0.59375
vt 0.2265625 0.5703125
vt 0.2421875 0.5703125
vt 0.2421875 0.578125
vt 0.2265625 0.578125
vt 0.046875 0.5840421874999999
vt 0.046875 0.6034578125000001
vt 0.0234375 0.59375
vt 0.1171875 0.5625
vt 0.1328125 0.5625
vt 0.1328125 0.5703125
vt 0.1171875 0.5703125
vt 0.046875 0.6034578125000001
vt 0.0331453125 0.6171875
vt 0.0234375 0.59375
vt 0.296875 0.5703125
vt 0.3125 0.5703125
vt 0.3125 0.578125
vt 0.296875 0.578125
vt 0.0331453125 0.6171875
vt 0.0137296875 0.6171875
vt 0.0234375 0.59375
vt 0.140625 0.5625
vt 0.15625 0.5625
vt 0.15625 0.5703125
vt 0.140625 0.5703125
vt 0.0137296875 0.6171875
vt 0 0.6034578125000001
vt 0.0234375 0.59375
vt 0.25 0.5703125
vt 0.265625 0.5703125
vt 0.265625 0.578125
vt 0.25 0.578125
vt 0 0.6034578125000001
vt 0 0.5840421874999999
vt 0.0234375 0.59375
vt 0.34375 0.5703125
vt 0.359375 0.5703125
vt 0.359375 0.578125
vt 0.34375 0.578125
vt 0 0.5840421874999999
vt 0.0137296875 0.5703125
vt 0.0234375 0.59375
vt 0.2734375 0.5703125
vt 0.2890625 0.5703125
vt 0.2890625 0.578125
vt 0.2734375 0.578125
vt 0.0137296875 0.5703125
vt 0.0331453125 0.5703125
vt 0.0234375 0.59375
vn 0.7071067811865476 0 0.7071067811865476
vn 0 1 0
vn 1 0 0
vn 0 1 0
vn 0.7071067811865476 0 -0.7071067811865476
vn 0 1 0
vn 0 0 -1
vn 0 1 0
vn -0.7071067811865476 0 -0.7071067811865476
vn 0 1 0
vn -1 0 0
vn 0 1 0
vn -0.7071067811865476 0 0.7071067811865476
vn 0 1 0
vn 0 0 1
vn 0 1 0
usemtl m_3969df35-eb31-ee46-c05f-de469239a34d
f 77/237/66 79/238/66 80/239/66 78/240/66
f 78/241/67 80/242/67 76/243/67
f 79/244/68 81/245/68 82/246/68 80/247/68
f 80/248/69 82/249/69 76/250/69
f 81/251/70 83/252/70 84/253/70 82/254/70
f 82/255/71 84/256/71 76/257/71
f 83/258/72 85/259/72 86/260/72 84/261/72
f 84/262/73 86/263/73 76/264/73
f 85/265/74 87/266/74 88/267/74 86/268/74
f 86/269/75 88/270/75 76/271/75
f 87/272/76 89/273/76 90/274/76 88/275/76
f 88/276/77 90/277/77 76/278/77
f 89/279/78 91/280/78 92/281/78 90/282/78
f 90/283/79 92/284/79 76/285/79
f 91/286/80 77/287/80 78/288/80 92/289/80
f 92/290/81 78/291/81 76/292/81
o base
v 0.5 0.875 0.4375
v 0.5 0.875 -0.4375
v 0.5 0 0.4375
v 0.5 0 -0.4375
v -0.5 0.875 0.4375
v -0.5 0.875 -0.4375
v -0.5 0 0.4375
v -0.5 0 -0.4375
v 0.40625 0.875 -0.4375
v 0.40625 0.875 0.4375
v 0.40625 0 0.4375
v 0.40625 0 -0.4375
v -0.40625 0.875 -0.4375
v -0.40625 0.875 0.4375
v -0.40625 0 0.4375
v -0.40625 0 -0.4375
v -0.5 0.78125 -0.4375
v -0.5 0.78125 0.4375
v -0.40625 0.78125 0.4375
v 0.40625 0.78125 0.4375
v 0.5 0.78125 0.4375
v 0.5 0.78125 -0.4375
v 0.40625 0.78125 -0.4375
v -0.40625 0.78125 -0.4375
v -0.5 0.21875 -0.4375
v -0.5 0.21875 0.4375
v -0.40625 0.21875 0.4375
v 0.40625 0.21875 0.4375
v 0.5 0.21875 0.4375
v 0.5 0.21875 -0.4375
v 0.40625 0.21875 -0.4375
v -0.40625 0.21875 -0.4375
v 0.40625 0.78125 0.3125
v 0.40625 0.21875 0.3125
v -0.40625 0.21875 0.3125
v -0.40625 0.78125 0.3125
vt 0.109375 0.625
vt 0.109375 0.65234375
vt 0 0.65234375
vt 0 0.625
vt 0.375 0.890625
vt 0.375 0.91796875
vt 0.265625 0.91796875
vt 0.265625 0.890625
vt 0.1328125 0.890625
vt 0.14453125 0.890625
vt 0.14453125 1
vt 0.1328125 1
vt 0.14453125 0.7734375
vt 0.14453125 0.80078125
vt 0.1328125 0.80078125
vt 0.1328125 0.7734375
vt 0.2578125 0.65625
vt 0.2578125 0.68359375
vt 0.24609375 0.68359375
vt 0.24609375 0.65625
vt 0.2578125 0.7734375
vt 0.2578125 0.80078125
vt 0.24609375 0.80078125
vt 0.24609375 0.7734375
vt 0.2578125 1
vt 0.24609375 1
vt 0.24609375 0.890625
vt 0.2578125 0.890625
vt 0.14453125 0.65625
vt 0.14453125 0.68359375
vt 0.1328125 0.68359375
vt 0.1328125 0.65625
vt 0.24609375 0.7734375
vt 0.24609375 0.80078125
vt 0.14453125 0.80078125
vt 0.14453125 0.7734375
vt 0.24609375 1
vt 0.14453125 1
vt 0.14453125 0.890625
vt 0.24609375 0.890625
vt 0.24609375 0.65625
vt 0.24609375 0.68359375
vt 0.14453125 0.68359375
vt 0.14453125 0.65625
vt 0.265625 1
vt 0.265625 0.98828125
vt 0.375 0.98828125
vt 0.375 1
vt 0.1328125 0.8828125
vt 0.1328125 0.87109375
vt 0.14453125 0.87109375
vt 0.14453125 0.8828125
vt 0.14453125 0.8828125
vt 0.14453125 0.87109375
vt 0.24609375 0.87109375
vt 0.24609375 0.8828125
vt 0.24609375 0.8828125
vt 0.24609375 0.87109375
vt 0.2578125 0.87109375
vt 0.2578125 0.8828125
vt 0 0.734375
vt 0 0.72265625
vt 0.109375 0.72265625
vt 0.109375 0.734375
vt 0.1328125 0.765625
vt 0.1328125 0.75390625
vt 0.14453125 0.75390625
vt 0.14453125 0.765625
vt 0.14453125 0.765625
vt 0.14453125 0.75390625
vt 0.24609375 0.75390625
vt 0.24609375 0.765625
vt 0.24609375 0.765625
vt 0.24609375 0.75390625
vt 0.2578125 0.75390625
vt 0.2578125 0.765625
vt 0.265625 0.98828125
vt 0.265625 0.91796875
vt 0.375 0.91796875
vt 0.375 0.98828125
vt 0.1328125 0.87109375
vt 0.1328125 0.80078125
vt 0.14453125 0.80078125
vt 0.14453125 0.87109375
vt 0.14453125 0.87109375
vt 0.14453125 0.80078125
vt 0.24609375 0.80078125
vt 0.24609375 0.87109375
vt 0.24609375 0.87109375
vt 0.24609375 0.80078125
vt 0.2578125 0.80078125
vt 0.2578125 0.87109375
vt 0 0.72265625
vt 0 0.65234375
vt 0.109375 0.65234375
vt 0.109375 0.72265625
vt 0.1328125 0.75390625
vt 0.1328125 0.68359375
vt 0.14453125 0.68359375
vt 0.14453125 0.75390625
vt 0.1171875 0.6484375
vt 0.1171875 0.578125
vt 0.21875 0.578125
vt 0.21875 0.6484375
vt 0.24609375 0.75390625
vt 0.24609375 0.68359375
vt 0.2578125 0.68359375
vt 0.2578125 0.75390625
vt 0.46875 0.8125
vt 0.46875 0.8828125
vt 0.375 0.8828125
vt 0.375 0.8125
vt 0.265625 0.7890625
vt 0.3671875 0.7890625
vt 0.3671875 0.8828125
vt 0.265625 0.8828125
vt 0.375 0.8046875
vt 0.375 0.734375
vt 0.46875 0.734375
vt 0.46875 0.8046875
vt 0.3671875 0.78125
vt 0.265625 0.78125
vt 0.265625 0.6875
vt 0.3671875 0.6875
vn 1 0 0
vn -1 0 0
vn 0 -1 0
vn 0 0 1
vn 0 0 -1
vn 0 0 1
vn 0 -1 0
vn 0 0 -1
vn 0 0 1
vn 0 -1 0
vn 0 0 -1
vn -1 0 0
vn 0 0 1
vn 0 0 1
vn 0 0 1
vn 1 0 0
vn 0 0 -1
vn 0 0 -1
vn 0 0 -1
vn -1 0 0
vn 0 0 1
vn 0 0 1
vn 0 0 1
vn 1 0 0
vn 0 0 -1
vn 0 0 -1
vn 0 0 -1
vn -1 0 0
vn 0 1 0
vn 1 0 0
vn 0 -1 0
usemtl m_3969df35-eb31-ee46-c05f-de469239a34d
f 96/293/82 122/294/82 121/295/82 95/296/82
f 99/297/83 118/298/83 117/299/83 100/300/83
f 100/301/84 108/302/84 107/303/84 99/304/84
f 107/305/85 119/306/85 118/307/85 99/308/85
f 100/309/86 117/310/86 124/311/86 108/312/86
f 95/313/87 121/314/87 120/315/87 103/316/87
f 95/317/88 103/318/88 104/319/88 96/320/88
f 104/321/89 123/322/89 122/323/89 96/324/89
f 103/325/90 120/326/90 119/327/90 107/328/90
f 103/329/91 107/330/91 108/331/91 104/332/91
f 108/333/92 124/334/92 123/335/92 104/336/92
f 98/337/93 109/338/93 110/339/93 97/340/93
f 97/341/94 110/342/94 111/343/94 106/344/94
f 106/345/95 111/346/95 112/347/95 102/348/95
f 102/349/96 112/350/96 113/351/96 93/352/96
f 93/353/97 113/354/97 114/355/97 94/356/97
f 94/357/98 114/358/98 115/359/98 101/360/98
f 101/361/99 115/362/99 116/363/99 105/364/99
f 105/365/100 116/366/100 109/367/100 98/368/100
f 109/369/101 117/370/101 118/371/101 110/372/101
f 110/373/102 118/374/102 119/375/102 111/376/102
f 111/377/103 119/378/103 120/379/103 112/380/103
f 112/381/104 120/382/104 121/383/104 113/384/104
f 113/385/105 121/386/105 122/387/105 114/388/105
f 114/389/106 122/390/106 123/391/106 115/392/106
f 125/393/107 126/394/107 127/395/107 128/396/107
f 116/397/108 124/398/108 117/399/108 109/400/108
f 126/401/109 125/402/109 115/403/109 123/404/109
f 127/405/110 126/406/110 123/407/110 124/408/110
f 128/409/111 127/410/111 124/411/111 116/412/111
f 125/413/112 128/414/112 116/415/112 115/416/112
o board
v 0.5 1 0.5
v 0.5 1 -0.5
v 0.5 0.875 0.5
v 0.5 0.875 -0.5
v -0.5 1 0.5
v -0.5 1 -0.5
v -0.5 0.875 0.5
v -0.5 0.875 -0.5
vt 0.5 0.7265625
vt 0.375 0.7265625
vt 0.375 0.7109375
vt 0.5 0.7109375
vt 0.5 0.6875
vt 0.5 0.703125
vt 0.375 0.703125
vt 0.375 0.6875
vt 0 0.875
vt 0.125 0.875
vt 0.125 1
vt 0 1
vt 0.125 0.7421875
vt 0.125 0.8671875
vt 0 0.8671875
vt 0 0.7421875
vt 0.5078125 0.984375
vt 0.5078125 1
vt 0.3828125 1
vt 0.3828125 0.984375
vt 0.5078125 0.9765625
vt 0.3828125 0.9765625
vt 0.3828125 0.9609375
vt 0.5078125 0.9609375
vn 1 0 0
vn -1 0 0
vn 0 1 0
vn 0 -1 0
vn 0 0 1
vn 0 0 -1
usemtl m_3969df35-eb31-ee46-c05f-de469239a34d
f 130/417/113 129/418/113 131/419/113 132/420/113
f 135/421/114 133/422/114 134/423/114 136/424/114
f 133/425/115 129/426/115 130/427/115 134/428/115
f 132/429/116 131/430/116 135/431/116 136/432/116
f 131/433/117 129/434/117 133/435/117 135/436/117
f 134/437/118 130/438/118 132/439/118 136/440/118