# Made in Blockbench 4.12.5
mtllib pan.mtl

o cylinder
v 0 0 0
v 0.071193125 0 0.171875
v 0.077665 0.078125 0.1875
v 0.171875 0 0.071193125
v 0.1875 0.078125 0.077665
v 0.171875 0 -0.071193125
v 0.1875 0.078125 -0.077665
v 0.071193125 0 -0.171875
v 0.077665 0.078125 -0.1875
v -0.071193125 0 -0.171875
v -0.077665 0.078125 -0.1875
v -0.171875 0 -0.071193125
v -0.1875 0.078125 -0.077665
v -0.171875 0 0.071193125
v -0.1875 0.078125 0.077665
v -0.071193125 0 0.171875
v -0.077665 0.078125 0.1875
v 0.071193125 0.078125 -0.171875
v -0.071193125 0.078125 -0.171875
v -0.171875 0.078125 -0.071193125
v -0.171875 0.078125 0.071193125
v -0.071193125 0.078125 0.171875
v 0.071193125 0.078125 0.171875
v 0.171875 0.078125 0.071193125
v 0.171875 0.078125 -0.071193125
v 0.06526 0.015625 -0.157551875
v -0.06526 0.015625 -0.157551875
v 0 0.015625 0
v -0.157551875 0.015625 -0.06526
v -0.157551875 0.015625 0.06526
v -0.06526 0.015625 0.157551875
v 0.06526 0.015625 0.157551875
v 0.157551875 0.015625 0.06526
v 0.157551875 0.015625 -0.06526
vt 0.1796875 0.730909375
vt 0.129346875 0.78125
vt 0.09375 0.6953125
vt 0.409946875 0.8125
vt 0.481140625 0.8125
vt 0.484375 0.84375
vt 0.4067125 0.84375
vt 0.33731875 0.8346375
vt 0.3834625 0.88078125
vt 0.3046875 0.9134125
vt 0.1796875 0.659715625
vt 0.1796875 0.730909375
vt 0.09375 0.6953125
vt 0.347215625 0.6875
vt 0.418409375 0.6875
vt 0.42164375 0.71875
vt 0.34398125 0.71875
vt 0.3834625 0.88078125
vt 0.3834625 0.94604375
vt 0.3046875 0.9134125
vt 0.129346875 0.609375
vt 0.1796875 0.659715625
vt 0.09375 0.6953125
vt 0.190734375 0.5625
vt 0.261928125 0.5625
vt 0.2651625 0.59375
vt 0.1875 0.59375
vt 0.3834625 0.94604375
vt 0.33731875 0.9921875
vt 0.3046875 0.9134125
vt 0.058153125 0.609375
vt 0.129346875 0.609375
vt 0.09375 0.6953125
vt 0.222215625 0.625
vt 0.293409375 0.625
vt 0.29664375 0.65625
vt 0.21898125 0.65625
vt 0.33731875 0.9921875
vt 0.27205625 0.9921875
vt 0.3046875 0.9134125
vt 0.0078125 0.659715625
vt 0.058153125 0.609375
vt 0.09375 0.6953125
vt 0.003696875 0.53125
vt 0.074890625 0.53125
vt 0.078125 0.5625
vt 0.0004625 0.5625
vt 0.27205625 0.9921875
vt 0.2259125 0.94604375
vt 0.3046875 0.9134125
vt 0.0078125 0.730909375
vt 0.0078125 0.659715625
vt 0.09375 0.6953125
vt 0.347215625 0.625
vt 0.418409375 0.625
vt 0.42164375 0.65625
vt 0.34398125 0.65625
vt 0.2259125 0.94604375
vt 0.2259125 0.88078125
vt 0.3046875 0.9134125
vt 0.058153125 0.78125
vt 0.0078125 0.730909375
vt 0.09375 0.6953125
vt 0.315734375 0.5625
vt 0.386928125 0.5625
vt 0.3901625 0.59375
vt 0.3125 0.59375
vt 0.2259125 0.88078125
vt 0.27205625 0.8346375
vt 0.3046875 0.9134125
vt 0.129346875 0.78125
vt 0.058153125 0.78125
vt 0.09375 0.6953125
vt 0.347215625 0.75
vt 0.418409375 0.75
vt 0.42164375 0.78125
vt 0.34398125 0.78125
vt 0.27205625 0.8346375
vt 0.33731875 0.8346375
vt 0.3046875 0.9134125
vt 0.058153125 0.9921875
vt 0.129346875 0.9921875
vt 0.13258125 1
vt 0.05491875 1
vt 0.0078125 0.941846875
vt 0.058153125 0.9921875
vt 0.05491875 1
vt 0 0.94508125
vt 0.0078125 0.870653125
vt 0.0078125 0.941846875
vt 0 0.94508125
vt 0 0.86741875
vt 0.058153125 0.8203125
vt 0.0078125 0.870653125
vt 0 0.86741875
vt 0.05491875 0.8125
vt 0.129346875 0.8203125
vt 0.058153125 0.8203125
vt 0.05491875 0.8125
vt 0.13258125 0.8125
vt 0.1796875 0.870653125
vt 0.129346875 0.8203125
vt 0.13258125 0.8125
vt 0.1875 0.86741875
vt 0.1796875 0.941846875
vt 0.1796875 0.870653125
vt 0.1875 0.86741875
vt 0.1875 0.94508125
vt 0.129346875 0.9921875
vt 0.1796875 0.941846875
vt 0.1875 0.94508125
vt 0.13258125 1
vt 0.44393125 0.90625
vt 0.50919375 0.90625
vt 0.512159375 0.9375
vt 0.440965625 0.9375
vt 0.478646875 0.625
vt 0.543909375 0.625
vt 0.546875 0.65625
vt 0.47568125 0.65625
vt 0.44393125 0.5625
vt 0.50919375 0.5625
vt 0.512159375 0.59375
vt 0.440965625 0.59375
vt 0.471715625 0.75
vt 0.536978125 0.75
vt 0.53994375 0.78125
vt 0.46875 0.78125
vt 0.44393125 0.96875
vt 0.50919375 0.96875
vt 0.512159375 1
vt 0.440965625 1
vt 0.478646875 0.6875
vt 0.543909375 0.6875
vt 0.546875 0.71875
vt 0.47568125 0.71875
vt 0.13143125 0.5
vt 0.19669375 0.5
vt 0.199659375 0.53125
vt 0.128465625 0.53125
vt 0.252965625 0.5
vt 0.318228125 0.5
vt 0.32119375 0.53125
vt 0.25 0.53125
vn 0 -1 0
vn 0.6933755010304703 -0.1961143267114583 0.6933755010304703
vn 0 1 0
vn 0 -1 0
vn 0.9805806756909203 -0.1961161351381841 0
vn 0 1 0
vn 0 -1 0
vn 0.6933755010304703 -0.1961143267114583 -0.6933755010304703
vn 0 1 0
vn 0 -1 0
vn 0 -0.1961161351381841 -0.9805806756909203
vn 0 1 0
vn 0 -1 0
vn -0.6933755010304703 -0.1961143267114583 -0.6933755010304703
vn 0 1 0
vn 0 -1 0
vn -0.9805806756909203 -0.1961161351381841 0
vn 0 1 0
vn 0 -1 0
vn -0.6933755010304703 -0.1961143267114583 0.6933755010304703
vn 0 1 0
vn 0 -1 0
vn 0 -0.1961161351381841 0.9805806756909203
vn 0 1 0
vn 0 1 0
vn 0 1 0
vn 0 1 0
vn 0 1 0
vn 0 1 0
vn 0 1 0
vn 0 1 0
vn 0 1 0
vn 0 0.223379243313337 0.9747316110893097
vn 0.6892388356315506 0.22338230662818545 0.6892388356315506
vn 0.9747316110893097 0.223379243313337 0
vn 0.6892388356315506 0.22338230662818545 -0.6892388356315506
vn 0 0.223379243313337 -0.9747316110893097
vn -0.6892388356315506 0.22338230662818545 -0.6892388356315506
vn -0.9747316110893097 0.223379243313337 0
vn -0.6892388356315506 0.22338230662818545 0.6892388356315506
usemtl m_b436e7cd-8c06-03e0-cff5-b87fa34f13e7
f 4/1/1 2/2/1 1/3/1
f 2/4/2 4/5/2 5/6/2 3/7/2
f 32/8/3 33/9/3 28/10/3
f 6/11/4 4/12/4 1/13/4
f 4/14/5 6/15/5 7/16/5 5/17/5
f 33/18/6 34/19/6 28/20/6
f 8/21/7 6/22/7 1/23/7
f 6/24/8 8/25/8 9/26/8 7/27/8
f 34/28/9 26/29/9 28/30/9
f 10/31/10 8/32/10 1/33/10
f 8/34/11 10/35/11 11/36/11 9/37/11
f 26/38/12 27/39/12 28/40/12
f 12/41/13 10/42/13 1/43/13
f 10/44/14 12/45/14 13/46/14 11/47/14
f 27/48/15 29/49/15 28/50/15
f 14/51/16 12/52/16 1/53/16
f 12/54/17 14/55/17 15/56/17 13/57/17
f 29/58/18 30/59/18 28/60/18
f 16/61/19 14/62/19 1/63/19
f 14/64/20 16/65/20 17/66/20 15/67/20
f 30/68/21 31/69/21 28/70/21
f 2/71/22 16/72/22 1/73/22
f 16/74/23 2/75/23 3/76/23 17/77/23
f 31/78/24 32/79/24 28/80/24
f 19/81/25 18/82/25 9/83/25 11/84/25
f 20/85/26 19/86/26 11/87/26 13/88/26
f 21/89/27 20/90/27 13/91/27 15/92/27
f 22/93/28 21/94/28 15/95/28 17/96/28
f 23/97/29 22/98/29 17/99/29 3/100/29
f 24/101/30 23/102/30 3/103/30 5/104/30
f 25/105/31 24/106/31 5/107/31 7/108/31
f 18/109/32 25/110/32 7/111/32 9/112/32
f 27/113/33 26/114/33 18/115/33 19/116/33
f 29/117/34 27/118/34 19/119/34 20/120/34
f 30/121/35 29/122/35 20/123/35 21/124/35
f 31/125/36 30/126/36 21/127/36 22/128/36
f 32/129/37 31/130/37 22/131/37 23/132/37
f 33/133/38 32/134/38 23/135/38 24/136/38
f 34/137/39 33/138/39 24/139/39 25/140/39
f 26/141/40 34/142/40 25/143/40 18/144/40
o cuboid
v 0.015625 0.0625 -0.375
v 0.015625 0.028125 -0.375
v 0.015625 0.0625 -0.171875
v 0.015625 0.015625 -0.171875
v -0.015625 0.0625 -0.375
v -0.015625 0.028125 -0.375
v -0.015625 0.0625 -0.171875
v -0.015625 0.015625 -0.171875
vt 0.46875 0.5140625
vt 0.46875 0.53125
vt 0.375 0.53125
vt 0.375 0.5078125
vt 0.09375 0.5
vt 0 0.5
vt 0 0.4828125
vt 0.09375 0.4765625
vt 0.53125 0.53125
vt 0.5 0.53125
vt 0.5 0.5
vt 0.53125 0.5
vt 0.15625 0.4375
vt 0.15625 0.46875
vt 0.125 0.46875
vt 0.125 0.4375
vt 0.25 0.6875
vt 0.25 0.78125
vt 0.21875 0.78125
vt 0.21875 0.6875
vt 0.3125 0.78125
vt 0.28125 0.78125
vt 0.28125 0.6875
vt 0.3125 0.6875
vn 1 0 0
vn -1 0 0
vn 0 0 -1
vn 0 0 1
vn 0 1 0
vn 0 -0.998111869922868 -0.061422268918330344
usemtl m_b436e7cd-8c06-03e0-cff5-b87fa34f13e7
f 36/145/41 35/146/41 37/147/41 38/148/41
f 41/149/42 39/150/42 40/151/42 42/152/42
f 39/153/43 35/154/43 36/155/43 40/156/43
f 38/157/44 37/158/44 41/159/44 42/160/44
f 37/161/45 35/162/45 39/163/45 41/164/45
f 40/165/46 36/166/46 38/167/46 42/168/46