# Made in Blockbench 4.12.5
mtllib pipes.mtl

o cylinder
v 0 2.625 1
v 0 3.3125 1
v 0.07216875 2.625 1.125
v 0.07216875 3.3125 1.125
v 0.1443375 2.625 1
v 0.1443375 3.3125 1
v 0.07216875 2.625 0.875
v 0.07216875 3.3125 0.875
v -0.07216875 2.625 0.875
v -0.07216875 3.3125 0.875
v -0.1443375 2.625 1
v -0.1443375 3.3125 1
v -0.07216875 2.625 1.125
v -0.07216875 3.3125 1.125
vt 0.872021875 0.65625
vt 0.8539796875 0.6875
vt 0.8359375 0.65625
vt 0.75 0.28125
vt 0.78125 0.28125
vt 0.78125 0.453125
vt 0.75 0.453125
vt 0.8539796875 0.546875
vt 0.872021875 0.578125
vt 0.8359375 0.578125
vt 0.8539796875 0.625
vt 0.872021875 0.65625
vt 0.8359375 0.65625
vt 0.75 0.09375
vt 0.78125 0.09375
vt 0.78125 0.265625
vt 0.75 0.265625
vt 0.872021875 0.578125
vt 0.8539796875 0.609375
vt 0.8359375 0.578125
vt 0.8178953125 0.625
vt 0.8539796875 0.625
vt 0.8359375 0.65625
vt 0.75 0.65625
vt 0.78125 0.65625
vt 0.78125 0.828125
vt 0.75 0.828125
vt 0.8539796875 0.609375
vt 0.8178953125 0.609375
vt 0.8359375 0.578125
vt 0.799853125 0.65625
vt 0.8178953125 0.625
vt 0.8359375 0.65625
vt 0.375 0.0625
vt 0.40625 0.0625
vt 0.40625 0.234375
vt 0.375 0.234375
vt 0.8178953125 0.609375
vt 0.799853125 0.578125
vt 0.8359375 0.578125
vt 0.8178953125 0.6875
vt 0.799853125 0.65625
vt 0.8359375 0.65625
vt 0.421875 0.0625
vt 0.453125 0.0625
vt 0.453125 0.234375
vt 0.421875 0.234375
vt 0.799853125 0.578125
vt 0.8178953125 0.546875
vt 0.8359375 0.578125
vt 0.8539796875 0.6875
vt 0.8178953125 0.6875
vt 0.8359375 0.65625
vt 0.75 0.46875
vt 0.78125 0.46875
vt 0.78125 0.640625
vt 0.75 0.640625
vt 0.8178953125 0.546875
vt 0.8539796875 0.546875
vt 0.8359375 0.578125
vn 0 -1 0
vn 0.8660255047305424 0 0.4999998251561787
vn 0 1 0
vn 0 -1 0
vn 0.8660255047305424 0 -0.4999998251561787
vn 0 1 0
vn 0 -1 0
vn 0 0 -1
vn 0 1 0
vn 0 -1 0
vn -0.8660255047305424 0 -0.4999998251561787
vn 0 1 0
vn 0 -1 0
vn -0.8660255047305424 0 0.4999998251561787
vn 0 1 0
vn 0 -1 0
vn 0 0 1
vn 0 1 0
usemtl m_91ec91a9-1a77-d5e4-837d-a46fff5cff88
f 5/1/1 3/2/1 1/3/1
f 3/4/2 5/5/2 6/6/2 4/7/2
f 4/8/3 6/9/3 2/10/3
f 7/11/4 5/12/4 1/13/4
f 5/14/5 7/15/5 8/16/5 6/17/5
f 6/18/6 8/19/6 2/20/6
f 9/21/7 7/22/7 1/23/7
f 7/24/8 9/25/8 10/26/8 8/27/8
f 8/28/9 10/29/9 2/30/9
f 11/31/10 9/32/10 1/33/10
f 9/34/11 11/35/11 12/36/11 10/37/11
f 10/38/12 12/39/12 2/40/12
f 13/41/13 11/42/13 1/43/13
f 11/44/14 13/45/14 14/46/14 12/47/14
f 12/48/15 14/49/15 2/50/15
f 3/51/16 13/52/16 1/53/16
f 13/54/17 3/55/17 4/56/17 14/57/17
f 14/58/18 4/59/18 2/60/18
o cylinder
v -0.75 2.78125 1
v -0.75 3.28125 1
v -0.6778312500000001 2.78125 1.125
v -0.6778312500000001 3.28125 1.125
v -0.6056625 2.78125 1
v -0.6056625 3.28125 1
v -0.6778312500000001 2.78125 0.875
v -0.6778312500000001 3.28125 0.875
v -0.8221687499999999 2.78125 0.875
v -0.8221687499999999 3.28125 0.875
v -0.8943375 2.78125 1
v -0.8943375 3.28125 1
v -0.8221687499999999 2.78125 1.125
v -0.8221687499999999 3.28125 1.125
vt 0.872021875 0.5
vt 0.8539796875 0.53125
vt 0.8359375 0.5
vt 0 0.015625
vt 0.03125 0.015625
vt 0.03125 0.140625
vt 0 0.140625
vt 0.8539796875 0.390625
vt 0.872021875 0.421875
vt 0.8359375 0.421875
vt 0.8539796875 0.46875
vt 0.872021875 0.5
vt 0.8359375 0.5
vt 0.859375 0.875
vt 0.890625 0.875
vt 0.890625 1
vt 0.859375 1
vt 0.872021875 0.421875
vt 0.8539796875 0.453125
vt 0.8359375 0.421875
vt 0.8178953125 0.46875
vt 0.8539796875 0.46875
vt 0.8359375 0.5
vt 0.796875 0.03125
vt 0.828125 0.03125
vt 0.828125 0.15625
vt 0.796875 0.15625
vt 0.8539796875 0.453125
vt 0.8178953125 0.453125
vt 0.8359375 0.421875
vt 0.799853125 0.5
vt 0.8178953125 0.46875
vt 0.8359375 0.5
vt 0.046875 0.015625
vt 0.078125 0.015625
vt 0.078125 0.140625
vt 0.046875 0.140625
vt 0.8178953125 0.453125
vt 0.799853125 0.421875
vt 0.8359375 0.421875
vt 0.8178953125 0.53125
vt 0.799853125 0.5
vt 0.8359375 0.5
vt 0.09375 0.015625
vt 0.125 0.015625
vt 0.125 0.140625
vt 0.09375 0.140625
vt 0.799853125 0.421875
vt 0.8178953125 0.390625
vt 0.8359375 0.421875
vt 0.8539796875 0.53125
vt 0.8178953125 0.53125
vt 0.8359375 0.5
vt 0.84375 0.03125
vt 0.875 0.03125
vt 0.875 0.15625
vt 0.84375 0.15625
vt 0.8178953125 0.390625
vt 0.8539796875 0.390625
vt 0.8359375 0.421875
vn 0 -1 0
vn 0.8660255047305421 0 0.4999998251561793
vn 0 1 0
vn 0 -1 0
vn 0.8660255047305421 0 -0.4999998251561793
vn 0 1 0
vn 0 -1 0
vn 0 0 -1
vn 0 1 0
vn 0 -1 0
vn -0.8660255047305421 0 -0.4999998251561793
vn 0 1 0
vn 0 -1 0
vn -0.8660255047305421 0 0.4999998251561793
vn 0 1 0
vn 0 -1 0
vn 0 0 1
vn 0 1 0
usemtl m_91ec91a9-1a77-d5e4-837d-a46fff5cff88
f 19/61/19 17/62/19 15/63/19
f 17/64/20 19/65/20 20/66/20 18/67/20
f 18/68/21 20/69/21 16/70/21
f 21/71/22 19/72/22 15/73/22
f 19/74/23 21/75/23 22/76/23 20/77/23
f 20/78/24 22/79/24 16/80/24
f 23/81/25 21/82/25 15/83/25
f 21/84/26 23/85/26 24/86/26 22/87/26
f 22/88/27 24/89/27 16/90/27
f 25/91/28 23/92/28 15/93/28
f 23/94/29 25/95/29 26/96/29 24/97/29
f 24/98/30 26/99/30 16/100/30
f 27/101/31 25/102/31 15/103/31
f 25/104/32 27/105/32 28/106/32 26/107/32
f 26/108/33 28/109/33 16/110/33
f 17/111/34 27/112/34 15/113/34
f 27/114/35 17/115/35 18/116/35 28/117/35
f 28/118/36 18/119/36 16/120/36
o cylinder
v -2.8125 2.78125 1
v -2.8125 3.28125 1
v -2.74033125 2.78125 1.125
v -2.74033125 3.28125 1.125
v -2.6681625 2.78125 1
v -2.6681625 3.28125 1
v -2.74033125 2.78125 0.875
v -2.74033125 3.28125 0.875
v -2.88466875 2.78125 0.875
v -2.88466875 3.28125 0.875
v -2.9568375 2.78125 1
v -2.9568375 3.28125 1
v -2.88466875 2.78125 1.125
v -2.88466875 3.28125 1.125
vt 0.872021875 0.34375
vt 0.8539796875 0.375
vt 0.8359375 0.34375
vt 0.234375 0.015625
vt 0.265625 0.015625
vt 0.265625 0.140625
vt 0.234375 0.140625
vt 0.7133546875 0.140625
vt 0.731396875 0.171875
vt 0.6953125 0.171875
vt 0.8539796875 0.3125
vt 0.872021875 0.34375
vt 0.8359375 0.34375
vt 0.28125 0.015625
vt 0.3125 0.015625
vt 0.3125 0.140625
vt 0.28125 0.140625
vt 0.731396875 0.171875
vt 0.7133546875 0.203125
vt 0.6953125 0.171875
vt 0.8178953125 0.3125
vt 0.8539796875 0.3125
vt 0.8359375 0.34375
vt 0.140625 0.015625
vt 0.171875 0.015625
vt 0.171875 0.140625
vt 0.140625 0.140625
vt 0.7133546875 0.203125
vt 0.6772703125 0.203125
vt 0.6953125 0.171875
vt 0.799853125 0.34375
vt 0.8178953125 0.3125
vt 0.8359375 0.34375
vt 0.328125 0.015625
vt 0.359375 0.015625
vt 0.359375 0.140625
vt 0.328125 0.140625
vt 0.6772703125 0.203125
vt 0.659228125 0.171875
vt 0.6953125 0.171875
vt 0.8178953125 0.375
vt 0.799853125 0.34375
vt 0.8359375 0.34375
vt 0.65625 0
vt 0.6875 0
vt 0.6875 0.125
vt 0.65625 0.125
vt 0.659228125 0.171875
vt 0.6772703125 0.140625
vt 0.6953125 0.171875
vt 0.8539796875 0.375
vt 0.8178953125 0.375
vt 0.8359375 0.34375
vt 0.1875 0.015625
vt 0.21875 0.015625
vt 0.21875 0.140625
vt 0.1875 0.140625
vt 0.6772703125 0.140625
vt 0.7133546875 0.140625
vt 0.6953125 0.171875
vn 0 -1 0
vn 0.8660255047305421 0 0.4999998251561793
vn 0 1 0
vn 0 -1 0
vn 0.8660255047305421 0 -0.4999998251561793
vn 0 1 0
vn 0 -1 0
vn 0 0 -1
vn 0 1 0
vn 0 -1 0
vn -0.8660255047305421 0 -0.4999998251561793
vn 0 1 0
vn 0 -1 0
vn -0.8660255047305421 0 0.4999998251561793
vn 0 1 0
vn 0 -1 0
vn 0 0 1
vn 0 1 0
usemtl m_91ec91a9-1a77-d5e4-837d-a46fff5cff88
f 33/121/37 31/122/37 29/123/37
f 31/124/38 33/125/38 34/126/38 32/127/38
f 32/128/39 34/129/39 30/130/39
f 35/131/40 33/132/40 29/133/40
f 33/134/41 35/135/41 36/136/41 34/137/41
f 34/138/42 36/139/42 30/140/42
f 37/141/43 35/142/43 29/143/43
f 35/144/44 37/145/44 38/146/44 36/147/44
f 36/148/45 38/149/45 30/150/45
f 39/151/46 37/152/46 29/153/46
f 37/154/47 39/155/47 40/156/47 38/157/47
f 38/158/48 40/159/48 30/160/48
f 41/161/49 39/162/49 29/163/49
f 39/164/50 41/165/50 42/166/50 40/167/50
f 40/168/51 42/169/51 30/170/51
f 31/171/52 41/172/52 29/173/52
f 41/174/53 31/175/53 32/176/53 42/177/53
f 42/178/54 32/179/54 30/180/54
o cylinder
v 0.26875 3.3125 1
v -3.08125 3.312500000000001 1
v 0.26875 3.40029375 1.15625
v -3.08125 3.400293750000001 1.15625
v 0.26875000000000004 3.4880875 1
v -3.08125 3.4880875000000007 1
v 0.26875 3.40029375 0.84375
v -3.08125 3.400293750000001 0.84375
v 0.26875 3.22470625 0.84375
v -3.08125 3.224706250000001 0.84375
v 0.26874999999999993 3.1369124999999998 1
v -3.08125 3.1369125000000007 1
v 0.26875 3.22470625 1.15625
v -3.08125 3.224706250000001 1.15625
vt 0.747021875 0.9609375
vt 0.7250734375 1
vt 0.703125 0.9609375
vt 0.125 0.15625
vt 0.171875 0.15625
vt 0.171875 1
vt 0.125 1
vt 0.7250734375 0.828125
vt 0.747021875 0.8671875
vt 0.703125 0.8671875
vt 0.7250734375 0.921875
vt 0.747021875 0.9609375
vt 0.703125 0.9609375
vt 0.25 0.15625
vt 0.296875 0.15625
vt 0.296875 1
vt 0.25 1
vt 0.747021875 0.8671875
vt 0.7250734375 0.90625
vt 0.703125 0.8671875
vt 0.6811765625 0.921875
vt 0.7250734375 0.921875
vt 0.703125 0.9609375
vt 0 0.15625
vt 0.046875 0.15625
vt 0.046875 1
vt 0 1
vt 0.7250734375 0.90625
vt 0.6811765625 0.90625
vt 0.703125 0.8671875
vt 0.659228125 0.9609375
vt 0.6811765625 0.921875
vt 0.703125 0.9609375
vt 0.1875 0.15625
vt 0.234375 0.15625
vt 0.234375 1
vt 0.1875 1
vt 0.6811765625 0.90625
vt 0.659228125 0.8671875
vt 0.703125 0.8671875
vt 0.6811765625 1
vt 0.659228125 0.9609375
vt 0.703125 0.9609375
vt 0.3125 0.15625
vt 0.359375 0.15625
vt 0.359375 1
vt 0.3125 1
vt 0.659228125 0.8671875
vt 0.6811765625 0.828125
vt 0.703125 0.8671875
vt 0.7250734375 1
vt 0.6811765625 1
vt 0.703125 0.9609375
vt 0.0625 0.15625
vt 0.109375 0.15625
vt 0.109375 1
vt 0.0625 1
vt 0.6811765625 0.828125
vt 0.7250734375 0.828125
vt 0.703125 0.8671875
vn 1 -2.220446049250313e-16 0
vn 1.9357990864263075e-16 0.8718064044293665 0.4898505825207724
vn -1 2.220446049250313e-16 0
vn 1 -2.220446049250313e-16 0
vn 2.5714346073424086e-16 0.8718064044293665 -0.4898505825207724
vn -1 2.220446049250313e-16 0
vn 1 -2.220446049250313e-16 0
vn 0 0 -1
vn -1 2.220446049250313e-16 0
vn 1 -2.220446049250313e-16 0
vn -1.9357990864263075e-16 -0.8718064044293665 -0.4898505825207724
vn -1 2.220446049250313e-16 0
vn 1 -2.220446049250313e-16 0
vn -2.5714346073424086e-16 -0.8718064044293665 0.4898505825207724
vn -1 2.220446049250313e-16 0
vn 1 -2.220446049250313e-16 0
vn 0 0 1
vn -1 2.220446049250313e-16 0
usemtl m_91ec91a9-1a77-d5e4-837d-a46fff5cff88
f 47/181/55 45/182/55 43/183/55
f 45/184/56 47/185/56 48/186/56 46/187/56
f 46/188/57 48/189/57 44/190/57
f 49/191/58 47/192/58 43/193/58
f 47/194/59 49/195/59 50/196/59 48/197/59
f 48/198/60 50/199/60 44/200/60
f 51/201/61 49/202/61 43/203/61
f 49/204/62 51/205/62 52/206/62 50/207/62
f 50/208/63 52/209/63 44/210/63
f 53/211/64 51/212/64 43/213/64
f 51/214/65 53/215/65 54/216/65 52/217/65
f 52/218/66 54/219/66 44/220/66
f 55/221/67 53/222/67 43/223/67
f 53/224/68 55/225/68 56/226/68 54/227/68
f 54/228/69 56/229/69 44/230/69
f 45/231/70 55/232/70 43/233/70
f 55/234/71 45/235/71 46/236/71 56/237/71
f 56/238/72 46/239/72 44/240/72
o cylinder
v 0 2.625 -1.71875
v 0 2.625000000000001 1.25
v 0.07216875 2.5 -1.71875
v 0.07216875 2.500000000000001 1.25
v 0.1443375 2.625 -1.71875
v 0.1443375 2.625000000000001 1.25
v 0.07216875 2.75 -1.71875
v 0.07216875 2.750000000000001 1.25
v -0.07216875 2.75 -1.71875
v -0.07216875 2.750000000000001 1.25
v -0.1443375 2.625 -1.71875
v -0.1443375 2.625000000000001 1.25
v -0.07216875 2.5 -1.71875
v -0.07216875 2.500000000000001 1.25
vt 0.872021875 0.8125
vt 0.8539796875 0.84375
vt 0.8359375 0.8125
vt 0.5625 0.25
vt 0.59375 0.25
vt 0.59375 1
vt 0.5625 1
vt 0.8539796875 0.703125
vt 0.872021875 0.734375
vt 0.8359375 0.734375
vt 0.8539796875 0.78125
vt 0.872021875 0.8125
vt 0.8359375 0.8125
vt 0.46875 0.25
vt 0.5 0.25
vt 0.5 1
vt 0.46875 1
vt 0.872021875 0.734375
vt 0.8539796875 0.765625
vt 0.8359375 0.734375
vt 0.8178953125 0.78125
vt 0.8539796875 0.78125
vt 0.8359375 0.8125
vt 0.375 0.25
vt 0.40625 0.25
vt 0.40625 1
vt 0.375 1
vt 0.8539796875 0.765625
vt 0.8178953125 0.765625
vt 0.8359375 0.734375
vt 0.799853125 0.8125
vt 0.8178953125 0.78125
vt 0.8359375 0.8125
vt 0.515625 0.25
vt 0.546875 0.25
vt 0.546875 1
vt 0.515625 1
vt 0.8178953125 0.765625
vt 0.799853125 0.734375
vt 0.8359375 0.734375
vt 0.8178953125 0.84375
vt 0.799853125 0.8125
vt 0.8359375 0.8125
vt 0.609375 0.25
vt 0.640625 0.25
vt 0.640625 1
vt 0.609375 1
vt 0.799853125 0.734375
vt 0.8178953125 0.703125
vt 0.8359375 0.734375
vt 0.8539796875 0.84375
vt 0.8178953125 0.84375
vt 0.8359375 0.8125
vt 0.421875 0.25
vt 0.453125 0.25
vt 0.453125 1
vt 0.421875 1
vt 0.8178953125 0.703125
vt 0.8539796875 0.703125
vt 0.8359375 0.734375
vn 0 -2.220446049250313e-16 -1
vn 0.8660255047305423 -0.4999998251561789 1.191189495784577e-16
vn 0 2.220446049250313e-16 1
vn 0 -2.220446049250313e-16 -1
vn 0.8660255047305425 0.4999998251561785 -1.1102226363938839e-16
vn 0 2.220446049250313e-16 1
vn 0 -2.220446049250313e-16 -1
vn 0 1 -2.220446049250313e-16
vn 0 2.220446049250313e-16 1
vn 0 -2.220446049250313e-16 -1
vn -0.8660255047305425 0.4999998251561785 -1.1911894957845762e-16
vn 0 2.220446049250313e-16 1
vn 0 -2.220446049250313e-16 -1
vn -0.8660255047305423 -0.4999998251561789 1.0697392066985387e-16
vn 0 2.220446049250313e-16 1
vn 0 -2.220446049250313e-16 -1
vn 0 -1 2.126953584018721e-16
vn 0 2.220446049250313e-16 1
usemtl m_91ec91a9-1a77-d5e4-837d-a46fff5cff88
f 61/241/73 59/242/73 57/243/73
f 59/244/74 61/245/74 62/246/74 60/247/74
f 60/248/75 62/249/75 58/250/75
f 63/251/76 61/252/76 57/253/76
f 61/254/77 63/255/77 64/256/77 62/257/77
f 62/258/78 64/259/78 58/260/78
f 65/261/79 63/262/79 57/263/79
f 63/264/80 65/265/80 66/266/80 64/267/80
f 64/268/81 66/269/81 58/270/81
f 67/271/82 65/272/82 57/273/82
f 65/274/83 67/275/83 68/276/83 66/277/83
f 66/278/84 68/279/84 58/280/84
f 69/281/85 67/282/85 57/283/85
f 67/284/86 69/285/86 70/286/86 68/287/86
f 68/288/87 70/289/87 58/290/87
f 59/291/88 69/292/88 57/293/88
f 69/294/89 59/295/89 60/296/89 70/297/89
f 70/298/90 60/299/90 58/300/90
o cylinder
v 0 2.625 -1.375
v -0.5 2.625000000000001 -1.3749999999999993
v -1.0243472736704006e-16 2.5 -1.3028312499999999
v -0.5000000000000001 2.500000000000001 -1.3028312499999992
v 1.2819745265346683e-16 2.625 -1.2306625
v -0.4999999999999999 2.625000000000001 -1.2306624999999993
v 2.306321800205069e-16 2.75 -1.30283125
v -0.4999999999999998 2.7500000000000013 -1.3028312499999994
v 1.0243472736704006e-16 2.75 -1.4471687500000001
v -0.49999999999999994 2.750000000000001 -1.4471687499999994
v -1.2819745265346683e-16 2.625 -1.5193375
v -0.5000000000000001 2.625000000000001 -1.5193374999999993
v -2.306321800205069e-16 2.5 -1.44716875
v -0.5000000000000002 2.500000000000001 -1.4471687499999992
vt 0.840771875 0.96875
vt 0.8227296875 1
vt 0.8046875 0.96875
vt 0.515625 0.03125
vt 0.546875 0.03125
vt 0.546875 0.15625
vt 0.515625 0.15625
vt 0.8227296875 0.859375
vt 0.840771875 0.890625
vt 0.8046875 0.890625
vt 0.8227296875 0.9375
vt 0.840771875 0.96875
vt 0.8046875 0.96875
vt 0.84375 0.171875
vt 0.875 0.171875
vt 0.875 0.296875
vt 0.84375 0.296875
vt 0.840771875 0.890625
vt 0.8227296875 0.921875
vt 0.8046875 0.890625
vt 0.7866453125 0.9375
vt 0.8227296875 0.9375
vt 0.8046875 0.96875
vt 0.46875 0.03125
vt 0.5 0.03125
vt 0.5 0.15625
vt 0.46875 0.15625
vt 0.8227296875 0.921875
vt 0.7866453125 0.921875
vt 0.8046875 0.890625
vt 0.768603125 0.96875
vt 0.7866453125 0.9375
vt 0.8046875 0.96875
vt 0.5625 0.03125
vt 0.59375 0.03125
vt 0.59375 0.15625
vt 0.5625 0.15625
vt 0.7866453125 0.921875
vt 0.768603125 0.890625
vt 0.8046875 0.890625
vt 0.7866453125 1
vt 0.768603125 0.96875
vt 0.8046875 0.96875
vt 0.609375 0.03125
vt 0.640625 0.03125
vt 0.640625 0.15625
vt 0.609375 0.15625
vt 0.768603125 0.890625
vt 0.7866453125 0.859375
vt 0.8046875 0.890625
vt 0.8227296875 1
vt 0.7866453125 1
vt 0.8046875 0.96875
vt 0.796875 0.171875
vt 0.828125 0.171875
vt 0.828125 0.296875
vt 0.796875 0.296875
vt 0.7866453125 0.859375
vt 0.8227296875 0.859375
vt 0.8046875 0.890625
vn 1 -1.3322676295501882e-15 -8.881784197001246e-16
vn 1.5112565513847008e-16 -0.4999998251561783 0.8660255047305426
vn -1 1.3322676295501882e-15 8.881784197001246e-16
vn 1 -1.3322676295501882e-15 -8.881784197001246e-16
vn 2.2525779830227075e-15 0.4999998251561791 0.8660255047305422
vn -1 1.3322676295501882e-15 8.881784197001246e-16
vn 1 -1.3322676295501882e-15 -8.881784197001246e-16
vn 2.2204460492503127e-15 1 -4.440892098500646e-16
vn -1 1.3322676295501882e-15 8.881784197001246e-16
vn 1 -1.3322676295501882e-15 -8.881784197001246e-16
vn -1.5112565513847008e-16 0.4999998251561783 -0.8660255047305426
vn -1 1.3322676295501882e-15 8.881784197001246e-16
vn 1 -1.3322676295501882e-15 -8.881784197001246e-16
vn -2.1564298374962603e-15 -0.4999998251561791 -0.8660255047305422
vn -1 1.3322676295501882e-15 8.881784197001246e-16
vn 1 -1.3322676295501882e-15 -8.881784197001246e-16
vn -1.9984014443252814e-15 -1 4.440892098500644e-16
vn -1 1.3322676295501882e-15 8.881784197001246e-16
usemtl m_91ec91a9-1a77-d5e4-837d-a46fff5cff88
f 75/301/91 73/302/91 71/303/91
f 73/304/92 75/305/92 76/306/92 74/307/92
f 74/308/93 76/309/93 72/310/93
f 77/311/94 75/312/94 71/313/94
f 75/314/95 77/315/95 78/316/95 76/317/95
f 76/318/96 78/319/96 72/320/96
f 79/321/97 77/322/97 71/323/97
f 77/324/98 79/325/98 80/326/98 78/327/98
f 78/328/99 80/329/99 72/330/99
f 81/331/100 79/332/100 71/333/100
f 79/334/101 81/335/101 82/336/101 80/337/101
f 80/338/102 82/339/102 72/340/102
f 83/341/103 81/342/103 71/343/103
f 81/344/104 83/345/104 84/346/104 82/347/104
f 82/348/105 84/349/105 72/350/105
f 73/351/106 83/352/106 71/353/106
f 83/354/107 73/355/107 74/356/107 84/357/107
f 84/358/108 74/359/108 72/360/108
o cylinder
v -0.28125 1.875 -1.375
v -0.28125 2.625 -1.375
v -0.15624999999999997 1.875 -1.44716875
v -0.15624999999999997 2.625 -1.44716875
v -0.28124999999999994 1.875 -1.5193375
v -0.28124999999999994 2.625 -1.5193375
v -0.40625 1.875 -1.4471687500000001
v -0.40625 2.625 -1.4471687500000001
v -0.40625 1.875 -1.30283125
v -0.40625 2.625 -1.30283125
v -0.28125000000000006 1.875 -1.2306625
v -0.28125000000000006 2.625 -1.2306625
v -0.15625 1.875 -1.3028312499999999
v -0.15625 2.625 -1.3028312499999999
vt 0.543896875 0.203125
vt 0.5258546875 0.234375
vt 0.5078125 0.203125
vt 0.65625 0.21875
vt 0.6875 0.21875
vt 0.6875 0.40625
vt 0.65625 0.40625
vt 0.6196046875 0.171875
vt 0.637646875 0.203125
vt 0.6015625 0.203125
vt 0.5258546875 0.171875
vt 0.543896875 0.203125
vt 0.5078125 0.203125
vt 0.703125 0.625
vt 0.734375 0.625
vt 0.734375 0.8125
vt 0.703125 0.8125
vt 0.637646875 0.203125
vt 0.6196046875 0.234375
vt 0.6015625 0.203125
vt 0.4897703125 0.171875
vt 0.5258546875 0.171875
vt 0.5078125 0.203125
vt 0.65625 0.625
vt 0.6875 0.625
vt 0.6875 0.8125
vt 0.65625 0.8125
vt 0.6196046875 0.234375
vt 0.5835203125 0.234375
vt 0.6015625 0.203125
vt 0.471728125 0.203125
vt 0.4897703125 0.171875
vt 0.5078125 0.203125
vt 0.703125 0.421875
vt 0.734375 0.421875
vt 0.734375 0.609375
vt 0.703125 0.609375
vt 0.5835203125 0.234375
vt 0.565478125 0.203125
vt 0.6015625 0.203125
vt 0.4897703125 0.234375
vt 0.471728125 0.203125
vt 0.5078125 0.203125
vt 0.703125 0.21875
vt 0.734375 0.21875
vt 0.734375 0.40625
vt 0.703125 0.40625
vt 0.565478125 0.203125
vt 0.5835203125 0.171875
vt 0.6015625 0.203125
vt 0.5258546875 0.234375
vt 0.4897703125 0.234375
vt 0.5078125 0.203125
vt 0.65625 0.421875
vt 0.6875 0.421875
vt 0.6875 0.609375
vt 0.65625 0.609375
vt 0.5835203125 0.171875
vt 0.6196046875 0.171875
vt 0.6015625 0.203125
vn 0 -1 0
vn 0.49999982515617886 0 -0.8660255047305423
vn 0 1 0
vn 0 -1 0
vn -0.4999998251561785 0 -0.8660255047305425
vn 0 1 0
vn 0 -1 0
vn -1 0 -2.220446049250313e-16
vn 0 1 0
vn 0 -1 0
vn -0.49999982515617886 0 0.8660255047305423
vn 0 1 0
vn 0 -1 0
vn 0.4999998251561785 0 0.8660255047305425
vn 0 1 0
vn 0 -1 0
vn 1 0 2.220446049250313e-16
vn 0 1 0
usemtl m_91ec91a9-1a77-d5e4-837d-a46fff5cff88
f 89/361/109 87/362/109 85/363/109
f 87/364/110 89/365/110 90/366/110 88/367/110
f 88/368/111 90/369/111 86/370/111
f 91/371/112 89/372/112 85/373/112
f 89/374/113 91/375/113 92/376/113 90/377/113
f 90/378/114 92/379/114 86/380/114
f 93/381/115 91/382/115 85/383/115
f 91/384/116 93/385/116 94/386/116 92/387/116
f 92/388/117 94/389/117 86/390/117
f 95/391/118 93/392/118 85/393/118
f 93/394/119 95/395/119 96/396/119 94/397/119
f 94/398/120 96/399/120 86/400/120
f 97/401/121 95/402/121 85/403/121
f 95/404/122 97/405/122 98/406/122 96/407/122
f 96/408/123 98/409/123 86/410/123
f 87/411/124 97/412/124 85/413/124
f 97/414/125 87/415/125 88/416/125 98/417/125
f 98/418/126 88/419/126 86/420/126