# Made in Blockbench 4.12.5
mtllib plate.mtl

o cylinder
v 0.103553125 0.03125 0.25
v 0.103553125 0.0625 0.25
v 0.25 0.03125 0.103553125
v 0.25 0.0625 0.103553125
v 0.25 0.03125 -0.103553125
v 0.25 0.0625 -0.103553125
v 0.103553125 0.03125 -0.25
v 0.103553125 0.0625 -0.25
v -0.103553125 0.03125 -0.25
v -0.103553125 0.0625 -0.25
v -0.25 0.03125 -0.103553125
v -0.25 0.0625 -0.103553125
v -0.25 0.03125 0.103553125
v -0.25 0.0625 0.103553125
v -0.103553125 0.03125 0.25
v -0.103553125 0.0625 0.25
v -0.1875 0.03125 -0.077665
v -0.1875 0.03125 0.077665
v 0 0.03125 0
v -0.077665 0.03125 0.1875
v 0.077665 0.03125 0.1875
v 0.1875 0.03125 0.077665
v 0.1875 0.03125 -0.077665
v 0.077665 0.03125 -0.1875
v -0.077665 0.03125 -0.1875
v -0.077665 0 -0.1875
v 0.077665 0 -0.1875
v 0 0 0
v 0.1875 0 -0.077665
v -0.1875 0 -0.077665
v -0.1875 0 0.077665
v -0.077665 0 0.1875
v 0.077665 0 0.1875
v 0.1875 0 0.077665
vt 0.21875 0.9138325
vt 0.1638325 0.96875
vt 0.125 0.875
vt 0.34375 0.78125
vt 0.4375 0.78125
vt 0.4375 0.8125
vt 0.34375 0.8125
vt 0.1638325 0.03125
vt 0.21875 0.08616749999999995
vt 0.125 0.125
vt 0.21875 0.8361675
vt 0.21875 0.9138325
vt 0.125 0.875
vt 0 0.65625
vt 0.09375 0.65625
vt 0.09375 0.6875
vt 0 0.6875
vt 0.21875 0.08616749999999995
vt 0.21875 0.16383250000000005
vt 0.125 0.125
vt 0.1638325 0.78125
vt 0.21875 0.8361675
vt 0.125 0.875
vt 0 0.59375
vt 0.09375 0.59375
vt 0.09375 0.625
vt 0 0.625
vt 0.21875 0.16383250000000005
vt 0.1638325 0.21875
vt 0.125 0.125
vt 0.0861675 0.78125
vt 0.1638325 0.78125
vt 0.125 0.875
vt 0.3125 0.96875
vt 0.40625 0.96875
vt 0.40625 1
vt 0.3125 1
vt 0.1638325 0.21875
vt 0.0861675 0.21875
vt 0.125 0.125
vt 0.03125 0.8361675
vt 0.0861675 0.78125
vt 0.125 0.875
vt 0.125 0.59375
vt 0.21875 0.59375
vt 0.21875 0.625
vt 0.125 0.625
vt 0.0861675 0.21875
vt 0.03125 0.16383250000000005
vt 0.125 0.125
vt 0.03125 0.9138325
vt 0.03125 0.8361675
vt 0.125 0.875
vt 0.125 0.65625
vt 0.21875 0.65625
vt 0.21875 0.6875
vt 0.125 0.6875
vt 0.03125 0.16383250000000005
vt 0.03125 0.08616749999999995
vt 0.125 0.125
vt 0.0861675 0.96875
vt 0.03125 0.9138325
vt 0.125 0.875
vt 0.34375 0.84375
vt 0.4375 0.84375
vt 0.4375 0.875
vt 0.34375 0.875
vt 0.03125 0.08616749999999995
vt 0.0861675 0.03125
vt 0.125 0.125
vt 0.1638325 0.96875
vt 0.0861675 0.96875
vt 0.125 0.875
vt 0.34375 0.90625
vt 0.4375 0.90625
vt 0.4375 0.9375
vt 0.34375 0.9375
vt 0.0861675 0.03125
vt 0.1638325 0.03125
vt 0.125 0.125
vt 0.03125 0.08616749999999995
vt 0.03125 0.16383250000000005
vt 0 0.17677656249999996
vt 0 0.07322343750000004
vt 0.0861675 0.03125
vt 0.03125 0.08616749999999995
vt 0 0.07322343750000004
vt 0.0732234375 0
vt 0.1638325 0.03125
vt 0.0861675 0.03125
vt 0.0732234375 0
vt 0.1767765625 0
vt 0.21875 0.08616749999999995
vt 0.1638325 0.03125
vt 0.1767765625 0
vt 0.25 0.07322343750000004
vt 0.21875 0.16383250000000005
vt 0.21875 0.08616749999999995
vt 0.25 0.07322343750000004
vt 0.25 0.17677656249999996
vt 0.1638325 0.21875
vt 0.21875 0.16383250000000005
vt 0.25 0.17677656249999996
vt 0.1767765625 0.25
vt 0.0861675 0.21875
vt 0.1638325 0.21875
vt 0.1767765625 0.25
vt 0.0732234375 0.25
vt 0.03125 0.16383250000000005
vt 0.0861675 0.21875
vt 0.0732234375 0.25
vt 0 0.17677656249999996
vt 0.1638325 0.78125
vt 0.0861675 0.78125
vt 0.0732234375 0.75
vt 0.1767765625 0.75
vt 0.21875 0.8361675
vt 0.1638325 0.78125
vt 0.1767765625 0.75
vt 0.25 0.8232234375
vt 0.0861675 0.78125
vt 0.03125 0.8361675
vt 0 0.8232234375
vt 0.0732234375 0.75
vt 0.03125 0.8361675
vt 0.03125 0.9138325
vt 0 0.9267765625
vt 0 0.8232234375
vt 0.03125 0.9138325
vt 0.0861675 0.96875
vt 0.0732234375 1
vt 0 0.9267765625
vt 0.0861675 0.96875
vt 0.1638325 0.96875
vt 0.1767765625 1
vt 0.0732234375 1
vt 0.1638325 0.96875
vt 0.21875 0.9138325
vt 0.25 0.9267765625
vt 0.1767765625 1
vt 0.21875 0.9138325
vt 0.21875 0.8361675
vt 0.25 0.8232234375
vt 0.25 0.9267765625
vn 0 -1 0
vn 0.7071067811865476 0 0.7071067811865476
vn 0 1 0
vn 0 -1 0
vn 1 0 0
vn 0 1 0
vn 0 -1 0
vn 0.7071067811865476 0 -0.7071067811865476
vn 0 1 0
vn 0 -1 0
vn 0 0 -1
vn 0 1 0
vn 0 -1 0
vn -0.7071067811865476 0 -0.7071067811865476
vn 0 1 0
vn 0 -1 0
vn -1 0 0
vn 0 1 0
vn 0 -1 0
vn -0.7071067811865476 0 0.7071067811865476
vn 0 1 0
vn 0 -1 0
vn 0 0 1
vn 0 1 0
vn 0.447213595499958 0.894427190999916 0
vn 0.31622840327463375 0.8944267403900398 -0.31622840327463375
vn 0 0.894427190999916 -0.447213595499958
vn -0.31622840327463375 0.8944267403900398 -0.31622840327463375
vn -0.447213595499958 0.894427190999916 0
vn -0.31622840327463375 0.8944267403900398 0.31622840327463375
vn 0 0.894427190999916 0.447213595499958
vn 0.31622840327463375 0.8944267403900398 0.31622840327463375
vn 0 -0.894427190999916 -0.447213595499958
vn 0.31622840327463375 -0.8944267403900398 -0.31622840327463375
vn -0.31622840327463375 -0.8944267403900398 -0.31622840327463375
vn -0.447213595499958 -0.894427190999916 0
vn -0.31622840327463375 -0.8944267403900398 0.31622840327463375
vn 0 -0.894427190999916 0.447213595499958
vn 0.31622840327463375 -0.8944267403900398 0.31622840327463375
vn 0.447213595499958 -0.894427190999916 0
usemtl m_4bd4b547-790b-a3a0-243a-baf41b1d7989
f 34/1/1 33/2/1 28/3/1
f 1/4/2 3/5/2 4/6/2 2/7/2
f 21/8/3 22/9/3 19/10/3
f 29/11/4 34/12/4 28/13/4
f 3/14/5 5/15/5 6/16/5 4/17/5
f 22/18/6 23/19/6 19/20/6
f 27/21/7 29/22/7 28/23/7
f 5/24/8 7/25/8 8/26/8 6/27/8
f 23/28/9 24/29/9 19/30/9
f 26/31/10 27/32/10 28/33/10
f 7/34/11 9/35/11 10/36/11 8/37/11
f 24/38/12 25/39/12 19/40/12
f 30/41/13 26/42/13 28/43/13
f 9/44/14 11/45/14 12/46/14 10/47/14
f 25/48/15 17/49/15 19/50/15
f 31/51/16 30/52/16 28/53/16
f 11/54/17 13/55/17 14/56/17 12/57/17
f 17/58/18 18/59/18 19/60/18
f 32/61/19 31/62/19 28/63/19
f 13/64/20 15/65/20 16/66/20 14/67/20
f 18/68/21 20/69/21 19/70/21
f 33/71/22 32/72/22 28/73/22
f 15/74/23 1/75/23 2/76/23 16/77/23
f 20/78/24 21/79/24 19/80/24
f 18/81/25 17/82/25 12/83/25 14/84/25
f 20/85/26 18/86/26 14/87/26 16/88/26
f 21/89/27 20/90/27 16/91/27 2/92/27
f 22/93/28 21/94/28 2/95/28 4/96/28
f 23/97/29 22/98/29 4/99/29 6/100/29
f 24/101/30 23/102/30 6/103/30 8/104/30
f 25/105/31 24/106/31 8/107/31 10/108/31
f 17/109/32 25/110/32 10/111/32 12/112/32
f 27/113/33 26/114/33 9/115/33 7/116/33
f 29/117/34 27/118/34 7/119/34 5/120/34
f 26/121/35 30/122/35 11/123/35 9/124/35
f 30/125/36 31/126/36 13/127/36 11/128/36
f 31/129/37 32/130/37 15/131/37 13/132/37
f 32/133/38 33/134/38 1/135/38 15/136/38
f 33/137/39 34/138/39 3/139/39 1/140/39
f 34/141/40 29/142/40 5/143/40 3/144/40