# Made in Blockbench 4.12.5
mtllib plutonium_m.mtl

o body
v -0.01941625 0.015625 0.046875
v 0.025888125 0.046875 0.0625
v 0.025888125 0.234375 0.0625
v 0.0625 0.046875 0.025888125
v 0.0625 0.234375 0.025888125
v 0.0625 0.046875 -0.025888125
v 0.0625 0.234375 -0.025888125
v 0.025888125 0.046875 -0.0625
v 0.025888125 0.234375 -0.0625
v -0.025888125 0.046875 -0.0625
v -0.025888125 0.234375 -0.0625
v -0.0625 0.046875 -0.025888125
v -0.0625 0.234375 -0.025888125
v -0.0625 0.046875 0.025888125
v -0.0625 0.234375 0.025888125
v -0.025888125 0.046875 0.0625
v -0.025888125 0.234375 0.0625
v 0 0.28125 0
v 0.046875 0.265625 0.01941625
v 0.046875 0.265625 -0.01941625
v 0.01941625 0.265625 -0.046875
v -0.01941625 0.265625 -0.046875
v -0.046875 0.265625 -0.01941625
v -0.046875 0.265625 0.01941625
v -0.01941625 0.265625 0.046875
v 0.01941625 0.265625 0.046875
v 0.046875 0.015625 0.01941625
v 0.01941625 0.015625 0.046875
v 0 0 0
v -0.046875 0.015625 0.01941625
v -0.046875 0.015625 -0.01941625
v -0.01941625 0.015625 -0.046875
v 0.01941625 0.015625 -0.046875
v 0.046875 0.015625 -0.01941625
vt 0.609375 0.76941625
vt 0.58191625 0.796875
vt 0.5625 0.75
vt 0.385725 0.40256250000000005
vt 0.4375 0.40256250000000005
vt 0.4375 0.5900624999999999
vt 0.385725 0.5900624999999999
vt 0.58191625 0.890625
vt 0.609375 0.91808375
vt 0.5625 0.9375
vt 0.609375 0.73058375
vt 0.609375 0.76941625
vt 0.5625 0.75
vt 0.0053625 0.7775624999999999
vt 0.0571375 0.7775624999999999
vt 0.0571375 0.9650625
vt 0.0053625 0.9650625
vt 0.609375 0.91808375
vt 0.609375 0.95691625
vt 0.5625 0.9375
vt 0.58191625 0.703125
vt 0.609375 0.73058375
vt 0.5625 0.75
vt 0.375 0.7775624999999999
vt 0.426775 0.7775624999999999
vt 0.426775 0.9650625
vt 0.375 0.9650625
vt 0.609375 0.95691625
vt 0.58191625 0.984375
vt 0.5625 0.9375
vt 0.54308375 0.703125
vt 0.58191625 0.703125
vt 0.5625 0.75
vt 0.0053625 0.40256250000000005
vt 0.0571375 0.40256250000000005
vt 0.0571375 0.5900624999999999
vt 0.0053625 0.5900624999999999
vt 0.58191625 0.984375
vt 0.54308375 0.984375
vt 0.5625 0.9375
vt 0.515625 0.73058375
vt 0.54308375 0.703125
vt 0.5625 0.75
vt 0.135725 0.40256250000000005
vt 0.1875 0.40256250000000005
vt 0.1875 0.5900624999999999
vt 0.135725 0.5900624999999999
vt 0.54308375 0.984375
vt 0.515625 0.95691625
vt 0.5625 0.9375
vt 0.515625 0.76941625
vt 0.515625 0.73058375
vt 0.5625 0.75
vt 0.1303625 0.7775624999999999
vt 0.1821375 0.7775624999999999
vt 0.1821375 0.9650625
vt 0.1303625 0.9650625
vt 0.515625 0.95691625
vt 0.515625 0.91808375
vt 0.5625 0.9375
vt 0.54308375 0.796875
vt 0.515625 0.76941625
vt 0.5625 0.75
vt 0.25 0.40256250000000005
vt 0.301775 0.40256250000000005
vt 0.301775 0.5900624999999999
vt 0.25 0.5900624999999999
vt 0.515625 0.91808375
vt 0.54308375 0.890625
vt 0.5625 0.9375
vt 0.58191625 0.796875
vt 0.54308375 0.796875
vt 0.5625 0.75
vt 0.2553625 0.7775624999999999
vt 0.3071375 0.7775624999999999
vt 0.3071375 0.9650625
vt 0.2553625 0.9650625
vt 0.54308375 0.890625
vt 0.58191625 0.890625
vt 0.5625 0.9375
vt 0.05066875 1
vt 0.01183125 1
vt 0.0053625 0.9650625
vt 0.0571375 0.9650625
vt 0.05066875 0.625
vt 0.01183125 0.625
vt 0.0053625 0.5900624999999999
vt 0.0571375 0.5900624999999999
vt 0.18103125 0.625
vt 0.14219375 0.625
vt 0.135725 0.5900624999999999
vt 0.1875 0.5900624999999999
vt 0.17566875 1
vt 0.13683125 1
vt 0.1303625 0.9650625
vt 0.1821375 0.9650625
vt 0.29530625 0.625
vt 0.25646875 0.625
vt 0.25 0.5900624999999999
vt 0.301775 0.5900624999999999
vt 0.30066875 1
vt 0.26183125 1
vt 0.2553625 0.9650625
vt 0.3071375 0.9650625
vt 0.43103125 0.625
vt 0.39219375 0.625
vt 0.385725 0.5900624999999999
vt 0.4375 0.5900624999999999
vt 0.42030625 1
vt 0.38146875 1
vt 0.375 0.9650625
vt 0.426775 0.9650625
vt 0.39219375 0.367625
vt 0.43103125 0.367625
vt 0.4375 0.40256250000000005
vt 0.385725 0.40256250000000005
vt 0.26183125 0.742625
vt 0.30066875 0.742625
vt 0.3071375 0.7775624999999999
vt 0.2553625 0.7775624999999999
vt 0.25646875 0.367625
vt 0.29530625 0.367625
vt 0.301775 0.40256250000000005
vt 0.25 0.40256250000000005
vt 0.13683125 0.742625
vt 0.17566875 0.742625
vt 0.1821375 0.7775624999999999
vt 0.1303625 0.7775624999999999
vt 0.14219375 0.367625
vt 0.18103125 0.367625
vt 0.1875 0.40256250000000005
vt 0.135725 0.40256250000000005
vt 0.01183125 0.367625
vt 0.05066875 0.367625
vt 0.0571375 0.40256250000000005
vt 0.0053625 0.40256250000000005
vt 0.38146875 0.742625
vt 0.42030625 0.742625
vt 0.426775 0.7775624999999999
vt 0.375 0.7775624999999999
vt 0.01183125 0.742625
vt 0.05066875 0.742625
vt 0.0571375 0.7775624999999999
vt 0.0053625 0.7775624999999999
vn 0.22360683034291295 -0.9486832826860562 0.22360683034291295
vn 0.7071067811865476 0 0.7071067811865476
vn 0.22360683034291295 0.9486832826860562 0.22360683034291295
vn 0.31622776601683794 -0.948683298050514 0
vn 1 0 0
vn 0.31622776601683794 0.948683298050514 0
vn 0.22360683034291295 -0.9486832826860562 -0.22360683034291295
vn 0.7071067811865476 0 -0.7071067811865476
vn 0.22360683034291295 0.9486832826860562 -0.22360683034291295
vn 0 -0.948683298050514 -0.31622776601683794
vn 0 0 -1
vn 0 0.948683298050514 -0.31622776601683794
vn -0.22360683034291295 -0.9486832826860562 -0.22360683034291295
vn -0.7071067811865476 0 -0.7071067811865476
vn -0.22360683034291295 0.9486832826860562 -0.22360683034291295
vn -0.31622776601683794 -0.948683298050514 0
vn -1 0 0
vn -0.31622776601683794 0.948683298050514 0
vn -0.22360683034291295 -0.9486832826860562 0.22360683034291295
vn -0.7071067811865476 0 0.7071067811865476
vn -0.22360683034291295 0.9486832826860562 0.22360683034291295
vn 0 -0.948683298050514 0.31622776601683794
vn 0 0 1
vn 0 0.948683298050514 0.31622776601683794
vn 0.894427190999916 0.447213595499958 0
vn 0 0.447213595499958 -0.894427190999916
vn -0.6324567450868763 0.44721016445093037 -0.6324567450868763
vn -0.894427190999916 0.447213595499958 0
vn -0.6324567450868763 0.44721016445093037 0.6324567450868763
vn 0 0.447213595499958 0.894427190999916
vn 0.6324567450868763 0.44721016445093037 0.6324567450868763
vn 0.6324567450868763 0.44721016445093037 -0.6324567450868763
vn 0.6324567450868763 -0.44721016445093037 0.6324567450868763
vn 0 -0.447213595499958 0.894427190999916
vn -0.6324567450868763 -0.44721016445093037 0.6324567450868763
vn -0.894427190999916 -0.447213595499958 0
vn -0.6324567450868763 -0.44721016445093037 -0.6324567450868763
vn 0 -0.447213595499958 -0.894427190999916
vn 0.6324567450868763 -0.44721016445093037 -0.6324567450868763
vn 0.894427190999916 -0.447213595499958 0
usemtl m_eccbd53d-d2d7-4d74-74f8-24f6bff07eb1
f 27/1/1 28/2/1 29/3/1
f 2/4/2 4/5/2 5/6/2 3/7/2
f 26/8/3 19/9/3 18/10/3
f 34/11/4 27/12/4 29/13/4
f 4/14/5 6/15/5 7/16/5 5/17/5
f 19/18/6 20/19/6 18/20/6
f 33/21/7 34/22/7 29/23/7
f 6/24/8 8/25/8 9/26/8 7/27/8
f 20/28/9 21/29/9 18/30/9
f 32/31/10 33/32/10 29/33/10
f 8/34/11 10/35/11 11/36/11 9/37/11
f 21/38/12 22/39/12 18/40/12
f 31/41/13 32/42/13 29/43/13
f 10/44/14 12/45/14 13/46/14 11/47/14
f 22/48/15 23/49/15 18/50/15
f 30/51/16 31/52/16 29/53/16
f 12/54/17 14/55/17 15/56/17 13/57/17
f 23/58/18 24/59/18 18/60/18
f 1/61/19 30/62/19 29/63/19
f 14/64/20 16/65/20 17/66/20 15/67/20
f 24/68/21 25/69/21 18/70/21
f 28/71/22 1/72/22 29/73/22
f 16/74/23 2/75/23 3/76/23 17/77/23
f 25/78/24 26/79/24 18/80/24
f 20/81/25 19/82/25 5/83/25 7/84/25
f 22/85/26 21/86/26 9/87/26 11/88/26
f 23/89/27 22/90/27 11/91/27 13/92/27
f 24/93/28 23/94/28 13/95/28 15/96/28
f 25/97/29 24/98/29 15/99/29 17/100/29
f 26/101/30 25/102/30 17/103/30 3/104/30
f 19/105/31 26/106/31 3/107/31 5/108/31
f 21/109/32 20/110/32 7/111/32 9/112/32
f 28/113/33 27/114/33 4/115/33 2/116/33
f 1/117/34 28/118/34 2/119/34 16/120/34
f 30/121/35 1/122/35 16/123/35 14/124/35
f 31/125/36 30/126/36 14/127/36 12/128/36
f 32/129/37 31/130/37 12/131/37 10/132/37
f 33/133/38 32/134/38 10/135/38 8/136/38
f 34/137/39 33/138/39 8/139/39 6/140/39
f 27/141/40 34/142/40 6/143/40 4/144/40