# Made in Blockbench 4.12.5
mtllib plutonium_s.mtl

o body
v -0.013591375 0.009375 0.032812499999999994
v 0.0181216875 0.040625 0.04375
v 0.0181216875 0.165625 0.04375
v 0.04375 0.040625 0.0181216875
v 0.04375 0.165625 0.0181216875
v 0.04375 0.040625 -0.0181216875
v 0.04375 0.165625 -0.0181216875
v 0.0181216875 0.040625 -0.04375
v 0.0181216875 0.165625 -0.04375
v -0.0181216875 0.040625 -0.04375
v -0.0181216875 0.165625 -0.04375
v -0.04375 0.040625 -0.0181216875
v -0.04375 0.165625 -0.0181216875
v -0.04375 0.040625 0.0181216875
v -0.04375 0.165625 0.0181216875
v -0.0181216875 0.040625 0.04375
v -0.0181216875 0.165625 0.04375
v 0 0.20625 0
v 0.032812499999999994 0.196875 0.013591375
v 0.032812499999999994 0.196875 -0.013591375
v 0.013591375 0.196875 -0.032812499999999994
v -0.013591375 0.196875 -0.032812499999999994
v -0.032812499999999994 0.196875 -0.013591375
v -0.032812499999999994 0.196875 0.013591375
v -0.013591375 0.196875 0.032812499999999994
v 0.013591375 0.196875 0.032812499999999994
v 0.032812499999999994 0.009375 0.013591375
v 0.013591375 0.009375 0.032812499999999994
v 0 0 0
v -0.032812499999999994 0.009375 0.013591375
v -0.032812499999999994 0.009375 -0.013591375
v -0.013591375 0.009375 -0.032812499999999994
v 0.013591375 0.009375 -0.032812499999999994
v 0.032812499999999994 0.009375 -0.013591375
vt 0.5811471773022681 0.9658156599411986
vt 0.561926052302268 0.985036784941189
vt 0.5483346773022679 0.9522242755662054
vt 0.026250000000000002 0.8418875
vt 0.0625 0.8418875
vt 0.0625 0.9668875
vt 0.026250000000000002 0.9668875
vt 0.5619258648022544 0.730588215058811
vt 0.5811469898022544 0.7498093400588013
vt 0.5483344898022544 0.7634007244337946
vt 0.5811471773022681 0.9386329099412122
vt 0.5811471773022681 0.9658156599411986
vt 0.5483346773022679 0.9522242755662054
vt 0.13813125 0.5293875
vt 0.17436875000000002 0.5293875
vt 0.17436875000000002 0.6543875
vt 0.13813125 0.6543875
vt 0.5811469898022544 0.7498093400588013
vt 0.5811469898022544 0.7769920900587878
vt 0.5483344898022544 0.7634007244337946
vt 0.561926052302268 0.9194117849412218
vt 0.5811471773022681 0.9386329099412122
vt 0.5483346773022679 0.9522242755662054
vt 0.125 0.8418875
vt 0.16125 0.8418875
vt 0.16125 0.9668875
vt 0.125 0.9668875
vt 0.5811469898022544 0.7769920900587878
vt 0.5619258648022544 0.7962132150587782
vt 0.5483344898022544 0.7634007244337946
vt 0.5347433023022681 0.9194117849412218
vt 0.561926052302268 0.9194117849412218
vt 0.5483346773022679 0.9522242755662054
vt 0.26313125 0.5293875
vt 0.29936875 0.5293875
vt 0.29936875 0.6543875
vt 0.26313125 0.6543875
vt 0.5619258648022544 0.7962132150587782
vt 0.5347431148022544 0.7962132150587782
vt 0.5483344898022544 0.7634007244337946
vt 0.515522177302268 0.9386329099412122
vt 0.5347433023022681 0.9194117849412218
vt 0.5483346773022679 0.9522242755662054
vt 0.27625 0.8418875
vt 0.3125 0.8418875
vt 0.3125 0.9668875
vt 0.27625 0.9668875
vt 0.5347431148022544 0.7962132150587782
vt 0.5155219898022544 0.7769920900587878
vt 0.5483344898022544 0.7634007244337946
vt 0.515522177302268 0.9658156599411986
vt 0.515522177302268 0.9386329099412122
vt 0.5483346773022679 0.9522242755662054
vt 0.38813125 0.8418875
vt 0.42436875 0.8418875
vt 0.42436875 0.9668875
vt 0.38813125 0.9668875
vt 0.5155219898022544 0.7769920900587878
vt 0.5155219898022544 0.7498093400588013
vt 0.5483344898022544 0.7634007244337946
vt 0.5347433023022681 0.985036784941189
vt 0.515522177302268 0.9658156599411986
vt 0.5483346773022679 0.9522242755662054
vt 0 0.5293875
vt 0.03625 0.5293875
vt 0.03625 0.6543875
vt 0 0.6543875
vt 0.5155219898022544 0.7498093400588013
vt 0.5347431148022544 0.730588215058811
vt 0.5483344898022544 0.7634007244337946
vt 0.561926052302268 0.985036784941189
vt 0.5347433023022681 0.985036784941189
vt 0.5483346773022679 0.9522242755662054
vt 0.38813125 0.5293875
vt 0.42436875 0.5293875
vt 0.42436875 0.6543875
vt 0.38813125 0.6543875
vt 0.5347431148022544 0.730588215058811
vt 0.5619258648022544 0.730588215058811
vt 0.5483344898022544 0.7634007244337946
vt 0.16984375000000002 0.6875
vt 0.14265625 0.6875
vt 0.13813125 0.6543875
vt 0.17436875000000002 0.6543875
vt 0.29484375 0.6875
vt 0.26765625 0.6875
vt 0.26313125 0.6543875
vt 0.29936875 0.6543875
vt 0.30796875 1
vt 0.28078125 1
vt 0.27625 0.9668875
vt 0.3125 0.9668875
vt 0.41984375 1
vt 0.39265625 1
vt 0.38813125 0.9668875
vt 0.42436875 0.9668875
vt 0.03171875 0.6875
vt 0.0045312500000000006 0.6875
vt 0 0.6543875
vt 0.03625 0.6543875
vt 0.41984375 0.6875
vt 0.39265625 0.6875
vt 0.38813125 0.6543875
vt 0.42436875 0.6543875
vt 0.05796875 1
vt 0.030781250000000003 1
vt 0.026250000000000002 0.9668875
vt 0.0625 0.9668875
vt 0.15671875 1
vt 0.12953125 1
vt 0.125 0.9668875
vt 0.16125 0.9668875
vt 0.030781250000000003 0.808775
vt 0.05796875 0.808775
vt 0.0625 0.8418875
vt 0.026250000000000002 0.8418875
vt 0.39265625 0.496275
vt 0.41984375 0.496275
vt 0.42436875 0.5293875
vt 0.38813125 0.5293875
vt 0.004531249999999999 0.496275
vt 0.03171875 0.496275
vt 0.03625 0.5293875
vt 0 0.5293875
vt 0.39265625 0.808775
vt 0.41984375 0.808775
vt 0.42436875 0.8418875
vt 0.38813125 0.8418875
vt 0.28078125 0.808775
vt 0.30796875 0.808775
vt 0.3125 0.8418875
vt 0.27625 0.8418875
vt 0.26765625 0.496275
vt 0.29484375 0.496275
vt 0.29936875 0.5293875
vt 0.26313125 0.5293875
vt 0.12953125 0.808775
vt 0.15671875 0.808775
vt 0.16125 0.8418875
vt 0.125 0.8418875
vt 0.14265624999999998 0.496275
vt 0.16984375000000002 0.496275
vt 0.17436875000000002 0.5293875
vt 0.13813125 0.5293875
vn 0.19425720155807052 -0.9615239358880541 0.19425720155807052
vn 0.7071067811865476 0 0.7071067811865476
vn 0.1942572015580704 0.9615239358880541 0.1942572015580704
vn 0.2747211278973781 -0.9615239476408233 0
vn 1 0 0
vn 0.2747211278973779 0.9615239476408233 0
vn 0.19425720155807052 -0.9615239358880541 -0.19425720155807052
vn 0.7071067811865476 0 -0.7071067811865476
vn 0.1942572015580704 0.9615239358880541 -0.1942572015580704
vn 0 -0.9615239476408233 -0.2747211278973781
vn 0 0 -1
vn 0 0.9615239476408233 -0.2747211278973779
vn -0.19425720155807052 -0.9615239358880541 -0.19425720155807052
vn -0.7071067811865476 0 -0.7071067811865476
vn -0.1942572015580704 0.9615239358880541 -0.1942572015580704
vn -0.2747211278973781 -0.9615239476408233 0
vn -1 0 0
vn -0.2747211278973779 0.9615239476408233 0
vn -0.19425720155807052 -0.9615239358880541 0.19425720155807052
vn -0.7071067811865476 0 0.7071067811865476
vn -0.1942572015580704 0.9615239358880541 0.1942572015580704
vn 0 -0.9615239476408233 0.2747211278973781
vn 0 0 1
vn 0 0.9615239476408233 0.2747211278973779
vn 0.9438583563660176 0.3303504247281062 0
vn 0 0.3303504247281062 -0.9438583563660176
vn -0.6674093427570653 0.33034760238446476 -0.6674093427570653
vn -0.9438583563660176 0.3303504247281062 0
vn -0.6674093427570653 0.33034760238446476 0.6674093427570653
vn 0 0.3303504247281062 0.9438583563660176
vn 0.6674093427570653 0.33034760238446476 0.6674093427570653
vn 0.6674093427570653 0.33034760238446476 -0.6674093427570653
vn 0.6674093427570653 -0.33034760238446476 0.6674093427570653
vn 0 -0.3303504247281062 0.9438583563660176
vn -0.6674093427570653 -0.33034760238446476 0.6674093427570653
vn -0.9438583563660176 -0.3303504247281062 0
vn -0.6674093427570653 -0.33034760238446476 -0.6674093427570653
vn 0 -0.3303504247281062 -0.9438583563660176
vn 0.6674093427570653 -0.33034760238446476 -0.6674093427570653
vn 0.9438583563660176 -0.3303504247281062 0
usemtl m_2eff3ad9-411c-5ff5-982f-91b114fe8c52
f 27/1/1 28/2/1 29/3/1
f 2/4/2 4/5/2 5/6/2 3/7/2
f 26/8/3 19/9/3 18/10/3
f 34/11/4 27/12/4 29/13/4
f 4/14/5 6/15/5 7/16/5 5/17/5
f 19/18/6 20/19/6 18/20/6
f 33/21/7 34/22/7 29/23/7
f 6/24/8 8/25/8 9/26/8 7/27/8
f 20/28/9 21/29/9 18/30/9
f 32/31/10 33/32/10 29/33/10
f 8/34/11 10/35/11 11/36/11 9/37/11
f 21/38/12 22/39/12 18/40/12
f 31/41/13 32/42/13 29/43/13
f 10/44/14 12/45/14 13/46/14 11/47/14
f 22/48/15 23/49/15 18/50/15
f 30/51/16 31/52/16 29/53/16
f 12/54/17 14/55/17 15/56/17 13/57/17
f 23/58/18 24/59/18 18/60/18
f 1/61/19 30/62/19 29/63/19
f 14/64/20 16/65/20 17/66/20 15/67/20
f 24/68/21 25/69/21 18/70/21
f 28/71/22 1/72/22 29/73/22
f 16/74/23 2/75/23 3/76/23 17/77/23
f 25/78/24 26/79/24 18/80/24
f 20/81/25 19/82/25 5/83/25 7/84/25
f 22/85/26 21/86/26 9/87/26 11/88/26
f 23/89/27 22/90/27 11/91/27 13/92/27
f 24/93/28 23/94/28 13/95/28 15/96/28
f 25/97/29 24/98/29 15/99/29 17/100/29
f 26/101/30 25/102/30 17/103/30 3/104/30
f 19/105/31 26/106/31 3/107/31 5/108/31
f 21/109/32 20/110/32 7/111/32 9/112/32
f 28/113/33 27/114/33 4/115/33 2/116/33
f 1/117/34 28/118/34 2/119/34 16/120/34
f 30/121/35 1/122/35 16/123/35 14/124/35
f 31/125/36 30/126/36 14/127/36 12/128/36
f 32/129/37 31/130/37 12/131/37 10/132/37
f 33/133/38 32/134/38 10/135/38 8/136/38
f 34/137/39 33/138/39 8/139/39 6/140/39
f 27/141/40 34/142/40 6/143/40 4/144/40