# Made in Blockbench 4.12.5
mtllib plutonium_b.mtl

o body
v -0.025241125 0.015625 0.060937500000000006
v 0.033654562500000006 0.046875 0.08125
v 0.033654562500000006 0.296875 0.08125
v 0.08125 0.046875 0.033654562500000006
v 0.08125 0.296875 0.033654562500000006
v 0.08125 0.046875 -0.033654562500000006
v 0.08125 0.296875 -0.033654562500000006
v 0.033654562500000006 0.046875 -0.08125
v 0.033654562500000006 0.296875 -0.08125
v -0.033654562500000006 0.046875 -0.08125
v -0.033654562500000006 0.296875 -0.08125
v -0.08125 0.046875 -0.033654562500000006
v -0.08125 0.296875 -0.033654562500000006
v -0.08125 0.046875 0.033654562500000006
v -0.08125 0.296875 0.033654562500000006
v -0.033654562500000006 0.046875 0.08125
v -0.033654562500000006 0.296875 0.08125
v 0 0.34374999999999994 0
v 0.060937500000000006 0.32812499999999994 0.025241125
v 0.060937500000000006 0.32812499999999994 -0.025241125
v 0.025241125 0.32812499999999994 -0.060937500000000006
v -0.025241125000000003 0.32812499999999994 -0.060937500000000006
v -0.060937500000000006 0.32812499999999994 -0.025241125
v -0.060937500000000006 0.32812499999999994 0.025241125
v -0.025241125 0.32812499999999994 0.060937500000000006
v 0.025241125 0.32812499999999994 0.060937500000000006
v 0.060937500000000006 0.015625 0.025241125
v 0.025241125 0.015625 0.060937500000000006
v 0 0 0
v -0.060937500000000006 0.015625 0.025241125
v -0.060937500000000006 0.015625 -0.025241125
v -0.025241125 0.015625 -0.060937500000000006
v 0.025241125 0.015625 -0.060937500000000006
v 0.060937500000000006 0.015625 -0.025241125
vt 0.8897345400553387 0.6950501879359233
vt 0.8540381650553386 0.7307465629359055
vt 0.8287970400553386 0.6698090473109359
vt 0.2139375 0.27522500000000005
vt 0.28125 0.27522500000000005
vt 0.28125 0.525225
vt 0.2139375 0.525225
vt 0.8540378525553136 0.8629859961705404
vt 0.8897342275553135 0.8986823711705225
vt 0.8287967275553136 0.9239235117955098
vt 0.8897345400553387 0.6445679379359486
vt 0.8897345400553387 0.6950501879359233
vt 0.8287970400553386 0.6698090473109359
vt 0.013218750000000001 0.712725
vt 0.08053125 0.712725
vt 0.08053125 0.962725
vt 0.013218750000000001 0.962725
vt 0.8897342275553135 0.8986823711705225
vt 0.8897342275553135 0.9491646211704972
vt 0.8287967275553136 0.9239235117955098
vt 0.8540381650553386 0.6088715629359664
vt 0.8897345400553387 0.6445679379359486
vt 0.8287970400553386 0.6698090473109359
vt 0.375 0.27522500000000005
vt 0.4423125 0.27522500000000005
vt 0.4423125 0.525225
vt 0.375 0.525225
vt 0.8897342275553135 0.9491646211704972
vt 0.8540378525553136 0.9848609961704793
vt 0.8287967275553136 0.9239235117955098
vt 0.8035559150553386 0.6088715629359664
vt 0.8540381650553386 0.6088715629359664
vt 0.8287970400553386 0.6698090473109359
vt 0.20071875 0.712725
vt 0.26803125 0.712725
vt 0.26803125 0.962725
vt 0.20071875 0.962725
vt 0.8540378525553136 0.9848609961704793
vt 0.8035556025553134 0.9848609961704793
vt 0.8287967275553136 0.9239235117955098
vt 0.7678595400553385 0.6445679379359486
vt 0.8035559150553386 0.6088715629359664
vt 0.8287970400553386 0.6698090473109359
vt 0.5889375 0.712725
vt 0.65625 0.712725
vt 0.65625 0.962725
vt 0.5889375 0.962725
vt 0.8035556025553134 0.9848609961704793
vt 0.7678592275553136 0.9491646211704972
vt 0.8287967275553136 0.9239235117955098
vt 0.7678595400553385 0.6950501879359233
vt 0.7678595400553385 0.6445679379359486
vt 0.8287970400553386 0.6698090473109359
vt 0.38821875 0.712725
vt 0.45553125 0.712725
vt 0.45553125 0.962725
vt 0.38821875 0.962725
vt 0.7678592275553136 0.9491646211704972
vt 0.7678592275553136 0.8986823711705225
vt 0.8287967275553136 0.9239235117955098
vt 0.8035559150553386 0.7307465629359055
vt 0.7678595400553385 0.6950501879359233
vt 0.8287970400553386 0.6698090473109359
vt 0.5625 0.27522500000000005
vt 0.6298125 0.27522500000000005
vt 0.6298125 0.525225
vt 0.5625 0.525225
vt 0.7678592275553136 0.8986823711705225
vt 0.8035556025553134 0.8629859961705404
vt 0.8287967275553136 0.9239235117955098
vt 0.8540381650553386 0.7307465629359055
vt 0.8035559150553386 0.7307465629359055
vt 0.8287970400553386 0.6698090473109359
vt 0.013218750000000001 0.27522500000000005
vt 0.08053125 0.27522500000000005
vt 0.08053125 0.525225
vt 0.013218750000000001 0.525225
vt 0.8035556025553134 0.8629859961705404
vt 0.8540378525553136 0.8629859961705404
vt 0.8287967275553136 0.9239235117955098
vt 0.07211875 1
vt 0.021631250000000005 1
vt 0.013218750000000001 0.962725
vt 0.08053125 0.962725
vt 0.25961875 1
vt 0.20913125 1
vt 0.20071875 0.962725
vt 0.26803125 0.962725
vt 0.6478375 1
vt 0.59735 1
vt 0.5889375 0.962725
vt 0.65625 0.962725
vt 0.44711875 1
vt 0.39663125 1
vt 0.38821875 0.962725
vt 0.45553125 0.962725
vt 0.6214 0.5625
vt 0.5709125 0.5625
vt 0.5625 0.525225
vt 0.6298125 0.525225
vt 0.07211875 0.5625
vt 0.021631250000000005 0.5625
vt 0.013218750000000001 0.525225
vt 0.08053125 0.525225
vt 0.2728375 0.5625
vt 0.22235 0.5625
vt 0.2139375 0.525225
vt 0.28125 0.525225
vt 0.4339 0.5625
vt 0.3834125 0.5625
vt 0.375 0.525225
vt 0.4423125 0.525225
vt 0.22235 0.23795624999999998
vt 0.2728375 0.23795624999999998
vt 0.28125 0.27522500000000005
vt 0.2139375 0.27522500000000005
vt 0.02163125 0.23795624999999998
vt 0.07211875 0.23795624999999998
vt 0.08053125 0.27522500000000005
vt 0.013218750000000001 0.27522500000000005
vt 0.5709125 0.23795624999999998
vt 0.6214 0.23795624999999998
vt 0.6298125 0.27522500000000005
vt 0.5625 0.27522500000000005
vt 0.39663125 0.67545625
vt 0.44711875 0.67545625
vt 0.45553125 0.712725
vt 0.38821875 0.712725
vt 0.59735 0.67545625
vt 0.6478375 0.67545625
vt 0.65625 0.712725
vt 0.5889375 0.712725
vt 0.20913125 0.67545625
vt 0.25961875 0.67545625
vt 0.26803125 0.712725
vt 0.20071875 0.712725
vt 0.3834125 0.23795624999999998
vt 0.4339 0.23795624999999998
vt 0.4423125 0.27522500000000005
vt 0.375 0.27522500000000005
vt 0.02163125 0.67545625
vt 0.07211875 0.67545625
vt 0.08053125 0.712725
vt 0.013218750000000001 0.712725
vn 0.1756279211430827 -0.968663856366035 0.1756279211430827
vn 0.7071067811865476 0 0.7071067811865476
vn 0.1756279211430827 0.968663856366035 0.1756279211430827
vn 0.24837535026770383 -0.968663866044045 0
vn 1 0 0
vn 0.24837535026770383 0.968663866044045 0
vn 0.1756279211430827 -0.968663856366035 -0.1756279211430827
vn 0.7071067811865476 0 -0.7071067811865476
vn 0.1756279211430827 0.968663856366035 -0.1756279211430827
vn 0 -0.968663866044045 -0.24837535026770383
vn 0 0 -1
vn 0 0.968663866044045 -0.24837535026770383
vn -0.1756279211430827 -0.968663856366035 -0.1756279211430827
vn -0.7071067811865476 0 -0.7071067811865476
vn -0.1756279211430827 0.968663856366035 -0.1756279211430827
vn -0.24837535026770383 -0.968663866044045 0
vn -1 0 0
vn -0.24837535026770383 0.968663866044045 0
vn -0.1756279211430827 -0.968663856366035 0.1756279211430827
vn -0.7071067811865476 0 0.7071067811865476
vn -0.1756279211430827 0.968663856366035 0.1756279211430827
vn 0 -0.968663866044045 0.24837535026770383
vn 0 0 1
vn 0 0.968663866044045 0.24837535026770383
vn 0.8384436163006367 0.5449883505954147 0
vn 0 0.5449883505954148 -0.8384436163006368
vn -0.5928708554336597 0.544984676440284 -0.5928708554336597
vn -0.8384436163006367 0.5449883505954147 0
vn -0.5928708554336597 0.544984676440284 0.5928708554336597
vn 0 0.5449883505954147 0.8384436163006367
vn 0.5928708554336597 0.544984676440284 0.5928708554336597
vn 0.5928708554336597 0.544984676440284 -0.5928708554336597
vn 0.59287085543366 -0.5449846764402834 0.59287085543366
vn 0 -0.5449883505954141 0.8384436163006371
vn -0.59287085543366 -0.5449846764402834 0.59287085543366
vn -0.8384436163006371 -0.5449883505954141 0
vn -0.59287085543366 -0.5449846764402834 -0.59287085543366
vn 0 -0.5449883505954141 -0.8384436163006371
vn 0.59287085543366 -0.5449846764402834 -0.59287085543366
vn 0.8384436163006371 -0.5449883505954141 0
usemtl m_fe5246e0-5ac2-8038-66ae-fb4a5939dd63
f 27/1/1 28/2/1 29/3/1
f 2/4/2 4/5/2 5/6/2 3/7/2
f 26/8/3 19/9/3 18/10/3
f 34/11/4 27/12/4 29/13/4
f 4/14/5 6/15/5 7/16/5 5/17/5
f 19/18/6 20/19/6 18/20/6
f 33/21/7 34/22/7 29/23/7
f 6/24/8 8/25/8 9/26/8 7/27/8
f 20/28/9 21/29/9 18/30/9
f 32/31/10 33/32/10 29/33/10
f 8/34/11 10/35/11 11/36/11 9/37/11
f 21/38/12 22/39/12 18/40/12
f 31/41/13 32/42/13 29/43/13
f 10/44/14 12/45/14 13/46/14 11/47/14
f 22/48/15 23/49/15 18/50/15
f 30/51/16 31/52/16 29/53/16
f 12/54/17 14/55/17 15/56/17 13/57/17
f 23/58/18 24/59/18 18/60/18
f 1/61/19 30/62/19 29/63/19
f 14/64/20 16/65/20 17/66/20 15/67/20
f 24/68/21 25/69/21 18/70/21
f 28/71/22 1/72/22 29/73/22
f 16/74/23 2/75/23 3/76/23 17/77/23
f 25/78/24 26/79/24 18/80/24
f 20/81/25 19/82/25 5/83/25 7/84/25
f 22/85/26 21/86/26 9/87/26 11/88/26
f 23/89/27 22/90/27 11/91/27 13/92/27
f 24/93/28 23/94/28 13/95/28 15/96/28
f 25/97/29 24/98/29 15/99/29 17/100/29
f 26/101/30 25/102/30 17/103/30 3/104/30
f 19/105/31 26/106/31 3/107/31 5/108/31
f 21/109/32 20/110/32 7/111/32 9/112/32
f 28/113/33 27/114/33 4/115/33 2/116/33
f 1/117/34 28/118/34 2/119/34 16/120/34
f 30/121/35 1/122/35 16/123/35 14/124/35
f 31/125/36 30/126/36 14/127/36 12/128/36
f 32/129/37 31/130/37 12/131/37 10/132/37
f 33/133/38 32/134/38 10/135/38 8/136/38
f 34/137/39 33/138/39 8/139/39 6/140/39
f 27/141/40 34/142/40 6/143/40 4/144/40