# Made in Blockbench 4.12.5
mtllib potted_plant_1.mtl

o cylinder
v 0 0 0
v 0.10355339059327377 0 0.25
v 0.12944173824159222 0.125 0.3125
v 0.25 0 0.10355339059327379
v 0.3125 0.125 0.12944173824159225
v 0.25 0 -0.10355339059327376
v 0.3125 0.125 -0.1294417382415922
v 0.1035533905932738 0 -0.25
v 0.12944173824159222 0.125 -0.3125
v -0.10355339059327374 0 -0.25000000000000006
v -0.12944173824159216 0.125 -0.3125
v -0.24999999999999994 0 -0.10355339059327393
v -0.31249999999999994 0.125 -0.1294417382415924
v -0.24999999999999997 0 0.10355339059327383
v -0.3125 0.125 0.1294417382415923
v -0.10355339059327394 0 0.24999999999999994
v -0.12944173824159244 0.125 0.3124999999999999
v 0.3125 0.5 0.12944173824159225
v 0.3125 0.5 -0.1294417382415922
v -0.12944173824159244 0.5 0.3124999999999999
v 0.12944173824159222 0.5 0.3125
v -0.3125 0.5 0.1294417382415923
v -0.31249999999999994 0.5 -0.1294417382415924
v -0.12944173824159216 0.5 -0.3125
v 0.12944173824159222 0.5 -0.3125
v 0.265625 0.5 0.11002547750535341
v 0.265625 0.5 -0.11002547750535335
v -0.11002547750535357 0.5 0.2656249999999999
v 0.11002547750535338 0.5 0.265625
v -0.265625 0.5 0.11002547750535345
v -0.26562499999999994 0.5 -0.11002547750535355
v -0.11002547750535334 0.5 -0.265625
v 0.11002547750535338 0.5 -0.265625
v 0.265625 0.4375 0.11002547750535341
v 0.265625 0.4375 -0.11002547750535335
v -3.932039878880763e-18 0.4375 7.864079757761525e-18
v -0.11002547750535357 0.4375 0.2656249999999999
v 0.11002547750535338 0.4375 0.265625
v -0.265625 0.4375 0.11002547750535345
v -0.26562499999999994 0.4375 -0.11002547750535355
v -0.11002547750535334 0.4375 -0.265625
v 0.11002547750535338 0.4375 -0.265625
vt 0.28125 0.7290140625
vt 0.2446390625 0.765625
vt 0.21875 0.703125
vt 0.5901875 0.7150624999999999
vt 0.641965625 0.7150624999999999
vt 0.6484375 0.75
vt 0.583715625 0.75
vt 0.0939125 0.6328125
vt 0.1328125 0.6717124999999999
vt 0.06640625 0.69921875
vt 0.28125 0.6772359375
vt 0.28125 0.7290140625
vt 0.21875 0.703125
vt 0.4623921875 0.46506249999999993
vt 0.5141703125 0.46506249999999993
vt 0.5206421875 0.5
vt 0.4559203125 0.5
vt 0.1328125 0.6717124999999999
vt 0.1328125 0.7267250000000001
vt 0.06640625 0.69921875
vt 0.2446390625 0.640625
vt 0.28125 0.6772359375
vt 0.21875 0.703125
vt 0.053346875 0.27756249999999993
vt 0.105125 0.27756249999999993
vt 0.111596875 0.3125
vt 0.046875 0.3125
vt 0.1328125 0.7267250000000001
vt 0.0939125 0.765625
vt 0.06640625 0.69921875
vt 0.1928609375 0.640625
vt 0.2446390625 0.640625
vt 0.21875 0.703125
vt 0.4936421875 0.6213124999999999
vt 0.5454203125 0.6213124999999999
vt 0.5518921875 0.65625
vt 0.4871703125 0.65625
vt 0.0939125 0.765625
vt 0.0389 0.765625
vt 0.06640625 0.69921875
vt 0.15625 0.6772359375
vt 0.1928609375 0.640625
vt 0.21875 0.703125
vt 0.5433125 0.30881249999999993
vt 0.595090625 0.30881249999999993
vt 0.6015625 0.34375
vt 0.536840625 0.34375
vt 0.038900000000000004 0.765625
vt 0 0.7267250000000001
vt 0.06640625 0.69921875
vt 0.15625 0.7290140625
vt 0.15625 0.6772359375
vt 0.21875 0.703125
vt 0.5405171875 0.8713124999999999
vt 0.5922953125 0.8713124999999999
vt 0.5987671875 0.90625
vt 0.5340453125 0.90625
vt 0 0.7267250000000001
vt 0 0.6717124999999999
vt 0.06640625 0.69921875
vt 0.1928609375 0.765625
vt 0.15625 0.7290140625
vt 0.21875 0.703125
vt 0.443971875 0.30881249999999993
vt 0.49575 0.30881249999999993
vt 0.502221875 0.34375
vt 0.4375 0.34375
vt 0 0.6717124999999999
vt 0.038900000000000004 0.6328125
vt 0.06640625 0.69921875
vt 0.2446390625 0.765625
vt 0.1928609375 0.765625
vt 0.21875 0.703125
vt 0.5561421875 0.46506249999999993
vt 0.6079203125 0.46506249999999993
vt 0.6143921875 0.5
vt 0.5496703125 0.5
vt 0.038900000000000004 0.6328125
vt 0.0939125 0.6328125
vt 0.06640625 0.69921875
vt 0.5206421875 0.59375
vt 0.4559203125 0.59375
vt 0.4559203125 0.5
vt 0.5206421875 0.5
vt 0.6143921875 0.59375
vt 0.5496703125 0.59375
vt 0.5496703125 0.5
vt 0.6143921875 0.5
vt 0.6484375 0.84375
vt 0.583715625 0.84375
vt 0.583715625 0.75
vt 0.6484375 0.75
vt 0.502221875 0.4375
vt 0.4375 0.4375
vt 0.4375 0.34375
vt 0.502221875 0.34375
vt 0.5987671875 1
vt 0.5340453125 1
vt 0.5340453125 0.90625
vt 0.5987671875 0.90625
vt 0.6015625 0.4375
vt 0.536840625 0.4375
vt 0.536840625 0.34375
vt 0.6015625 0.34375
vt 0.5518921875 0.75
vt 0.4871703125 0.75
vt 0.4871703125 0.65625
vt 0.5518921875 0.65625
vt 0.111596875 0.40625
vt 0.046875 0.40625
vt 0.046875 0.3125
vt 0.111596875 0.3125
vt 0.2734375 0.90250625
vt 0.2734375 0.8474937499999999
vt 0.28515625 0.8426390625
vt 0.28515625 0.9073609375
vt 0.2345375 0.80859375
vt 0.17952500000000002 0.80859375
vt 0.17467031250000004 0.796875
vt 0.23939218750000002 0.796875
vt 0.2734375 0.8474937499999999
vt 0.2345375 0.80859375
vt 0.23939218750000002 0.796875
vt 0.28515625 0.8426390625
vt 0.17952500000000002 0.80859375
vt 0.140625 0.8474937499999999
vt 0.12890625 0.8426390625
vt 0.17467031250000004 0.796875
vt 0.14062499999999997 0.84749375
vt 0.140625 0.9025062500000001
vt 0.12890625 0.9073609375
vt 0.12890624999999997 0.8426390625
vt 0.140625 0.9025062500000001
vt 0.17952500000000002 0.94140625
vt 0.17467031250000004 0.953125
vt 0.12890625 0.9073609375
vt 0.17952500000000002 0.94140625
vt 0.2345375 0.94140625
vt 0.23939218750000002 0.953125
vt 0.17467031250000004 0.953125
vt 0.2345375 0.94140625
vt 0.2734375 0.90250625
vt 0.28515625 0.9073609375
vt 0.23939218750000002 0.953125
vt 0.140625 0.984375
vt 0.203125 0.984375
vt 0.203125 1
vt 0.140625 1
vt 0.5 0.828125
vt 0.5625 0.828125
vt 0.5625 0.84375
vt 0.5 0.84375
vt 0.578125 0.609375
vt 0.640625 0.609375
vt 0.640625 0.625
vt 0.578125 0.625
vt 0.0625 0.46875
vt 0.125 0.46875
vt 0.125 0.484375
vt 0.0625 0.484375
vt 0.3125 0.828125
vt 0.375 0.828125
vt 0.375 0.84375
vt 0.3125 0.84375
vt 0.625 0.921875
vt 0.6875 0.921875
vt 0.6875 0.9375
vt 0.625 0.9375
vt 0.21875 0.984375
vt 0.28125 0.984375
vt 0.28125 1
vt 0.21875 1
vt 0.0625 0.4375
vt 0.125 0.4375
vt 0.125 0.453125
vt 0.0625 0.453125
vn 0 -1 0
vn 0.6324555320336759 -0.447213595499958 0.6324555320336759
vn 0 1 0
vn 0 -1 0
vn 0.8944271909999161 -0.44721359549995804 0
vn 0 1 0
vn 0 -1 0
vn 0.632455532033676 -0.44721359549995787 -0.6324555320336759
vn 0 1 0
vn 0 -1 0
vn 2.3973470487295897e-16 -0.44721359549995765 -0.8944271909999161
vn 0 1 0
vn 0 -1 0
vn -0.6324555320336757 -0.44721359549995815 -0.632455532033676
vn 0 1 0
vn 0 -1 0
vn -0.894427190999916 -0.44721359549995815 -1.1986735243647936e-16
vn 0 1 0
vn 0 -1 0
vn -0.632455532033676 -0.44721359549995804 0.6324555320336758
vn 0 1 0
vn 0 -1 0
vn -2.397347048729588e-16 -0.447213595499958 0.894427190999916
vn 0 1 0
vn 1 0 0
vn -4.288504773294286e-16 0 1
vn 0.7071067811865475 0 0.7071067811865476
vn -0.7071067811865476 0 0.7071067811865475
vn -1 0 -2.1442523866471426e-16
vn -0.7071067811865472 0 -0.707106781186548
vn 0 0 -1
vn 0.7071067811865476 0 -0.7071067811865475
vn 0 1 0
vn 0 1 0
vn 0 1 0
vn 0 1 0
vn 0 1 0
vn 0 1 0
vn 0 1 0
vn 0 1 0
vn -1 0 0
vn 5.045299733287395e-16 0 -1
vn -0.7071067811865475 0 -0.7071067811865476
vn 0.7071067811865476 0 -0.7071067811865476
vn 1 0 2.5226498666436977e-16
vn 0.7071067811865472 0 0.7071067811865478
vn 0 0 1
vn -0.7071067811865476 0 0.7071067811865475
usemtl m_8d3692ba-e944-540b-cf69-c5c1881bbdec
f 4/1/1 2/2/1 1/3/1
f 2/4/2 4/5/2 5/6/2 3/7/2
f 38/8/3 34/9/3 36/10/3
f 6/11/4 4/12/4 1/13/4
f 4/14/5 6/15/5 7/16/5 5/17/5
f 34/18/6 35/19/6 36/20/6
f 8/21/7 6/22/7 1/23/7
f 6/24/8 8/25/8 9/26/8 7/27/8
f 35/28/9 42/29/9 36/30/9
f 10/31/10 8/32/10 1/33/10
f 8/34/11 10/35/11 11/36/11 9/37/11
f 42/38/12 41/39/12 36/40/12
f 12/41/13 10/42/13 1/43/13
f 10/44/14 12/45/14 13/46/14 11/47/14
f 41/48/15 40/49/15 36/50/15
f 14/51/16 12/52/16 1/53/16
f 12/54/17 14/55/17 15/56/17 13/57/17
f 40/58/18 39/59/18 36/60/18
f 16/61/19 14/62/19 1/63/19
f 14/64/20 16/65/20 17/66/20 15/67/20
f 39/68/21 37/69/21 36/70/21
f 2/71/22 16/72/22 1/73/22
f 16/74/23 2/75/23 3/76/23 17/77/23
f 37/78/24 38/79/24 36/80/24
f 19/81/25 18/82/25 5/83/25 7/84/25
f 21/85/26 20/86/26 17/87/26 3/88/26
f 18/89/27 21/90/27 3/91/27 5/92/27
f 20/93/28 22/94/28 15/95/28 17/96/28
f 22/97/29 23/98/29 13/99/29 15/100/29
f 23/101/30 24/102/30 11/103/30 13/104/30
f 24/105/31 25/106/31 9/107/31 11/108/31
f 25/109/32 19/110/32 7/111/32 9/112/32
f 27/113/33 26/114/33 18/115/33 19/116/33
f 29/117/34 28/118/34 20/119/34 21/120/34
f 26/121/35 29/122/35 21/123/35 18/124/35
f 28/125/36 30/126/36 22/127/36 20/128/36
f 30/129/37 31/130/37 23/131/37 22/132/37
f 31/133/38 32/134/38 24/135/38 23/136/38
f 32/137/39 33/138/39 25/139/39 24/140/39
f 33/141/40 27/142/40 19/143/40 25/144/40
f 35/145/41 34/146/41 26/147/41 27/148/41
f 38/149/42 37/150/42 28/151/42 29/152/42
f 34/153/43 38/154/43 29/155/43 26/156/43
f 37/157/44 39/158/44 30/159/44 28/160/44
f 39/161/45 40/162/45 31/163/45 30/164/45
f 40/165/46 41/166/46 32/167/46 31/168/46
f 41/169/47 42/170/47 33/171/47 32/172/47
f 42/173/48 35/174/48 27/175/48 33/176/48
o leaf
v 0 0.4375 -0.011721393810379585
v 0.020259234421540692 0.4375 0.03125000000000003
v 0.12039365470188217 1.3125 0.2375
v 0.04552208653213278 0.4375 -0.0026519585191389777
v 0.2705220865321328 1.21875 0.06174490092936678
v 0.04275587900269048 0.4375 -0.03713338679534678
v 0.19819186955877907 1.0125 -0.14175536790752397
v -0.006249999999999993 0.4375 -0.058729066043685635
v -0.006249999999999966 1.21875 -0.2899790660436856
v -0.03650587900269047 0.4375 -0.03713338679534679
v -0.20444186955877902 1.28125 -0.154255367907524
v -0.05177208653213278 0.4375 -0.002651958519138988
v -0.30177208653213267 1.2375000000000003 0.06174490092936672
v -0.020259234421540703 0.4375 0.03125000000000002
v -0.12039365470188222 1.125 0.26249999999999996
v -0.2841415648990995 1.2375000000000003 0.0606190889078041
v -0.11254733442204311 1.125 0.24999999999999997
v 0.11254733442204305 1.3125 0.225
v 0.2528915648990996 1.21875 0.06061908890780415
v 0.1840532889593262 1.0125 -0.1286977995111268
v -0.006249999999999969 1.21875 -0.27060929953276414
v -0.19030328895932616 1.28125 -0.14119779951112685
v -0.0778915648990996 0.65625 0.010532642670077426
v -0.034665007537333044 0.65625 0.062499999999999986
v 0 0.65625 -0.0065118854502108775
v 0.0778915648990996 0.65625 0.010532642670077443
v 0.06246418519347954 0.65625 -0.05426959197943341
v 9.784277836582292e-18 0.65625 -0.08310929953276419
v -0.06246418519347952 0.65625 -0.05426959197943343
v 0.03466500753733303 0.65625 0.0625
vt 0.3559125 0.6937078125
vt 0.3495953125 0.7021828125
vt 0.34453125 0.691440625
vt 0.007751801477564553 0.37623447574676894
vt 0.018248207824173822 0.375
vt 0.0625 0.5740279308559719
vt 0.007751801477564553 0.6021464803810748
vt 0.215696875 0.8698484375
vt 0.2265046875 0.882840625
vt 0.20703125 0.8871015625
vt 0.3552203125 0.6850875000000001
vt 0.3559125 0.6937078125
vt 0.34453125 0.691440625
vt 0.234375 0.4149338983023654
vt 0.24297785489034074 0.4140625
vt 0.2808844232251725 0.5604218955823174
vt 0.234375 0.618820294779563
vt 0.2265046875 0.882840625
vt 0.222646875 0.899040625
vt 0.20703125 0.8871015625
vt 0.34296875 0.6796875
vt 0.3552203125 0.6850875000000001
vt 0.34453125 0.691440625
vt 0.296875 0.9580855918724619
vt 0.29840731231183726 0.9375
vt 0.5020975191369208 0.9375
vt 0.44213688551041463 1
vt 0.222646875 0.899040625
vt 0.20703125 0.90625
vt 0.20703125 0.8871015625
vt 0.3354046875 0.6850875000000001
vt 0.34296875 0.6796875
vt 0.34453125 0.691440625
vt 0.05851691172054257 0.78125
vt 0.0677375 0.7824013037461454
vt 0.05795846793136947 0.9992386043117223
vt 0.0002984092174499742 0.9764265508656235
vt 0.20703125 0.90625
vt 0.191415625 0.899040625
vt 0.20703125 0.8871015625
vt 0.3315875 0.6937078125
vt 0.3354046875 0.6850875000000001
vt 0.34453125 0.691440625
vt 0.0677375 0.7824013037461454
vt 0.0771640625 0.7824013037461454
vt 0.1171875 0.9887106787461454
vt 0.05795937500000001 0.9992184912461454
vt 0.191415625 0.899040625
vt 0.1875578125 0.882840625
vt 0.20703125 0.8871015625
vt 0.3394671875 0.7021828125
vt 0.3315875 0.6937078125
vt 0.34453125 0.691440625
vt 0.140625 0.4235704296601239
vt 0.1520704204647636 0.421875
vt 0.20366526015543523 0.5975105077489609
vt 0.140625 0.6334957766320166
vt 0.1875578125 0.882840625
vt 0.198365625 0.8698484375
vt 0.20703125 0.8871015625
vt 0.3495953125 0.7021828125
vt 0.3394671875 0.7021828125
vt 0.34453125 0.691440625
vt 0.2848092298012197 0.7832561447745062
vt 0.2859304668462005 0.765625
vt 0.5120657701987803 0.765625
vt 0.4614826600068309 0.828125
vt 0.198365625 0.8698484375
vt 0.215696875 0.8698484375
vt 0.20703125 0.8871015625
vt 0.3875391763362407 0.6046064535820597
vt 0.31868281249999997 0.6160835893562572
vt 0.3156023332961413 0.6129178045744454
vt 0.38790445171633225 0.6012424271264034
vt 0.2076978614979974 0.5143898251694157
vt 0.2076978614979974 0.44088415119491686
vt 0.2109375 0.43911625547769617
vt 0.21019998020435476 0.515625
vt 0.015625 0.783839430177816
vt 0.015625 0.8427379307663881
vt 0 0.84375
vt 0.00017218130515692792 0.781409846794039
vt 0.390625 0.6454362455966616
vt 0.390625 0.7175126212393176
vt 0.375 0.71875
vt 0.37540253632506226 0.6441374455804721
vt 0.3138869253408713 0.7272722224714476
vt 0.39043258838527595 0.74520911119009
vt 0.38999383556193984 0.75
vt 0.3109327345330823 0.7303013640273519
vt 0.3016859375 0.6701835893562572
vt 0.31388692534087126 0.7272722224714476
vt 0.31050504636968745 0.7307399030632502
vt 0.29701093201663087 0.6701835893562572
vt 0.31868281249999997 0.6160835893562572
vt 0.3016859375 0.6701835893562572
vt 0.296875 0.6701835893562572
vt 0.3156359375 0.6129523393562573
vt 0.3125 0.879640148583499
vt 0.31505028871218443 0.859375
vt 0.4697487376065803 0.859375
vt 0.43286397581490327 0.921875
vt 0.4080245718802151 0.5814558057655018
vt 0.4252397721068354 0.5794535301301618
vt 0.4591629281197849 0.7025744357322461
vt 0.4080245718802151 0.75
vt 0.625 0.9747358842714319
vt 0.6275139433610869 0.953125
vt 0.7753187258052923 0.953125
vt 0.7171579037947595 1
vt 0.1875 0.2737071381155476
vt 0.20452525073870087 0.2712615630738926
vt 0.23746856301953467 0.3613569488181846
vt 0.1875 0.421875
vt 0.2981413297789411 0.41779537517604115
vt 0.31520824350748305 0.4156598528084441
vt 0.3515625 0.5593737931912914
vt 0.2981413297789411 0.578125
vt 0.38373711924707293 0.4083816332060819
vt 0.4002073478840213 0.40592030411141156
vt 0.4375 0.5625
vt 0.3823789972750291 0.5625
vt 0.5858119551799792 0.6530858449164185
vt 0.5876773770505186 0.640625
vt 0.7578125 0.640625
vt 0.7294140565326092 0.6875
vn 0 -1 0
vn 0.7721189194078046 -0.26979624292889987 0.5753628086642152
vn 0 1 0
vn 0 -1 0
vn 0.9588757970803474 -0.2732030448686818 -0.07692400176804248
vn 0 1 0
vn 0 -1 0
vn 0.38923038783304664 -0.2614446534886371 -0.883258964488639
vn 0 1 0
vn 0 -1 0
vn -0.5663476902624267 -0.2228645711447368 -0.7934618306275907
vn 0 1 0
vn 0 -1 0
vn -0.8864257712588517 -0.2454170814158483 -0.3924535745759962
vn 0 1 0
vn 0 -1 0
vn -0.694365429028808 -0.3182344848123238 0.6454327723674048
vn 0 1 0
vn 0 -1 0
vn -1.6668461168400197e-16 -0.22942682238086906 0.9733259131309601
vn 0 1 0
vn 0.031250607601065836 0.8715032410564818 0.48939299172813244
vn -0.6153082199052041 0.6871828760971638 -0.38623242913551314
vn 0.35046421744317546 0.910373524369656 -0.21998835973458672
vn 0.04749062852836526 0.6668065433865178 -0.743716124538728
vn 0.44930060598850186 0.7492991815255039 0.4864973813121453
vn 0.32154246134288117 0.9468951608037511 0
vn -0.1371689410511537 0.9793492909468763 0.14852490677578595
vn 0.7305285938106026 0.3115816140850587 -0.6076552241108877
vn 1.8585316167507592e-16 0.3713906763541037 -0.9284766908852593
vn -0.9362876650257667 0.2714418418084116 0.22290072865797278
vn -0.3977379824119191 0.3157272977924808 0.8614643177610748
vn 0.4006875371675781 0.2937363455009439 0.8678527852639129
vn 0.9478114046393371 0.22525152594469952 0.22564416964590805
vn -0.7459175087177605 0.24216053575252008 -0.620455755966807
usemtl m_8d3692ba-e944-540b-cf69-c5c1881bbdec
f 46/177/49 44/178/49 43/179/49
f 44/180/50 46/181/50 47/182/50 45/183/50
f 72/184/51 68/185/51 67/186/51
f 48/187/52 46/188/52 43/189/52
f 46/190/53 48/191/53 49/192/53 47/193/53
f 68/194/54 69/195/54 67/196/54
f 50/197/55 48/198/55 43/199/55
f 48/200/56 50/201/56 51/202/56 49/203/56
f 69/204/57 70/205/57 67/206/57
f 52/207/58 50/208/58 43/209/58
f 50/210/59 52/211/59 53/212/59 51/213/59
f 70/214/60 71/215/60 67/216/60
f 54/217/61 52/218/61 43/219/61
f 52/220/62 54/221/62 55/222/62 53/223/62
f 71/224/63 65/225/63 67/226/63
f 56/227/64 54/228/64 43/229/64
f 54/230/65 56/231/65 57/232/65 55/233/65
f 65/234/66 66/235/66 67/236/66
f 44/237/67 56/238/67 43/239/67
f 56/240/68 44/241/68 45/242/68 57/243/68
f 66/244/69 72/245/69 67/246/69
f 59/247/70 58/248/70 55/249/70 57/250/70
f 60/251/71 59/252/71 57/253/71 45/254/71
f 61/255/72 60/256/72 45/257/72 47/258/72
f 62/259/73 61/260/73 47/261/73 49/262/73
f 63/263/74 62/264/74 49/265/74 51/266/74
f 64/267/75 63/268/75 51/269/75 53/270/75
f 58/271/76 64/272/76 53/273/76 55/274/76
f 66/275/77 65/276/77 58/277/77 59/278/77
f 72/279/78 66/280/78 59/281/78 60/282/78
f 69/283/79 68/284/79 61/285/79 62/286/79
f 70/287/80 69/288/80 62/289/80 63/290/80
f 71/291/81 70/292/81 63/293/81 64/294/81
f 65/295/82 71/296/82 64/297/82 58/298/82
f 68/299/83 72/300/83 60/301/83 61/302/83
o core
v 0 0.65625 0
v 0.03009841367547054 0.65625 0.0625
v 0.01494592538559991 1.189068576946243 0.028011161469044626
v 0.0676305216330332 0.65625 0.015436225232341696
v 0.03321943306397673 1.1858226010129662 0.0055697003546679525
v 0.05423546738969477 0.65625 -0.04325134197688099
v 0.026478030092236735 1.1838397407296295 -0.02241434393257841
v 8.495346251519915e-18 0.65625 -0.0693697665109214
v -0.00020186959234021277 1.184613130332564 -0.034868415273924244
v -0.05423546738969476 0.65625 -0.043251341976881005
v -0.02672975735649574 1.1875603916764872 -0.022414343932578414
v -0.0676305216330332 0.65625 0.01543622523234168
v -0.033129592643526884 1.1904621768562498 0.005569700354667944
v -0.030098413675470555 0.65625 0.06249999999999999
v -0.014582168949450532 1.1911333824458603 0.02801116146904462
v 0.04502969393126514 1.3371785493246215 0.001876063244226218
v 0.037348899946443366 1.3351455687051197 -0.031749599453470764
v 0.02350858742425027 1.3441599663358477 0.028279328501029648
v -0.03252969393126514 1.352171979110993 0.0003001902725200279
v -0.01100858742425027 1.350832670334392 0.027577999050108423
v -0.024848899946443386 1.3471693658399515 -0.033013351456316904
v 0.0062500000000000056 1.3395919003490744 -0.04727684974217887
v 0.03229207107273157 1.48935953818654 -0.01742608579384183
v 0.02960989781417457 1.4877978773197464 -0.028767332702354768
v 0.0247767886056141 1.4942273063479687 -0.009165795874456569
v 0.0052079289272684934 1.4994897013715862 -0.01976481824418017
v 0.012723211394385963 1.498735653094101 -0.010206629732702878
v 0.007890102185825499 1.4959216374476958 -0.030642850508232393
v 0.018750000000000034 1.4907182862323594 -0.03464934635860886
v 0.03125000000000001 1.5562499999999995 -0.028418739861360717
vt 0.11456406250000001 0.5915140624999999
vt 0.10518125 0.6032796874999999
vt 0.09765625 0.5876546874999999
vt 0.1460284761728957 0.1796875
vt 0.1610784761728957 0.1796875
vt 0.15764253867289568 0.3123390625
vt 0.1504081636728957 0.31315312500000003
vt 0.111215625 0.5768421875
vt 0.11456406250000001 0.5915140624999999
vt 0.09765625 0.5876546874999999
vt 0.625 0.22660053713652129
vt 0.6400499519326889 0.2265625
vt 0.6368495465394638 0.3587069482033337
vt 0.6296539305741156 0.35921419841157176
vt 0.09765625 0.5703125
vt 0.111215625 0.5768421875
vt 0.09765625 0.5876546874999999
vt 0 0.13397651429354562
vt 0.01505 0.13397651429354562
vt 0.011353124999999999 0.2662968267935455
vt 0.003992187499999999 0.26609838929354557
vt 0.084096875 0.5768421875
vt 0.09765625 0.5703125
vt 0.09765625 0.5876546874999999
vt 0.3521387594466764 0.21183350566479275
vt 0.3671875 0.21202820481412965
vt 0.3615306479009387 0.34501615211888825
vt 0.35421417878201267 0.34418861851935034
vt 0.08074843749999999 0.5915140624999999
vt 0.084096875 0.5768421875
vt 0.09765625 0.5876546874999999
vt 0.2740125003495529 0.1875
vt 0.2890625 0.18750324369254712
vt 0.28470866585592725 0.32128668342776445
vt 0.27753225944346316 0.3205616991962419
vt 0.09013125 0.6032796874999999
vt 0.08074843749999999 0.5915140624999999
vt 0.09765625 0.5876546874999999
vt 0.390625 0.1468779556747125
vt 0.40567499861368894 0.14687149595640192
vt 0.40140907057597874 0.2808592768080429
vt 0.3941324336332462 0.28068740004967907
vt 0.10518125 0.6032796874999999
vt 0.09013125 0.6032796874999999
vt 0.09765625 0.5876546874999999
vt 0.31260706412489003 0.16347166966644078
vt 0.3276570641232598 0.1634714481489552
vt 0.3238699663264599 0.29695431640483494
vt 0.31648872391662514 0.29747005004769866
vt 0.6385543079729095 0.3966639747524173
vt 0.6299311531849929 0.3971781135572786
vt 0.6296539305741156 0.35921419841157176
vt 0.636847401532905 0.35870709941415835
vt 0.16023941367289568 0.35021562500000003
vt 0.15172378867289568 0.35196249999999996
vt 0.1504081636728957 0.31315312500000003
vt 0.15764253867289568 0.3123390625
vt 0.40187774613324617 0.3207905250496791
vt 0.39319180863324615 0.321126462549679
vt 0.3941324336332462 0.28068740004967907
vt 0.40140899613324615 0.280859275049679
vt 0.32601059891662515 0.33572630004769866
vt 0.31737934891662517 0.33739505004769876
vt 0.31648872391662514 0.29747005004769866
vt 0.32386841141662515 0.29695442504769876
vt 0.28339163444346316 0.3617148241962419
vt 0.27484475944346315 0.3604648241962418
vt 0.27753225944346316 0.3205616991962419
vt 0.28470882194346314 0.32128669919624187
vt 0.35948174159637464 0.3849565134681854
vt 0.3509526213223743 0.382952986688063
vt 0.35421417878201267 0.34418861851935034
vt 0.3615311129352006 0.34501620471686556
vt 0.0111737296340114 0.3051980962716705
vt 0.002487053221446941 0.3040640419639199
vt 0.0039925918553326365 0.2660984001942306
vt 0.011353124999999999 0.2662968267935455
vt 0.6382874031849929 0.4348828010572786
vt 0.635373340684993 0.4352734260572786
vt 0.6299311531849929 0.3971781135572786
vt 0.6385530281849929 0.39666405105727853
vt 0.16205919906824356 0.38865466250433156
vt 0.15927434543987143 0.38988680266279774
vt 0.15172532329191268 0.35196218519191547
vt 0.16023941367289568 0.35021562500000003
vt 0.39819509162116656 0.3592363247009125
vt 0.3951539120339603 0.3594244386945702
vt 0.3931923672968175 0.3211264409427951
vt 0.40187774613324617 0.3207905250496791
vt 0.3263659349561168 0.3743939076527808
vt 0.3233537035209997 0.37555305072427736
vt 0.3173806087186594 0.3373948064798905
vt 0.32601059891662515 0.33572630004769866
vt 0.2762801186565106 0.39939516008700626
vt 0.27347345160629305 0.3985231994332361
vt 0.27485547950970407 0.36046639203042696
vt 0.28339163444346316 0.3617148241962419
vt 0.3518166838223743 0.422249861688063
vt 0.3489260588223743 0.42094048668806305
vt 0.3509526213223743 0.382952986688063
vt 0.3594401213223743 0.384946736688063
vt 0.006875494901207891 0.34299561222011776
vt 0.003788687586095559 0.342261443702767
vt 0.0024935470598139884 0.3040648897410241
vt 0.0111737296340114 0.3051980962716705
vt 0.638109278184993 0.4519999885572785
vt 0.635373340684993 0.4352734260572786
vt 0.6382874031849929 0.4348828010572786
vt 0.1640625 0.40548368495967946
vt 0.15927345736573567 0.389887195585354
vt 0.16205919906824356 0.38865466250433156
vt 0.3975642416160127 0.375
vt 0.39515640499208554 0.35942428449114494
vt 0.39819509162116656 0.3592363247009125
vt 0.32801793587510997 0.390625
vt 0.32335385177602266 0.37555299367395234
vt 0.3263659349561168 0.3743939076527808
vt 0.2723964478534635 0.4146708976542227
vt 0.2734738716858373 0.398523329941354
vt 0.2762801186565106 0.39939516008700626
vt 0.3464012118537852 0.4375
vt 0.34892688553545304 0.4209408611667441
vt 0.3518166838223743 0.422249861688063
vt 0.0033630944078448495 0.359375
vt 0.0037890375628710786 0.34226152694150014
vt 0.006875494901207891 0.34299561222011776
vn 0 -1 0
vn 0.7803128633010964 0.06229767871481168 0.6222787434852575
vn 0 -1 0
vn 0.9731730446347209 0.059972947915683146 -0.22212039689026913
vn 0 -1 0
vn 0.43313058785798586 0.05889533090648148 -0.8994049331970619
vn 0 -1 0
vn -0.4331608746986932 0.057699994573504686 -0.8994678244698255
vn 0 -1 0
vn -0.9732438236476018 0.058752124333591664 -0.22213655173808325
vn 0 -1 0
vn -0.7802903144199389 0.06275802819826665 0.6222607613525849
vn 0 -1 0
vn -1.1502936730040183e-16 0.06459386881646886 0.997911635422356
vn 0.9727254914096719 -0.08120393785550627 -0.2172810135252774
vn 0.7687246910263443 -0.043544944694997575 0.6380957508070094
vn -0.784316992021635 0.023110758583851462 0.6199296321872456
vn -0.01970475276156002 0.00315275484995449 0.9998008716016714
vn -0.9745417990587011 -0.0034027664817846944 -0.2241800683997146
vn -0.42720916556451544 -0.0544748287341455 -0.9025102890782221
vn 0.4350929650581433 -0.08655476599824732 -0.896215590268269
vn 0.9702761070692114 0.051213204333443334 -0.23651952086987904
vn 0.7732804239929587 0.14734689983526333 0.6167059890889717
vn -0.745470867882224 0.273738185328956 0.607733980481373
vn 0.008412785934223605 0.24624341136061764 0.9691715056656952
vn -0.9311327212424722 0.2096884573990758 -0.29836656358443486
vn -0.2999837746783259 0.10404450472287985 -0.9482533817322847
vn 0.48447643984349853 0.04163256992429366 -0.8738130854811387
vn 0.9735957516884002 -0.02217018555382543 -0.22719990133538337
vn 0.7676708971307183 0.11554845754746122 0.6303411359390411
vn -0.7008111648008795 0.41048653735029655 0.5834076738821646
vn 0.027361206099659866 0.29374596747673126 0.9554918476847049
vn -0.8757384061632322 0.35130565523907714 -0.3311594488576831
vn -0.2811300673266565 0.14383733017465644 -0.9488291246020734
vn 0.4748106666815007 -0.006894673872968536 -0.8800609605462878
usemtl m_8d3692ba-e944-540b-cf69-c5c1881bbdec
f 76/303/84 74/304/84 73/305/84
f 74/306/85 76/307/85 77/308/85 75/309/85
f 78/310/86 76/311/86 73/312/86
f 76/313/87 78/314/87 79/315/87 77/316/87
f 80/317/88 78/318/88 73/319/88
f 78/320/89 80/321/89 81/322/89 79/323/89
f 82/324/90 80/325/90 73/326/90
f 80/327/91 82/328/91 83/329/91 81/330/91
f 84/331/92 82/332/92 73/333/92
f 82/334/93 84/335/93 85/336/93 83/337/93
f 86/338/94 84/339/94 73/340/94
f 84/341/95 86/342/95 87/343/95 85/344/95
f 74/345/96 86/346/96 73/347/96
f 86/348/97 74/349/97 75/350/97 87/351/97
f 89/352/98 88/353/98 77/354/98 79/355/98
f 88/356/99 90/357/99 75/358/99 77/359/99
f 92/360/100 91/361/100 85/362/100 87/363/100
f 90/364/101 92/365/101 87/366/101 75/367/101
f 91/368/102 93/369/102 83/370/102 85/371/102
f 93/372/103 94/373/103 81/374/103 83/375/103
f 94/376/104 89/377/104 79/378/104 81/379/104
f 96/380/105 95/381/105 88/382/105 89/383/105
f 95/384/106 97/385/106 90/386/106 88/387/106
f 99/388/107 98/389/107 91/390/107 92/391/107
f 97/392/108 99/393/108 92/394/108 90/395/108
f 98/396/109 100/397/109 93/398/109 91/399/109
f 100/400/110 101/401/110 94/402/110 93/403/110
f 101/404/111 96/405/111 89/406/111 94/407/111
f 102/408/112 95/409/112 96/410/112
f 102/411/113 97/412/113 95/413/113
f 102/414/114 98/415/114 99/416/114
f 102/417/115 99/418/115 97/419/115
f 102/420/116 100/421/116 98/422/116
f 102/423/117 101/424/117 100/425/117
f 102/426/118 96/427/118 101/428/118