# Made in Blockbench 4.12.5
mtllib potted_plant_2.mtl

o cylinder
v 1.734723475976807e-18 0 -3.469446951953614e-18
v 0.09060921676911456 0 0.21874999999999997
v 0.12944173824159222 0.1875 0.3125
v 0.21875 0 0.09060921676911456
v 0.3125 0.1875 0.12944173824159225
v 0.21875 0 -0.09060921676911454
v 0.3125 0.1875 -0.1294417382415922
v 0.09060921676911458 0 -0.21875
v 0.12944173824159222 0.1875 -0.3125
v -0.09060921676911453 0 -0.21875000000000003
v -0.12944173824159216 0.1875 -0.3125
v -0.21874999999999994 0 -0.09060921676911468
v -0.31249999999999994 0.1875 -0.1294417382415924
v -0.21875 0 0.0906092167691146
v -0.3125 0.1875 0.1294417382415923
v -0.0906092167691147 0 0.21874999999999994
v -0.12944173824159244 0.1875 0.3124999999999999
v 0.3125 0.5625 0.12944173824159225
v 0.3125 0.5625 -0.1294417382415922
v -0.12944173824159244 0.5625 0.3124999999999999
v 0.12944173824159222 0.5625 0.3125
v -0.3125 0.5625 0.1294417382415923
v -0.31249999999999994 0.5625 -0.1294417382415924
v -0.12944173824159216 0.5625 -0.3125
v 0.12944173824159222 0.5625 -0.3125
v 0.265625 0.5625 0.11002547750535341
v 0.265625 0.5625 -0.11002547750535335
v -0.11002547750535357 0.5625 0.2656249999999999
v 0.11002547750535338 0.5625 0.265625
v -0.265625 0.5625 0.11002547750535345
v -0.26562499999999994 0.5625 -0.11002547750535355
v -0.11002547750535334 0.5625 -0.265625
v 0.11002547750535338 0.5625 -0.265625
v 0.265625 0.5 0.11002547750535341
v 0.265625 0.5 -0.11002547750535335
v -3.932039878880763e-18 0.5 7.864079757761525e-18
v -0.11002547750535357 0.5 0.2656249999999999
v 0.11002547750535338 0.5 0.265625
v -0.265625 0.5 0.11002547750535345
v -0.26562499999999994 0.5 -0.11002547750535355
v -0.11002547750535334 0.5 -0.265625
v 0.11002547750535338 0.5 -0.265625
v -0.24999999999999997 0.3125 -0.10355339059327394
v -0.25 0.3125 0.10355339059327384
v -0.10355339059327395 0.3125 0.24999999999999992
v 0.10355339059327379 0.3125 0.25
v 0.25 0.3125 0.1035533905932738
v 0.25 0.3125 -0.10355339059327376
v 0.10355339059327379 0.3125 -0.25
v -0.10355339059327373 0.3125 -0.25
vt 0.3125 0.5617140625
vt 0.2804640625 0.59375
vt 0.2578125 0.5390625
vt 0.67155 0.8125
vt 0.716853125 0.8125
vt 0.7265625 0.859375
vt 0.661840625 0.859375
vt 0.3907875 0.8671875
vt 0.4296875 0.9060875
vt 0.36328125 0.93359375
vt 0.3125 0.5164109375
vt 0.3125 0.5617140625
vt 0.2578125 0.5390625
vt 0.6375046875 0.640625
vt 0.6828078125 0.640625
vt 0.6925171875 0.6875
vt 0.6277953125 0.6875
vt 0.4296875 0.9060875
vt 0.4296875 0.9611
vt 0.36328125 0.93359375
vt 0.2804640625 0.484375
vt 0.3125 0.5164109375
vt 0.2578125 0.5390625
vt 0.634709375 0.328125
vt 0.6800125 0.328125
vt 0.689721875 0.375
vt 0.625 0.375
vt 0.4296875 0.9611
vt 0.3907875 1
vt 0.36328125 0.93359375
vt 0.2351609375 0.484375
vt 0.2804640625 0.484375
vt 0.2578125 0.5390625
vt 0.2937546875 0.796875
vt 0.3390578125 0.796875
vt 0.3487671875 0.84375
vt 0.2840453125 0.84375
vt 0.3907875 1
vt 0.335775 1
vt 0.36328125 0.93359375
vt 0.203125 0.5164109375
vt 0.2351609375 0.484375
vt 0.2578125 0.5390625
vt 0.468425 0.296875
vt 0.513728125 0.296875
vt 0.5234375 0.34375
vt 0.458715625 0.34375
vt 0.335775 1
vt 0.296875 0.9611
vt 0.36328125 0.93359375
vt 0.203125 0.5617140625
vt 0.203125 0.5164109375
vt 0.2578125 0.5390625
vt 0.6375046875 0.390625
vt 0.6828078125 0.390625
vt 0.6925171875 0.4375
vt 0.6277953125 0.4375
vt 0.296875 0.9611
vt 0.296875 0.9060875
vt 0.36328125 0.93359375
vt 0.2351609375 0.59375
vt 0.203125 0.5617140625
vt 0.2578125 0.5390625
vt 0.650334375 0.875
vt 0.6956375 0.875
vt 0.705346875 0.921875
vt 0.640625 0.921875
vt 0.296875 0.9060875
vt 0.335775 0.8671875
vt 0.36328125 0.93359375
vt 0.2804640625 0.59375
vt 0.2351609375 0.59375
vt 0.2578125 0.5390625
vt 0.6218796875 0.453125
vt 0.6671828125 0.453125
vt 0.6768921875 0.5
vt 0.6121703125 0.5
vt 0.335775 0.8671875
vt 0.3907875 0.8671875
vt 0.36328125 0.93359375
vt 0.7393921875 0.96875
vt 0.7329203125 1
vt 0.6811421875 1
vt 0.6746703125 0.96875
vt 0.6925171875 0.59375
vt 0.6860453125 0.625
vt 0.6342671875 0.625
vt 0.6277953125 0.59375
vt 0.7421875 0.71875
vt 0.735715625 0.75
vt 0.6839375 0.75
vt 0.677465625 0.71875
vt 0.611596875 0.296875
vt 0.605125 0.328125
vt 0.553346875 0.328125
vt 0.546875 0.296875
vt 0.7393921875 0.765625
vt 0.7329203125 0.796875
vt 0.6811421875 0.796875
vt 0.6746703125 0.765625
vt 0.7109375 0.28125
vt 0.704465625 0.3125
vt 0.6526875 0.3125
vt 0.646215625 0.28125
vt 0.3331421875 0.6875
vt 0.3266703125 0.71875
vt 0.2748921875 0.71875
vt 0.2684203125 0.6875
vt 0.767846875 0.546875
vt 0.761375 0.578125
vt 0.709596875 0.578125
vt 0.703125 0.546875
vt 0.3671875 0.73063125
vt 0.3671875 0.6756187499999999
vt 0.37890625 0.6707640625
vt 0.37890625 0.7354859375
vt 0.3282875 0.63671875
vt 0.27327500000000005 0.63671875
vt 0.26842031250000004 0.625
vt 0.3331421875 0.625
vt 0.3671875 0.6756187499999999
vt 0.3282875 0.63671875
vt 0.3331421875 0.625
vt 0.37890625 0.6707640625
vt 0.27327500000000005 0.63671875
vt 0.234375 0.6756187499999999
vt 0.22265625 0.6707640625
vt 0.26842031250000004 0.625
vt 0.23437499999999997 0.67561875
vt 0.234375 0.7306312500000001
vt 0.22265625 0.7354859375
vt 0.22265624999999997 0.6707640625
vt 0.234375 0.7306312500000001
vt 0.27327500000000005 0.76953125
vt 0.26842031250000004 0.78125
vt 0.22265625 0.7354859375
vt 0.27327500000000005 0.76953125
vt 0.3282875 0.76953125
vt 0.3331421875 0.78125
vt 0.26842031250000004 0.78125
vt 0.3282875 0.76953125
vt 0.3671875 0.73063125
vt 0.37890625 0.7354859375
vt 0.3331421875 0.78125
vt 0.09375 0.375
vt 0.15625 0.375
vt 0.15625 0.390625
vt 0.09375 0.390625
vt 0.65625 0.9375
vt 0.71875 0.9375
vt 0.71875 0.953125
vt 0.65625 0.953125
vt 0.703125 0.515625
vt 0.765625 0.515625
vt 0.765625 0.53125
vt 0.703125 0.53125
vt 0.09375 0.3125
vt 0.15625 0.3125
vt 0.15625 0.328125
vt 0.09375 0.328125
vt 0.09375 0.34375
vt 0.15625 0.34375
vt 0.15625 0.359375
vt 0.09375 0.359375
vt 0.703125 0.484375
vt 0.765625 0.484375
vt 0.765625 0.5
vt 0.703125 0.5
vt 0.453125 0.375
vt 0.515625 0.375
vt 0.515625 0.390625
vt 0.453125 0.390625
vt 0.09375 0.28125
vt 0.15625 0.28125
vt 0.15625 0.296875
vt 0.09375 0.296875
vt 0.5496703125 0.921875
vt 0.5561421875 0.859375
vt 0.6079203125 0.859375
vt 0.6143921875 0.921875
vt 0.578125 1
vt 0.584596875 0.9375
vt 0.636375 0.9375
vt 0.642846875 1
vt 0.5340453125 0.65625
vt 0.5405171875 0.59375
vt 0.5922953125 0.59375
vt 0.5987671875 0.65625
vt 0.536840625 0.421875
vt 0.5433125 0.359375
vt 0.595090625 0.359375
vt 0.6015625 0.421875
vt 0.5652953125 0.84375
vt 0.5717671875 0.78125
vt 0.6235453125 0.78125
vt 0.6300171875 0.84375
vt 0.578125 0.765625
vt 0.584596875 0.703125
vt 0.636375 0.703125
vt 0.642846875 0.765625
vt 0.4559203125 0.921875
vt 0.4623921875 0.859375
vt 0.5141703125 0.859375
vt 0.5206421875 0.921875
vt 0.614965625 0.578125
vt 0.6214375 0.515625
vt 0.673215625 0.515625
vt 0.6796875 0.578125
vn 0 -1 0
vn 0.6324555320336758 -0.447213595499958 0.632455532033676
vn 0 1 0
vn 0 -1 0
vn 0.894427190999916 -0.447213595499958 0
vn 0 1 0
vn 0 -1 0
vn 0.6324555320336761 -0.44721359549995787 -0.6324555320336759
vn 0 1 0
vn 0 -1 0
vn 1.369912599274051e-16 -0.4472135954999578 -0.894427190999916
vn 0 1 0
vn 0 -1 0
vn -0.6324555320336757 -0.44721359549995815 -0.632455532033676
vn 0 1 0
vn 0 -1 0
vn -0.8944271909999161 -0.447213595499958 -2.7398251985481e-16
vn 0 1 0
vn 0 -1 0
vn -0.6324555320336761 -0.44721359549995804 0.6324555320336758
vn 0 1 0
vn 0 -1 0
vn -1.36991259927405e-16 -0.44721359549995804 0.8944271909999161
vn 0 1 0
vn 0.8944271909999161 0.44721359549995804 0
vn -3.5960205730943816e-16 0.447213595499958 0.8944271909999161
vn 0.6324555320336759 0.4472135954999579 0.6324555320336759
vn -0.632455532033676 0.447213595499958 0.6324555320336758
vn -0.8944271909999161 0.44721359549995804 -1.1986735243647936e-16
vn -0.6324555320336755 0.44721359549995787 -0.6324555320336763
vn 0 0.44721359549995804 -0.8944271909999161
vn 0.632455532033676 0.447213595499958 -0.6324555320336759
vn 0 1 0
vn 0 1 0
vn 0 1 0
vn 0 1 0
vn 0 1 0
vn 0 1 0
vn 0 1 0
vn 0 1 0
vn -1 0 0
vn 5.045299733287395e-16 0 -1
vn -0.7071067811865475 0 -0.7071067811865476
vn 0.7071067811865476 0 -0.7071067811865476
vn 1 0 2.5226498666436977e-16
vn 0.7071067811865472 0 0.7071067811865478
vn 0 0 1
vn -0.7071067811865476 0 0.7071067811865475
vn -0.9701425001453321 -0.24253562503633289 -1.3001439820777837e-16
vn -0.6859943405700355 -0.24253562503633305 0.6859943405700354
vn -3.900431946233352e-16 -0.2425356250363329 0.9701425001453319
vn 0.6859943405700354 -0.242535625036333 0.6859943405700354
vn 0.9701425001453319 -0.24253562503633297 0
vn 0.6859943405700355 -0.24253562503633302 -0.6859943405700354
vn 0 -0.24253562503633297 -0.9701425001453319
vn -0.6859943405700349 -0.24253562503633302 -0.6859943405700358
usemtl m_faa7cdc0-07aa-b64a-1d1e-78befdef19d4
f 4/1/1 2/2/1 1/3/1
f 2/4/2 4/5/2 5/6/2 3/7/2
f 38/8/3 34/9/3 36/10/3
f 6/11/4 4/12/4 1/13/4
f 4/14/5 6/15/5 7/16/5 5/17/5
f 34/18/6 35/19/6 36/20/6
f 8/21/7 6/22/7 1/23/7
f 6/24/8 8/25/8 9/26/8 7/27/8
f 35/28/9 42/29/9 36/30/9
f 10/31/10 8/32/10 1/33/10
f 8/34/11 10/35/11 11/36/11 9/37/11
f 42/38/12 41/39/12 36/40/12
f 12/41/13 10/42/13 1/43/13
f 10/44/14 12/45/14 13/46/14 11/47/14
f 41/48/15 40/49/15 36/50/15
f 14/51/16 12/52/16 1/53/16
f 12/54/17 14/55/17 15/56/17 13/57/17
f 40/58/18 39/59/18 36/60/18
f 16/61/19 14/62/19 1/63/19
f 14/64/20 16/65/20 17/66/20 15/67/20
f 39/68/21 37/69/21 36/70/21
f 2/71/22 16/72/22 1/73/22
f 16/74/23 2/75/23 3/76/23 17/77/23
f 37/78/24 38/79/24 36/80/24
f 7/81/25 48/82/25 47/83/25 5/84/25
f 3/85/26 46/86/26 45/87/26 17/88/26
f 5/89/27 47/90/27 46/91/27 3/92/27
f 17/93/28 45/94/28 44/95/28 15/96/28
f 15/97/29 44/98/29 43/99/29 13/100/29
f 13/101/30 43/102/30 50/103/30 11/104/30
f 11/105/31 50/106/31 49/107/31 9/108/31
f 9/109/32 49/110/32 48/111/32 7/112/32
f 27/113/33 26/114/33 18/115/33 19/116/33
f 29/117/34 28/118/34 20/119/34 21/120/34
f 26/121/35 29/122/35 21/123/35 18/124/35
f 28/125/36 30/126/36 22/127/36 20/128/36
f 30/129/37 31/130/37 23/131/37 22/132/37
f 31/133/38 32/134/38 24/135/38 23/136/38
f 32/137/39 33/138/39 25/139/39 24/140/39
f 33/141/40 27/142/40 19/143/40 25/144/40
f 35/145/41 34/146/41 26/147/41 27/148/41
f 38/149/42 37/150/42 28/151/42 29/152/42
f 34/153/43 38/154/43 29/155/43 26/156/43
f 37/157/44 39/158/44 30/159/44 28/160/44
f 39/161/45 40/162/45 31/163/45 30/164/45
f 40/165/46 41/166/46 32/167/46 31/168/46
f 41/169/47 42/170/47 33/171/47 32/172/47
f 42/173/48 35/174/48 27/175/48 33/176/48
f 23/177/49 43/178/49 44/179/49 22/180/49
f 22/181/50 44/182/50 45/183/50 20/184/50
f 20/185/51 45/186/51 46/187/51 21/188/51
f 21/189/52 46/190/52 47/191/52 18/192/52
f 18/193/53 47/194/53 48/195/53 19/196/53
f 19/197/54 48/198/54 49/199/54 25/200/54
f 25/201/55 49/202/55 50/203/55 24/204/55
f 24/205/56 50/206/56 43/207/56 23/208/56
o sphere
v -0.031250000000000014 1.40625 2.0816681711721685e-17
v -0.031250000000000014 1.8750000000000002 2.0816681711721685e-17
v 0.07814078323088544 1.8046796083845573 0.2843592167691147
v 0.11246843353822905 1.6375 0.45624999999999993
v 0.11564078323088547 1.4828203916154428 0.32185921676911455
v 0.2468592167691146 1.7609296083845574 0.1093907832308855
v 0.41874999999999996 1.60625 0.18746843353822915
v 0.2781092167691146 1.4265703916154426 0.12814078323088554
v 0.2968592167691144 1.8359296083845573 -0.11564078323088542
v 0.44374999999999987 1.65625 -0.18121843353822906
v 0.29060921676911455 1.4703203916154428 -0.10939078323088541
v 0.07189078323088549 1.8234296083845574 -0.2718592167691146
v 0.14996843353822914 1.5875 -0.41875000000000007
v 0.09689078323088551 1.4828203916154428 -0.29685921676911464
v -0.15939078323088546 1.7796796083845572 -0.3093592167691145
v -0.20621843353822908 1.63125 -0.5
v -0.12814078323088546 1.4390703916154428 -0.3093592167691146
v -0.3093592167691146 1.7984296083845572 -0.12814078323088562
v -0.47499999999999987 1.6375 -0.18121843353822933
v -0.37810921676911435 1.4578203916154426 -0.0718907832308856
v -0.32810921676911453 1.8109296083845572 0.10314078323088552
v -0.45625000000000004 1.5875 0.1624684335382292
v -0.3156092167691147 1.4203203916154428 0.14064078323088558
v -0.15939078323088568 1.8296796083845572 0.2781092167691146
v -0.23746843353822944 1.6625 0.3624999999999998
v -0.11564078323088564 1.4640703916154427 0.29060921676911455
vt 0.09028562363700865 0.9811714156466065
vt 0.06233391081959899 0.9261177877159517
vt 0.1422338645677807 0.9227585662916498
vt 0.15625 0.49699054077586
vt 0.09863207086723037 0.515625
vt 0.09863207086723037 0.413452995130263
vt 0.15485976054617712 0.4357761911351359
vt 0.4952283627468623 0.5140459742511693
vt 0.4569231316189206 0.4800218345745373
vt 0.4569231316189206 0.41526898036017657
vt 0.515625 0.4140625
vt 0.12319856742782379 0.6484375
vt 0.1861504427531906 0.6636016658275697
vt 0.12713986411100658 0.7322110961033543
vt 0.06233391081959899 0.9261177877159517
vt 0.07491259698697757 0.8668335192601982
vt 0.1422330093821238 0.9227586022460883
vt 0.06233391081959899 0.9261177877159517
vt 0.002062223032392285 0.9356205568391095
vt 0.021086101714697186 0.8443578453350546
vt 0.07457454998405108 0.8684267595243628
vt 0.359375 0.6025485339317361
vt 0.377175 0.5463610339317362
vt 0.43606875 0.5600422839317362
vt 0.4506671875 0.6210438464317362
vt 0.06576048833896013 0.6712872876656255
vt 0.12177153188079745 0.6485174779012475
vt 0.12713871486769798 0.7322117744979707
vt 0.07491259698697758 0.8668335192601982
vt 0.14107978448697758 0.8489413317601983
vt 0.1422329094869776 0.9227585192601983
vt 0.030280906422218867 0.625
vt 0 0.5728635791495006
vt 0.08981069468945721 0.5389533580289021
vt 0.09730115049030733 0.6107164548037203
vt 0.4506941707457717 0.6211565996050397
vt 0.43606875 0.5600422839317362
vt 0.4970818056938091 0.53125
vt 0.5256161872557747 0.5615916660430947
vt 0.04412326813437395 0.7351888070402127
vt 0.06576048833896013 0.6712872876656255
vt 0.12713838851405254 0.7322114505569007
vt 0.14107978448697758 0.8489413317601983
vt 0.2000241885513134 0.857674136600524
vt 0.14223290705205296 0.9227583633887294
vt 0.09730288218945722 0.6107330455289022
vt 0.08981069468945721 0.5389533580289021
vt 0.18082944468945722 0.5522642955289021
vt 0.15524819468945722 0.6066252330289021
vt 0.0018308512748433647 0.736117102675742
vt 0.0441228799982462 0.7351879340632541
vt 0.067441391346663 0.7876347991218096
vt 0.010356193772798533 0.8267743888434438
vt 0.06744139134666298 0.7876347991218096
vt 0.04412326813437395 0.7351888070402127
vt 0.12713816179594722 0.732211458688198
vt 0.2000241885513134 0.857674136600524
vt 0.22053596388555902 0.9129848689379279
vt 0.1422340524528181 0.9227570734446197
vt 0.2000241885513134 0.857674136600524
vt 0.23804314795671289 0.8092996988449077
vt 0.2791877769676077 0.9050924149033059
vt 0.22051904792001117 0.912939254434678
vt 0.4589608106403079 1
vt 0.4749990000488372 0.9375
vt 0.5613215352892484 0.9375
vt 0.5625 0.9890473395408987
vt 0.147747641346663 0.8192972991218095
vt 0.06744139134666297 0.7876347991218096
vt 0.12713826634666298 0.7322113616218096
vt 0.22053596388555902 0.9129848689379279
vt 0.20733973418803692 0.9695606492788502
vt 0.1422336827957668 0.9227571195784143
vt 0.411571875 0.8286933906054124
vt 0.390625 0.7732793281054123
vt 0.47585625 0.7560621406054123
vt 0.4674265625 0.8201902656054123
vt 0.3125 0.4663793629389854
vt 0.2714815768294825 0.43086444437249327
vt 0.265625 0.375
vt 0.3125 0.3812513709388644
vt 0.1893380975582247 0.7815429984889767
vt 0.147747641346663 0.8192972991218095
vt 0.127138325758575 0.7322116126697942
vt 0.20272644275867313 0.9753876276653313
vt 0.1469706470946352 1
vt 0.14223376211072258 0.9227592254210042
vt 0.4672444962259591 0.8215753191770876
vt 0.47585625 0.7560621406054123
vt 0.5410163666441486 0.7960371398993442
vt 0.5239646049831997 0.84375
vt 0.40625 0.6894280120516634
vt 0.44275668017134756 0.6484375
vt 0.5010033073072382 0.6735753803281062
vt 0.472546905882624 0.7273308672863457
vt 0.203125 0.7196201473361987
vt 0.1893380975582247 0.7815429984889767
vt 0.12713830210954724 0.7322115939134664
vt 0.1469706470946352 1
vt 0.09028562363700865 0.9811714156466065
vt 0.1422337309058492 0.9227587165869076
vt 0.5808791203597746 0.5207634510119731
vt 0.53125 0.53125
vt 0.53125 0.4404645443637687
vt 0.5860398366356606 0.4627059005493249
vt 0.4725001823072382 0.7274191303281061
vt 0.5010033073072382 0.6735753803281062
vt 0.5593142448072382 0.6786628803281061
vt 0.5618939323072383 0.7273175678281061
vt 0.1861504427531906 0.6636016658275697
vt 0.203125 0.7196201473361987
vt 0.1271396244044475 0.7322113748013579
vn 0.34423829532461747 0.9337038674694916 0.09847377267331434
vn 0.5340806779868572 0.6568848962920366 0.5322218169377309
vn 0.564573298137611 -0.5347104444912572 0.6287620627725422
vn -0.03921545069884308 -0.9679233264250585 0.24816644130247797
vn 0.23252243178832002 0.9060238172474383 0.3536299779368635
vn 0.6241320957692663 0.7674796123488014 0.14640413812320002
vn 0.7964851401298917 -0.6007388732041036 -0.06873301807523567
vn 0.13556217870423876 -0.9756254474394055 -0.17256269009730946
vn 0.05935392010482164 0.9846295593521959 -0.16426120363035007
vn 0.4178626617071042 0.5928583354490451 -0.6884110618225436
vn 0.511428461060548 -0.6419331379386534 -0.5712816955176085
vn 0.1269418678623339 -0.9723510227331069 -0.19600829261412048
vn -0.14339848826150986 0.9609445543248334 -0.23669059355572405
vn 0.2486537197526035 0.5699037596237068 -0.7831864608252352
vn 0.18532430814190715 -0.7839329060228685 -0.592540378089345
vn 0.19703568454896614 -0.9665391548153026 -0.1642528575801376
vn -0.15824479998135835 0.9601665873950151 -0.23030134113606657
vn -0.5118426577050242 0.7342609083199544 -0.4459574108214966
vn -0.5195176586125131 -0.6988169012398743 -0.4916872389347442
vn -0.1339913089929328 -0.9889806839298575 -0.0629566194136225
vn -0.23406571046419536 0.9695969536341877 -0.07137920347127946
vn -0.712617521551288 0.6876610949640249 0.1389189924055673
vn -0.908118466995593 -0.36655750675158494 0.20237698521728276
vn -0.11739226928376606 -0.9833128528419454 -0.138978014621892
vn -0.18572566981262245 0.9798041308153307 0.07409345996690302
vn -0.6657840158940614 0.5231159529456253 0.5320538919637433
vn -0.45604657150466404 -0.4813824505341792 0.7485268605311034
vn 0.05575916675416345 -0.976027175830117 0.21038504548557452
vn 0.09718160737258887 0.9742322250572567 0.203536991351613
vn -0.1881492301223984 0.5111971452972902 0.8386163281526602
vn -0.09233855891170321 -0.38880451488714945 0.9166813185297704
vn 0.050919336965316545 -0.9765703110175974 0.20908765808149832
usemtl m_faa7cdc0-07aa-b64a-1d1e-78befdef19d4
f 53/209/57 56/210/57 52/211/57
f 53/212/58 54/213/58 57/214/58 56/215/58
f 54/216/59 55/217/59 58/218/59 57/219/59
f 58/220/60 55/221/60 51/222/60
f 56/223/61 59/224/61 52/225/61
f 56/226/62 57/227/62 60/228/62 59/229/62
f 57/230/63 58/231/63 61/232/63 60/233/63
f 61/234/64 58/235/64 51/236/64
f 59/237/65 62/238/65 52/239/65
f 59/240/66 60/241/66 63/242/66 62/243/66
f 60/244/67 61/245/67 64/246/67 63/247/67
f 64/248/68 61/249/68 51/250/68
f 62/251/69 65/252/69 52/253/69
f 62/254/70 63/255/70 66/256/70 65/257/70
f 63/258/71 64/259/71 67/260/71 66/261/71
f 67/262/72 64/263/72 51/264/72
f 65/265/73 68/266/73 52/267/73
f 65/268/74 66/269/74 69/270/74 68/271/74
f 66/272/75 67/273/75 70/274/75 69/275/75
f 70/276/76 67/277/76 51/278/76
f 68/279/77 71/280/77 52/281/77
f 68/282/78 69/283/78 72/284/78 71/285/78
f 69/286/79 70/287/79 73/288/79 72/289/79
f 73/290/80 70/291/80 51/292/80
f 71/293/81 74/294/81 52/295/81
f 71/296/82 72/297/82 75/298/82 74/299/82
f 72/300/83 73/301/83 76/302/83 75/303/83
f 76/304/84 73/305/84 51/306/84
f 74/307/85 53/308/85 52/309/85
f 74/310/86 75/311/86 54/312/86 53/313/86
f 75/314/87 76/315/87 55/316/87 54/317/87
f 55/318/88 76/319/88 51/320/88
o stem
v 0 0.5 0
v 0.0454593918243516 0.5 0.08750000000000001
v 0.0329593918243516 0.65625 0.0625
v 0.09091878364870322 0.5 6.186688892561957e-18
v 0.0721687836487032 0.65625 4.419063494687112e-18
v 0.0454593918243516 0.5 -0.08750000000000001
v 0.0329593918243516 0.65625 -0.0625
v -0.04545939182435162 0.5 -0.0875
v -0.045459391824351617 0.65625 -0.06249999999999999
v -0.09091878364870322 0.5 -1.856006667768587e-17
v -0.08466878364870321 0.65625 -1.3257190484061335e-17
v -0.04545939182435166 0.5 0.08749999999999998
v -0.045459391824351644 0.65625 0.06249999999999998
v 0.0267093918243516 0.78125 0.07500000000000001
v 0.05966878364870321 0.78125 0.006250000000000007
v 0.0267093918243516 0.78125 -0.06250000000000001
v -0.03920939182435161 0.78125 -0.06249999999999999
v -0.07216878364870322 0.78125 0.0062499999999999865
v -0.03920939182435164 0.78125 0.07499999999999998
v 0.0360843918243516 0.9375 0.0625
v 0.06591878364870322 0.9375 0.006250000000000004
v 0.0360843918243516 0.9375 -0.05000000000000001
v -0.023584391824351618 0.9375 -0.049999999999999996
v -0.05341878364870323 0.9375 0.0062499999999999865
v -0.023584391824351646 0.9375 0.06249999999999999
v 0.036084391824351594 1.125 0.07500000000000001
v 0.06591878364870321 1.125 0.018750000000000003
v 0.036084391824351594 1.125 -0.03750000000000001
v -0.023584391824351618 1.125 -0.0375
v -0.053418783648703214 1.125 0.01874999999999999
v -0.02358439182435164 1.125 0.07499999999999998
v 0.030105024763034234 1.1875 0.063125
v 0.06021004952606849 1.1875 0.012500000000000002
v 0.030105024763034234 1.1875 -0.038125000000000006
v -0.030105024763034248 1.1875 -0.038125000000000006
v -0.06021004952606849 1.1875 0.012499999999999989
v -0.030105024763034276 1.1875 0.06312499999999999
v 0.0204593918243516 1.34375 0.05
v 0.047168783648703215 1.34375 1.734723475976807e-18
v 0.0204593918243516 1.34375 -0.05
v -0.03295939182435161 1.34375 -0.049999999999999996
v -0.05966878364870321 1.34375 -1.214306433183765e-17
v -0.03295939182435163 1.34375 0.049999999999999996
v -0.018750000000000003 1.46875 -0.0125
v 0.004834391824351605 1.46875 0.025000000000000005
v 0.028418783648703226 1.46875 -0.0125
v 0.004834391824351605 1.46875 -0.05
v -0.042334391824351614 1.46875 -0.05
v -0.06591878364870322 1.46875 -0.012500000000000008
v -0.042334391824351635 1.46875 0.02499999999999999
vt 0.0461671875 0.975
vt 0.034803125000000004 0.996875
vt 0.0234375 0.975
vt 0.05347432768166097 0.2719649826088012
vt 0.078125 0.2721744771082043
vt 0.07562874395017595 0.31143749367461027
vt 0.05724367841575774 0.31144062838314135
vt 0.255896875 0.98125
vt 0.2617921875 0.990625
vt 0.25 0.990625
vt 0.034803125000000004 0.953125
vt 0.0461671875 0.975
vt 0.0234375 0.975
vt 0.0015334671598988912 0.288425454217877
vt 0.02618495043067493 0.2884879541543205
vt 0.02198020967217269 0.3279461705507689
vt 0.0035964364787482023 0.3276854982138042
vt 0.2617921875 0.990625
vt 0.255896875 1
vt 0.25 0.990625
vt 0.012071875 0.953125
vt 0.034803125000000004 0.953125
vt 0.0234375 0.975
vt 0.219103125 0.22572499999999995
vt 0.241834375 0.22572499999999995
vt 0.241834375 0.265284375
vt 0.222228125 0.265284375
vt 0.255896875 1
vt 0.244103125 1
vt 0.25 0.990625
vt 0.0007078124999999984 0.975
vt 0.012071875 0.953125
vt 0.0234375 0.975
vt 0.3343525018813817 0.28844422995497077
vt 0.35900399853524906 0.2883872526281197
vt 0.3583740311682637 0.32747631308580005
vt 0.33998826556663203 0.32757193348836633
vt 0.244103125 1
vt 0.2382078125 0.990625
vt 0.25 0.990625
vt 0.012071875 0.996875
vt 0.0007078124999999984 0.975
vt 0.0234375 0.975
vt 0.40662546344996175 0.2886758939490339
vt 0.4312769855863578 0.2887205039275482
vt 0.42566080158410985 0.32787915488155894
vt 0.40727509211586643 0.32773650848701474
vt 0.2382078125 0.990625
vt 0.244103125 0.98125
vt 0.25 0.990625
vt 0.034803125000000004 0.996875
vt 0.012071875 0.996875
vt 0.0234375 0.975
vt 0.172228125 0.25
vt 0.194959375 0.25
vt 0.191834375 0.28955937500000006
vt 0.172228125 0.28955937500000006
vt 0.244103125 0.98125
vt 0.255896875 0.98125
vt 0.25 0.990625
vt 0.07281086591575774 0.34269062838314135
vt 0.05375149091575773 0.34269062838314135
vt 0.05724367841575774 0.31144062838314135
vt 0.07557180341575773 0.31143750338314136
vt 0.022553104216321895 0.35915883909581925
vt 0.0034921875000000005 0.3591306910524281
vt 0.0035964364787482023 0.3276854982138042
vt 0.02192419769065004 0.3279453763300195
vt 0.240271875 0.296534375
vt 0.223790625 0.296534375
vt 0.222228125 0.265284375
vt 0.241834375 0.265284375
vt 0.35837264056663204 0.35885318348836637
vt 0.339313265566632 0.35885318348836637
vt 0.33998826556663203 0.32757193348836633
vt 0.358314828066632 0.3274766209883664
vt 0.4290954046158664 0.35905994598701474
vt 0.41003446711586644 0.35905994598701474
vt 0.40727509211586643 0.32773650848701474
vt 0.42560165461586646 0.3278786959870147
vt 0.190271875 0.32096562500000003
vt 0.173790625 0.32096562500000003
vt 0.172228125 0.28955937500000006
vt 0.191834375 0.28955937500000006
vt 0.07351967368918377 0.38176916688726736
vt 0.0576024888139834 0.3817600258343403
vt 0.053765550275118895 0.34269062838314135
vt 0.07281086591575774 0.34269062838314135
vt 0.018678124999999997 0.39821819105242817
vt 0.0027609374999999995 0.39821819105242817
vt 0.0034921875000000005 0.3591306910524281
vt 0.022537500000000002 0.35915881605242816
vt 0.236365625 0.33572187499999995
vt 0.221446875 0.33572187499999995
vt 0.223790625 0.296534375
vt 0.240271875 0.296534375
vt 0.3563755578407539 0.39813728731444376
vt 0.3404585762496613 0.3982182498920668
vt 0.3393270816882929 0.35885318348836637
vt 0.35837264056663204 0.35885318348836637
vt 0.4279962319535748 0.3984196774714249
vt 0.4120791892977188 0.39835177311355274
vt 0.41004991880465236 0.35905994598701474
vt 0.4290954046158664 0.35905994598701474
vt 0.192615625 0.3601531250000001
vt 0.177696875 0.3601531250000001
vt 0.173790625 0.32096562500000003
vt 0.190271875 0.32096562500000003
vt 0.07073336592505242 0.42866601197705534
vt 0.0548146185501097 0.4286568700268031
vt 0.0576024888139834 0.3817600258343403
vt 0.07351967368918377 0.38176916688726736
vt 0.0159171875 0.4451150660524281
vt 0 0.4451150660524281
vt 0.0027609374999999995 0.39821819105242817
vt 0.018678125 0.39821819105242817
vt 0.236365625 0.38270000000000004
vt 0.221446875 0.38270000000000004
vt 0.221446875 0.33572187499999995
vt 0.236365625 0.33572187499999995
vt 0.359375 0.44501951216969005
vt 0.3434580184089074 0.44510047474731307
vt 0.34045857624966136 0.3982182498920668
vt 0.3563755578407539 0.39813728731444376
vt 0.43055707077475497 0.44532946664545825
vt 0.4146384656331175 0.44526155562180036
vt 0.4120791892977188 0.39835177311355274
vt 0.4279962319535748 0.3984196774714249
vt 0.192615625 0.4071328125
vt 0.177696875 0.4071328125
vt 0.177696875 0.3601531250000001
vt 0.192615625 0.3601531250000001
vt 0.07147446126656573 0.4443964785770198
vt 0.056749941238689636 0.4445153690672856
vt 0.05483433646338193 0.4286568813505698
vt 0.07073336592505242 0.42866601197705534
vt 0.016795627200722613 0.4607677636577935
vt 0.0020706392190116604 0.46074895040533526
vt 0.000018737023961068813 0.4451150660524281
vt 0.0159171875 0.4451150660524281
vt 0.2379953125 0.39832500000000004
vt 0.2229421875 0.39832500000000004
vt 0.221446875 0.38270000000000004
vt 0.236365625 0.38270000000000004
vt 0.35890737001553663 0.4607884824518653
vt 0.344182371623816 0.4607953645899451
vt 0.34347659855950047 0.44510038023838394
vt 0.359375 0.44501951216969005
vt 0.4271383353546182 0.46092822561308855
vt 0.4124133710615949 0.46089579770553146
vt 0.41465874408805575 0.4452616421325606
vt 0.43055707077475497 0.44532946664545825
vt 0.1911203125 0.4230359375
vt 0.1760671875 0.4230359375
vt 0.177696875 0.4071328125
vt 0.192615625 0.4071328125
vt 0.07284091417794014 0.4836901060372081
vt 0.05866913718086982 0.4837428105050803
vt 0.0567654262315892 0.4445152440364938
vt 0.07147446126656573 0.4443964785770198
vt 0.02056264819589594 0.4998306387446132
vt 0.006390773902259082 0.4998351132255785
vt 0.002086245533962767 0.4607489703446074
vt 0.016795627200722613 0.4607677636577935
vt 0.238709375 0.4375
vt 0.225353125 0.4375
vt 0.2229421875 0.39832500000000004
vt 0.2379953125 0.39832500000000004
vt 0.35620081239995954 0.49987621305328145
vt 0.34202899742672765 0.4999174608423902
vt 0.34419795272147335 0.46079535730768517
vt 0.35890737001553663 0.4607884824518653
vt 0.4238973109652639 0.49999447423533816
vt 0.4097254365619848 0.49999036165605304
vt 0.41242896913564997 0.4608958320562364
vt 0.4271383353546182 0.46092822561308855
vt 0.188709375 0.4622359375
vt 0.175353125 0.4622359375
vt 0.1760671875 0.4230359375
vt 0.1911203125 0.4230359375
vt 0.07357545441369964 0.5154210221762192
vt 0.06250233299074913 0.515625
vt 0.05870354699904677 0.4837426825358667
vt 0.07284091417794014 0.4836901060372081
vt 0.022485582488008478 0.53125
vt 0.01141072036355693 0.5311947376765918
vt 0.006426512440896395 0.4998351019418621
vt 0.02056264819589594 0.4998306387446132
vt 0.241053125 0.46875
vt 0.229259375 0.46875
vt 0.225353125 0.4375
vt 0.238709375 0.4375
vt 0.35433936412181166 0.53125
vt 0.34326437675279664 0.5312332734893638
vt 0.34206323413031037 0.49991736119472097
vt 0.35620081239995954 0.49987621305328145
vt 0.4173249937328511 0.53125
vt 0.40625 0.5312382179242623
vt 0.40975980732963085 0.49999037163021054
vt 0.4238973109652639 0.49999447423533816
vt 0.184803125 0.49410624999999997
vt 0.173009375 0.49410624999999997
vt 0.175353125 0.4622359375
vt 0.188709375 0.4622359375
vn 0 -1 0
vn 0.8823965268445634 0.1058875832213477 0.45843667952313144
vn 0 1 0
vn 0 -1 0
vn 0.8782317270321174 0.14326220479887575 -0.4562729164769146
vn 0 1 0
vn 0 -1 0
vn -1.507223371520513e-16 0.15799050110667287 -0.9874406319167054
vn 0 1 0
vn 0 -1 0
vn -0.8868268206267145 0.03547307282506859 -0.4607383762195862
vn 0 1 0
vn 0 -1 0
vn -0.8849808944756485 0.07356469620851869 0.45977935130324143
vn 0 1 0
vn 0 -1 0
vn -3.014446743041025e-16 0.1579905011066729 0.9874406319167054
vn 0 1 0
vn 0.901729183441666 0.0018567202971646918 0.43229738874918544
vn 0.8961487376477101 0.11109597731170111 -0.42962207093860283
vn -3.1579286751798556e-16 -1.2681194583841496e-16 -1
vn -0.9008156154852609 0.04504078077426307 -0.4318594157421553
vn -0.8996190115895927 0.068397613525783 0.4312857526635239
vn -4.1896753011126876e-16 -0.09950371902099893 0.9950371902099892
vn 0.8833242071318165 -0.015519003711812467 0.4685056089512062
vn 0.8828795336000013 -0.03531518134400012 -0.46826975891774664
vn -2.318396667938857e-16 0.07974522228289005 -0.9968152785361252
vn -0.8765190183058189 0.124843598660636 -0.464896210375677
vn -0.8785078444269224 0.10542094133123063 0.46595106224709865
vn -1.1591983339694279e-16 0.07974522228288995 0.9968152785361252
vn 0.882999894473675 -0.031222239801586643 0.46833359702379995
vn 0.8829998944736751 0.031222239801586737 -0.46833359702379995
vn -2.320652416855762e-16 0.0665190105237739 -0.9977851578566089
vn -0.8829998944736752 0.031222239801586626 -0.46833359702379984
vn -0.8829998944736753 -0.031222239801586574 0.46833359702379956
vn -4.641304833711523e-16 -0.06651901052377387 0.9977851578566089
vn 0.8460107858126381 0.17652576169872192 0.5030948277863415
vn 0.8591861433122399 0.02738486604859923 -0.5109297801574493
vn 0 -0.009999500037496774 -0.9999500037496877
vn -0.8556734088542987 -0.0943609241559653 -0.508840872348219
vn -0.858741208116751 -0.04224451864570899 0.5106651918102263
vn -2.2643857936070756e-16 0.1866606458232701 0.982424451701422
vn 0.8781662141435123 0.09361588098978145 0.4691057100093307
vn 0.8814711668463087 0.03590150499700802 -0.47087117554332947
vn -1.295226192211346e-16 -0.07578145826840334 -0.9971244509000441
vn -0.8808532281991052 -0.05185250411653681 -0.4705410802342981
vn -0.881308377372133 0.04071567900439453 0.47078421538631604
vn -1.2944027937764095e-16 0.08370520712978537 0.9964905610688742
vn 0.8280514936192493 0.20766158804243798 0.5207757567001592
vn 0.8442127011690562 0.07353792350211763 -0.5309398167324075
vn 0 0 -1
vn -0.8448038128997385 -0.06336028596748042 -0.5313115770168978
vn -0.8464542779603439 0.010912244376157 0.532349582741743
vn -2.885020450608129e-16 0.1961161351381841 0.9805806756909203
usemtl m_faa7cdc0-07aa-b64a-1d1e-78befdef19d4
f 80/321/89 78/322/89 77/323/89
f 78/324/90 80/325/90 81/326/90 79/327/90
f 121/328/91 122/329/91 120/330/91
f 82/331/92 80/332/92 77/333/92
f 80/334/93 82/335/93 83/336/93 81/337/93
f 122/338/94 123/339/94 120/340/94
f 84/341/95 82/342/95 77/343/95
f 82/344/96 84/345/96 85/346/96 83/347/96
f 123/348/97 124/349/97 120/350/97
f 86/351/98 84/352/98 77/353/98
f 84/354/99 86/355/99 87/356/99 85/357/99
f 124/358/100 125/359/100 120/360/100
f 88/361/101 86/362/101 77/363/101
f 86/364/102 88/365/102 89/366/102 87/367/102
f 125/368/103 126/369/103 120/370/103
f 78/371/104 88/372/104 77/373/104
f 88/374/105 78/375/105 79/376/105 89/377/105
f 126/378/106 121/379/106 120/380/106
f 91/381/107 90/382/107 79/383/107 81/384/107
f 92/385/108 91/386/108 81/387/108 83/388/108
f 93/389/109 92/390/109 83/391/109 85/392/109
f 94/393/110 93/394/110 85/395/110 87/396/110
f 95/397/111 94/398/111 87/399/111 89/400/111
f 90/401/112 95/402/112 89/403/112 79/404/112
f 97/405/113 96/406/113 90/407/113 91/408/113
f 98/409/114 97/410/114 91/411/114 92/412/114
f 99/413/115 98/414/115 92/415/115 93/416/115
f 100/417/116 99/418/116 93/419/116 94/420/116
f 101/421/117 100/422/117 94/423/117 95/424/117
f 96/425/118 101/426/118 95/427/118 90/428/118
f 103/429/119 102/430/119 96/431/119 97/432/119
f 104/433/120 103/434/120 97/435/120 98/436/120
f 105/437/121 104/438/121 98/439/121 99/440/121
f 106/441/122 105/442/122 99/443/122 100/444/122
f 107/445/123 106/446/123 100/447/123 101/448/123
f 102/449/124 107/450/124 101/451/124 96/452/124
f 109/453/125 108/454/125 102/455/125 103/456/125
f 110/457/126 109/458/126 103/459/126 104/460/126
f 111/461/127 110/462/127 104/463/127 105/464/127
f 112/465/128 111/466/128 105/467/128 106/468/128
f 113/469/129 112/470/129 106/471/129 107/472/129
f 108/473/130 113/474/130 107/475/130 102/476/130
f 115/477/131 114/478/131 108/479/131 109/480/131
f 116/481/132 115/482/132 109/483/132 110/484/132
f 117/485/133 116/486/133 110/487/133 111/488/133
f 118/489/134 117/490/134 111/491/134 112/492/134
f 119/493/135 118/494/135 112/495/135 113/496/135
f 114/497/136 119/498/136 113/499/136 108/500/136
f 122/501/137 121/502/137 114/503/137 115/504/137
f 123/505/138 122/506/138 115/507/138 116/508/138
f 124/509/139 123/510/139 116/511/139 117/512/139
f 125/513/140 124/514/140 117/515/140 118/516/140
f 126/517/141 125/518/141 118/519/141 119/520/141
f 121/521/142 126/522/142 119/523/142 114/524/142