# Made in Blockbench 4.12.5
mtllib power_cell.mtl

o cap_bottom
v 0 0 0
v 0 0.15625 0
v 0.110670625 0 0.1875
v 0.126295625 0.15625 0.21875
v 0.221340625 0 0
v 0.252590625 0.15625 0
v 0.110670625 0 -0.1875
v 0.126295625 0.15625 -0.21875
v -0.110670625 0 -0.1875
v -0.126295625 0.15625 -0.21875
v -0.221340625 0 0
v -0.252590625 0.15625 0
v -0.110670625 0 0.1875
v -0.126295625 0.15625 0.21875
vt 0.5403578125 0.90625
vt 0.4850203125 1
vt 0.4296859375 0.90625
vt 0.125 0.3198015625
vt 0.1251778125 0.21093937500000004
vt 0.21875 0.203125
vt 0.21875 0.3294159375
vt 0.1959578125 0.78125
vt 0.2591078125 0.890625
vt 0.1328109375 0.890625
vt 0.4850203125 0.8125
vt 0.5403578125 0.90625
vt 0.4296859375 0.90625
vt 0.25794375 0.1875
vt 0.36680625 0.1875
vt 0.376290625 0.28125
vt 0.25 0.28102812499999996
vt 0.2591078125 0.890625
vt 0.1959578125 1
vt 0.1328109375 0.890625
vt 0.3743515625 0.8125
vt 0.4850203125 0.8125
vt 0.4296859375 0.90625
vt 0.014978125 0.65625
vt 0.125646875 0.65625
vt 0.133459375 0.75
vt 0.007165625 0.75
vt 0.1959578125 1
vt 0.0696640625 1
vt 0.1328109375 0.890625
vt 0.3190171875 0.90625
vt 0.3743515625 0.8125
vt 0.4296859375 0.90625
vt 0.65625 0.3510515625
vt 0.6564278125 0.24218937500000004
vt 0.75 0.234375
vt 0.75 0.3606659375
vt 0.0696640625 1
vt 0.0065171875 0.890625
vt 0.1328109375 0.890625
vt 0.3743515625 1
vt 0.3190171875 0.90625
vt 0.4296859375 0.90625
vt 0.44544375 0.1875
vt 0.55430625 0.1875
vt 0.563790625 0.28125
vt 0.4375 0.28102812499999996
vt 0.0065171875 0.890625
vt 0.0696640625 0.78125
vt 0.1328109375 0.890625
vt 0.4850203125 1
vt 0.3743515625 1
vt 0.4296859375 0.90625
vt 0.671228125 0.65625
vt 0.781896875 0.65625
vt 0.789709375 0.75
vt 0.663415625 0.75
vt 0.0696640625 0.78125
vt 0.1959578125 0.78125
vt 0.1328109375 0.890625
vn 0 -1 0
vn 0.8486826348645389 -0.16973652697290778 0.5009264384024456
vn 0 1 0
vn 0 -1 0
vn 0.8463859812219648 -0.18455277043348703 -0.49957086155645264
vn 0 1 0
vn 0 -1 0
vn 0 -0.19611613513818402 -0.9805806756909202
vn 0 1 0
vn 0 -1 0
vn -0.8486826348645389 -0.16973652697290778 -0.5009264384024456
vn 0 1 0
vn 0 -1 0
vn -0.8463859812219648 -0.18455277043348703 0.49957086155645264
vn 0 1 0
vn 0 -1 0
vn 0 -0.19611613513818402 0.9805806756909202
vn 0 1 0
usemtl m_38b57187-c97e-12e9-c16e-633faf9f48df
f 5/1/1 3/2/1 1/3/1
f 3/4/2 5/5/2 6/6/2 4/7/2
f 4/8/3 6/9/3 2/10/3
f 7/11/4 5/12/4 1/13/4
f 5/14/5 7/15/5 8/16/5 6/17/5
f 6/18/6 8/19/6 2/20/6
f 9/21/7 7/22/7 1/23/7
f 7/24/8 9/25/8 10/26/8 8/27/8
f 8/28/9 10/29/9 2/30/9
f 11/31/10 9/32/10 1/33/10
f 9/34/11 11/35/11 12/36/11 10/37/11
f 10/38/12 12/39/12 2/40/12
f 13/41/13 11/42/13 1/43/13
f 11/44/14 13/45/14 14/46/14 12/47/14
f 12/48/15 14/49/15 2/50/15
f 3/51/16 13/52/16 1/53/16
f 13/54/17 3/55/17 4/56/17 14/57/17
f 14/58/18 4/59/18 2/60/18
o cap_top
v 0 0.8125 0
v 0 0.59375 0
v 0.110670625 0.75 0.1875
v 0.126295625 0.59375 0.21875
v 0.221340625 0.75 0
v 0.252590625 0.59375 0
v 0.110670625 0.75 -0.1875
v 0.126295625 0.59375 -0.21875
v -0.110670625 0.75 -0.1875
v -0.126295625 0.59375 -0.21875
v -0.221340625 0.75 0
v -0.252590625 0.59375 0
v -0.110670625 0.75 0.1875
v -0.126295625 0.59375 0.21875
vt 0.1674634375 0.390240625
vt 0.2227984375 0.483990625
vt 0.112128125 0.483990625
vt 0.921875 0.920725
vt 0.91393125 1
vt 0.80506875 1
vt 0.795584375 0.92051875
vt 0.4778578125 0.671875
vt 0.4147078125 0.78125
vt 0.3515609375 0.671875
vt 0.2227984375 0.483990625
vt 0.1674634375 0.577740625
vt 0.112128125 0.483990625
vt 0.78125 0.24870906250000002
vt 0.860720625 0.25833312500000005
vt 0.860529375 0.367195625
vt 0.78125 0.375
vt 0.4147078125 0.5625
vt 0.4778578125 0.671875
vt 0.3515609375 0.671875
vt 0.1674634375 0.577740625
vt 0.0567928125 0.577740625
vt 0.112128125 0.483990625
vt 0.789709375 0.53125
vt 0.781896875 0.625
vt 0.671228125 0.625
vt 0.663415625 0.53125
vt 0.2884140625 0.5625
vt 0.4147078125 0.5625
vt 0.3515609375 0.671875
vt 0.0567928125 0.577740625
vt 0.0014578125 0.483990625
vt 0.112128125 0.483990625
vt 0.921875 0.795725
vt 0.91393125 0.875
vt 0.80506875 0.875
vt 0.795584375 0.79551875
vt 0.2252671875 0.671875
vt 0.2884140625 0.5625
vt 0.3515609375 0.671875
vt 0.0014578125 0.483990625
vt 0.0567928125 0.390240625
vt 0.112128125 0.483990625
vt 0.59375 0.06120906250000002
vt 0.673220625 0.07083312500000005
vt 0.673029375 0.17969562500000003
vt 0.59375 0.1875
vt 0.2884140625 0.78125
vt 0.2252671875 0.671875
vt 0.3515609375 0.671875
vt 0.0567928125 0.390240625
vt 0.1674634375 0.390240625
vt 0.112128125 0.483990625
vt 0.789709375 0.40625
vt 0.781896875 0.5
vt 0.671228125 0.5
vt 0.663415625 0.40625
vt 0.4147078125 0.78125
vt 0.2884140625 0.78125
vt 0.3515609375 0.671875
vn 0.2683149970501915 0.9502241463034008 0.15837024385890508
vn 0.8486826348645389 0.16973652697290778 0.5009264384024456
vn 0 -1 0
vn 0.2683149970501915 0.9502241463034008 -0.15837024385890508
vn 0.8463859812219648 0.18455277043348703 -0.49957086155645264
vn 0 -1 0
vn 0 0.948683298050514 -0.316227766016838
vn 0 0.19611613513818402 -0.9805806756909202
vn 0 -1 0
vn -0.2683149970501915 0.9502241463034008 -0.15837024385890508
vn -0.8486826348645389 0.16973652697290778 -0.5009264384024456
vn 0 -1 0
vn -0.2683149970501915 0.9502241463034008 0.15837024385890508
vn -0.8463859812219648 0.18455277043348703 0.49957086155645264
vn 0 -1 0
vn 0 0.948683298050514 0.316227766016838
vn 0 0.19611613513818402 0.9805806756909202
vn 0 -1 0
usemtl m_38b57187-c97e-12e9-c16e-633faf9f48df
f 17/61/19 19/62/19 15/63/19
f 20/64/20 19/65/20 17/66/20 18/67/20
f 20/68/21 18/69/21 16/70/21
f 19/71/22 21/72/22 15/73/22
f 22/74/23 21/75/23 19/76/23 20/77/23
f 22/78/24 20/79/24 16/80/24
f 21/81/25 23/82/25 15/83/25
f 24/84/26 23/85/26 21/86/26 22/87/26
f 24/88/27 22/89/27 16/90/27
f 23/91/28 25/92/28 15/93/28
f 26/94/29 25/95/29 23/96/29 24/97/29
f 26/98/30 24/99/30 16/100/30
f 25/101/31 27/102/31 15/103/31
f 28/104/32 27/105/32 25/106/32 26/107/32
f 28/108/33 26/109/33 16/110/33
f 27/111/34 17/112/34 15/113/34
f 18/114/35 17/115/35 27/116/35 28/117/35
f 18/118/36 28/119/36 16/120/36
o body
v 0.108253125 0.15625 0.1875
v 0.108253125 0.59375 0.1875
v 0.21650625 0.15625 0
v 0.21650625 0.59375 0
v 0.108253125 0.15625 -0.1875
v 0.108253125 0.59375 -0.1875
v -0.108253125 0.15625 -0.1875
v -0.108253125 0.59375 -0.1875
v -0.21650625 0.15625 0
v -0.21650625 0.59375 0
v -0.108253125 0.15625 0.1875
v -0.108253125 0.59375 0.1875
vt 0.53125 0.5625
vt 0.625 0.5625
vt 0.625 0.78125
vt 0.53125 0.78125
vt 0.53125 0.3125
vt 0.625 0.3125
vt 0.625 0.53125
vt 0.53125 0.53125
vt 0.28125 0.3125
vt 0.375 0.3125
vt 0.375 0.53125
vt 0.28125 0.53125
vt 0 0.125
vt 0.09375 0.125
vt 0.09375 0.34375
vt 0 0.34375
vt 0.65625 0.78125
vt 0.75 0.78125
vt 0.75 1
vt 0.65625 1
vt 0.40625 0.3125
vt 0.5 0.3125
vt 0.5 0.53125
vt 0.40625 0.53125
vn 0.8660255047305424 0 0.49999982515617863
vn 0.8660255047305424 0 -0.49999982515617863
vn 0 0 -1
vn -0.8660255047305424 0 -0.49999982515617863
vn -0.8660255047305424 0 0.49999982515617863
vn 0 0 1
usemtl m_38b57187-c97e-12e9-c16e-633faf9f48df
f 29/121/37 31/122/37 32/123/37 30/124/37
f 31/125/38 33/126/38 34/127/38 32/128/38
f 33/129/39 35/130/39 36/131/39 34/132/39
f 35/133/40 37/134/40 38/135/40 36/136/40
f 37/137/41 39/138/41 40/139/41 38/140/41
f 39/141/42 29/142/42 30/143/42 40/144/42
o handle
v -0.19833556181986425 0.6875 -0.037241445082078724
v -0.2126200162066906 0.716069375 -0.01875004432569531
v -0.22934502535945356 0.6875 -0.07474147871605538
v -0.2561298253949502 0.716069375 -0.06250009418400251
v -0.2126200162066906 0.658930625 -0.01875004432569531
v -0.2269047037066906 0.6875 0.005991760194548723
v -0.2561298253949502 0.658930625 -0.06250009418400251
v -0.28916448792843014 0.6875 -0.05025863026512327
v -0.17926487561075127 0.6875 -0.16071534253146547
v -0.18525639764482088 0.658930625 -0.1875002219537885
v -0.18525639764482088 0.716069375 -0.1875002219537885
v -0.19124831156571684 0.6875 -0.2205344226082174
v -0.14270868597928893 0.6875 -0.1440537703042808
v -0.12842423159246258 0.658930625 -0.16254517106066424
v -0.12842423159246258 0.716069375 -0.16254517106066424
v -0.11413954409246257 0.6875 -0.1872869755809083
vt 0.000528125 0.0919875
vt 0.003103125 0.0625
vt 0.02743125 0.0625
vt 0.03125 0.09375
vt 0.84375 0.5807015625
vt 0.8448953125 0.5498728125
vt 0.875 0.546875
vt 0.875 0.5887975
vt 0.90625 0.29239000000000004
vt 0.9246184375 0.294148125
vt 0.926541875 0.3125
vt 0.90643125 0.3125
vt 0.9265396875 0.6875
vt 0.90817125 0.68574
vt 0.90625 0.65625
vt 0.9263628125 0.65625
vt 0.37118125 0.08253750000000004
vt 0.346853125 0.08253750000000004
vt 0.344278125 0.0642625
vt 0.375 0.0625
vt 0.515625 0.125
vt 0.5126271875 0.15510468749999995
vt 0.4817984375 0.15625
vt 0.4737025 0.125
vt 0.9085640625 0.420503125
vt 0.9187359375 0.4375
vt 0.8468890625 0.4375
vt 0.8588203125 0.420815625
vt 0.88212625 0.140625
vt 0.89912375 0.15079624999999997
vt 0.8988059375 0.20054531249999996
vt 0.88212625 0.21246718750000004
vt 0.8493328125 0.7496406250000001
vt 0.8622234375 0.71875
vt 0.9340703125 0.71875
vt 0.9475421875 0.75
vt 0.73715625 0.18723749999999995
vt 0.72433125 0.15625
vt 0.82254375 0.15625
vt 0.809003125 0.1875
vt 0.4969625 0.07551249999999998
vt 0.4997875 0.09375
vt 0.46875 0.09375
vt 0.476878125 0.07568437500000003
vt 0.43728125 0.0625
vt 0.43461875 0.08075937499999997
vt 0.41453125 0.08075937499999997
vt 0.40625 0.06276875000000004
vt 0.875 0.6826096875000001
vt 0.84375 0.6809496875000001
vt 0.843895625 0.6499125
vt 0.875 0.640625
vt 0.5641625 0.84375
vt 0.5625 0.8125
vt 0.6044875 0.8125
vt 0.595196875 0.843603125
vn 0.6024254114641404 0.6236374240964052 -0.4981565887235275
vn -0.5101706556366574 -0.6944799457715752 0.5073692019115597
vn 0.7913751751577451 0 0.6113307878260742
vn 0.791375175157745 0 0.611330787826074
vn 0.6024254114641404 -0.6236374240964051 -0.4981565887235274
vn -0.5101706556366573 0.6944799457715755 0.5073692019115598
vn 0.7310798736367463 0.5419423082689361 0.41451266913258095
vn 0.7234604109879489 -0.5468191633234762 0.4214188372099206
vn -0.6950033806229851 -0.6014056642854645 -0.3940577722720125
vn -0.6907764903507143 0.6041840077929926 -0.39722729652674477
vn -0.3149202913837253 0.6216579273591704 0.7171935801624901
vn -0.32443411065012606 -0.6229380748688044 0.7118220723786316
vn 0.28514937931814477 -0.7049662711864942 -0.6493938619696733
vn 0.28092171556526213 0.7046976505328314 -0.651524528362039
usemtl m_38b57187-c97e-12e9-c16e-633faf9f48df
f 42/145/43 41/146/43 43/147/43 44/148/43
f 47/149/44 45/150/44 46/151/44 48/152/44
f 45/153/45 41/154/45 42/155/45 46/156/45
f 55/157/46 53/158/46 54/159/46 56/160/46
f 43/161/47 41/162/47 45/163/47 47/164/47
f 46/165/48 42/166/48 44/167/48 48/168/48
f 49/169/49 51/170/49 44/171/49 43/172/49
f 50/173/50 49/174/50 43/175/50 47/176/50
f 52/177/51 50/178/51 47/179/51 48/180/51
f 51/181/52 52/182/52 48/183/52 44/184/52
f 53/185/53 55/186/53 51/187/53 49/188/53
f 54/189/54 53/190/54 49/191/54 50/192/54
f 56/193/55 54/194/55 50/195/55 52/196/55
f 55/197/56 56/198/56 52/199/56 51/200/56
o handle
v 0.19833556181986425 0.6875 -0.037241445082078724
v 0.2126200162066906 0.716069375 -0.01875004432569531
v 0.22934502535945356 0.6875 -0.07474147871605538
v 0.2561298253949502 0.716069375 -0.06250009418400251
v 0.2126200162066906 0.658930625 -0.01875004432569531
v 0.2269047037066906 0.6875 0.005991760194548723
v 0.2561298253949502 0.658930625 -0.06250009418400251
v 0.28916448792843014 0.6875 -0.05025863026512327
v 0.17926487561075127 0.6875 -0.16071534253146547
v 0.18525639764482088 0.658930625 -0.1875002219537885
v 0.18525639764482088 0.716069375 -0.1875002219537885
v 0.19124831156571684 0.6875 -0.2205344226082174
v 0.14270868597928893 0.6875 -0.1440537703042808
v 0.12842423159246258 0.658930625 -0.16254517106066424
v 0.12842423159246258 0.716069375 -0.16254517106066424
v 0.11413954409246257 0.6875 -0.1872869755809083
vt 0.06631875 0.0625
vt 0.090646875 0.0625
vt 0.093221875 0.0919875
vt 0.0625 0.09375
vt 0.125 0.08362343750000001
vt 0.1279978125 0.06364531250000005
vt 0.1588265625 0.0625
vt 0.1669225 0.08362343750000001
vt 0.3125 0.09375
vt 0.2941315625 0.09199218750000004
vt 0.292208125 0.0625
vt 0.31231875 0.0625
vt 0.9172103125 0.3548878125
vt 0.93557875 0.3566478125
vt 0.9375 0.375
vt 0.9173871875 0.375
vt 0.936971875 0.5955125
vt 0.934396875 0.6137874999999999
vt 0.91006875 0.6137874999999999
vt 0.90625 0.59375
vt 0.2398734375 0.059923437499999954
vt 0.238728125 0.09075218750000003
vt 0.21875 0.09375
vt 0.21875 0.051827500000000026
vt 0.7937359375 0.125
vt 0.7218890625 0.125
vt 0.7320609375 0.10800312499999998
vt 0.7818046875 0.10831562500000003
vt 0.9067046875 0.4858125
vt 0.8569546875 0.4858125
vt 0.8468921875 0.46875
vt 0.9187328125 0.46920937500000004
vt 0.59375 0.9752965625
vt 0.5940128125 0.90345
vt 0.625 0.890625
vt 0.625 0.988835
vt 0.13058125 0.125
vt 0.22879375 0.125
vt 0.21596875 0.15598749999999995
vt 0.144121875 0.15625
vt 0.5625 0.09375
vt 0.5314625 0.09375
vt 0.5342875 0.07551249999999998
vt 0.554371875 0.07568437500000003
vt 0.92921875 0.549509375
vt 0.90913125 0.549509375
vt 0.90646875 0.53125
vt 0.9375 0.53151875
vt 0.389271875 0.125
vt 0.420309375 0.125
vt 0.421875 0.15625
vt 0.379890625 0.15605312500000001
vt 0.2861375 0.125
vt 0.328125 0.125
vt 0.3264625 0.15625
vt 0.295428125 0.156103125
vn -0.6024254114641404 0.6236374240964051 -0.4981565887235274
vn 0.5101706556366573 -0.6944799457715755 0.5073692019115598
vn -0.7913751751577451 0 0.6113307878260742
vn -0.791375175157745 0 0.611330787826074
vn -0.6024254114641404 -0.6236374240964052 -0.4981565887235275
vn 0.5101706556366574 0.6944799457715752 0.5073692019115597
vn -0.7310798736367463 0.5419423082689361 0.41451266913258095
vn -0.7234604109879489 -0.5468191633234761 0.42141883720992057
vn 0.6950033806229851 -0.6014056642854645 -0.3940577722720125
vn 0.6907764903507144 0.6041840077929926 -0.3972272965267448
vn 0.3149202913837253 0.6216579273591705 0.7171935801624901
vn 0.32443411065012606 -0.6229380748688043 0.7118220723786316
vn -0.28514937931814477 -0.7049662711864942 -0.6493938619696733
vn -0.28092171556526213 0.7046976505328314 -0.651524528362039
usemtl m_38b57187-c97e-12e9-c16e-633faf9f48df
f 59/201/57 57/202/57 58/203/57 60/204/57
f 62/205/58 61/206/58 63/207/58 64/208/58
f 58/209/59 57/210/59 61/211/59 62/212/59
f 70/213/60 69/214/60 71/215/60 72/216/60
f 61/217/61 57/218/61 59/219/61 63/220/61
f 60/221/62 58/222/62 62/223/62 64/224/62
f 60/225/63 67/226/63 65/227/63 59/228/63
f 59/229/64 65/230/64 66/231/64 63/232/64
f 63/233/65 66/234/65 68/235/65 64/236/65
f 64/237/66 68/238/66 67/239/66 60/240/66
f 67/241/67 71/242/67 69/243/67 65/244/67
f 65/245/68 69/246/68 70/247/68 66/248/68
f 66/249/69 70/250/69 72/251/69 68/252/69
f 68/253/70 72/254/70 71/255/70 67/256/70