# Made in Blockbench 4.12.5
mtllib rack.mtl

o leg
v -0.375 2.875 -1.375
v -0.375 2.875 -1.5
v -0.375 0 -1.375
v -0.375 0 -1.5
v -0.5 2.875 -1.375
v -0.5 2.875 -1.5
v -0.5 0 -1.375
v -0.5 0 -1.5
vt 0.28125 0.6171875
vt 0.265625 0.6171875
vt 0.265625 0.2578125
vt 0.28125 0.2578125
vt 0.3046875 0.2578125
vt 0.3046875 0.6171875
vt 0.2890625 0.6171875
vt 0.2890625 0.2578125
vt 0.125 0.609375
vt 0.140625 0.609375
vt 0.140625 0.625
vt 0.125 0.625
vt 0.6015625 0.796875
vt 0.6015625 0.8125
vt 0.5859375 0.8125
vt 0.5859375 0.796875
vt 0.328125 0.2578125
vt 0.328125 0.6171875
vt 0.3125 0.6171875
vt 0.3125 0.2578125
vt 0.3515625 0.6171875
vt 0.3359375 0.6171875
vt 0.3359375 0.2578125
vt 0.3515625 0.2578125
vn 1 0 0
vn -1 0 0
vn 0 1 0
vn 0 -1 0
vn 0 0 1
vn 0 0 -1
usemtl m_9f25a274-616c-8045-4bb9-eb88bd1fa55c
f 2/1/1 1/2/1 3/3/1 4/4/1
f 7/5/2 5/6/2 6/7/2 8/8/2
f 5/9/3 1/10/3 2/11/3 6/12/3
f 4/13/4 3/14/4 7/15/4 8/16/4
f 3/17/5 1/18/5 5/19/5 7/20/5
f 6/21/6 2/22/6 4/23/6 8/24/6
o leg
v 0.5 2.875 -1.375
v 0.5 2.875 -1.5
v 0.5 0 -1.375
v 0.5 0 -1.5
v 0.375 2.875 -1.375
v 0.375 2.875 -1.5
v 0.375 0 -1.375
v 0.375 0 -1.5
vt 0.4140625 1
vt 0.3984375 1
vt 0.3984375 0.640625
vt 0.4140625 0.640625
vt 0.4375 0.640625
vt 0.4375 1
vt 0.421875 1
vt 0.421875 0.640625
vt 0.5859375 0.7734375
vt 0.6015625 0.7734375
vt 0.6015625 0.7890625
vt 0.5859375 0.7890625
vt 0.6015625 0.75
vt 0.6015625 0.765625
vt 0.5859375 0.765625
vt 0.5859375 0.75
vt 0.4609375 0.640625
vt 0.4609375 1
vt 0.4453125 1
vt 0.4453125 0.640625
vt 0.484375 1
vt 0.46875 1
vt 0.46875 0.640625
vt 0.484375 0.640625
vn 1 0 0
vn -1 0 0
vn 0 1 0
vn 0 -1 0
vn 0 0 1
vn 0 0 -1
usemtl m_9f25a274-616c-8045-4bb9-eb88bd1fa55c
f 10/25/7 9/26/7 11/27/7 12/28/7
f 15/29/8 13/30/8 14/31/8 16/32/8
f 13/33/9 9/34/9 10/35/9 14/36/9
f 12/37/10 11/38/10 15/39/10 16/40/10
f 11/41/11 9/42/11 13/43/11 15/44/11
f 14/45/12 10/46/12 12/47/12 16/48/12
o leg
v -0.375 2.875 1.5
v -0.375 2.875 1.375
v -0.375 0 1.5
v -0.375 0 1.375
v -0.5 2.875 1.5
v -0.5 2.875 1.375
v -0.5 0 1.5
v -0.5 0 1.375
vt 0.5078125 1
vt 0.4921875 1
vt 0.4921875 0.640625
vt 0.5078125 0.640625
vt 0.5234375 0.2734375
vt 0.5234375 0.6328125
vt 0.5078125 0.6328125
vt 0.5078125 0.2734375
vt 0.5859375 0.7265625
vt 0.6015625 0.7265625
vt 0.6015625 0.7421875
vt 0.5859375 0.7421875
vt 0.6015625 0.703125
vt 0.6015625 0.71875
vt 0.5859375 0.71875
vt 0.5859375 0.703125
vt 0.53125 0.640625
vt 0.53125 1
vt 0.515625 1
vt 0.515625 0.640625
vt 0.546875 0.6328125
vt 0.53125 0.6328125
vt 0.53125 0.2734375
vt 0.546875 0.2734375
vn 1 0 0
vn -1 0 0
vn 0 1 0
vn 0 -1 0
vn 0 0 1
vn 0 0 -1
usemtl m_9f25a274-616c-8045-4bb9-eb88bd1fa55c
f 18/49/13 17/50/13 19/51/13 20/52/13
f 23/53/14 21/54/14 22/55/14 24/56/14
f 21/57/15 17/58/15 18/59/15 22/60/15
f 20/61/16 19/62/16 23/63/16 24/64/16
f 19/65/17 17/66/17 21/67/17 23/68/17
f 22/69/18 18/70/18 20/71/18 24/72/18
o leg
v 0.5 2.875 1.5
v 0.5 2.875 1.375
v 0.5 0 1.5
v 0.5 0 1.375
v 0.375 2.875 1.5
v 0.375 2.875 1.375
v 0.375 0 1.5
v 0.375 0 1.375
vt 0.5546875 1
vt 0.5390625 1
vt 0.5390625 0.640625
vt 0.5546875 0.640625
vt 0.5703125 0.2734375
vt 0.5703125 0.6328125
vt 0.5546875 0.6328125
vt 0.5546875 0.2734375
vt 0.5859375 0.6796875
vt 0.6015625 0.6796875
vt 0.6015625 0.6953125
vt 0.5859375 0.6953125
vt 0.6015625 0.65625
vt 0.6015625 0.671875
vt 0.5859375 0.671875
vt 0.5859375 0.65625
vt 0.578125 0.640625
vt 0.578125 1
vt 0.5625 1
vt 0.5625 0.640625
vt 0.59375 0.6328125
vt 0.578125 0.6328125
vt 0.578125 0.2734375
vt 0.59375 0.2734375
vn 1 0 0
vn -1 0 0
vn 0 1 0
vn 0 -1 0
vn 0 0 1
vn 0 0 -1
usemtl m_9f25a274-616c-8045-4bb9-eb88bd1fa55c
f 26/73/19 25/74/19 27/75/19 28/76/19
f 31/77/20 29/78/20 30/79/20 32/80/20
f 29/81/21 25/82/21 26/83/21 30/84/21
f 28/85/22 27/86/22 31/87/22 32/88/22
f 27/89/23 25/90/23 29/91/23 31/92/23
f 30/93/24 26/94/24 28/95/24 32/96/24
o shelf
v -0.375 0.9375 1.5
v -0.375 0.9375 -1.5
v -0.375 0.875 -1.5
v -0.375 0.875 1.5
v 0.375 0.9375 1.5
v 0.375 0.9375 -1.5
v 0.375 0.875 -1.5
v 0.375 0.875 1.5
v 0.5 0.9375 1.375
v 0.5 0.875 1.375
v 0.375 0.875 1.375
v -0.375 0.875 1.375
v -0.5 0.875 1.375
v -0.5 0.9375 1.375
v -0.375 0.9375 1.375
v 0.375 0.9375 1.375
v 0.5 0.9375 -1.375
v 0.5 0.875 -1.375
v 0.375 0.875 -1.375
v -0.375 0.875 -1.375
v -0.5 0.875 -1.375
v -0.5 0.9375 -1.375
v -0.375 0.9375 -1.375
v 0.375 0.9375 -1.375
vt 0.109375 0.625
vt 0.109375 0.640625
vt 0.015625 0.640625
vt 0.015625 0.625
vt 0.6796875 0.90625
vt 0.5859375 0.90625
vt 0.5859375 0.8984375
vt 0.6796875 0.8984375
vt 0.1484375 1
vt 0.1484375 0.984375
vt 0.2421875 0.984375
vt 0.2421875 1
vt 0.5859375 0.8828125
vt 0.6796875 0.8828125
vt 0.6796875 0.890625
vt 0.5859375 0.890625
vt 0.5859375 0.9921875
vt 0.9296875 0.9921875
vt 0.9296875 1
vt 0.5859375 1
vt 0.2421875 0.984375
vt 0.2421875 0.640625
vt 0.2578125 0.640625
vt 0.2578125 0.984375
vt 0.1484375 0.984375
vt 0.1484375 0.640625
vt 0.2421875 0.640625
vt 0.2421875 0.984375
vt 0.1328125 0.984375
vt 0.1328125 0.640625
vt 0.1484375 0.640625
vt 0.1484375 0.984375
vt 0.9296875 0.984375
vt 0.5859375 0.984375
vt 0.5859375 0.9765625
vt 0.9296875 0.9765625
vt 0.015625 0.640625
vt 0.015625 0.984375
vt 0 0.984375
vt 0 0.640625
vt 0.109375 0.640625
vt 0.109375 0.984375
vt 0.015625 0.984375
vt 0.015625 0.640625
vt 0.125 0.640625
vt 0.125 0.984375
vt 0.109375 0.984375
vt 0.109375 0.640625
vt 0.2421875 0.625
vt 0.2421875 0.640625
vt 0.1484375 0.640625
vt 0.1484375 0.625
vt 0.015625 1
vt 0.015625 0.984375
vt 0.109375 0.984375
vt 0.109375 1
vn 0 1 0
vn 0 0 -1
vn 0 -1 0
vn 0 0 1
vn 1 0 0
vn 0 -1 0
vn 0 -1 0
vn 0 -1 0
vn -1 0 0
vn 0 1 0
vn 0 1 0
vn 0 1 0
vn 0 -1 0
vn 0 1 0
usemtl m_9f25a274-616c-8045-4bb9-eb88bd1fa55c
f 37/97/25 48/98/25 47/99/25 33/100/25
f 34/101/26 38/102/26 39/103/26 35/104/26
f 36/105/27 44/106/27 43/107/27 40/108/27
f 36/109/28 40/110/28 37/111/28 33/112/28
f 42/113/29 50/114/29 49/115/29 41/116/29
f 43/117/30 51/118/30 50/119/30 42/120/30
f 44/121/31 52/122/31 51/123/31 43/124/31
f 45/125/32 53/126/32 52/127/32 44/128/32
f 46/129/33 54/130/33 53/131/33 45/132/33
f 47/133/34 55/134/34 54/135/34 46/136/34
f 48/137/35 56/138/35 55/139/35 47/140/35
f 41/141/36 49/142/36 56/143/36 48/144/36
f 39/145/37 51/146/37 52/147/37 35/148/37
f 34/149/38 55/150/38 56/151/38 38/152/38
o shelf
v -0.375 1.875 1.5
v -0.375 1.875 -1.5
v -0.375 1.8125 -1.5
v -0.375 1.8125 1.5
v 0.375 1.875 1.5
v 0.375 1.875 -1.5
v 0.375 1.8125 -1.5
v 0.375 1.8125 1.5
v 0.5 1.875 1.375
v 0.5 1.8125 1.375
v 0.375 1.8125 1.375
v -0.375 1.8125 1.375
v -0.5 1.8125 1.375
v -0.5 1.875 1.375
v -0.375 1.875 1.375
v 0.375 1.875 1.375
v 0.5 1.875 -1.375
v 0.5 1.8125 -1.375
v 0.375 1.8125 -1.375
v -0.375 1.8125 -1.375
v -0.5 1.8125 -1.375
v -0.5 1.875 -1.375
v -0.375 1.875 -1.375
v 0.375 1.875 -1.375
vt 0.375 0.625
vt 0.375 0.640625
vt 0.28125 0.640625
vt 0.28125 0.625
vt 0.6796875 0.875
vt 0.5859375 0.875
vt 0.5859375 0.8671875
vt 0.6796875 0.8671875
vt 0.390625 0.625
vt 0.390625 0.609375
vt 0.484375 0.609375
vt 0.484375 0.625
vt 0.5859375 0.8515625
vt 0.6796875 0.8515625
vt 0.6796875 0.859375
vt 0.5859375 0.859375
vt 0.5859375 0.9609375
vt 0.9296875 0.9609375
vt 0.9296875 0.96875
vt 0.5859375 0.96875
vt 0.484375 0.609375
vt 0.484375 0.265625
vt 0.5 0.265625
vt 0.5 0.609375
vt 0.390625 0.609375
vt 0.390625 0.265625
vt 0.484375 0.265625
vt 0.484375 0.609375
vt 0.375 0.609375
vt 0.375 0.265625
vt 0.390625 0.265625
vt 0.390625 0.609375
vt 0.9296875 0.953125
vt 0.5859375 0.953125
vt 0.5859375 0.9453125
vt 0.9296875 0.9453125
vt 0.28125 0.640625
vt 0.28125 0.984375
vt 0.265625 0.984375
vt 0.265625 0.640625
vt 0.375 0.640625
vt 0.375 0.984375
vt 0.28125 0.984375
vt 0.28125 0.640625
vt 0.390625 0.640625
vt 0.390625 0.984375
vt 0.375 0.984375
vt 0.375 0.640625
vt 0.484375 0.25
vt 0.484375 0.265625
vt 0.390625 0.265625
vt 0.390625 0.25
vt 0.28125 1
vt 0.28125 0.984375
vt 0.375 0.984375
vt 0.375 1
vn 0 1 0
vn 0 0 -1
vn 0 -1 0
vn 0 0 1
vn 1 0 0
vn 0 -1 0
vn 0 -1 0
vn 0 -1 0
vn -1 0 0
vn 0 1 0
vn 0 1 0
vn 0 1 0
vn 0 -1 0
vn 0 1 0
usemtl m_9f25a274-616c-8045-4bb9-eb88bd1fa55c
f 61/153/39 72/154/39 71/155/39 57/156/39
f 58/157/40 62/158/40 63/159/40 59/160/40
f 60/161/41 68/162/41 67/163/41 64/164/41
f 60/165/42 64/166/42 61/167/42 57/168/42
f 66/169/43 74/170/43 73/171/43 65/172/43
f 67/173/44 75/174/44 74/175/44 66/176/44
f 68/177/45 76/178/45 75/179/45 67/180/45
f 69/181/46 77/182/46 76/183/46 68/184/46
f 70/185/47 78/186/47 77/187/47 69/188/47
f 71/189/48 79/190/48 78/191/48 70/192/48
f 72/193/49 80/194/49 79/195/49 71/196/49
f 65/197/50 73/198/50 80/199/50 72/200/50
f 63/201/51 75/202/51 76/203/51 59/204/51
f 58/205/52 79/206/52 80/207/52 62/208/52
o shelf
v -0.375 2.8125 1.5
v -0.375 2.8125 -1.5
v -0.375 2.75 -1.5
v -0.375 2.75 1.5
v 0.375 2.8125 1.5
v 0.375 2.8125 -1.5
v 0.375 2.75 -1.5
v 0.375 2.75 1.5
v 0.5 2.8125 1.375
v 0.5 2.75 1.375
v 0.375 2.75 1.375
v -0.375 2.75 1.375
v -0.5 2.75 1.375
v -0.5 2.8125 1.375
v -0.375 2.8125 1.375
v 0.375 2.8125 1.375
v 0.5 2.8125 -1.375
v 0.5 2.75 -1.375
v 0.375 2.75 -1.375
v -0.375 2.75 -1.375
v -0.5 2.75 -1.375
v -0.5 2.8125 -1.375
v -0.375 2.8125 -1.375
v 0.375 2.8125 -1.375
vt 0.109375 0.2421875
vt 0.109375 0.2578125
vt 0.015625 0.2578125
vt 0.015625 0.2421875
vt 0.6796875 0.84375
vt 0.5859375 0.84375
vt 0.5859375 0.8359375
vt 0.6796875 0.8359375
vt 0.1484375 0.6171875
vt 0.1484375 0.6015625
vt 0.2421875 0.6015625
vt 0.2421875 0.6171875
vt 0.5859375 0.8203125
vt 0.6796875 0.8203125
vt 0.6796875 0.828125
vt 0.5859375 0.828125
vt 0.5859375 0.9296875
vt 0.9296875 0.9296875
vt 0.9296875 0.9375
vt 0.5859375 0.9375
vt 0.2421875 0.6015625
vt 0.2421875 0.2578125
vt 0.2578125 0.2578125
vt 0.2578125 0.6015625
vt 0.1484375 0.6015625
vt 0.1484375 0.2578125
vt 0.2421875 0.2578125
vt 0.2421875 0.6015625
vt 0.1328125 0.6015625
vt 0.1328125 0.2578125
vt 0.1484375 0.2578125
vt 0.1484375 0.6015625
vt 0.9296875 0.921875
vt 0.5859375 0.921875
vt 0.5859375 0.9140625
vt 0.9296875 0.9140625
vt 0.015625 0.2578125
vt 0.015625 0.6015625
vt 0 0.6015625
vt 0 0.2578125
vt 0.109375 0.2578125
vt 0.109375 0.6015625
vt 0.015625 0.6015625
vt 0.015625 0.2578125
vt 0.125 0.2578125
vt 0.125 0.6015625
vt 0.109375 0.6015625
vt 0.109375 0.2578125
vt 0.2421875 0.2421875
vt 0.2421875 0.2578125
vt 0.1484375 0.2578125
vt 0.1484375 0.2421875
vt 0.015625 0.6171875
vt 0.015625 0.6015625
vt 0.109375 0.6015625
vt 0.109375 0.6171875
vn 0 1 0
vn 0 0 -1
vn 0 -1 0
vn 0 0 1
vn 1 0 0
vn 0 -1 0
vn 0 -1 0
vn 0 -1 0
vn -1 0 0
vn 0 1 0
vn 0 1 0
vn 0 1 0
vn 0 -1 0
vn 0 1 0
usemtl m_9f25a274-616c-8045-4bb9-eb88bd1fa55c
f 85/209/53 96/210/53 95/211/53 81/212/53
f 82/213/54 86/214/54 87/215/54 83/216/54
f 84/217/55 92/218/55 91/219/55 88/220/55
f 84/221/56 88/222/56 85/223/56 81/224/56
f 90/225/57 98/226/57 97/227/57 89/228/57
f 91/229/58 99/230/58 98/231/58 90/232/58
f 92/233/59 100/234/59 99/235/59 91/236/59
f 93/237/60 101/238/60 100/239/60 92/240/60
f 94/241/61 102/242/61 101/243/61 93/244/61
f 95/245/62 103/246/62 102/247/62 94/248/62
f 96/249/63 104/250/63 103/251/63 95/252/63
f 89/253/64 97/254/64 104/255/64 96/256/64
f 87/257/65 99/258/65 100/259/65 83/260/65
f 82/261/66 103/262/66 104/263/66 86/264/66