# Made in Blockbench 4.12.5
mtllib reactor.mtl

o body
v 1.0406081805497172 1.7559850051006112 -1.123940334154215
v 1.1609795471566655 1.8993791241735725 -1.2896173111801885
v 1.0306469824840698 1.6931918833494313 -1.185525278451916
v 1.1510183490910182 1.8365860024223926 -1.3512022554778897
v 1.2919287286730692 1.4999999999998839 -1.1629013689591843
v 1.4123000952800175 1.6433941190728452 -1.3285783459851581
v 1.2203190944115883 1.4999999999999123 -1.21492881231918
v 1.3406904610185366 1.6433941190728736 -1.3806057893451535
v 1.2513205481233522 1.2440149948992727 -1.4139610348049694
v 1.3716919147303006 1.387409113972234 -1.5796380118309432
v 1.1896716062918924 1.306808116650481 -1.4044039012330405
v 1.3100429728988405 1.4502022357234423 -1.570080878259014
v 0.9593918194502828 1.2440149948993888 -1.626059665845785
v 1.0797631860572312 1.3874091139723501 -1.791736642871759
v 0.9693530175159301 1.3068081166505687 -1.564474721548084
v 1.0897243841228785 1.45020223572353 -1.7301516985740577
v 0.7080712713269308 1.5000000000001161 -1.5870986310408157
v 0.8284426379338792 1.6433941190730774 -1.7527756080667893
v 0.7796809055884119 1.5000000000000877 -1.53507118768082
v 0.9000522721953602 1.643394119073049 -1.700748164706794
v 0.7486794518766479 1.7559850051007273 -1.3360389651950306
v 0.8690508184835962 1.8993791241736888 -1.5017159422210042
v 0.8103283937081077 1.693191883349519 -1.3455960987669595
v 0.9306997603150561 1.8365860024224803 -1.5112730757929334
vt 0.12890625 0.96875
vt 0.15234375 0.96875
vt 0.15234375 0.984375
vt 0.12890625 0.984375
vt 0.0859375 0.796875
vt 0.0703125 0.796875
vt 0.0703125 0.78125
vt 0.0859375 0.78125
vt 0.198776171875 0.66015625
vt 0.210052734375 0.6796875
vt 0.20452070312499998 0.6796875
vt 0.19601015625 0.664947265625
vt 0.1796875 0.78515625
vt 0.203125 0.78515625
vt 0.203125 0.80078125
vt 0.1796875 0.80078125
vt 0.22265625 1
vt 0.20703125 1
vt 0.20703125 0.984375
vt 0.22265625 0.984375
vt 0.210052734375 0.6796875
vt 0.1987765625 0.69921875
vt 0.19601015625 0.694427734375
vt 0.20452070312499998 0.6796875
vt 0.0234375 0.87890625
vt 0.046875 0.87890625
vt 0.046875 0.89453125
vt 0.0234375 0.89453125
vt 0.0546875 1
vt 0.0390625 1
vt 0.0390625 0.984375
vt 0.0546875 0.984375
vt 0.1987765625 0.69921875
vt 0.17622382812499998 0.69921875
vt 0.17898984375 0.694427734375
vt 0.19601015625 0.694427734375
vt 0 0.7734375
vt 0.0234375 0.7734375
vt 0.0234375 0.7890625
vt 0 0.7890625
vt 0.22265625 0.9453125
vt 0.20703125 0.9453125
vt 0.20703125 0.9296875
vt 0.22265625 0.9296875
vt 0.176223828125 0.69921875
vt 0.164947265625 0.6796875
vt 0.170479296875 0.6796875
vt 0.17898984375000002 0.694427734375
vt 0.2109375 0.91015625
vt 0.234375 0.91015625
vt 0.234375 0.92578125
vt 0.2109375 0.92578125
vt 0.22265625 0.76171875
vt 0.20703125 0.76171875
vt 0.20703125 0.74609375
vt 0.22265625 0.74609375
vt 0.164947265625 0.6796875
vt 0.1762234375 0.66015625
vt 0.17898984375 0.664947265625
vt 0.170479296875 0.6796875
vt 0.0234375 0.859375
vt 0.046875 0.859375
vt 0.046875 0.875
vt 0.0234375 0.875
vt 0.171875 0.98046875
vt 0.15625 0.98046875
vt 0.15625 0.96484375
vt 0.171875 0.96484375
vt 0.1762234375 0.66015625
vt 0.198776171875 0.66015625
vt 0.19601015625 0.664947265625
vt 0.17898984375 0.664947265625
vt 0.41476015625 0.799896484375
vt 0.423270703125 0.78515625
vt 0.428802734375 0.78515625
vt 0.41752617187499996 0.8046875
vt 0.423270703125 0.78515625
vt 0.41476015625 0.770416015625
vt 0.4175265625 0.765625
vt 0.428802734375 0.78515625
vt 0.41476015625 0.770416015625
vt 0.39773984375 0.770416015625
vt 0.394973828125 0.765625
vt 0.4175265625 0.765625
vt 0.39773984375 0.770416015625
vt 0.389229296875 0.78515625
vt 0.383697265625 0.78515625
vt 0.39497382812500004 0.765625
vt 0.389229296875 0.78515625
vt 0.39773984375 0.799896484375
vt 0.39497343749999997 0.8046875
vt 0.383697265625 0.78515625
vt 0.39773984375 0.799896484375
vt 0.41476015625 0.799896484375
vt 0.41752617187499996 0.8046875
vt 0.39497343749999997 0.8046875
vn 0.5320595220388569 0.40957586493712306 0.7410534905584013
vn -0.5320581689002963 -0.4095772431878575 -0.7410537003275124
vn 0.4814854664277934 0.5735764762918453 -0.662707908103895
vn 0.8691991922630554 -0.40957586493768117 0.2770205317838421
vn -0.869198973622491 0.4095772431884155 -0.27701918005038184
vn 0.4814854664277934 0.5735764762918453 -0.662707908103895
vn 0.3371397881178162 -0.8191520163221417 -0.4640331210412075
vn -0.3371397881178162 0.8191520163221417 0.4640331210412075
vn 0.4814854664277934 0.5735764762918453 -0.662707908103895
vn -0.5320595220388569 -0.40957586493712306 -0.7410534905584013
vn 0.5320581689002963 0.4095772431878575 0.7410537003275124
vn 0.4814854664277934 0.5735764762918453 -0.662707908103895
vn -0.8691991922630554 0.40957586493768117 -0.2770205317838421
vn 0.869198973622491 -0.4095772431884155 0.27701918005038184
vn 0.4814854664277934 0.5735764762918453 -0.662707908103895
vn -0.3371397881178162 0.8191520163221417 0.4640331210412075
vn 0.3371397881178162 -0.8191520163221417 -0.4640331210412075
vn 0.4814854664277934 0.5735764762918453 -0.662707908103895
vn -0.4814854664277934 -0.5735764762918453 0.662707908103895
vn -0.4814854664277934 -0.5735764762918453 0.662707908103895
vn -0.4814854664277934 -0.5735764762918453 0.662707908103895
vn -0.4814854664277934 -0.5735764762918453 0.662707908103895
vn -0.4814854664277934 -0.5735764762918453 0.662707908103895
vn -0.4814854664277934 -0.5735764762918453 0.662707908103895
usemtl m_45cf7b94-245c-f669-a7f3-8f2d1c043aeb
f 1/1/1 5/2/1 6/3/1 2/4/1
f 4/5/2 8/6/2 7/7/2 3/8/2
f 2/9/3 6/10/3 8/11/3 4/12/3
f 5/13/4 9/14/4 10/15/4 6/16/4
f 8/17/5 12/18/5 11/19/5 7/20/5
f 6/21/6 10/22/6 12/23/6 8/24/6
f 9/25/7 13/26/7 14/27/7 10/28/7
f 12/29/8 16/30/8 15/31/8 11/32/8
f 10/33/9 14/34/9 16/35/9 12/36/9
f 13/37/10 17/38/10 18/39/10 14/40/10
f 16/41/11 20/42/11 19/43/11 15/44/11
f 14/45/12 18/46/12 20/47/12 16/48/12
f 17/49/13 21/50/13 22/51/13 18/52/13
f 20/53/14 24/54/14 23/55/14 19/56/14
f 18/57/15 22/58/15 24/59/15 20/60/15
f 21/61/16 1/62/16 2/63/16 22/64/16
f 24/65/17 4/66/17 3/67/17 23/68/17
f 22/69/18 2/70/18 4/71/18 24/72/18
f 3/73/19 7/74/19 5/75/19 1/76/19
f 7/77/20 11/78/20 9/79/20 5/80/20
f 11/81/21 15/82/21 13/83/21 9/84/21
f 15/85/22 19/86/22 17/87/22 13/88/22
f 19/89/23 23/90/23 21/91/23 17/92/23
f 23/93/24 3/94/24 1/95/24 21/96/24
o bottom
v 1.0150464208258685 1.5179242648841202 -1.3957096221282468
v 1.3069751494989377 1.517924264884004 -1.183610991087431
v 1.0556546013755856 1.7739092699847312 -1.1446499562824615
v 0.7637258727025165 1.7739092699848475 -1.3567485873232772
v 0.7231176921527993 1.5179242648842364 -1.6078082531690625
v 0.9744382402761514 1.261939259783509 -1.6467692879740319
v 1.2663669689492207 1.261939259783393 -1.4346706569332162
vt 0.276458984375 0.98046875
vt 0.25390625 0.98046875
vt 0.265182421875 0.9609375
vt 0.2651828125 1
vt 0.25390625 0.98046875
vt 0.276458984375 0.98046875
vt 0.242630078125 1
vt 0.25390625 0.98046875
vt 0.2651828125 1
vt 0.231353515625 0.98046875
vt 0.25390625 0.98046875
vt 0.242630078125 1
vt 0.2426296875 0.9609375
vt 0.25390625 0.98046875
vt 0.231353515625 0.98046875
vt 0.265182421875 0.9609375
vt 0.25390625 0.98046875
vt 0.2426296875 0.9609375
vn 0.4814854664277934 0.5735764762918453 -0.662707908103895
vn 0.4814854664277934 0.5735764762918453 -0.662707908103895
vn 0.4814854664277934 0.5735764762918453 -0.662707908103895
vn 0.4814854664277934 0.5735764762918453 -0.662707908103895
vn 0.4814854664277934 0.5735764762918453 -0.662707908103895
vn 0.4814854664277934 0.5735764762918453 -0.662707908103895
usemtl m_45cf7b94-245c-f669-a7f3-8f2d1c043aeb
f 26/97/25 25/98/25 27/99/25
f 31/100/26 25/101/26 26/102/26
f 30/103/27 25/104/27 31/105/27
f 29/106/28 25/107/28 30/108/28
f 28/109/29 25/110/29 29/111/29
f 27/112/30 25/113/30 28/114/30
o body
v -1.0406081805497172 1.7559850051006112 -1.123940334154215
v -1.1609795471566655 1.8993791241735725 -1.2896173111801885
v -1.0306469824840698 1.6931918833494313 -1.185525278451916
v -1.1510183490910182 1.8365860024223926 -1.3512022554778897
v -1.2919287286730692 1.4999999999998839 -1.1629013689591843
v -1.4123000952800175 1.6433941190728452 -1.3285783459851581
v -1.2203190944115883 1.4999999999999123 -1.21492881231918
v -1.3406904610185366 1.6433941190728736 -1.3806057893451535
v -1.2513205481233522 1.2440149948992727 -1.4139610348049694
v -1.3716919147303006 1.387409113972234 -1.5796380118309432
v -1.1896716062918924 1.306808116650481 -1.4044039012330405
v -1.3100429728988405 1.4502022357234423 -1.570080878259014
v -0.9593918194502828 1.2440149948993888 -1.626059665845785
v -1.0797631860572312 1.3874091139723501 -1.791736642871759
v -0.9693530175159301 1.3068081166505687 -1.564474721548084
v -1.0897243841228785 1.45020223572353 -1.7301516985740577
v -0.7080712713269308 1.5000000000001161 -1.5870986310408157
v -0.8284426379338792 1.6433941190730774 -1.7527756080667893
v -0.7796809055884119 1.5000000000000877 -1.53507118768082
v -0.9000522721953602 1.643394119073049 -1.700748164706794
v -0.7486794518766479 1.7559850051007273 -1.3360389651950306
v -0.8690508184835962 1.8993791241736888 -1.5017159422210042
v -0.8103283937081077 1.693191883349519 -1.3455960987669595
v -0.9306997603150561 1.8365860024224803 -1.5112730757929334
vt 0.28125 1
vt 0.28125 0.984375
vt 0.3046875 0.984375
vt 0.3046875 1
vt 0.23046875 0.68359375
vt 0.23046875 0.69921875
vt 0.21484375 0.69921875
vt 0.21484375 0.68359375
vt 0.162666796875 0.72265625
vt 0.157134765625 0.72265625
vt 0.1684109375 0.703125
vt 0.17117734375 0.707916015625
vt 0.28125 0.98046875
vt 0.28125 0.96484375
vt 0.3046875 0.96484375
vt 0.3046875 0.98046875
vt 0.34375 0.93359375
vt 0.34375 0.94921875
vt 0.328125 0.94921875
vt 0.328125 0.93359375
vt 0.17117734375 0.737396484375
vt 0.168411328125 0.7421875
vt 0.157134765625 0.72265625
vt 0.162666796875 0.72265625
vt 0.21484375 0.90625
vt 0.21484375 0.890625
vt 0.23828125 0.890625
vt 0.23828125 0.90625
vt 0.08984375 0.7265625
vt 0.08984375 0.7421875
vt 0.07421875 0.7421875
vt 0.07421875 0.7265625
vt 0.18819765625 0.737396484375
vt 0.1909640625 0.7421875
vt 0.168411328125 0.7421875
vt 0.17117734375 0.737396484375
vt 0.30859375 1
vt 0.30859375 0.984375
vt 0.33203125 0.984375
vt 0.33203125 1
vt 0.1015625 0.64453125
vt 0.1015625 0.66015625
vt 0.0859375 0.66015625
vt 0.0859375 0.64453125
vt 0.196708203125 0.72265625
vt 0.202240234375 0.72265625
vt 0.1909640625 0.7421875
vt 0.18819765625 0.737396484375
vt 0.3125 0.9296875
vt 0.3125 0.9140625
vt 0.3359375 0.9140625
vt 0.3359375 0.9296875
vt 0.12109375 0.64453125
vt 0.12109375 0.66015625
vt 0.10546875 0.66015625
vt 0.10546875 0.64453125
vt 0.18819765625 0.707916015625
vt 0.190963671875 0.703125
vt 0.202240234375 0.72265625
vt 0.196708203125 0.72265625
vt 0.21484375 0.85546875
vt 0.21484375 0.83984375
vt 0.23828125 0.83984375
vt 0.23828125 0.85546875
vt 0.22265625 0.703125
vt 0.22265625 0.71875
vt 0.20703125 0.71875
vt 0.20703125 0.703125
vt 0.17117734375 0.707916015625
vt 0.1684109375 0.703125
vt 0.190963671875 0.703125
vt 0.18819765625 0.707916015625
vt 0.293853515625 0.890625
vt 0.299385546875 0.890625
vt 0.30789609375 0.905365234375
vt 0.3051296875 0.91015625
vt 0.305130078125 0.87109375
vt 0.30789609375 0.875884765625
vt 0.299385546875 0.890625
vt 0.293853515625 0.890625
vt 0.3276828125 0.87109375
vt 0.32491640625 0.875884765625
vt 0.30789609375 0.875884765625
vt 0.305130078125 0.87109375
vt 0.338958984375 0.890625
vt 0.333426953125 0.890625
vt 0.32491640625 0.875884765625
vt 0.3276828125 0.87109375
vt 0.327682421875 0.91015625
vt 0.32491640625 0.905365234375
vt 0.333426953125 0.890625
vt 0.338958984375 0.890625
vt 0.3051296875 0.91015625
vt 0.30789609375 0.905365234375
vt 0.32491640625 0.905365234375
vt 0.327682421875 0.91015625
vn -0.5320595220388569 0.40957586493712306 0.7410534905584013
vn 0.5320581689002963 -0.4095772431878575 -0.7410537003275124
vn -0.4814854664277934 0.5735764762918453 -0.662707908103895
vn -0.8691991922630554 -0.40957586493768117 0.2770205317838421
vn 0.869198973622491 0.4095772431884155 -0.27701918005038184
vn -0.4814854664277934 0.5735764762918453 -0.662707908103895
vn -0.3371397881178162 -0.8191520163221417 -0.4640331210412075
vn 0.3371397881178162 0.8191520163221417 0.4640331210412075
vn -0.4814854664277934 0.5735764762918453 -0.662707908103895
vn 0.5320595220388569 -0.40957586493712306 -0.7410534905584013
vn -0.5320581689002963 0.4095772431878575 0.7410537003275124
vn -0.4814854664277934 0.5735764762918453 -0.662707908103895
vn 0.8691991922630554 0.40957586493768117 -0.2770205317838421
vn -0.869198973622491 -0.4095772431884155 0.27701918005038184
vn -0.4814854664277934 0.5735764762918453 -0.662707908103895
vn 0.3371397881178162 0.8191520163221417 0.4640331210412075
vn -0.3371397881178162 -0.8191520163221417 -0.4640331210412075
vn -0.4814854664277934 0.5735764762918453 -0.662707908103895
vn 0.4814854664277934 -0.5735764762918453 0.662707908103895
vn 0.4814854664277934 -0.5735764762918453 0.662707908103895
vn 0.4814854664277934 -0.5735764762918453 0.662707908103895
vn 0.4814854664277934 -0.5735764762918453 0.662707908103895
vn 0.4814854664277934 -0.5735764762918453 0.662707908103895
vn 0.4814854664277934 -0.5735764762918453 0.662707908103895
usemtl m_45cf7b94-245c-f669-a7f3-8f2d1c043aeb
f 37/115/31 36/116/31 32/117/31 33/118/31
f 38/119/32 39/120/32 35/121/32 34/122/32
f 39/123/33 37/124/33 33/125/33 35/126/33
f 41/127/34 40/128/34 36/129/34 37/130/34
f 42/131/35 43/132/35 39/133/35 38/134/35
f 43/135/36 41/136/36 37/137/36 39/138/36
f 45/139/37 44/140/37 40/141/37 41/142/37
f 46/143/38 47/144/38 43/145/38 42/146/38
f 47/147/39 45/148/39 41/149/39 43/150/39
f 49/151/40 48/152/40 44/153/40 45/154/40
f 50/155/41 51/156/41 47/157/41 46/158/41
f 51/159/42 49/160/42 45/161/42 47/162/42
f 53/163/43 52/164/43 48/165/43 49/166/43
f 54/167/44 55/168/44 51/169/44 50/170/44
f 55/171/45 53/172/45 49/173/45 51/174/45
f 33/175/46 32/176/46 52/177/46 53/178/46
f 34/179/47 35/180/47 55/181/47 54/182/47
f 35/183/48 33/184/48 53/185/48 55/186/48
f 36/187/49 38/188/49 34/189/49 32/190/49
f 40/191/50 42/192/50 38/193/50 36/194/50
f 44/195/51 46/196/51 42/197/51 40/198/51
f 48/199/52 50/200/52 46/201/52 44/202/52
f 52/203/53 54/204/53 50/205/53 48/206/53
f 32/207/54 34/208/54 54/209/54 52/210/54
o bottom
v -1.0150464208258685 1.5179242648841202 -1.3957096221282468
v -1.3069751494989377 1.517924264884004 -1.183610991087431
v -1.0556546013755856 1.7739092699847312 -1.1446499562824615
v -0.7637258727025165 1.7739092699848475 -1.3567485873232772
v -0.7231176921527993 1.5179242648842364 -1.6078082531690625
v -0.9744382402761514 1.261939259783509 -1.6467692879740319
v -1.2663669689492207 1.261939259783393 -1.4346706569332162
vt 0.31640625 0.84765625
vt 0.293853515625 0.84765625
vt 0.3051296875 0.828125
vt 0.31640625 0.84765625
vt 0.305130078125 0.8671875
vt 0.293853515625 0.84765625
vt 0.31640625 0.84765625
vt 0.3276828125 0.8671875
vt 0.305130078125 0.8671875
vt 0.31640625 0.84765625
vt 0.338958984375 0.84765625
vt 0.3276828125 0.8671875
vt 0.31640625 0.84765625
vt 0.327682421875 0.828125
vt 0.338958984375 0.84765625
vt 0.31640625 0.84765625
vt 0.3051296875 0.828125
vt 0.327682421875 0.828125
vn -0.4814854664277934 0.5735764762918453 -0.662707908103895
vn -0.4814854664277934 0.5735764762918453 -0.662707908103895
vn -0.4814854664277934 0.5735764762918453 -0.662707908103895
vn -0.4814854664277934 0.5735764762918453 -0.662707908103895
vn -0.4814854664277934 0.5735764762918453 -0.662707908103895
vn -0.4814854664277934 0.5735764762918453 -0.662707908103895
usemtl m_45cf7b94-245c-f669-a7f3-8f2d1c043aeb
f 56/211/55 57/212/55 58/213/55
f 56/214/56 62/215/56 57/216/56
f 56/217/57 61/218/57 62/219/57
f 56/220/58 60/221/58 61/222/58
f 56/223/59 59/224/59 60/225/59
f 56/226/60 58/227/60 59/228/60
o body
v 0 2.61875 0
v -0.38196625 2.23678375 1.175570625
v -0.61803375 1.23678375 1.902113125
v -0.61803375 0.0007162499999999739 1.902113125
v -1 2.23678375 0.7265425
v -1.61803375 1.23678375 1.175570625
v -1.61803375 0.0007162499999999739 1.175570625
v -1.236068125 2.23678375 0
v -2 1.23678375 0
v -2 0.0007162499999999739 0
v -1 2.23678375 -0.7265425
v -1.61803375 1.23678375 -1.175570625
v -1.61803375 0.0007162499999999739 -1.175570625
v -0.38196625 2.23678375 -1.175570625
v -0.61803375 1.23678375 -1.902113125
v -0.61803375 0.0007162499999999739 -1.902113125
v 0.38196625 2.23678375 1.175570625
v 0.61803375 1.23678375 1.902113125
v 0.61803375 0.0007162499999999739 1.902113125
v 1 2.23678375 0.7265425
v 1.61803375 1.23678375 1.175570625
v 1.61803375 0.0007162499999999739 1.175570625
v 1.236068125 2.23678375 0
v 2 1.23678375 0
v 2 0.0007162499999999739 0
v 1 2.23678375 -0.7265425
v 1.61803375 1.23678375 -1.175570625
v 1.61803375 0.0007162499999999739 -1.175570625
v 0.38196625 2.23678375 -1.175570625
v 0.61803375 1.23678375 -1.902113125
v 0.61803375 0.0007162499999999739 -1.902113125
vt 0.33159589843750004 0.806640625
vt 0.2838501171875 0.806640625
vt 0.3077230078125 0.7331674848104274
vt 0.400931640625 0.53125
vt 0.386177734375 0.45399609375000005
vt 0.463431640625 0.45399609375000005
vt 0.448677734375 0.53125
vt 0.386177734375 0.45399609375000005
vt 0.386177734375 0.3767421875
vt 0.463431640625 0.3767421875
vt 0.463431640625 0.45399609375000005
vt 0.2838501171875 0.6596942968750736
vt 0.33159589843750004 0.6596942968750736
vt 0.3077230078125 0.7331674848104274
vt 0.092337890625 0.52734375
vt 0.077583984375 0.45008984375000005
vt 0.154837890625 0.45008984375000005
vt 0.140083984375 0.52734375
vt 0.077583984375 0.45008984375000005
vt 0.077583984375 0.3728359375
vt 0.154837890625 0.3728359375
vt 0.154837890625 0.45008984375000005
vt 0.24522300781250003 0.6877585546875595
vt 0.2838501171875 0.6596942968750736
vt 0.3077230078125 0.7331674848104274
vt 0 0.6796875
vt 0.07725390625 0.6796875
vt 0.0625 0.7578125
vt 0.01475390625 0.7578125
vt 0.000330078124999994 0.3728359375
vt 0.077583984375 0.3728359375
vt 0.077583984375 0.45008984375000005
vt 0.000330078124999994 0.45008984375000005
vt 0.23046875 0.7331674609375368
vt 0.24522300781250003 0.6877585546875595
vt 0.3077230078125 0.7331674848104274
vt 0.05078125 0.87977734375
vt 0.12803515625 0.87977734375
vt 0.11328125 0.95703125
vt 0.06553515625 0.95703125
vt 0.05078125 0.8025234375
vt 0.12803515625 0.8025234375
vt 0.12803515625 0.87977734375
vt 0.05078125 0.87977734375
vt 0.24522300781250003 0.778576367187514
vt 0.23046875 0.7331674609375368
vt 0.3077230078125 0.7331674848104274
vt 0.13368359375 0.88368359375
vt 0.2109375 0.88368359375
vt 0.19618359375 0.9609375
vt 0.1484375 0.9609375
vt 0.13368359375 0.8064296875
vt 0.2109375 0.8064296875
vt 0.2109375 0.88368359375
vt 0.13368359375 0.88368359375
vt 0.2838501171875 0.806640625
vt 0.24522300781250003 0.778576367187514
vt 0.3077230078125 0.7331674848104274
vt 0.36191603620513074 0.5832507984709446
vt 0.42570156257485464 0.6268348856659409
vt 0.3699357525149927 0.6822967483184428
vt 0.330513671875 0.6553599885578907
vt 0.463431640625 0.3767421875
vt 0.540685546875 0.3767421875
vt 0.540685546875 0.45399609375000005
vt 0.463431640625 0.45399609375000005
vt 0.33159589843750004 0.6596942968750736
vt 0.3702230078125 0.6877585546875595
vt 0.3077230078125 0.7331674848104274
vt 0.09765625 0.7421875
vt 0.08290234375 0.6640625
vt 0.16015625 0.6640625
vt 0.14540234375 0.7421875
vt 0.154837890625 0.45008984375000005
vt 0.154837890625 0.3728359375
vt 0.232091796875 0.3728359375
vt 0.232091796875 0.45008984375000005
vt 0.3702230078125 0.6877585546875595
vt 0.384977265625 0.7331674609375368
vt 0.3077230078125 0.7331674848104274
vt 0.36328125 0.96484375
vt 0.34852734375 0.88758984375
vt 0.42578125 0.88758984375
vt 0.41102734375 0.96484375
vt 0.34852734375 0.88758984375
vt 0.34852734375 0.8103359375
vt 0.42578125 0.8103359375
vt 0.42578125 0.88758984375
vt 0.384977265625 0.7331674609375368
vt 0.3702230078125 0.778576367187514
vt 0.3077230078125 0.7331674848104274
vt 0.28037890625 0.62890625
vt 0.265625 0.55165234375
vt 0.34287890625 0.55165234375
vt 0.328125 0.62890625
vt 0.265625 0.55165234375
vt 0.265625 0.4743984375
vt 0.34287890625 0.4743984375
vt 0.34287890625 0.55165234375
vt 0.3702230078125 0.778576367187514
vt 0.33159589843750004 0.806640625
vt 0.3077230078125 0.7331674848104274
vt 0.24334549748500733 0.6822967483184428
vt 0.18757968742514536 0.6268348856659409
vt 0.25136521379486926 0.5832507984709446
vt 0.282767578125 0.6553599885578907
vt 0.30892382812499997 0.45399609375000005
vt 0.30892382812499997 0.3767421875
vt 0.386177734375 0.3767421875
vt 0.386177734375 0.45399609375000005
vn 0 0.9510564688315633 -0.3090171404528198
vn 0 0.5877852374633964 -0.8090170051489022
vn 0 0 -1
vn 0 0.9510564688315633 0.3090171404528198
vn 0 0.5877852374633964 0.8090170051489022
vn 0 0 1
vn -0.18163580488185033 0.9510564678374736 0.2500000587388558
vn -0.47552831376194904 0.5877850939709479 0.6545085989628259
vn -0.5877852374633964 0 0.8090170051489022
vn -0.29389275880455185 0.9510564646133517 0.09549160926176765
vn -0.7694208989262598 0.5877851755448469 0.2500001354104034
vn -0.9510564688315633 0 0.3090171404528198
vn -0.29389275880455185 0.9510564646133517 -0.09549160926176765
vn -0.7694209104876516 0.5877851588130388 -0.25000013916692926
vn -0.9510564688315633 0 -0.3090171404528198
vn -0.18163580488185033 0.9510564678374736 -0.2500000587388558
vn -0.4755282517101835 0.587785239273929 -0.6545085135558943
vn -0.5877852374633964 0 -0.8090170051489022
vn 0.18163580488185033 0.9510564678374736 0.2500000587388558
vn 0.47552831376194915 0.587785093970948 0.6545085989628259
vn 0.5877852374633964 0 0.8090170051489022
vn 0.29389275880455185 0.9510564646133517 0.09549160926176765
vn 0.7694208989262598 0.5877851755448469 0.2500001354104034
vn 0.9510564688315633 0 0.3090171404528198
vn 0.29389275880455185 0.9510564646133517 -0.09549160926176765
vn 0.7694209104876516 0.5877851588130388 -0.25000013916692926
vn 0.9510564688315633 0 -0.3090171404528198
vn 0.18163580488185033 0.9510564678374736 -0.2500000587388558
vn 0.4755282517101836 0.5877852392739291 -0.6545085135558943
vn 0.5877852374633964 0 -0.8090170051489022
usemtl m_45cf7b94-245c-f669-a7f3-8f2d1c043aeb
f 91/229/61 76/230/61 63/231/61
f 91/232/62 92/233/62 77/234/62 76/235/62
f 92/236/63 93/237/63 78/238/63 77/239/63
f 64/240/64 79/241/64 63/242/64
f 64/243/65 65/244/65 80/245/65 79/246/65
f 65/247/66 66/248/66 81/249/66 80/250/66
f 67/251/67 64/252/67 63/253/67
f 68/254/68 65/255/68 64/256/68 67/257/68
f 69/258/69 66/259/69 65/260/69 68/261/69
f 70/262/70 67/263/70 63/264/70
f 71/265/71 68/266/71 67/267/71 70/268/71
f 72/269/72 69/270/72 68/271/72 71/272/72
f 73/273/73 70/274/73 63/275/73
f 74/276/74 71/277/74 70/278/74 73/279/74
f 75/280/75 72/281/75 71/282/75 74/283/75
f 76/284/76 73/285/76 63/286/76
f 77/287/77 74/288/77 73/289/77 76/290/77
f 78/291/78 75/292/78 74/293/78 77/294/78
f 79/295/79 82/296/79 63/297/79
f 79/298/80 80/299/80 83/300/80 82/301/80
f 80/302/81 81/303/81 84/304/81 83/305/81
f 82/306/82 85/307/82 63/308/82
f 82/309/83 83/310/83 86/311/83 85/312/83
f 83/313/84 84/314/84 87/315/84 86/316/84
f 85/317/85 88/318/85 63/319/85
f 85/320/86 86/321/86 89/322/86 88/323/86
f 86/324/87 87/325/87 90/326/87 89/327/87
f 88/328/88 91/329/88 63/330/88
f 88/331/89 89/332/89 92/333/89 91/334/89
f 89/335/90 90/336/90 93/337/90 92/338/90
o cage
v 0.25 0 2
v 0.25 0 1.790424375
v 0.25 0 -2
v 0.25 0 -1.790424375
v 0.25 1.243589375 -2
v 0.25 1.199284375 -1.790424375
v 0.25 2.295051875 -1.236068125
v 0.25 2.12567875 -1.106543125
v 0.25 2.696674375 0
v 0.25 2.47953 0
v 0.25 2.295051875 1.236068125
v 0.25 2.12567875 1.106543125
v 0.25 1.243589375 2
v 0.25 1.199284375 1.790424375
v -0.25 0 2
v -0.25 0 1.790424375
v -0.25 0 -2
v -0.25 0 -1.790424375
v -0.25 1.243589375 -2
v -0.25 1.199284375 -1.790424375
v -0.25 2.295051875 -1.236068125
v -0.25 2.12567875 -1.106543125
v -0.25 2.696674375 0
v -0.25 2.47953 0
v -0.25 2.295051875 1.236068125
v -0.25 2.12567875 1.106543125
v -0.25 1.243589375 2
v -0.25 1.199284375 1.790424375
vt 0.578125 0.40745234374999995
vt 0.578125 0.48517656249999996
vt 0.546875 0.48517656249999996
vt 0.546875 0.40745234374999995
vt 0.6181640625 0.46427031249999995
vt 0.6181640625 0.54199453125
vt 0.605065625 0.539225390625
vt 0.605065625 0.46427031249999995
vt 0.578125 0.48517656249999996
vt 0.578125 0.56640625
vt 0.546875 0.56640625
vt 0.546875 0.48517656249999996
vt 0.6181640625 0.54199453125
vt 0.5704183593750001 0.6077109374999999
vt 0.562323046875 0.5971253906249999
vt 0.605065625 0.539225390625
vt 0.5439453125 0.634415625
vt 0.5439453125 0.7156453125
vt 0.5126953125 0.7156453125
vt 0.5126953125 0.634415625
vt 0.5704183593750001 0.6077109374999999
vt 0.4931640625000001 0.6328125
vt 0.49316406250000006 0.619241015625
vt 0.562323046875 0.5971253906249999
vt 0.5439453125 0.7156453125
vt 0.5439453125 0.796875
vt 0.5126953125 0.796875
vt 0.5126953125 0.7156453125
vt 0.4931640625000001 0.6328125
vt 0.41590976562500004 0.6077109375
vt 0.42400507812500005 0.597125390625
vt 0.4931640625000001 0.619241015625
vt 0.55078125 0.7890625
vt 0.55078125 0.7078328125
vt 0.58203125 0.7078328125
vt 0.58203125 0.7890625
vt 0.41590976562500004 0.6077109375
vt 0.3681640625 0.5419945312500001
vt 0.38126250000000006 0.5392253906250001
vt 0.42400507812500005 0.597125390625
vt 0.55078125 0.7078328125
vt 0.55078125 0.63010859375
vt 0.58203125 0.63010859375
vt 0.58203125 0.7078328125
vt 0.3681640625 0.5419945312500001
vt 0.36816406249999994 0.46427031250000006
vt 0.38126249999999995 0.46427031250000006
vt 0.38126250000000006 0.5392253906250001
vt 0.2875124999999999 0.906412890625
vt 0.2744140624999999 0.90918203125
vt 0.2744140624999999 0.8314578125
vt 0.2875124999999999 0.8314578125
vt 0.3302550781249999 0.9643128906249999
vt 0.32215976562499987 0.9748984374999999
vt 0.2744140624999999 0.90918203125
vt 0.2875124999999999 0.906412890625
vt 0.3994140624999999 0.986428515625
vt 0.3994140624999999 1
vt 0.32215976562499987 0.9748984374999999
vt 0.3302550781249999 0.9643128906249999
vt 0.4685730468749999 0.964312890625
vt 0.4766683593749999 0.9748984375
vt 0.3994140624999999 1
vt 0.3994140624999999 0.986428515625
vt 0.5113156249999999 0.9064132812500001
vt 0.5244140625 0.9091820312500001
vt 0.4766683593749999 0.9748984375
vt 0.4685730468749999 0.964312890625
vt 0.5113156250000002 0.8314578125000001
vt 0.5244140625000001 0.8314578125000002
vt 0.5244140625 0.9091820312500001
vt 0.5113156249999999 0.9064132812500001
vn 0 0 -1
vn 1 0 0
vn 0 0.5877850771163957 -0.8090171216477887
vn 1 0 0
vn 0 0.9510566021551715 -0.3090167301248591
vn 1 0 0
vn 0 0.9510566021551715 0.3090167301248591
vn 1 0 0
vn 0 0.5877850771163957 0.8090171216477887
vn 1 0 0
vn 0 0 1
vn 1 0 0
vn -1 0 0
vn -1 0 0
vn -1 0 0
vn -1 0 0
vn -1 0 0
vn -1 0 0
usemtl m_45cf7b94-245c-f669-a7f3-8f2d1c043aeb
f 110/339/91 112/340/91 98/341/91 96/342/91
f 96/343/92 98/344/92 99/345/92 97/346/92
f 112/347/93 114/348/93 100/349/93 98/350/93
f 98/351/94 100/352/94 101/353/94 99/354/94
f 114/355/95 116/356/95 102/357/95 100/358/95
f 100/359/96 102/360/96 103/361/96 101/362/96
f 116/363/97 118/364/97 104/365/97 102/366/97
f 102/367/98 104/368/98 105/369/98 103/370/98
f 118/371/99 120/372/99 106/373/99 104/374/99
f 104/375/100 106/376/100 107/377/100 105/378/100
f 120/379/101 108/380/101 94/381/101 106/382/101
f 106/383/102 94/384/102 95/385/102 107/386/102
f 113/387/103 112/388/103 110/389/103 111/390/103
f 115/391/104 114/392/104 112/393/104 113/394/104
f 117/395/105 116/396/105 114/397/105 115/398/105
f 119/399/106 118/400/106 116/401/106 117/402/106
f 121/403/107 120/404/107 118/405/107 119/406/107
f 109/407/108 108/408/108 120/409/108 121/410/108
o cage
v -2 0 -0.24999999999999956
v -2 0 0.25000000000000044
v -1.790424375 0 -0.2499999999999996
v -1.790424375 0 0.2500000000000004
v 2 0 -0.25000000000000044
v 2 0 0.24999999999999956
v 1.790424375 0 -0.2500000000000004
v 1.790424375 0 0.2499999999999996
v 2 1.243589375 -0.25000000000000044
v 2 1.243589375 0.24999999999999956
v 1.790424375 1.199284375 -0.2500000000000004
v 1.790424375 1.199284375 0.2499999999999996
v 1.236068125 2.295051875 -0.2500000000000003
v 1.236068125 2.295051875 0.24999999999999972
v 1.106543125 2.12567875 -0.2500000000000002
v 1.106543125 2.12567875 0.24999999999999975
v -5.551115123125783e-17 2.696674375 -0.25
v 5.551115123125783e-17 2.696674375 0.25
v -5.551115123125783e-17 2.47953 -0.25
v 5.551115123125783e-17 2.47953 0.25
v -1.236068125 2.295051875 -0.24999999999999972
v -1.236068125 2.295051875 0.2500000000000003
v -1.106543125 2.12567875 -0.24999999999999975
v -1.106543125 2.12567875 0.2500000000000002
v -2 1.243589375 -0.24999999999999956
v -2 1.243589375 0.25000000000000044
v -1.790424375 1.199284375 -0.2499999999999996
v -1.790424375 1.199284375 0.2500000000000004
vt 0.61328125 0.29807734374999995
vt 0.61328125 0.37580156249999996
vt 0.58203125 0.37580156249999996
vt 0.58203125 0.29807734374999995
vt 0.4232546875 0.6556765625
vt 0.4232546875 0.730631640625
vt 0.41015625 0.73340078125
vt 0.41015625 0.6556765625
vt 0.25097656250000006 0.46036406249999995
vt 0.25097656250000006 0.53808828125
vt 0.23787812500000005 0.535319140625
vt 0.23787812500000005 0.46036406249999995
vt 0.61328125 0.37580156249999996
vt 0.61328125 0.45703125
vt 0.58203125 0.45703125
vt 0.58203125 0.37580156249999996
vt 0.4232546875 0.730631640625
vt 0.465997265625 0.7885316406249999
vt 0.457901953125 0.7991171874999999
vt 0.41015625 0.73340078125
vt 0.25097656250000006 0.53808828125
vt 0.20323085937500007 0.6038046874999999
vt 0.19513554687500007 0.5932191406249999
vt 0.23787812500000005 0.535319140625
vt 0.2900390625 0.30629062500000004
vt 0.2900390625 0.38752031249999996
vt 0.2587890625 0.38752031249999996
vt 0.2587890625 0.30629062500000004
vt 0.465997265625 0.7885316406249999
vt 0.53515625 0.810647265625
vt 0.53515625 0.82421875
vt 0.457901953125 0.7991171874999999
vt 0.20323085937500007 0.6038046874999999
vt 0.12597656250000008 0.62890625
vt 0.12597656250000006 0.615334765625
vt 0.19513554687500004 0.5932191406249999
vt 0.2900390625 0.38752031249999996
vt 0.2900390625 0.46875
vt 0.2587890625 0.46875
vt 0.2587890625 0.38752031249999996
vt 0.53515625 0.810647265625
vt 0.604315234375 0.788531640625
vt 0.612410546875 0.7991171875
vt 0.53515625 0.82421875
vt 0.12597656250000008 0.62890625
vt 0.04872226562500005 0.6038046875
vt 0.05681757812500006 0.593219140625
vt 0.12597656250000008 0.615334765625
vt 0.5859375 0.76171875
vt 0.5859375 0.6804890625
vt 0.6171875 0.6804890625
vt 0.6171875 0.76171875
vt 0.604315234375 0.788531640625
vt 0.6470578124999999 0.73063203125
vt 0.66015625 0.73340078125
vt 0.612410546875 0.7991171875
vt 0.04872226562500005 0.6038046875
vt 0.0009765625000000278 0.5380882812500001
vt 0.014075000000000032 0.5353191406250001
vt 0.05681757812500006 0.593219140625
vt 0.5859375 0.6804890625
vt 0.5859375 0.60276484375
vt 0.6171875 0.60276484375
vt 0.6171875 0.6804890625
vt 0.6470578124999999 0.73063203125
vt 0.6470578124999999 0.6556765625
vt 0.66015625 0.6556765625
vt 0.66015625 0.73340078125
vt 0.0009765625000000278 0.5380882812500001
vt 0.0009765624999999445 0.46036406250000006
vt 0.014074999999999949 0.46036406250000006
vt 0.014075000000000032 0.5353191406250001
vn 1 0 -2.220446049250313e-16
vn -2.220446049250313e-16 0 -1
vn 2.220446049250313e-16 0 1
vn 0.8090171216477887 0.5877850771163957 -1.7963788715386924e-16
vn -2.220446049250313e-16 0 -1
vn 2.220446049250313e-16 0 1
vn 0.3090167301248591 0.9510566021551715 -6.861549775579936e-17
vn -2.220446049250313e-16 0 -1
vn 2.220446049250313e-16 0 1
vn -0.3090167301248591 0.9510566021551715 6.861549775579936e-17
vn -2.220446049250313e-16 0 -1
vn 2.220446049250313e-16 0 1
vn -0.8090171216477887 0.5877850771163957 1.7963788715386924e-16
vn -2.220446049250313e-16 0 -1
vn 2.220446049250313e-16 0 1
vn -1 0 2.220446049250313e-16
vn -2.220446049250313e-16 0 -1
vn 2.220446049250313e-16 0 1
usemtl m_45cf7b94-245c-f669-a7f3-8f2d1c043aeb
f 126/411/109 130/412/109 131/413/109 127/414/109
f 128/415/110 132/416/110 130/417/110 126/418/110
f 127/419/111 131/420/111 133/421/111 129/422/111
f 130/423/112 134/424/112 135/425/112 131/426/112
f 132/427/113 136/428/113 134/429/113 130/430/113
f 131/431/114 135/432/114 137/433/114 133/434/114
f 134/435/115 138/436/115 139/437/115 135/438/115
f 136/439/116 140/440/116 138/441/116 134/442/116
f 135/443/117 139/444/117 141/445/117 137/446/117
f 138/447/118 142/448/118 143/449/118 139/450/118
f 140/451/119 144/452/119 142/453/119 138/454/119
f 139/455/120 143/456/120 145/457/120 141/458/120
f 142/459/121 146/460/121 147/461/121 143/462/121
f 144/463/122 148/464/122 146/465/122 142/466/122
f 143/467/123 147/468/123 149/469/123 145/470/123
f 146/471/124 122/472/124 123/473/124 147/474/124
f 148/475/125 124/476/125 122/477/125 146/478/125
f 147/479/126 123/480/126 125/481/126 149/482/126
o cage_b
v 0.65949625 0 2.03125
v 0.65949625 0.5 2.03125
v 0.610998125 0.5 1.88187625
v 1.726583125 0 1.25538125
v 1.726583125 0.5 1.25538125
v 1.599614375 0.5 1.16306375
v 2.134174375 0 0
v 2.134174375 0.5 0
v 1.977231875 0.5 0
v 1.726583125 0 -1.25538125
v 1.726583125 0.5 -1.25538125
v 1.599614375 0.5 -1.16306375
v 0.65949625 0 -2.03125
v 0.65949625 0.5 -2.03125
v 0.610998125 0.5 -1.88187625
v -0.65949625 0 2.03125
v -0.65949625 0.5 2.03125
v -0.610998125 0.5 1.88187625
v -1.726583125 0 1.25538125
v -1.726583125 0.5 1.25538125
v -1.599614375 0.5 1.16306375
v -2.134174375 0 0
v -2.134174375 0.5 0
v -1.977231875 0.5 0
v -1.726583125 0 -1.25538125
v -1.726583125 0.5 -1.25538125
v -1.599614375 0.5 -1.16306375
v -0.65949625 0 -2.03125
v -0.65949625 0.5 -2.03125
v -0.610998125 0.5 -1.88187625
vt 0.4927890625 0.96875
vt 0.57524765625 0.96875
vt 0.57524765625 1
vt 0.4927890625 1
vt 0.175007421875 0.74609375
vt 0.24170039062499998 0.794585546875
vt 0.23376484375 0.80035546875
vt 0.17197656249999999 0.7554296875
vt 0.57524765625 0.96875
vt 0.657741015625 0.96875
vt 0.657741015625 1
vt 0.57524765625 1
vt 0.24170039062499998 0.794585546875
vt 0.267175 0.873046875
vt 0.257366015625 0.873046875
vt 0.23376484375 0.80035546875
vt 0.657741015625 0.96875
vt 0.740234375 0.96875
vt 0.740234375 1
vt 0.657741015625 1
vt 0.267175 0.873046875
vt 0.24170039062499998 0.951508203125
vt 0.23376484375 0.94573828125
vt 0.257366015625 0.873046875
vt 0.078125 0.5625
vt 0.16015625 0.5625
vt 0.16015625 0.59375
vt 0.078125 0.59375
vt 0.24170039062499998 0.951508203125
vt 0.175007421875 1
vt 0.17197656249999999 0.9906640625
vt 0.23376484375 0.94573828125
vt 0.09375 0.765625
vt 0.17578125 0.765625
vt 0.17578125 0.796875
vt 0.09375 0.796875
vt 0.175007421875 1
vt 0.092570703125 1
vt 0.0956015625 0.9906640625
vt 0.17197656249999999 0.9906640625
vt 0 0.62890625
vt 0.08203125 0.62890625
vt 0.08203125 0.66015625
vt 0 0.66015625
vt 0.092570703125 0.74609375
vt 0.175007421875 0.74609375
vt 0.17197656249999999 0.7554296875
vt 0.0956015625 0.7554296875
vt 0.68451796875 0.9296875
vt 0.7669765625 0.9296875
vt 0.7669765625 0.9609375
vt 0.68451796875 0.9609375
vt 0.025877734375000003 0.794585546875
vt 0.092570703125 0.74609375
vt 0.0956015625 0.7554296875
vt 0.033813281249999994 0.80035546875
vt 0.602024609375 0.9296875
vt 0.68451796875 0.9296875
vt 0.68451796875 0.9609375
vt 0.602024609375 0.9609375
vt 0.0004031250000000042 0.873046875
vt 0.025877734375000003 0.794585546875
vt 0.033813281249999994 0.80035546875
vt 0.010212109375 0.873046875
vt 0.51953125 0.9296875
vt 0.602024609375 0.9296875
vt 0.602024609375 0.9609375
vt 0.51953125 0.9609375
vt 0.025877734375000003 0.951508203125
vt 0.0004031250000000042 0.873046875
vt 0.010212109375 0.873046875
vt 0.033813281249999994 0.94573828125
vt 0.41796875 0.546875
vt 0.5 0.546875
vt 0.5 0.578125
vt 0.41796875 0.578125
vt 0.092570703125 1
vt 0.025877734375000003 0.951508203125
vt 0.033813281249999994 0.94573828125
vt 0.0956015625 0.9906640625
vn 0.5880753048999485 0 0.8088061793574729
vn 0 1 0
vn 0.9511248163398799 0 0.30880670935462207
vn 0 1 0
vn 0.9511248163398799 0 -0.30880670935462207
vn 0 1 0
vn 0.5880753048999485 0 -0.8088061793574729
vn 0 1 0
vn 0 0 -1
vn 0 1 0
vn 0 0 1
vn 0 1 0
vn -0.5880753048999485 0 0.8088061793574729
vn 0 1 0
vn -0.9511248163398799 0 0.30880670935462207
vn 0 1 0
vn -0.9511248163398799 0 -0.30880670935462207
vn 0 1 0
vn -0.5880753048999485 0 -0.8088061793574729
vn 0 1 0
usemtl m_45cf7b94-245c-f669-a7f3-8f2d1c043aeb
f 150/483/127 153/484/127 154/485/127 151/486/127
f 151/487/128 154/488/128 155/489/128 152/490/128
f 153/491/129 156/492/129 157/493/129 154/494/129
f 154/495/130 157/496/130 158/497/130 155/498/130
f 156/499/131 159/500/131 160/501/131 157/502/131
f 157/503/132 160/504/132 161/505/132 158/506/132
f 159/507/133 162/508/133 163/509/133 160/510/133
f 160/511/134 163/512/134 164/513/134 161/514/134
f 162/515/135 177/516/135 178/517/135 163/518/135
f 163/519/136 178/520/136 179/521/136 164/522/136
f 165/523/137 150/524/137 151/525/137 166/526/137
f 166/527/138 151/528/138 152/529/138 167/530/138
f 168/531/139 165/532/139 166/533/139 169/534/139
f 169/535/140 166/536/140 167/537/140 170/538/140
f 171/539/141 168/540/141 169/541/141 172/542/141
f 172/543/142 169/544/142 170/545/142 173/546/142
f 174/547/143 171/548/143 172/549/143 175/550/143
f 175/551/144 172/552/144 173/553/144 176/554/144
f 177/555/145 174/556/145 175/557/145 178/558/145
f 178/559/146 175/560/146 176/561/146 179/562/146