# Made in Blockbench 4.12.5
mtllib scales.mtl

o elbow
v 0.15625 0.125 0.057138125
v 0.15625 0.036611875 0
v -0.15625 0.125 0.057138125
v -0.15625 0.036611875 0
v 0.15625 0.18213812499999998 0
v 0.15625 0.125 -0.057138125
v -0.15625 0.18213812499999998 0
v -0.15625 0.125 -0.057138125
v -0.3125 0.0625 0.025888125
v -0.3125 0.088388125 0
v -0.3125 0.005361875000000002 0
v -0.3125 0.0625 -0.025888125
v -0.5 0.0625 0.025888125
v -0.5 0.088388125 0
v -0.5 0.036611875 0
v -0.5 0.0625 -0.025888125
v 0.3125 0.0625 0.057138125
v 0.3125 0.005361875000000002 0
v 0.3125 0.088388125 0
v 0.3125 0.0625 -0.057138125
v 0.5 0.0625 0.025888125
v 0.5 0.036611875 0
v 0.5 0.088388125 0
v 0.5 0.0625 -0.025888125
vt 0.335341875 0.8113815625
vt 0.335341875 0.8640065625
vt 0.179091875 0.8640065625
vt 0.179091875 0.8113815625
vt 0.335431875 0.7499971875
vt 0.179181875 0.75
vt 0.17918125 0.7096
vt 0.33543125 0.7095971875
vt 0.03125 0.90625
vt 0 0.90625
vt 0 0.875
vt 0.03125 0.875
vt 0.0625 0.875
vt 0.09375 0.875
vt 0.09375 0.90625
vt 0.0625 0.90625
vt 0.180955625 0.9595965625
vt 0.337205625 0.959599375
vt 0.3372046875 0.999999375
vt 0.1809546875 0.9999965625
vt 0.0864009375 0.64497
vt 0.086944375 0.5923478125
vt 0.24318625 0.5939615625
vt 0.2426428125 0.64658375
vt 0.1009171875 0.830049375
vt 0.1005321875 0.798689375
vt 0.179091875 0.8119553125
vt 0.179091875 0.8640065625
vt 0.096089375 0.96685375
vt 0.096089375 0.948549375
vt 0.180955625 0.9595965625
vt 0.1809546875 1
vt 0.4202971875 0.6985465625
vt 0.4202971875 0.7168509375000001
vt 0.335431875 0.7499971875
vt 0.33543125 0.70959375
vt 0.3212896875 0.580911875
vt 0.3210490625 0.6122743749999999
vt 0.2426428125 0.64658375
vt 0.2431803125 0.5945400000000001
vt 0.0079584375 0.835289375
vt 0.0069284375 0.8170128125
vt 0.1005565625 0.8006715625
vt 0.1009171875 0.830049375
vt 0.002339375 0.966855625
vt 0.002339375 0.948549375
vt 0.096089375 0.948549375
vt 0.096089375 0.966855625
vt 0.5140471875 0.6985446875
vt 0.5140471875 0.7168509375000001
vt 0.4202971875 0.7168509375000001
vt 0.4202971875 0.6985446875
vt 0.4149521875 0.5926806250000001
vt 0.4148115625 0.6109862500000001
vt 0.321064375 0.6102671875
vt 0.3212896875 0.580911875
vt 0.415811875 0.9323034375
vt 0.42138375 0.9631709375
vt 0.3372046875 0.99802125
vt 0.337205625 0.959599375
vt 0.4127471875 0.796875
vt 0.415104375 0.8372084375
vt 0.335341875 0.8640065625
vt 0.335341875 0.8124684375
vt 0.0069228125 0.618495
vt 0.008554375 0.578125
vt 0.086944375 0.5923478125
vt 0.0864128125 0.6438196875
vt 0.0943540625 0.71957
vt 0.0983615625 0.68846125
vt 0.17918125 0.7118740625
vt 0.179181875 0.75
vt 0.51003375 0.9265240625
vt 0.513285625 0.944539375
vt 0.4210265625 0.9611928125
vt 0.415811875 0.9323034375
vt 0.5076303125 0.8024078125
vt 0.5086965625 0.8206821875
vt 0.415104375 0.8372109375
vt 0.4127471875 0.796875
vt 0.408378125 0.52450625
vt 0.40625 0.506325
vt 0.498725 0.484375
vt 0.50341875 0.52450625
vt 0.0015778125 0.7117428125
vt 0.003116875 0.6935021875
vt 0.0981078125 0.6904303125
vt 0.0943540625 0.71957
vn 0 -0.54288829389767 0.8398049180308944
vn 0 0.7071067811865476 -0.7071067811865476
vn 1 0 0
vn -1 0 0
vn 0 0.7071067811865476 0.7071067811865476
vn 0 -0.54288829389767 -0.8398049180308944
vn 0.08225949987313287 -0.4112974993656643 0.9077817698633155
vn -0.3905667329424717 0.6509445549041194 0.6509445549041193
vn -0.3905667329424717 0.6509445549041194 -0.6509445549041193
vn -0.01709279362364542 -0.4126358577252701 -0.9107356835687674
vn -0.11704114719613061 -0.7022468831767835 0.7022468831767834
vn 0 0.7071067811865476 0.7071067811865475
vn 0 0.7071067811865476 -0.7071067811865475
vn 0 -0.7071067811865476 -0.7071067811865475
vn 0.4795733737644511 0.7992889562740852 0.36214160704683696
vn -0.2721655269759087 -0.6804138174397717 0.6804138174397717
vn -0.14002800840280097 -0.7001400420140049 -0.7001400420140049
vn 0.3423331315059697 0.8558328287649242 -0.387760488293411
vn 0 0.7071067811865476 0.7071067811865475
vn 0.11704114719613058 -0.7022468831767835 0.7022468831767834
vn 0.11704114719613061 -0.7022468831767835 -0.7022468831767834
vn 0.11704114719613058 0.7022468831767835 -0.7022468831767834
usemtl m_10df6cb7-444c-fe50-66b3-70972e126e8f
f 2/1/1 1/2/1 3/3/1 4/4/1
f 7/5/2 5/6/2 6/7/2 8/8/2
f 23/9/3 21/10/3 22/11/3 24/12/3
f 15/13/4 13/14/4 14/15/4 16/16/4
f 3/17/5 1/18/5 5/19/5 7/20/5
f 6/21/6 2/22/6 4/23/6 8/24/6
f 9/25/7 11/26/7 4/27/7 3/28/7
f 10/29/8 9/30/8 3/31/8 7/32/8
f 12/33/9 10/34/9 7/35/9 8/36/9
f 11/37/10 12/38/10 8/39/10 4/40/10
f 13/41/11 15/42/11 11/43/11 9/44/11
f 14/45/12 13/46/12 9/47/12 10/48/12
f 16/49/13 14/50/13 10/51/13 12/52/13
f 15/53/14 16/54/14 12/55/14 11/56/14
f 17/57/15 19/58/15 5/59/15 1/60/15
f 18/61/16 17/62/16 1/63/16 2/64/16
f 20/65/17 18/66/17 2/67/17 6/68/17
f 19/69/18 20/70/18 6/71/18 5/72/18
f 21/73/19 23/74/19 19/75/19 17/76/19
f 22/77/20 21/78/20 17/79/20 18/80/20
f 24/81/21 22/82/21 18/83/21 20/84/21
f 23/85/22 24/86/22 20/87/22 19/88/22
o arrow
v 0 0.099111875 0.28125
v 0.025888125 0.125 0.28125
v 0 0.099111875 0
v 0.025888125 0.125 0
v -0.025888125 0.125 0.28125
v 0 0.150888125 0.28125
v -0.025888125 0.125 0
v 0 0.150888125 0
v 0 0.150888125 0.21875
v -0.025888125 0.125 0.21875
v 0 0.099111875 0.21875
v 0.025888125 0.125 0.21875
v 0 0.6943425 0.21875
v 0 0.6943425 0.28125
vt 0.609375 0.58080625
vt 0.5 0.58080625
vt 0.5 0.5625
vt 0.609375 0.5625
vt 0.25 0.5
vt 0.375 0.5
vt 0.375 0.53125
vt 0.25 0.53125
vt 0.12768125 0.24657812499999998
vt 0.140625 0.23363437499999995
vt 0.15356875 0.24657812499999998
vt 0.140625 0.259521875
vt 0.25 0.46875
vt 0.25 0.4375
vt 0.28125 0.4375
vt 0.28125 0.46875
vt 0.5625 0.96875
vt 0.671875 0.96875
vt 0.671875 0.98705625
vt 0.5625 0.98705625
vt 0.59375 0.65625
vt 0.46875 0.65625
vt 0.46875 0.625
vt 0.59375 0.625
vt 0.703125 0.98705625
vt 0.671875 0.98705625
vt 0.671875 0.96875
vt 0.703125 0.96875
vt 0.46875 0.5625
vt 0.5 0.5625
vt 0.5 0.58080625
vt 0.46875 0.58080625
vt 0.203125 0.53125
vt 0.203125 0.259521875
vt 0.21606875 0.24657812499999998
vt 0.03125 0.53125
vt 0 0.53125
vt 0 0.25
vt 0.03125 0.25
vt 0.140625 0.53125
vt 0.12768125 0.24657812499999998
vt 0.140625 0.259521875
vt 0.09375 0.53125
vt 0.0625 0.53125
vt 0.0625 0.25
vt 0.09375 0.25
vt 0.203125 0.53125
vt 0.19018125 0.24657812499999998
vt 0.203125 0.259521875
vt 0.140625 0.53125
vt 0.140625 0.259521875
vt 0.15356875 0.24657812499999998
vn 0.7071067811865476 -0.7071067811865476 0
vn -0.7071067811865476 0.7071067811865476 0
vn 0 0 1
vn 0 0 -1
vn -0.7071067811865476 -0.7071067811865476 0
vn 0.7071067811865476 0.7071067811865476 0
vn -0.7071067811865476 -0.7071067811865476 0
vn 0.7071067811865476 -0.7071067811865476 0
vn 0 0 -1
vn -0.9989678301086614 0.04542328046269476 0
vn 0 0 1
vn 0.9989678301086614 0.04542328046269476 0
vn 0 0 -1
vn 0 0 1
usemtl m_10df6cb7-444c-fe50-66b3-70972e126e8f
f 28/89/23 36/90/23 35/91/23 27/92/23
f 31/93/24 34/94/24 33/95/24 32/96/24
f 29/97/25 25/98/25 26/99/25 30/100/25
f 28/101/26 27/102/26 31/103/26 32/104/26
f 27/105/27 35/106/27 34/107/27 31/108/27
f 32/109/28 33/110/28 36/111/28 28/112/28
f 29/113/29 34/114/29 35/115/29 25/116/29
f 25/117/30 35/118/30 36/119/30 26/120/30
f 37/121/31 33/122/31 34/123/31
f 38/124/32 37/125/32 34/126/32 29/127/32
f 38/128/33 29/129/33 30/130/33
f 37/131/34 38/132/34 26/133/34 36/134/34
f 37/135/35 36/136/35 33/137/35
f 38/138/36 30/139/36 26/140/36