# Made in Blockbench 4.12.5
mtllib scale_plate.mtl

o plate
v 0 0 0
v 0.077003125 0 0.125
v 0.123878125 0.125 0.21875
v 0.15400625 0 0
v 0.24775625 0.125 0
v 0.077003125 0 -0.125
v 0.123878125 0.125 -0.21875
v -0.077003125 0 -0.125
v -0.123878125 0.125 -0.21875
v -0.15400625 0 0
v -0.24775625 0.125 0
v -0.077003125 0 0.125
v -0.123878125 0.125 0.21875
v -0.16238 0.0625 0
v -0.08119 0.0625 0.140625
v 0 0.0625 0
v 0.08119 0.0625 0.140625
v 0.16238 0.0625 0
v 0.08119 0.0625 -0.140625
v -0.08119 0.0625 -0.140625
vt 0.155128125 0.75
vt 0.116625 0.8125
vt 0.078125 0.75
vt 0.375 0.73712625
vt 0.3764553125 0.663734375
vt 0.4375 0.640625
vt 0.4375 0.7662590625
vt 0.12653125 0.859375
vt 0.167128125 0.9296875
vt 0.0859375 0.9296875
vt 0.116628125 0.6875
vt 0.155128125 0.75
vt 0.078125 0.75
vt 0.399584375 0.9375
vt 0.472990625 0.9375
vt 0.500609375 1
vt 0.375 0.9973125
vt 0.167128125 0.9296875
vt 0.12653125 1
vt 0.0859375 0.9296875
vt 0.039625 0.6875
vt 0.116628125 0.6875
vt 0.078125 0.75
vt 0.2115 0.78125
vt 0.2885 0.78125
vt 0.311940625 0.875
vt 0.188059375 0.875
vt 0.12653125 1
vt 0.04534375 1
vt 0.0859375 0.9296875
vt 0.001121875 0.75
vt 0.039625 0.6875
vt 0.078125 0.75
vt 0.375 0.54962625
vt 0.3764553125 0.476234375
vt 0.4375 0.453125
vt 0.4375 0.5787590625
vt 0.04534375 1
vt 0.004746875 0.9296875
vt 0.0859375 0.9296875
vt 0.039621875 0.8125
vt 0.001121875 0.75
vt 0.078125 0.75
vt 0.024584375 0.5
vt 0.097990625 0.5
vt 0.125609375 0.5625
vt 0 0.5598125
vt 0.004746875 0.9296875
vt 0.04534375 0.859375
vt 0.0859375 0.9296875
vt 0.116625 0.8125
vt 0.039621875 0.8125
vt 0.078125 0.75
vt 0.2427484375 0.90625
vt 0.3197515625 0.90625
vt 0.3431890625 1
vt 0.2193109375 1
vt 0.04534375 0.859375
vt 0.12653125 0.859375
vt 0.0859375 0.9296875
vt 0.1875 0.7265278125
vt 0.188016875 0.6453421875
vt 0.25 0.6243037499999999
vt 0.25 0.75
vt 0.2094046875 0.5
vt 0.2905921875 0.5
vt 0.3119390625 0.5625
vt 0.1880609375 0.5625
vt 0.036278125 0.59375
vt 0.117465625 0.59375
vt 0.140625 0.65625
vt 0.01493125 0.655440625
vt 0.4906546875 0.71875
vt 0.5718421875 0.71875
vt 0.5931890625 0.78125
vt 0.4693109375 0.78125
vt 0.380028125 0.8125
vt 0.461215625 0.8125
vt 0.484375 0.875
vt 0.35868125 0.874190625
vt 0.28125 0.7265278125
vt 0.281766875 0.6453421875
vt 0.34375 0.6243037499999999
vt 0.34375 0.75
vn 0 -1 0
vn 0.7175908016553443 -0.5381931012415082 0.44205387358973347
vn 0 1 0
vn 0 -1 0
vn 0.6933607134472057 -0.5803559176686882 -0.42712753350131494
vn 0 1 0
vn 0 -1 0
vn 0 -0.6 -0.8
vn 0 1 0
vn 0 -1 0
vn -0.7175908016553443 -0.5381931012415082 -0.44205387358973347
vn 0 1 0
vn 0 -1 0
vn -0.6933607134472057 -0.5803559176686882 0.42712753350131494
vn 0 1 0
vn 0 -1 0
vn 0 -0.6 0.8
vn 0 1 0
vn 0.5590742197816676 0.7637065657061538 -0.32278212198452333
vn 0 0.7808688094430305 -0.6246950475544243
vn -0.5499394370283015 0.7724993161498362 -0.3175081450121088
vn 0 0.7808688094430305 0.6246950475544243
vn 0.5499394370283015 0.7724993161498362 0.3175081450121088
vn -0.5590742197816676 0.7637065657061538 0.32278212198452333
usemtl m_a21ea63a-7389-15f2-eb28-5a3ff36a871f
f 4/1/1 2/2/1 1/3/1
f 2/4/2 4/5/2 5/6/2 3/7/2
f 17/8/3 18/9/3 16/10/3
f 6/11/4 4/12/4 1/13/4
f 4/14/5 6/15/5 7/16/5 5/17/5
f 18/18/6 19/19/6 16/20/6
f 8/21/7 6/22/7 1/23/7
f 6/24/8 8/25/8 9/26/8 7/27/8
f 19/28/9 20/29/9 16/30/9
f 10/31/10 8/32/10 1/33/10
f 8/34/11 10/35/11 11/36/11 9/37/11
f 20/38/12 14/39/12 16/40/12
f 12/41/13 10/42/13 1/43/13
f 10/44/14 12/45/14 13/46/14 11/47/14
f 14/48/15 15/49/15 16/50/15
f 2/51/16 12/52/16 1/53/16
f 12/54/17 2/55/17 3/56/17 13/57/17
f 15/58/18 17/59/18 16/60/18
f 15/61/19 14/62/19 11/63/19 13/64/19
f 17/65/20 15/66/20 13/67/20 3/68/20
f 18/69/21 17/70/21 3/71/21 5/72/21
f 20/73/22 19/74/22 7/75/22 9/76/22
f 14/77/23 20/78/23 9/79/23 11/80/23
f 19/81/24 18/82/24 5/83/24 7/84/24