# Made in Blockbench 4.12.5
mtllib sign.mtl

o body
v 0.03125 0.3125 -0.3125
v 0.03125 0.3125 0.3125
v -0.03125 0.3125 0.3125
v 0.03125 0 -0.3125
v 0.03125 0 0.3125
v -0.03125 0 0.3125
v -0.03125 0.3125 -0.3125
v -0.03125 0 -0.3125
vt 0.34375 0.6875
vt 0.375 0.6875
vt 0.375 1
vt 0.34375 1
vt 0.375 0.34375
vt 0.375 0.65625
vt 0.34375 0.65625
vt 0.34375 0.34375
vt 0 1
vt 0 0.84375
vt 0.3125 0.84375
vt 0.3125 1
vt 0 0.625
vt 0 0.46875
vt 0.03125 0.46875
vt 0.03125 0.625
vt 0.0625 0.625
vt 0.0625 0.46875
vt 0.09375 0.46875
vt 0.09375 0.625
vt 0 0.8125
vt 0 0.65625
vt 0.3125 0.65625
vt 0.3125 0.8125
vn 0 1 0
vn 0 -1 0
vn 1 0 0
vn 0 0 1
vn 0 0 -1
vn -1 0 0
usemtl m_0da4139e-4bd4-621d-9136-4e70a4157373
f 3/1/1 2/2/1 1/3/1 7/4/1
f 4/5/2 5/6/2 6/7/2 8/8/2
f 2/9/3 5/10/3 4/11/3 1/12/3
f 3/13/4 6/14/4 5/15/4 2/16/4
f 1/17/5 4/18/5 8/19/5 7/20/5
f 7/21/6 8/22/6 6/23/6 3/24/6