# Made in Blockbench 4.12.5
mtllib sign_legs.mtl

o body
v 0.03125 0.3125 0.3125
v 0.03125 0.3125 -0.3125
v 0.03125 0 0.3125
v 0.03125 0 -0.3125
v -0.03125 0.3125 0.3125
v -0.03125 0.3125 -0.3125
v -0.03125 0 0.3125
v -0.03125 0 -0.3125
v 0.03125 0.28125 -0.3125
v 0.03125 0.28125 0.3125
v -0.03125 0.28125 0.3125
v -0.03125 0.28125 -0.3125
v 0.03125 0.03125 -0.3125
v 0.03125 0.03125 0.3125
v -0.03125 0.03125 0.3125
v -0.03125 0.03125 -0.3125
v 0.03125 0.3125 -0.375
v -0.03125 0.28125 -0.375
v 0.03125 0.28125 -0.375
v -0.03125 0.3125 -0.375
v -0.03125 0 -0.375
v -0.03125 0.03125 -0.375
v 0.03125 0.03125 -0.375
v 0.03125 0 -0.375
vt 0 1
vt 0 0.984375
vt 0.3125 0.984375
vt 0.3125 1
vt 0.03125 0.8125
vt 0.03125 0.796875
vt 0.34375 0.796875
vt 0.34375 0.8125
vt 0 0.28125
vt 0.03125 0.28125
vt 0.03125 0.59375
vt 0 0.59375
vt 0.40625 0.6875
vt 0.40625 1
vt 0.375 1
vt 0.375 0.6875
vt 0.0625 0.625
vt 0.0625 0.609375
vt 0.09375 0.609375
vt 0.09375 0.625
vt 0.1875 0.625
vt 0.1875 0.59375
vt 0.21875 0.59375
vt 0.21875 0.625
vt 0 0.984375
vt 0 0.859375
vt 0.3125 0.859375
vt 0.3125 0.984375
vt 0.0625 0.609375
vt 0.0625 0.484375
vt 0.09375 0.484375
vt 0.09375 0.609375
vt 0.03125 0.796875
vt 0.03125 0.671875
vt 0.34375 0.671875
vt 0.34375 0.796875
vt 0.125 0.625
vt 0.125 0.5
vt 0.15625 0.5
vt 0.15625 0.625
vt 0.3125 0.84375
vt 0.3125 0.859375
vt 0 0.859375
vt 0 0.84375
vt 0.09375 0.46875
vt 0.09375 0.484375
vt 0.0625 0.484375
vt 0.0625 0.46875
vt 0.34375 0.65625
vt 0.34375 0.671875
vt 0.03125 0.671875
vt 0.03125 0.65625
vt 0.28125 0.59375
vt 0.28125 0.625
vt 0.25 0.625
vt 0.25 0.59375
vt 0.34375 0.984375
vt 0.34375 1
vt 0.3125 1
vt 0.3125 0.984375
vt 0.3125 0.59375
vt 0.34375 0.59375
vt 0.34375 0.625
vt 0.3125 0.625
vt 0 0.8125
vt 0 0.796875
vt 0.03125 0.796875
vt 0.03125 0.8125
vt 0.03125 0.625
vt 0 0.625
vt 0 0.59375
vt 0.03125 0.59375
vt 0 0.671875
vt 0 0.65625
vt 0.03125 0.65625
vt 0.03125 0.671875
vt 0.40625 0.625
vt 0.375 0.625
vt 0.375 0.59375
vt 0.40625 0.59375
vt 0.34375 0.84375
vt 0.34375 0.859375
vt 0.3125 0.859375
vt 0.3125 0.84375
vt 0.375 0.65625
vt 0.40625 0.65625
vt 0.40625 0.6875
vt 0.375 0.6875
vn 1 0 0
vn -1 0 0
vn 0 1 0
vn 0 -1 0
vn 0 0 1
vn 0 0 -1
vn 1 0 0
vn 0 0 1
vn -1 0 0
vn 0 0 -1
vn 1 0 0
vn 0 0 1
vn -1 0 0
vn 0 0 -1
vn 1 0 0
vn 0 -1 0
vn -1 0 0
vn 0 1 0
vn -1 0 0
vn 0 1 0
vn 1 0 0
vn 0 -1 0
usemtl m_605fb976-f1a8-511a-9350-9c1095779571
f 1/1/1 10/2/1 9/3/1 2/4/1
f 6/5/2 12/6/2 11/7/2 5/8/2
f 5/9/3 1/10/3 2/11/3 6/12/3
f 4/13/4 3/14/4 7/15/4 8/16/4
f 5/17/5 11/18/5 10/19/5 1/20/5
f 17/21/6 19/22/6 18/23/6 20/24/6
f 10/25/7 14/26/7 13/27/7 9/28/7
f 11/29/8 15/30/8 14/31/8 10/32/8
f 12/33/9 16/34/9 15/35/9 11/36/9
f 9/37/10 13/38/10 16/39/10 12/40/10
f 4/41/11 13/42/11 14/43/11 3/44/11
f 3/45/12 14/46/12 15/47/12 7/48/12
f 7/49/13 15/50/13 16/51/13 8/52/13
f 21/53/14 22/54/14 23/55/14 24/56/14
f 19/57/15 17/58/15 2/59/15 9/60/15
f 18/61/16 19/62/16 9/63/16 12/64/16
f 20/65/17 18/66/17 12/67/17 6/68/17
f 17/69/18 20/70/18 6/71/18 2/72/18
f 22/73/19 21/74/19 8/75/19 16/76/19
f 23/77/20 22/78/20 16/79/20 13/80/20
f 24/81/21 23/82/21 13/83/21 4/84/21
f 21/85/22 24/86/22 4/87/22 8/88/22