# Made in Blockbench 4.12.5
mtllib table_living.mtl

o leg
v 0 0 0
v 0.1443375 0 0.25
v 0.1443375 0.0625 0.25
v 0.288675 0 0
v 0.288675 0.0625 0
v 0.1443375 0 -0.25
v 0.1443375 0.0625 -0.25
v -0.1443375 0 -0.25
v -0.1443375 0.0625 -0.25
v -0.288675 0 0
v -0.288675 0.0625 0
v -0.1443375 0 0.25
v -0.1443375 0.0625 0.25
v -0.0662125 0.125 0.09375
v 0.0662125 0.125 0.09375
v 0.132425 0.125 0
v 0.0662125 0.125 -0.09375
v -0.0662125 0.125 -0.09375
v -0.132425 0.125 0
v -0.0662125 0.75 0.09375
v 0.0662125 0.75 0.09375
v 0 0.75 0
v 0.132425 0.75 0
v 0.0662125 0.75 -0.09375
v -0.0662125 0.75 -0.09375
v -0.132425 0.75 0
vt 0.5838875 0.9375
vt 0.547803125 1
vt 0.51171875 0.9375
vt 0.609375 0.921875
vt 0.6875 0.921875
vt 0.6875 0.9375
vt 0.609375 0.9375
vt 0.645459375 0.859375
vt 0.6620125 0.8828125
vt 0.62890625 0.8828125
vt 0.547803125 0.875
vt 0.5838875 0.9375
vt 0.51171875 0.9375
vt 0.09375 0.359375
vt 0.171875 0.359375
vt 0.171875 0.375
vt 0.09375 0.375
vt 0.6620125 0.8828125
vt 0.645459375 0.90625
vt 0.62890625 0.8828125
vt 0.475634375 0.875
vt 0.547803125 0.875
vt 0.51171875 0.9375
vt 0 0.984375
vt 0.078125 0.984375
vt 0.078125 1
vt 0 1
vt 0.645459375 0.90625
vt 0.612353125 0.90625
vt 0.62890625 0.8828125
vt 0.43955 0.9375
vt 0.475634375 0.875
vt 0.51171875 0.9375
vt 0 0.359375
vt 0.078125 0.359375
vt 0.078125 0.375
vt 0 0.375
vt 0.612353125 0.90625
vt 0.5958 0.8828125
vt 0.62890625 0.8828125
vt 0.475634375 1
vt 0.43955 0.9375
vt 0.51171875 0.9375
vt 0 0.5625
vt 0.078125 0.5625
vt 0.078125 0.578125
vt 0 0.578125
vt 0.5958 0.8828125
vt 0.612353125 0.859375
vt 0.62890625 0.8828125
vt 0.547803125 1
vt 0.475634375 1
vt 0.51171875 0.9375
vt 0.359375 0.984375
vt 0.4375 0.984375
vt 0.4375 1
vt 0.359375 1
vt 0.612353125 0.859375
vt 0.645459375 0.859375
vt 0.62890625 0.8828125
vt 0.095753125 0.44507656250000005
vt 0.062646875 0.44507656250000005
vt 0.043115625 0.40601406250000005
vt 0.115284375 0.40601406250000005
vt 0.11230625 0.46851406250000005
vt 0.095753125 0.44507656250000005
vt 0.115284375 0.40601406250000005
vt 0.15136875 0.46851406250000005
vt 0.095753125 0.49195156250000005
vt 0.11230625 0.46851406250000005
vt 0.15136875 0.46851406250000005
vt 0.115284375 0.5310140624999999
vt 0.062646875 0.49195156250000005
vt 0.095753125 0.49195156250000005
vt 0.115284375 0.5310140624999999
vt 0.043115625 0.5310140624999999
vt 0.04609375 0.46851406250000005
vt 0.062646875 0.49195156250000005
vt 0.043115625 0.5310140624999999
vt 0.00703125 0.46851406250000005
vt 0.062646875 0.44507656250000005
vt 0.04609375 0.46851406250000005
vt 0.00703125 0.46851406250000005
vt 0.043115625 0.40601406250000005
vt 0.203125 0.546875
vt 0.171875 0.546875
vt 0.171875 0.390625
vt 0.203125 0.390625
vt 0.296875 0.546875
vt 0.265625 0.546875
vt 0.265625 0.390625
vt 0.296875 0.390625
vt 0.53125 0.859375
vt 0.5 0.859375
vt 0.5 0.703125
vt 0.53125 0.703125
vt 0.484375 0.859375
vt 0.453125 0.859375
vt 0.453125 0.703125
vt 0.484375 0.703125
vt 0.25 0.546875
vt 0.21875 0.546875
vt 0.21875 0.390625
vt 0.25 0.390625
vt 0.578125 0.859375
vt 0.546875 0.859375
vt 0.546875 0.703125
vt 0.578125 0.703125
vn 0 -1 0
vn 0.8660255047305424 0 0.4999998251561787
vn 0 1 0
vn 0 -1 0
vn 0.8660255047305424 0 -0.4999998251561787
vn 0 1 0
vn 0 -1 0
vn 0 0 -1
vn 0 1 0
vn 0 -1 0
vn -0.8660255047305424 0 -0.4999998251561787
vn 0 1 0
vn 0 -1 0
vn -0.8660255047305424 0 0.4999998251561787
vn 0 1 0
vn 0 -1 0
vn 0 0 1
vn 0 1 0
vn 0 0.9284766908852593 0.3713906763541037
vn 0.3072481834732474 0.9265581052941565 0.21699915038103884
vn 0.359238124962756 0.8980953124068901 -0.2537179130570291
vn 0 0.9284766908852593 -0.3713906763541037
vn -0.3072481834732474 0.9265581052941565 -0.21699915038103884
vn -0.359238124962756 0.8980953124068901 0.2537179130570291
vn 0 0 1
vn 0.8168199410556912 0 0.5768926970362661
vn 0.8168199410556912 0 -0.5768926970362661
vn 0 0 -1
vn -0.8168199410556912 0 -0.5768926970362661
vn -0.8168199410556912 0 0.5768926970362661
usemtl m_70b52a1e-8854-0bfc-a27e-1790ff695873
f 4/1/1 2/2/1 1/3/1
f 2/4/2 4/5/2 5/6/2 3/7/2
f 21/8/3 23/9/3 22/10/3
f 6/11/4 4/12/4 1/13/4
f 4/14/5 6/15/5 7/16/5 5/17/5
f 23/18/6 24/19/6 22/20/6
f 8/21/7 6/22/7 1/23/7
f 6/24/8 8/25/8 9/26/8 7/27/8
f 24/28/9 25/29/9 22/30/9
f 10/31/10 8/32/10 1/33/10
f 8/34/11 10/35/11 11/36/11 9/37/11
f 25/38/12 26/39/12 22/40/12
f 12/41/13 10/42/13 1/43/13
f 10/44/14 12/45/14 13/46/14 11/47/14
f 26/48/15 20/49/15 22/50/15
f 2/51/16 12/52/16 1/53/16
f 12/54/17 2/55/17 3/56/17 13/57/17
f 20/58/18 21/59/18 22/60/18
f 15/61/19 14/62/19 13/63/19 3/64/19
f 16/65/20 15/66/20 3/67/20 5/68/20
f 17/69/21 16/70/21 5/71/21 7/72/21
f 18/73/22 17/74/22 7/75/22 9/76/22
f 19/77/23 18/78/23 9/79/23 11/80/23
f 14/81/24 19/82/24 11/83/24 13/84/24
f 21/85/25 20/86/25 14/87/25 15/88/25
f 23/89/26 21/90/26 15/91/26 16/92/26
f 24/93/27 23/94/27 16/95/27 17/96/27
f 25/97/28 24/98/28 17/99/28 18/100/28
f 26/101/29 25/102/29 18/103/29 19/104/29
f 20/105/30 26/106/30 19/107/30 14/108/30
o cylinder
v 0 0.75 0
v 0 0.8125 0
v 0.362436875 0.75 0.875
v 0.362436875 0.8125 0.875
v 0.875 0.75 0.362436875
v 0.875 0.8125 0.362436875
v 0.875 0.75 -0.362436875
v 0.875 0.8125 -0.362436875
v 0.362436875 0.75 -0.875
v 0.362436875 0.8125 -0.875
v -0.362436875 0.75 -0.875
v -0.362436875 0.8125 -0.875
v -0.875 0.75 -0.362436875
v -0.875 0.8125 -0.362436875
v -0.875 0.75 0.362436875
v -0.875 0.8125 0.362436875
v -0.362436875 0.75 0.875
v -0.362436875 0.8125 0.875
vt 0.4375 0.871859375
vt 0.309359375 1
vt 0.21875 0.78125
vt 0.59375 0.734375
vt 0.78125 0.734375
vt 0.78125 0.75
vt 0.59375 0.75
vt 0.63748421875 0.21875
vt 0.765625 0.34689078124999995
vt 0.546875 0.4375
vt 0.4375 0.690640625
vt 0.4375 0.871859375
vt 0.21875 0.78125
vt 0.453125 0.671875
vt 0.640625 0.671875
vt 0.640625 0.6875
vt 0.453125 0.6875
vt 0.765625 0.34689078124999995
vt 0.765625 0.52810921875
vt 0.546875 0.4375
vt 0.309359375 0.5625
vt 0.4375 0.690640625
vt 0.21875 0.78125
vt 0.59375 0.765625
vt 0.78125 0.765625
vt 0.78125 0.78125
vt 0.59375 0.78125
vt 0.765625 0.52810921875
vt 0.63748421875 0.65625
vt 0.546875 0.4375
vt 0.128140625 0.5625
vt 0.309359375 0.5625
vt 0.21875 0.78125
vt 0.59375 0.796875
vt 0.78125 0.796875
vt 0.78125 0.8125
vt 0.59375 0.8125
vt 0.63748421875 0.65625
vt 0.45626578125 0.65625
vt 0.546875 0.4375
vt 0 0.690640625
vt 0.128140625 0.5625
vt 0.21875 0.78125
vt 0.609375 0.953125
vt 0.796875 0.953125
vt 0.796875 0.96875
vt 0.609375 0.96875
vt 0.45626578125 0.65625
vt 0.328125 0.52810921875
vt 0.546875 0.4375
vt 0 0.871859375
vt 0 0.690640625
vt 0.21875 0.78125
vt 0.59375 0.984375
vt 0.78125 0.984375
vt 0.78125 1
vt 0.59375 1
vt 0.328125 0.52810921875
vt 0.328125 0.34689078124999995
vt 0.546875 0.4375
vt 0.128140625 1
vt 0 0.871859375
vt 0.21875 0.78125
vt 0.59375 0.703125
vt 0.78125 0.703125
vt 0.78125 0.71875
vt 0.59375 0.71875
vt 0.328125 0.34689078124999995
vt 0.45626578125 0.21875
vt 0.546875 0.4375
vt 0.309359375 1
vt 0.128140625 1
vt 0.21875 0.78125
vt 0.59375 0.828125
vt 0.78125 0.828125
vt 0.78125 0.84375
vt 0.59375 0.84375
vt 0.45626578125 0.21875
vt 0.63748421875 0.21875
vt 0.546875 0.4375
vn 0 -1 0
vn 0.7071067811865476 0 0.7071067811865476
vn 0 1 0
vn 0 -1 0
vn 1 0 0
vn 0 1 0
vn 0 -1 0
vn 0.7071067811865476 0 -0.7071067811865476
vn 0 1 0
vn 0 -1 0
vn 0 0 -1
vn 0 1 0
vn 0 -1 0
vn -0.7071067811865476 0 -0.7071067811865476
vn 0 1 0
vn 0 -1 0
vn -1 0 0
vn 0 1 0
vn 0 -1 0
vn -0.7071067811865476 0 0.7071067811865476
vn 0 1 0
vn 0 -1 0
vn 0 0 1
vn 0 1 0
usemtl m_70b52a1e-8854-0bfc-a27e-1790ff695873
f 31/109/31 29/110/31 27/111/31
f 29/112/32 31/113/32 32/114/32 30/115/32
f 30/116/33 32/117/33 28/118/33
f 33/119/34 31/120/34 27/121/34
f 31/122/35 33/123/35 34/124/35 32/125/35
f 32/126/36 34/127/36 28/128/36
f 35/129/37 33/130/37 27/131/37
f 33/132/38 35/133/38 36/134/38 34/135/38
f 34/136/39 36/137/39 28/138/39
f 37/139/40 35/140/40 27/141/40
f 35/142/41 37/143/41 38/144/41 36/145/41
f 36/146/42 38/147/42 28/148/42
f 39/149/43 37/150/43 27/151/43
f 37/152/44 39/153/44 40/154/44 38/155/44
f 38/156/45 40/157/45 28/158/45
f 41/159/46 39/160/46 27/161/46
f 39/162/47 41/163/47 42/164/47 40/165/47
f 40/166/48 42/167/48 28/168/48
f 43/169/49 41/170/49 27/171/49
f 41/172/50 43/173/50 44/174/50 42/175/50
f 42/176/51 44/177/51 28/178/51
f 29/179/52 43/180/52 27/181/52
f 43/182/53 29/183/53 30/184/53 44/185/53
f 44/186/54 30/187/54 28/188/54