# Made in Blockbench 4.12.5
mtllib tank_s.mtl

o cap_b
v 0 0 0
v 0 0.5 0
v 0.18121833333333334 0 0.4375
v 0.18121833333333334 0.5 0.4375
v 0.4375 0 0.18121833333333334
v 0.4375 0.5 0.18121833333333334
v 0.4375 0 -0.18121833333333334
v 0.4375 0.5 -0.18121833333333334
v 0.18121833333333334 0 -0.4375
v 0.18121833333333334 0.5 -0.4375
v -0.18121833333333334 0 -0.4375
v -0.18121833333333334 0.5 -0.4375
v -0.4375 0 -0.18121833333333334
v -0.4375 0.5 -0.18121833333333334
v -0.4375 0 0.18121833333333334
v -0.4375 0.5 0.18121833333333334
v -0.18121833333333334 0 0.4375
v -0.18121833333333334 0.5 0.4375
vt 0.21875 0.9359296875
vt 0.1546796875 1
vt 0.109375 0.890625
vt 0.484375 0.5
vt 0.578125 0.5
vt 0.578125 0.625
vt 0.484375 0.625
vt 0.3265546875 0.59375
vt 0.390625 0.6578203125
vt 0.28125 0.703125
vt 0.21875 0.8453203125
vt 0.21875 0.9359296875
vt 0.109375 0.890625
vt 0.234375 0.875
vt 0.328125 0.875
vt 0.328125 1
vt 0.234375 1
vt 0.390625 0.6578203125
vt 0.390625 0.7484296875
vt 0.28125 0.703125
vt 0.1546796875 0.78125
vt 0.21875 0.8453203125
vt 0.109375 0.890625
vt 0.515625 0.640625
vt 0.609375 0.640625
vt 0.609375 0.765625
vt 0.515625 0.765625
vt 0.390625 0.7484296875
vt 0.3265546875 0.8125
vt 0.28125 0.703125
vt 0.06407031249999999 0.78125
vt 0.1546796875 0.78125
vt 0.109375 0.890625
vt 0.375 0.484375
vt 0.46875 0.484375
vt 0.46875 0.609375
vt 0.375 0.609375
vt 0.3265546875 0.8125
vt 0.2359453125 0.8125
vt 0.28125 0.703125
vt 0 0.8453203125
vt 0.06407031249999999 0.78125
vt 0.109375 0.890625
vt 0.484375 0.359375
vt 0.578125 0.359375
vt 0.578125 0.484375
vt 0.484375 0.484375
vt 0.2359453125 0.8125
vt 0.171875 0.7484296875
vt 0.28125 0.703125
vt 0 0.9359296875
vt 0 0.8453203125
vt 0.109375 0.890625
vt 0.40625 0.640625
vt 0.5 0.640625
vt 0.5 0.765625
vt 0.40625 0.765625
vt 0.171875 0.7484296875
vt 0.171875 0.6578203125
vt 0.28125 0.703125
vt 0.0640703125 1
vt 0 0.9359296875
vt 0.109375 0.890625
vt 0.328125 0.34375
vt 0.421875 0.34375
vt 0.421875 0.46875
vt 0.328125 0.46875
vt 0.171875 0.6578203125
vt 0.2359453125 0.59375
vt 0.28125 0.703125
vt 0.1546796875 1
vt 0.0640703125 1
vt 0.109375 0.890625
vt 0.21875 0.453125
vt 0.3125 0.453125
vt 0.3125 0.578125
vt 0.21875 0.578125
vt 0.2359453125 0.59375
vt 0.3265546875 0.59375
vt 0.28125 0.703125
vn 0 -1 0
vn 0.7071067811865476 0 0.7071067811865476
vn 0 1 0
vn 0 -1 0
vn 1 0 0
vn 0 1 0
vn 0 -1 0
vn 0.7071067811865476 0 -0.7071067811865476
vn 0 1 0
vn 0 -1 0
vn 0 0 -1
vn 0 1 0
vn 0 -1 0
vn -0.7071067811865476 0 -0.7071067811865476
vn 0 1 0
vn 0 -1 0
vn -1 0 0
vn 0 1 0
vn 0 -1 0
vn -0.7071067811865476 0 0.7071067811865476
vn 0 1 0
vn 0 -1 0
vn 0 0 1
vn 0 1 0
usemtl m_b6e383eb-635f-2b11-b91c-cc725a6ed0df
f 5/1/1 3/2/1 1/3/1
f 3/4/2 5/5/2 6/6/2 4/7/2
f 4/8/3 6/9/3 2/10/3
f 7/11/4 5/12/4 1/13/4
f 5/14/5 7/15/5 8/16/5 6/17/5
f 6/18/6 8/19/6 2/20/6
f 9/21/7 7/22/7 1/23/7
f 7/24/8 9/25/8 10/26/8 8/27/8
f 8/28/9 10/29/9 2/30/9
f 11/31/10 9/32/10 1/33/10
f 9/34/11 11/35/11 12/36/11 10/37/11
f 10/38/12 12/39/12 2/40/12
f 13/41/13 11/42/13 1/43/13
f 11/44/14 13/45/14 14/46/14 12/47/14
f 12/48/15 14/49/15 2/50/15
f 15/51/16 13/52/16 1/53/16
f 13/54/17 15/55/17 16/56/17 14/57/17
f 14/58/18 16/59/18 2/60/18
f 17/61/19 15/62/19 1/63/19
f 15/64/20 17/65/20 18/66/20 16/67/20
f 16/68/21 18/69/21 2/70/21
f 3/71/22 17/72/22 1/73/22
f 17/74/23 3/75/23 4/76/23 18/77/23
f 18/78/24 4/79/24 2/80/24
o cap_t
v 0 1 0
v 0.18121833333333334 1 0.4375
v 0.18121833333333334 1.28125 0.4375
v 0.4375 1 0.18121833333333334
v 0.4375 1.28125 0.18121833333333334
v 0.4375 1 -0.18121833333333334
v 0.4375 1.28125 -0.18121833333333334
v 0.18121833333333334 1 -0.4375
v 0.18121833333333334 1.28125 -0.4375
v -0.18121833333333334 1 -0.4375
v -0.18121833333333334 1.28125 -0.4375
v -0.4375 1 -0.18121833333333334
v -0.4375 1.28125 -0.18121833333333334
v -0.4375 1 0.18121833333333334
v -0.4375 1.28125 0.18121833333333334
v -0.18121833333333334 1 0.4375
v -0.18121833333333334 1.28125 0.4375
v -0.15101552083333336 1.4375 0.36458333333333337
v 0.15101552083333336 1.4375 0.36458333333333337
v -0.36458333333333337 1.4375 0.15101552083333336
v -0.36458333333333337 1.4375 -0.15101552083333336
v -0.15101552083333336 1.4375 -0.36458333333333337
v 0.15101552083333336 1.4375 -0.36458333333333337
v 0.36458333333333337 1.4375 -0.15101552083333336
v 0.36458333333333337 1.4375 0.15101552083333336
v 0 1.53125 0
vt 0.5625 0.9359296875
vt 0.4984296875 1
vt 0.453125 0.890625
vt 0.596890625 0.37095468750000005
vt 0.6875 0.37095468750000005
vt 0.6875 0.44126718750000005
vt 0.596890625 0.44126718750000005
vt 0.5625 0.8453203125
vt 0.5625 0.9359296875
vt 0.453125 0.890625
vt 0.1578203125 0.32407968750000005
vt 0.2484296875 0.32407968750000005
vt 0.2484296875 0.39439218750000005
vt 0.1578203125 0.39439218750000005
vt 0.4984296875 0.78125
vt 0.5625 0.8453203125
vt 0.453125 0.890625
vt 0.625 0.7459546875
vt 0.715609375 0.7459546875
vt 0.715609375 0.8162671875
vt 0.625 0.8162671875
vt 0.4078203125 0.78125
vt 0.4984296875 0.78125
vt 0.453125 0.890625
vt 0.001570312499999997 0.30845468750000005
vt 0.0921796875 0.30845468750000005
vt 0.0921796875 0.37876718750000005
vt 0.001570312499999997 0.37876718750000005
vt 0.34375 0.8453203125
vt 0.4078203125 0.78125
vt 0.453125 0.890625
vt 0.440640625 0.23032968750000005
vt 0.53125 0.23032968750000005
vt 0.53125 0.30064218750000005
vt 0.440640625 0.30064218750000005
vt 0.34375 0.9359296875
vt 0.34375 0.8453203125
vt 0.453125 0.890625
vt 0.5796953125 0.8865796875
vt 0.6703046875 0.8865796875
vt 0.6703046875 0.9568921875
vt 0.5796953125 0.9568921875
vt 0.4078203125 1
vt 0.34375 0.9359296875
vt 0.453125 0.890625
vt 0.546875 0.23032968750000005
vt 0.637484375 0.23032968750000005
vt 0.637484375 0.30064218750000005
vt 0.546875 0.30064218750000005
vt 0.4984296875 1
vt 0.4078203125 1
vt 0.453125 0.890625
vt 0.5953203125 0.5115796875
vt 0.6859296875 0.5115796875
vt 0.6859296875 0.5818921875
vt 0.5953203125 0.5818921875
vt 0.678378125 0.625
vt 0.6028718750000001 0.625
vt 0.5953203125 0.5818921875
vt 0.6859296875 0.5818921875
vt 0.6299328125 0.34375
vt 0.5544265625 0.34375
vt 0.546875 0.30064218750000005
vt 0.637484375 0.30064218750000005
vt 0.662753125 1
vt 0.5872468750000001 1
vt 0.5796953125 0.9568921875
vt 0.6703046875 0.9568921875
vt 0.5236984375 0.34375
vt 0.4481921875 0.34375
vt 0.440640625 0.30064218750000005
vt 0.53125 0.30064218750000005
vt 0.084628125 0.421875
vt 0.009121875000000008 0.421875
vt 0.001570312499999997 0.37876718750000005
vt 0.0921796875 0.37876718750000005
vt 0.7080578125 0.859375
vt 0.6325515625 0.859375
vt 0.625 0.8162671875
vt 0.715609375 0.8162671875
vt 0.240878125 0.4375
vt 0.165371875 0.4375
vt 0.1578203125 0.39439218750000005
vt 0.2484296875 0.39439218750000005
vt 0.6799484375 0.484375
vt 0.6044421875 0.484375
vt 0.596890625 0.44126718750000005
vt 0.6875 0.44126718750000005
vt 0.09661494270829002 0.5408071037358053
vt 0.05886106249995665 0.44966124696501764
vt 0.1343688229166234 0.44966124696501764
vt 0.09661494270829002 0.5408071037358053
vt 0.00546910937495676 0.503053200089991
vt 0.05886106249995665 0.44966124696501764
vt 0.09661494270829002 0.5408071037358053
vt 0.00546910937495676 0.5785609605066199
vt 0.00546910937495676 0.503053200089991
vt 0.09661494270829002 0.5408071037358053
vt 0.05886106249995665 0.6319529136315931
vt 0.00546910937495676 0.5785609605066199
vt 0.09661494270829002 0.5408071037358053
vt 0.1343688229166234 0.6319529136315931
vt 0.05886106249995665 0.6319529136315931
vt 0.09661494270829002 0.5408071037358053
vt 0.18776077604162328 0.5785609605066199
vt 0.1343688229166234 0.6319529136315931
vt 0.09661494270829002 0.5408071037358053
vt 0.18776077604162328 0.503053200089991
vt 0.18776077604162328 0.5785609605066199
vt 0.09661494270829002 0.5408071037358053
vt 0.1343688229166234 0.44966124696501764
vt 0.18776077604162328 0.503053200089991
vn 0 -1 0
vn 0.7071067811865476 0 0.7071067811865476
vn 0 -1 0
vn 1 0 0
vn 0 -1 0
vn 0.7071067811865476 0 -0.7071067811865476
vn 0 -1 0
vn 0 0 -1
vn 0 -1 0
vn -0.7071067811865476 0 -0.7071067811865476
vn 0 -1 0
vn -1 0 0
vn 0 -1 0
vn -0.7071067811865476 0 0.7071067811865476
vn 0 -1 0
vn 0 0 1
vn 0 0.42288546533112376 0.9061831399952657
vn -0.6407685319369633 0.42288459059026706 0.6407685319369633
vn -0.9061831399952657 0.42288546533112376 0
vn -0.6407685319369633 0.42288459059026706 -0.6407685319369633
vn 0 0.42288546533112376 -0.9061831399952657
vn 0.6407685319369633 0.42288459059026706 -0.6407685319369633
vn 0.9061831399952657 0.42288546533112376 0
vn 0.6407685319369633 0.42288459059026706 0.6407685319369633
vn 0 0.9684929325968497 0.24904103981061845
vn -0.176098556930089 0.9684929511846128 0.176098556930089
vn -0.24904103981061845 0.9684929325968497 0
vn -0.176098556930089 0.9684929511846128 -0.176098556930089
vn 0 0.9684929325968497 -0.24904103981061845
vn 0.176098556930089 0.9684929511846128 -0.176098556930089
vn 0.24904103981061845 0.9684929325968497 0
vn 0.176098556930089 0.9684929511846128 0.176098556930089
usemtl m_b6e383eb-635f-2b11-b91c-cc725a6ed0df
f 22/81/25 20/82/25 19/83/25
f 20/84/26 22/85/26 23/86/26 21/87/26
f 24/88/27 22/89/27 19/90/27
f 22/91/28 24/92/28 25/93/28 23/94/28
f 26/95/29 24/96/29 19/97/29
f 24/98/30 26/99/30 27/100/30 25/101/30
f 28/102/31 26/103/31 19/104/31
f 26/105/32 28/106/32 29/107/32 27/108/32
f 30/109/33 28/110/33 19/111/33
f 28/112/34 30/113/34 31/114/34 29/115/34
f 32/116/35 30/117/35 19/118/35
f 30/119/36 32/120/36 33/121/36 31/122/36
f 34/123/37 32/124/37 19/125/37
f 32/126/38 34/127/38 35/128/38 33/129/38
f 20/130/39 34/131/39 19/132/39
f 34/133/40 20/134/40 21/135/40 35/136/40
f 37/137/41 36/138/41 35/139/41 21/140/41
f 36/141/42 38/142/42 33/143/42 35/144/42
f 38/145/43 39/146/43 31/147/43 33/148/43
f 39/149/44 40/150/44 29/151/44 31/152/44
f 40/153/45 41/154/45 27/155/45 29/156/45
f 41/157/46 42/158/46 25/159/46 27/160/46
f 42/161/47 43/162/47 23/163/47 25/164/47
f 43/165/48 37/166/48 21/167/48 23/168/48
f 44/169/49 36/170/49 37/171/49
f 44/172/50 38/173/50 36/174/50
f 44/175/51 39/176/51 38/177/51
f 44/178/52 40/179/52 39/180/52
f 44/181/53 41/182/53 40/183/53
f 44/184/54 42/185/54 41/186/54
f 44/187/55 43/188/55 42/189/55
f 44/190/56 37/191/56 43/192/56
o body
v 0.15533011363636362 0.5 0.375
v 0.15533011363636362 1 0.375
v 0.375 0.5 0.15533011363636362
v 0.375 1 0.15533011363636362
v 0.375 0.5 -0.15533011363636362
v 0.375 1 -0.15533011363636362
v 0.15533011363636362 0.5 -0.375
v 0.15533011363636362 1 -0.375
v -0.15533011363636362 0.5 -0.375
v -0.15533011363636362 1 -0.375
v -0.375 0.5 -0.15533011363636362
v -0.375 1 -0.15533011363636362
v -0.375 0.5 0.15533011363636362
v -0.375 1 0.15533011363636362
v -0.15533011363636362 0.5 0.375
v -0.15533011363636362 1 0.375
vt 0.703125 0.453125
vt 0.78125 0.453125
vt 0.78125 0.578125
vt 0.703125 0.578125
vt 0.265625 0.203125
vt 0.34375 0.203125
vt 0.34375 0.328125
vt 0.265625 0.328125
vt 0 0.15625
vt 0.078125 0.15625
vt 0.078125 0.28125
vt 0 0.28125
vt 0.6875 0.875
vt 0.765625 0.875
vt 0.765625 1
vt 0.6875 1
vt 0.734375 0.734375
vt 0.8125 0.734375
vt 0.8125 0.859375
vt 0.734375 0.859375
vt 0.109375 0.171875
vt 0.1875 0.171875
vt 0.1875 0.296875
vt 0.109375 0.296875
vt 0.75 0.3125
vt 0.828125 0.3125
vt 0.828125 0.4375
vt 0.75 0.4375
vt 0.703125 0.59375
vt 0.78125 0.59375
vt 0.78125 0.71875
vt 0.703125 0.71875
vn 0.7071067811865476 0 0.7071067811865476
vn 1 0 0
vn 0.7071067811865476 0 -0.7071067811865476
vn 0 0 -1
vn -0.7071067811865476 0 -0.7071067811865476
vn -1 0 0
vn -0.7071067811865476 0 0.7071067811865476
vn 0 0 1
usemtl m_b6e383eb-635f-2b11-b91c-cc725a6ed0df
f 45/193/57 47/194/57 48/195/57 46/196/57
f 47/197/58 49/198/58 50/199/58 48/200/58
f 49/201/59 51/202/59 52/203/59 50/204/59
f 51/205/60 53/206/60 54/207/60 52/208/60
f 53/209/61 55/210/61 56/211/61 54/212/61
f 55/213/62 57/214/62 58/215/62 56/216/62
f 57/217/63 59/218/63 60/219/63 58/220/63
f 59/221/64 45/222/64 46/223/64 60/224/64
o side_frame
v 0.159771875 0.5 -0.375
v -0.159771875 0.5 -0.375
v -0.159771875 1 -0.375
v 0.159771875 1 -0.375
v 0.159771875 0.5 -0.4375
v -0.159771875 0.5 -0.4375
v -0.159771875 1 -0.4375
v 0.159771875 1 -0.4375
vt 0.796875 0.59375
vt 0.875 0.59375
vt 0.875 0.71875
vt 0.796875 0.71875
vt 0.484375 0.1875
vt 0.5625 0.1875
vt 0.5625 0.203125
vt 0.484375 0.203125
vt 0.796875 0.578125
vt 0.796875 0.453125
vt 0.8125 0.453125
vt 0.8125 0.578125
vt 0.65625 0.203125
vt 0.578125 0.203125
vt 0.578125 0.1875
vt 0.65625 0.1875
vt 0.46875 0.078125
vt 0.46875 0.203125
vt 0.453125 0.203125
vt 0.453125 0.078125
vn 0 0 -1
vn 0 -1 0
vn -1 0 0
vn 0 1 0
vn 1 0 0
usemtl m_b6e383eb-635f-2b11-b91c-cc725a6ed0df
f 65/225/65 66/226/65 67/227/65 68/228/65
f 66/229/66 65/230/66 61/231/66 62/232/66
f 67/233/67 66/234/67 62/235/67 63/236/67
f 68/237/68 67/238/68 63/239/68 64/240/68
f 65/241/69 68/242/69 64/243/69 61/244/69
o side_frame
v 0.375 0.5 0.159771875
v 0.375 0.5 -0.159771875
v 0.375 1 -0.159771875
v 0.375 1 0.159771875
v 0.4375 0.5 0.159771875
v 0.4375 0.5 -0.159771875
v 0.4375 1 -0.159771875
v 0.4375 1 0.159771875
vt 0.78125 0.875
vt 0.859375 0.875
vt 0.859375 1
vt 0.78125 1
vt 0.109375 0.6875
vt 0.109375 0.765625
vt 0.09375 0.765625
vt 0.09375 0.6875
vt 0.234375 0.296875
vt 0.234375 0.171875
vt 0.25 0.171875
vt 0.25 0.296875
vt 0.140625 0.6875
vt 0.140625 0.765625
vt 0.125 0.765625
vt 0.125 0.6875
vt 0.4375 0.078125
vt 0.4375 0.203125
vt 0.421875 0.203125
vt 0.421875 0.078125
vn 1 0 0
vn 0 -1 0
vn 0 0 -1
vn 0 1 0
vn 0 0 1
usemtl m_b6e383eb-635f-2b11-b91c-cc725a6ed0df
f 73/245/70 74/246/70 75/247/70 76/248/70
f 74/249/71 73/250/71 69/251/71 70/252/71
f 75/253/72 74/254/72 70/255/72 71/256/72
f 76/257/73 75/258/73 71/259/73 72/260/73
f 73/261/74 76/262/74 72/263/74 69/264/74
o side_frame
v -0.159771875 0.5 0.375
v 0.159771875 0.5 0.375
v 0.159771875 1 0.375
v -0.159771875 1 0.375
v -0.159771875 0.5 0.4375
v 0.159771875 0.5 0.4375
v 0.159771875 1 0.4375
v -0.159771875 1 0.4375
vt 0.75 0.171875
vt 0.828125 0.171875
vt 0.828125 0.296875
vt 0.75 0.296875
vt 0.3125 0.859375
vt 0.234375 0.859375
vt 0.234375 0.84375
vt 0.3125 0.84375
vt 0.390625 0.328125
vt 0.390625 0.203125
vt 0.40625 0.203125
vt 0.40625 0.328125
vt 0.03125 0.65625
vt 0.109375 0.65625
vt 0.109375 0.671875
vt 0.03125 0.671875
vt 0.21875 0.171875
vt 0.21875 0.296875
vt 0.203125 0.296875
vt 0.203125 0.171875
vn 0 0 1
vn 0 -1 0
vn 1 0 0
vn 0 1 0
vn -1 0 0
usemtl m_b6e383eb-635f-2b11-b91c-cc725a6ed0df
f 81/265/75 82/266/75 83/267/75 84/268/75
f 82/269/76 81/270/76 77/271/76 78/272/76
f 83/273/77 82/274/77 78/275/77 79/276/77
f 84/277/78 83/278/78 79/279/78 80/280/78
f 81/281/79 84/282/79 80/283/79 77/284/79
o side_frame
v -0.375 0.5 -0.159771875
v -0.375 0.5 0.159771875
v -0.375 1 0.159771875
v -0.375 1 -0.159771875
v -0.4375 0.5 -0.159771875
v -0.4375 0.5 0.159771875
v -0.4375 1 0.159771875
v -0.4375 1 -0.159771875
vt 0.65625 0.21875
vt 0.734375 0.21875
vt 0.734375 0.34375
vt 0.65625 0.34375
vt 0.03125 0.765625
vt 0.03125 0.6875
vt 0.046875 0.6875
vt 0.046875 0.765625
vt 0 0.796875
vt 0 0.671875
vt 0.015625 0.671875
vt 0.015625 0.796875
vt 0.0625 0.765625
vt 0.0625 0.6875
vt 0.078125 0.6875
vt 0.078125 0.765625
vt 0.375 0.203125
vt 0.375 0.328125
vt 0.359375 0.328125
vt 0.359375 0.203125
vn -1 0 0
vn 0 -1 0
vn 0 0 1
vn 0 1 0
vn 0 0 -1
usemtl m_b6e383eb-635f-2b11-b91c-cc725a6ed0df
f 89/285/80 90/286/80 91/287/80 92/288/80
f 90/289/81 89/290/81 85/291/81 86/292/81
f 91/293/82 90/294/82 86/295/82 87/296/82
f 92/297/83 91/298/83 87/299/83 88/300/83
f 89/301/84 92/302/84 88/303/84 85/304/84