# Made in Blockbench 4.12.5
mtllib washer.mtl

o body
v 0.625 1.625 0.5
v 0.625 1.625 -0.21875
v 0.625 0 0.5
v 0.625 0 -0.21875
v -0.625 1.625 0.5
v -0.625 1.625 -0.21875
v -0.625 0 0.5
v -0.625 0 -0.21875
vt 0.390625 0.7890625
vt 0.296875 0.7890625
vt 0.296875 0.5859375
vt 0.390625 0.5859375
vt 0.421875 0.796875
vt 0.421875 1
vt 0.328125 1
vt 0.328125 0.796875
vt 0.3984375 0.6953125
vt 0.5546875 0.6953125
vt 0.5546875 0.7890625
vt 0.3984375 0.7890625
vt 0.5546875 0.59375
vt 0.5546875 0.6875
vt 0.3984375 0.6875
vt 0.3984375 0.59375
vt 0.15625 0.796875
vt 0.15625 1
vt 0 1
vt 0 0.796875
vt 0.3203125 1
vt 0.1640625 1
vt 0.1640625 0.796875
vt 0.3203125 0.796875
vn 1 0 0
vn -1 0 0
vn 0 1 0
vn 0 -1 0
vn 0 0 1
vn 0 0 -1
usemtl m_3e611996-133b-ab55-ad56-3ecc60a1d5f4
f 2/1/1 1/2/1 3/3/1 4/4/1
f 7/5/2 5/6/2 6/7/2 8/8/2
f 5/9/3 1/10/3 2/11/3 6/12/3
f 4/13/4 3/14/4 7/15/4 8/16/4
f 3/17/5 1/18/5 5/19/5 7/20/5
f 6/21/6 2/22/6 4/23/6 8/24/6
o door
v 0.5625 1.53125 -0.21875
v 0.5625 1.53125 -0.28125
v 0.5625 0.0625 -0.21875
v 0.5625 0.0625 -0.28125
v -0.5625 1.53125 -0.21875
v -0.5625 1.53125 -0.28125
v -0.5625 0.0625 -0.21875
v -0.5625 0.0625 -0.28125
vt 0.0078125 0.59375
vt 0 0.59375
vt 0 0.40625
vt 0.0078125 0.40625
vt 0.0234375 0.40625
vt 0.0234375 0.59375
vt 0.015625 0.59375
vt 0.015625 0.40625
vt 0.03125 0.5859375
vt 0.171875 0.5859375
vt 0.171875 0.59375
vt 0.03125 0.59375
vt 0.5390625 0.578125
vt 0.5390625 0.5859375
vt 0.3984375 0.5859375
vt 0.3984375 0.578125
vt 0.140625 0.6015625
vt 0.140625 0.7890625
vt 0 0.7890625
vt 0 0.6015625
vt 0.2890625 0.7890625
vt 0.1484375 0.7890625
vt 0.1484375 0.6015625
vt 0.2890625 0.6015625
vn 1 0 0
vn -1 0 0
vn 0 1 0
vn 0 -1 0
vn 0 0 1
vn 0 0 -1
usemtl m_3e611996-133b-ab55-ad56-3ecc60a1d5f4
f 10/25/7 9/26/7 11/27/7 12/28/7
f 15/29/8 13/30/8 14/31/8 16/32/8
f 13/33/9 9/34/9 10/35/9 14/36/9
f 12/37/10 11/38/10 15/39/10 16/40/10
f 11/41/11 9/42/11 13/43/11 15/44/11
f 14/45/12 10/46/12 12/47/12 16/48/12