# Made in Blockbench 4.12.5
mtllib weight_s.mtl

o cylinder
v 0 0 0
v 0 0.1437499999999999 0
v 0.023584391824351607 0 0.037500000000000006
v 0.017334391824351612 0.08124999999999993 0.025000000000000005
v 0.04716878364870322 0 2.6514380968122677e-18
v 0.034668783648703225 0.08124999999999993 1.7676253978748453e-18
v 0.023584391824351607 0 -0.037500000000000006
v 0.017334391824351612 0.08124999999999993 -0.025000000000000005
v 0.008849960653685618 0.08124999999999993 -0.011666666666666667
v 0.017699921307371243 0.08124999999999993 8.248918523415943e-19
v 0.008849960653685618 0.08124999999999993 0.011666666666666667
v 0.012220445991290643 0.09999999999999992 4.419063494687111e-19
v 0.006110222995645319 0.09999999999999992 -0.0062499999999999995
v 0.006110222995645319 0.09999999999999992 0.0062499999999999995
v 0.021407873821448486 0.1124999999999999 1.0311148154269927e-18
v 0.01070393691072424 0.1124999999999999 -0.01458333333333333
v 0.01070393691072424 0.1124999999999999 0.01458333333333333
v 0.021407873821448486 0.1437499999999999 1.0311148154269927e-18
v 0.01070393691072424 0.1437499999999999 -0.01458333333333333
v 0.01070393691072424 0.1437499999999999 0.01458333333333333
v -0.023584391824351607 0 0.037500000000000006
v -0.017334391824351612 0.08124999999999993 0.025000000000000005
v -0.04716878364870322 0 2.6514380968122677e-18
v -0.034668783648703225 0.08124999999999993 1.7676253978748453e-18
v -0.023584391824351607 0 -0.037500000000000006
v -0.017334391824351612 0.08124999999999993 -0.025000000000000005
v -0.008849960653685618 0.08124999999999993 -0.011666666666666667
v -0.017699921307371243 0.08124999999999993 8.248918523415943e-19
v -0.008849960653685618 0.08124999999999993 0.011666666666666667
v -0.012220445991290643 0.09999999999999992 4.419063494687111e-19
v -0.006110222995645319 0.09999999999999992 -0.0062499999999999995
v -0.006110222995645319 0.09999999999999992 0.0062499999999999995
v -0.021407873821448486 0.1124999999999999 1.0311148154269927e-18
v -0.01070393691072424 0.1124999999999999 -0.01458333333333333
v -0.01070393691072424 0.1124999999999999 0.01458333333333333
v -0.021407873821448486 0.1437499999999999 1.0311148154269927e-18
v -0.01070393691072424 0.1437499999999999 -0.01458333333333333
v -0.01070393691072424 0.1437499999999999 0.01458333333333333
vt 0.0389125 0.90625
vt 0.08608750000000001 0.90625
vt 0.0625 0.94375
vt 0 0.73100412267914
vt 0.0625 0.7274278096384843
vt 0.0625 0.8098713056770591
vt 0.012464028994102861 0.8125
vt 0.22945625 0.625
vt 0.20804375 0.625
vt 0.21875 0.61041875
vt 0.08608750000000001 0.98125
vt 0.0389125 0.98125
vt 0.0625 0.94375
vt 0.1875 0.91850412267914
vt 0.25 0.9149278096384843
vt 0.25 0.9973713056770591
vt 0.19996402899410287 1
vt 0.20804375 0.5958375
vt 0.22945625 0.5958375
vt 0.21875 0.61041875
vt 0.413025 0.86166875
vt 0.430725 0.86166875
vt 0.4392125 0.875
vt 0.4045375 0.875
vt 0.430725 0.83833125
vt 0.413025 0.83833125
vt 0.4045375 0.825
vt 0.4392125 0.825
vt 0.3967375 0.75
vt 0.3845125 0.75
vt 0.381775 0.6875
vt 0.399475 0.6875
vt 0.3342375 0.625
vt 0.3220125 0.625
vt 0.319275 0.5625
vt 0.336975 0.5625
vt 0.46383125000000003 0.59375
vt 0.44241874999999997 0.59375
vt 0.4470125 0.57873125
vt 0.4592375 0.57873125
vt 0.02633125 0.46875
vt 0.0049187499999999995 0.46875
vt 0.0095125 0.45373125000000003
vt 0.0217375 0.45373125000000003
vt 0.46383125000000003 0.625
vt 0.44241874999999997 0.625
vt 0.44241874999999997 0.59375
vt 0.46383125000000003 0.59375
vt 0.02633125 0.5
vt 0.0049187499999999995 0.5
vt 0.0049187499999999995 0.46875
vt 0.02633125 0.46875
vt 0.10966875000000001 0.94375
vt 0.08608750000000001 0.98125
vt 0.0625 0.94375
vt 0.321316920615021 1
vt 0.3252164978962368 0.9558719669934426
vt 0.40625 0.9697150557785332
vt 0.4037494131183567 1
vt 0.22945625 0.5958375
vt 0.24015625000000002 0.61041875
vt 0.21875 0.61041875
vt 0.08608750000000001 0.90625
vt 0.10966875000000001 0.94375
vt 0.0625 0.94375
vt 0.25 0.7314788569982142
vt 0.3125 0.7275795742115669
vt 0.3125 0.8100182924550294
vt 0.26384144774749685 0.8125
vt 0.24015625000000002 0.61041875
vt 0.22945625 0.625
vt 0.21875 0.61041875
vt 0.430725 0.86166875
vt 0.439575 0.85
vt 0.45654375 0.85
vt 0.4392125 0.875
vt 0.439575 0.85
vt 0.430725 0.83833125
vt 0.4392125 0.825
vt 0.45654375 0.85
vt 0.575075 0.875
vt 0.56633125 0.875
vt 0.5625 0.85584375
vt 0.57703125 0.85546875
vt 0.40241875 0.5
vt 0.393675 0.5
vt 0.39171875 0.48039374999999995
vt 0.40625 0.48092500000000005
vt 0.26809375 0.46875
vt 0.25 0.46875
vt 0.2554375 0.454225
vt 0.26409375 0.45359375
vt 0.53125 0.96875
vt 0.51315625 0.96875
vt 0.51715625 0.95355625
vt 0.5258125 0.95425625
vt 0.26809375 0.5
vt 0.25 0.5
vt 0.25 0.46875
vt 0.26809375 0.46875
vt 0.53125 1
vt 0.51315625 1
vt 0.51315625 0.96875
vt 0.53125 0.96875
vt 0.0389125 0.98125
vt 0.015331249999999998 0.94375
vt 0.0625 0.94375
vt 0.13884308878509072 0.8125
vt 0.125 0.7314664978962369
vt 0.1875 0.727566920615021
vt 0.1875 0.8099994131183568
vt 0.19734374999999998 0.61041875
vt 0.20804375 0.5958375
vt 0.21875 0.61041875
vt 0.015331249999999998 0.94375
vt 0.0389125 0.90625
vt 0.0625 0.94375
vt 0.09126829245502947 0.625
vt 0.008829574211566937 0.625
vt 0.012728856998214248 0.5808719409700612
vt 0.09375 0.5947133887175581
vt 0.20804375 0.625
vt 0.19734374999999998 0.61041875
vt 0.21875 0.61041875
vt 0.38720625 0.85
vt 0.404175 0.85
vt 0.413025 0.86166875
vt 0.4045375 0.875
vt 0.4045375 0.825
vt 0.413025 0.83833125
vt 0.404175 0.85
vt 0.38720625 0.85
vt 0.59375 0.60584375
vt 0.58991875 0.625
vt 0.581175 0.625
vt 0.57921875 0.60546875
vt 0.51453125 0.48039374999999995
vt 0.512575 0.5
vt 0.50383125 0.5
vt 0.5 0.48092500000000005
vt 0.5258125 0.704225
vt 0.53125 0.71875
vt 0.51315625 0.71875
vt 0.51715625 0.70359375
vt 0.13909375 0.45355625
vt 0.14309375 0.46875
vt 0.125 0.46875
vt 0.1304375 0.45425625000000003
vt 0.53125 0.71875
vt 0.53125 0.75
vt 0.51315625 0.75
vt 0.51315625 0.71875
vt 0.14309375 0.46875
vt 0.14309375 0.5
vt 0.125 0.5
vt 0.125 0.46875
vn 0 -1 0
vn 0 0.15205718425394127 -0.9883716976506173
vn 0 1 0
vn 0 -1 0
vn 0 0.15205718425394127 0.9883716976506173
vn 0 1 0
vn 0 1 0
vn 0 1 0
vn 0 0.27753965282077464 -0.9607141828411424
vn 0 0.27753965282077464 0.9607141828411424
vn 0 -0.5547001962252295 -0.8320502943378435
vn 0 -0.5547001962252295 0.8320502943378435
vn 0 0 -1
vn 0 0 1
vn 0 -1 0
vn 0.8394162571746511 0.12914096264225408 0.5279232510116713
vn 0 1 0
vn 0 -1 0
vn 0.8375017500387693 0.14545693226552392 -0.5267191847065205
vn 0 1 0
vn 0 1 0
vn 0 1 0
vn 0.6999385008200559 0.20454910602762447 -0.684284851719715
vn 0.6836778753354852 0.29298839429951595 0.6683878840782111
vn 0.6935504246956147 -0.5097555578773032 -0.5090550850524252
vn 0.6633036509026842 -0.5683317966306491 0.48685442961705555
vn 0.8061546884087387 0 -0.591704840572231
vn 0.8061546884087388 0 0.5917048405722313
vn 0 -1 0
vn -0.8394162571746511 0.1291409626422541 0.5279232510116713
vn 0 1 0
vn 0 -1 0
vn -0.8375017500387695 0.14545693226552395 -0.5267191847065205
vn 0 1 0
vn 0 1 0
vn 0 1 0
vn -0.6999385008200558 0.20454910602762444 -0.6842848517197151
vn -0.6836778753354852 0.29298839429951595 0.6683878840782111
vn -0.6935504246956147 -0.5097555578773033 -0.5090550850524254
vn -0.6633036509026842 -0.5683317966306494 0.4868544296170556
vn -0.8061546884087387 0 -0.591704840572231
vn -0.8061546884087388 0 0.5917048405722313
usemtl m_47f56b5f-a039-1942-f665-2abb8ce62ce5
f 25/1/1 7/2/1 1/3/1
f 7/4/2 25/5/2 26/6/2 8/7/2
f 19/8/3 37/9/3 2/10/3
f 3/11/4 21/12/4 1/13/4
f 21/14/5 3/15/5 4/16/5 22/17/5
f 38/18/6 20/19/6 2/20/6
f 27/21/7 9/22/7 8/23/7 26/24/7
f 11/25/8 29/26/8 22/27/8 4/28/8
f 31/29/9 13/30/9 9/31/9 27/32/9
f 14/33/10 32/34/10 29/35/10 11/36/10
f 34/37/11 16/38/11 13/39/11 31/40/11
f 17/41/12 35/42/12 32/43/12 14/44/12
f 37/45/13 19/46/13 16/47/13 34/48/13
f 20/49/14 38/50/14 35/51/14 17/52/14
f 5/53/15 3/54/15 1/55/15
f 3/56/16 5/57/16 6/58/16 4/59/16
f 20/60/17 18/61/17 2/62/17
f 7/63/18 5/64/18 1/65/18
f 5/66/19 7/67/19 8/68/19 6/69/19
f 18/70/20 19/71/20 2/72/20
f 9/73/21 10/74/21 6/75/21 8/76/21
f 10/77/22 11/78/22 4/79/22 6/80/22
f 13/81/23 12/82/23 10/83/23 9/84/23
f 12/85/24 14/86/24 11/87/24 10/88/24
f 16/89/25 15/90/25 12/91/25 13/92/25
f 15/93/26 17/94/26 14/95/26 12/96/26
f 19/97/27 18/98/27 15/99/27 16/100/27
f 18/101/28 20/102/28 17/103/28 15/104/28
f 21/105/29 23/106/29 1/107/29
f 24/108/30 23/109/30 21/110/30 22/111/30
f 36/112/31 38/113/31 2/114/31
f 23/115/32 25/116/32 1/117/32
f 26/118/33 25/119/33 23/120/33 24/121/33
f 37/122/34 36/123/34 2/124/34
f 24/125/35 28/126/35 27/127/35 26/128/35
f 22/129/36 29/130/36 28/131/36 24/132/36
f 28/133/37 30/134/37 31/135/37 27/136/37
f 29/137/38 32/138/38 30/139/38 28/140/38
f 30/141/39 33/142/39 34/143/39 31/144/39
f 32/145/40 35/146/40 33/147/40 30/148/40
f 33/149/41 36/150/41 37/151/41 34/152/41
f 35/153/42 38/154/42 36/155/42 33/156/42