# Made in Blockbench 4.12.5
mtllib weight_m.mtl

o cylinder
v 0 0 0
v 0 0.1624999999999999 0
v 0.029834391824351603 0 0.05
v 0.021928105739430534 0.09374999999999994 0.03333333333333334
v 0.05966878364870322 0 3.53525079574969e-18
v 0.04385621147886107 0.09374999999999994 2.3568338638331268e-18
v 0.029834391824351603 0 -0.05
v 0.021928105739430534 0.09374999999999994 -0.03333333333333334
v 0.011195251322933383 0.09374999999999994 -0.015555555555555555
v 0.022390502645866773 0.09374999999999994 1.0998558031221257e-18
v 0.011195251322933383 0.09374999999999994 0.015555555555555555
v 0.015458934734795322 0.11249999999999993 5.892084659582815e-19
v 0.007729467367397659 0.11249999999999993 -0.008333333333333331
v 0.007729467367397659 0.11249999999999993 0.008333333333333331
v 0.0270810839843623 0.12499999999999994 1.3748197539026569e-18
v 0.013540541992181146 0.12499999999999994 -0.019444444444444438
v 0.013540541992181146 0.12499999999999994 0.019444444444444438
v 0.0270810839843623 0.1624999999999999 1.3748197539026569e-18
v 0.013540541992181146 0.1624999999999999 -0.019444444444444438
v 0.013540541992181146 0.1624999999999999 0.019444444444444438
v -0.029834391824351603 0 0.05
v -0.021928105739430534 0.09374999999999994 0.03333333333333334
v -0.05966878364870322 0 3.53525079574969e-18
v -0.04385621147886107 0.09374999999999994 2.3568338638331268e-18
v -0.029834391824351603 0 -0.05
v -0.021928105739430534 0.09374999999999994 -0.03333333333333334
v -0.011195251322933383 0.09374999999999994 -0.015555555555555555
v -0.022390502645866773 0.09374999999999994 1.0998558031221257e-18
v -0.011195251322933383 0.09374999999999994 0.015555555555555555
v -0.015458934734795322 0.11249999999999993 5.892084659582815e-19
v -0.007729467367397659 0.11249999999999993 -0.008333333333333331
v -0.007729467367397659 0.11249999999999993 0.008333333333333331
v -0.0270810839843623 0.12499999999999994 1.3748197539026569e-18
v -0.013540541992181146 0.12499999999999994 -0.019444444444444438
v -0.013540541992181146 0.12499999999999994 0.019444444444444438
v -0.0270810839843623 0.1624999999999999 1.3748197539026569e-18
v -0.013540541992181146 0.1624999999999999 -0.019444444444444438
v -0.013540541992181146 0.1624999999999999 0.019444444444444438
vt 0.0326625 0.875
vt 0.09233749999999999 0.875
vt 0.0625 0.925
vt 0.0014125000000000006 0.6875
vt 0.0610875 0.6875
vt 0.053175 0.8125
vt 0.009325 0.8125
vt 0.5447875 0.875
vt 0.5177125 0.875
vt 0.53125 0.85555625
vt 0.09233749999999999 0.975
vt 0.0326625 0.975
vt 0.0625 0.925
vt 0.1889125 0.875
vt 0.24858750000000002 0.875
vt 0.240675 1
vt 0.196825 1
vt 0.5177125 0.8361125
vt 0.5447875 0.8361125
vt 0.53125 0.85555625
vt 0.34818125 0.982225
vt 0.37056875 0.982225
vt 0.3813 1
vt 0.33745 1
vt 0.37056875 0.9511125
vt 0.34818125 0.9511125
vt 0.33745 0.9333375
vt 0.3813 0.9333375
vt 0.52335625 0.625
vt 0.50789375 0.625
vt 0.50443125 0.5625
vt 0.52681875 0.5625
vt 0.52335625 0.5
vt 0.50789375 0.5
vt 0.50443125 0.4375
vt 0.52681875 0.4375
vt 0.2791625 0.5
vt 0.2520875 0.5
vt 0.25789375 0.4375
vt 0.27335625 0.4375
vt 0.5291625 0.75
vt 0.5020875 0.75
vt 0.50789375 0.6875
vt 0.52335625 0.6875
vt 0.4375 0.8125
vt 0.375 0.8125
vt 0.375 0.75
vt 0.4375 0.75
vt 0.4375 0.6875
vt 0.375 0.6875
vt 0.375 0.625
vt 0.4375 0.625
vt 0.12216874999999999 0.925
vt 0.09233749999999999 0.975
vt 0.0625 0.925
vt 0.02543830152949618 0.625
vt 0.03169337878664669 0.5671119646774303
vt 0.125 0.5853413383021
vt 0.12096614841850546 0.625
vt 0.5447875 0.8361125
vt 0.55833125 0.85555625
vt 0.53125 0.85555625
vt 0.09233749999999999 0.875
vt 0.12216874999999999 0.925
vt 0.0625 0.925
vt 0.25 0.6875
vt 0.30822499999999997 0.6875
vt 0.2979625 0.8125
vt 0.2581 0.81221875
vt 0.55833125 0.85555625
vt 0.5447875 0.875
vt 0.53125 0.85555625
vt 0.37056875 0.982225
vt 0.3817625 0.96666875
vt 0.40323125 0.96666875
vt 0.3813 1
vt 0.3817625 0.96666875
vt 0.37056875 0.9511125
vt 0.3813 0.9333375
vt 0.40323125 0.96666875
vt 0.64108125 0.75
vt 0.6297125 0.75
vt 0.625 0.730575
vt 0.64401875 0.72995
vt 0.6515375 0.875
vt 0.64016875 0.875
vt 0.63723125 0.854825
vt 0.65625 0.8557
vt 0.64869375 0.98543125
vt 0.625 0.98543125
vt 0.63164375 0.96970625
vt 0.64289375 0.96875
vt 0.40625 0.42298125
vt 0.38255625 0.42298125
vt 0.38835625 0.40625
vt 0.39960625 0.40730625
vt 0.4375 0.5625
vt 0.375 0.5625
vt 0.375 0.5
vt 0.4375 0.5
vt 0.0625 0.5
vt 0 0.5
vt 0 0.4375
vt 0.0625 0.4375
vt 0.0326625 0.975
vt 0.0028312500000000004 0.925
vt 0.0625 0.925
vt 0.1331 0.81225
vt 0.125 0.6875
vt 0.183225 0.6875
vt 0.17296250000000002 0.8125
vt 0.50416875 0.85555625
vt 0.5177125 0.8361125
vt 0.53125 0.85555625
vt 0.0028312500000000004 0.925
vt 0.0326625 0.875
vt 0.0625 0.925
vt 0.3084980537173994 0.625
vt 0.21295156531875392 0.625
vt 0.2192054221848161 0.5671118328213891
vt 0.3125 0.5853378967556726
vt 0.5177125 0.875
vt 0.50416875 0.85555625
vt 0.53125 0.85555625
vt 0.31551875 0.96666875
vt 0.3369875 0.96666875
vt 0.34818125 0.982225
vt 0.33745 1
vt 0.33745 0.9333375
vt 0.34818125 0.9511125
vt 0.3369875 0.96666875
vt 0.31551875 0.96666875
vt 0.65625 0.605575
vt 0.6515375 0.625
vt 0.64016875 0.625
vt 0.63723125 0.60495
vt 0.26901875 0.35482499999999995
vt 0.26608125 0.375
vt 0.2547125 0.375
vt 0.25 0.3557
vt 0.14960625 0.34470625
vt 0.15625 0.36043125
vt 0.13255625 0.36043125
vt 0.13835625000000001 0.34375
vt 0.01789375 0.34375
vt 0.02369375 0.36048125
vt 0 0.36048125
vt 0.006643749999999999 0.34480625
vt 0.5625 0.9375
vt 0.5625 1
vt 0.5 1
vt 0.5 0.9375
vt 0.1875 0.4375
vt 0.1875 0.5
vt 0.125 0.5
vt 0.125 0.4375
vn 0 -1 0
vn 0 0.17503333471749458 -0.9845625077859067
vn 0 1 0
vn 0 -1 0
vn 0 0.17503333471749458 0.9845625077859067
vn 0 1 0
vn 0 1 0
vn 0 1 0
vn 0 0.3594422338570516 -0.933167337898114
vn 0 0.3594422338570516 0.933167337898114
vn 0 -0.6643638388299192 -0.7474093186836602
vn 0 -0.6643638388299192 0.7474093186836602
vn 0 0 -1
vn 0 0 1
vn 0 -1 0
vn 0.8498765775194649 0.14334650365317328 0.5071110163210931
vn 0 1 0
vn 0 -1 0
vn 0.8474902105884111 0.16137192955464136 -0.5056871001999383
vn 0 1 0
vn 0 1 0
vn 0 1 0
vn 0.7076396278802582 0.2616027806515916 -0.656361289389346
vn 0.6813273094998957 0.3693577334572367 0.6319556646355552
vn 0.652410246470421 -0.6065927405140803 -0.4543194002637598
vn 0.6131701411030677 -0.66460418639204 0.4269937394035406
vn 0.8206286749927221 0 -0.5714617903059568
vn 0.8206286749927221 0 0.5714617903059568
vn 0 -1 0
vn -0.8498765775194649 0.14334650365317328 0.5071110163210931
vn 0 1 0
vn 0 -1 0
vn -0.8474902105884111 0.16137192955464136 -0.5056871001999383
vn 0 1 0
vn 0 1 0
vn 0 1 0
vn -0.7076396278802584 0.26160278065159165 -0.656361289389346
vn -0.6813273094998957 0.3693577334572367 0.6319556646355552
vn -0.652410246470421 -0.6065927405140803 -0.4543194002637598
vn -0.6131701411030677 -0.66460418639204 0.4269937394035407
vn -0.8206286749927221 0 -0.5714617903059568
vn -0.8206286749927221 0 0.5714617903059568
usemtl m_a74a3911-6b60-d771-8d20-e6bf2f4ad442
f 25/1/1 7/2/1 1/3/1
f 7/4/2 25/5/2 26/6/2 8/7/2
f 19/8/3 37/9/3 2/10/3
f 3/11/4 21/12/4 1/13/4
f 21/14/5 3/15/5 4/16/5 22/17/5
f 38/18/6 20/19/6 2/20/6
f 27/21/7 9/22/7 8/23/7 26/24/7
f 11/25/8 29/26/8 22/27/8 4/28/8
f 31/29/9 13/30/9 9/31/9 27/32/9
f 14/33/10 32/34/10 29/35/10 11/36/10
f 34/37/11 16/38/11 13/39/11 31/40/11
f 17/41/12 35/42/12 32/43/12 14/44/12
f 37/45/13 19/46/13 16/47/13 34/48/13
f 20/49/14 38/50/14 35/51/14 17/52/14
f 5/53/15 3/54/15 1/55/15
f 3/56/16 5/57/16 6/58/16 4/59/16
f 20/60/17 18/61/17 2/62/17
f 7/63/18 5/64/18 1/65/18
f 5/66/19 7/67/19 8/68/19 6/69/19
f 18/70/20 19/71/20 2/72/20
f 9/73/21 10/74/21 6/75/21 8/76/21
f 10/77/22 11/78/22 4/79/22 6/80/22
f 13/81/23 12/82/23 10/83/23 9/84/23
f 12/85/24 14/86/24 11/87/24 10/88/24
f 16/89/25 15/90/25 12/91/25 13/92/25
f 15/93/26 17/94/26 14/95/26 12/96/26
f 19/97/27 18/98/27 15/99/27 16/100/27
f 18/101/28 20/102/28 17/103/28 15/104/28
f 21/105/29 23/106/29 1/107/29
f 24/108/30 23/109/30 21/110/30 22/111/30
f 36/112/31 38/113/31 2/114/31
f 23/115/32 25/116/32 1/117/32
f 26/118/33 25/119/33 23/120/33 24/121/33
f 37/122/34 36/123/34 2/124/34
f 24/125/35 28/126/35 27/127/35 26/128/35
f 22/129/36 29/130/36 28/131/36 24/132/36
f 28/133/37 30/134/37 31/135/37 27/136/37
f 29/137/38 32/138/38 30/139/38 28/140/38
f 30/141/39 33/142/39 34/143/39 31/144/39
f 32/145/40 35/146/40 33/147/40 30/148/40
f 33/149/41 36/150/41 37/151/41 34/152/41
f 35/153/42 38/154/42 36/155/42 33/156/42