# Made in Blockbench 4.12.5
mtllib weight_b.mtl

o cylinder
v 0 0 0
v 0 0.19999999999999993 0
v 0.039209391824351604 0 0.06875
v 0.02505310573943053 0.13124999999999998 0.03958333333333334
v 0.07841878364870322 0 4.860969844155823e-18
v 0.05010621147886106 0.13124999999999998 2.7987402133018382e-18
v 0.039209391824351604 0 -0.06875
v 0.02505310573943053 0.13124999999999998 -0.03958333333333334
v 0.012790699684952972 0.13124999999999998 -0.018472222222222223
v 0.02558139936990595 0.13124999999999998 1.3060787662075243e-18
v 0.012790699684952972 0.13124999999999998 0.018472222222222223
v 0.017662005607413704 0.14999999999999997 6.996850533254593e-19
v 0.008831002803706849 0.14999999999999997 -0.009895833333333331
v 0.008831002803706849 0.14999999999999997 0.009895833333333331
v 0.030940440941901754 0.16249999999999998 1.632598457759405e-18
v 0.015470220470950874 0.16249999999999998 -0.02309027777777777
v 0.015470220470950874 0.16249999999999998 0.02309027777777777
v 0.024690440941901752 0.19999999999999993 1.1906921082906936e-18
v 0.012345220470950873 0.19999999999999993 -0.016840277777777767
v 0.012345220470950873 0.19999999999999993 0.016840277777777767
v -0.039209391824351604 0 0.06875
v -0.02505310573943053 0.13124999999999998 0.03958333333333334
v -0.07841878364870322 0 4.860969844155823e-18
v -0.05010621147886106 0.13124999999999998 2.7987402133018382e-18
v -0.039209391824351604 0 -0.06875
v -0.02505310573943053 0.13124999999999998 -0.03958333333333334
v -0.012790699684952972 0.13124999999999998 -0.018472222222222223
v -0.02558139936990595 0.13124999999999998 1.3060787662075243e-18
v -0.012790699684952972 0.13124999999999998 0.018472222222222223
v -0.017662005607413704 0.14999999999999997 6.996850533254593e-19
v -0.008831002803706849 0.14999999999999997 -0.009895833333333331
v -0.008831002803706849 0.14999999999999997 0.009895833333333331
v -0.030940440941901754 0.16249999999999998 1.632598457759405e-18
v -0.015470220470950874 0.16249999999999998 -0.02309027777777777
v -0.015470220470950874 0.16249999999999998 0.02309027777777777
v -0.024690440941901752 0.19999999999999993 1.1906921082906936e-18
v -0.012345220470950873 0.19999999999999993 -0.016840277777777767
v -0.012345220470950873 0.19999999999999993 0.016840277777777767
vt 0.0545375 0.84375
vt 0.13296249999999998 0.84375
vt 0.09375 0.9125
vt 0 0.4302733846650463
vt 0.0625 0.42205781859495994
vt 0.0625 0.5572516753572034
vt 0.028169151625708863 0.5625
vt 0.60609375 0.625
vt 0.58140625 0.625
vt 0.59375 0.6081624999999999
vt 0.13296249999999998 0.98125
vt 0.0545375 0.98125
vt 0.09375 0.9125
vt 0.125 0.4302733846650463
vt 0.1875 0.42205781859495994
vt 0.1875 0.5572516753572034
vt 0.15316915162570888 0.5625
vt 0.58140625 0.591325
vt 0.60609375 0.591325
vt 0.59375 0.6081624999999999
vt 0.29970625 0.54139375
vt 0.32529375 0.54139375
vt 0.33755 0.5625
vt 0.28745 0.5625
vt 0.32529375 0.5044437500000001
vt 0.29970625 0.5044437500000001
vt 0.28745 0.4833375
vt 0.33755 0.4833375
vt 0.46195625 0.4375
vt 0.44429375 0.4375
vt 0.44033125 0.375
vt 0.46591875 0.375
vt 0.58695625 0.5
vt 0.56929375 0.5
vt 0.56533125 0.4375
vt 0.59091875 0.4375
vt 0.53109375 0.875
vt 0.50015625 0.875
vt 0.50679375 0.8125
vt 0.52445625 0.8125
vt 0.53109375 0.75
vt 0.50015625 0.75
vt 0.50679375 0.6875
vt 0.52445625 0.6875
vt 0.46546875 0.5625
vt 0.44078125 0.5625
vt 0.43765625 0.5
vt 0.46859375 0.5
vt 0.52796875 1
vt 0.50328125 1
vt 0.50015625 0.9375
vt 0.53109375 0.9375
vt 0.17216874999999998 0.9125
vt 0.13296249999999998 0.98125
vt 0.09375 0.9125
vt 0.01512594442626497 0.75
vt 0.02585115123386881 0.6715863334424628
vt 0.15625 0.7035775133524027
vt 0.15030418353347114 0.75
vt 0.60609375 0.591325
vt 0.6184375 0.6081624999999999
vt 0.59375 0.6081624999999999
vt 0.13296249999999998 0.84375
vt 0.17216874999999998 0.9125
vt 0.09375 0.9125
vt 0.375 0.6821131351048215
vt 0.4375 0.6713889108245163
vt 0.4375 0.8065795346326229
vt 0.4069878522156297 0.8125
vt 0.6184375 0.6081624999999999
vt 0.60609375 0.625
vt 0.59375 0.6081624999999999
vt 0.32529375 0.54139375
vt 0.33808125 0.52291875
vt 0.36260625 0.52291875
vt 0.33755 0.5625
vt 0.33808125 0.52291875
vt 0.32529375 0.5044437500000001
vt 0.33755 0.4833375
vt 0.36260625 0.52291875
vt 0.7685375 1
vt 0.75526875 1
vt 0.75 0.9803375
vt 0.7723 0.9795125
vt 0.71348125 0.625
vt 0.7002125 0.625
vt 0.69645 0.60434375
vt 0.71875 0.6055
vt 0.15279375 0.29913124999999996
vt 0.125 0.29913124999999996
vt 0.1323875 0.28245624999999996
vt 0.14552500000000002 0.28125
vt 0.03125 0.29918124999999995
vt 0.003456250000000001 0.29918124999999995
vt 0.010725 0.28125
vt 0.023862500000000002 0.28256250000000005
vt 0.649575 0.75
vt 0.62869375 0.75
vt 0.625 0.7121625
vt 0.65276875 0.71200625
vt 0.65255625 1
vt 0.631675 1
vt 0.62848125 0.9619875
vt 0.65625 0.96218125
vt 0.0545375 0.98125
vt 0.015331250000000005 0.9125
vt 0.09375 0.9125
vt 0.2819911799099398 0.8125
vt 0.25 0.6821011512338688
vt 0.3125 0.671375944426265
vt 0.3125 0.8065541835334712
vt 0.5690625 0.6081624999999999
vt 0.58140625 0.591325
vt 0.59375 0.6081624999999999
vt 0.015331250000000005 0.9125
vt 0.0545375 0.84375
vt 0.09375 0.9125
vt 0.40032953463262294 1
vt 0.26513891082451635 1
vt 0.27586313510482147 0.9215861990613373
vt 0.40625 0.953574051276967
vt 0.58140625 0.625
vt 0.5690625 0.6081624999999999
vt 0.59375 0.6081624999999999
vt 0.26239375 0.52291875
vt 0.28691875 0.52291875
vt 0.29970625 0.54139375
vt 0.28745 0.5625
vt 0.28745 0.4833375
vt 0.29970625 0.5044437500000001
vt 0.28691875 0.52291875
vt 0.26239375 0.52291875
vt 0.71875 0.3553375
vt 0.71348125 0.375
vt 0.7002125 0.375
vt 0.69645 0.3545125
vt 0.7098 0.47934374999999996
vt 0.7060375 0.5
vt 0.69276875 0.5
vt 0.6875 0.48050000000000004
vt 0.3988625 0.28245624999999996
vt 0.40625 0.29913124999999996
vt 0.37845625 0.29913124999999996
vt 0.385725 0.28125
vt 0.583025 0.34375
vt 0.59029375 0.36168124999999995
vt 0.5625 0.36168124999999995
vt 0.5698875 0.34506250000000005
vt 0.28125 0.33716250000000003
vt 0.27755625 0.375
vt 0.256675 0.375
vt 0.25348125 0.33700624999999995
vt 0.65276875 0.8369875
vt 0.649575 0.875
vt 0.62869375 0.875
vt 0.625 0.83718125
vn 0 -1 0
vn 0 0.2169304578186562 -0.9761870601839527
vn 0 1 0
vn 0 -1 0
vn 0 0.2169304578186562 0.9761870601839527
vn 0 1 0
vn 0 1 0
vn 0 1 0
vn 0 0.4159587426259822 -0.9093834859029561
vn 0 0.4159587426259822 0.9093834859029561
vn 0 -0.7259526839058261 -0.6877446479107837
vn 0 -0.7259526839058261 0.6877446479107837
vn 0 0.16439898730535757 -0.9863939238321437
vn 0 0.16439898730535757 0.9863939238321437
vn 0 -1 0
vn 0.8537981987483501 0.1841769380612869 0.48693684528945014
vn 0 1 0
vn 0 -1 0
vn 0.8511646810525451 0.19967884719469747 -0.4854349016209238
vn 0 1 0
vn 0 1 0
vn 0 1 0
vn 0.711610369017903 0.3005612116120101 -0.6350382986722332
vn 0.6772865597141352 0.4194926071960187 0.6044078660461643
vn 0.6228973296577519 -0.661688152950859 -0.4173340448007121
vn 0.5790523768767387 -0.7170680586718049 0.3879584308480079
vn 0.7993148831506012 0.13321914719176708 -0.5859593641161809
vn 0.795648580763742 0.16351599541811757 0.5832716821268329
vn 0 -1 0
vn -0.8537981987483502 0.18417693806128693 0.48693684528945014
vn 0 1 0
vn 0 -1 0
vn -0.8511646810525451 0.19967884719469747 -0.48543490162092373
vn 0 1 0
vn 0 1 0
vn 0 1 0
vn -0.7116103690179032 0.30056121161201016 -0.635038298672233
vn -0.6772865597141352 0.4194926071960188 0.6044078660461643
vn -0.6228973296577519 -0.661688152950859 -0.4173340448007121
vn -0.5790523768767387 -0.7170680586718049 0.38795843084800785
vn -0.7993148831506012 0.13321914719176706 -0.5859593641161809
vn -0.795648580763742 0.1635159954181176 0.5832716821268329
usemtl m_82a78ad6-8c0d-9402-0491-3d2edc750a6f
f 25/1/1 7/2/1 1/3/1
f 7/4/2 25/5/2 26/6/2 8/7/2
f 19/8/3 37/9/3 2/10/3
f 3/11/4 21/12/4 1/13/4
f 21/14/5 3/15/5 4/16/5 22/17/5
f 38/18/6 20/19/6 2/20/6
f 27/21/7 9/22/7 8/23/7 26/24/7
f 11/25/8 29/26/8 22/27/8 4/28/8
f 31/29/9 13/30/9 9/31/9 27/32/9
f 14/33/10 32/34/10 29/35/10 11/36/10
f 34/37/11 16/38/11 13/39/11 31/40/11
f 17/41/12 35/42/12 32/43/12 14/44/12
f 37/45/13 19/46/13 16/47/13 34/48/13
f 20/49/14 38/50/14 35/51/14 17/52/14
f 5/53/15 3/54/15 1/55/15
f 3/56/16 5/57/16 6/58/16 4/59/16
f 20/60/17 18/61/17 2/62/17
f 7/63/18 5/64/18 1/65/18
f 5/66/19 7/67/19 8/68/19 6/69/19
f 18/70/20 19/71/20 2/72/20
f 9/73/21 10/74/21 6/75/21 8/76/21
f 10/77/22 11/78/22 4/79/22 6/80/22
f 13/81/23 12/82/23 10/83/23 9/84/23
f 12/85/24 14/86/24 11/87/24 10/88/24
f 16/89/25 15/90/25 12/91/25 13/92/25
f 15/93/26 17/94/26 14/95/26 12/96/26
f 19/97/27 18/98/27 15/99/27 16/100/27
f 18/101/28 20/102/28 17/103/28 15/104/28
f 21/105/29 23/106/29 1/107/29
f 24/108/30 23/109/30 21/110/30 22/111/30
f 36/112/31 38/113/31 2/114/31
f 23/115/32 25/116/32 1/117/32
f 26/118/33 25/119/33 23/120/33 24/121/33
f 37/122/34 36/123/34 2/124/34
f 24/125/35 28/126/35 27/127/35 26/128/35
f 22/129/36 29/130/36 28/131/36 24/132/36
f 28/133/37 30/134/37 31/135/37 27/136/37
f 29/137/38 32/138/38 30/139/38 28/140/38
f 30/141/39 33/142/39 34/143/39 31/144/39
f 32/145/40 35/146/40 33/147/40 30/148/40
f 33/149/41 36/150/41 37/151/41 34/152/41
f 35/153/42 38/154/42 36/155/42 33/156/42