# Made in Blockbench 4.12.5
mtllib wing.mtl

o turbine
v 4.59375 0.25 3.96875
v 5.42217712474619 2 3.9687500000000004
v 5.42217712474619 2.0000000000000004 1.9687500000000004
v 6.59375 1.0784271247461903 3.96875
v 6.59375 1.0784271247461907 1.9687500000000002
v 6.59375 -0.5784271247461901 3.96875
v 6.59375 -0.5784271247461896 1.96875
v 5.42217712474619 -1.5 3.9687499999999996
v 5.42217712474619 -1.4999999999999996 1.9687499999999996
v 3.76532287525381 -1.5000000000000004 3.9687499999999996
v 3.76532287525381 -1.5 1.9687499999999996
v 2.5937500000000004 -0.5784271247461914 3.96875
v 2.5937500000000004 -0.578427124746191 1.96875
v 2.59375 1.0784271247461907 3.96875
v 2.59375 1.0784271247461912 1.9687500000000002
v 3.7653228752538084 1.9999999999999996 3.9687500000000004
v 3.7653228752538084 2 1.9687500000000004
v 3.8688762658470823 1.75 1.9687500000000002
v 5.318623734152917 1.7500000000000007 1.9687500000000004
v 6.34375 0.974873734152917 1.9687500000000002
v 6.34375 -0.4748737341529159 1.96875
v 5.318623734152917 -1.2499999999999996 1.9687499999999996
v 3.8688762658470837 -1.2500000000000002 1.9687499999999996
v 2.8437500000000004 -0.474873734152917 1.96875
v 2.84375 0.9748737341529173 1.9687500000000002
v 4.050094699385312 1.5625 1.9687500000000002
v 5.137405300614687 1.5625000000000009 1.9687500000000002
v 5.90625 0.7936553006146878 1.9687500000000002
v 5.90625 -0.2936553006146868 1.96875
v 5.137405300614688 -1.0624999999999996 1.9687499999999996
v 4.050094699385313 -1.0625 1.9687499999999996
v 3.2812500000000004 -0.2936553006146876 1.96875
v 3.28125 0.7936553006146881 1.9687500000000002
v 5.318623734152917 1.7500000000000007 1.5937500000000004
v 3.8688762658470823 1.75 1.5937500000000004
v 3.7653228752538084 2 1.5937500000000004
v 5.42217712474619 2.0000000000000004 1.5937500000000004
v 2.84375 0.9748737341529174 1.59375
v 2.59375 1.0784271247461912 1.59375
v 2.8437500000000004 -0.4748737341529169 1.59375
v 2.5937500000000004 -0.5784271247461908 1.59375
v 3.8688762658470837 -1.2500000000000002 1.5937499999999996
v 3.76532287525381 -1.5 1.5937499999999996
v 5.318623734152917 -1.2499999999999996 1.5937499999999996
v 5.42217712474619 -1.4999999999999996 1.5937499999999996
v 6.34375 -0.4748737341529158 1.59375
v 6.59375 -0.5784271247461895 1.59375
v 6.34375 0.9748737341529171 1.59375
v 6.59375 1.0784271247461907 1.59375
v 4.050094699385312 1.5625 1.6562500000000004
v 5.137405300614687 1.5625000000000009 1.6562500000000004
v 5.90625 0.7936553006146879 1.65625
v 5.90625 -0.2936553006146867 1.65625
v 5.137405300614688 -1.0624999999999996 1.6562499999999996
v 4.050094699385313 -1.0625 1.6562499999999996
v 3.2812500000000004 -0.2936553006146875 1.65625
v 3.28125 0.7936553006146883 1.65625
v 4.25720148057186 1.0625000000000004 1.34375
v 4.93029851942814 1.0625000000000009 1.34375
v 4.59375 0.25000000000000056 1.09375
v 5.40625 0.5865485194281405 1.34375
v 5.40625 -0.08654851942813924 1.34375
v 4.93029851942814 -0.5624999999999997 1.34375
v 4.25720148057186 -0.5624999999999999 1.34375
v 3.78125 -0.08654851942813968 1.34375
v 3.78125 0.5865485194281407 1.34375
vt 0.6572266096376471 0.6631051840139297
vt 0.5840034003586047 0.7207039047379362
vt 0.5322263837190201 0.6113285279356103
vt 0.410744140625 0.1953125
vt 0.50390625 0.1953125
vt 0.50390625 0.3203125
vt 0.410744140625 0.3203125
vt 0.8969344675357412 0.1328125000000001
vt 0.8671875 0.10306553246425887
vt 0.9179687499999999 0.08203125
vt 0.6572266096376471 0.5595520590139296
vt 0.6572266096376471 0.6631051840139297
vt 0.5322266096376471 0.6113286215139296
vt 0.5204890625 0.34765625
vt 0.6240421875 0.34765625
vt 0.6240421875 0.47265625
vt 0.5204890625 0.47265625
vt 0.8671875 0.10306553246425887
vt 0.8671875 0.06099696753574135
vt 0.9179687499999999 0.08203125
vt 0.5840034003586047 0.5019533382899231
vt 0.6572266096376471 0.5595520590139296
vt 0.5322263837190201 0.611328715092249
vt 0.09765625 0.21484375
vt 0.19081835937500002 0.21484375
vt 0.19081835937500002 0.33984375
vt 0.09765625 0.33984375
vt 0.8671875 0.06099696753574135
vt 0.8969344675357412 0.03125000000000022
vt 0.9179687499999999 0.08203125
vt 0.48045027535882423 0.501953125
vt 0.5840034003586047 0.5019533382899231
vt 0.5322266125773882 0.6113282316447295
vt 0.4111140625 0.34765625
vt 0.5146671875 0.34765625
vt 0.5146671875 0.47265625
vt 0.4111140625 0.47265625
vt 0.8969344675357412 0.03125000000000022
vt 0.9390030324642586 0.03125
vt 0.9179687499999999 0.08203125
vt 0.40722696530087826 0.5595511666785506
vt 0.48045027535882423 0.501953125
vt 0.5322266053587277 0.6113282163956444
vt 0.0005875000000000047 0.21484375
vt 0.09375 0.21484375
vt 0.09375 0.33984375
vt 0.0005875000000000047 0.33984375
vt 0.9390030324642586 0.03125
vt 0.96875 0.06099696753574135
vt 0.9179687499999999 0.08203125
vt 0.4072265153623529 0.6631042916775731
vt 0.40722696530087826 0.5595511666785506
vt 0.5322267403304356 0.6113282723033
vt 0.6298640625 0.37890625
vt 0.7334171875 0.37890625
vt 0.7334171875 0.50390625
vt 0.6298640625 0.50390625
vt 0.96875 0.06099696753574135
vt 0.96875 0.10306553246425887
vt 0.9179687499999999 0.08203125
vt 0.48045027535882423 0.7207041180278592
vt 0.4072269653008783 0.6631060763493085
vt 0.5322266053587277 0.6113290266322149
vt 0.62890625 0.2265625
vt 0.72206875 0.2265625
vt 0.72206875 0.3515625
vt 0.62890625 0.3515625
vt 0.96875 0.10306553246425887
vt 0.9390030324642586 0.1328125000000001
vt 0.9179687499999999 0.08203125
vt 0.5840034003586047 0.7207039047379362
vt 0.48045027535882423 0.7207041180278592
vt 0.5322266125773883 0.6113290113831297
vt 0.50779375 0.1953125
vt 0.611346875 0.1953125
vt 0.611346875 0.3203125
vt 0.50779375 0.3203125
vt 0.9390030324642586 0.1328125000000001
vt 0.8969344675357412 0.1328125000000001
vt 0.9179687499999999 0.08203125
vt 0.07969539161544267 0.984375
vt 0.17030460838455738 0.984375
vt 0.17677669529663695 1
vt 0.07322330470336316 1
vt 0.015625 0.9359296083845573
vt 0.07969539161544267 0.984375
vt 0.07322330470336316 1
vt 0 0.942401695296637
vt 0.015625 0.8453203916154428
vt 0.015625 0.9359296083845573
vt 0 0.942401695296637
vt 0 0.8388483047033632
vt 0.07969539161544267 0.796875
vt 0.015625 0.8453203916154428
vt 0 0.8388483047033632
vt 0.07322330470336316 0.7812500000000001
vt 0.17030460838455727 0.796875
vt 0.07969539161544267 0.796875
vt 0.07322330470336316 0.7812500000000001
vt 0.1767766952966369 0.78125
vt 0.23437499999999997 0.8453203916154427
vt 0.17030460838455727 0.796875
vt 0.1767766952966369 0.78125
vt 0.24999999999999997 0.8388483047033631
vt 0.23437499999999997 0.9359296083845573
vt 0.23437499999999997 0.8453203916154427
vt 0.24999999999999997 0.8388483047033631
vt 0.24999999999999997 0.942401695296637
vt 0.17030460838455738 0.984375
vt 0.23437499999999997 0.9359296083845573
vt 0.24999999999999997 0.942401695296637
vt 0.17677669529663695 1
vt 0.09102154371158208 0.97265625
vt 0.15897845628841803 0.97265625
vt 0.17030460838455738 0.984375
vt 0.07969539161544267 0.984375
vt 0.04296875000000008 0.924603456288418
vt 0.09102154371158208 0.97265625
vt 0.07969539161544267 0.984375
vt 0.015625 0.9359296083845573
vt 0.04296875000000008 0.8566465437115821
vt 0.04296875000000008 0.924603456288418
vt 0.015625 0.9359296083845573
vt 0.015625 0.8453203916154428
vt 0.09102154371158208 0.8085937500000001
vt 0.04296875000000008 0.8566465437115821
vt 0.015625 0.8453203916154428
vt 0.07969539161544267 0.7968750000000001
vt 0.15897845628841797 0.80859375
vt 0.09102154371158208 0.8085937500000001
vt 0.07969539161544267 0.7968750000000001
vt 0.17030460838455727 0.796875
vt 0.20703124999999997 0.856646543711582
vt 0.15897845628841797 0.80859375
vt 0.17030460838455727 0.796875
vt 0.23437499999999997 0.8453203916154427
vt 0.20703125000000003 0.924603456288418
vt 0.20703124999999997 0.856646543711582
vt 0.23437499999999997 0.8453203916154427
vt 0.23437499999999997 0.9359296083845573
vt 0.15897845628841803 0.97265625
vt 0.20703125000000003 0.924603456288418
vt 0.23437499999999997 0.9359296083845573
vt 0.17030460838455738 0.984375
vt 0.21875 0.61328125
vt 0.12890625 0.61328125
vt 0.12890625 0.58984375
vt 0.21875 0.58984375
vt 0.611346875 0.34375
vt 0.50779375 0.34375
vt 0.50779375 0.3203125
vt 0.611346875 0.3203125
vt 0.5390625 0.05078125
vt 0.45703125 0.05078125
vt 0.45703125 0.02734375
vt 0.5390625 0.02734375
vt 0.72206875 0.375
vt 0.62890625 0.375
vt 0.62890625 0.3515625
vt 0.72206875 0.3515625
vt 0.08984375 0.2109375
vt 0 0.2109375
vt 0 0.1875
vt 0.08984375 0.1875
vt 0.7334171875 0.52734375
vt 0.6298640625 0.52734375
vt 0.6298640625 0.50390625
vt 0.7334171875 0.50390625
vt 0.5390625 0.0234375
vt 0.45703125 0.0234375
vt 0.45703125 0
vt 0.5390625 0
vt 0.09375 0.36328125
vt 0.0005875000000000047 0.36328125
vt 0.0005875000000000047 0.33984375
vt 0.09375 0.33984375
vt 0.1875 0.5859375
vt 0.09765625 0.5859375
vt 0.09765625 0.5625
vt 0.1875 0.5625
vt 0.5146671875 0.49609375
vt 0.4111140625 0.49609375
vt 0.4111140625 0.47265625
vt 0.5146671875 0.47265625
vt 0.1640625 0.52734375
vt 0.08203125 0.52734375
vt 0.08203125 0.50390625
vt 0.1640625 0.50390625
vt 0.19081835937500002 0.36328125
vt 0.09765625 0.36328125
vt 0.09765625 0.33984375
vt 0.19081835937500002 0.33984375
vt 0.40234375 0.0703125
vt 0.3125 0.0703125
vt 0.3125 0.046875
vt 0.40234375 0.046875
vt 0.6240421875 0.49609375
vt 0.5204890625 0.49609375
vt 0.5204890625 0.47265625
vt 0.6240421875 0.47265625
vt 0.13671875 0.5
vt 0.0546875 0.5
vt 0.0546875 0.4765625
vt 0.13671875 0.4765625
vt 0.50390625 0.34375
vt 0.410744140625 0.34375
vt 0.410744140625 0.3203125
vt 0.50390625 0.3203125
vt 0.1875 0.47265625
vt 0.12109375 0.47265625
vt 0.12109375 0.453125
vt 0.1875 0.453125
vt 0.12109375 0.44921875
vt 0.0546875 0.44921875
vt 0.0546875 0.4296875
vt 0.12109375 0.4296875
vt 0.12109375 0.77734375
vt 0.0546875 0.77734375
vt 0.0546875 0.7578125
vt 0.12109375 0.7578125
vt 0.19140625 0.44921875
vt 0.125 0.44921875
vt 0.125 0.4296875
vt 0.19140625 0.4296875
vt 0.1171875 0.47265625
vt 0.05078125 0.47265625
vt 0.05078125 0.453125
vt 0.1171875 0.453125
vt 0.609375 0.05078125
vt 0.54296875 0.05078125
vt 0.54296875 0.03125
vt 0.609375 0.03125
vt 0.40234375 0.09375
vt 0.3359375 0.09375
vt 0.3359375 0.07421875
vt 0.40234375 0.07421875
vt 0.609375 0.02734375
vt 0.54296875 0.02734375
vt 0.54296875 0.0078125
vt 0.609375 0.0078125
vt 0.8969344675357412 0.1328125000000001
vt 0.9390030324642586 0.1328125000000001
vt 0.951947206288418 0.1640625
vt 0.883990293711582 0.1640625
vt 0.8671875 0.10306553246425887
vt 0.8969344675357412 0.1328125000000001
vt 0.883990293711582 0.1640625
vt 0.8359375 0.116009706288418
vt 0.8671875 0.06099696753574135
vt 0.8671875 0.10306553246425887
vt 0.8359375 0.116009706288418
vt 0.8359375 0.04805279371158222
vt 0.8969344675357412 0.03125000000000022
vt 0.8671875 0.06099696753574135
vt 0.8359375 0.04805279371158222
vt 0.883990293711582 0
vt 0.9390030324642586 0.03125
vt 0.8969344675357412 0.03125000000000022
vt 0.883990293711582 0
vt 0.9519472062884179 0
vt 0.96875 0.06099696753574135
vt 0.9390030324642586 0.03125
vt 0.9519472062884179 0
vt 1 0.04805279371158211
vt 0.96875 0.10306553246425887
vt 0.96875 0.06099696753574135
vt 1 0.04805279371158211
vt 1 0.116009706288418
vt 0.9390030324642586 0.1328125000000001
vt 0.96875 0.10306553246425887
vt 1 0.116009706288418
vt 0.951947206288418 0.1640625
vn 1.6343890428754376e-17 -2.615022468600699e-16 1
vn 0.6182575465674037 0.7859755760279415 1.745216362598482e-16
vn 0.20795009796401454 0.20795009796401465 -0.9557790087219502
vn 0 -2.220446049250313e-16 1
vn 1 0 0
vn 0.29408584883752314 2.1222557238730349e-16 -0.9557790087219502
vn -1.634389042875437e-17 -2.615022468600699e-16 1
vn 0.618257546567404 -0.7859755760279415 -1.745216362598482e-16
vn 0.20795009796401465 -0.20795009796401417 -0.9557790087219502
vn 8.502137036653944e-33 -2.5376526277146434e-16 1
vn 2.6803154833089315e-16 -1 -2.220446049250313e-16
vn 9.701450511523233e-17 -0.29408584883752287 -0.9557790087219503
vn 1.63438904287544e-17 -2.615022468600699e-16 1
vn -0.6182575465674035 -0.7859755760279418 -1.7452163625984824e-16
vn -0.2079500979640145 -0.20795009796401426 -0.9557790087219502
vn 0 -2.220446049250313e-16 1
vn -1 -1.3401577416544645e-16 -2.9757479628288774e-32
vn -0.2940858488375232 1.152110672720712e-16 -0.9557790087219502
vn -1.6343890428754398e-17 -2.6150224686006997e-16 1
vn -0.618257546567404 0.7859755760279414 1.7452163625984816e-16
vn -0.20795009796401448 0.20795009796401465 -0.9557790087219501
vn 8.502137036653936e-33 -2.5376526277146434e-16 1
vn -2.680315483308929e-16 1 2.220446049250313e-16
vn -2.4253626278808074e-16 0.29408584883752326 -0.9557790087219501
vn 0 2.220446049250313e-16 -1
vn 0 2.220446049250313e-16 -1
vn 0 2.220446049250313e-16 -1
vn 0 2.220446049250313e-16 -1
vn 0 2.220446049250313e-16 -1
vn 0 2.220446049250313e-16 -1
vn 0 2.220446049250313e-16 -1
vn 0 2.220446049250313e-16 -1
vn 0 2.220446049250313e-16 -1
vn 0 2.220446049250313e-16 -1
vn 0 2.220446049250313e-16 -1
vn 0 2.220446049250313e-16 -1
vn 0 2.220446049250313e-16 -1
vn 0 2.220446049250313e-16 -1
vn 0 2.220446049250313e-16 -1
vn 0 2.220446049250313e-16 -1
vn 4.594826542815307e-16 -1 -2.220446049250313e-16
vn -2.6803154833089285e-16 1 2.220446049250313e-16
vn 0.6031235212824374 -0.7976478032790371 -1.7711339134841288e-16
vn -0.6182575465674041 0.7859755760279415 1.745216362598482e-16
vn 1 3.0632176952102037e-16 6.801709629323146e-32
vn -1 -1.3401577416544643e-16 -2.975747962828877e-32
vn 0.6031235212824374 0.7976478032790371 1.7711339134841288e-16
vn -0.6182575465674035 -0.7859755760279418 -1.7452163625984824e-16
vn -4.594826542815311e-16 1 2.220446049250313e-16
vn 2.6803154833089315e-16 -1 -2.220446049250313e-16
vn -0.6031235212824375 0.797647803279037 1.7711339134841285e-16
vn 0.618257546567404 -0.7859755760279417 -1.7452163625984821e-16
vn -1 0 0
vn 1 0 0
vn -0.6031235212824374 -0.797647803279037 -1.7711339134841285e-16
vn 0.6182575465674038 0.7859755760279417 1.7452163625984821e-16
vn -8.168580520560548e-16 1 2.220446049250313e-16
vn 0.7071067811865476 0.7071067811865475 1.570092458683775e-16
vn 1 0 0
vn 0.7071067811865477 -0.7071067811865474 -1.5700924586837747e-16
vn 4.084290260280276e-16 -1 -2.220446049250313e-16
vn -0.7071067811865476 -0.7071067811865476 -1.5700924586837752e-16
vn -1 -4.084290260280272e-16 -9.068946172430863e-32
vn -0.7071067811865475 0.7071067811865476 1.5700924586837752e-16
vn -4.3709672770087504e-16 0.5299989400031804 -0.8479983040050878
vn 0.3747658444979309 0.3747658444979309 -0.847998304005088
vn 0.5299989400031799 1.8829344838990636e-16 -0.847998304005088
vn 0.37476584449793093 -0.3747658444979303 -0.8479983040050881
vn 1.7483869108035007e-16 -0.5299989400031798 -0.8479983040050881
vn -0.37476584449793077 -0.37476584449793054 -0.847998304005088
vn -0.52999894000318 1.3454757309556438e-17 -0.847998304005088
vn -0.3747658444979307 0.37476584449793077 -0.8479983040050881
usemtl m_4342e827-f96a-0011-582c-4d93608764bc
f 4/1/1 2/2/1 1/3/1
f 2/4/2 4/5/2 5/6/2 3/7/2
f 59/8/3 61/9/3 60/10/3
f 6/11/4 4/12/4 1/13/4
f 4/14/5 6/15/5 7/16/5 5/17/5
f 61/18/6 62/19/6 60/20/6
f 8/21/7 6/22/7 1/23/7
f 6/24/8 8/25/8 9/26/8 7/27/8
f 62/28/9 63/29/9 60/30/9
f 10/31/10 8/32/10 1/33/10
f 8/34/11 10/35/11 11/36/11 9/37/11
f 63/38/12 64/39/12 60/40/12
f 12/41/13 10/42/13 1/43/13
f 10/44/14 12/45/14 13/46/14 11/47/14
f 64/48/15 65/49/15 60/50/15
f 14/51/16 12/52/16 1/53/16
f 12/54/17 14/55/17 15/56/17 13/57/17
f 65/58/18 66/59/18 60/60/18
f 16/61/19 14/62/19 1/63/19
f 14/64/20 16/65/20 17/66/20 15/67/20
f 66/68/21 58/69/21 60/70/21
f 2/71/22 16/72/22 1/73/22
f 16/74/23 2/75/23 3/76/23 17/77/23
f 58/78/24 59/79/24 60/80/24
f 34/81/25 35/82/25 36/83/25 37/84/25
f 48/85/26 34/86/26 37/87/26 49/88/26
f 46/89/27 48/90/27 49/91/27 47/92/27
f 44/93/28 46/94/28 47/95/28 45/96/28
f 42/97/29 44/98/29 45/99/29 43/100/29
f 40/101/30 42/102/30 43/103/30 41/104/30
f 38/105/31 40/106/31 41/107/31 39/108/31
f 35/109/32 38/110/32 39/111/32 36/112/32
f 27/113/33 26/114/33 18/115/33 19/116/33
f 28/117/34 27/118/34 19/119/34 20/120/34
f 29/121/35 28/122/35 20/123/35 21/124/35
f 30/125/36 29/126/36 21/127/36 22/128/36
f 31/129/37 30/130/37 22/131/37 23/132/37
f 32/133/38 31/134/38 23/135/38 24/136/38
f 33/137/39 32/138/39 24/139/39 25/140/39
f 26/141/40 33/142/40 25/143/40 18/144/40
f 35/145/41 34/146/41 19/147/41 18/148/41
f 37/149/42 36/150/42 17/151/42 3/152/42
f 38/153/43 35/154/43 18/155/43 25/156/43
f 36/157/44 39/158/44 15/159/44 17/160/44
f 40/161/45 38/162/45 25/163/45 24/164/45
f 39/165/46 41/166/46 13/167/46 15/168/46
f 42/169/47 40/170/47 24/171/47 23/172/47
f 41/173/48 43/174/48 11/175/48 13/176/48
f 44/177/49 42/178/49 23/179/49 22/180/49
f 43/181/50 45/182/50 9/183/50 11/184/50
f 46/185/51 44/186/51 22/187/51 21/188/51
f 45/189/52 47/190/52 7/191/52 9/192/52
f 48/193/53 46/194/53 21/195/53 20/196/53
f 47/197/54 49/198/54 5/199/54 7/200/54
f 34/201/55 48/202/55 20/203/55 19/204/55
f 49/205/56 37/206/56 3/207/56 5/208/56
f 51/209/57 50/210/57 26/211/57 27/212/57
f 52/213/58 51/214/58 27/215/58 28/216/58
f 53/217/59 52/218/59 28/219/59 29/220/59
f 54/221/60 53/222/60 29/223/60 30/224/60
f 55/225/61 54/226/61 30/227/61 31/228/61
f 56/229/62 55/230/62 31/231/62 32/232/62
f 57/233/63 56/234/63 32/235/63 33/236/63
f 50/237/64 57/238/64 33/239/64 26/240/64
f 59/241/65 58/242/65 50/243/65 51/244/65
f 61/245/66 59/246/66 51/247/66 52/248/66
f 62/249/67 61/250/67 52/251/67 53/252/67
f 63/253/68 62/254/68 53/255/68 54/256/68
f 64/257/69 63/258/69 54/259/69 55/260/69
f 65/261/70 64/262/70 55/263/70 56/264/70
f 66/265/71 65/266/71 56/267/71 57/268/71
f 58/269/72 66/270/72 57/271/72 50/272/72
o wing
v 3.75 1.9687499999999991 3.9687500000000004
v 3.75 -1.5000000000000009 3.7499999999999987
v -5 -1.9999999999999998 -0.8437500000000011
v -5 1.232595164407831e-32 -0.031250000000000056
v 3.75 -0.49999999999999983 2.75
v 3.75 0.7812499999999993 3
v -5 -1.25 -0.046875000000000666
v 3.75 -1.1250000000000007 3.1562499999999996
v -4 1.9999999999999998 1.0000000000000009
v -4 0.9999999999999999 0.25000000000000044
v -4 9.244463733058732e-33 -4.163336342344337e-17
v -4 -1 0.40624999999999933
v -4 -2 0.9999999999999989
v -4.5 1.9999999999999998 0.9531250000000009
v -4.5 1.25 -0.046874999999999556
v -4.5 9.244463733058732e-33 -0.04687500000000004
v -4.5 -1.25 -0.015625000000000666
v -4.5 -2 -0.01562500000000111
v -6.875 1.25 -0.031249999999999556
v -6.875 2 -0.7812499999999991
v -4.75 2 -0.7812499999999991
v -4.75 1.25 -0.031249999999999556
v -5.5 1.232595164407831e-32 -0.031250000000000056
v -5.5 1.25 -0.031249999999999556
v -5.000003390566091 -1.25 -0.3430989936517308
vt 0.3359375 0.923828125
vt 0.8203124999999999 0.9375
vt 0.8203124999999999 1
vt 0.3359375 0.998046875
vt 0.3359375 0.8046875
vt 0.8203124999999999 0.8125000000000001
vt 0.8203124999999999 0.875
vt 0.3359375 0.8437500000000001
vt 0.3359375 0.8437500000000001
vt 0.8203124999999999 0.875
vt 0.8203124999999999 0.9375
vt 0.3359375 0.923828125
vt 0.3359375 0.7812500000000001
vt 0.8203124999999999 0.7500000000000001
vt 0.8203124999999999 0.8125000000000001
vt 0.3359375 0.8046875
vt 0.8203124999999999 0.9375
vt 0.8515625 0.953125
vt 0.8515625 1
vt 0.8203124999999999 1
vt 0.8203124999999999 0.875
vt 0.8515625 0.875
vt 0.8515625 0.953125
vt 0.8203124999999999 0.9375
vt 0.8203124999999999 0.8125000000000001
vt 0.8515625 0.7968750000000001
vt 0.8515625 0.875
vt 0.8203124999999999 0.875
vt 0.8203124999999999 0.7500000000000001
vt 0.8515625 0.7500000000000001
vt 0.8515625 0.7968750000000001
vt 0.8203124999999999 0.8125000000000001
vt 0.8671875 0.953125
vt 0.8515625 0.953125
vt 0.8515625 0.875
vt 0.8828125 0.875
vt 0.8828125 0.875
vt 0.8515625 0.875
vt 0.8515625 0.7968750000000001
vt 0.8828125 0.7968750000000001
vt 1 1
vt 0.8671875 1
vt 0.8671875 0.953125
vt 1 0.953125
vt 0.8828125 0.875
vt 0.9140625 0.875
vt 0.9140625 0.953125
vt 0.8671875 0.953125
vt 0.8515625 0.953125
vt 0.8671875 0.953125
vt 0.8671875 1
vt 0.8515625 1
vt 0.8515625 0.953125
vt 0.8671875 1
vt 0.8828125 0.7506982791932183
vt 0.9140625 0.7516748416932179
vt 0.8828122880896194 0.7721419662964407
vt 0.8831165031325997 0.7500000000000001
vt 0.8831167150429803 0.7968750000000001
vt 0.8518665031325997 0.7968750000000001
vt 0.8518665031325997 0.7968750000000001
vt 0.8518665031325997 0.7500000000000001
vt 0.8831165031325997 0.7500000000000001
vn 0.28805631055906306 0.5745680832599012 -0.7660907776798673
vn 0.3070846347328711 -0.3581913395002802 -0.8817017587699222
vn 0.33862915025668683 0.2282066012599414 -0.9128264050397648
vn 0.3202444307295243 -0.4836512043581785 -0.8145704494453543
vn 0.6031856320710153 0.6380806686371071 -0.47856050147783
vn 0.09334070869305827 3.868816146565544e-16 -0.9956342260592882
vn 0.6502830814846039 -0.018986367342615804 -0.759454693704647
vn 0.897170676040539 2.288382946760555e-16 -0.44168402512765
vn -0.06237828615518055 3.878213333463732e-16 -0.9980525784828888
vn -0.03122500560449867 -0.02498000448359846 -0.9992001793439583
vn 0 -0.7071067811865474 -0.7071067811865478
vn 0 3.9968028886505636e-16 -1
vn -0.0441510785688348 -0.7064172571013565 -0.7064172571013569
vn 0.9723342677085675 0.18687505445449953 -0.14015629084087455
vn 0 1 2.220446049250313e-16
vn 0.47835958290360553 0.48755809114174836 -0.730382925051307
vn 0.8560644452749259 3.0604798638118153e-16 -0.5168690990339174
usemtl m_4342e827-f96a-0011-582c-4d93608764bc
f 72/273/73 76/274/73 75/275/73 67/276/73
f 74/277/74 78/278/74 77/279/74 71/280/74
f 71/281/75 77/282/75 76/283/75 72/284/75
f 68/285/76 79/286/76 78/287/76 74/288/76
f 76/289/77 81/290/77 80/291/77 75/292/77
f 77/293/78 82/294/78 81/295/78 76/296/78
f 78/297/79 83/298/79 82/299/79 77/300/79
f 79/301/80 84/302/80 83/303/80 78/304/80
f 88/305/81 81/306/81 82/307/81 70/308/81
f 70/309/82 82/310/82 83/311/82 73/312/82
f 86/313/83 87/314/83 88/315/83 85/316/83
f 70/317/84 89/318/84 90/319/84 88/320/84
f 81/321/85 88/322/85 87/323/85
f 80/324/86 81/325/86 87/326/86
f 73/327/87 83/328/87 91/329/87
f 69/330/88 91/331/88 83/332/88
f 83/333/89 84/334/89 69/335/89