# Made in Blockbench 4.12.5
mtllib cockpit.mtl

o wall_l
v 0 0.6875 -3.5
v 0 0 -3.4375
v 0 0 -3.6875
v 0 0.6875 -3.75
v 0.59375 0 -3
v 0.78125 0 -3.125
v 1.375 0 -1.625
v 1.59375 0 -1.6875
v 1.5625 0 0.5
v 1.8125 0 0.5
v 1.75 1.3125 0.5
v 2 1.3125 0.5
v 1.5 0.9375 -1.71875
v 1.71875 0.9375 -1.78125
v 0.6875 0.75 -3
v 0.875 0.75 -3.125
v -0.59375 0 -3
v -0.78125 0 -3.125
v -1.375 0 -1.625
v -1.59375 0 -1.6875
v -1.5625 0 0.5
v -1.8125 0 0.5
v -1.75 1.3125 0.5
v -2 1.3125 0.5
v -1.5 0.9375 -1.71875
v -1.71875 0.9375 -1.78125
v -0.6875 0.75 -3
v -0.875 0.75 -3.125
vt 0.296875 0.48046875
vt 0.265625 0.4765625
vt 0.26953125 0.43359375
vt 0.296875 0.43359375
vt 0.2265625 0.51953125
vt 0.26171875 0.51953125
vt 0.265625 0.5625
vt 0.2265625 0.56640625
vt 0.1796875 0.3906249609375
vt 0.125 0.4296874609375
vt 0.125 0.4140624609375
vt 0.16796875 0.3828124609375
vt 0.21875 0.3027343359375
vt 0.232421875 0.3066405859375
vt 0.1796875 0.3906249609375
vt 0.16796875 0.3828124609375
vt 0.3828125 0.43359375
vt 0.376953125 0.4921875
vt 0.296875 0.48046875
vt 0.296875 0.43359375
vt 0.142578125 0.578125
vt 0.13671875 0.51953125
vt 0.2265625 0.51953125
vt 0.2265625 0.56640625
vt 0.234375 0.1640625
vt 0.25 0.1640625
vt 0.232421875 0.3066405859375
vt 0.21875 0.3027343359375
vt 0.515625 0.43359375
vt 0.515625 0.515625
vt 0.376953125 0.4921875
vt 0.3828125 0.43359375
vt 0 0.6015625
vt 0 0.51953125
vt 0.13671875 0.51953125
vt 0.142578125 0.578125
vt 0.26171875 0.43359375
vt 0.265625 0.4765625
vt 0.234375 0.48046875
vt 0.234375 0.43359375
vt 0.265625 0.5625
vt 0.26953125 0.51953125
vt 0.3046875 0.51953125
vt 0.3046875 0.56640625
vt 0.125 0.4140624609375
vt 0.125 0.4296874609375
vt 0.0703125 0.3906249609375
vt 0.08203125 0.3828124609375
vt 0.0703125 0.3906249609375
vt 0.017578125 0.3066405859375
vt 0.03125 0.3027343359375
vt 0.08203125 0.3828124609375
vt 0.234375 0.48046875
vt 0.154296875 0.4921875
vt 0.1484375 0.43359375
vt 0.234375 0.43359375
vt 0.3046875 0.51953125
vt 0.39453125 0.51953125
vt 0.388671875 0.578125
vt 0.3046875 0.56640625
vt 0.017578125 0.3066405859375
vt 0 0.1640625
vt 0.015625 0.1640625
vt 0.03125 0.3027343359375
vt 0.154296875 0.4921875
vt 0.015625 0.515625
vt 0.015625 0.43359375
vt 0.1484375 0.43359375
vt 0.39453125 0.51953125
vt 0.53125 0.51953125
vt 0.53125 0.6015625
vt 0.388671875 0.578125
vn -0.5909350640119131 0.07303691802394431 0.8034060982633875
vn 0.5827210387165346 -0.07357588872683518 -0.809334775995187
vn -0.07124704998790965 0.9974586998307351 0
vn -0.0335498014239145 0.9925149587908039 -0.11742430498370074
vn -0.8437819502569874 0.16361797432867867 0.5111371429441366
vn 0.8589101447297054 -0.16306844776752377 -0.4854709513689639
vn 0 0.9867568184814638 -0.16220660029832282
vn -0.9861693475096001 0.1408813353585143 0.08730674303907927
vn 0.985134105481748 -0.1407334436402497 -0.0985134105481748
vn 0.5909350640119131 0.07303691802394431 0.8034060982633875
vn -0.5827210387165346 -0.07357588872683518 -0.809334775995187
vn 0.07124704998790965 0.9974586998307351 0
vn 0.0335498014239145 0.9925149587908039 -0.11742430498370074
vn 0.8437819502569874 0.16361797432867867 0.5111371429441366
vn -0.8589101447297054 -0.16306844776752377 -0.4854709513689639
vn 0 0.9867568184814638 -0.16220660029832282
vn 0.9861693475096001 0.1408813353585143 0.08730674303907927
vn -0.985134105481748 -0.1407334436402497 -0.0985134105481748
usemtl m_dc55d790-dc42-d814-7527-4c68a0a1e82e
f 15/1/1 1/2/1 2/3/1 5/4/1
f 6/5/2 3/6/2 4/7/2 16/8/2
f 16/9/3 4/10/3 1/11/3 15/12/3
f 13/13/4 14/14/4 16/15/4 15/16/4
f 7/17/5 13/18/5 15/19/5 5/20/5
f 14/21/6 8/22/6 6/23/6 16/24/6
f 11/25/7 12/26/7 14/27/7 13/28/7
f 9/29/8 11/30/8 13/31/8 7/32/8
f 12/33/9 10/34/9 8/35/9 14/36/9
f 2/37/10 1/38/10 27/39/10 17/40/10
f 4/41/11 3/42/11 18/43/11 28/44/11
f 1/45/12 4/46/12 28/47/12 27/48/12
f 28/49/13 26/50/13 25/51/13 27/52/13
f 27/53/14 25/54/14 19/55/14 17/56/14
f 18/57/15 20/58/15 26/59/15 28/60/15
f 26/61/16 24/62/16 23/63/16 25/64/16
f 25/65/17 23/66/17 21/67/17 19/68/17
f 20/69/18 22/70/18 24/71/18 26/72/18
o wall_u
v 0 2.15625 -2.34375
v 0 2.15625 -2.59375
v 0 2.4583331250000002 -1.958333125
v 0 2.4583331250000002 -1.729166875
v 0 2.718743125 -1.06340375
v 0 2.468743125 -1.00090375
v -0.53125 2.05625 -2.03125
v -0.71875 2.05625 -2.15625
v -0.90625 1.99375 -1.65625
v -1.125 1.99375 -1.71875
v -1.40625 1.84375 0.5
v -1.65625 1.84375 0.5
v -0.625 2.46875 0.5
v -0.78125 2.5625 0.5
v -0.40625 2.375 -1
v -0.59375 2.46875 -1.0625
v -0.3125 2.7499875 0.4987499999999998
v -0.25 2.5937375 0.4987499999999998
v 0.53125 2.05625 -2.03125
v 0.71875 2.05625 -2.15625
v 0.90625 1.99375 -1.65625
v 1.125 1.99375 -1.71875
v 1.40625 1.84375 0.5
v 1.65625 1.84375 0.5
v 0.625 2.46875 0.5
v 0.78125 2.5625 0.5
v 0.40625 2.375 -1
v 0.59375 2.46875 -1.0625
v 0.3125 2.7499875 0.4987499999999998
v 0.25 2.5937375 0.4987499999999998
vt 0.103515625 1
vt 0.05859375 0.97265625
vt 0.103515625 0.9602864453125
vt 0.05859375 0.97265625
vt 0.033203125 0.9453125
vt 0.06640625 0.9042969140625
vt 0.103515625 0.9602864453125
vt 0.103515625 0.623046875
vt 0.103515625 0.6614583203125
vt 0.0703125 0.6425780859375
vt 0.103515625 0.607421875
vt 0.103515625 0.623046875
vt 0.0703125 0.6425780859375
vt 0.05859375 0.6347655859375
vt 0.103515625 0.6614583203125
vt 0.078125 0.70703125
vt 0.046875 0.6660155859375
vt 0.0703125 0.6425780859375
vt 0.0703125 0.6425780859375
vt 0.046875 0.6660155859375
vt 0.033203125 0.6621093359375
vt 0.05859375 0.6347655859375
vt 0.078125 0.70703125
vt 0.064453125 0.80078125
vt 0.015625 0.8007812109375
vt 0.046875 0.6660155859375
vt 0.046875 0.6660155859375
vt 0.015625 0.8007812109375
vt 0 0.8007812109375
vt 0.033203125 0.6621093359375
vt 0.033203125 0.9453125
vt 0 0.806640625
vt 0.0546875 0.8066406640625
vt 0.06640625 0.9042969140625
vt 0.103515625 0.9043533984375
vt 0.103515625 0.9602864453125
vt 0.06640625 0.9042969140625
vt 0.083984375 0.8067187890625
vt 0.103515625 0.9043533984375
vt 0.06640625 0.9042969140625
vt 0.0546875 0.8066406640625
vt 0.103515625 0.7069747656250001
vt 0.087890625 0.800703125
vt 0.064453125 0.80078125
vt 0.078125 0.70703125
vt 0.103515625 0.7069747656250001
vt 0.078125 0.70703125
vt 0.103515625 0.6614583203125
vt 0.103515625 0.7069747656250001
vt 0.119140625 0.800703125
vt 0.087890625 0.800703125
vt 0.103515625 0.9043533984375
vt 0.083984375 0.8067187890625
vt 0.123046875 0.8067187890625
vt 0.1484375 0.97265625
vt 0.103515625 1
vt 0.103515625 0.9602864453125
vt 0.140625 0.9042969140625
vt 0.173828125 0.9453125
vt 0.1484375 0.97265625
vt 0.103515625 0.9602864453125
vt 0.103515625 0.6614583203125
vt 0.103515625 0.623046875
vt 0.13671875 0.6425780859375
vt 0.13671875 0.6425780859375
vt 0.103515625 0.623046875
vt 0.103515625 0.607421875
vt 0.1484375 0.6347655859375
vt 0.16015625 0.6660155859375
vt 0.12890625 0.70703125
vt 0.103515625 0.6614583203125
vt 0.13671875 0.6425780859375
vt 0.173828125 0.6621093359375
vt 0.16015625 0.6660155859375
vt 0.13671875 0.6425780859375
vt 0.1484375 0.6347655859375
vt 0.19140625 0.8007812109375
vt 0.142578125 0.80078125
vt 0.12890625 0.70703125
vt 0.16015625 0.6660155859375
vt 0.20703125 0.8007812109375
vt 0.19140625 0.8007812109375
vt 0.16015625 0.6660155859375
vt 0.173828125 0.6621093359375
vt 0.15234375 0.8066406640625
vt 0.20703125 0.806640625
vt 0.173828125 0.9453125
vt 0.140625 0.9042969140625
vt 0.103515625 0.9602864453125
vt 0.103515625 0.9043533984375
vt 0.140625 0.9042969140625
vt 0.140625 0.9042969140625
vt 0.103515625 0.9043533984375
vt 0.123046875 0.8067187890625
vt 0.15234375 0.8066406640625
vt 0.142578125 0.80078125
vt 0.119140625 0.800703125
vt 0.103515625 0.7069747656250001
vt 0.12890625 0.70703125
vt 0.12890625 0.70703125
vt 0.103515625 0.7069747656250001
vt 0.103515625 0.6614583203125
vn -0.36091728322432276 0.8422609719129159 -0.40041874314557807
vn -0.4289726423649076 0.8603022772702819 -0.2754314140145168
vn 0.3937963691077648 -0.8249328364799319 0.4054753198096219
vn 0.18498655102724204 -0.9827410523322233 0
vn 0.4605111677875644 -0.8737098390181925 0.15671815959147226
vn 0.036704971979320385 -0.9910342434416504 -0.12846740192762135
vn 0.6186695958068106 -0.7733369947585133 0.13855621156090028
vn 0 -0.9975890871275426 -0.06939750171322034
vn -0.631605619604346 0.7689111890835517 -0.09924678627708217
vn -0.37514249591043397 0.8900516529659226 -0.25899066163612733
vn -0.38639263749467534 0.9173619896757513 -0.09564365942421568
vn 0.3138786936211116 -0.9404230396922872 0.130708347501692
vn 0.22485146009220264 -0.9742935206322417 0.013926828369597336
vn 0 -0.9965444806515185 0.08306080954936175
vn 0 0.9998000433459545 -0.01999683288493034
vn 0.36091728322432276 0.842260971912916 -0.40041874314557807
vn 0.4289726423649077 0.8603022772702819 -0.27543141401451676
vn -0.3937963691077648 -0.8249328364799319 0.4054753198096219
vn -0.18498655102724204 -0.9827410523322233 0
vn -0.4605111677875644 -0.8737098390181925 0.15671815959147223
vn -0.036704971979320385 -0.9910342434416504 -0.12846740192762135
vn -0.6186695958068106 -0.7733369947585133 0.13855621156090028
vn 0 -0.9975890871275426 -0.06939750171322034
vn 0.631605619604346 0.7689111890835517 -0.09924678627708217
vn 0.37514249591043397 0.8900516529659226 -0.25899066163612733
vn 0.38639263749467534 0.9173619896757513 -0.0956436594242157
vn -0.3138786936211116 -0.9404230396922872 0.13070834750169202
vn -0.2248514600922027 -0.9742935206322417 0.013926828369597345
usemtl m_dc55d790-dc42-d814-7527-4c68a0a1e82e
f 30/73/19 36/74/19 31/75/19
f 36/76/20 38/77/20 44/78/20 31/79/20
f 29/80/21 32/81/21 35/82/21
f 30/83/22 29/84/22 35/85/22 36/86/22
f 32/87/23 43/88/23 37/89/23 35/90/23
f 35/91/24 37/92/24 38/93/24 36/94/24
f 43/95/25 41/96/25 39/97/25 37/98/25
f 37/99/26 39/100/26 40/101/26 38/102/26
f 38/103/27 40/104/27 42/105/27 44/106/27
f 33/107/28 31/108/28 44/109/28
f 45/110/29 33/111/29 44/112/29 42/113/29
f 34/114/30 46/115/30 41/116/30 43/117/30
f 34/118/31 43/119/31 32/120/31
f 34/121/32 58/122/32 46/123/32
f 33/124/33 45/125/33 57/126/33
f 48/127/34 30/128/34 31/129/34
f 56/130/35 50/131/35 48/132/35 31/133/35
f 32/134/36 29/135/36 47/136/36
f 47/137/37 29/138/37 30/139/37 48/140/37
f 49/141/38 55/142/38 32/143/38 47/144/38
f 50/145/39 49/146/39 47/147/39 48/148/39
f 51/149/40 53/150/40 55/151/40 49/152/40
f 52/153/41 51/154/41 49/155/41 50/156/41
f 54/157/42 52/158/42 50/159/42 56/160/42
f 31/161/43 33/162/43 56/163/43
f 56/164/44 33/165/44 57/166/44 54/167/44
f 53/168/45 58/169/45 34/170/45 55/171/45
f 55/172/46 34/173/46 32/174/46
o window
v 0 1.59375 -3.21875
v 0 0.6875 -3.59375
v 0 0.6875 -3.65625
v 0 1.59375 -3.28125
v 0 2.15625 -2.5
v 0 2.15625 -2.4375
v 0.78125 0.75 -3
v 0.8125 0.75 -3.0625
v 1.5625 0.9375 -1.75
v 1.625 0.9375 -1.78125
v 1.84375 1.3125 0.5
v 1.90625 1.3125 0.5
v 1.78125 1.59375 0.5
v 1.84375 1.59375 0.5
v 1.28125 1.59375 -1.75
v 1.34375 1.59375 -1.78125
v 0.59375 1.5625 -2.875
v 0.625 1.5625 -2.9375
v 0.625 2.0625 -2.125
v 0.59375 2.0625 -2.0625
v 1.5 1.84375 0.5
v 1.5625 1.84375 0.5
v 1.0625 2 -1.71875
v 1 2 -1.6875
v -0.78125 0.75 -3
v -0.8125 0.75 -3.0625
v -1.5625 0.9375 -1.75
v -1.625 0.9375 -1.78125
v -1.84375 1.3125 0.5
v -1.90625 1.3125 0.5
v -1.78125 1.59375 0.5
v -1.84375 1.59375 0.5
v -1.28125 1.59375 -1.75
v -1.34375 1.59375 -1.78125
v -0.59375 1.5625 -2.875
v -0.625 1.5625 -2.9375
v -0.625 2.0625 -2.125
v -0.59375 2.0625 -2.0625
v -1.5 1.84375 0.5
v -1.5625 1.84375 0.5
v -1.0625 2 -1.71875
v -1 2 -1.6875
vt 0.052734375 0.86328125
vt 0.048828125 0.86328125
vt 0.052734375 0.845703125
vt 0.056640625 0.845703125
vt 0.515625 0.87109375
vt 0.494140625 0.873046875
vt 0.470703125 0.81640625
vt 0.5078125 0.8203125
vt 0.642578125 0.5937499609375
vt 0.59375 0.5566405859375
vt 0.59375 0.5527343359375
vt 0.64453125 0.5898437109375
vt 0.43359375 0.912109375
vt 0.470703125 0.908203125
vt 0.447265625 0.96484375
vt 0.42578125 0.962890625
vt 0.412109375 0.7890625
vt 0.373046875 0.8125
vt 0.373046875 0.80859375
vt 0.41015625 0.78515625
vt 0.435546875 0.76171875
vt 0.439453125 0.763671875
vt 0.412109375 0.7890625
vt 0.41015625 0.78515625
vt 0.5859375 0.83203125
vt 0.5859375 0.873046875
vt 0.515625 0.87109375
vt 0.5078125 0.8203125
vt 0.6953125 0.6699218359375
vt 0.69140625 0.6718749609375
vt 0.642578125 0.5937499609375
vt 0.64453125 0.5898437109375
vt 0.353515625 0.96484375
vt 0.353515625 0.923828125
vt 0.43359375 0.912109375
vt 0.42578125 0.962890625
vt 0.466796875 0.625
vt 0.470703125 0.625
vt 0.439453125 0.763671875
vt 0.435546875 0.76171875
vt 0.7265625 0.85546875
vt 0.7265625 0.873046875
vt 0.5859375 0.873046875
vt 0.5859375 0.83203125
vt 0.712890625 0.8125
vt 0.708984375 0.8125
vt 0.69140625 0.6718749609375
vt 0.6953125 0.6699218359375
vt 0.2109375 0.96484375
vt 0.2109375 0.947265625
vt 0.353515625 0.923828125
vt 0.353515625 0.96484375
vt 0.03515625 0.87890625
vt 0.03125 0.87890625
vt 0.048828125 0.86328125
vt 0.052734375 0.86328125
vt 0.349609375 0.990234375
vt 0.2109375 0.98046875
vt 0.2109375 0.96484375
vt 0.353515625 0.96484375
vt 0.7265625 0.888671875
vt 0.58984375 0.8984375
vt 0.5859375 0.873046875
vt 0.7265625 0.873046875
vt 0.375 0.994140625
vt 0.349609375 0.990234375
vt 0.353515625 0.96484375
vt 0.42578125 0.962890625
vt 0.58984375 0.8984375
vt 0.56640625 0.90234375
vt 0.515625 0.87109375
vt 0.5859375 0.873046875
vt 0.3984375 1
vt 0.375 0.994140625
vt 0.42578125 0.962890625
vt 0.447265625 0.96484375
vt 0.56640625 0.90234375
vt 0.54296875 0.908203125
vt 0.494140625 0.873046875
vt 0.515625 0.87109375
vt 0.1015625 0.962890625
vt 0.10546875 0.98046875
vt 0.1015625 0.98046875
vt 0.09765625 0.962890625
vt 0.470703125 0.81640625
vt 0.447265625 0.873046875
vt 0.42578125 0.87109375
vt 0.43359375 0.8203125
vt 0.59375 0.5527343359375
vt 0.59375 0.5566405859375
vt 0.544921875 0.5937499609375
vt 0.54296875 0.5898437109375
vt 0.494140625 0.96484375
vt 0.470703125 0.908203125
vt 0.5078125 0.912109375
vt 0.515625 0.962890625
vt 0.373046875 0.80859375
vt 0.373046875 0.8125
vt 0.333984375 0.7890625
vt 0.3359375 0.78515625
vt 0.333984375 0.7890625
vt 0.306640625 0.763671875
vt 0.310546875 0.76171875
vt 0.3359375 0.78515625
vt 0.42578125 0.87109375
vt 0.35546875 0.873046875
vt 0.35546875 0.83203125
vt 0.43359375 0.8203125
vt 0.544921875 0.5937499609375
vt 0.49609375 0.6718749609375
vt 0.4921875 0.6699218359375
vt 0.54296875 0.5898437109375
vt 0.5078125 0.912109375
vt 0.587890625 0.923828125
vt 0.587890625 0.96484375
vt 0.515625 0.962890625
vt 0.306640625 0.763671875
vt 0.275390625 0.625
vt 0.279296875 0.625
vt 0.310546875 0.76171875
vt 0.35546875 0.873046875
vt 0.21484375 0.873046875
vt 0.21484375 0.85546875
vt 0.35546875 0.83203125
vt 0.49609375 0.6718749609375
vt 0.478515625 0.8125
vt 0.474609375 0.8125
vt 0.4921875 0.6699218359375
vt 0.587890625 0.923828125
vt 0.73046875 0.947265625
vt 0.73046875 0.96484375
vt 0.587890625 0.96484375
vt 0.10546875 0.98046875
vt 0.123046875 0.99609375
vt 0.119140625 0.99609375
vt 0.1015625 0.98046875
vt 0.73046875 0.96484375
vt 0.73046875 0.98046875
vt 0.591796875 0.990234375
vt 0.587890625 0.96484375
vt 0.35546875 0.873046875
vt 0.3515625 0.8984375
vt 0.21484375 0.888671875
vt 0.21484375 0.873046875
vt 0.587890625 0.96484375
vt 0.591796875 0.990234375
vt 0.56640625 0.994140625
vt 0.515625 0.962890625
vt 0.42578125 0.87109375
vt 0.375 0.90234375
vt 0.3515625 0.8984375
vt 0.35546875 0.873046875
vt 0.515625 0.962890625
vt 0.56640625 0.994140625
vt 0.54296875 1
vt 0.494140625 0.96484375
vt 0.447265625 0.873046875
vt 0.3984375 0.908203125
vt 0.375 0.90234375
vt 0.42578125 0.87109375
vn 0 0 1
vn -0.48532576577364905 -0.33430294439997577 0.8078987822999415
vn 0.07974522228289001 -0.9968152785361252 0
vn 0.5425242815555056 0.32119084600629555 -0.776211211181881
vn 0.14834045293024462 0.9889363528682975 0
vn 0.04969039949999534 0.9938079899999067 0.09938079899999068
vn -0.7976241306432658 -0.3418389131328282 0.496932494091241
vn 0.05668202012651358 -0.9919353522139877 0.11336404025302715
vn 0.7739870711251521 0.3317087447679223 -0.5393638126307679
vn 0 0.9975295184354296 0.07024855763629785
vn -0.9539980920057242 -0.21199957600127203 0.21199957600127203
vn 0 -0.9863939238321437 0.1643989873053573
vn 0.9645196041391177 0.21433768980869283 -0.15414696869803252
vn 0 0 1
vn 0.6612550529708764 0.7439119345922359 -0.0966270587968006
vn -0.8034358457983527 -0.5781244890418581 0.14234787267949076
vn 0.6200358412579425 0.5196832195514547 -0.5877796414237143
vn -0.5237402293077034 -0.7255090061721465 0.4464670807213209
vn 0.404429146711072 0.7789005788509535 -0.47932343313904835
vn -0.445186297538454 -0.7266786643668923 0.5232086383441624
vn 0 0 1
vn 0.48532576577364905 -0.33430294439997577 0.8078987822999415
vn -0.07974522228289001 -0.9968152785361252 0
vn -0.5425242815555056 0.32119084600629555 -0.776211211181881
vn -0.14834045293024462 0.9889363528682975 0
vn -0.04969039949999534 0.9938079899999067 0.09938079899999068
vn 0.7976241306432658 -0.3418389131328282 0.496932494091241
vn -0.05668202012651358 -0.9919353522139877 0.11336404025302715
vn -0.7739870711251521 0.3317087447679223 -0.5393638126307679
vn 0 0.9975295184354296 0.07024855763629785
vn 0.9539980920057242 -0.21199957600127203 0.21199957600127203
vn 0 -0.9863939238321437 0.1643989873053573
vn -0.9645196041391177 0.21433768980869283 -0.15414696869803252
vn 0 0 1
vn -0.6612550529708764 0.7439119345922359 -0.0966270587968006
vn 0.8034358457983527 -0.5781244890418581 0.14234787267949076
vn -0.6200358412579425 0.5196832195514547 -0.5877796414237143
vn 0.5237402293077034 -0.7255090061721465 0.4464670807213209
vn -0.404429146711072 0.7789005788509535 -0.47932343313904835
vn 0.445186297538454 -0.7266786643668923 0.5232086383441624
usemtl m_dc55d790-dc42-d814-7527-4c68a0a1e82e
f 72/175/47 71/176/47 69/177/47 70/178/47
f 75/179/48 59/180/48 60/181/48 65/182/48
f 65/183/49 60/184/49 61/185/49 66/186/49
f 66/187/50 61/188/50 62/189/50 76/190/50
f 77/191/51 63/192/51 64/193/51 78/194/51
f 82/195/52 81/196/52 77/197/52 78/198/52
f 67/199/53 73/200/53 75/201/53 65/202/53
f 68/203/54 67/204/54 65/205/54 66/206/54
f 74/207/55 68/208/55 66/209/55 76/210/55
f 79/211/56 80/212/56 81/213/56 82/214/56
f 69/215/57 71/216/57 73/217/57 67/218/57
f 70/219/58 69/220/58 67/221/58 68/222/58
f 72/223/59 70/224/59 68/225/59 74/226/59
f 80/227/60 79/228/60 71/229/60 72/230/60
f 81/231/61 80/232/61 72/233/61 74/234/61
f 79/235/62 82/236/62 73/237/62 71/238/62
f 77/239/63 81/240/63 74/241/63 76/242/63
f 82/243/64 78/244/64 75/245/64 73/246/64
f 63/247/65 77/248/65 76/249/65 62/250/65
f 78/251/66 64/252/66 59/253/66 75/254/66
f 87/255/67 89/256/67 90/257/67 88/258/67
f 60/259/68 59/260/68 93/261/68 83/262/68
f 61/263/69 60/264/69 83/265/69 84/266/69
f 62/267/70 61/268/70 84/269/70 94/270/70
f 64/271/71 63/272/71 95/273/71 96/274/71
f 95/275/72 99/276/72 100/277/72 96/278/72
f 93/279/73 91/280/73 85/281/73 83/282/73
f 83/283/74 85/284/74 86/285/74 84/286/74
f 84/287/75 86/288/75 92/289/75 94/290/75
f 99/291/76 98/292/76 97/293/76 100/294/76
f 91/295/77 89/296/77 87/297/77 85/298/77
f 85/299/78 87/300/78 88/301/78 86/302/78
f 86/303/79 88/304/79 90/305/79 92/306/79
f 89/307/80 97/308/80 98/309/80 90/310/80
f 90/311/81 98/312/81 99/313/81 92/314/81
f 91/315/82 100/316/82 97/317/82 89/318/82
f 92/319/83 99/320/83 95/321/83 94/322/83
f 93/323/84 96/324/84 100/325/84 91/326/84
f 94/327/85 95/328/85 63/329/85 62/330/85
f 59/331/86 64/332/86 96/333/86 93/334/86
o floor
v 1.8125 0 0.5
v 1.59375 0 -1.6875
v 1.8125 -0.0625 0.5
v 1.59375 -0.0625 -1.6875
v -1.8125 0 0.5
v -1.59375 0 -1.6875
v -1.8125 -0.0625 0.5
v -1.59375 -0.0625 -1.6875
v 0.78125 0 -3.125
v 0.78125 -0.0625 -3.125
v -0.78125 0 -3.125
v -0.78125 -0.0625 -3.125
v 0 0 -3.6875
v 0 -0.0625 -3.6875
v 0 -0.0625 -1.6875
v 0 -0.0625 0.5
v 0 0 0.5
v 0 0 -1.6875
vt 0.13671875 0.16015625
vt 0 0.16015625
vt 0 0.15625
vt 0.13671875 0.15625
vt 0.26171875 0.1484375
vt 0.26171875 0.15234375
vt 0.125 0.15234375
vt 0.125 0.1484375
vt 0.728515625 0.39453125
vt 0.62890625 0.39453125
vt 0.62890625 0.2578125
vt 0.7421875 0.2578125
vt 0.96875 0.51953125
vt 0.85546875 0.51953125
vt 0.85546875 0.3828125
vt 0.955078125 0.3828125
vt 0.2265625 0.14453125
vt 0.11328125 0.14453125
vt 0.11328125 0.140625
vt 0.2265625 0.140625
vt 0.2265625 0.15625
vt 0.26171875 0.15625
vt 0.26171875 0.16015625
vt 0.2265625 0.16015625
vt 0.677734375 0.484375
vt 0.62890625 0.51953125
vt 0.62890625 0.39453125
vt 0.728515625 0.39453125
vt 0.2265625 0.15625
vt 0.2265625 0.16015625
vt 0.13671875 0.16015625
vt 0.13671875 0.15625
vt 0.955078125 0.3828125
vt 0.85546875 0.3828125
vt 0.85546875 0.2578125
vt 0.904296875 0.29296875
vt 0.03515625 0.15234375
vt 0.03515625 0.1484375
vt 0.125 0.1484375
vt 0.125 0.15234375
vt 0.03515625 0.15234375
vt 0 0.15234375
vt 0 0.1484375
vt 0.03515625 0.1484375
vt 0.806640625 0.29296875
vt 0.85546875 0.2578125
vt 0.85546875 0.3828125
vt 0.755859375 0.3828125
vt 0.755859375 0.3828125
vt 0.85546875 0.3828125
vt 0.85546875 0.51953125
vt 0.7421875 0.51953125
vt 0 0.140625
vt 0.11328125 0.140625
vt 0.11328125 0.14453125
vt 0 0.14453125
vt 0.515625 0.2578125
vt 0.62890625 0.2578125
vt 0.62890625 0.39453125
vt 0.529296875 0.39453125
vt 0.529296875 0.39453125
vt 0.62890625 0.39453125
vt 0.62890625 0.51953125
vt 0.580078125 0.484375
vn 0.9950371902099892 0 -0.09950371902099892
vn -0.9950371902099892 0 -0.09950371902099892
vn 0 1 0
vn 0 -1 0
vn 0 0 1
vn 0.584304725845076 0 -0.8115343414514944
vn 0 1 0
vn 0.8705628387201343 0 -0.49205725666790195
vn 0 -1 0
vn -0.8705628387201343 0 -0.49205725666790195
vn -0.584304725845076 0 -0.8115343414514944
vn 0 -1 0
vn 0 -1 0
vn 0 0 1
vn 0 1 0
vn 0 1 0
usemtl m_dc55d790-dc42-d814-7527-4c68a0a1e82e
f 102/335/87 101/336/87 103/337/87 104/338/87
f 107/339/88 105/340/88 106/341/88 108/342/88
f 102/343/89 118/344/89 117/345/89 101/346/89
f 103/347/90 116/348/90 115/349/90 104/350/90
f 101/351/91 117/352/91 116/353/91 103/354/91
f 110/355/92 114/356/92 113/357/92 109/358/92
f 109/359/93 113/360/93 118/361/93 102/362/93
f 110/363/94 109/364/94 102/365/94 104/366/94
f 104/367/95 115/368/95 114/369/95 110/370/95
f 111/371/96 112/372/96 108/373/96 106/374/96
f 111/375/97 113/376/97 114/377/97 112/378/97
f 112/379/98 114/380/98 115/381/98 108/382/98
f 108/383/99 115/384/99 116/385/99 107/386/99
f 107/387/100 116/388/100 117/389/100 105/390/100
f 105/391/101 117/392/101 118/393/101 106/394/101
f 106/395/102 118/396/102 113/397/102 111/398/102