# Made in Blockbench 4.12.5
mtllib cockpit_window.mtl

o window
v 0 1.59375 -3.21875
v 0 0.6875 -3.59375
v 0 0.6875 -3.65625
v 0 1.59375 -3.28125
v 0 2.15625 -2.5
v 0 2.15625 -2.4375
v 0.78125 0.75 -3
v 0.8125 0.75 -3.0625
v 1.5625 0.9375 -1.75
v 1.625 0.9375 -1.78125
v 1.84375 1.3125 0.5
v 1.90625 1.3125 0.5
v 1.78125 1.59375 0.5
v 1.84375 1.59375 0.5
v 1.28125 1.59375 -1.75
v 1.34375 1.59375 -1.78125
v 0.59375 1.5625 -2.875
v 0.625 1.5625 -2.9375
v 0.625 2.0625 -2.125
v 0.59375 2.0625 -2.0625
v 1.5 1.84375 0.5
v 1.5625 1.84375 0.5
v 1.0625 2 -1.71875
v 1 2 -1.6875
v -0.78125 0.75 -3
v -0.8125 0.75 -3.0625
v -1.5625 0.9375 -1.75
v -1.625 0.9375 -1.78125
v -1.84375 1.3125 0.5
v -1.90625 1.3125 0.5
v -1.78125 1.59375 0.5
v -1.84375 1.59375 0.5
v -1.28125 1.59375 -1.75
v -1.34375 1.59375 -1.78125
v -0.59375 1.5625 -2.875
v -0.625 1.5625 -2.9375
v -0.625 2.0625 -2.125
v -0.59375 2.0625 -2.0625
v -1.5 1.84375 0.5
v -1.5625 1.84375 0.5
v -1.0625 2 -1.71875
v -1 2 -1.6875
vt 0.234375 0.59375
vt 0.23046875 0.59375
vt 0.234375 0.576171875
vt 0.23828124999999994 0.576171875
vt 0.044921875000000014 0.8720703125
vt 0.023437500000000014 0.8740234375
vt 0 0.8173828125
vt 0.037109375 0.8212890625
vt 0.44921875 0.5937499648438596
vt 0.400390625 0.5566405859376281
vt 0.400390625 0.55273433593763
vt 0.451171875 0.5898437148438614
vt 0.48242187499999994 0.912109375
vt 0.51953125 0.908203125
vt 0.49609375 0.96484375
vt 0.474609375 0.962890625
vt 0.13671875000000003 0.7932938008840158
vt 0.09765625000000003 0.8167313067433792
vt 0.09765625000000003 0.8128250567433811
vt 0.13476562500000003 0.7893875508840178
vt 0.16015624999999997 0.7659500469777796
vt 0.16406250000000003 0.7679031719777786
vt 0.13671875000000003 0.7932938008840158
vt 0.13476562500000003 0.7893875508840178
vt 0.11523437500000004 0.8330078125
vt 0.11523437500000004 0.8740234375
vt 0.044921875000000014 0.8720703125
vt 0.037109375 0.8212890625
vt 0.501953125 0.6699218515625713
vt 0.498046875 0.6718749765625704
vt 0.44921875 0.5937499648438596
vt 0.451171875 0.5898437148438614
vt 0.40234374999999994 0.96484375
vt 0.40234374999999994 0.923828125
vt 0.48242187499999994 0.912109375
vt 0.474609375 0.962890625
vt 0.19140624999999997 0.629231287212223
vt 0.19531250000000003 0.629231287212223
vt 0.16406250000000003 0.7679031719777786
vt 0.16015624999999997 0.7659500469777796
vt 0.25585937500000006 0.8564453125
vt 0.25585937500000006 0.8740234375
vt 0.11523437500000004 0.8740234375
vt 0.11523437500000004 0.8330078125
vt 0.51953125 0.8125
vt 0.515625 0.8125
vt 0.498046875 0.6718749765625704
vt 0.501953125 0.6699218515625713
vt 0.259765625 0.96484375
vt 0.259765625 0.947265625
vt 0.40234374999999994 0.923828125
vt 0.40234374999999994 0.96484375
vt 0.216796875 0.609375
vt 0.21289062499999994 0.609375
vt 0.23046875 0.59375
vt 0.234375 0.59375
vt 0.39843749999999994 0.990234375
vt 0.259765625 0.98046875
vt 0.259765625 0.96484375
vt 0.40234374999999994 0.96484375
vt 0.25585937500000006 0.8896484375
vt 0.11914062500000001 0.8994140625
vt 0.11523437500000004 0.8740234375
vt 0.25585937500000006 0.8740234375
vt 0.42382812499999994 0.994140625
vt 0.39843749999999994 0.990234375
vt 0.40234374999999994 0.96484375
vt 0.474609375 0.962890625
vt 0.11914062500000001 0.8994140625
vt 0.09570312499999999 0.9033203125
vt 0.044921875000000014 0.8720703125
vt 0.11523437500000004 0.8740234375
vt 0.44726562499999994 1
vt 0.42382812499999994 0.994140625
vt 0.474609375 0.962890625
vt 0.49609375 0.96484375
vt 0.09570312499999999 0.9033203125
vt 0.07226562499999999 0.9091796875
vt 0.023437500000000014 0.8740234375
vt 0.044921875000000014 0.8720703125
vt 0.003906249999999986 0.576171875
vt 0.0078125 0.59375
vt 0.003906249999999986 0.59375
vt 0 0.576171875
vt 0.5195312500000001 0.81640625
vt 0.49609375 0.873046875
vt 0.474609375 0.87109375
vt 0.482421875 0.8203125
vt 0.400390625 0.55273433593763
vt 0.400390625 0.5566405859376281
vt 0.35156249999999994 0.5937499648438596
vt 0.349609375 0.5898437148438614
vt 0.023437499999999972 0.96484375
vt 0 0.908203125
vt 0.037109375 0.912109375
vt 0.04492187499999997 0.962890625
vt 0.09765625000000003 0.8128250567433811
vt 0.09765625000000003 0.8167313067433792
vt 0.05859375000000003 0.7932938008840158
vt 0.06054687500000003 0.7893875508840178
vt 0.05859375000000003 0.7932938008840158
vt 0.03125000000000003 0.7679031719777786
vt 0.03515625000000003 0.7659500469777796
vt 0.06054687500000003 0.7893875508840178
vt 0.474609375 0.87109375
vt 0.404296875 0.873046875
vt 0.404296875 0.83203125
vt 0.482421875 0.8203125
vt 0.35156249999999994 0.5937499648438596
vt 0.302734375 0.6718749765625704
vt 0.298828125 0.6699218515625713
vt 0.349609375 0.5898437148438614
vt 0.037109375 0.912109375
vt 0.11718749999999997 0.923828125
vt 0.11718749999999997 0.96484375
vt 0.04492187499999997 0.962890625
vt 0.03125000000000003 0.7679031719777786
vt 0 0.629231287212223
vt 0.003906250000000028 0.629231287212223
vt 0.03515625000000003 0.7659500469777796
vt 0.404296875 0.873046875
vt 0.263671875 0.873046875
vt 0.263671875 0.85546875
vt 0.404296875 0.83203125
vt 0.302734375 0.6718749765625704
vt 0.28515625 0.8125
vt 0.28125 0.8125
vt 0.298828125 0.6699218515625713
vt 0.11718749999999997 0.923828125
vt 0.2597656249999999 0.947265625
vt 0.2597656249999999 0.96484375
vt 0.11718749999999997 0.96484375
vt 0.0078125 0.59375
vt 0.025390625 0.609375
vt 0.021484374999999972 0.609375
vt 0.003906249999999986 0.59375
vt 0.2597656249999999 0.96484375
vt 0.2597656249999999 0.98046875
vt 0.12109374999999997 0.990234375
vt 0.11718749999999997 0.96484375
vt 0.404296875 0.873046875
vt 0.400390625 0.8984375
vt 0.263671875 0.888671875
vt 0.263671875 0.873046875
vt 0.11718749999999997 0.96484375
vt 0.12109374999999997 0.990234375
vt 0.09570312499999997 0.994140625
vt 0.04492187499999997 0.962890625
vt 0.474609375 0.87109375
vt 0.423828125 0.90234375
vt 0.400390625 0.8984375
vt 0.404296875 0.873046875
vt 0.04492187499999997 0.962890625
vt 0.09570312499999997 0.994140625
vt 0.072265625 1
vt 0.023437499999999972 0.96484375
vt 0.49609375 0.873046875
vt 0.447265625 0.908203125
vt 0.423828125 0.90234375
vt 0.474609375 0.87109375
vn 0 0 1
vn -0.48532576577364905 -0.33430294439997577 0.8078987822999415
vn 0.07974522228289001 -0.9968152785361252 0
vn 0.5425242815555056 0.32119084600629555 -0.776211211181881
vn 0.14834045293024462 0.9889363528682975 0
vn 0.04969039949999534 0.9938079899999067 0.09938079899999068
vn -0.7976241306432658 -0.3418389131328282 0.496932494091241
vn 0.05668202012651358 -0.9919353522139877 0.11336404025302715
vn 0.7739870711251521 0.3317087447679223 -0.5393638126307679
vn 0 0.9975295184354296 0.07024855763629785
vn -0.9539980920057242 -0.21199957600127203 0.21199957600127203
vn 0 -0.9863939238321437 0.1643989873053573
vn 0.9645196041391177 0.21433768980869283 -0.15414696869803252
vn 0 0 1
vn 0.6612550529708764 0.7439119345922359 -0.0966270587968006
vn -0.8034358457983527 -0.5781244890418581 0.14234787267949076
vn 0.6200358412579425 0.5196832195514547 -0.5877796414237143
vn -0.5237402293077034 -0.7255090061721465 0.4464670807213209
vn 0.404429146711072 0.7789005788509535 -0.47932343313904835
vn -0.445186297538454 -0.7266786643668923 0.5232086383441624
vn 0 0 1
vn 0.48532576577364905 -0.33430294439997577 0.8078987822999415
vn -0.07974522228289001 -0.9968152785361252 0
vn -0.5425242815555056 0.32119084600629555 -0.776211211181881
vn -0.14834045293024462 0.9889363528682975 0
vn -0.04969039949999534 0.9938079899999067 0.09938079899999068
vn 0.7976241306432658 -0.3418389131328282 0.496932494091241
vn -0.05668202012651358 -0.9919353522139877 0.11336404025302715
vn -0.7739870711251521 0.3317087447679223 -0.5393638126307679
vn 0 0.9975295184354296 0.07024855763629785
vn 0.9539980920057242 -0.21199957600127203 0.21199957600127203
vn 0 -0.9863939238321437 0.1643989873053573
vn -0.9645196041391177 0.21433768980869283 -0.15414696869803252
vn 0 0 1
vn -0.6612550529708764 0.7439119345922359 -0.0966270587968006
vn 0.8034358457983527 -0.5781244890418581 0.14234787267949076
vn -0.6200358412579425 0.5196832195514547 -0.5877796414237143
vn 0.5237402293077034 -0.7255090061721465 0.4464670807213209
vn -0.404429146711072 0.7789005788509535 -0.47932343313904835
vn 0.445186297538454 -0.7266786643668923 0.5232086383441624
usemtl m_ba68994f-0a1a-ae47-f3e7-cadf73563b52
f 14/1/1 13/2/1 11/3/1 12/4/1
f 17/5/2 1/6/2 2/7/2 7/8/2
f 7/9/3 2/10/3 3/11/3 8/12/3
f 8/13/4 3/14/4 4/15/4 18/16/4
f 19/17/5 5/18/5 6/19/5 20/20/5
f 24/21/6 23/22/6 19/23/6 20/24/6
f 9/25/7 15/26/7 17/27/7 7/28/7
f 10/29/8 9/30/8 7/31/8 8/32/8
f 16/33/9 10/34/9 8/35/9 18/36/9
f 21/37/10 22/38/10 23/39/10 24/40/10
f 11/41/11 13/42/11 15/43/11 9/44/11
f 12/45/12 11/46/12 9/47/12 10/48/12
f 14/49/13 12/50/13 10/51/13 16/52/13
f 22/53/14 21/54/14 13/55/14 14/56/14
f 23/57/15 22/58/15 14/59/15 16/60/15
f 21/61/16 24/62/16 15/63/16 13/64/16
f 19/65/17 23/66/17 16/67/17 18/68/17
f 24/69/18 20/70/18 17/71/18 15/72/18
f 5/73/19 19/74/19 18/75/19 4/76/19
f 20/77/20 6/78/20 1/79/20 17/80/20
f 29/81/21 31/82/21 32/83/21 30/84/21
f 2/85/22 1/86/22 35/87/22 25/88/22
f 3/89/23 2/90/23 25/91/23 26/92/23
f 4/93/24 3/94/24 26/95/24 36/96/24
f 6/97/25 5/98/25 37/99/25 38/100/25
f 37/101/26 41/102/26 42/103/26 38/104/26
f 35/105/27 33/106/27 27/107/27 25/108/27
f 25/109/28 27/110/28 28/111/28 26/112/28
f 26/113/29 28/114/29 34/115/29 36/116/29
f 41/117/30 40/118/30 39/119/30 42/120/30
f 33/121/31 31/122/31 29/123/31 27/124/31
f 27/125/32 29/126/32 30/127/32 28/128/32
f 28/129/33 30/130/33 32/131/33 34/132/33
f 31/133/34 39/134/34 40/135/34 32/136/34
f 32/137/35 40/138/35 41/139/35 34/140/35
f 33/141/36 42/142/36 39/143/36 31/144/36
f 34/145/37 41/146/37 37/147/37 36/148/37
f 35/149/38 38/150/38 42/151/38 33/152/38
f 36/153/39 37/154/39 5/155/39 4/156/39
f 1/157/40 6/158/40 38/159/40 35/160/40