# Made in Blockbench 4.12.5
mtllib cockpit_walls.mtl

o wall_u
v 0 2.15625 -2.34375
v 0 2.15625 -2.59375
v 0 2.4583331250000002 -1.958333125
v 0 2.4583331250000002 -1.729166875
v 0 2.718743125 -1.06340375
v 0 2.468743125 -1.00090375
v -0.53125 2.05625 -2.03125
v -0.71875 2.05625 -2.15625
v -0.90625 1.99375 -1.65625
v -1.125 1.99375 -1.71875
v -1.40625 1.84375 0.5
v -1.65625 1.84375 0.5
v -0.625 2.46875 0.5
v -0.78125 2.5625 0.5
v -0.40625 2.375 -1
v -0.59375 2.46875 -1.0625
v -0.3125 2.7499875 0.4987499999999998
v -0.25 2.5937375 0.4987499999999998
v 0.53125 2.05625 -2.03125
v 0.71875 2.05625 -2.15625
v 0.90625 1.99375 -1.65625
v 1.125 1.99375 -1.71875
v 1.40625 1.84375 0.5
v 1.65625 1.84375 0.5
v 0.625 2.46875 0.5
v 0.78125 2.5625 0.5
v 0.40625 2.375 -1
v 0.59375 2.46875 -1.0625
v 0.3125 2.7499875 0.4987499999999998
v 0.25 2.5937375 0.4987499999999998
vt 0.103515625 1
vt 0.05859375 0.97265625
vt 0.103515625 0.9602864453125
vt 0.05859375 0.97265625
vt 0.033203125 0.9453125
vt 0.06640625 0.9042969140625
vt 0.103515625 0.9602864453125
vt 0.103515625 0.623046875
vt 0.103515625 0.6614583203125
vt 0.0703125 0.6425780859375
vt 0.103515625 0.607421875
vt 0.103515625 0.623046875
vt 0.0703125 0.6425780859375
vt 0.05859375 0.6347655859375
vt 0.103515625 0.6614583203125
vt 0.078125 0.70703125
vt 0.046875 0.6660155859375
vt 0.0703125 0.6425780859375
vt 0.0703125 0.6425780859375
vt 0.046875 0.6660155859375
vt 0.033203125 0.6621093359375
vt 0.05859375 0.6347655859375
vt 0.078125 0.70703125
vt 0.064453125 0.80078125
vt 0.015625 0.8007812109375
vt 0.046875 0.6660155859375
vt 0.046875 0.6660155859375
vt 0.015625 0.8007812109375
vt 0 0.8007812109375
vt 0.033203125 0.6621093359375
vt 0.033203125 0.9453125
vt 0 0.806640625
vt 0.0546875 0.8066406640625
vt 0.06640625 0.9042969140625
vt 0.103515625 0.9043533984375
vt 0.103515625 0.9602864453125
vt 0.06640625 0.9042969140625
vt 0.083984375 0.8067187890625
vt 0.103515625 0.9043533984375
vt 0.06640625 0.9042969140625
vt 0.0546875 0.8066406640625
vt 0.103515625 0.7069747656250001
vt 0.087890625 0.800703125
vt 0.064453125 0.80078125
vt 0.078125 0.70703125
vt 0.103515625 0.7069747656250001
vt 0.078125 0.70703125
vt 0.103515625 0.6614583203125
vt 0.103515625 0.7069747656250001
vt 0.119140625 0.800703125
vt 0.087890625 0.800703125
vt 0.103515625 0.9043533984375
vt 0.083984375 0.8067187890625
vt 0.123046875 0.8067187890625
vt 0.1484375 0.97265625
vt 0.103515625 1
vt 0.103515625 0.9602864453125
vt 0.140625 0.9042969140625
vt 0.173828125 0.9453125
vt 0.1484375 0.97265625
vt 0.103515625 0.9602864453125
vt 0.103515625 0.6614583203125
vt 0.103515625 0.623046875
vt 0.13671875 0.6425780859375
vt 0.13671875 0.6425780859375
vt 0.103515625 0.623046875
vt 0.103515625 0.607421875
vt 0.1484375 0.6347655859375
vt 0.16015625 0.6660155859375
vt 0.12890625 0.70703125
vt 0.103515625 0.6614583203125
vt 0.13671875 0.6425780859375
vt 0.173828125 0.6621093359375
vt 0.16015625 0.6660155859375
vt 0.13671875 0.6425780859375
vt 0.1484375 0.6347655859375
vt 0.19140625 0.8007812109375
vt 0.142578125 0.80078125
vt 0.12890625 0.70703125
vt 0.16015625 0.6660155859375
vt 0.20703125 0.8007812109375
vt 0.19140625 0.8007812109375
vt 0.16015625 0.6660155859375
vt 0.173828125 0.6621093359375
vt 0.15234375 0.8066406640625
vt 0.20703125 0.806640625
vt 0.173828125 0.9453125
vt 0.140625 0.9042969140625
vt 0.103515625 0.9602864453125
vt 0.103515625 0.9043533984375
vt 0.140625 0.9042969140625
vt 0.140625 0.9042969140625
vt 0.103515625 0.9043533984375
vt 0.123046875 0.8067187890625
vt 0.15234375 0.8066406640625
vt 0.142578125 0.80078125
vt 0.119140625 0.800703125
vt 0.103515625 0.7069747656250001
vt 0.12890625 0.70703125
vt 0.12890625 0.70703125
vt 0.103515625 0.7069747656250001
vt 0.103515625 0.6614583203125
vn -0.36091728322432276 0.8422609719129159 -0.40041874314557807
vn -0.4289726423649076 0.8603022772702819 -0.2754314140145168
vn 0.3937963691077648 -0.8249328364799319 0.4054753198096219
vn 0.18498655102724204 -0.9827410523322233 0
vn 0.4605111677875644 -0.8737098390181925 0.15671815959147226
vn 0.036704971979320385 -0.9910342434416504 -0.12846740192762135
vn 0.6186695958068106 -0.7733369947585133 0.13855621156090028
vn 0 -0.9975890871275426 -0.06939750171322034
vn -0.631605619604346 0.7689111890835517 -0.09924678627708217
vn -0.37514249591043397 0.8900516529659226 -0.25899066163612733
vn -0.38639263749467534 0.9173619896757513 -0.09564365942421568
vn 0.3138786936211116 -0.9404230396922872 0.130708347501692
vn 0.22485146009220264 -0.9742935206322417 0.013926828369597336
vn 0 -0.9965444806515185 0.08306080954936175
vn 0 0.9998000433459545 -0.01999683288493034
vn 0.36091728322432276 0.842260971912916 -0.40041874314557807
vn 0.4289726423649077 0.8603022772702819 -0.27543141401451676
vn -0.3937963691077648 -0.8249328364799319 0.4054753198096219
vn -0.18498655102724204 -0.9827410523322233 0
vn -0.4605111677875644 -0.8737098390181925 0.15671815959147223
vn -0.036704971979320385 -0.9910342434416504 -0.12846740192762135
vn -0.6186695958068106 -0.7733369947585133 0.13855621156090028
vn 0 -0.9975890871275426 -0.06939750171322034
vn 0.631605619604346 0.7689111890835517 -0.09924678627708217
vn 0.37514249591043397 0.8900516529659226 -0.25899066163612733
vn 0.38639263749467534 0.9173619896757513 -0.0956436594242157
vn -0.3138786936211116 -0.9404230396922872 0.13070834750169202
vn -0.2248514600922027 -0.9742935206322417 0.013926828369597345
usemtl m_798dd3e9-a424-20e8-c4ac-1129cf68f6d8
f 2/1/1 8/2/1 3/3/1
f 8/4/2 10/5/2 16/6/2 3/7/2
f 1/8/3 4/9/3 7/10/3
f 2/11/4 1/12/4 7/13/4 8/14/4
f 4/15/5 15/16/5 9/17/5 7/18/5
f 7/19/6 9/20/6 10/21/6 8/22/6
f 15/23/7 13/24/7 11/25/7 9/26/7
f 9/27/8 11/28/8 12/29/8 10/30/8
f 10/31/9 12/32/9 14/33/9 16/34/9
f 5/35/10 3/36/10 16/37/10
f 17/38/11 5/39/11 16/40/11 14/41/11
f 6/42/12 18/43/12 13/44/12 15/45/12
f 6/46/13 15/47/13 4/48/13
f 6/49/14 30/50/14 18/51/14
f 5/52/15 17/53/15 29/54/15
f 20/55/16 2/56/16 3/57/16
f 28/58/17 22/59/17 20/60/17 3/61/17
f 4/62/18 1/63/18 19/64/18
f 19/65/19 1/66/19 2/67/19 20/68/19
f 21/69/20 27/70/20 4/71/20 19/72/20
f 22/73/21 21/74/21 19/75/21 20/76/21
f 23/77/22 25/78/22 27/79/22 21/80/22
f 24/81/23 23/82/23 21/83/23 22/84/23
f 26/85/24 24/86/24 22/87/24 28/88/24
f 3/89/25 5/90/25 28/91/25
f 28/92/26 5/93/26 29/94/26 26/95/26
f 25/96/27 30/97/27 6/98/27 27/99/27
f 27/100/28 6/101/28 4/102/28
o wall_l
v 0 0.6875 -3.5
v 0 0 -3.4375
v 0 0 -3.6875
v 0 0.6875 -3.75
v 0.59375 0 -3
v 0.78125 0 -3.125
v 1.375 0 -1.625
v 1.59375 0 -1.6875
v 1.5625 0 0.5
v 1.8125 0 0.5
v 1.75 1.3125 0.5
v 2 1.3125 0.5
v 1.5 0.9375 -1.71875
v 1.71875 0.9375 -1.78125
v 0.6875 0.75 -3
v 0.875 0.75 -3.125
v -0.59375 0 -3
v -0.78125 0 -3.125
v -1.375 0 -1.625
v -1.59375 0 -1.6875
v -1.5625 0 0.5
v -1.8125 0 0.5
v -1.75 1.3125 0.5
v -2 1.3125 0.5
v -1.5 0.9375 -1.71875
v -1.71875 0.9375 -1.78125
v -0.6875 0.75 -3
v -0.875 0.75 -3.125
vt 0.296875 0.48046875
vt 0.265625 0.4765625
vt 0.26953125 0.43359375
vt 0.296875 0.43359375
vt 0.2265625 0.51953125
vt 0.26171875 0.51953125
vt 0.265625 0.5625
vt 0.2265625 0.56640625
vt 0.1796875 0.3906249609375
vt 0.125 0.4296874609375
vt 0.125 0.4140624609375
vt 0.16796875 0.3828124609375
vt 0.21875 0.3027343359375
vt 0.232421875 0.3066405859375
vt 0.1796875 0.3906249609375
vt 0.16796875 0.3828124609375
vt 0.3828125 0.43359375
vt 0.376953125 0.4921875
vt 0.296875 0.48046875
vt 0.296875 0.43359375
vt 0.142578125 0.578125
vt 0.13671875 0.51953125
vt 0.2265625 0.51953125
vt 0.2265625 0.56640625
vt 0.234375 0.1640625
vt 0.25 0.1640625
vt 0.232421875 0.3066405859375
vt 0.21875 0.3027343359375
vt 0.515625 0.43359375
vt 0.515625 0.515625
vt 0.376953125 0.4921875
vt 0.3828125 0.43359375
vt 0 0.6015625
vt 0 0.51953125
vt 0.13671875 0.51953125
vt 0.142578125 0.578125
vt 0.26171875 0.43359375
vt 0.265625 0.4765625
vt 0.234375 0.48046875
vt 0.234375 0.43359375
vt 0.265625 0.5625
vt 0.26953125 0.51953125
vt 0.3046875 0.51953125
vt 0.3046875 0.56640625
vt 0.125 0.4140624609375
vt 0.125 0.4296874609375
vt 0.0703125 0.3906249609375
vt 0.08203125 0.3828124609375
vt 0.0703125 0.3906249609375
vt 0.017578125 0.3066405859375
vt 0.03125 0.3027343359375
vt 0.08203125 0.3828124609375
vt 0.234375 0.48046875
vt 0.154296875 0.4921875
vt 0.1484375 0.43359375
vt 0.234375 0.43359375
vt 0.3046875 0.51953125
vt 0.39453125 0.51953125
vt 0.388671875 0.578125
vt 0.3046875 0.56640625
vt 0.017578125 0.3066405859375
vt 0 0.1640625
vt 0.015625 0.1640625
vt 0.03125 0.3027343359375
vt 0.154296875 0.4921875
vt 0.015625 0.515625
vt 0.015625 0.43359375
vt 0.1484375 0.43359375
vt 0.39453125 0.51953125
vt 0.53125 0.51953125
vt 0.53125 0.6015625
vt 0.388671875 0.578125
vn -0.5909350640119131 0.07303691802394431 0.8034060982633875
vn 0.5827210387165346 -0.07357588872683518 -0.809334775995187
vn -0.07124704998790965 0.9974586998307351 0
vn -0.0335498014239145 0.9925149587908039 -0.11742430498370074
vn -0.8437819502569874 0.16361797432867867 0.5111371429441366
vn 0.8589101447297054 -0.16306844776752377 -0.4854709513689639
vn 0 0.9867568184814638 -0.16220660029832282
vn -0.9861693475096001 0.1408813353585143 0.08730674303907927
vn 0.985134105481748 -0.1407334436402497 -0.0985134105481748
vn 0.5909350640119131 0.07303691802394431 0.8034060982633875
vn -0.5827210387165346 -0.07357588872683518 -0.809334775995187
vn 0.07124704998790965 0.9974586998307351 0
vn 0.0335498014239145 0.9925149587908039 -0.11742430498370074
vn 0.8437819502569874 0.16361797432867867 0.5111371429441366
vn -0.8589101447297054 -0.16306844776752377 -0.4854709513689639
vn 0 0.9867568184814638 -0.16220660029832282
vn 0.9861693475096001 0.1408813353585143 0.08730674303907927
vn -0.985134105481748 -0.1407334436402497 -0.0985134105481748
usemtl m_798dd3e9-a424-20e8-c4ac-1129cf68f6d8
f 45/103/29 31/104/29 32/105/29 35/106/29
f 36/107/30 33/108/30 34/109/30 46/110/30
f 46/111/31 34/112/31 31/113/31 45/114/31
f 43/115/32 44/116/32 46/117/32 45/118/32
f 37/119/33 43/120/33 45/121/33 35/122/33
f 44/123/34 38/124/34 36/125/34 46/126/34
f 41/127/35 42/128/35 44/129/35 43/130/35
f 39/131/36 41/132/36 43/133/36 37/134/36
f 42/135/37 40/136/37 38/137/37 44/138/37
f 32/139/38 31/140/38 57/141/38 47/142/38
f 34/143/39 33/144/39 48/145/39 58/146/39
f 31/147/40 34/148/40 58/149/40 57/150/40
f 58/151/41 56/152/41 55/153/41 57/154/41
f 57/155/42 55/156/42 49/157/42 47/158/42
f 48/159/43 50/160/43 56/161/43 58/162/43
f 56/163/44 54/164/44 53/165/44 55/166/44
f 55/167/45 53/168/45 51/169/45 49/170/45
f 50/171/46 52/172/46 54/173/46 56/174/46