# Made in Blockbench 4.12.5
mtllib tile_wall_window_m.mtl

o wall_u
v -0.5 3.5 0.75
v 0.5 3.5 0.75
v -0.5 2.125 0.75
v 0.5 2.125 0.75
v -0.5 3.5 0.5
v 0.5 3.5 0.5
v -0.5 2.125 0.5
v 0.5 2.125 0.5
vt 0.125 1
vt 0 1
vt 0 0.828125
vt 0.125 0.828125
vt 0.2578125 0.828125
vt 0.2578125 1
vt 0.1328125 1
vt 0.1328125 0.828125
vt 0.34375 1
vt 0.34375 0.96875
vt 0.46875 0.96875
vt 0.46875 1
vt 0.46875 0.9609375
vt 0.34375 0.9609375
vt 0.34375 0.9296875
vt 0.46875 0.9296875
vt 0.3359375 0.828125
vt 0.3359375 1
vt 0.3046875 1
vt 0.3046875 0.828125
vt 0.296875 1
vt 0.265625 1
vt 0.265625 0.828125
vt 0.296875 0.828125
vn 0 0 1
vn 0 0 -1
vn 0 1 0
vn 0 -1 0
vn -1 0 0
vn 1 0 0
usemtl m_1ea63b69-15f8-0038-f2c8-c4015977ce86
f 2/1/1 1/2/1 3/3/1 4/4/1
f 7/5/2 5/6/2 6/7/2 8/8/2
f 5/9/3 1/10/3 2/11/3 6/12/3
f 4/13/4 3/14/4 7/15/4 8/16/4
f 3/17/5 1/18/5 5/19/5 7/20/5
f 6/21/6 2/22/6 4/23/6 8/24/6
o wall_l
v -0.5 1.125 0.75
v 0.5 1.125 0.75
v -0.5 0 0.75
v 0.5 0 0.75
v -0.5 1.125 0.5
v 0.5 1.125 0.5
v -0.5 0 0.5
v 0.5 0 0.5
vt 0.125 0.703125
vt 0 0.703125
vt 0 0.5625
vt 0.125 0.5625
vt 0.2578125 0.5625
vt 0.2578125 0.703125
vt 0.1328125 0.703125
vt 0.1328125 0.5625
vt 0.34375 1
vt 0.34375 0.96875
vt 0.46875 0.96875
vt 0.46875 1
vt 0.46875 0.9609375
vt 0.34375 0.9609375
vt 0.34375 0.9296875
vt 0.46875 0.9296875
vt 0.3359375 0.5625
vt 0.3359375 0.703125
vt 0.3046875 0.703125
vt 0.3046875 0.5625
vt 0.296875 0.703125
vt 0.265625 0.703125
vt 0.265625 0.5625
vt 0.296875 0.5625
vn 0 0 1
vn 0 0 -1
vn 0 1 0
vn 0 -1 0
vn -1 0 0
vn 1 0 0
usemtl m_1ea63b69-15f8-0038-f2c8-c4015977ce86
f 10/25/7 9/26/7 11/27/7 12/28/7
f 15/29/8 13/30/8 14/31/8 16/32/8
f 13/33/9 9/34/9 10/35/9 14/36/9
f 12/37/10 11/38/10 15/39/10 16/40/10
f 11/41/11 9/42/11 13/43/11 15/44/11
f 14/45/12 10/46/12 12/47/12 16/48/12
o window
v 0.5 2.125 0.65625
v 0.5 1.125 0.65625
v -0.5 1.125 0.65625
v 0.5 2.125 0.59375
v 0.5 1.125 0.59375
v -0.5 1.125 0.59375
v -0.5 2.125 0.65625
v -0.5 2.125 0.59375
vt 0.921875 0.7421875
vt 0.921875 0.8671875
vt 0.796875 0.8671875
vt 0.796875 0.7421875
vt 0.921875 1
vt 0.796875 1
vt 0.796875 0.875
vt 0.921875 0.875
vt 0.796875 0.7265625
vt 0.921875 0.7265625
vt 0.921875 0.734375
vt 0.796875 0.734375
vt 0.921875 0.7109375
vt 0.921875 0.71875
vt 0.796875 0.71875
vt 0.796875 0.7109375
vt 0.7421875 0.703125
vt 0.734375 0.703125
vt 0.734375 0.578125
vt 0.7421875 0.578125
vt 0.7578125 0.578125
vt 0.7578125 0.703125
vt 0.75 0.703125
vt 0.75 0.578125
vn 0 0 1
vn 0 0 -1
vn 0 1 0
vn 0 -1 0
vn 1 0 0
vn -1 0 0
usemtl m_1ea63b69-15f8-0038-f2c8-c4015977ce86
f 18/49/13 17/50/13 23/51/13 19/52/13
f 24/53/14 20/54/14 21/55/14 22/56/14
f 23/57/15 17/58/15 20/59/15 24/60/15
f 21/61/16 18/62/16 19/63/16 22/64/16
f 20/65/17 17/66/17 18/67/17 21/68/17
f 19/69/18 23/70/18 24/71/18 22/72/18