# Made in Blockbench 4.12.5
mtllib tile_wall_str-sl_r.mtl

o wall
v 0.5 3.5 0.75
v 0.5 0 0.75
v 0.5 3.5 0.5
v 0.5 0 0.5
v -0.5 3.5 -0.5
v -0.5 0 0.75
v -0.5 3.25 -0.5
v -0.5 0 0.5
v -0.5 2.75 0.5
v 0.5 2.75 0.5
v 0.5 2.75 0.75
v -0.5 2.875 0.75
v 0.5 3.5 -0.5
vt 0.46875 0.9609375
vt 0.34375 0.9609375
vt 0.34375 0.9296875
vt 0.46875 0.9296875
vt 0.265625 1
vt 0.265625 0.90625
vt 0.296875 0.90625
vt 0.296875 1
vt 0.2578125 0.5625
vt 0.2578125 0.90625
vt 0.1328125 0.90625
vt 0.1328125 0.5625
vt 0.296875 0.5625
vt 0.296875 0.90625
vt 0.265625 0.90625
vt 0.265625 0.5625
vt 0.125 0.5625
vt 0.125 0.90625
vt 0 0.90625
vt 0 0.5625
vt 0.3359375 0.5625
vt 0.3359375 0.90625
vt 0.3046875 0.90625
vt 0.3046875 0.5625
vt 0.1328125 1
vt 0.1328125 0.90625
vt 0.2578125 0.90625
vt 0.344830546875 0.922512265625
vt 0.344830546875 0.79751234375
vt 0.469830546875 0.922512421875
vt 0 1
vt 0 0.90625
vt 0.125 1
vt 0 0.90625
vt 0.125 0.90625
vt 0.125 1
vt 0.3046875 0.90625
vt 0.3359375 0.90625
vt 0.3359375 1
vt 0.3046875 1
vt 0.344830546875 0.79751234375
vt 0.469830546875 0.797512421875
vt 0.469830546875 0.922512421875
vt 0.46875 0.96875
vt 0.46875 1
vt 0.34375 1
vt 0.46875 0.685546875
vt 0.46875 0.7890625
vt 0.34375 0.7890625
vt 0.46875 0.685546875
vt 0.34375 0.7890625
vt 0.46875 0.6640625
vn 0 -1 0
vn 1 0 0
vn 0 0 -1
vn 1 0 0
vn 0 0 1
vn -1 0 0
vn 0 0 -1
vn 0.5570860145311556 -0.7427813527082074 -0.3713906763541037
vn -0.48795003647426666 0.7807200583588267 0.39036002917941337
vn 0 0 1
vn -1 0 0
vn 0.24253562503633297 -0.9701425001453319 0
vn 0 0 -1
vn 0 1 0
vn 0 1 0
usemtl m_c7f7a55c-baf9-b9f0-115e-f65c9709739b
f 2/1/1 6/2/1 8/3/1 4/4/1
f 1/5/2 11/6/2 10/7/2 3/8/2
f 8/9/3 9/10/3 10/11/3 4/12/3
f 4/13/4 10/14/4 11/15/4 2/16/4
f 2/17/5 11/18/5 12/19/5 6/20/5
f 6/21/6 12/22/6 9/23/6 8/24/6
f 3/25/7 10/26/7 9/27/7
f 9/28/8 7/29/8 3/30/8
f 5/31/9 12/32/9 1/33/9
f 12/34/10 11/35/10 1/36/10
f 9/37/11 12/38/11 5/39/11 7/40/11
f 7/41/12 13/42/12 3/43/12
f 7/44/13 5/45/13 13/46/13
f 3/47/14 13/48/14 5/49/14
f 3/50/15 5/51/15 1/52/15