# Made in Blockbench 4.12.5
mtllib tile_floor_3x3.mtl

o floor
v 0.5 0 0.5
v 0.5 0 -0.5
v 0.5 -0.0625 0.5
v 0.5 -0.0625 -0.5
v -0.5 0 0.5
v -0.5 0 -0.5
v -0.5 -0.0625 0.5
v -0.5 -0.0625 -0.5
v 0.5 0 -1.5
v 0.5 -0.0625 -1.5
v -0.5 0 -1.5
v -0.5 -0.0625 -1.5
v 0.5 0 1.5
v -0.5 0 1.5
v 0.5 -0.0625 1.5
v -0.5 -0.0625 1.5
v 1.5 0 1.5
v 1.5 -0.0625 1.5
v 1.5 -0.0625 0.5
v 1.5 0 0.5
v 1.5 -0.0625 -1.5
v 1.5 0 -1.5
v 1.5 0 -0.5
v 1.5 -0.0625 -0.5
v -1.5 -0.0625 1.5
v -1.5 0 1.5
v -1.5 0 0.5
v -1.5 -0.0625 0.5
v -1.5 0 -1.5
v -1.5 -0.0625 -1.5
v -1.5 -0.0625 -0.5
v -1.5 0 -0.5
vt 0.46875 0.65625
vt 0.34375 0.65625
vt 0.34375 0.6484375
vt 0.46875 0.6484375
vt 0.46875 0.6328125
vt 0.46875 0.640625
vt 0.34375 0.640625
vt 0.34375 0.6328125
vt 0.34375 0.6640625
vt 0.46875 0.6640625
vt 0.46875 0.7890625
vt 0.34375 0.7890625
vt 0.46875 0.796875
vt 0.46875 0.921875
vt 0.34375 0.921875
vt 0.34375 0.796875
vt 0.46875 0.6171875
vt 0.46875 0.625
vt 0.34375 0.625
vt 0.34375 0.6171875
vt 0.46875 0.609375
vt 0.34375 0.609375
vt 0.34375 0.6015625
vt 0.46875 0.6015625
vt 0.4686944181288893 0.7890625
vt 0.3436944181288893 0.7890625
vt 0.3436944181288893 0.6640625000000626
vt 0.4686944181288893 0.6640625000000626
vt 0.46875 0.6484375
vt 0.46875 0.65625
vt 0.3437499999999999 0.65625
vt 0.3437499999999999 0.6484375
vt 0.34369441031638714 0.7968750000001876
vt 0.46869441031638714 0.7968750000001876
vt 0.46869441031638714 0.9218750000001251
vt 0.34369441031638714 0.9218750000001251
vt 0.34374999999999994 0.640625
vt 0.34374999999999994 0.6328125
vt 0.46875 0.6328125
vt 0.46875 0.640625
vt 0.3437499999999999 0.65625
vt 0.3437499999999999 0.6484375
vt 0.46874999999999994 0.6484375
vt 0.46874999999999994 0.65625
vt 0.3436944181288893 0.6640625000001876
vt 0.4686944181288893 0.6640625000001876
vt 0.4686944181288893 0.789062500000125
vt 0.3436944181288893 0.789062500000125
vt 0.46875 0.6328125
vt 0.46875 0.640625
vt 0.34374999999999994 0.640625
vt 0.34374999999999994 0.6328125
vt 0.46869441031638714 0.921875
vt 0.34369441031638714 0.921875
vt 0.34369441031638714 0.7968750000000625
vt 0.46869441031638714 0.7968750000000625
vt 0.46875 0.6171875
vt 0.46875 0.625
vt 0.3437499999999999 0.625
vt 0.3437499999999999 0.6171875
vt 0.46869441031638714 0.7968750000000625
vt 0.46869441031638714 0.921875
vt 0.34369441031638714 0.921875
vt 0.34369441031638714 0.7968750000000625
vt 0.46869441812888935 0.6640625000001876
vt 0.46869441812888935 0.789062500000125
vt 0.3436944181288893 0.789062500000125
vt 0.3436944181288893 0.6640625000001876
vt 0.3437499999999999 0.609375
vt 0.3437499999999999 0.6015625
vt 0.46874999999999994 0.6015625
vt 0.46874999999999994 0.609375
vt 0.46869441812888935 0.6640625000000626
vt 0.46869441812888935 0.7890625
vt 0.3436944181288893 0.7890625
vt 0.3436944181288893 0.6640625000000626
vt 0.46869441031638714 0.7968750000001876
vt 0.46869441031638714 0.9218750000001251
vt 0.34369441031638714 0.9218750000001251
vt 0.34369441031638714 0.7968750000001876
vt 0.46869441812888935 0.664062500000125
vt 0.46869441812888935 0.7890625000000626
vt 0.3436944181288893 0.7890625000000626
vt 0.3436944181288893 0.664062500000125
vt 0.46869441031638714 0.7968750000001251
vt 0.46869441031638714 0.9218750000000625
vt 0.34369441031638714 0.9218750000000625
vt 0.34369441031638714 0.7968750000001251
vt 0.3437499999999999 0.625
vt 0.3437499999999999 0.6171875
vt 0.46874999999999994 0.6171875
vt 0.46874999999999994 0.625
vt 0.34369441812888923 0.789062500000125
vt 0.34369441812888923 0.6640625000001876
vt 0.4686944181288893 0.6640625000001876
vt 0.4686944181288893 0.789062500000125
vt 0.3436944103163871 0.921875
vt 0.3436944103163871 0.7968750000000625
vt 0.46869441031638714 0.7968750000000625
vt 0.46869441031638714 0.921875
vt 0.46875 0.6015625
vt 0.46875 0.609375
vt 0.34375 0.609375
vt 0.34375 0.6015625
vt 0.3436944103163871 0.9218750000001251
vt 0.3436944103163871 0.7968750000001876
vt 0.46869441031638714 0.7968750000001876
vt 0.46869441031638714 0.9218750000001251
vt 0.34369441812888923 0.7890625
vt 0.34369441812888923 0.6640625000000626
vt 0.4686944181288893 0.6640625000000626
vt 0.4686944181288893 0.7890625
vt 0.34369441812888923 0.7890625000000626
vt 0.34369441812888923 0.664062500000125
vt 0.4686944181288893 0.664062500000125
vt 0.4686944181288893 0.7890625000000626
vt 0.3436944103163871 0.9218750000000625
vt 0.3436944103163871 0.7968750000001251
vt 0.46869441031638714 0.7968750000001251
vt 0.46869441031638714 0.9218750000000625
vn 1 0 0
vn -1 0 0
vn 0 1 0
vn 0 -1 0
vn 0 0 1
vn 0 0 -1
vn 0 1 0
vn 1 0 0
vn 0 -1 0
vn -1 0 0
vn 1 0 0
vn 0 1 0
vn -1 0 0
vn 0 -1 0
vn 0 0 1
vn 0 -1 0
vn 0 1 0
vn 0 0 -1
vn 0 1 0
vn 0 -1 0
vn 0 1 0
vn 0 -1 0
vn 0 0 1
vn 0 1 0
vn 0 -1 0
vn 0 0 -1
vn 0 -1 0
vn 0 1 0
vn 0 1 0
vn 0 -1 0
usemtl m_15fcfd19-6f88-7b6f-872d-087ac5a74941
f 23/1/1 20/2/1 19/3/1 24/4/1
f 28/5/2 27/6/2 32/7/2 31/8/2
f 5/9/3 1/10/3 2/11/3 6/12/3
f 4/13/4 3/14/4 7/15/4 8/16/4
f 15/17/5 13/18/5 14/19/5 16/20/5
f 11/21/6 9/22/6 10/23/6 12/24/6
f 9/25/7 11/26/7 6/27/7 2/28/7
f 21/29/8 22/30/8 23/31/8 24/32/8
f 12/33/9 10/34/9 4/35/9 8/36/9
f 29/37/10 30/38/10 31/39/10 32/40/10
f 17/41/11 18/42/11 19/43/11 20/44/11
f 14/45/12 13/46/12 1/47/12 5/48/12
f 25/49/13 26/50/13 27/51/13 28/52/13
f 15/53/14 16/54/14 7/55/14 3/56/14
f 18/57/15 17/58/15 13/59/15 15/60/15
f 19/61/16 18/62/16 15/63/16 3/64/16
f 17/65/17 20/66/17 1/67/17 13/68/17
f 22/69/18 21/70/18 10/71/18 9/72/18
f 23/73/19 22/74/19 9/75/19 2/76/19
f 21/77/20 24/78/20 4/79/20 10/80/20
f 20/81/21 23/82/21 2/83/21 1/84/21
f 24/85/22 19/86/22 3/87/22 4/88/22
f 26/89/23 25/90/23 16/91/23 14/92/23
f 27/93/24 26/94/24 14/95/24 5/96/24
f 25/97/25 28/98/25 7/99/25 16/100/25
f 30/101/26 29/102/26 11/103/26 12/104/26
f 31/105/27 30/106/27 12/107/27 8/108/27
f 29/109/28 32/110/28 6/111/28 11/112/28
f 32/113/29 27/114/29 5/115/29 6/116/29
f 28/117/30 31/118/30 8/119/30 7/120/30