# Made in Blockbench 4.12.5
mtllib tile_floor_4x4.mtl

o floor
v 0.5 0 0.5
v 0.5 0 -0.5
v 0.5 -0.0625 0.5
v 0.5 -0.0625 -0.5
v -0.5 0 0.5
v -0.5 0 -0.5
v -0.5 -0.0625 0.5
v -0.5 -0.0625 -0.5
v 0.5 0 -1.5
v 0.5 -0.0625 -1.5
v -0.5 0 -1.5
v -0.5 -0.0625 -1.5
v -1.5 0 0.5
v -1.5 -0.0625 0.5
v -1.5 0 -1.5
v -1.5 -0.0625 -1.5
v -1.5 -0.0625 -0.5
v -1.5 0 -0.5
v 0.5 0 2.5
v -0.5 0 2.5
v 0.5 -0.0625 2.5
v -0.5 -0.0625 2.5
v 0.5 0 1.5
v -0.5 0 1.5
v -1.5 -0.0625 2.5
v -1.5 0 2.5
v -1.5 0 1.5
v -1.5 -0.0625 1.5
v -0.5 -0.0625 1.5
v 0.5 -0.0625 1.5
v 2.5 0 0.5
v 2.5 -0.0625 0.5
v 2.5 0 -0.5
v 2.5 -0.0625 -0.5
v 2.5 -0.0625 -1.5
v 2.5 0 -1.5
v 2.5 0 1.5
v 2.5 -0.0625 1.5
v 1.5 -0.0625 1.5
v 1.5 -0.0625 0.5
v 1.5 0 0.5
v 1.5 0 1.5
v 1.5 -0.0625 -1.5
v 1.5 0 -1.5
v 1.5 0 -0.5
v 1.5 -0.0625 -0.5
v 2.5 0 2.5
v 2.5 -0.0625 2.5
v 1.5 0 2.5
v 1.5 -0.0625 2.5
vt 0.46875 0.6328125
vt 0.46875 0.640625
vt 0.34375 0.640625
vt 0.34375 0.6328125
vt 0.34375 0.6640625
vt 0.46875 0.6640625
vt 0.46875 0.7890625
vt 0.34375 0.7890625
vt 0.46875 0.796875
vt 0.46875 0.921875
vt 0.34375 0.921875
vt 0.34375 0.796875
vt 0.46875 0.609375
vt 0.34375 0.609375
vt 0.34375 0.6015625
vt 0.46875 0.6015625
vt 0.468694453125 0.7890625
vt 0.343694453125 0.7890625
vt 0.343694453125 0.6640625
vt 0.468694453125 0.6640625
vt 0.343694375 0.796875
vt 0.468694375 0.796875
vt 0.468694375 0.921875
vt 0.343694375 0.921875
vt 0.34375 0.640625
vt 0.34375 0.6328125
vt 0.46875 0.6328125
vt 0.46875 0.640625
vt 0.343694453125 0.6640625
vt 0.468694453125 0.6640625
vt 0.468694453125 0.7890625
vt 0.343694453125 0.7890625
vt 0.46875 0.6328125
vt 0.46875 0.640625
vt 0.34375 0.640625
vt 0.34375 0.6328125
vt 0.468694375 0.921875
vt 0.343694375 0.921875
vt 0.343694375 0.796875
vt 0.468694375 0.796875
vt 0.468694375 0.796875
vt 0.468694375 0.921875
vt 0.343694375 0.921875
vt 0.343694375 0.796875
vt 0.468694453125 0.6640625
vt 0.468694453125 0.7890625
vt 0.343694453125 0.7890625
vt 0.343694453125 0.6640625
vt 0.34375 0.609375
vt 0.34375 0.6015625
vt 0.46875 0.6015625
vt 0.46875 0.609375
vt 0.468694453125 0.6640625
vt 0.468694453125 0.7890625
vt 0.343694453125 0.7890625
vt 0.343694453125 0.6640625
vt 0.468694375 0.796875
vt 0.468694375 0.921875
vt 0.343694375 0.921875
vt 0.343694375 0.796875
vt 0.468694453125 0.6640625
vt 0.468694453125 0.7890625
vt 0.343694453125 0.7890625
vt 0.343694453125 0.6640625
vt 0.468694375 0.796875
vt 0.468694375 0.921875
vt 0.343694375 0.921875
vt 0.343694375 0.796875
vt 0.343694453125 0.7890625
vt 0.343694453125 0.6640625
vt 0.468694453125 0.6640625
vt 0.468694453125 0.7890625
vt 0.343694375 0.921875
vt 0.343694375 0.796875
vt 0.468694375 0.796875
vt 0.468694375 0.921875
vt 0.46875 0.6015625
vt 0.46875 0.609375
vt 0.34375 0.609375
vt 0.34375 0.6015625
vt 0.343694375 0.921875
vt 0.343694375 0.796875
vt 0.468694375 0.796875
vt 0.468694375 0.921875
vt 0.343694453125 0.7890625
vt 0.343694453125 0.6640625
vt 0.468694453125 0.6640625
vt 0.468694453125 0.7890625
vt 0.343694453125 0.7890625
vt 0.343694453125 0.6640625
vt 0.468694453125 0.6640625
vt 0.468694453125 0.7890625
vt 0.343694375 0.921875
vt 0.343694375 0.796875
vt 0.468694375 0.796875
vt 0.468694375 0.921875
vt 0.46875 0.6171875
vt 0.46875 0.625
vt 0.34375 0.625
vt 0.34375 0.6171875
vt 0.343694453125 0.6640625
vt 0.468694453125 0.6640625
vt 0.468694453125 0.7890625
vt 0.343694453125 0.7890625
vt 0.46875 0.6328125
vt 0.46875 0.640625
vt 0.34375 0.640625
vt 0.34375 0.6328125
vt 0.468694375 0.921875
vt 0.343694375 0.921875
vt 0.343694375 0.796875
vt 0.468694375 0.796875
vt 0.46875 0.6171875
vt 0.46875 0.625
vt 0.34375 0.625
vt 0.34375 0.6171875
vt 0.468694375 0.796875
vt 0.468694375 0.921875
vt 0.343694375 0.921875
vt 0.343694375 0.796875
vt 0.468694453125 0.6640625
vt 0.468694453125 0.7890625
vt 0.343694453125 0.7890625
vt 0.343694453125 0.6640625
vt 0.34375 0.625
vt 0.34375 0.6171875
vt 0.46875 0.6171875
vt 0.46875 0.625
vt 0.343694453125 0.7890625
vt 0.343694453125 0.6640625
vt 0.468694453125 0.6640625
vt 0.468694453125 0.7890625
vt 0.343694375 0.921875
vt 0.343694375 0.796875
vt 0.468694375 0.796875
vt 0.468694375 0.921875
vt 0.46875 0.65625
vt 0.34375 0.65625
vt 0.34375 0.6484375
vt 0.46875 0.6484375
vt 0.46875 0.6484375
vt 0.46875 0.65625
vt 0.34375 0.65625
vt 0.34375 0.6484375
vt 0.34375 0.65625
vt 0.34375 0.6484375
vt 0.46875 0.6484375
vt 0.46875 0.65625
vt 0.468694375 0.796875
vt 0.468694375 0.921875
vt 0.343694375 0.921875
vt 0.343694375 0.796875
vt 0.468694453125 0.6640625
vt 0.468694453125 0.7890625
vt 0.343694453125 0.7890625
vt 0.343694453125 0.6640625
vt 0.34375 0.609375
vt 0.34375 0.6015625
vt 0.46875 0.6015625
vt 0.46875 0.609375
vt 0.468694453125 0.6640625
vt 0.468694453125 0.7890625
vt 0.343694453125 0.7890625
vt 0.343694453125 0.6640625
vt 0.468694375 0.796875
vt 0.468694375 0.921875
vt 0.343694375 0.921875
vt 0.343694375 0.796875
vt 0.468694453125 0.6640625
vt 0.468694453125 0.7890625
vt 0.343694453125 0.7890625
vt 0.343694453125 0.6640625
vt 0.468694375 0.796875
vt 0.468694375 0.921875
vt 0.343694375 0.921875
vt 0.343694375 0.796875
vt 0.34375 0.65625
vt 0.34375 0.6484375
vt 0.46875 0.6484375
vt 0.46875 0.65625
vt 0.46875 0.6171875
vt 0.46875 0.625
vt 0.34375 0.625
vt 0.34375 0.6171875
vt 0.468694375 0.796875
vt 0.468694375 0.921875
vt 0.343694375 0.921875
vt 0.343694375 0.796875
vt 0.468694453125 0.6640625
vt 0.468694453125 0.7890625
vt 0.343694453125 0.7890625
vt 0.343694453125 0.6640625
vn -1 0 0
vn 0 1 0
vn 0 -1 0
vn 0 0 -1
vn 0 1 0
vn 0 -1 0
vn -1 0 0
vn 0 1 0
vn -1 0 0
vn 0 -1 0
vn 0 -1 0
vn 0 1 0
vn 0 0 -1
vn 0 1 0
vn 0 -1 0
vn 0 1 0
vn 0 -1 0
vn 0 1 0
vn 0 -1 0
vn 0 0 -1
vn 0 -1 0
vn 0 1 0
vn 0 1 0
vn 0 -1 0
vn 0 0 1
vn 0 1 0
vn -1 0 0
vn 0 -1 0
vn 0 0 1
vn 0 -1 0
vn 0 1 0
vn 0 0 1
vn 0 1 0
vn 0 -1 0
vn 1 0 0
vn 1 0 0
vn 1 0 0
vn 0 -1 0
vn 0 1 0
vn 0 0 -1
vn 0 1 0
vn 0 -1 0
vn 0 1 0
vn 0 -1 0
vn 1 0 0
vn 0 0 1
vn 0 -1 0
vn 0 1 0
usemtl m_15fcfd19-6f88-7b6f-872d-087ac5a74941
f 14/1/1 13/2/1 18/3/1 17/4/1
f 5/5/2 1/6/2 2/7/2 6/8/2
f 4/9/3 3/10/3 7/11/3 8/12/3
f 11/13/4 9/14/4 10/15/4 12/16/4
f 9/17/5 11/18/5 6/19/5 2/20/5
f 12/21/6 10/22/6 4/23/6 8/24/6
f 15/25/7 16/26/7 17/27/7 18/28/7
f 24/29/8 23/30/8 1/31/8 5/32/8
f 28/33/9 27/34/9 13/35/9 14/36/9
f 30/37/10 29/38/10 7/39/10 3/40/10
f 40/41/11 39/42/11 30/43/11 3/44/11
f 42/45/12 41/46/12 1/47/12 23/48/12
f 44/49/13 43/50/13 10/51/13 9/52/13
f 45/53/14 44/54/14 9/55/14 2/56/14
f 43/57/15 46/58/15 4/59/15 10/60/15
f 41/61/16 45/62/16 2/63/16 1/64/16
f 46/65/17 40/66/17 3/67/17 4/68/17
f 13/69/18 27/70/18 24/71/18 5/72/18
f 28/73/19 14/74/19 7/75/19 29/76/19
f 16/77/20 15/78/20 11/79/20 12/80/20
f 17/81/21 16/82/21 12/83/21 8/84/21
f 15/85/22 18/86/22 6/87/22 11/88/22
f 18/89/23 13/90/23 5/91/23 6/92/23
f 14/93/24 17/94/24 8/95/24 7/96/24
f 21/97/25 19/98/25 20/99/25 22/100/25
f 20/101/26 19/102/26 23/103/26 24/104/26
f 25/105/27 26/106/27 27/107/27 28/108/27
f 21/109/28 22/110/28 29/111/28 30/112/28
f 50/113/29 49/114/29 19/115/29 21/116/29
f 39/117/30 50/118/30 21/119/30 30/120/30
f 49/121/31 42/122/31 23/123/31 19/124/31
f 26/125/32 25/126/32 22/127/32 20/128/32
f 27/129/33 26/130/33 20/131/33 24/132/33
f 25/133/34 28/134/34 29/135/34 22/136/34
f 33/137/35 31/138/35 32/139/35 34/140/35
f 35/141/36 36/142/36 33/143/36 34/144/36
f 37/145/37 38/146/37 32/147/37 31/148/37
f 32/149/38 38/150/38 39/151/38 40/152/38
f 37/153/39 31/154/39 41/155/39 42/156/39
f 36/157/40 35/158/40 43/159/40 44/160/40
f 33/161/41 36/162/41 44/163/41 45/164/41
f 35/165/42 34/166/42 46/167/42 43/168/42
f 31/169/43 33/170/43 45/171/43 41/172/43
f 34/173/44 32/174/44 40/175/44 46/176/44
f 47/177/45 48/178/45 38/179/45 37/180/45
f 48/181/46 47/182/46 49/183/46 50/184/46
f 38/185/47 48/186/47 50/187/47 39/188/47
f 47/189/48 37/190/48 42/191/48 49/192/48