# Made in Blockbench 4.12.5
mtllib tile_wall_window_r.mtl

o wall
v 0.5 3.5 0.75
v -0.5 3.5 0.75
v 0.5 0 0.75
v -0.5 0 0.75
v 0.5 3.5 0.5
v -0.5 3.5 0.5
v 0.5 0 0.5
v -0.5 0 0.5
v 0.5 2.125 0.5
v -0.5 2.125 0.5
v -0.5 2.125 0.75
v 0.5 2.125 0.75
v 0.5 1.125 0.5
v -0.5 1.125 0.5
v -0.5 1.125 0.75
v 0.5 1.125 0.75
v 0.125 3.5 0.5
v 0.125 2.125 0.5
v 0 1.125 0.5
v 0 0 0.5
v 0 0 0.75
v 0 1.125 0.75
v 0.125 2.125 0.75
v 0.125 3.5 0.75
v 0 2 0.5
v -0.5 2 0.5
v -0.5 2 0.75
v 0 2 0.75
vt 0.078125 0.828125
vt 0.078125 1
vt 0 1
vt 0 0.828125
vt 0.1796875 1
vt 0.1796875 0.828125
vt 0.2578125 0.828125
vt 0.2578125 1
vt 0.421875 0.96875
vt 0.421875 1
vt 0.34375 1
vt 0.34375 0.96875
vt 0.40625 0.9296875
vt 0.40625 0.9609375
vt 0.34375 0.9609375
vt 0.34375 0.9296875
vt 0.265625 0.828125
vt 0.296875 0.828125
vt 0.296875 1
vt 0.265625 1
vt 0.3046875 0.828125
vt 0.3359375 0.828125
vt 0.3359375 1
vt 0.3046875 1
vt 0.1953125 0.8125
vt 0.2578125 0.8125
vt 0.2578125 0.828125
vt 0.1796875 0.828125
vt 0.3046875 0.8125
vt 0.3359375 0.8125
vt 0.3359375 0.828125
vt 0.3046875 0.828125
vt 0 0.8125
vt 0.0625 0.8125
vt 0.078125 0.828125
vt 0 0.828125
vt 0.1953125 0.703125
vt 0.1953125 0.5625
vt 0.2578125 0.5625
vt 0.2578125 0.703125
vt 0.3359375 0.703125
vt 0.3046875 0.703125
vt 0.3046875 0.5625
vt 0.3359375 0.5625
vt 0.0625 0.5625
vt 0.0625 0.703125
vt 0 0.703125
vt 0 0.5625
vt 0.296875 0.703125
vt 0.265625 0.703125
vt 0.265625 0.5625
vt 0.296875 0.5625
vt 0.1796875 0.828125
vt 0.1796875 1
vt 0.1328125 1
vt 0.1328125 0.828125
vt 0.1953125 0.5625
vt 0.1953125 0.703125
vt 0.1328125 0.703125
vt 0.1328125 0.5625
vt 0.40625 0.9609375
vt 0.40625 0.9296875
vt 0.46875 0.9296875
vt 0.46875 0.9609375
vt 0.0625 0.703125
vt 0.0625 0.5625
vt 0.125 0.5625
vt 0.125 0.703125
vt 0.078125 1
vt 0.078125 0.828125
vt 0.125 0.828125
vt 0.125 1
vt 0.421875 1
vt 0.421875 0.96875
vt 0.46875 0.96875
vt 0.46875 1
vt 0.296875 0.765625
vt 0.296875 0.703125
vt 0.265625 0.703125
vt 0.265625 0.765625
vt 0.265625 0.703125
vt 0.296875 0.703125
vt 0.296875 0.7265625
vt 0.265625 0.7265625
vt 0.265625 0.75
vt 0.296875 0.75
vt 0.296875 0.703125
vt 0.265625 0.703125
vt 0.2578125 0.8125
vt 0.1953125 0.8125
vt 0.1953125 0.703125
vt 0.2578125 0.703125
vt 0.3359375 0.8125
vt 0.3046875 0.8125
vt 0.3046875 0.703125
vt 0.3359375 0.703125
vt 0.0625 0.8125
vt 0 0.8125
vt 0 0.703125
vt 0.0625 0.703125
vt 0.296875 0.8125
vt 0.265625 0.8125
vt 0.265625 0.703125
vt 0.296875 0.703125
vn 0 0 1
vn 0 0 -1
vn 0 1 0
vn 0 -1 0
vn 1 0 0
vn -1 0 0
vn 0 0 -1
vn -1 0 0
vn 0 0 1
vn 0 0 -1
vn -1 0 0
vn 0 0 1
vn 1 0 0
vn 0 0 -1
vn 0 0 -1
vn 0 -1 0
vn 0 0 1
vn 0 0 1
vn 0 1 0
vn 0 1 0
vn 0.7071067811865476 -0.7071067811865476 0
vn 0 -1 0
vn 0 0 -1
vn -1 0 0
vn 0 0 1
vn 1 0 0
usemtl m_44e72845-3276-c9cf-cbd6-ac94a87b014f
f 23/1/1 24/2/1 2/3/1 11/4/1
f 17/5/2 18/6/2 10/7/2 6/8/2
f 24/9/3 17/10/3 6/11/3 2/12/3
f 20/13/4 21/14/4 4/15/4 8/16/4
f 12/17/5 9/18/5 5/19/5 1/20/5
f 10/21/6 11/22/6 2/23/6 6/24/6
f 25/25/7 26/26/7 10/27/7 18/28/7
f 26/29/8 27/30/8 11/31/8 10/32/8
f 27/33/9 28/34/9 23/35/9 11/36/9
f 19/37/10 20/38/10 8/39/10 14/40/10
f 15/41/11 14/42/11 8/43/11 4/44/11
f 21/45/12 22/46/12 15/47/12 4/48/12
f 13/49/13 16/50/13 3/51/13 7/52/13
f 18/53/14 17/54/14 5/55/14 9/56/14
f 20/57/15 19/58/15 13/59/15 7/60/15
f 21/61/16 20/62/16 7/63/16 3/64/16
f 22/65/17 21/66/17 3/67/17 16/68/17
f 24/69/18 23/70/18 12/71/18 1/72/18
f 17/73/19 24/74/19 1/75/19 5/76/19
f 22/77/20 16/78/20 13/79/20 19/80/20
f 28/81/21 25/82/21 18/83/21 23/84/21
f 9/85/22 12/86/22 23/87/22 18/88/22
f 26/89/23 25/90/23 19/91/23 14/92/23
f 27/93/24 26/94/24 14/95/24 15/96/24
f 28/97/25 27/98/25 15/99/25 22/100/25
f 25/101/26 28/102/26 22/103/26 19/104/26