# Made in Blockbench 4.12.5
mtllib tile_wall_full_3.mtl

o wall
v 0.5 3.5 0.75
v 0.5 0 0.75
v 0.5 3.5 0.5
v 0.5 0 0.5
v -0.5 3.5 0.75
v -0.5 0 0.75
v -0.5 3.5 0.5
v -0.5 0 0.5
v -1.5 3.5 0.75
v -1.5 3.5 0.5
v -1.5 0 0.75
v -1.5 0 0.5
v 1.5 3.5 0.75
v 1.5 0 0.75
v 1.5 3.5 0.5
v 1.5 0 0.5
vt 0.125 1
vt 0 1
vt 0 0.5625
vt 0.125 0.5625
vt 0.2578125 0.5625
vt 0.2578125 1
vt 0.1328125 1
vt 0.1328125 0.5625
vt 0.34375 1
vt 0.34375 0.96875
vt 0.46875 0.96875
vt 0.46875 1
vt 0.46875 0.9609375
vt 0.34375 0.9609375
vt 0.34375 0.9296875
vt 0.46875 0.9296875
vt 0.296875 1
vt 0.265625 1
vt 0.265625 0.5625
vt 0.296875 0.5625
vt 0.3359375 0.5625
vt 0.3359375 1
vt 0.3046875 1
vt 0.3046875 0.5625
vt 0 1
vt 0 0.5625
vt 0.125 0.5625
vt 0.125 1
vt 0.3437499999999999 1
vt 0.3437499999999999 0.9687500000000157
vt 0.46874999999999994 0.9687500000000157
vt 0.46874999999999994 1
vt 0.25775691812898194 0.5625
vt 0.25775691812898194 1
vt 0.13275691812898183 1
vt 0.13275691812898183 0.5625
vt 0.343694418128934 0.9609374999999921
vt 0.343694418128934 0.9296875000000078
vt 0.468694418128934 0.9296875000000078
vt 0.468694418128934 0.9609374999999921
vt 0.46875 0.9687500000000157
vt 0.46875 1
vt 0.3437499999999999 1
vt 0.3437499999999999 0.9687500000000157
vt 0.1250000000000001 0.5625
vt 0.1250000000000001 1
vt 0 1
vt 0 0.5625
vt 0.4686944181289341 0.9296875000000078
vt 0.4686944181289341 0.9609374999999921
vt 0.343694418128934 0.9609374999999921
vt 0.343694418128934 0.9296875000000078
vt 0.1328125 1
vt 0.1328125 0.5625
vt 0.25781249999999994 0.5625
vt 0.25781249999999994 1
vn 0 0 1
vn 0 0 -1
vn 0 1 0
vn 0 -1 0
vn 1 0 0
vn -1 0 0
vn 0 0 1
vn 0 1 0
vn 0 0 -1
vn 0 -1 0
vn 0 1 0
vn 0 0 1
vn 0 -1 0
vn 0 0 -1
usemtl m_5e0bbbb6-169e-b437-126d-dc72fd79de53
f 1/1/1 5/2/1 6/3/1 2/4/1
f 8/5/2 7/6/2 3/7/2 4/8/2
f 7/9/3 5/10/3 1/11/3 3/12/3
f 2/13/4 6/14/4 8/15/4 4/16/4
f 15/17/5 13/18/5 14/19/5 16/20/5
f 11/21/6 9/22/6 10/23/6 12/24/6
f 9/25/7 11/26/7 6/27/7 5/28/7
f 10/29/8 9/30/8 5/31/8 7/32/8
f 12/33/9 10/34/9 7/35/9 8/36/9
f 11/37/10 12/38/10 8/39/10 6/40/10
f 13/41/11 15/42/11 3/43/11 1/44/11
f 14/45/12 13/46/12 1/47/12 2/48/12
f 16/49/13 14/50/13 2/51/13 4/52/13
f 15/53/14 16/54/14 4/55/14 3/56/14