# Made in Blockbench 4.12.5
mtllib tile_wall_full.mtl

o wall
v 0.5 3.5 0.75
v 0.5 0 0.75
v 0.5 3.5 0.5
v 0.5 0 0.5
v -0.5 3.5 0.75
v -0.5 0 0.75
v -0.5 3.5 0.5
v -0.5 0 0.5
vt 0.125 1
vt 0 1
vt 0 0.5625
vt 0.125 0.5625
vt 0.2578125 0.5625
vt 0.2578125 1
vt 0.1328125 1
vt 0.1328125 0.5625
vt 0.34375 1
vt 0.34375 0.96875
vt 0.46875 0.96875
vt 0.46875 1
vt 0.46875 0.9609375
vt 0.34375 0.9609375
vt 0.34375 0.9296875
vt 0.46875 0.9296875
vt 0.296875 1
vt 0.265625 1
vt 0.265625 0.5625
vt 0.296875 0.5625
vt 0.3359375 0.5625
vt 0.3359375 1
vt 0.3046875 1
vt 0.3046875 0.5625
vn 0 0 1
vn 0 0 -1
vn 0 1 0
vn 0 -1 0
vn 1 0 0
vn -1 0 0
usemtl m_5e0bbbb6-169e-b437-126d-dc72fd79de53
f 1/1/1 5/2/1 6/3/1 2/4/1
f 8/5/2 7/6/2 3/7/2 4/8/2
f 7/9/3 5/10/3 1/11/3 3/12/3
f 2/13/4 6/14/4 8/15/4 4/16/4
f 3/17/5 1/18/5 2/19/5 4/20/5
f 6/21/6 5/22/6 7/23/6 8/24/6