# Made in Blockbench 4.12.5
mtllib tile_wall_full_4.mtl

o wall
v 0.5 3.5 0.75
v 0.5 0 0.75
v 0.5 3.5 0.5
v 0.5 0 0.5
v -0.5 3.5 0.75
v -0.5 0 0.75
v -0.5 3.5 0.5
v -0.5 0 0.5
v -1.5 3.5 0.75
v -1.5 3.5 0.5
v -1.5 0 0.75
v -1.5 0 0.5
v 2.5 3.5 0.75
v 2.5 0 0.75
v 2.5 3.5 0.5
v 2.5 0 0.5
v 1.5 3.5 0.5
v 1.5 3.5 0.75
v 1.5 0 0.75
v 1.5 0 0.5
vt 0.125 1
vt 0 1
vt 0 0.5625
vt 0.125 0.5625
vt 0.2578125 0.5625
vt 0.2578125 1
vt 0.1328125 1
vt 0.1328125 0.5625
vt 0.34375 1
vt 0.34375 0.96875
vt 0.46875 0.96875
vt 0.46875 1
vt 0.46875 0.9609375
vt 0.34375 0.9609375
vt 0.34375 0.9296875
vt 0.46875 0.9296875
vt 0.3359375 0.5625
vt 0.3359375 1
vt 0.3046875 1
vt 0.3046875 0.5625
vt 0 1
vt 0 0.5625
vt 0.125 0.5625
vt 0.125 1
vt 0.34375 1
vt 0.34375 0.96875
vt 0.46875 0.96875
vt 0.46875 1
vt 0.257756953125 0.5625
vt 0.257756953125 1
vt 0.132756953125 1
vt 0.132756953125 0.5625
vt 0.343694453125 0.9609375
vt 0.343694453125 0.9296875
vt 0.468694453125 0.9296875
vt 0.468694453125 0.9609375
vt 0.46875 0.96875
vt 0.46875 1
vt 0.34375 1
vt 0.34375 0.96875
vt 0.125 0.5625
vt 0.125 1
vt 0 1
vt 0 0.5625
vt 0.468694453125 0.9296875
vt 0.468694453125 0.9609375
vt 0.343694453125 0.9609375
vt 0.343694453125 0.9296875
vt 0.1328125 1
vt 0.1328125 0.5625
vt 0.2578125 0.5625
vt 0.2578125 1
vt 0.296875 1
vt 0.265625 1
vt 0.265625 0.5625
vt 0.296875 0.5625
vt 0.46875 0.96875
vt 0.46875 1
vt 0.34375 1
vt 0.34375 0.96875
vt 0.125 0.5625
vt 0.125 1
vt 0 1
vt 0 0.5625
vt 0.468694453125 0.9296875
vt 0.468694453125 0.9609375
vt 0.343694453125 0.9609375
vt 0.343694453125 0.9296875
vt 0.1328125 1
vt 0.1328125 0.5625
vt 0.2578125 0.5625
vt 0.2578125 1
vn 0 0 1
vn 0 0 -1
vn 0 1 0
vn 0 -1 0
vn -1 0 0
vn 0 0 1
vn 0 1 0
vn 0 0 -1
vn 0 -1 0
vn 0 1 0
vn 0 0 1
vn 0 -1 0
vn 0 0 -1
vn 1 0 0
vn 0 1 0
vn 0 0 1
vn 0 -1 0
vn 0 0 -1
usemtl m_5e0bbbb6-169e-b437-126d-dc72fd79de53
f 1/1/1 5/2/1 6/3/1 2/4/1
f 8/5/2 7/6/2 3/7/2 4/8/2
f 7/9/3 5/10/3 1/11/3 3/12/3
f 2/13/4 6/14/4 8/15/4 4/16/4
f 11/17/5 9/18/5 10/19/5 12/20/5
f 9/21/6 11/22/6 6/23/6 5/24/6
f 10/25/7 9/26/7 5/27/7 7/28/7
f 12/29/8 10/30/8 7/31/8 8/32/8
f 11/33/9 12/34/9 8/35/9 6/36/9
f 18/37/10 17/38/10 3/39/10 1/40/10
f 19/41/11 18/42/11 1/43/11 2/44/11
f 20/45/12 19/46/12 2/47/12 4/48/12
f 17/49/13 20/50/13 4/51/13 3/52/13
f 15/53/14 13/54/14 14/55/14 16/56/14
f 13/57/15 15/58/15 17/59/15 18/60/15
f 14/61/16 13/62/16 18/63/16 19/64/16
f 16/65/17 14/66/17 19/67/17 20/68/17
f 15/69/18 16/70/18 20/71/18 17/72/18