# Made in Blockbench 4.12.5
mtllib tile_wall_full_sl_3.mtl

o wall
v -1.5 3.5 -0.5
v -0.5 2.875 0.75
v -1.5 2.875 0.75
v -0.5 3.5 -0.5
v -0.5 3.25 -0.5
v -1.5 2.75 0.5
v -0.5 2.75 0.5
v -1.5 3.25 -0.5
v -1.5 0 0.75
v -1.5 0 0.5
v -0.5 0 0.75
v -0.5 0 0.5
v 0.5 3.5 -0.5
v 1.5 2.875 0.75
v 0.5 2.875 0.75
v 1.5 3.5 -0.5
v 1.5 3.25 -0.5
v 0.5 2.75 0.5
v 1.5 2.75 0.5
v 0.5 3.25 -0.5
v 0.5 0 0.75
v 0.5 0 0.5
v 1.5 0 0.75
v 1.5 0 0.5
vt 0.34375 0.7890625
vt 0.34375 0.6640625
vt 0.46875 0.6640625
vt 0.46875 0.7890625
vt 0.34375 0.921875
vt 0.34375 0.796875
vt 0.46875 0.796875
vt 0.46875 0.921875
vt 0.46875 0.96875
vt 0.46875 1
vt 0.34375 1
vt 0.34375 0.96875
vt 0.46875 0.9609375
vt 0.34375 0.9609375
vt 0.34375 0.9296875
vt 0.46875 0.9296875
vt 0.2578125 0.5625
vt 0.2578125 0.90625
vt 0.1328125 0.90625
vt 0.1328125 0.5625
vt 0.125 0.5625
vt 0.125 0.921875
vt 0 0.921875
vt 0 0.5625
vt 0.34375 0.7890625
vt 0.34375 0.6640625
vt 0.46875 0.6640625
vt 0.46875 0.7890625
vt 0.34375 0.921875
vt 0.34375 0.796875
vt 0.46875 0.796875
vt 0.46875 0.921875
vt 0.46875 0.96875
vt 0.46875 1
vt 0.34375 1
vt 0.34375 0.96875
vt 0.46875 0.9609375
vt 0.34375 0.9609375
vt 0.34375 0.9296875
vt 0.46875 0.9296875
vt 0.3046875 1
vt 0.3046875 0.90234375
vt 0.3359375 0.90234375
vt 0.3363715625 1
vt 0.2578125 0.5625
vt 0.2578125 0.90625
vt 0.1328125 0.90625
vt 0.1328125 0.5625
vt 0.125 0.5625
vt 0.125 0.921875
vt 0 0.921875
vt 0 0.5625
vt 0.3359375 0.5625
vt 0.3359375 0.90625
vt 0.3046875 0.90625
vt 0.3046875 0.5625
vt 0.34375 0.7890625
vt 0.34375 0.6640625
vt 0.46875 0.6640625
vt 0.46875 0.7890625
vt 0.34375 0.921875
vt 0.34375 0.796875
vt 0.46875 0.796875
vt 0.46875 0.921875
vt 0.46875 0.96875
vt 0.46875 1
vt 0.34375 1
vt 0.34375 0.96875
vt 0.46875 0.9609375
vt 0.34375 0.9609375
vt 0.34375 0.9296875
vt 0.46875 0.9296875
vt 0.265625 1
vt 0.265625 0.90625
vt 0.296875 0.90625
vt 0.296875 1
vt 0.2578125 0.5625
vt 0.2578125 0.90625
vt 0.1328125 0.90625
vt 0.1328125 0.5625
vt 0.296875 0.5625
vt 0.296875 0.90625
vt 0.265625 0.90625
vt 0.265625 0.5625
vt 0.125 0.5625
vt 0.125 0.921875
vt 0 0.921875
vt 0 0.5625
vn 0 0.8944271909999161 0.44721359549995804
vn 0 -0.8944271909999161 -0.44721359549995804
vn 0 0 -1
vn 0 -1 0
vn 0 0 -1
vn 0 0 1
vn 0 0.8944271909999161 0.44721359549995804
vn 0 -0.8944271909999161 -0.44721359549995804
vn 0 0 -1
vn 0 -1 0
vn -1 0 0
vn 0 0 -1
vn 0 0 1
vn -1 0 0
vn 0 0.8944271909999161 0.44721359549995804
vn 0 -0.8944271909999161 -0.44721359549995804
vn 0 0 -1
vn 0 -1 0
vn 1 0 0
vn 0 0 -1
vn 1 0 0
vn 0 0 1
usemtl m_a7ef9f93-a577-1968-4f41-0f1b158fcc23
f 4/1/1 2/2/1 15/3/1 13/4/1
f 20/5/2 18/6/2 7/7/2 5/8/2
f 5/9/3 4/10/3 13/11/3 20/12/3
f 21/13/4 11/14/4 12/15/4 22/16/4
f 12/17/5 7/18/5 18/19/5 22/20/5
f 21/21/6 15/22/6 2/23/6 11/24/6
f 1/25/7 3/26/7 2/27/7 4/28/7
f 5/29/8 7/30/8 6/31/8 8/32/8
f 8/33/9 1/34/9 4/35/9 5/36/9
f 11/37/10 9/38/10 10/39/10 12/40/10
f 8/41/11 6/42/11 3/43/11 1/44/11
f 10/45/12 6/46/12 7/47/12 12/48/12
f 11/49/13 2/50/13 3/51/13 9/52/13
f 9/53/14 3/54/14 6/55/14 10/56/14
f 13/57/15 15/58/15 14/59/15 16/60/15
f 17/61/16 19/62/16 18/63/16 20/64/16
f 20/65/17 13/66/17 16/67/17 17/68/17
f 23/69/18 21/70/18 22/71/18 24/72/18
f 16/73/19 14/74/19 19/75/19 17/76/19
f 22/77/20 18/78/20 19/79/20 24/80/20
f 24/81/21 19/82/21 14/83/21 23/84/21
f 23/85/22 14/86/22 15/87/22 21/88/22