# Made in Blockbench 4.12.5
mtllib tile_wall_str-sl_l.mtl

o wall
v -0.5 3.5 0.75
v -0.5 0 0.75
v -0.5 3.5 0.5
v -0.5 0 0.5
v 0.5 3.5 -0.5
v 0.5 0 0.75
v 0.5 3.25 -0.5
v 0.5 0 0.5
v 0.5 2.75 0.5
v -0.5 2.75 0.5
v -0.5 2.75 0.75
v 0.5 2.875 0.75
v -0.5 3.5 -0.5
vt 0.46875 0.9296875
vt 0.46875 0.9609375
vt 0.34375 0.9609375
vt 0.34375 0.9296875
vt 0.265625 0.90625
vt 0.296875 0.90625
vt 0.296875 1
vt 0.265625 1
vt 0.2578125 0.90625
vt 0.1328125 0.90625
vt 0.1328125 0.5625
vt 0.2578125 0.5625
vt 0.296875 0.90625
vt 0.265625 0.90625
vt 0.265625 0.5625
vt 0.296875 0.5625
vt 0.125 0.90625
vt 0 0.90625
vt 0 0.5625
vt 0.125 0.5625
vt 0.3359375 0.90625
vt 0.3046875 0.90625
vt 0.3046875 0.5625
vt 0.3359375 0.5625
vt 0.2578125 0.90625
vt 0.2578125 1
vt 0.1328125 0.90625
vt 0.469830546875 0.79751234375
vt 0.469830546875 0.922512265625
vt 0.344830546875 0.922512421875
vt 0.125 0.90625
vt 0.125 1
vt 0 1
vt 0 0.90625
vt 0.125 0.90625
vt 0 1
vt 0.3046875 1
vt 0.3046875 0.90625
vt 0.3359375 0.90625
vt 0.3359375 1
vt 0.344830546875 0.797512421875
vt 0.469830546875 0.79751234375
vt 0.344830546875 0.922512421875
vt 0.34375 1
vt 0.34375 0.96875
vt 0.46875 1
vt 0.34375 0.7890625
vt 0.34375 0.685546875
vt 0.46875 0.7890625
vt 0.46875 0.7890625
vt 0.34375 0.685546875
vt 0.34375 0.6640625
vn 0 -1 0
vn -1 0 0
vn 0 0 -1
vn -1 0 0
vn 0 0 1
vn 1 0 0
vn 0 0 -1
vn -0.5570860145311556 -0.7427813527082074 -0.3713906763541037
vn 0.48795003647426666 0.7807200583588267 0.39036002917941337
vn 0 0 1
vn 1 0 0
vn -0.24253562503633297 -0.9701425001453319 0
vn 0 0 -1
vn 0 1 0
vn 0 1 0
usemtl m_f4b9e5e8-6871-bb1f-cff9-d863f17a2ceb
f 8/1/1 6/2/1 2/3/1 4/4/1
f 10/5/2 11/6/2 1/7/2 3/8/2
f 10/9/3 9/10/3 8/11/3 4/12/3
f 11/13/4 10/14/4 4/15/4 2/16/4
f 12/17/5 11/18/5 2/19/5 6/20/5
f 9/21/6 12/22/6 6/23/6 8/24/6
f 10/25/7 3/26/7 9/27/7
f 7/28/8 9/29/8 3/30/8
f 12/31/9 5/32/9 1/33/9
f 11/34/10 12/35/10 1/36/10
f 5/37/11 12/38/11 9/39/11 7/40/11
f 13/41/12 7/42/12 3/43/12
f 5/44/13 7/45/13 13/46/13
f 13/47/14 3/48/14 5/49/14
f 5/50/15 3/51/15 1/52/15