# Made in Blockbench 4.12.5
mtllib tile_wall_door.mtl

o wall
v -1 3.5 0.75
v 1 3.5 0.75
v -1 0 0.75
v 1 0 0.75
v -1 3.5 0.5
v 1 3.5 0.5
v -1 0 0.5
v 1 0 0.5
v -0.5 3.5 0.5
v -0.75 0 0.5
v -0.75 0 0.75
v -0.5 3.5 0.75
v 0.5 3.5 0.5
v 0.75 0 0.5
v 0.75 0 0.75
v 0.5 3.5 0.75
v -1 2.5 0.5
v -1 2.5 0.75
v -0.5 2.5 0.75
v 0.5 2.5 0.75
v 1 2.5 0.75
v 1 2.5 0.5
v 0.5 2.5 0.5
v -0.5 2.5 0.5
v 1 2.25 0.75
v 0.75 2.25 0.75
v 0.75 2.25 0.5
v 1 2.25 0.5
v -1 2.25 0.75
v -1 2.25 0.5
v -0.75 2.25 0.5
v -0.75 2.25 0.75
vt 0.6640625 0.875
vt 0.6953125 0.84375
vt 0.7265625 0.84375
vt 0.7265625 0.875
vt 0.4765625 0.875
vt 0.4765625 0.84375
vt 0.5078125 0.84375
vt 0.5390625 0.875
vt 0.59375 0.5546875
vt 0.53125 0.5546875
vt 0.53125 0.5234375
vt 0.59375 0.5234375
vt 0.46875 0.9609375
vt 0.4375 0.9609375
vt 0.4375 0.9296875
vt 0.46875 0.9296875
vt 0.3046875 0.875
vt 0.3046875 0.84375
vt 0.3359375 0.84375
vt 0.3359375 0.875
vt 0.265625 0.875
vt 0.265625 0.84375
vt 0.296875 0.84375
vt 0.296875 0.875
vt 0.6640625 0.875
vt 0.6953125 0.84375
vt 0.7265625 0.84375
vt 0.7265625 0.875
vt 0.34375 0.9296875
vt 0.375 0.9296875
vt 0.375 0.9609375
vt 0.34375 0.9609375
vt 0.4765625 0.875
vt 0.4765625 0.84375
vt 0.5078125 0.84375
vt 0.5390625 0.875
vt 0.34375 0.5234375
vt 0.40625 0.5234375
vt 0.40625 0.5546875
vt 0.34375 0.5546875
vt 0.40625 0.5234375
vt 0.53125 0.5234375
vt 0.53125 0.5546875
vt 0.40625 0.5546875
vt 0.3046875 1
vt 0.3046875 0.875
vt 0.3359375 0.875
vt 0.3359375 1
vt 0.4765625 1
vt 0.4765625 0.875
vt 0.5390625 0.875
vt 0.5390625 1
vt 0.5390625 1
vt 0.5390625 0.875
vt 0.6640625 0.875
vt 0.6640625 1
vt 0.6640625 1
vt 0.6640625 0.875
vt 0.7265625 0.875
vt 0.7265625 1
vt 0.265625 1
vt 0.265625 0.875
vt 0.296875 0.875
vt 0.296875 1
vt 0.4765625 1
vt 0.4765625 0.875
vt 0.5390625 0.875
vt 0.5390625 1
vt 0.5390625 1
vt 0.5390625 0.875
vt 0.6640625 0.875
vt 0.6640625 1
vt 0.6640625 1
vt 0.6640625 0.875
vt 0.7265625 0.875
vt 0.7265625 1
vt 0.40625 0.5546875
vt 0.375 0.5546875
vt 0.375 0.5234375
vt 0.40625 0.5234375
vt 0.53125 0.5234375
vt 0.53125 0.5546875
vt 0.40625 0.5546875
vt 0.40625 0.5234375
vt 0.53125 0.5234375
vt 0.5625 0.5234375
vt 0.5625 0.5546875
vt 0.53125 0.5546875
vt 0.7265625 0.5625
vt 0.7265625 0.84375
vt 0.6953125 0.84375
vt 0.6953125 0.5625
vt 0.3359375 0.5625
vt 0.3359375 0.84375
vt 0.3046875 0.84375
vt 0.3046875 0.5625
vt 0.5078125 0.5625
vt 0.5078125 0.84375
vt 0.4765625 0.84375
vt 0.4765625 0.5625
vt 0.296875 0.5625
vt 0.296875 0.84375
vt 0.265625 0.84375
vt 0.265625 0.5625
vt 0.3359375 0.5625
vt 0.3359375 0.84375
vt 0.3046875 0.84375
vt 0.3046875 0.5625
vt 0.7265625 0.5625
vt 0.7265625 0.84375
vt 0.6953125 0.84375
vt 0.6953125 0.5625
vt 0.296875 0.5625
vt 0.296875 0.84375
vt 0.265625 0.84375
vt 0.265625 0.5625
vt 0.5078125 0.5625
vt 0.5078125 0.84375
vt 0.4765625 0.84375
vt 0.4765625 0.5625
vn 0 0 1
vn 0 0 -1
vn 0 1 0
vn 0 -1 0
vn -1 0 0
vn 1 0 0
vn 0 0 -1
vn 0 -1 0
vn 0 0 1
vn 0 1 0
vn 0 1 0
vn -1 0 0
vn 0 0 1
vn 0 0 1
vn 0 0 1
vn 1 0 0
vn 0 0 -1
vn 0 0 -1
vn 0 0 -1
vn 0.7071067811865476 -0.7071067811865476 0
vn 0 -1 0
vn -0.7071067811865476 -0.7071067811865476 0
vn 0 0 1
vn -1 0 0
vn 0 0 -1
vn 1 0 0
vn -1 0 0
vn 0 0 -1
vn 1 0 0
vn 0 0 1
usemtl m_e4ab8a83-02ab-0e6f-9e53-4c4231f57a01
f 20/1/1 26/2/1 25/3/1 21/4/1
f 22/5/2 28/6/2 27/7/2 23/8/2
f 6/9/3 13/10/3 16/11/3 2/12/3
f 4/13/4 15/14/4 14/15/4 8/16/4
f 17/17/5 30/18/5 29/19/5 18/20/5
f 21/21/6 25/22/6 28/23/6 22/24/6
f 24/25/7 31/26/7 30/27/7 17/28/7
f 7/29/8 10/30/8 11/31/8 3/32/8
f 18/33/9 29/34/9 32/35/9 19/36/9
f 1/37/10 12/38/10 9/39/10 5/40/10
f 12/41/11 16/42/11 13/43/11 9/44/11
f 5/45/12 17/46/12 18/47/12 1/48/12
f 1/49/13 18/50/13 19/51/13 12/52/13
f 12/53/14 19/54/14 20/55/14 16/56/14
f 16/57/15 20/58/15 21/59/15 2/60/15
f 2/61/16 21/62/16 22/63/16 6/64/16
f 6/65/17 22/66/17 23/67/17 13/68/17
f 13/69/18 23/70/18 24/71/18 9/72/18
f 9/73/19 24/74/19 17/75/19 5/76/19
f 19/77/20 32/78/20 31/79/20 24/80/20
f 23/81/21 20/82/21 19/83/21 24/84/21
f 23/85/22 27/86/22 26/87/22 20/88/22
f 4/89/23 25/90/23 26/91/23 15/92/23
f 15/93/24 26/94/24 27/95/24 14/96/24
f 14/97/25 27/98/25 28/99/25 8/100/25
f 8/101/26 28/102/26 25/103/26 4/104/26
f 3/105/27 29/106/27 30/107/27 7/108/27
f 7/109/28 30/110/28 31/111/28 10/112/28
f 10/113/29 31/114/29 32/115/29 11/116/29
f 11/117/30 32/118/30 29/119/30 3/120/30