# Made in Blockbench 4.12.5
mtllib window_m.mtl

o window
v 0.5 2.125 0.65625
v 0.5 1.125 0.65625
v -0.5 1.125 0.65625
v 0.5 2.125 0.59375
v 0.5 1.125 0.59375
v -0.5 1.125 0.59375
v -0.5 2.125 0.65625
v -0.5 2.125 0.59375
vt 0.25 0.75
vt 0.25 1
vt 0 1
vt 0 0.75
vt 0.25 0.734375
vt 0 0.734375
vt 0 0.484375
vt 0.25 0.484375
vt 0.265625 0.984375
vt 0.515625 0.984375
vt 0.515625 1
vt 0.265625 1
vt 0.515625 0.953125
vt 0.515625 0.96875
vt 0.265625 0.96875
vt 0.265625 0.953125
vt 0.28125 0.9375
vt 0.265625 0.9375
vt 0.265625 0.6875
vt 0.28125 0.6875
vt 0.3125 0.6875
vt 0.3125 0.9375
vt 0.296875 0.9375
vt 0.296875 0.6875
vn 0 0 1
vn 0 0 -1
vn 0 1 0
vn 0 -1 0
vn 1 0 0
vn -1 0 0
usemtl m_ffa44b00-e9db-ec4e-d4fb-d732abd02c16
f 2/1/1 1/2/1 7/3/1 3/4/1
f 8/5/2 4/6/2 5/7/2 6/8/2
f 7/9/3 1/10/3 4/11/3 8/12/3
f 5/13/4 2/14/4 3/15/4 6/16/4
f 4/17/5 1/18/5 2/19/5 5/20/5
f 3/21/6 7/22/6 8/23/6 6/24/6