# Made in Blockbench 4.12.5
mtllib window_l.mtl

o window
v -0.5 2.125 0.65625
v -0.5 1.125 0.65625
v 0 1.125 0.65625
v -0.5 2.125 0.59375
v -0.5 1.125 0.59375
v 0 1.125 0.59375
v 0 2.125 0.65625
v 0 2.125 0.59375
vt 0.25 1
vt 0.125 1
vt 0.125 0.75
vt 0.25 0.75
vt 0.125 0.484375
vt 0.125 0.734375
vt 0 0.734375
vt 0 0.484375
vt 0.390625 1
vt 0.390625 0.984375
vt 0.515625 0.984375
vt 0.515625 1
vt 0.515625 0.96875
vt 0.390625 0.96875
vt 0.390625 0.953125
vt 0.515625 0.953125
vt 0.28125 0.68359375
vt 0.28125 0.93359375
vt 0.265625 0.93359375
vt 0.265625 0.68359375
vt 0.3125 0.93359375
vt 0.296875 0.93359375
vt 0.296875 0.68359375
vt 0.3125 0.68359375
vn 0 0 1
vn 0 0 -1
vn 0 1 0
vn 0 -1 0
vn -1 0 0
vn 1 0 0
usemtl m_cbf6f36d-f7d4-326a-4e1c-df5105a7534f
f 7/1/1 1/2/1 2/3/1 3/4/1
f 5/5/2 4/6/2 8/7/2 6/8/2
f 4/9/3 1/10/3 7/11/3 8/12/3
f 3/13/4 2/14/4 5/15/4 6/16/4
f 2/17/5 1/18/5 4/19/5 5/20/5
f 8/21/6 7/22/6 3/23/6 6/24/6