# Made in Blockbench 4.12.5
mtllib window_r.mtl

o window
v 0.5 2.125 0.65625
v 0.5 1.125 0.65625
v 0 1.125 0.65625
v 0.5 2.125 0.59375
v 0.5 1.125 0.59375
v 0 1.125 0.59375
v 0 2.125 0.65625
v 0 2.125 0.59375
vt 0.125 0.75
vt 0.125 1
vt 0 1
vt 0 0.75
vt 0.390625 0.984375
vt 0.515625 0.984375
vt 0.515625 1
vt 0.390625 1
vt 0.515625 0.953125
vt 0.515625 0.96875
vt 0.390625 0.96875
vt 0.390625 0.953125
vt 0.28125 0.9375
vt 0.265625 0.9375
vt 0.265625 0.6875
vt 0.28125 0.6875
vt 0.3125 0.6875
vt 0.3125 0.9375
vt 0.296875 0.9375
vt 0.296875 0.6875
vt 0.25 0.734375
vt 0.125 0.734375
vt 0.125 0.484375
vt 0.25 0.484375
vn 0 0 1
vn 0 1 0
vn 0 -1 0
vn 1 0 0
vn -1 0 0
vn 0 0 -1
usemtl m_18a3e42c-0e7b-78d7-b5ac-228abe0f82c1
f 2/1/1 1/2/1 7/3/1 3/4/1
f 7/5/2 1/6/2 4/7/2 8/8/2
f 5/9/3 2/10/3 3/11/3 6/12/3
f 4/13/4 1/14/4 2/15/4 5/16/4
f 3/17/5 7/18/5 8/19/5 6/20/5
f 8/21/6 4/22/6 5/23/6 6/24/6